<?xml version="1.0" encoding="UTF-8"?>
<!--
Licensed to the Apache Software Foundation (ASF) under one
or more contributor license agreements.  See the NOTICE file
distributed with this work for additional information
regarding copyright ownership.  The ASF licenses this file
to you under the Apache License, Version 2.0 (the
"License"); you may not use this file except in compliance
with the License.  You may obtain a copy of the License at

   http://www.apache.org/licenses/LICENSE-2.0

Unless required by applicable law or agreed to in writing,
software distributed under the License is distributed on an
"AS IS" BASIS, WITHOUT WARRANTIES OR CONDITIONS OF ANY
KIND, either express or implied.  See the License for the
specific language governing permissions and limitations
under the License.
-->
<svg width="54px" height="54px" viewBox="0 0 54 54" version="1.1" xmlns="http://www.w3.org/2000/svg" xmlns:xlink="http://www.w3.org/1999/xlink">
    <title>icon/已驳回</title>
    <g id="icon/已驳回" stroke="none" stroke-width="1" fill="none" fill-rule="evenodd">
        <g id="已驳回">
            <g id="6_撤回" transform="translate(7.000000, 3.000000)" fill-rule="nonzero">
                <path d="M39.8185417,13.0670833 C39.7788515,12.6232227 39.5844083,12.207435 39.2692083,11.8924167 L28.215875,0.584416667 C27.915418,0.265786997 27.5102453,0.0660406283 27.0745417,0.02175 C26.9552083,0.01175 26.9225417,0.01175 26.8892083,0.01175 L1.895875,0.01175 C1.40254167,0.01175 0.935208333,0.20975 0.584541667,0.562416667 C0.237353446,0.918493315 0.0434991094,1.39642802 0.0445416667,1.89375 L0.0445416667,44.1730833 C0.028745122,44.2689664 0.0202761725,44.3659136 0.0192083333,44.4630833 C0.0192083333,45.4990833 0.841208333,46.3410833 1.857875,46.3410833 L10.337875,46.3410833 C10.4245417,46.32775 10.5092083,46.3064167 10.5985417,46.3064167 L15.699875,46.3064167 C17.6899026,46.3282676 19.5381857,45.2791242 20.5395607,43.5592593 C21.5409358,41.8393944 21.5409358,39.7141056 20.5395607,37.9942407 C19.5381857,36.2743758 17.6899026,35.2252324 15.699875,35.2470833 L9.19454167,35.2470833 L11.8665417,37.56975 L11.8665417,37.5630833 C12.3330069,37.9683784 12.5479851,38.5916363 12.4305794,39.1983239 C12.3131737,39.8050114 11.881199,40.3030716 11.2972083,40.5050833 C10.7131576,40.7070353 10.0657188,40.5817164 9.59920833,40.1764167 L3.277875,34.6810833 C2.89093567,34.3443997 2.67370825,33.8531163 2.68504339,33.3403304 C2.69637852,32.8275444 2.93510278,32.3463399 3.33654167,32.0270833 L9.65454167,26.9884167 C10.1356809,26.5853947 10.7974122,26.4746949 11.3835257,26.6991779 C11.9696392,26.923661 12.3881167,27.4480839 12.4769317,28.0693999 C12.5657467,28.6907159 12.3109555,29.3113802 11.8112083,29.6910833 L9.17520833,31.7924167 L15.699875,31.7924167 C20.6625417,31.7924167 24.685875,35.81575 24.685875,40.7784167 C24.685875,42.88175 23.957875,44.81175 22.7472083,46.3424167 L37.9785417,46.3424167 C38.4685417,46.3424167 38.9385417,46.14375 39.285875,45.78975 C39.6330816,45.4315739 39.8266168,44.9519226 39.825216,44.4530833 L39.825216,13.2490833 C39.8245417,13.1270833 39.8245417,13.0970833 39.8185417,13.0670833 Z" id="路径" fill="#3889FF"></path>
                <path d="M20.685875,10.6310833 L7.35254167,10.6310833 C6.25254167,10.6310833 5.35254167,9.73108333 5.35254167,8.63108333 C5.35254167,7.53108333 6.25254167,6.63108333 7.35254167,6.63108333 L20.685875,6.63108333 C21.785875,6.63108333 22.685875,7.53108333 22.685875,8.63108333 C22.685875,9.73108333 21.785875,10.6310833 20.685875,10.6310833 L20.685875,10.6310833 Z M26.0192083,19.29775 L7.35254167,19.29775 C6.25254167,19.29775 5.35254167,18.39775 5.35254167,17.29775 C5.35254167,16.19775 6.25254167,15.29775 7.35254167,15.29775 L26.0192083,15.29775 C27.1192083,15.29775 28.0192083,16.19775 28.0192083,17.29775 C28.0192083,18.39775 27.1192083,19.29775 26.0192083,19.29775 L26.0192083,19.29775 Z" id="形状" fill="#FFFFFF"></path>
            </g>
            <rect id="矩形" x="0" y="0" width="54" height="54"></rect>
        </g>
    </g>
</svg>