<svg xmlns="http://www.w3.org/2000/svg" viewBox="0 0 24 24"><g fill-rule="evenodd" fill="none"><path d="M0 0h24v24H0z"/><path fill="#302647" fill-opacity=".6" d="M12 2c5.523 0 10 4.477 10 10s-4.477 10-10 10S2 17.523 2 12 6.477 2 12 2zm1.758 16.574-.156.231c.363.126.714.3 1.056.525l.174-.273a5.859 5.859 0 0 0-1.074-.483zm-3.318-2.067c-.18.516-.39.912-.63 1.194l.225.27a3.61 3.61 0 0 0 .459-.738h.087v2.088h.318v-.669h.828v-.303h-.828v-.411h.828v-.306h-.828v-.399h.942v-.309h-1.209c.042-.111.084-.225.126-.345l-.318-.072zm-.681.012c-.147.45-.372.843-.675 1.176l.105.336c.09-.09.174-.183.255-.279v1.569h.318v-2.019c.12-.204.219-.42.294-.645l-.297-.138zm3.951 1.17h-.303v.426a.888.888 0 0 1-.249.585c-.15.138-.444.252-.879.348l.168.267c.432-.096.747-.237.939-.417.198-.195.306-.456.324-.783v-.426zm3.378-1.164h-.303c0 .249.006.48.018.696h-.624v-.192h.507v-.282h-.507v-.219h-.306v.219h-.549v.282h.549v.192h-.705v.285h1.653a4.807 4.807 0 0 0 .204 1.062 1.525 1.525 0 0 1-.525.495l.171.252c.183-.099.348-.237.492-.417a.832.832 0 0 0 .066.111c.126.18.246.27.357.27.138 0 .24-.201.312-.6l-.264-.144c-.03.282-.06.423-.087.423-.036 0-.087-.069-.156-.204-.018-.033-.033-.072-.051-.117a3.64 3.64 0 0 0 .357-.918l-.279-.126c-.054.228-.12.432-.201.618l-.024-.117a4.485 4.485 0 0 1-.069-.588h.705v-.285h-.723a12.028 12.028 0 0 1-.018-.696zm-1.371.99c-.021.063-.042.126-.066.189h-.393v.276h.276c-.06.117-.126.216-.192.297l.063.249h.543v.198c-.21.018-.435.033-.672.045l.036.288.636-.054v.3h.306v-.33l.432-.054v-.27c-.135.018-.279.033-.432.048v-.171h.417v-.261h-.417v-.18h-.306v.18h-.255c.054-.087.108-.183.159-.285h.849v-.276h-.735c.015-.042.03-.087.048-.132l-.297-.057zm-7.056-.777H6.348v.3h.996v1.794H6.159v.303h2.685v-.303H7.662v-1.794h.999v-.3zm4.404-.198a2.81 2.81 0 0 1-.876.843l.201.237c.06-.042.123-.084.189-.132v1.233h.306v-1.143h1.368v1.113h.306v-1.407h-.6c.084-.084.171-.183.255-.294v-.228h-.942l.102-.156-.309-.066zm.762.498c-.078.09-.153.174-.228.246h-.777c.081-.078.159-.159.234-.246h.771zm3.567-.486-.237.15c.15.168.267.318.354.453l.231-.162a3.704 3.704 0 0 0-.348-.441zM12 4a2 2 0 0 0-1.688 3.072l-2.845 3.983a2 2 0 1 0 1.388 2.695h6.29a2 2 0 1 0 1.388-2.695l-2.845-3.983A2 2 0 0 0 12 4zm.468 3.945 2.844 3.982c-.065.101-.12.209-.166.322H8.854a1.994 1.994 0 0 0-.166-.322l2.844-3.982a2.005 2.005 0 0 0 .936 0z" data-follow-fill="#302647"/></g></svg>