<?xml version="1.0" encoding="UTF-8"?>
<svg width="40px" height="40px" viewBox="0 0 40 40" version="1.1" xmlns="http://www.w3.org/2000/svg" xmlns:xlink="http://www.w3.org/1999/xlink">
    <title>插图/组织</title>
    <g id="插图/组织" stroke="none" stroke-width="1" fill="none" fill-rule="evenodd">
        <g id="cloud-computing-33" transform="translate(3.000000, 3.000000)" fill-rule="nonzero">
            <path d="M17,0 C16.6991133,0 16.4313633,0.190253906 16.3317539,0.473808594 C16.2321445,0.757363281 16.3227891,1.07352344 16.5572695,1.26171875 L20.0989141,4.09507422 C20.406043,4.34130859 20.850832,4.28878125 21.0950078,3.984375 C21.3391836,3.67864062 21.2893789,3.23312109 20.9843086,2.98828125 L19.2155781,1.57369531 C26.7623828,2.65279687 32.5833555,9.15921484 32.5833555,17 C32.5833555,24.0176133 27.8470625,30.1975781 21.0653242,32.0278672 C20.6876055,32.1302656 20.4642148,32.5190078 20.5658828,32.8966602 C20.6516797,33.2127539 20.9373594,33.4202734 21.2493359,33.4202734 C21.3108945,33.4202734 21.3731836,33.4126367 21.4347422,33.3960352 C28.8327969,31.3984023 34,24.6561094 34,17 C34,7.62635937 26.3736406,0 17,0 Z" id="Shape" fill="#6A549E"></path>
            <path d="M13.9010195,29.9049258 C13.5952852,29.6600195 13.1504961,29.7126133 12.9049258,30.015625 C12.66075,30.3213594 12.7105547,30.7668789 13.015625,31.0117188 L14.7843555,32.4263047 C7.23761719,31.3472031 1.41664453,24.8407852 1.41664453,17 C1.41664453,9.98238672 6.1529375,3.80242188 12.9346758,1.97213281 C13.3123945,1.86973438 13.5357852,1.48099219 13.4341172,1.10333984 C13.3310547,0.724957031 12.9401875,0.504289063 12.5653242,0.603898438 C5.16726953,2.60159766 0,9.34389063 0,17 C0,26.3736406 7.62635937,34 17,34 C17.3008867,34 17.5686367,33.8097461 17.6682461,33.5261914 C17.7678555,33.2426367 17.6772109,32.9264766 17.4427305,32.7382813 L13.9010195,29.9049258 Z" id="Shape" fill="#6A549E"></path>
            <path d="M10.6139102,24.0833555 L24.7695312,24.0833555 C27.5032773,24.0833555 29.7278867,21.8587461 29.7278867,19.125 C29.7278867,17.1247109 28.5308477,15.4069141 26.8208203,14.623918 C26.3395742,10.3605703 22.7304609,7.08335547 18.3945312,7.08335547 C15.3142773,7.08335547 12.5505156,8.72624609 11.0365859,11.3831602 C10.8956719,11.3737305 10.7556875,11.3554688 10.6139102,11.3554688 C7.10480469,11.3554688 4.25,14.2102734 4.25,17.7193789 C4.25,21.2284844 7.10480469,24.0833555 10.6139102,24.0833555 Z" id="Shape" fill="#6A549E"></path>
            <path d="M10.6139102,12.7721133 C11.4820391,12.7721133 12.335625,12.9996875 13.0820312,13.4306641 C13.4195742,13.6257656 13.8533398,13.5095547 14.0497695,13.1712812 C14.2455352,12.8323437 14.1293242,12.3993086 13.7903867,12.203543 C13.3868359,11.9706562 12.9554609,11.7950781 12.5125312,11.6567539 C13.8176133,9.69119531 15.9951406,8.5 18.3945312,8.5 C21.8113984,8.5 24.667,10.9509219 25.3084844,14.2211641 C25.1290547,14.2014414 24.9540742,14.1667109 24.7695312,14.1667109 C24.378,14.1667109 24.0611758,14.4835352 24.0611758,14.8750664 C24.0611758,15.2665977 24.378,15.5834219 24.7695312,15.5834219 C26.7222734,15.5834219 28.3111758,17.1723242 28.3111758,19.1250664 C28.3111758,21.0778086 26.7222734,22.6666445 24.7695312,22.6666445 L10.6139102,22.6666445 C7.88574219,22.6666445 5.66664453,20.4475469 5.66664453,17.7193789 C5.66664453,14.9912109 7.88574219,12.7721133 10.6139102,12.7721133 Z" id="Shape" fill="#FFFFFF"></path>
            <path d="M26.4506055,16.0272813 C26.7245977,16.5298438 26.8945313,17.0968867 26.8945313,17.7083555 C26.8945313,19.6610977 25.3056289,21.25 23.3528867,21.25 L9.19726562,21.25 C8.19512891,21.25 7.26464453,20.946125 6.48463672,20.4320078 C7.37003125,21.7754063 8.88787891,22.6666445 10.6139102,22.6666445 L24.7695312,22.6666445 C26.7222734,22.6666445 28.3111758,21.0777422 28.3111758,19.125 C28.3111758,17.7837266 27.5528164,16.6281914 26.4506055,16.0272813 Z" id="Shape" fill="#E8E8F3"></path>
        </g>
    </g>
</svg>