<svg xmlns="http://www.w3.org/2000/svg" viewBox="0 0 24 24"><g fill-rule="evenodd" fill="none"><path d="M0 0h24v24H0z"/><path fill="#302647" fill-opacity=".6" d="m12.886 2.438 6.275 3.1a2 2 0 0 1 1.066 1.358l1.569 7.047a2 2 0 0 1-.374 1.662l-4.371 5.623a2 2 0 0 1-1.579.772H8.528a2 2 0 0 1-1.579-.772l-4.371-5.623a2 2 0 0 1-.374-1.662l1.569-7.047a2 2 0 0 1 1.066-1.359l6.275-3.1a2 2 0 0 1 1.772 0zm-1.001 15.365c-.366 0-.639.112-.819.338-.18.225-.27.491-.27.798 0 .313.09.58.27.802.18.222.453.333.819.333.366 0 .638-.11.818-.333.18-.222.27-.489.27-.802 0-.307-.09-.573-.27-.798-.18-.226-.452-.338-.818-.338zm3.424-.678h-.565v1.016a.676.676 0 0 0-.244-.236.687.687 0 0 0-.344-.085.817.817 0 0 0-.67.313c-.168.208-.252.494-.252.857 0 .315.085.573.255.775.17.2.38.301.628.301a.762.762 0 0 0 .38-.086.713.713 0 0 0 .209-.187l.062-.088V20h.54v-2.875zm-5.737-.004H8.318V20h.598v-1.035h.611c.32 0 .565-.07.737-.211.172-.14.257-.381.257-.72 0-.312-.085-.542-.257-.69a.953.953 0 0 0-.552-.217l-.14-.006zm2.31 1.152c.164 0 .289.058.376.173.087.116.13.28.13.493 0 .214-.043.379-.13.495a.441.441 0 0 1-.375.173.444.444 0 0 1-.376-.173c-.088-.116-.132-.281-.132-.495 0-.213.044-.377.132-.493a.445.445 0 0 1 .376-.173zm2.4.034c.106 0 .2.033.28.101.132.112.198.298.198.559a.777.777 0 0 1-.123.455.411.411 0 0 1-.36.176c-.157 0-.275-.06-.352-.177-.078-.118-.116-.275-.116-.472 0-.182.038-.335.114-.458.076-.123.195-.184.358-.184zm-4.805-.686c.141 0 .252.032.33.096.08.064.119.17.119.32s-.04.26-.118.328a.486.486 0 0 1-.331.104h-.561v-.848h.56zm-2.97-9.698v5.538l5.054 2.77v-5.539L6.506 7.923zm11.032 0-5.04 2.77v5.538l5.04-2.77V7.923zM12 4.231 6.518 6.939 12 9.77 17.518 7 12 4.232z" data-follow-fill="#302647"/></g></svg>