<?xml version="1.0" encoding="UTF-8"?>
<svg width="120px" height="100px" viewBox="0 0 120 100" version="1.1" xmlns="http://www.w3.org/2000/svg" xmlns:xlink="http://www.w3.org/1999/xlink">
    <title>devops备份 5</title>
    <defs>
        <linearGradient x1="6.81623383%" y1="36.7935305%" x2="68.2865966%" y2="57.6461016%" id="linearGradient-1">
            <stop stop-color="#A38DCD" offset="0%"></stop>
            <stop stop-color="#6A549E" offset="100%"></stop>
        </linearGradient>
        <linearGradient x1="-16.21423%" y1="50%" x2="100%" y2="50%" id="linearGradient-2">
            <stop stop-color="#F2F0FF" stop-opacity="0.2" offset="0%"></stop>
            <stop stop-color="#A8A0FB" stop-opacity="0.5" offset="100%"></stop>
        </linearGradient>
        <linearGradient x1="100%" y1="41.7840249%" x2="-90.6469996%" y2="67.9048734%" id="linearGradient-3">
            <stop stop-color="#F9F8FF" offset="0%"></stop>
            <stop stop-color="#DCD8FF" offset="100%"></stop>
        </linearGradient>
        <path d="M4.25554115,0 C4.95579052,0 5.60504738,0.322131488 6.14010973,0.870726644 C6.20474813,0.93649827 6.26866833,1.00675433 6.33043392,1.08 C6.3440798,1.09719031 6.35916209,1.11438062 6.37280798,1.13157093 C7.09819451,2.02322491 7.56,3.36257439 7.56,4.85738408 C7.56,7.54056747 6.07906234,9.72 4.25554115,9.72 L3.24,9.72 C5.0635212,9.72 6.54374065,7.54056747 6.54374065,4.85738408 C6.54374065,3.36257439 6.08265337,2.02322491 5.35726683,1.13157093 C5.34362095,1.11438062 5.32853865,1.09719031 5.31489277,1.08 C5.25312718,1.00675433 5.18920698,0.93649827 5.12385037,0.870726644 C4.58950623,0.322131488 3.93953117,0 3.24,0 L4.25554115,0 Z" id="path-4"></path>
        <filter x="-104.2%" y="-46.3%" width="308.3%" height="192.6%" filterUnits="objectBoundingBox" id="filter-5">
            <feOffset dx="0" dy="0" in="SourceAlpha" result="shadowOffsetOuter1"></feOffset>
            <feGaussianBlur stdDeviation="1.5" in="shadowOffsetOuter1" result="shadowBlurOuter1"></feGaussianBlur>
            <feColorMatrix values="0 0 0 0 0.822129875   0 0 0 0 0.849562517   0 0 0 0 0.959293089  0 0 0 1 0" type="matrix" in="shadowBlurOuter1"></feColorMatrix>
        </filter>
        <linearGradient x1="60.4439504%" y1="18.2469561%" x2="-12.5097776%" y2="74.984324%" id="linearGradient-6">
            <stop stop-color="#F6F5FF" offset="0%"></stop>
            <stop stop-color="#E9E8F6" offset="100%"></stop>
        </linearGradient>
        <linearGradient x1="21.8326006%" y1="0%" x2="91.878338%" y2="119.35354%" id="linearGradient-7">
            <stop stop-color="#66E4D5" offset="0%"></stop>
            <stop stop-color="#36C5AB" offset="100%"></stop>
        </linearGradient>
        <path d="M7.37154,-0.002376 C8.52984,-0.002376 9.603792,0.509652 10.488852,1.381644 C10.595772,1.486188 10.701504,1.59786 10.803672,1.714284 C10.826244,1.741608 10.851192,1.768932 10.873764,1.796256 C12.073644,3.21354 12.837528,5.342436 12.837528,7.718436 C12.837528,11.983356 10.387872,15.447564 7.37154,15.447564 L5.691708,15.447564 C8.70804,15.447564 11.156508,11.983356 11.156508,7.718436 C11.156508,5.342436 10.393812,3.21354 9.193932,1.796256 C9.17136,1.768932 9.146412,1.741608 9.12384,1.714284 C9.021672,1.59786 8.91594,1.486188 8.807832,1.381644 C7.92396,0.509652 6.84882,-0.002376 5.691708,-0.002376 L7.37154,-0.002376 Z" id="path-8"></path>
        <filter x="-63.0%" y="-29.1%" width="225.9%" height="158.3%" filterUnits="objectBoundingBox" id="filter-9">
            <feOffset dx="0" dy="0" in="SourceAlpha" result="shadowOffsetOuter1"></feOffset>
            <feGaussianBlur stdDeviation="1.5" in="shadowOffsetOuter1" result="shadowBlurOuter1"></feGaussianBlur>
            <feColorMatrix values="0 0 0 0 0.822129875   0 0 0 0 0.849562517   0 0 0 0 0.959293089  0 0 0 1 0" type="matrix" in="shadowBlurOuter1"></feColorMatrix>
        </filter>
        <linearGradient x1="61.747084%" y1="18.2469561%" x2="-151.513688%" y2="171.55195%" id="linearGradient-10">
            <stop stop-color="#F6F5FF" offset="0%"></stop>
            <stop stop-color="#F5F4FF" offset="100%"></stop>
        </linearGradient>
        <linearGradient x1="21.8326006%" y1="0%" x2="91.878338%" y2="119.35354%" id="linearGradient-11">
            <stop stop-color="#66E4D5" offset="0%"></stop>
            <stop stop-color="#36C5AB" offset="100%"></stop>
        </linearGradient>
    </defs>
    <g id="devops备份-5" stroke="none" stroke-width="1" fill="none" fill-rule="evenodd">
        <g id="编组-2" transform="translate(4.000000, 9.000000)">
            <path d="M110.793322,23.989605 C110.802604,24.0206942 110.810029,24.0517834 110.818692,24.0834484 C110.826737,24.1145377 110.834162,24.1462026 110.842207,24.1778676 C110.850251,24.2095326 110.857677,24.2417733 110.864483,24.274014 C110.87129,24.3062547 110.878716,24.3384954 110.884285,24.3707361 C110.903468,24.4634281 110.920175,24.5572715 110.934408,24.6522664 C110.94864,24.7478371 110.961016,24.8439834 110.970298,24.941857 C110.980198,25.0397305 110.987005,25.1387555 110.991956,25.238932 C110.996906,25.3391084 111,25.441012 111,25.5434914 L111,56.4559865 C111,56.5043476 110.999381,56.5527086 110.998144,56.6010696 C110.996906,56.648855 110.99505,56.6966403 110.993193,56.7438499 C110.990718,56.7916352 110.988243,56.8388448 110.985149,56.8854786 C110.982055,56.9326882 110.978342,56.9793221 110.974011,57.025956 L110.966585,57.0950432 L110.959778,57.1647061 C110.956684,57.1871594 110.954209,57.2101885 110.951115,57.2326419 C110.948021,57.2556709 110.944927,57.2781243 110.941833,57.3011533 C110.894186,57.6402564 110.818074,57.9620876 110.716591,58.2654956 C110.615108,58.5671764 110.488255,58.8492825 110.339125,59.1089353 C110.189995,59.368588 110.019207,59.604636 109.829236,59.8159277 C109.640503,60.0254922 109.432587,60.2114519 109.208582,60.3686253 C109.164029,60.4002903 109.119475,60.4302281 109.073684,60.4595902 C109.027275,60.4889522 108.980865,60.5171628 108.934455,60.544222 C108.887427,60.5707054 108.840398,60.5960374 108.792132,60.6207936 C108.743866,60.6455499 108.695599,60.6691547 108.646096,60.691608 C108.581122,60.7209701 108.514911,60.748605 108.448081,60.7745127 C108.38125,60.7998447 108.313183,60.8234495 108.244496,60.8447513 C108.176429,60.8660532 108.106505,60.8850522 108.03658,60.902324 C107.966656,60.9190201 107.895495,60.9334133 107.824333,60.946655 C107.789062,60.952988 107.753171,60.9581695 107.716662,60.963351 C107.681391,60.9691083 107.644882,60.9737141 107.608992,60.9777442 C107.572483,60.9811986 107.535974,60.9852287 107.499465,60.9881073 C107.462955,60.9909859 107.426446,60.9932888 107.389319,60.9955917 C107.352191,60.9973189 107.315682,60.9984704 107.278554,60.9990461 C107.241426,61 107.204298,61 107.16717,61 C107.129424,60.9990461 107.092296,60.9978947 107.054549,60.9967432 C107.016803,60.995016 106.979675,60.9927131 106.941309,60.9898345 C106.885618,60.9858044 106.828688,60.9800471 106.771759,60.9737141 C106.714211,60.9668054 106.657282,60.9587452 106.600352,60.9495336 C106.542804,60.940322 106.484637,60.9299589 106.427089,60.9172929 C106.369541,60.9057784 106.311993,60.8919609 106.253826,60.8775678 L87.4900397,56.1341553 C87.3112074,56.0892486 87.1373254,56.0172827 86.9708689,55.9217121 C86.8050313,55.8272929 86.6466192,55.7092689 86.4956327,55.5716703 C86.3458838,55.4340716 86.2041793,55.2768982 86.0717567,55.1030287 C85.9405717,54.9303107 85.8186686,54.7408966 85.7079039,54.5370893 C85.6800581,54.4864254 85.6534498,54.43461 85.6268415,54.3827946 C85.600852,54.3304034 85.5754814,54.2768608 85.5507295,54.2233183 C85.5259776,54.1692 85.5012257,54.1150816 85.4783302,54.0592361 C85.4548159,54.0039664 85.4325392,53.9481209 85.4102625,53.8911239 C85.399743,53.8629133 85.3892234,53.834127 85.3787039,53.8059164 L85.347764,53.7195574 C85.3378632,53.6901953 85.3279625,53.661409 85.3180617,53.6320469 C85.308161,53.6026849 85.298879,53.5733228 85.2895971,53.543385 C85.2574196,53.4403299 85.2270986,53.3349719 85.1998715,53.2284625 C85.1726444,53.1213773 85.1478925,53.0137164 85.1262346,52.9037526 C85.1039579,52.7943645 85.0847752,52.6826735 85.0680677,52.5709826 C85.051979,52.4592916 85.0383654,52.3452977 85.0278459,52.2313038 C85.0259895,52.2151834 85.0247519,52.1990631 85.0235143,52.182367 C85.0222767,52.1662467 85.0210391,52.1501263 85.0191827,52.1334302 C85.0179451,52.1167342 85.0167075,52.1006138 85.0160887,52.0839177 C85.0148511,52.0677974 85.0136135,52.0516771 85.0123759,52.0344052 C85.0105196,52.0021646 85.0086632,51.9687724 85.0074256,51.935956 C85.0055692,51.9031396 85.0043316,51.8697474 85.003094,51.836931 C85.0024752,51.8035388 85.0012376,51.7701467 85.0012376,51.7367545 C85.0006188,51.7033624 85,51.670546 85,51.6371538 L85,30.3628998 C85,29.8286254 85.0668301,29.3058655 85.1887331,28.8170736 C85.3100174,28.3259787 85.4869934,27.8665487 85.7079039,27.4623886 C85.9300521,27.054774 86.1961349,26.7018536 86.4956327,26.4283834 C86.7976057,26.1514588 87.1336126,25.955136 87.4900397,25.8647469 L106.253826,21.1224859 C106.311993,21.107517 106.369541,21.0942753 106.427089,21.082185 C106.484637,21.0700947 106.542804,21.0597316 106.600352,21.0499443 C106.657282,21.0407327 106.714211,21.0326725 106.771759,21.0263395 C106.828688,21.0194308 106.885618,21.0136735 106.941309,21.0096434 C106.979675,21.0067648 107.016803,21.0044619 107.054549,21.0033104 C107.092296,21.0015832 107.129424,21.0004318 107.16717,21.0004318 C107.204298,21 107.241426,21 107.278554,21.0004318 C107.315682,21.0015832 107.352191,21.0027347 107.389319,21.0038862 C107.426446,21.0061891 107.462955,21.008492 107.499465,21.0113706 C107.535974,21.0142492 107.572483,21.0177036 107.608992,21.0217337 C107.644882,21.0263395 107.681391,21.0303696 107.716662,21.0361269 C107.753171,21.0407327 107.789062,21.0470657 107.824333,21.0528229 C107.884975,21.0637617 107.94438,21.075852 108.003165,21.0896694 C108.061951,21.1034869 108.120737,21.1190315 108.178285,21.1357276 C108.236452,21.1529994 108.294,21.1714226 108.351548,21.1909973 C108.408478,21.2111478 108.464169,21.2324497 108.52048,21.254903 C108.547707,21.2664175 108.574315,21.2779321 108.601542,21.2894466 C108.628151,21.3009611 108.655378,21.3130514 108.681986,21.3251417 C108.708594,21.3378077 108.735202,21.3504736 108.761192,21.3631396 C108.7878,21.3758056 108.81379,21.3896231 108.839779,21.4034405 C108.871957,21.4207123 108.902896,21.4379841 108.934455,21.4558316 C108.965395,21.4736792 108.996954,21.4921024 109.027275,21.5111014 C109.058215,21.5301004 109.088536,21.5496751 109.118857,21.5698255 C109.149178,21.589976 109.179499,21.6101264 109.208582,21.6308526 C109.246329,21.657336 109.283457,21.6843951 109.319347,21.7126058 C109.356475,21.7408164 109.391746,21.7696027 109.427636,21.7989648 C109.462908,21.8289026 109.497561,21.8588403 109.532832,21.8899296 C109.567485,21.9210188 109.6009,21.9526838 109.634933,21.9855002 C109.652879,22.002772 109.671443,22.0200438 109.689388,22.0378914 C109.706714,22.0557389 109.724659,22.0735864 109.742604,22.0920097 C109.759931,22.1104329 109.777257,22.1288562 109.795202,22.1472794 C109.811909,22.1662784 109.829236,22.1847017 109.846562,22.2037007 C109.878121,22.2405472 109.905348,22.2739393 109.930719,22.3044528 C109.956089,22.3349663 109.979603,22.363177 110.000024,22.3896604 C110.021063,22.4161438 110.039627,22.4409001 110.058191,22.4650806 C110.076136,22.4886854 110.092843,22.5122902 110.11017,22.535895 L110.153485,22.5974977 C110.167718,22.6176482 110.18195,22.6383743 110.195564,22.6596762 C110.210415,22.6804024 110.224028,22.7017043 110.237642,22.7230062 C110.251255,22.744308 110.264869,22.7661857 110.278483,22.7874876 C110.332937,22.8767252 110.384297,22.9688415 110.433182,23.0638364 C110.482067,23.1588313 110.528477,23.2567048 110.571792,23.3568813 C110.614489,23.4570577 110.654711,23.5601128 110.691839,23.6660465 C110.728967,23.7714045 110.762382,23.8796412 110.793322,23.989605" id="Fill-67备份" stroke-opacity="0.2" stroke="#A8A0FB" stroke-width="0.2" fill-opacity="0.1" fill="#CACAF1" stroke-linecap="square"></path>
            <path d="M99.7456268,18.0359667 C99.7570507,18.0779372 99.7661899,18.1199076 99.7768522,18.1626554 C99.786753,18.2046258 99.7958921,18.2473735 99.8057929,18.2901213 C99.8156936,18.332869 99.8248328,18.3763939 99.8332104,18.4199188 C99.8415879,18.4634438 99.8507271,18.5069687 99.8575815,18.5504937 C99.8811909,18.6756279 99.9017541,18.8023165 99.9192708,18.9305597 C99.9367875,19.05958 99.9520194,19.1893776 99.9634434,19.3215069 C99.9756289,19.4536362 99.9840065,19.5873199 99.9900992,19.7225581 C99.996192,19.8577963 100,19.9953662 100,20.1337134 L100,61.8655818 C100,61.9308692 99.9992384,61.9961566 99.9977152,62.061444 C99.996192,62.1259542 99.9939072,62.1904644 99.9916224,62.2541973 C99.9885761,62.3187075 99.9855297,62.3824405 99.9817217,62.4453962 C99.9779137,62.5091291 99.9733441,62.5720848 99.9680129,62.6350406 L99.9588738,62.7283083 L99.9504962,62.8223532 C99.9466882,62.8526653 99.9436419,62.8837545 99.9398339,62.9140665 C99.9360259,62.9451558 99.9322179,62.9754678 99.9284099,63.006557 C99.869767,63.4643461 99.7760906,63.8988183 99.6511888,64.3084191 C99.526287,64.7156882 99.3701597,65.0965314 99.1866149,65.4470626 C99.0030702,65.7975938 98.7928696,66.1162586 98.5590594,66.4015024 C98.3267725,66.6844145 98.0708761,66.9354601 97.7951781,67.1476442 C97.7403432,67.1903919 97.6855082,67.2308079 97.6291501,67.2704467 C97.5720304,67.3100855 97.5149106,67.3481698 97.4577909,67.3846997 C97.3999096,67.4204523 97.3420282,67.4546505 97.2826237,67.4880714 C97.2232192,67.5214924 97.1638146,67.5533588 97.1028869,67.5836708 C97.0229193,67.6233096 96.9414285,67.6606167 96.859176,67.6955921 C96.7769236,67.7297903 96.693148,67.7616568 96.6086108,67.7904143 C96.5248352,67.8191719 96.4387748,67.8448205 96.3527144,67.8681374 C96.266654,67.8906771 96.1790704,67.9101079 96.0914868,67.9279842 C96.0480758,67.9365338 96.0039032,67.9435288 95.958969,67.9505239 C95.915558,67.9582962 95.8706238,67.9645141 95.8264512,67.9699547 C95.781517,67.9746181 95.7365828,67.9800587 95.6916486,67.9839449 C95.6467144,67.987831 95.6017802,67.9909399 95.5560844,67.9940489 C95.5103887,67.9963805 95.4654545,67.997935 95.4197587,67.9987122 C95.3740629,68 95.3283671,68 95.2826713,68 C95.2362139,67.9987122 95.1905181,67.9971578 95.1440607,67.9956033 C95.0976034,67.9932716 95.0519076,67.9901627 95.0046886,67.9862765 C94.9361449,67.9808359 94.866078,67.9730636 94.7960111,67.9645141 C94.7251827,67.9551873 94.6551158,67.9443061 94.5850489,67.9318704 C94.5142204,67.9194347 94.4426304,67.9054445 94.3718019,67.8883454 C94.3009734,67.8728008 94.2301449,67.8541473 94.1585549,67.8347165 L71.0646643,61.4311096 C70.8445629,61.3704856 70.6305543,61.2733317 70.4256848,61.1443113 C70.221577,61.0168454 70.0266083,60.8575131 69.8407787,60.6717548 C69.6564724,60.4859966 69.4820668,60.2738125 69.3190851,60.0390887 C69.1576267,59.8059194 69.0075922,59.5502104 68.8712664,59.2750706 C68.8369945,59.2066743 68.8042459,59.1367235 68.7714973,59.0667727 C68.7395102,58.9960446 68.7082847,58.9237621 68.6778209,58.8514797 C68.647357,58.7784199 68.6168932,58.7053602 68.5887141,58.6299688 C68.5597734,58.5553546 68.532356,58.4799632 68.5049385,58.4030173 C68.4919913,58.364933 68.4790442,58.3260714 68.4660971,58.2879871 L68.4280172,58.1714025 C68.4158317,58.1317637 68.4036461,58.0929021 68.3914606,58.0532633 C68.3792751,58.0136246 68.3678511,57.9739858 68.3564272,57.9335697 C68.3168241,57.7944454 68.2795059,57.6522121 68.2459957,57.5084243 C68.2124854,57.3638594 68.1820216,57.2185172 68.1553657,57.070066 C68.1279482,56.9223921 68.1043387,56.7716093 68.0837756,56.6208265 C68.0639741,56.4700436 68.047219,56.3161519 68.0342718,56.1622601 C68.0319871,56.1404976 68.0304639,56.1187352 68.0289407,56.0961955 C68.0274175,56.074433 68.0258943,56.0526705 68.0236095,56.0301308 C68.0220863,56.0075911 68.0205631,55.9858287 68.0198015,55.963289 C68.0182783,55.9415265 68.0167551,55.919764 68.0152319,55.8964471 C68.0129471,55.8529221 68.0106624,55.8078427 68.0091392,55.7635406 C68.0068544,55.7192384 68.0053312,55.674159 68.003808,55.6298568 C68.0030464,55.5847774 68.0015232,55.539698 68.0015232,55.4946186 C68.0007616,55.4495392 68,55.405237 68,55.3601576 L68,26.6399148 C68,25.9186443 68.0822524,25.2129185 68.2322869,24.5530493 C68.3815598,23.8900712 68.5993764,23.2698408 68.8712664,22.7242246 C69.1446795,22.173945 69.472166,21.6975023 69.8407787,21.3283176 C70.2124378,20.9544694 70.6259847,20.6894336 71.0646643,20.5674083 L94.1585549,14.1653559 C94.2301449,14.1451479 94.3009734,14.1272716 94.3718019,14.1109497 C94.4426304,14.0946279 94.5142204,14.0806377 94.5850489,14.0674248 C94.6551158,14.0549891 94.7251827,14.0441079 94.7960111,14.0355583 C94.866078,14.0262315 94.9361449,14.0184592 95.0046886,14.0130186 C95.0519076,14.0091325 95.0976034,14.0060235 95.1440607,14.0044691 C95.1905181,14.0021374 95.2362139,14.0005829 95.2826713,14.0005829 C95.3283671,14 95.3740629,14 95.4197587,14.0005829 C95.4654545,14.0021374 95.5103887,14.0036918 95.5560844,14.0052463 C95.6017802,14.0083552 95.6467144,14.0114642 95.6916486,14.0153503 C95.7365828,14.0192365 95.781517,14.0238999 95.8264512,14.0293405 C95.8706238,14.0355583 95.915558,14.0409989 95.958969,14.0487713 C96.0039032,14.0549891 96.0480758,14.0635386 96.0914868,14.071311 C96.1661232,14.0860783 96.2392365,14.1024002 96.3115882,14.1210537 C96.3839398,14.1397073 96.4562915,14.1606925 96.52712,14.1832322 C96.59871,14.2065492 96.6695385,14.2314206 96.740367,14.2578464 C96.8104339,14.2850495 96.8789776,14.313807 96.9482828,14.3441191 C96.9817931,14.3596637 97.0145417,14.3752083 97.048052,14.3907529 C97.0808006,14.4062975 97.1143109,14.4226194 97.1470595,14.4389413 C97.1798082,14.4560403 97.2125568,14.4731394 97.2445439,14.4902385 C97.2772925,14.5073376 97.3092796,14.5259911 97.3412666,14.5446447 C97.3808696,14.5679616 97.4189495,14.5912785 97.4577909,14.6153727 C97.4958707,14.6394669 97.5347121,14.6643383 97.5720304,14.6899869 C97.6101102,14.7156355 97.6474284,14.7420614 97.6847467,14.7692645 C97.7220649,14.7964675 97.7593831,14.8236706 97.7951781,14.851651 C97.8416355,14.8874036 97.8873313,14.9239334 97.9315039,14.9620178 C97.9771997,15.0001021 98.0206107,15.0389636 98.0647833,15.0786024 C98.1081943,15.1190184 98.1508437,15.1594345 98.1942547,15.2014049 C98.2369041,15.2433754 98.2780303,15.2861231 98.3199181,15.3304253 C98.3420044,15.3537422 98.3648523,15.3770592 98.3869386,15.4011533 C98.4082633,15.4252475 98.4303496,15.4493417 98.4524359,15.4742131 C98.4737606,15.4990844 98.4950853,15.5239558 98.5171716,15.5488272 C98.5377347,15.5744759 98.5590594,15.5993473 98.5803841,15.6249959 C98.6192256,15.6747387 98.6527358,15.7198181 98.6839613,15.7610113 C98.7151867,15.8022046 98.7441274,15.8402889 98.7692601,15.8760415 C98.7951543,15.9117942 98.8180022,15.9452151 98.8408501,15.9778588 C98.8629364,16.0097253 98.8834995,16.0415917 98.9048242,16.0734582 L98.958136,16.1566219 C98.9756527,16.183825 98.9931694,16.2118053 99.0099246,16.2405629 C99.0282029,16.2685432 99.044958,16.2973008 99.0617131,16.3260583 C99.0784682,16.3548159 99.0952234,16.3843506 99.1119785,16.4131082 C99.178999,16.533579 99.2422115,16.657936 99.3023776,16.7861791 C99.3625437,16.9144222 99.4196635,17.0465515 99.4729752,17.1817897 C99.5255254,17.3170279 99.5750292,17.4561523 99.6207249,17.5991628 C99.6664207,17.7413961 99.7075469,17.8875156 99.7456268,18.0359667" id="Fill-67备份-2" stroke-opacity="0.2" stroke="#A8A0FB" stroke-width="0.2" fill-opacity="0.15" fill="#CACAF1" stroke-linecap="square"></path>
            <path d="M85.7280387,13.9333581 C85.7401052,13.983101 85.7512435,14.0337651 85.7633101,14.0844292 C85.7753766,14.1350932 85.786515,14.1866785 85.7967251,14.2382638 C85.8069353,14.289849 85.8180736,14.3414343 85.8264274,14.3930195 C85.8552015,14.5413271 85.8802628,14.6914771 85.9016113,14.8434693 C85.9229598,14.9963828 85.9415237,15.1502174 85.9554466,15.3068154 C85.9702977,15.4634135 85.9805079,15.621854 85.9879335,15.7821367 C85.995359,15.9424195 86,16.1054657 86,16.2694331 L86,65.7295588 C86,65.8069367 85.9990718,65.8843146 85.9972154,65.9616924 C85.995359,66.0381491 85.9925744,66.1146059 85.9897898,66.1901414 C85.9860771,66.2665981 85.9823643,66.3421337 85.9777233,66.4167481 C85.9730823,66.4922836 85.9675131,66.566898 85.9610158,66.6415124 L85.9498774,66.7520522 L85.9396673,66.8635132 C85.9350263,66.8994387 85.9313135,66.9362853 85.9266725,66.9722107 C85.9220316,67.0090573 85.9173906,67.0449828 85.9127496,67.0818294 C85.8412785,67.6243957 85.7271105,68.1393271 85.5748864,68.6247812 C85.4226623,69.1074718 85.2323821,69.5588427 85.008687,69.9742883 C84.7849918,70.3897338 84.5288098,70.7674115 84.2438537,71.1054792 C83.960754,71.4407833 83.6488802,71.7383197 83.3128734,71.9897978 C83.2460433,72.0404619 83.1792132,72.0883625 83.1105267,72.1353419 C83.040912,72.1823214 82.9712973,72.2274585 82.9016827,72.2707532 C82.8311398,72.3131268 82.7605969,72.3536581 82.6881976,72.3932682 C82.6157984,72.4328783 82.5433991,72.4706461 82.4691434,72.5065715 C82.3716829,72.5535509 82.2723659,72.5977669 82.1721208,72.6392193 C82.0718757,72.6797506 81.9697741,72.7175184 81.8667444,72.7516015 C81.7646429,72.7856846 81.6597568,72.816083 81.5548706,72.843718 C81.4499845,72.8704318 81.343242,72.8934609 81.2364995,72.9146477 C81.1835924,72.9247805 81.129757,72.933071 81.0749935,72.9413615 C81.0220863,72.9505732 80.9673228,72.9579425 80.9134874,72.9643906 C80.8587238,72.9699176 80.8039603,72.9763658 80.7491968,72.9809716 C80.6944332,72.9855774 80.6396697,72.9892621 80.5839779,72.9929468 C80.5282862,72.9957103 80.4735226,72.9975526 80.4178309,72.9984738 C80.3621391,73 80.3064474,73 80.2507556,73 C80.1941357,72.9984738 80.138444,72.9966314 80.081824,72.9947891 C80.0252041,72.9920256 79.9695123,72.9883409 79.9119642,72.9837351 C79.8284266,72.977287 79.7430326,72.9680753 79.6576386,72.9579425 C79.5713164,72.9468885 79.4859224,72.9339922 79.4005284,72.9192536 C79.3142062,72.9045149 79.2269558,72.8879339 79.1406336,72.8676683 C79.0543114,72.849245 78.9679891,72.827137 78.8807387,72.8041079 L50.7350596,65.2146274 C50.4668111,65.1427765 50.2059881,65.0276309 49.9563034,64.8747174 C49.7075469,64.7236463 49.4699288,64.5348075 49.2434491,64.314649 C49.0188257,64.0944905 48.8062689,63.8430124 48.607635,63.5648205 C48.4108575,63.2884709 48.228003,62.9854075 48.0618559,62.659315 C48.0200871,62.5782525 47.9801747,62.4953476 47.9402623,62.4124427 C47.9012781,62.3286167 47.863222,62.2429483 47.8260942,62.15728 C47.7889664,62.0706904 47.7518385,61.9841009 47.7174953,61.8947479 C47.6822239,61.806316 47.6488088,61.716963 47.6153938,61.6257676 C47.5996144,61.5806305 47.5838351,61.5345723 47.5680558,61.4894352 L47.521646,61.3512604 C47.5067949,61.3042809 47.4919437,61.2582227 47.4770926,61.2112432 C47.4622415,61.1642638 47.4483185,61.1172844 47.4343956,61.0693838 C47.3861294,60.9044952 47.3406478,60.735922 47.2998072,60.5655064 C47.2589666,60.3941697 47.2218388,60.2219118 47.1893519,60.0459692 C47.1559369,59.8709478 47.1271628,59.6922418 47.1021015,59.5135357 C47.0779684,59.3348296 47.0575481,59.1524389 47.0417688,58.9700482 C47.0389842,58.9442556 47.0371278,58.9184629 47.0352714,58.8917492 C47.033415,58.8659565 47.0315587,58.8401639 47.0287741,58.8134501 C47.0269177,58.7867363 47.0250613,58.7609437 47.0241331,58.7342299 C47.0222767,58.7084373 47.0204203,58.6826446 47.0185639,58.6550097 C47.0157793,58.6034244 47.0129947,58.5499968 47.0111383,58.4974904 C47.0083538,58.444984 47.0064974,58.3915564 47.004641,58.33905 C47.0037128,58.2856224 47.0018564,58.2321948 47.0018564,58.1787673 C47.0009282,58.1253397 47,58.0728332 47,58.0194057 L47,23.9805074 C47,23.1256661 47.1002451,22.289248 47.2830997,21.5071787 C47.4650261,20.7214248 47.73049,19.9863349 48.0618559,19.3396769 C48.3950782,18.6874919 48.7942023,18.1228176 49.2434491,17.6852641 C49.6964086,17.2421836 50.2004189,16.9280663 50.7350596,16.7834433 L78.8807387,9.19580519 C78.9679891,9.17185489 79.0543114,9.15066809 79.1406336,9.13132362 C79.2269558,9.11197915 79.3142062,9.09539818 79.4005284,9.07973837 C79.4859224,9.06499972 79.5713164,9.05210341 79.6576386,9.04197059 C79.7430326,9.03091661 79.8284266,9.02170496 79.9119642,9.0152568 C79.9695123,9.01065097 80.0252041,9.00696631 80.081824,9.00512398 C80.138444,9.00236049 80.1941357,9 80.2507556,9 C80.3064474,9 80.3621391,9 80.4178309,9 C80.4735226,9.00236049 80.5282862,9.00420282 80.5839779,9.00604515 C80.6396697,9.00972981 80.6944332,9.01341447 80.7491968,9.0180203 C80.8039603,9.02262612 80.8587238,9.02815311 80.9134874,9.03460127 C80.9673228,9.04197059 81.0220863,9.04841875 81.0749935,9.0576304 C81.129757,9.06499972 81.1835924,9.07513254 81.2364995,9.08434419 C81.3274627,9.10184633 81.4165695,9.1211908 81.5047481,9.14329877 C81.5929267,9.16540673 81.6811053,9.1902782 81.7674275,9.21699199 C81.8546779,9.24462695 81.9410001,9.27410423 82.0273223,9.30542385 C82.1127163,9.33766464 82.1962539,9.37174775 82.2807197,9.4076732 C82.3215603,9.4260965 82.3614727,9.44451981 82.4023133,9.46294311 C82.4422258,9.48136641 82.4830664,9.50071089 82.5229788,9.52005536 C82.5628912,9.54032099 82.6028036,9.56058663 82.6417878,9.58085226 C82.6817003,9.6011179 82.7206845,9.62322586 82.7596687,9.64533383 C82.8079349,9.67296879 82.8543447,9.70060374 82.9016827,9.72915987 C82.9480924,9.75771599 82.9954304,9.78719328 83.040912,9.81759173 C83.0873218,9.84799018 83.1328034,9.8793098 83.178285,9.91155059 C83.2237666,9.94379137 83.2692482,9.97603215 83.3128734,10.0091941 C83.3694933,10.0515677 83.425185,10.0948625 83.4790204,10.1399996 C83.5347121,10.1851367 83.5876193,10.2311949 83.6414546,10.2781744 C83.6943618,10.3260749 83.7463408,10.3739755 83.7992479,10.4237185 C83.8512269,10.4734614 83.9013495,10.5241255 83.9524002,10.5766319 C83.9793179,10.6042669 84.0071638,10.6319018 84.0340814,10.6604579 C84.0600709,10.6890141 84.0869886,10.7175702 84.1139063,10.7470475 C84.1398958,10.7765248 84.1658852,10.806002 84.1928029,10.8354793 C84.2178642,10.8658778 84.2438537,10.8953551 84.2698432,10.9257535 C84.3171811,10.9847081 84.3580218,11.0381357 84.3960778,11.0869574 C84.4341338,11.1357792 84.4694052,11.1809163 84.5000357,11.2232899 C84.5315944,11.2656635 84.5594402,11.3052736 84.5872861,11.3439625 C84.6142038,11.3817303 84.6392651,11.4194981 84.6652545,11.4572659 L84.7302282,11.5558306 C84.7515767,11.5880713 84.7729252,11.6212333 84.7933456,11.6553164 C84.8156222,11.6884783 84.8360426,11.7225615 84.8564629,11.7566446 C84.8768832,11.7907277 84.8973035,11.825732 84.9177238,11.8598151 C84.999405,12.0025957 85.0764452,12.1499821 85.1497727,12.3019744 C85.2231002,12.4539667 85.2927149,12.6105648 85.3576886,12.7708475 C85.4217341,12.9311303 85.4820668,13.0960188 85.5377585,13.2655133 C85.5934503,13.4340865 85.6435728,13.6072656 85.6899826,13.7832081 C85.7039056,13.832951 85.7150439,13.882694 85.7280387,13.9333581 Z" id="Fill-67备份-3" stroke-opacity="0.2" stroke="#A8A0FB" stroke-width="0.2" fill-opacity="0.2" fill="#CACAF1" stroke-linecap="square"></path>
            <g id="编组" transform="translate(18.000000, 0.000000)">
                <path d="M52.215179,70.914029 C52.215179,71.0096738 52.2140126,71.1041522 52.2116798,71.1986306 C52.209347,71.2942754 52.2070142,71.3875874 52.2023486,71.4808994 C52.1988494,71.5742114 52.1930174,71.6675234 52.1871854,71.759669 C52.1825198,71.8518146 52.174355,71.9439602 52.1661902,72.0349394 C52.162691,72.080429 52.1580254,72.1259186 52.1533598,72.1714082 C52.1486942,72.2180642 52.1440286,72.2623874 52.139363,72.307877 L52.1322188,72.3753824 L52.1322188,72.3753824 L52.1241998,72.442013 C52.1183678,72.4875026 52.1125358,72.5318258 52.1067038,72.576149 C52.0180574,73.2433298 51.8757566,73.8790178 51.6867998,74.4762146 C51.4966766,75.0710786 51.2598974,75.6274514 50.9811278,76.1406674 C50.7035246,76.6515506 50.3850974,77.119277 50.0293454,77.5368482 C49.6759262,77.953253 49.287515,78.3195026 48.8699438,78.6332642 C48.785963,78.6950834 48.7008158,78.7557362 48.6156686,78.8140562 C48.5305214,78.8723762 48.4442078,78.927197 48.3555614,78.9808514 C48.2680814,79.0345058 48.179435,79.0858274 48.0896222,79.1348162 C48.0009758,79.183805 47.9099966,79.230461 47.817851,79.2759506 C47.7641966,79.3027778 47.7093758,79.3272722 47.654555,79.352933 C47.5997342,79.376261 47.5449134,79.4007554 47.4889262,79.4240834 L47.3232974,79.4905682 L47.3232974,79.4905682 C47.2673102,79.5115634 47.211323,79.5325586 47.1541694,79.5535538 L44.0013902,80.6581346 L44.0725406,80.630141 C44.1296942,80.6091458 44.1856814,80.5869842 44.2416686,80.5636562 C44.2976558,80.5403282 44.353643,80.5158338 44.4084638,80.490173 C44.4621182,80.4656786 44.5181054,80.4400178 44.5717598,80.4131906 C44.6650718,80.3688674 44.756051,80.321045 44.8470302,80.2708898 C44.9380094,80.2207346 45.0266558,80.1682466 45.1153022,80.1145922 C45.2027822,80.0597714 45.2902622,80.0026178 45.3777422,79.9442978 C45.4640558,79.8848114 45.5480366,79.8229922 45.6320174,79.7588402 C46.0542542,79.440413 46.4461646,79.0648322 46.8019166,78.6390962 C47.1600014,78.2110274 47.4819278,77.7328034 47.7630302,77.2079234 C48.0441326,76.681877 48.2832446,76.1091746 48.4745342,75.497981 C48.6658238,74.8844546 48.809291,74.2312706 48.8991038,73.544261 C48.9049358,73.497605 48.9107678,73.4521154 48.9165998,73.4054594 C48.9224318,73.3599698 48.9270974,73.3133138 48.931763,73.2678242 L48.9597566,72.9878882 C48.9679214,72.8934098 48.9749198,72.7989314 48.9795854,72.7032866 C48.9865838,72.6076418 48.9912494,72.511997 48.995915,72.4151858 C48.9994142,72.319541 49.0029134,72.2227298 49.0052462,72.1259186 C49.007579,72.027941 49.0087454,71.9299634 49.0087454,71.8319858 L49.0086288,9.20458728 C49.0087454,8.99685144 49.0029134,8.79156504 48.9935822,8.58861144 C48.984251,8.38449144 48.9714206,8.18503704 48.9527582,7.98674904 C48.9340958,7.78846104 48.9119342,7.59250584 48.8839406,7.40004984 C48.8582798,7.20642744 48.826787,7.01630424 48.7906286,6.82851384 L48.7533038,6.63255864 L48.7113134,6.43893624 C48.6961502,6.37361784 48.6821534,6.31063224 48.6669902,6.24648024 L48.6191678,6.05635704 C48.5608478,5.83357464 48.4966958,5.61429144 48.4278782,5.40084024 C48.3578942,5.18738904 48.2820782,4.97860344 48.2015966,4.77448344 C48.1199486,4.57152984 48.0324686,4.37324184 47.940323,4.18078584 C47.8481774,3.98832984 47.7513662,3.80287224 47.648723,3.62091384 C47.6230622,3.57775704 47.5974014,3.53343384 47.5705742,3.49027704 L47.532812,3.42568764 L47.532812,3.42568764 L47.4131102,3.23600184 L47.3302958,3.11119704 C47.298803,3.06337464 47.2673102,3.01555224 47.2323182,2.96772984 C47.1984926,2.91874104 47.1635006,2.86858584 47.123843,2.81493144 C47.0841854,2.76127704 47.0410286,2.70412344 46.9932062,2.64230424 C46.9453838,2.58048504 46.8928958,2.51283384 46.8345758,2.43935064 C46.8019166,2.40085944 46.7692574,2.36236824 46.7377646,2.32387704 L46.6386206,2.21190264 C46.604795,2.17574424 46.5709694,2.13841944 46.5383102,2.10342744 C46.5033182,2.06610264 46.4694926,2.03111064 46.435667,1.99611864 C46.371515,1.92963384 46.307363,1.86548184 46.243211,1.80249624 C46.1767262,1.73951064 46.1114078,1.67885784 46.044923,1.61820504 C45.9772718,1.55871864 45.910787,1.50039864 45.840803,1.44324504 C45.7719854,1.38609144 45.7031678,1.33243704 45.6320174,1.27878264 C45.5771966,1.23562584 45.520043,1.19480184 45.4628894,1.15397784 L45.3770132,1.09419984 L45.2902622,1.03617144 C45.2331086,0.99651384 45.1736222,0.96035544 45.1153022,0.92303064 C45.0558158,0.88687224 44.9963294,0.85188024 44.936843,0.81688824 C44.8878542,0.78889464 44.8388654,0.76206744 44.7887102,0.73524024 L44.639411,0.65825784 L44.487779,0.58594104 C44.4364574,0.56261304 44.3863022,0.53928504 44.3349806,0.51712344 L44.2794308,0.49277484 L44.2230062,0.46930104 C44.1856814,0.45413784 44.149523,0.43897464 44.1121982,0.42381144 L44.0551904,0.40223304 L44.0197502,0.38783064 L45.5110034,0.91020024 C46.0527962,1.10032344 46.5942974,1.29044664 47.135507,1.48056984 C47.1739982,1.49456664 47.211323,1.50739704 47.2486478,1.52139384 C47.2859726,1.53539064 47.3244638,1.54938744 47.3606222,1.56455064 C47.397947,1.57854744 47.4341054,1.59371064 47.4725966,1.60887384 L47.5810718,1.65552984 L47.5810718,1.65552984 C47.6323934,1.67769144 47.6825486,1.70101944 47.7338702,1.72434744 L47.8843358,1.79666424 C47.9333246,1.82115864 47.9834798,1.84565304 48.0324686,1.87131384 C48.0814574,1.89814104 48.1304462,1.92496824 48.179435,1.95179544 C48.2389214,1.98562104 48.2984078,2.02061304 48.3555614,2.05677144 L48.5305214,2.16641304 L48.7008158,2.28305304 C48.7579694,2.32271064 48.8139566,2.36353464 48.8699438,2.40435864 C48.9387614,2.45684664 49.0087454,2.51166744 49.0763966,2.56648824 C49.1440478,2.62247544 49.211699,2.67962904 49.2770174,2.73794904 C49.3446686,2.79626904 49.409987,2.85692184 49.474139,2.91874104 C49.5394574,2.98056024 49.6036094,3.04354584 49.6654286,3.10769784 L49.7669054,3.21150744 C49.800731,3.24766584 49.8333902,3.28265784 49.8660494,3.31881624 L49.964027,3.42845784 C49.9978526,3.46578264 50.0293454,3.50310744 50.0608382,3.54043224 C50.1191582,3.61391544 50.1716462,3.67923384 50.2194686,3.73988664 C50.2661246,3.80053944 50.3092814,3.85536024 50.3477726,3.90784824 C50.3874302,3.96033624 50.4224222,4.00815864 50.4562478,4.05714744 C50.4900734,4.10380344 50.5215662,4.15045944 50.553059,4.19711544 L50.5941746,4.25733084 L50.5941746,4.25733084 L50.6335406,4.31842104 C50.6615342,4.35924504 50.687195,4.40006904 50.7140222,4.44205944 C50.739683,4.48288344 50.7665102,4.52487384 50.7910046,4.56686424 C50.8178318,4.60885464 50.8423262,4.65084504 50.867987,4.69400184 C50.9694638,4.87012824 51.066275,5.05325304 51.1572542,5.23987704 C51.2493998,5.42650104 51.334547,5.62012344 51.4150286,5.81724504 C51.4966766,6.01553304 51.5701598,6.21848664 51.6401438,6.42727224 C51.7089614,6.63489144 51.771947,6.84834264 51.830267,7.06529304 L51.876923,7.24958424 L51.9212462,7.43620824 C51.935243,7.49919384 51.9480734,7.56101304 51.9620702,7.62516504 C51.976067,7.68815064 51.9888974,7.75113624 52.0005614,7.81528824 C52.0355534,7.99724664 52.0658798,8.18270424 52.092707,8.37049464 C52.1195342,8.55711864 52.1416958,8.74724184 52.1603582,8.93969784 C52.1778542,9.13215384 52.191851,9.32694264 52.2011822,9.52406424 C52.2105134,9.72118584 52.215179,9.92064024 52.215179,10.1235938 L52.215179,70.914029 Z" id="形状结合" fill="#AC9AD4"></path>
                <path d="M48.6190512,6.0568236 C48.6365472,6.1198092 48.650544,6.1827948 48.6668736,6.2469468 C48.6820368,6.3099324 48.6960336,6.3740844 48.7111968,6.4382364 C48.72636,6.5023884 48.7403568,6.5677068 48.7531872,6.6330252 C48.7660176,6.6983436 48.7800144,6.763662 48.790512,6.8289804 C48.8266704,7.0167708 48.8581632,7.206894 48.8849904,7.39935 C48.9118176,7.5929724 48.9351456,7.7877612 48.9526416,7.9860492 C48.971304,8.1843372 48.9841344,8.384958 48.9934656,8.5879116 C49.0027968,8.7908652 49.0086288,8.997318 49.0086288,9.2049372 L49.0086288,71.8324524 C49.0086288,71.93043 49.0074624,72.0284076 49.0051296,72.1263852 C49.0027968,72.2231964 48.9992976,72.3200076 48.9957984,72.4156524 C48.9911328,72.5124636 48.9864672,72.6081084 48.9806352,72.7025868 C48.9748032,72.7982316 48.9678048,72.89271 48.95964,72.9871884 L48.9456432,73.1271564 L48.9328128,73.2682908 C48.9269808,73.3137804 48.9223152,73.3604364 48.9164832,73.405926 C48.9106512,73.452582 48.9048192,73.4980716 48.8989872,73.5447276 C48.8091744,74.2317372 48.6657072,74.8837548 48.4744176,75.4984476 C48.283128,76.1096412 48.044016,76.6811772 47.7629136,77.2072236 C47.4818112,77.73327 47.1598848,78.211494 46.8018,78.6395628 C46.446048,79.0641324 46.0541376,79.4408796 45.6319008,79.7593068 C45.54792,79.8234588 45.4639392,79.8841116 45.3776256,79.943598 C45.2901456,80.0030844 45.2026656,80.060238 45.1151856,80.1150588 C45.0265392,80.1687132 44.9378928,80.2200348 44.8469136,80.27019 C44.7559344,80.3203452 44.6649552,80.3681676 44.5716432,80.4136572 C44.4491712,80.4731436 44.3243664,80.5291308 44.1983952,80.5816188 C44.072424,80.6329404 43.94412,80.6807628 43.8146496,80.7239196 C43.6863456,80.7670764 43.5545424,80.8055676 43.4227392,80.8405596 C43.290936,80.8743852 43.1568,80.9035452 43.022664,80.9303724 C42.9561792,80.9432028 42.888528,80.9537004 42.8197104,80.964198 C42.7532256,80.975862 42.684408,80.9851932 42.6167568,80.993358 C42.5479392,81.0003564 42.4791216,81.0085212 42.410304,81.0143532 C42.3414864,81.0201852 42.2726688,81.0248508 42.2026848,81.0295164 C42.1327008,81.0330156 42.0638832,81.0353484 41.9938992,81.0365148 C41.9239152,81.0384474 41.8539312,81.0384474 41.7839472,81.0384474 C41.7127968,81.0365148 41.6428128,81.034182 41.5716624,81.0318492 C41.500512,81.02835 41.430528,81.0236844 41.3582112,81.0178524 C41.2532352,81.0096876 41.1459264,80.9980236 41.0386176,80.9851932 C40.9301424,80.9711964 40.8228336,80.9548668 40.7155248,80.9362044 C40.6070496,80.917542 40.497408,80.8965468 40.3889328,80.870886 C40.2804576,80.847558 40.1719824,80.8195644 40.0623408,80.7904044 L4.6935936,71.1804348 C4.356504,71.0894556 4.0287456,70.9436556 3.714984,70.7500332 C3.4023888,70.5587436 3.1037904,70.3196316 2.8191888,70.040862 C2.53692,69.7620924 2.2698144,69.4436652 2.0202048,69.0914124 C1.772928,68.7414924 1.5431472,68.3577468 1.3343616,67.9448412 C1.2818736,67.842198 1.2317184,67.737222 1.1815632,67.632246 C1.1325744,67.5261036 1.084752,67.4176284 1.038096,67.3091532 C0.99144,67.1995116 0.944784,67.08987 0.9016272,66.9767292 C0.857304,66.8647548 0.8153136,66.751614 0.7733232,66.6361404 C0.7534944,66.5789868 0.7336656,66.5206668 0.7138368,66.4635132 L0.6555168,66.2885532 C0.6368544,66.2290668 0.618192,66.1707468 0.5995296,66.1112604 C0.5808672,66.051774 0.5633712,65.9922876 0.5458752,65.9316348 C0.4852224,65.7228492 0.4280688,65.509398 0.3767472,65.293614 C0.3254256,65.0766636 0.2787696,64.8585468 0.2379456,64.6357644 C0.1959552,64.4141484 0.1597968,64.1878668 0.128304,63.9615852 C0.0979776,63.7353036 0.0723168,63.5043564 0.052488,63.2734092 C0.0489888,63.24075 0.046656,63.2080908 0.0443232,63.1742652 C0.0419904,63.141606 0.0396576,63.1089468 0.0361584,63.0751212 C0.0338256,63.0412956 0.0314928,63.0086364 0.0303264,62.9748108 C0.0279936,62.9421516 0.0256608,62.9094924 0.023328,62.8745004 C0.0198288,62.809182 0.0163296,62.7415308 0.0139968,62.675046 C0.0104976,62.6085612 0.0081648,62.54091 0.005832,62.4744252 C0.0046656,62.406774 0.0023328,62.3391228 0.0023328,62.2714716 C0.0011664,62.2038204 1.33525191e-13,62.1373356 1.33525191e-13,62.0696844 L1.33525191e-13,18.9688716 C1.33525191e-13,17.8864524 0.1259712,16.8273612 0.355752,15.8370876 C0.5843664,14.8421484 0.9179568,13.9113612 1.3343616,13.0925484 C1.7530992,12.2667372 2.2546512,11.551734 2.8191888,10.997694 C3.388392,10.4366556 4.0217472,10.0389132 4.6935936,9.8557884 L40.0623408,0.2481516 C40.1719824,0.2178252 40.2804576,0.190998 40.3889328,0.1665036 C40.497408,0.1420092 40.6070496,0.121014 40.7155248,0.1011852 C40.8228336,0.0825228 40.9301424,0.0661932 41.0386176,0.0533628 C41.1459264,0.039366 41.2532352,0.027702 41.3582112,0.0195372 C41.430528,0.0137052 41.500512,0.0090396 41.5716624,0.0067068 C41.6428128,0.0032076 41.7127968,0.0008748 41.7839472,0.0008748 C41.8539312,5.52518031e-14 41.9239152,5.52518031e-14 41.9938992,0.0008748 C42.0638832,0.0032076 42.1327008,0.0055404 42.2026848,0.0078732 C42.2726688,0.0125388 42.3414864,0.0172044 42.410304,0.0230364 C42.4791216,0.0288684 42.5479392,0.0358668 42.6167568,0.0440316 C42.684408,0.0533628 42.7532256,0.0615276 42.8197104,0.0731916 C42.888528,0.0825228 42.9561792,0.0953532 43.022664,0.1070172 C43.1369712,0.1291788 43.2489456,0.1536732 43.3597536,0.1816668 C43.4705616,0.2096604 43.5813696,0.2411532 43.6898448,0.2749788 C43.7994864,0.3099708 43.9079616,0.3472956 44.0164368,0.3869532 C44.1237456,0.4277772 44.2287216,0.470934 44.334864,0.5164236 C44.3861856,0.5397516 44.4363408,0.5630796 44.4876624,0.5864076 C44.5378176,0.6097356 44.5891392,0.63423 44.6392944,0.6587244 C44.6894496,0.6843852 44.7396048,0.710046 44.7885936,0.7357068 C44.8387488,0.7613676 44.8877376,0.7893612 44.9367264,0.8173548 C44.9973792,0.8523468 45.0556992,0.8873388 45.1151856,0.9234972 C45.1735056,0.9596556 45.232992,0.9969804 45.2901456,1.0354716 C45.3484656,1.0739628 45.4056192,1.1136204 45.4627728,1.1544444 C45.5199264,1.1952684 45.57708,1.2360924 45.6319008,1.2780828 C45.7030512,1.3317372 45.7730352,1.386558 45.8406864,1.4437116 C45.9106704,1.5008652 45.9771552,1.5591852 46.0448064,1.6186716 C46.1112912,1.6793244 46.1766096,1.7399772 46.2430944,1.8029628 C46.3084128,1.8659484 46.3713984,1.9301004 46.4355504,1.9965852 C46.469376,2.0315772 46.504368,2.0665692 46.5381936,2.1027276 C46.5708528,2.138886 46.6046784,2.1750444 46.638504,2.2123692 C46.6711632,2.249694 46.7038224,2.2870188 46.737648,2.3243436 C46.7691408,2.3628348 46.8018,2.4001596 46.8344592,2.4386508 C46.8939456,2.5133004 46.9452672,2.5809516 46.9930896,2.6427708 C47.040912,2.70459 47.0852352,2.7617436 47.1237264,2.815398 C47.163384,2.8690524 47.198376,2.9192076 47.233368,2.9681964 C47.2671936,3.0160188 47.2986864,3.0638412 47.3313456,3.1116636 L47.4129936,3.2364684 C47.4398208,3.2772924 47.466648,3.3192828 47.4923088,3.3624396 C47.5203024,3.40443 47.5459632,3.4475868 47.571624,3.4907436 C47.5972848,3.5339004 47.6229456,3.5782236 47.6486064,3.6213804 C47.7512496,3.8021724 47.8480608,3.9887964 47.9402064,4.1812524 C48.032352,4.3737084 48.119832,4.5719964 48.20148,4.77495 C48.2819616,4.9779036 48.3577776,5.1866892 48.4277616,5.4013068 C48.4977456,5.614758 48.5607312,5.8340412 48.6190512,6.0568236" id="Fill-67" fill="url(#linearGradient-1)"></path>
            </g>
            <g id="编组" transform="translate(18.000000, 24.000000)">
                <path d="M25.961472,0.451872 L30.44304,0.976752 L30.522906,0.992142 L30.544128,0.996192 C30.558384,0.998784 30.571344,1.002672 30.583008,1.005264 L30.600504,1.0098 L30.618,1.014336 C30.642624,1.020816 30.66336,1.027296 30.6828,1.033776 C30.700944,1.03896 30.719088,1.04544 30.735936,1.050624 C30.751488,1.055808 30.765744,1.060992 30.78,1.067472 L30.821472,1.083024 C30.839616,1.092096 30.856464,1.099872 30.87072,1.106352 L30.951072,1.146528 L30.984768,1.164672 C31.008096,1.178928 31.027536,1.190592 31.046976,1.202256 C31.06512,1.21392 31.080672,1.224288 31.09752,1.234656 C31.113072,1.245024 31.127328,1.254096 31.138992,1.263168 L31.177872,1.29168 C31.192128,1.303344 31.20768,1.315008 31.22064,1.325376 C31.234896,1.33704 31.245264,1.347408 31.258224,1.357776 L31.293216,1.387584 C31.302288,1.397952 31.313952,1.407024 31.32432,1.417392 L31.381344,1.474416 C31.398192,1.491264 31.412448,1.506816 31.426704,1.521072 L31.446954,1.541646 L31.497984,1.601424 L30.9689136,1.540872 L31.4974656,1.6016832 L42.2827776,14.6640672 L42.283296,14.663808 C42.33384,14.72472 42.380496,14.788224 42.42456,14.853024 C42.468624,14.91912 42.510096,14.986512 42.54768,15.0552 C42.58656,15.123888 42.622848,15.195168 42.655248,15.267744 C42.688944,15.339024 42.720048,15.412896 42.747264,15.488064 C42.768,15.543792 42.78744,15.59952 42.804288,15.655248 C42.822432,15.710976 42.83928,15.768 42.85224,15.825024 C42.867792,15.882048 42.880752,15.939072 42.893712,15.997392 C42.90408,16.055712 42.914448,16.114032 42.92352,16.172352 L42.939072,16.295472 C42.944256,16.336944 42.948144,16.378416 42.950736,16.418592 L42.958512,16.543008 L42.959808,16.667424 C42.959808,16.854048 42.946848,17.03808 42.918336,17.220816 C42.89112,17.402256 42.848352,17.581104 42.791328,17.753472 C42.7356,17.924544 42.66432,18.090432 42.58008,18.247248 C42.494544,18.40536 42.396048,18.553104 42.283296,18.689184 L40.077784,18.7183552 L42.2829072,18.6900912 L39.8495376,21.6487296 L31.500576,31.79952 C31.418928,31.898016 31.334688,31.983552 31.245264,32.060016 C31.1686989,32.1253215 31.0891991,32.181823 31.0076145,32.2312203 C30.9952655,32.2383725 30.9835138,32.2453844 30.971808,32.2522128 L30.9569136,32.259872 L30.8586895,32.3097904 L30.8586895,32.3097904 L30.9039136,32.286872 L30.8875407,32.296331 C30.8597563,32.3098798 30.8318343,32.3225735 30.803744,32.3344123 C30.7949209,32.3382358 30.7861758,32.3419145 30.777408,32.3455248 L30.678102,32.3811648 L30.678102,32.3811648 L30.577824,32.4090288 L30.5339136,32.418872 L30.546784,32.415872 L30.577824,32.4090288 C30.5249675,32.4232594 30.4713138,32.4335038 30.4181135,32.4410126 L30.374352,32.44752 L30.374352,32.44752 L25.892784,32.949072 L26.0354328,32.9261662 L26.0354328,32.9261662 L26.1419136,32.897872 L26.19783,32.8827168 C26.23104,32.8717008 26.264088,32.8593888 26.297136,32.8457808 L26.39628,32.8012308 L26.49024,32.750784 C26.5368021,32.7243569 26.5824477,32.6951803 26.6273252,32.6632544 C26.644924,32.6502251 26.6622417,32.6373502 26.679456,32.6241648 L26.767584,32.552496 C26.857008,32.474736 26.941248,32.385312 27.022896,32.28552 L35.4198096,21.8081376 L37.8739152,18.7471152 L37.874784,18.7463552 L37.983552,18.601536 C38.053152,18.501984 38.116224,18.398016 38.172384,18.290016 C38.25792,18.12672 38.3292,17.955648 38.386224,17.7768 C38.443248,17.599248 38.486016,17.41392 38.514528,17.226 C38.54304,17.03808 38.557296,16.846272 38.557296,16.653168 C38.557296,16.6104 38.556,16.567632 38.554704,16.524864 C38.552112,16.482096 38.54952,16.439328 38.546928,16.39656 L38.535264,16.268256 L38.519712,16.141248 L38.488608,15.959808 L38.469978,15.870384 L38.448432,15.78096 C38.434176,15.721344 38.418624,15.663024 38.40048,15.604704 C38.382336,15.546384 38.362896,15.48936 38.34216,15.432336 C38.314944,15.355872 38.282544,15.278112 38.250144,15.20424 C38.216448,15.129072 38.18016,15.056496 38.14128,14.98392 C38.1024,14.91264 38.060928,14.843952 38.015568,14.775264 L37.874304,14.579568 L27.0210816,1.0923552 C27.009936,1.07784 26.999568,1.066176 26.986608,1.05192 C26.974944,1.03896 26.96328,1.024704 26.949024,1.009152 C26.936064,0.994896 26.920512,0.978048 26.903664,0.9612 L26.84664,0.90288 L26.81424,0.873072 L26.780544,0.841968 L26.74296,0.808272 C26.728704,0.797904 26.714448,0.78624 26.700192,0.77328 L26.661312,0.744768 C26.648352,0.7344 26.634096,0.725328 26.618544,0.71496 C26.602992,0.704592 26.58744,0.694224 26.568,0.68256 C26.54856,0.6696 26.52912,0.657936 26.505792,0.64368 L26.472096,0.62424 C26.460432,0.61776 26.447472,0.612576 26.434512,0.6048 L26.391744,0.584064 L26.3412,0.55944 C26.326944,0.554256 26.31528,0.547776 26.301024,0.542592 C26.285472,0.537408 26.272512,0.532224 26.255664,0.525744 C26.238816,0.52056 26.220672,0.51408 26.202528,0.5076 C26.183088,0.502416 26.162352,0.495936 26.137728,0.489456 C26.126064,0.485568 26.1144,0.482976 26.102736,0.480384 C26.091072,0.476496 26.078112,0.473904 26.063856,0.471312 C26.050896,0.467424 26.035344,0.464832 26.0172,0.460944 L25.961472,0.451872 Z M21.3565248,21.145752 L14.695344,30.253392 C14.63184,30.342816 14.561856,30.424464 14.490576,30.493152 C14.418,30.56184 14.341536,30.621456 14.263776,30.669408 C14.18472,30.718656 14.105664,30.75624 14.02272,30.783456 C13.941072,30.810672 13.858128,30.828816 13.77648,30.836592 L9.29232,31.238352 C9.373968,31.230576 9.456912,31.212432 9.537264,31.18392 C9.620208,31.155408 9.699264,31.117824 9.77832,31.068576 C9.85608,31.018032 9.931248,30.958416 10.003824,30.88584 C10.075104,30.815856 10.145088,30.732912 10.208592,30.6396 L10.20932,30.638752 L16.8594048,21.271464 L21.3565248,21.145752 Z M25.5795408,8.9733312 L30.0611088,9.2286432 L24.5906928,16.7169312 L24.5914704,16.71732 L26.3746368,19.1538 L30.0617568,24.191352 L25.5801888,24.424632 L21.8827008,19.219896 L20.0974608,16.7052672 L25.5795408,8.9733312 Z M9.0669456,9.8283024 L13.5498096,10.0330704 L9.1369296,16.7515344 L13.550328,23.4394128 L9.067464,23.6247408 L4.671432,16.7429808 L6.9059136,16.746504 L4.6709136,16.7424624 L9.0669456,9.8283024 Z M14.364864,8.661384 L18.860688,8.907624 L21.349008,12.303144 L16.851888,12.156696 L14.364864,8.661384 Z M9.306576,2.223504 L13.755744,2.63952 L13.759632,2.640654 L13.771296,2.640816 L13.779072,2.642112 C13.781664,2.642112 13.784256,2.642112 13.786848,2.643408 C13.816656,2.646 13.846464,2.651184 13.874976,2.657664 L13.963104,2.6784 C13.992912,2.687472 14.021424,2.696544 14.049936,2.708208 C14.078448,2.719872 14.108256,2.731536 14.135472,2.745792 C14.186016,2.76912 14.23656,2.797632 14.285808,2.828736 C14.335056,2.861136 14.383008,2.896128 14.429664,2.936304 C14.477616,2.97648 14.522976,3.020544 14.56704,3.068496 L14.6322558,3.14302502 L14.658576,3.177504 L14.6611296,3.1781376 C14.6637216,3.1820256 14.6663136,3.1859136 14.6702016,3.1898016 C14.6727936,3.1936896 14.6753856,3.1975776 14.6792736,3.2014656 L14.689576,3.217504 L14.695344,3.2242752 L16.453368,5.6243376 L18.86004,8.9071056 L14.365512,8.6608656 L11.963376,5.2836192 L10.2080736,2.8191456 L10.2039136,2.812504 L10.208592,2.818368 L10.2029136,2.810504 L10.146384,2.7351 C10.125,2.708208 10.102968,2.682288 10.080288,2.657664 C10.036224,2.608416 9.990864,2.563056 9.944208,2.52288 C9.897552,2.481408 9.8496,2.44512 9.800352,2.41272 C9.751104,2.379024 9.70056,2.350512 9.650016,2.325888 C9.6228,2.312928 9.592992,2.299968 9.565776,2.2896 C9.535968,2.277936 9.507456,2.267568 9.478944,2.259792 L9.390816,2.236464 L9.347238,2.22885 L9.306576,2.223504 Z" id="形状结合" fill="url(#linearGradient-2)" opacity="0.8"></path>
                <g transform="translate(25.920000, 0.000000)">
                    <path d="M0.0050544,0.4461696 L4.4866224,0.9723456 C4.4892144,0.9723456 4.4918064,0.9723456 4.4956944,0.9736416 C4.4982864,0.9736416 4.5021744,0.9736416 4.5047664,0.9749376 C4.5086544,0.9749376 4.5112464,0.9749376 4.5138384,0.9762336 C4.5164304,0.9762336 4.5190224,0.9762336 4.5229104,0.9775296 L0.0413424,0.4513536 C0.0387504,0.4500576 0.0348624,0.4500576 0.0322704,0.4500576 C0.0296784,0.4487616 0.0270864,0.4487616 0.0244944,0.4487616 C0.0206064,0.4474656 0.0180144,0.4474656 0.0141264,0.4474656 C0.0115344,0.4461696 0.0076464,0.4461696 0.0050544,0.4461696" id="Fill-59" fill="#363878"></path>
                    <path d="M0.0418608,0.451224 L4.5234288,0.9774 L0.0418608,0.451224 Z" id="Fill-60" fill="#373A7A"></path>
                </g>
                <path d="M21.8827008,19.219896 L25.5801888,24.424632 L31.4912448,16.67844 L25.5801888,8.97372 L20.0968128,16.705656 L21.8827008,19.219896 L21.8827008,19.219896 Z M9.0665568,23.625 L13.7541888,16.721208 L11.3695488,13.214232 L9.0665568,9.827784 L4.6718208,16.74324 L9.0665568,23.625 L9.0665568,23.625 Z M25.6605408,32.951016 L25.5063168,32.935464 C25.4752128,32.93028 25.4454048,32.925096 25.4155968,32.918616 C25.3844928,32.91084 25.3546848,32.90436 25.3235808,32.895288 C25.2937728,32.887512 25.2626688,32.87844 25.2328608,32.868072 C25.2043488,32.856408 25.1732448,32.84604 25.1434368,32.83308 C25.1278848,32.827896 25.1136288,32.821416 25.0980768,32.814936 C25.0838208,32.808456 25.0682688,32.80068 25.0540128,32.7942 C25.0397568,32.78772 25.0242048,32.779944 25.0099488,32.772168 C24.9943968,32.764392 24.9801408,32.756616 24.9658848,32.74884 C24.9360768,32.733288 24.9075648,32.71644 24.8790528,32.698296 C24.8492448,32.681448 24.8207328,32.663304 24.7922208,32.642568 C24.7650048,32.623128 24.7351968,32.603688 24.7079808,32.581656 C24.6794688,32.559624 24.6522528,32.537592 24.6250368,32.51556 C24.5835648,32.480568 24.5433888,32.44428 24.5032128,32.4054 C24.4643328,32.36652 24.4254528,32.326344 24.3878688,32.283576 C24.3489888,32.240808 24.3127008,32.196744 24.2764128,32.151384 C24.2401248,32.104728 24.2051328,32.05548 24.1714368,32.006232 L16.8594048,21.271464 L10.2083328,30.640248 C10.1422368,30.736152 10.0722528,30.820392 9.9970848,30.892968 C9.9219168,30.965544 9.8441568,31.026456 9.7625088,31.077 C9.6834528,31.126248 9.5992128,31.165128 9.5162688,31.192344 C9.4320288,31.21956 9.3464928,31.235112 9.2622528,31.240296 L9.1313568,31.249368 L9.0017568,31.235112 C8.9810208,31.231224 8.9602848,31.22604 8.9408448,31.220856 C8.9201088,31.216968 8.8993728,31.211784 8.8812288,31.2066 C8.8604928,31.201416 8.8410528,31.194936 8.8203168,31.189752 C8.7995808,31.183272 8.7801408,31.176792 8.7594048,31.170312 L8.6207328,31.097736 C8.5805568,31.077 8.5416768,31.053672 8.5040928,31.027752 C8.4652128,31.001832 8.4276288,30.97332 8.3913408,30.943512 C8.3537568,30.912408 8.3161728,30.881304 8.2811808,30.846312 C8.2448928,30.81132 8.2086048,30.775032 8.1749088,30.734856 C8.1541728,30.711528 8.1347328,30.6882 8.1139968,30.663576 C8.0932608,30.638952 8.0751168,30.613032 8.0543808,30.585816 C8.0349408,30.559896 8.0167968,30.53268 7.9973568,30.505464 C7.9779168,30.476952 7.9610688,30.44844 7.9429248,30.418632 L6.2879328,27.719064 L0.5557248,18.36972 C0.5466528,18.35676 0.5388768,18.3438 0.5311008,18.33084 C0.5246208,18.31788 0.5181408,18.30492 0.5103648,18.29196 C0.5025888,18.277704 0.4948128,18.264744 0.4883328,18.251784 C0.4805568,18.238824 0.4740768,18.224568 0.4675968,18.211608 C0.3522528,17.984808 0.2667168,17.733384 0.2135808,17.469 C0.1591488,17.205912 0.1371168,16.928568 0.1435968,16.655112 C0.1500768,16.38036 0.1889568,16.106904 0.2563488,15.849 C0.3250368,15.591096 0.4248288,15.348744 0.5557248,15.1362 L6.2879328,5.758344 L7.9429248,3.051 C8.0155008,2.931768 8.0932608,2.825496 8.1762048,2.730888 C8.2578528,2.63628 8.3459808,2.554632 8.4354048,2.485944 C8.5248288,2.417256 8.6181408,2.360232 8.7127488,2.317464 C8.8073568,2.274696 8.9032608,2.244888 9.0017568,2.229336 L9.1313568,2.21508 C9.1456128,2.21508 9.1611648,2.213784 9.1741248,2.213784 C9.1883808,2.213784 9.2039328,2.21508 9.2181888,2.21508 C9.2311488,2.216376 9.2454048,2.216376 9.2609568,2.217672 C9.2739168,2.218968 9.2881728,2.220264 9.3024288,2.222856 C9.3322368,2.225448 9.3620448,2.230632 9.3905568,2.237112 C9.4203648,2.242296 9.4501728,2.250072 9.4786848,2.259144 C9.5071968,2.26692 9.5370048,2.277288 9.5655168,2.288952 C9.5940288,2.300616 9.6225408,2.31228 9.6510528,2.326536 C9.7015968,2.35116 9.7521408,2.379672 9.8000928,2.412072 C9.8493408,2.444472 9.8972928,2.482056 9.9439488,2.522232 C9.9906048,2.563704 10.0359648,2.609064 10.0813248,2.658312 C10.1253888,2.70756 10.1681568,2.760696 10.2083328,2.819016 L11.9631168,5.284008 L14.3646048,8.661384 L16.8516288,12.156696 L24.1714368,1.386936 C24.1779168,1.375272 24.1856928,1.363608 24.1947648,1.351944 C24.2025408,1.341576 24.2103168,1.329912 24.2180928,1.318248 C24.2271648,1.30788 24.2336448,1.297512 24.2414208,1.287144 C24.2504928,1.27548 24.2582688,1.265112 24.2660448,1.254744 C24.3075168,1.201608 24.3476928,1.15236 24.3917568,1.104408 C24.4345248,1.056456 24.4772928,1.012392 24.5213568,0.969624 C24.5654208,0.928152 24.6107808,0.887976 24.6574368,0.851688 C24.7040928,0.814104 24.7494528,0.779112 24.7974048,0.748008 C24.8168448,0.735048 24.8349888,0.723384 24.8544288,0.710424 C24.8738688,0.69876 24.8920128,0.687096 24.9127488,0.675432 C24.9321888,0.665064 24.9503328,0.6534 24.9710688,0.643032 C24.9892128,0.632664 25.0086528,0.622296 25.0293888,0.613224 L25.0617888,0.596376 C25.0734528,0.591192 25.0838208,0.586008 25.0954848,0.580824 C25.1058528,0.57564 25.1175168,0.570456 25.1278848,0.566568 C25.1395488,0.561384 25.1499168,0.557496 25.1615808,0.552312 C25.2859968,0.5238 25.3831968,0.503064 25.4583648,0.486216 C25.5335328,0.470664 25.5879648,0.459 25.6294368,0.45252 C25.6683168,0.444744 25.6942368,0.440856 25.7136768,0.438264 C25.7331168,0.436968 25.7434848,0.435672 25.7564448,0.436968 C25.7797728,0.436968 25.8005088,0.436968 25.8199488,0.438264 C25.8393888,0.43956 25.8562368,0.43956 25.8730848,0.440856 C25.8899328,0.442152 25.9054848,0.444744 25.9197408,0.44604 L25.9612128,0.451224 C25.9832448,0.455112 26.0013888,0.457704 26.0169408,0.461592 C26.0350848,0.464184 26.0506368,0.468072 26.0648928,0.470664 C26.0778528,0.474552 26.0908128,0.477144 26.1024768,0.479736 C26.1154368,0.482328 26.1258048,0.486216 26.1374688,0.488808 C26.1620928,0.496584 26.1828288,0.503064 26.2022688,0.508248 C26.2217088,0.514728 26.2385568,0.519912 26.2554048,0.526392 C26.2722528,0.531576 26.2852128,0.53676 26.3007648,0.54324 C26.3150208,0.548424 26.3279808,0.553608 26.3409408,0.560088 C26.3603808,0.567864 26.3772288,0.576936 26.3914848,0.583416 L26.4355488,0.605448 C26.4472128,0.611928 26.4601728,0.618408 26.4718368,0.624888 L26.5055328,0.644328 C26.5288608,0.657288 26.5495968,0.670248 26.5677408,0.681912 C26.5871808,0.694872 26.6040288,0.70524 26.6182848,0.715608 C26.6338368,0.72468 26.6480928,0.735048 26.6623488,0.745416 L26.6999328,0.773928 C26.7154848,0.785592 26.7284448,0.797256 26.7427008,0.80892 C26.7556608,0.820584 26.7686208,0.830952 26.7802848,0.84132 C26.7919488,0.851688 26.8036128,0.862056 26.8152768,0.872424 C26.8243488,0.882792 26.8360128,0.89316 26.8463808,0.903528 C26.8684128,0.924264 26.8865568,0.943704 26.9034048,0.961848 C26.9215488,0.978696 26.9358048,0.994248 26.9487648,1.0098 C26.9630208,1.024056 26.9759808,1.038312 26.9863488,1.051272 C26.9993088,1.065528 27.0096768,1.078488 27.0213408,1.092744 L37.8740448,14.57892 C37.9245888,14.642424 37.9712448,14.70852 38.0153088,14.775912 C38.0606688,14.843304 38.1034368,14.913288 38.1410208,14.984568 C38.1799008,15.055848 38.2174848,15.12972 38.2498848,15.203592 C38.2822848,15.27876 38.3146848,15.355224 38.3419008,15.432984 C38.3626368,15.490008 38.3820768,15.547032 38.4002208,15.605352 C38.4183648,15.663672 38.4339168,15.721992 38.4481728,15.781608 C38.4637248,15.839928 38.4779808,15.899544 38.4883488,15.95916 C38.5000128,16.020072 38.5103808,16.080984 38.5194528,16.141896 C38.5259328,16.183368 38.5311168,16.226136 38.5363008,16.268904 C38.5401888,16.310376 38.5427808,16.35444 38.5466688,16.395912 C38.5492608,16.43868 38.5518528,16.481448 38.5544448,16.524216 C38.5557408,16.56828 38.5570368,16.609752 38.5570368,16.653816 C38.5570368,16.845624 38.5427808,17.037432 38.5142688,17.226648 C38.4870528,17.414568 38.4429888,17.599896 38.3859648,17.777448 C38.3289408,17.955 38.2576608,18.127368 38.1721248,18.289368 C38.0878848,18.452664 37.9880928,18.605592 37.8740448,18.746856 L35.4194208,21.808008 L27.0226368,32.284872 C26.9371008,32.391144 26.8476768,32.484456 26.7530688,32.564808 C26.6584608,32.64516 26.5599648,32.713848 26.4588768,32.769576 C26.3577888,32.824008 26.2528128,32.866776 26.1465408,32.89788 C26.0415648,32.928984 25.9327008,32.948424 25.8238368,32.9562 L25.6605408,32.951016 Z" id="Fill-153" fill="url(#linearGradient-3)"></path>
            </g>
            <g id="编组备份-9" transform="translate(8.000000, 12.000000)">
                <g id="Clip-88">
                    <use fill="black" fill-opacity="1" filter="url(#filter-5)" xlink:href="#path-4"></use>
                    <use fill="#D8D5F6" fill-rule="evenodd" xlink:href="#path-4"></use>
                </g>
                <path d="M0.579288744,7.63025606 C0.214238173,6.84249135 0,5.88730796 0,4.85663668 C0,3.60099654 0.319243067,2.45597232 0.842153344,1.59346713 C0.911921697,1.47836678 0.985213703,1.36775087 1.06202936,1.26311419 C1.63708972,0.479086505 2.40101794,0 3.23753344,0 C3.924646,0 4.56172268,0.322131488 5.08674715,0.869979239 C5.15017292,0.93649827 5.21289396,1.00675433 5.27350082,1.0792526 C5.28759543,1.09719031 5.30169005,1.11363322 5.31578467,1.13157093 C6.02685808,2.02247751 6.48,3.36182699 6.48,4.85663668 C6.48,7.54056747 5.02754976,9.72 3.23753344,9.72 C2.24104405,9.72 1.34815008,9.040609 0.753357259,7.97331488 C0.742081566,7.95238754 0.730805873,7.9307128 0.719530179,7.90978547 C0.670903752,7.81934948 0.623686786,7.72592388 0.579288744,7.63025606" id="Fill-1" fill="url(#linearGradient-6)"></path>
                <path d="M1.87433757,4.05490072 C1.86469562,4.0694141 1.85581487,4.08554008 1.84820281,4.10235716 C1.84059074,4.11917425 1.83424735,4.13691283 1.8289189,4.15557289 C1.82384419,4.17446331 1.82003816,4.19381449 1.81775454,4.21385677 L1.81648586,4.25808802 L1.81775454,4.30001556 L1.81775454,4.55204152 L2.007295,4.54881633 L2.04053435,4.55042892 L2.07098262,4.54789484 L3.97831276,4.51679475 C3.98744724,4.51679475 3.99607425,4.51886809 4.00419378,4.52278439 C4.01205959,4.52693107 4.01916418,4.53269035 4.02525384,4.54006223 C4.03108975,4.5474341 4.03616446,4.5561882 4.03946303,4.56609416 C4.04276159,4.57576974 4.04479147,4.58636681 4.04479147,4.597655 L4.04479147,5.00817627 C4.04479147,5.07613574 4.03337337,5.14110039 4.01307453,5.20007538 C3.99277568,5.25882001 3.96334236,5.31180536 3.92731191,5.35603661 C3.89128146,5.40026786 3.84840016,5.435745 3.80120534,5.45993397 C3.75401053,5.48412293 3.70250221,5.49725408 3.64871028,5.4963326 L1.81775454,5.46638436 L1.81775454,5.72025329 L1.81648586,5.76448454 L1.81648586,5.78452683 L1.81775454,5.80641208 C1.81927695,5.81839138 1.82130684,5.83037067 1.82384419,5.8421196 C1.82638155,5.85386852 1.82917264,5.86538708 1.8324712,5.87667526 C1.8360235,5.88796344 1.83982953,5.89879088 1.84414304,5.90938795 C1.84845654,5.91998502 1.85327752,5.93012135 1.85860596,5.93979694 C1.86190453,5.94601696 1.86545682,5.95177623 1.86900912,5.95753551 C1.87256142,5.96306442 1.87636745,5.96859332 1.88042722,5.97389186 C1.88397952,5.97896002 1.88829302,5.98425856 1.89209906,5.98909635 C1.89641256,5.99416451 1.9009798,5.99877194 1.90529331,6.00360973 C1.91189043,6.01029049 1.91848755,6.01651051 1.92508468,6.02250016 C1.93218927,6.02802906 1.93904013,6.03355797 1.94639846,6.03816539 C1.9537568,6.04300318 1.96136886,6.04714986 1.96898093,6.05106617 C1.97684673,6.05475211 1.98522,6.05820768 1.99333954,6.0612025 C1.99714557,6.06235436 2.00095161,6.06327584 2.00501138,6.06419732 C2.00856367,6.06488844 2.01262344,6.06580992 2.01642948,6.06650103 C2.02023551,6.06696178 2.02429528,6.06765289 2.02835505,6.06811363 C2.03241482,6.068344 2.03647459,6.06880475 2.04053435,6.06880475 C2.04484786,6.06903512 2.04916136,6.06903512 2.0529674,6.06903512 C2.05702716,6.06880475 2.06108693,6.06857437 2.0651467,6.068344 C2.06920647,6.06788326 2.0730125,6.06742252 2.07732601,6.06673141 C2.08113204,6.06627066 2.08544555,6.06534918 2.08975905,6.06442769 L4.33303506,6.14851314 C4.38936435,6.15058648 4.44341002,6.16648209 4.49263472,6.19366587 C4.54211315,6.22084966 4.58702435,6.25932163 4.62457721,6.30631733 C4.6623838,6.35331304 4.69308581,6.40906284 4.71439959,6.47011118 C4.73545964,6.53138988 4.74738521,6.5981975 4.74738521,6.66799994 L4.74738521,7.09003976 C4.74738521,7.10155832 4.74560906,7.11238576 4.74180303,7.12229172 C4.737997,7.1319673 4.73292229,7.1407214 4.72632516,7.14809328 C4.71998177,7.15500441 4.71262344,7.16053332 4.70399643,7.16444963 C4.6958769,7.16813556 4.68699615,7.16974816 4.67786167,7.16905705 L2.04053435,6.98452981 C2.02150419,6.98314758 2.00247402,6.98084387 1.98369759,6.97807942 C1.96466742,6.97531496 1.94563726,6.97162903 1.92711456,6.96725198 C1.90859187,6.9631053 1.89006917,6.95780676 1.87180021,6.95227786 C1.85353125,6.94651858 1.83551603,6.93983782 1.81775454,6.93269631 C1.73732037,6.90021399 1.66145344,6.85367903 1.59167616,6.79585589 C1.52215262,6.73803275 1.45897247,6.66892142 1.40340438,6.59059525 C1.34809003,6.51249945 1.29988028,6.42541918 1.26105874,6.33119741 C1.22249094,6.23720601 1.19255014,6.13630347 1.1730125,6.03033277 C1.16895274,6.00729567 1.1651467,5.98379782 1.16184814,5.96006959 C1.15854958,5.93634137 1.15601222,5.91238278 1.1537286,5.88842419 C1.15144498,5.86423522 1.1501763,5.84004626 1.14890763,5.81539655 C1.14789268,5.79120759 1.14738521,5.76678825 1.14738521,5.74236892 L1.14738521,4.27605696 C1.14738521,4.25094651 1.14789268,4.22652718 1.14890763,4.20187747 C1.1501763,4.17768851 1.15144498,4.15349955 1.1537286,4.12931058 C1.15601222,4.10558236 1.15854958,4.08162377 1.16184814,4.05789555 C1.1651467,4.03439769 1.16895274,4.01113022 1.1730125,3.98809311 C1.19255014,3.88166167 1.22249094,3.78029839 1.26105874,3.68607661 C1.29988028,3.59185484 1.34809003,3.50431383 1.40340438,3.42621803 C1.45897247,3.34789186 1.52215262,3.27901091 1.59167616,3.22164851 C1.66145344,3.16382537 1.73732037,3.11752078 1.81775454,3.08572957 C1.83551603,3.07858806 1.85353125,3.0719073 1.87180021,3.0663784 C1.89006917,3.06038875 1.90859187,3.05532058 1.92711456,3.05094353 C1.94563726,3.04679685 1.96466742,3.04311092 1.98369759,3.04057683 C2.00247402,3.03758201 2.02150419,3.03550867 2.04053435,3.03412644 L4.67786167,2.84936883 C4.68699615,2.84867772 4.6958769,2.85029032 4.70399643,2.85420663 C4.71262344,2.85789256 4.71998177,2.86342147 4.72632516,2.87056297 C4.73292229,2.87747411 4.737997,2.88645858 4.74180303,2.89636454 C4.74560906,2.90604012 4.74738521,2.91686756 4.74738521,2.92838612 L4.74738521,3.3483526 C4.74738521,3.41792467 4.73545964,3.48496266 4.71439959,3.54647174 C4.69308581,3.60775045 4.6623838,3.66373062 4.62457721,3.71118706 C4.58702435,3.75841314 4.54211315,3.79711548 4.49263472,3.82452964 C4.44341002,3.85171342 4.38936435,3.8678394 4.33303506,3.86991274 L2.007295,3.95676264 C1.99739931,3.95883598 1.98826483,3.96160043 1.97938409,3.965056 C1.97050334,3.96851156 1.96187633,3.97265824 1.95350306,3.97772641 C1.94512979,3.9825642 1.93701025,3.98832348 1.92939818,3.9945435 C1.92153238,4.00053315 1.91392031,4.00767465 1.90681572,4.01481615 C1.89514388,4.02679545 1.88423325,4.04015697 1.87433757,4.05490072 Z" id="Fill-1" fill="url(#linearGradient-7)"></path>
            </g>
            <path d="M35.7138301,16.3349272 C35.7266821,16.3800066 35.7369636,16.425086 35.7489588,16.4710002 C35.7600971,16.5160796 35.7703787,16.5619938 35.781517,16.607908 C35.7926554,16.6538222 35.8029369,16.7005712 35.8123617,16.7473202 C35.8217864,16.7940693 35.832068,16.8408183 35.8397791,16.8875673 C35.8663398,17.0219707 35.8894733,17.1580437 35.9091796,17.2957863 C35.9288859,17.4343637 35.9460218,17.573776 35.9588738,17.7156926 C35.9725825,17.8576092 35.9820073,18.0011955 35.9888617,18.1464513 C35.995716,18.2917072 36,18.4394675 36,18.5880625 L36,63.4111804 C36,63.481304 35.9991432,63.5514275 35.9974296,63.621551 C35.995716,63.6908397 35.9931456,63.7601284 35.9905752,63.8285823 C35.9871481,63.897871 35.9837209,63.9663249 35.9794369,64.033944 C35.9751529,64.1023979 35.9700121,64.170017 35.9640146,64.2376362 L35.953733,64.3378126 L35.9443083,64.4388239 C35.9400243,64.4713812 35.9365971,64.5047734 35.9323131,64.5373307 C35.9280291,64.5707228 35.9237452,64.6032802 35.9194612,64.6366723 C35.8534879,65.1283718 35.748102,65.5950271 35.6075874,66.0349686 C35.4670729,66.4724058 35.2914297,66.8814596 35.0849418,67.2579561 C34.878454,67.6344526 34.6419782,67.9767222 34.3789419,68.2830951 C34.1176191,68.5869637 33.8297356,68.8566053 33.5195754,69.0845067 C33.4578861,69.1304209 33.3961968,69.1738307 33.3327939,69.2164057 C33.2685342,69.2589807 33.2042745,69.2998861 33.1400148,69.3391219 C33.0748983,69.3775229 33.0097818,69.4142542 32.9429517,69.4501508 C32.8761216,69.4860473 32.8092915,69.5202743 32.7407478,69.5528316 C32.6507842,69.5954066 32.559107,69.6354772 32.4665731,69.6730434 C32.3740391,69.7097748 32.2797915,69.7440017 32.1846872,69.7748894 C32.0904396,69.8057772 31.9936216,69.8333257 31.8968037,69.8583698 C31.7999857,69.8825791 31.7014542,69.9034492 31.6029226,69.9226497 C31.5540853,69.9318326 31.5043911,69.9393458 31.4538401,69.946859 C31.4050027,69.9552071 31.3544518,69.9618855 31.3047576,69.9677291 C31.2542066,69.9727379 31.2036557,69.9785816 31.1531047,69.9827556 C31.1025537,69.9869296 31.0520028,69.9902688 31.000595,69.993608 C30.9491872,69.9961124 30.8986363,69.997782 30.8472285,69.9986169 C30.7958207,70 30.744413,70 30.6930052,70 C30.6407407,69.9986169 30.5893329,69.9969472 30.5370683,69.9952776 C30.4848038,69.9927732 30.433396,69.989434 30.3802747,69.98526 C30.303163,69.9794164 30.2243378,69.9710683 30.1455125,69.9618855 C30.0658305,69.9518678 29.9870053,69.9401806 29.90818,69.9268237 C29.828498,69.9134669 29.7479592,69.8984404 29.6682771,69.8800747 C29.5885951,69.8633786 29.5089131,69.8433434 29.4283742,69.8224733 L3.44774734,62.9445251 C3.20013328,62.8794104 2.95937359,62.77506 2.72889545,62.6364826 C2.4992741,62.4995747 2.27993431,62.32844 2.07087607,62.1289219 C1.86353143,61.9294038 1.66732513,61.7015023 1.48397077,61.4493916 C1.30233001,61.1989505 1.13354119,60.9243001 0.980174691,60.6287795 C0.941618869,60.5553168 0.904776638,60.4801845 0.867934408,60.4050521 C0.831948973,60.329085 0.796820335,60.2514482 0.762548492,60.1738115 C0.72827665,60.0953399 0.694004808,60.0168684 0.662303353,59.9358924 C0.629745103,59.8557513 0.598900445,59.7747753 0.568055787,59.6921297 C0.553490254,59.6512243 0.538924721,59.6094841 0.524359188,59.5685788 L0.481519385,59.4433582 C0.467810648,59.4007832 0.454101911,59.359043 0.440393174,59.316468 C0.426684437,59.273893 0.413832496,59.231318 0.400980555,59.1879082 C0.35642716,59.0384784 0.314444154,58.8857093 0.276745127,58.7312706 C0.2390461,58.5759971 0.204774258,58.4198888 0.174786396,58.2604413 C0.143941738,58.1018286 0.11738106,57.9398766 0.0942475665,57.7779247 C0.0719708689,57.6159728 0.0531213556,57.4506816 0.0385558226,57.2853905 C0.0359854345,57.262016 0.0342718423,57.2386415 0.0325582502,57.2144322 C0.0308446581,57.1910577 0.029131066,57.1676832 0.0265606778,57.1434739 C0.0248470857,57.1192645 0.0231334936,57.09589 0.0222766975,57.0716807 C0.0205631054,57.0483062 0.0188495133,57.0249317 0.0171359212,56.9998876 C0.014565533,56.9531386 0.0119951448,56.90472 0.0102815527,56.8571362 C0.00771116453,56.8095524 0.00599757241,56.7611337 0.00428398029,56.7135499 C0.00342718423,56.6651313 0.00171359212,56.6167127 0.00171359212,56.5682941 C0.000856796059,56.5198755 0,56.4722916 0,56.423873 L0,25.5762047 C0,24.8015069 0.0925339743,24.043505 0.261322798,23.3347567 C0.429254825,22.6226691 0.674298498,21.9564957 0.980174691,21.3704634 C1.28776448,20.7794224 1.65618678,20.2676877 2.07087607,19.8711559 C2.48899255,19.4696153 2.95423281,19.1849472 3.44774734,19.053883 L29.4283742,12.1776045 C29.5089131,12.1558996 29.5885951,12.1366991 29.6682771,12.1191682 C29.7479592,12.1016374 29.828498,12.0866109 29.90818,12.0724192 C29.9870053,12.0590624 30.0658305,12.0473751 30.1455125,12.0381923 C30.2243378,12.0281746 30.303163,12.0198266 30.3802747,12.013983 C30.433396,12.0098089 30.4848038,12.0064697 30.5370683,12.0048001 C30.5893329,12.0022957 30.6407407,12.0006261 30.6930052,12.0006261 C30.744413,12 30.7958207,12 30.8472285,12.0006261 C30.8986363,12.0022957 30.9491872,12.0039653 31.000595,12.0056349 C31.0520028,12.0089741 31.1025537,12.0123134 31.1531047,12.0164874 C31.2036557,12.0206614 31.2542066,12.0256702 31.3047576,12.0315138 C31.3544518,12.0381923 31.4050027,12.0440359 31.4538401,12.0523839 C31.5043911,12.0590624 31.5540853,12.0682452 31.6029226,12.0765932 C31.6868886,12.0924545 31.7691411,12.1099854 31.8505367,12.1300207 C31.9319323,12.150056 32.0133279,12.1725957 32.09301,12.196805 C32.1735488,12.2218491 32.2532308,12.2485628 32.3329129,12.2769461 C32.4117381,12.3061643 32.4888498,12.337052 32.5668182,12.3696094 C32.6045172,12.3863054 32.6413594,12.4030015 32.6790585,12.4196976 C32.7159007,12.4363937 32.7535997,12.4539245 32.790442,12.4714554 C32.8272842,12.4898211 32.8641264,12.5081868 32.9001119,12.5265525 C32.9369541,12.5449181 32.9729395,12.5649534 33.008925,12.5849887 C33.0534784,12.6100328 33.0963182,12.635077 33.1400148,12.6609559 C33.1828546,12.6868348 33.2265512,12.7135485 33.2685342,12.741097 C33.311374,12.7686456 33.353357,12.7970289 33.39534,12.826247 C33.437323,12.8554651 33.479306,12.8846833 33.5195754,12.9147362 C33.57184,12.9531372 33.6232477,12.992373 33.6729419,13.0332783 C33.7243497,13.0741837 33.773187,13.1159239 33.8228812,13.1584989 C33.8717186,13.2019087 33.9196992,13.2453185 33.9685365,13.2903979 C34.0165171,13.3354773 34.0627841,13.3813915 34.1099079,13.4289753 C34.134755,13.4540194 34.1604589,13.4790635 34.1853059,13.5049425 C34.2092962,13.5308214 34.2341433,13.5567003 34.2589904,13.583414 C34.2829807,13.6101277 34.306971,13.6368415 34.3318181,13.6635552 C34.3549516,13.6911037 34.3789419,13.7178174 34.4029321,13.7453659 C34.4466287,13.7987934 34.4843278,13.847212 34.5194564,13.8914566 C34.554585,13.9357012 34.5871433,13.9766066 34.6154176,14.0150076 C34.6445486,14.0534085 34.6702525,14.0893051 34.6959564,14.1243669 C34.7208035,14.1585938 34.743937,14.1928208 34.7679273,14.2270477 L34.827903,14.3163717 C34.8476093,14.3455898 34.8673156,14.3756428 34.8861651,14.4065305 C34.9067282,14.4365835 34.9255777,14.4674712 34.9444273,14.4983589 C34.9632768,14.5292467 34.9821263,14.5609692 35.0009758,14.591857 C35.0763738,14.7212515 35.1474879,14.8548201 35.2151748,14.9925628 C35.2828617,15.1303054 35.3471214,15.272222 35.4070971,15.4174779 C35.4662161,15.5627337 35.5219078,15.7121636 35.5733156,15.8657675 C35.6247233,16.0185366 35.6709903,16.1754797 35.7138301,16.3349272" id="Fill-67备份" stroke-opacity="0.2" stroke="#A8A0FB" stroke-width="0.2" fill-opacity="0.2" fill="#CACAF1" stroke-linecap="square"></path>
            <g id="编组备份-8" transform="translate(92.000000, 45.000000)">
                <g id="Clip-88">
                    <use fill="black" fill-opacity="1" filter="url(#filter-9)" xlink:href="#path-8"></use>
                    <use fill="#D8D5F6" fill-rule="evenodd" xlink:href="#path-8"></use>
                </g>
                <path d="M1.2098592,12.1263912 C0.5944752,10.8742392 0.2333232,9.3559752 0.2333232,7.7177232 C0.2333232,5.7218832 0.7714872,3.9018672 1.6529832,2.5309152 C1.7705952,2.3479632 1.8941472,2.1721392 2.0236392,2.0058192 C2.9930472,0.7596072 4.2808392,-0.0019008 5.6909952,-0.0019008 C6.8492952,-0.0019008 7.9232472,0.5101272 8.8083072,1.3809312 C8.9152272,1.4866632 9.0209592,1.5983352 9.1231272,1.7135712 C9.1468872,1.7420832 9.1706472,1.7682192 9.1944072,1.7967312 C10.3930992,3.2128272 11.1569832,5.3417232 11.1569832,7.7177232 C11.1569832,11.9838312 8.7085152,15.4480392 5.6909952,15.4480392 C4.0111632,15.4480392 2.5059672,14.3681472 1.5032952,12.6716832 C1.4842872,12.6384192 1.4652792,12.6039672 1.4462712,12.5707032 C1.3642992,12.4269552 1.2847032,12.2784552 1.2098592,12.1263912" id="Fill-1" fill="url(#linearGradient-10)"></path>
                <path d="M3.83914576,6.06840423 C3.821638,6.08637317 3.80527206,6.10641546 3.79042853,6.12853108 C3.7759656,6.15030115 3.76264449,6.17449011 3.75122639,6.19971575 C3.73980829,6.22494138 3.73029321,6.25154924 3.72230054,6.27953933 C3.71468847,6.30787497 3.70897942,6.33690173 3.70555399,6.36696515 L3.70365097,6.43331203 L3.70555399,6.49620333 L3.70555399,6.87424228 L3.98986467,6.86940449 L4.03972371,6.87182339 L4.08539611,6.86802226 L6.94639132,6.82137212 C6.96009304,6.82137212 6.97303355,6.82448213 6.98521286,6.83035659 C6.99701156,6.83657661 7.00766845,6.84521553 7.01680293,6.85627334 C7.02555681,6.86733115 7.03316888,6.8804623 7.03811672,6.89532124 C7.04306456,6.90983462 7.04610939,6.92573022 7.04610939,6.9426625 L7.04610939,7.55844441 C7.04610939,7.66038361 7.02898224,7.75783058 6.99853397,7.84629308 C6.96808571,7.93441002 6.92393572,8.01388804 6.86989005,8.08023491 C6.81584438,8.14658179 6.75152241,8.19979751 6.68073019,8.23608095 C6.60993798,8.2723644 6.5326755,8.29206113 6.4519876,8.2906789 L3.70555399,8.24575654 L3.70555399,8.62655994 L3.70365097,8.69290681 L3.70365097,8.72297024 L3.70555399,8.75579812 C3.70783761,8.77376706 3.71088244,8.79173601 3.71468847,8.8093594 C3.7184945,8.82698278 3.72268114,8.84426062 3.72762898,8.86119289 C3.73295743,8.87812517 3.73866648,8.89436633 3.74513674,8.91026193 C3.75160699,8.92615754 3.75883846,8.94136203 3.76683112,8.95587541 C3.77177897,8.96520544 3.77710741,8.97384435 3.78243586,8.98248327 C3.78776431,8.99077663 3.79347336,8.99906998 3.79956301,9.00701779 C3.80489146,9.01462003 3.81136171,9.02256784 3.81707076,9.02982452 C3.82354102,9.03742677 3.83039188,9.0443379 3.83686214,9.05159459 C3.84675782,9.06161573 3.85665351,9.07094576 3.8665492,9.07993024 C3.87720609,9.08822359 3.88748238,9.09651695 3.89851988,9.10342809 C3.90955737,9.11068478 3.92097547,9.11690479 3.93239357,9.12277926 C3.94419228,9.12830816 3.95675218,9.13349151 3.96893149,9.13798375 C3.97464054,9.13971153 3.98034959,9.14109376 3.98643924,9.14247599 C3.99176769,9.14351265 3.99785734,9.14489488 4.00356639,9.14593155 C4.00927544,9.14662266 4.0153651,9.14765933 4.02145475,9.14835045 C4.0275444,9.148696 4.03363406,9.14938712 4.03972371,9.14938712 C4.04619397,9.14973267 4.05266422,9.14973267 4.05837327,9.14973267 C4.06446293,9.14938712 4.07055258,9.14904156 4.07664223,9.148696 C4.08273189,9.14800489 4.08844094,9.14731378 4.09491119,9.14627711 C4.10062024,9.14558599 4.1070905,9.14420377 4.11356076,9.14282154 L7.47847477,9.26894971 C7.56296871,9.27205972 7.64403721,9.29590313 7.71787426,9.33667881 C7.79209191,9.37745449 7.8594587,9.43516245 7.91578799,9.505656 C7.97249789,9.57614955 8.01855089,9.65977426 8.05052157,9.75134676 C8.08211164,9.84326483 8.1,9.94347625 8.1,10.0481799 L8.1,10.6812396 C8.1,10.6985175 8.09733578,10.7147586 8.09162673,10.7296176 C8.08591768,10.744131 8.07830561,10.7572621 8.06840992,10.7683199 C8.05889484,10.7786866 8.04785734,10.78698 8.03491683,10.7928544 C8.02273752,10.7983833 8.00941641,10.8008022 7.99571469,10.7997656 L4.03972371,10.5229747 C4.01117846,10.5209014 3.98263321,10.5174458 3.95446856,10.5132991 C3.92592332,10.5091524 3.89737807,10.5036235 3.86959402,10.497058 C3.84180998,10.4908379 3.81402594,10.4828901 3.7866225,10.4745968 C3.75921906,10.4659579 3.73219622,10.4559367 3.70555399,10.4452245 C3.58490273,10.396501 3.47110234,10.3266985 3.36643643,10.2399638 C3.26215111,10.1532291 3.16738089,10.0495621 3.08402876,9.93207288 C3.00105723,9.81492918 2.9287426,9.68430878 2.87051029,9.54297612 C2.81265858,9.40198901 2.76774739,9.25063521 2.73844094,9.09167916 C2.73235128,9.0571235 2.72664223,9.02187672 2.72169439,8.98628439 C2.71674655,8.95069206 2.71294051,8.91475417 2.70951508,8.87881628 C2.70608965,8.84253283 2.70418664,8.80624939 2.70228362,8.76927483 C2.70076121,8.73299138 2.7,8.69636238 2.7,8.65973338 L2.7,6.46026544 C2.7,6.42259977 2.70076121,6.38597077 2.70228362,6.34899621 C2.70418664,6.31271276 2.70608965,6.27642932 2.70951508,6.24014587 C2.71294051,6.20455354 2.71674655,6.16861565 2.72169439,6.13302332 C2.72664223,6.09777654 2.73235128,6.06287532 2.73844094,6.02831966 C2.76774739,5.8686725 2.81265858,5.71662758 2.87051029,5.57529492 C2.9287426,5.43396226 3.00105723,5.30265074 3.08402876,5.18550705 C3.16738089,5.06801779 3.26215111,4.96469636 3.36643643,4.87865276 C3.47110234,4.79191805 3.58490273,4.72246116 3.70555399,4.67477435 C3.73219622,4.66406209 3.75921906,4.65404095 3.7866225,4.64574759 C3.81402594,4.63676312 3.84180998,4.62916088 3.86959402,4.6225953 C3.89737807,4.61637528 3.92592332,4.61084637 3.95446856,4.60704525 C3.98263321,4.60255302 4.01117846,4.59944301 4.03972371,4.59736967 L7.99571469,4.32023325 C8.00941641,4.31919658 8.02273752,4.32161548 8.03491683,4.32748994 C8.04785734,4.33301885 8.05889484,4.3413122 8.06840992,4.35202446 C8.07830561,4.36239116 8.08591768,4.37586787 8.09162673,4.3907268 C8.09733578,4.40524018 8.1,4.42148134 8.1,4.43875917 L8.1,5.06870891 C8.1,5.17306701 8.08211164,5.27362399 8.05052157,5.36588761 C8.01855089,5.45780567 7.97249789,5.54177593 7.91578799,5.61296059 C7.8594587,5.6837997 7.79209191,5.74185322 7.71787426,5.78297445 C7.64403721,5.82375014 7.56296871,5.8479391 7.47847477,5.85104911 L3.98986467,5.98132396 C3.97502114,5.98443397 3.96131942,5.98858065 3.94799831,5.993764 C3.93467719,5.99894735 3.92173668,6.00516737 3.90917677,6.01276961 C3.89661686,6.0200263 3.88443755,6.02866522 3.87301945,6.03799525 C3.86122075,6.04697972 3.84980265,6.05769197 3.83914576,6.06840423" id="Fill-1" fill="url(#linearGradient-11)"></path>
            </g>
        </g>
    </g>
</svg>