<?xml version="1.0" standalone="no"?><!DOCTYPE svg PUBLIC "-//W3C//DTD SVG 1.1//EN" "http://www.w3.org/Graphics/SVG/1.1/DTD/svg11.dtd"><svg t="1600139244637" class="icon" viewBox="0 0 1024 1024" version="1.1" xmlns="http://www.w3.org/2000/svg" p-id="16683" xmlns:xlink="http://www.w3.org/1999/xlink" width="200" height="200"><defs><style type="text/css"></style></defs><path d="M605.867 170.667c21.333 4.266 38.4 29.866 29.866 51.2l-153.6 576c-4.266 21.333-29.866 38.4-51.2 29.866-21.333-4.266-38.4-29.866-29.866-51.2l153.6-576c4.266-21.333 25.6-34.133 51.2-29.866zM145.067 499.2L294.4 648.533c17.067 17.067 17.067 42.667 0 59.734s-42.667 17.066-59.733 0l-179.2-179.2c-8.534-4.267-12.8-17.067-12.8-29.867s4.266-21.333 12.8-29.867l179.2-179.2c17.066-17.066 42.666-17.066 59.733 0s17.067 42.667 0 59.734L145.067 499.2z m729.6 0L725.333 349.867c-17.066-17.067-17.066-42.667 0-59.734s42.667-17.066 59.734 0l179.2 179.2c8.533 8.534 12.8 21.334 12.8 29.867s-4.267 21.333-12.8 29.867l-179.2 179.2c-17.067 17.066-42.667 17.066-59.734 0s-17.066-42.667 0-59.734L874.667 499.2z" fill="#C7C5CF" p-id="16684"></path></svg>