<svg xmlns="http://www.w3.org/2000/svg" viewBox="0 0 100 100"><linearGradient id="a" gradientUnits="userSpaceOnUse" x1="-143.841" y1="274.903" x2="-146.257" y2="270.002" gradientTransform="matrix(82 0 0 -34.8219 11997 9504.831)"><stop offset="0" stop-color="#7e67ff"/><stop offset="1" stop-color="#6639f4"/></linearGradient><path d="M9 63.1L50 87l41-23.9-18.6-10.6c-.3-.2-.7-.3-1.1-.3H30.6c-.3 0-.7.1-1 .2L9 63.1z" fill="url(#a)"/><path d="M16.9 64.2l33 17.1L82 64.2l-9.3-6.1c-.3-.2-.8-.3-1.2-.3H30.3c-.3 0-.7.1-1 .2l-12.4 6.2z" opacity=".2" fill="none" stroke="#fff" stroke-width=".669"/><linearGradient id="b" gradientUnits="userSpaceOnUse" x1="-147.002" y1="270.317" x2="-145.095" y2="271.266" gradientTransform="matrix(82 0 0 -34.0665 11997 9306.89)"><stop offset="0" stop-color="#d8d8f4"/><stop offset="1" stop-color="#7673f0"/></linearGradient><path d="M91 63.1v8.4c0 .9-.4 1.7-1.2 2.1l-37.7 23c-1.4.8-3.1.8-4.5 0l-37.5-23c-.7-.4-1.1-1.2-1.1-2v-8.4l38.4 22.2c1.3.8 2.9.8 4.2 0L91 63.1z" fill="url(#b)"/><path d="M56.1 88.8l-4.5 2.5c-1.3.7-2.9.7-4.1 0l-5.2-2.9" opacity=".6" fill="none" stroke="#fbf8ff" stroke-width=".535"/><linearGradient id="c" gradientUnits="userSpaceOnUse" x1="-120.37" y1="245.53" x2="-122.053" y2="243.358" gradientTransform="matrix(5.6164 0 0 -5.6164 739.411 1460.741)"><stop offset="0" stop-color="#94fff6"/><stop offset="1" stop-color="#40e5c0"/></linearGradient><path opacity=".8" fill="url(#c)" d="M56.2 90.2l5.6-2.9v-2.7l-5.6 2.9z"/><linearGradient id="d" gradientUnits="userSpaceOnUse" x1="-173.072" y1="245.53" x2="-174.756" y2="243.358" gradientTransform="rotate(180 -468.267 730.37) scale(5.6164)"><stop offset="0" stop-color="#94fff6"/><stop offset="1" stop-color="#40e5c0"/></linearGradient><path fill="url(#d)" d="M42.7 90.2l-5.6-2.9v-2.7l5.6 2.9z"/><linearGradient id="e" gradientUnits="userSpaceOnUse" x1="-145.604" y1="272.627" x2="-145.604" y2="273.724" gradientTransform="matrix(78.0454 0 0 -61.0068 11413.714 16713.809)"><stop offset="0" stop-color="#4656dd"/><stop offset="1" stop-color="#fff" stop-opacity="0"/></linearGradient><path opacity=".4" fill="url(#e)" d="M49.9 81L17.6 64.3 11 20h78l-7.7 44.2z"/><linearGradient id="f" gradientUnits="userSpaceOnUse" x1="-144.741" y1="269.085" x2="-143.774" y2="269.93" gradientTransform="matrix(46.0208 0 0 -27.1686 6694.273 7359.427)"><stop offset="0" stop-color="#7ff4eb" stop-opacity="0"/><stop offset=".482" stop-color="#5decde" stop-opacity=".482"/><stop offset="1" stop-color="#37e4d0" stop-opacity="0"/></linearGradient><path d="M31.2 45.5c1.1-.3 1.8-.6 2-.7.7-.5 1.6.5 2.2 0 4.8-3.9 7.5-8.7 10-11.2.1-.1.1-.9-.1-2.2l2-2 26.8-6.1 2.8 3c.6-1.7-.1-1-2.1 2.3-.3.4-1.7.3-2 .8-1.1 1.9-3.9 5.6-6.2 11.2-.3.6-.3 1.7-.2 3l-1.9.7-30.7 6.1-2.7-2.5v-2.4z" opacity=".4" fill="url(#f)"/><linearGradient id="g" gradientUnits="userSpaceOnUse" x1="-145.215" y1="270.479" x2="-143.532" y2="268.825" gradientTransform="matrix(47.1845 0 0 -27.6633 6865.304 7496.096)"><stop offset="0" stop-color="#7ff4eb"/><stop offset="1" stop-color="#37e4d0"/></linearGradient><path d="M34.7 44.4l10.4-10.5c-.3-.5-.4-1-.4-1.6 0-1.8 1.5-3.3 3.3-3.3 1.8 0 3.3 1.5 3.3 3.3v.5l10 7.2c.6-.7 1.5-1.2 2.5-1.2.7 0 1.4.2 2 .6l5.7-10.8c-.6-.6-.9-1.4-.9-2.3 0-1.8 1.5-3.3 3.3-3.3 1.8 0 3.3 1.5 3.3 3.3 0 1.8-1.5 3.3-3.3 3.3-.2 0-.4 0-.6-.1l-6.2 11.7c.1.3.1.5.1.8 0 1.8-1.5 3.3-3.3 3.3-1.8 0-3.3-1.5-3.3-3.3l-10.4-7.4c-.6.5-1.4.9-2.2.9-.4 0-.9-.1-1.3-.3L36.3 46c.2.4.4 1 .4 1.5 0 1.8-1.5 3.3-3.3 3.3S30 49.3 30 47.4c0-1.8 1.5-3.3 3.3-3.3.5 0 1 .1 1.4.3zM33.3 49c.9 0 1.6-.7 1.6-1.6s-.7-1.6-1.6-1.6-1.6.7-1.6 1.6.7 1.6 1.6 1.6zM48 33.9c.9 0 1.6-.7 1.6-1.6 0-.9-.7-1.6-1.6-1.6s-1.6.7-1.6 1.6c0 .9.7 1.6 1.6 1.6zm15.8 9.8c.9 0 1.6-.7 1.6-1.6s-.7-1.6-1.6-1.6-1.6.7-1.6 1.6.8 1.6 1.6 1.6zM73.9 28c.9 0 1.6-.7 1.6-1.6s-.7-1.6-1.6-1.6c-.9 0-1.6.7-1.6 1.6S73 28 73.9 28z" fill="url(#g)"/><linearGradient id="h" gradientUnits="userSpaceOnUse" x1="-145.799" y1="272.095" x2="-144.116" y2="270.441" gradientTransform="matrix(53 0 0 -39 7721 10632.06)"><stop offset="0" stop-color="#7ff4eb"/><stop offset="1" stop-color="#37e4d0"/></linearGradient><path d="M27 61h50c.6 0 1 .4 1 1s-.4 1-1 1H25V25c0-.6.4-1 1-1s1 .4 1 1v36z" fill="url(#h)"/></svg>