<?xml version="1.0" encoding="UTF-8"?>
<svg width="156px" height="120px" viewBox="0 0 156 120" version="1.1" xmlns="http://www.w3.org/2000/svg" xmlns:xlink="http://www.w3.org/1999/xlink">
    <title>k8s</title>
    <defs>
        <rect id="path-1" x="304" y="82" width="1112" height="1037"></rect>
        <filter x="-0.6%" y="-0.5%" width="101.3%" height="101.4%" filterUnits="objectBoundingBox" id="filter-2">
            <feOffset dx="0" dy="2" in="SourceAlpha" result="shadowOffsetOuter1"></feOffset>
            <feGaussianBlur stdDeviation="2" in="shadowOffsetOuter1" result="shadowBlurOuter1"></feGaussianBlur>
            <feColorMatrix values="0 0 0 0 0.333333333   0 0 0 0 0.301960784   0 0 0 0 0.407843137  0 0 0 0.08 0" type="matrix" in="shadowBlurOuter1"></feColorMatrix>
        </filter>
        <rect id="path-3" x="0" y="0" width="1080" height="178" rx="2"></rect>
        <filter x="-0.6%" y="-2.8%" width="101.3%" height="107.9%" filterUnits="objectBoundingBox" id="filter-5">
            <feOffset dx="0" dy="2" in="SourceAlpha" result="shadowOffsetOuter1"></feOffset>
            <feGaussianBlur stdDeviation="2" in="shadowOffsetOuter1" result="shadowBlurOuter1"></feGaussianBlur>
            <feColorMatrix values="0 0 0 0 0.333333333   0 0 0 0 0.301960784   0 0 0 0 0.407843137  0 0 0 0.08 0" type="matrix" in="shadowBlurOuter1"></feColorMatrix>
        </filter>
    </defs>
    <g id="缺陷" stroke="none" stroke-width="1" fill="none" fill-rule="evenodd">
        <g id="集群列表" transform="translate(-1244.000000, -510.000000)">
            <rect fill="#302647" opacity="0.06" x="0" y="0" width="1440" height="1231"></rect>
            <g id="矩形">
                <use fill="black" fill-opacity="1" filter="url(#filter-2)" xlink:href="#path-1"></use>
                <use fill="#FFFFFF" fill-rule="evenodd" xlink:href="#path-1"></use>
            </g>
            <g id="编组-22备份-3" transform="translate(320.000000, 510.000000)">
                <mask id="mask-4" fill="white">
                    <use xlink:href="#path-3"></use>
                </mask>
                <g id="蒙版">
                    <use fill="black" fill-opacity="1" filter="url(#filter-5)" xlink:href="#path-3"></use>
                    <use fill="#FFFFFF" fill-rule="evenodd" xlink:href="#path-3"></use>
                </g>
                <g id="编组" mask="url(#mask-4)" opacity="0.04">
                    <g transform="translate(904.000000, -100.000000)" id="k8s">
                        <rect id="矩形" x="0" y="0" width="240" height="240"></rect>
                        <path d="M120,20 C175.228475,20 220,64.771525 220,120 C220,175.228475 175.228475,220 120,220 C64.771525,220 20,175.228475 20,120 C20,64.771525 64.771525,20 120,20 Z M175.599436,93.2194363 L125.514969,113.909034 C124.341105,114.391279 123.576464,115.522139 123.576464,116.775974 L123.576464,176.886141 C123.579175,177.931613 124.112488,178.906344 124.997152,179.482718 C125.881817,180.059091 127.000375,180.160583 127.976871,179.753081 L178.061489,159.07289 C179.235354,158.590646 179.999997,157.459785 179.999997,156.20595 L179.999997,96.0895116 C180.001353,95.0453284 179.469363,94.0706553 178.584734,93.4965738 C177.699294,92.917677 176.578909,92.813667 175.599436,93.2194363 Z M61.4182893,93.4964245 C60.5329671,94.0702302 60,95.0447583 60,96.0893623 L60,156.202665 C60,157.457847 60.7623778,158.582225 61.9416857,159.069605 L112.026304,179.749796 C113.002907,180.152178 114.118644,180.048405 115.001702,179.473058 C115.884759,178.897711 116.419063,177.926418 116.42656,176.882856 L116.42656,116.772988 C116.42656,115.519153 115.661919,114.388292 114.488054,113.906048 L114.488054,113.909184 L64.4035876,93.219287 C63.4239336,92.814687 62.3041294,92.9186431 61.4182893,93.4964245 Z M133.094525,140.998478 L164.33672,153.906127 C165.075551,154.201901 165.552466,154.916706 165.535413,155.702743 C165.534171,156.487849 165.042117,157.190926 164.298101,157.470689 L164.29795,157.470689 L133.055755,169.61382 C132.453238,169.853764 131.768804,169.779562 131.23356,169.41627 C130.692713,169.06245 130.369483,168.463421 130.374057,167.823476 L130.374057,142.772845 C130.374057,142.116585 130.693959,141.53364 131.252945,141.170644 C131.797654,140.809553 132.490691,140.744762 133.094525,140.998478 Z M108.750078,141.170494 C109.302145,141.520851 109.633796,142.125538 109.628971,142.772845 L109.628971,167.823476 L109.625738,167.823476 C109.631066,168.462823 109.3091,169.061726 108.769463,169.41627 C108.232859,169.779573 107.546963,169.85257 106.944088,169.610535 L75.7050739,157.467553 C74.9608306,157.189268 74.4675156,156.487529 74.4644305,155.702743 C74.4478913,154.915929 74.9262221,154.200898 75.6663038,153.906127 L106.908498,140.998478 C107.512587,140.746498 108.204729,140.811149 108.750078,141.170494 Z M172.320182,102.390209 C172.875988,102.753354 173.192509,103.336299 173.192509,103.992559 L173.192509,147.235565 L173.19569,147.235714 C173.19569,147.89511 172.872656,148.478055 172.31367,148.8412 C171.765439,149.203589 171.067865,149.266043 170.462397,149.006945 L131.563106,132.65882 C130.842802,132.358236 130.374257,131.662057 130.374257,130.890873 L130.374257,119.948721 C130.374257,119.171362 130.845859,118.47374 131.579311,118.174354 L170.478602,102.215057 C171.083031,101.962803 171.775801,102.028692 172.320182,102.390209 Z M69.5244221,102.215206 L108.423864,118.174503 C109.153277,118.470352 109.628918,119.171222 109.628918,119.94887 L109.628918,130.891023 L109.625738,130.891023 C109.625738,131.661811 109.160496,132.356298 108.439917,132.658969 L69.5406268,149.00366 C68.9362485,149.264646 68.2387317,149.204617 67.6893542,148.844336 C67.1341504,148.493532 66.8009562,147.885854 66.8072443,147.235714 L66.8072443,103.992708 C66.8072443,103.336448 67.1271876,102.750368 67.6796616,102.390507 C68.2247948,102.027828 68.9190707,101.961853 69.5244221,102.215206 Z M119.292367,60.2049842 L65.8833638,80.674933 C64.6846708,81.136779 63.9415266,82.2039674 63.9415266,83.4654209 C63.9415266,84.7268743 64.6846708,85.7971984 65.8833638,86.2559088 L119.26329,106.690767 C119.975486,106.961203 120.76417,106.961203 121.476366,106.690767 L175.056806,86.2559088 C176.238406,85.8248636 177.017209,84.7075254 177.002048,83.4654209 L177.002048,83.4622852 C177.016152,82.2204521 176.237672,81.1035787 175.056655,80.6717973 L121.511956,60.2049842 C120.798058,59.9316719 120.006265,59.9316719 119.292367,60.2049842 Z M116.452305,68.4490781 C117.161601,68.9260186 117.586064,69.7177021 117.586482,70.5641926 L117.586482,95.2294297 C117.583411,96.0657703 117.168901,96.8486339 116.474682,97.3292285 C115.780464,97.809823 114.892876,97.9283775 114.093992,97.6472155 L80.2669222,85.787642 C79.2341648,85.4352438 78.5389454,84.4791538 78.5315961,83.4016613 C78.5137278,82.3269612 79.1822027,81.3568202 80.2022549,80.9776042 L114.029174,68.1719406 C114.83361,67.8631077 115.740935,67.9668799 116.452305,68.4490781 Z M125.537535,67.9998743 C125.854208,67.9998743 126.174061,68.053978 126.47771,68.1719406 L160.304629,80.9776042 C161.325994,81.3557328 161.995975,82.3261239 161.978599,83.4016613 C161.97032,84.4788492 161.275453,85.4344546 160.243293,85.787642 L126.416374,97.6440798 C125.617588,97.9280204 124.728644,97.8111688 124.033206,97.3308123 C123.337768,96.8504559 122.922738,96.066621 122.920553,95.2294297 L122.920553,70.5641926 C122.920553,69.8813291 123.196772,69.2266643 123.688023,68.7453088 C124.179274,68.2639532 124.844962,67.9956695 125.537535,67.9998743 Z" id="形状结合" fill="#00C1DE"></path>
                    </g>
                </g>
            </g>
        </g>
    </g>
</svg>