<?xml version="1.0" encoding="UTF-8"?>
<svg width="90px" height="90px" viewBox="0 0 90 90" version="1.1" xmlns="http://www.w3.org/2000/svg" xmlns:xlink="http://www.w3.org/1999/xlink">
    <title>插图/fwsc</title>
    <defs>
        <linearGradient x1="154.815527%" y1="104.68106%" x2="-12.1688912%" y2="31.7020023%" id="linearGradient-1">
            <stop stop-color="#FFFFFF" offset="0%"></stop>
            <stop stop-color="#AB9BE6" offset="100%"></stop>
        </linearGradient>
        <linearGradient x1="135.308028%" y1="133.537218%" x2="-0.598471678%" y2="22.0458268%" id="linearGradient-2">
            <stop stop-color="#FFFFFF" offset="0%"></stop>
            <stop stop-color="#AB9BE6" offset="100%"></stop>
        </linearGradient>
        <linearGradient x1="154.815527%" y1="60.676812%" x2="-12.1688912%" y2="46.4272038%" id="linearGradient-3">
            <stop stop-color="#FFFFFF" offset="0%"></stop>
            <stop stop-color="#AB9BE6" offset="100%"></stop>
        </linearGradient>
        <linearGradient x1="154.815527%" y1="62.724464%" x2="-12.1688912%" y2="45.7419953%" id="linearGradient-4">
            <stop stop-color="#FFFFFF" offset="0%"></stop>
            <stop stop-color="#AB9BE6" offset="100%"></stop>
        </linearGradient>
        <linearGradient x1="42.3131135%" y1="14.782205%" x2="72.8351952%" y2="155.343306%" id="linearGradient-5">
            <stop stop-color="#00C6FB" offset="0.54%"></stop>
            <stop stop-color="#005BEA" offset="100%"></stop>
        </linearGradient>
        <linearGradient x1="68.9736195%" y1="133.537218%" x2="38.746239%" y2="22.0458268%" id="linearGradient-6">
            <stop stop-color="#FFFFFF" offset="0%"></stop>
            <stop stop-color="#AB9BE6" offset="100%"></stop>
        </linearGradient>
        <linearGradient x1="0%" y1="50%" x2="100%" y2="50%" id="linearGradient-7">
            <stop stop-color="#573E94" offset="0%"></stop>
            <stop stop-color="#896CBF" offset="100%"></stop>
        </linearGradient>
        <linearGradient x1="0%" y1="50%" x2="100%" y2="50%" id="linearGradient-8">
            <stop stop-color="#573E94" offset="0%"></stop>
            <stop stop-color="#896CBF" offset="100%"></stop>
        </linearGradient>
        <linearGradient x1="0%" y1="50%" x2="100%" y2="50%" id="linearGradient-9">
            <stop stop-color="#573E94" offset="0%"></stop>
            <stop stop-color="#896CBF" offset="100%"></stop>
        </linearGradient>
        <linearGradient x1="-0.202735791%" y1="50.0818466%" x2="100.275429%" y2="50.0818466%" id="linearGradient-10">
            <stop stop-color="#AE4AF5" offset="0%"></stop>
            <stop stop-color="#7D4AF5" offset="100%"></stop>
        </linearGradient>
        <linearGradient x1="-5.09265531%" y1="0.462954324%" x2="77.1915114%" y2="108.269294%" id="linearGradient-11">
            <stop stop-color="#FFFFFF" stop-opacity="0" offset="0%"></stop>
            <stop stop-color="#FFFFFF" stop-opacity="0.471435563" offset="17.7140739%"></stop>
            <stop stop-color="#FFFFFF" offset="77.4462185%"></stop>
            <stop stop-color="#FFFFFF" stop-opacity="0" offset="100%"></stop>
        </linearGradient>
        <linearGradient x1="50%" y1="17.0792942%" x2="77.1915114%" y2="88.7238735%" id="linearGradient-12">
            <stop stop-color="#FFFFFF" stop-opacity="0.472847465" offset="0%"></stop>
            <stop stop-color="#FFFFFF" stop-opacity="0.460898041" offset="66.0841258%"></stop>
            <stop stop-color="#FFFFFF" stop-opacity="0" offset="100%"></stop>
        </linearGradient>
        <linearGradient x1="103.767319%" y1="17.4434302%" x2="77.1915114%" y2="82.3782859%" id="linearGradient-13">
            <stop stop-color="#FFFFFF" stop-opacity="0" offset="0%"></stop>
            <stop stop-color="#FFFFFF" stop-opacity="0.460898041" offset="33.9158742%"></stop>
            <stop stop-color="#FFFFFF" stop-opacity="0.472847465" offset="100%"></stop>
        </linearGradient>
        <linearGradient x1="107.688266%" y1="45.8017959%" x2="102.086968%" y2="46.2116294%" id="linearGradient-14">
            <stop stop-color="#5F41F6" stop-opacity="0.569192526" offset="0%"></stop>
            <stop stop-color="#4D3188" offset="100%"></stop>
        </linearGradient>
        <linearGradient x1="154.815527%" y1="119.151775%" x2="-12.1688912%" y2="26.8596473%" id="linearGradient-15">
            <stop stop-color="#FFFFFF" offset="0%"></stop>
            <stop stop-color="#AB9BE6" offset="100%"></stop>
        </linearGradient>
        <linearGradient x1="157.48595%" y1="-79.2584909%" x2="0%" y2="102.043082%" id="linearGradient-16">
            <stop stop-color="#FFFFFF" offset="0%"></stop>
            <stop stop-color="#9785D7" offset="100%"></stop>
        </linearGradient>
        <linearGradient x1="0%" y1="50%" x2="196.973331%" y2="17.4134671%" id="linearGradient-17">
            <stop stop-color="#573E94" offset="0%"></stop>
            <stop stop-color="#896CBF" offset="100%"></stop>
        </linearGradient>
        <linearGradient x1="157.48595%" y1="-79.2549188%" x2="0%" y2="102.041644%" id="linearGradient-18">
            <stop stop-color="#FFFFFF" offset="0%"></stop>
            <stop stop-color="#9785D7" offset="100%"></stop>
        </linearGradient>
        <linearGradient x1="109.793218%" y1="70.6132895%" x2="-12.1688912%" y2="40.6650745%" id="linearGradient-19">
            <stop stop-color="#FFFFFF" offset="0%"></stop>
            <stop stop-color="#B3A5E1" offset="100%"></stop>
        </linearGradient>
        <linearGradient x1="0.0083259211%" y1="49.9856456%" x2="100.003457%" y2="49.9856456%" id="linearGradient-20">
            <stop stop-color="#4CBDFF" offset="0%"></stop>
            <stop stop-color="#2AF9DE" offset="100%"></stop>
        </linearGradient>
        <linearGradient x1="-318.781647%" y1="64.9875121%" x2="100.00152%" y2="50%" id="linearGradient-21">
            <stop stop-color="#80D0BB" offset="0%"></stop>
            <stop stop-color="#80FBDD" offset="58.8%"></stop>
            <stop stop-color="#7CD6D6" offset="100%"></stop>
        </linearGradient>
        <linearGradient x1="-318.781647%" y1="64.9856603%" x2="100.00152%" y2="50%" id="linearGradient-22">
            <stop stop-color="#80D0BB" offset="0%"></stop>
            <stop stop-color="#80FBDD" offset="58.8%"></stop>
            <stop stop-color="#7CD6D6" offset="100%"></stop>
        </linearGradient>
        <linearGradient x1="-269.748428%" y1="50.0020886%" x2="625.411426%" y2="50.0020886%" id="linearGradient-23">
            <stop stop-color="#005BEA" offset="0%"></stop>
            <stop stop-color="#0066EC" offset="17.1%"></stop>
            <stop stop-color="#0085F1" offset="47.58%"></stop>
            <stop stop-color="#00B6F8" offset="87.63%"></stop>
            <stop stop-color="#00C6FB" offset="99.46%"></stop>
        </linearGradient>
        <linearGradient x1="-269.748428%" y1="49.9937343%" x2="625.411426%" y2="49.9937343%" id="linearGradient-24">
            <stop stop-color="#005BEA" offset="0%"></stop>
            <stop stop-color="#0066EC" offset="17.1%"></stop>
            <stop stop-color="#0085F1" offset="47.58%"></stop>
            <stop stop-color="#00B6F8" offset="87.63%"></stop>
            <stop stop-color="#00C6FB" offset="99.46%"></stop>
        </linearGradient>
        <linearGradient x1="-269.748428%" y1="49.9958229%" x2="625.411426%" y2="49.9958229%" id="linearGradient-25">
            <stop stop-color="#005BEA" offset="0%"></stop>
            <stop stop-color="#0066EC" offset="17.1%"></stop>
            <stop stop-color="#0085F1" offset="47.58%"></stop>
            <stop stop-color="#00B6F8" offset="87.63%"></stop>
            <stop stop-color="#00C6FB" offset="99.46%"></stop>
        </linearGradient>
        <linearGradient x1="-269.748428%" y1="50.0062657%" x2="625.411426%" y2="50.0062657%" id="linearGradient-26">
            <stop stop-color="#005BEA" offset="0%"></stop>
            <stop stop-color="#0066EC" offset="17.1%"></stop>
            <stop stop-color="#0085F1" offset="47.58%"></stop>
            <stop stop-color="#00B6F8" offset="87.63%"></stop>
            <stop stop-color="#00C6FB" offset="99.46%"></stop>
        </linearGradient>
        <linearGradient x1="0%" y1="50%" x2="135.443529%" y2="50%" id="linearGradient-27">
            <stop stop-color="#3B2571" offset="0%"></stop>
            <stop stop-color="#896CBF" offset="100%"></stop>
        </linearGradient>
        <linearGradient x1="65.1708352%" y1="101.193951%" x2="13.1446186%" y2="-71.4309403%" id="linearGradient-28">
            <stop stop-color="#52E5E7" offset="0.68%"></stop>
            <stop stop-color="#130CB7" offset="100%"></stop>
        </linearGradient>
        <linearGradient x1="58.2962454%" y1="100%" x2="58.2962454%" y2="0%" id="linearGradient-29">
            <stop stop-color="#90FFF6" offset="0%"></stop>
            <stop stop-color="#54FFCA" offset="100%"></stop>
        </linearGradient>
        <polygon id="path-30" points="11.0667 19.0998 0.2859 12.8085 0.3798 0.2658 11.1606 6.5571"></polygon>
        <linearGradient x1="58.2962454%" y1="100%" x2="58.2962454%" y2="0%" id="linearGradient-32">
            <stop stop-color="#57DFD4" offset="0%"></stop>
            <stop stop-color="#54FFCA" offset="100%"></stop>
        </linearGradient>
        <linearGradient x1="60.4199979%" y1="82.732369%" x2="34.2828465%" y2="22.3520452%" id="linearGradient-33">
            <stop stop-color="#90FFF6" offset="0%"></stop>
            <stop stop-color="#27DDB5" offset="100%"></stop>
        </linearGradient>
        <linearGradient x1="51.0901966%" y1="102.625436%" x2="50%" y2="-6.5927074%" id="linearGradient-34">
            <stop stop-color="#7F5EE6" offset="0%"></stop>
            <stop stop-color="#FFFFFF" stop-opacity="0" offset="100%"></stop>
        </linearGradient>
        <linearGradient x1="0.287129551%" y1="49.9996987%" x2="100.25526%" y2="49.9996987%" id="linearGradient-35">
            <stop stop-color="#53D6CD" offset="0%"></stop>
            <stop stop-color="#78DED3" offset="100%"></stop>
        </linearGradient>
    </defs>
    <g id="插图/fwsc" stroke="none" stroke-width="1" fill="none" fill-rule="evenodd">
        <g id="编组-2" transform="translate(7.000000, 7.000000)">
            <g id="29" transform="translate(0.000000, 12.000000)">
                <path d="M73.7467822,29.5563756 L72.9697352,28.9736663 L74.0728074,25.3883013 L74.4176886,22.0787804 L72.4779602,23.7335409 L72.8368312,24.9698212 L65.109547,22.3546245 L65.109547,17.8039572 L41.2534426,3.60057139 L31.2701368,4.18784256 L31.3604628,3.60057139 L26.5111419,4.28242637 L26.1699103,7.57035418 L26.1702144,7.57035418 C26.1236828,7.88117299 26.1343273,8.21267251 26.2225244,8.56485274 C26.9119826,11.3226854 26.6361385,12.5638318 24.2919199,15.1838945 C21.9477012,17.8039572 16.1561917,19.6466688 14.9150454,20.3799214 C13.673899,21.113174 15.1908895,21.8026322 15.8803476,23.8713108 C16.5698058,25.9396854 17.9684905,32.8345713 14.4424305,35.454634 C10.9160663,38.0746967 5.1245568,39.039999 7.33100544,42.4872899 C9.53745408,45.9345807 10.630186,48.9682575 6.84318413,50.8988621 C3.05618227,52.8294666 0.998148096,55.512788 0.998148096,55.512788 L6.45937459,58.8968202 L11.896575,57.0699233 C11.896575,57.0699233 16.5704141,61.2410388 27.3262049,57.793748 C27.3262049,57.793748 33.5316326,64.4127898 36.1516954,63.8611016 C38.7717581,63.3094134 65.3856952,56.2767575 65.7993093,55.8631434 C66.2129234,55.4495293 65.7993093,52.8294666 65.7993093,52.8294666 C65.7993093,52.8294666 72.004737,50.3471739 72.6941952,44.9692785 C73.2480123,40.6497485 74.5131848,34.0182374 74.9897533,31.5748731 L75.1761838,30.6278185 L75.521065,27.3182976 C75.521065,27.3186017 74.5819177,28.4904069 73.7467822,29.5563756 Z" id="Path" fill="url(#linearGradient-1)"></path>
                <path d="M0.213193728,51.8474373 L0.213193728,55.1098184 C0.213193728,55.3278781 0.33149952,55.5289068 0.522491904,55.6347433 L6.45967872,58.8971244 L6.57311846,55.5876035 L0.213193728,51.8474373 Z" id="Path" fill="url(#linearGradient-2)"></path>
                <path d="M11.9507098,53.5192289 L11.896575,57.0702275 C11.896575,57.0702275 16.0877629,61.241343 27.3262049,57.7940521 L27.6710861,54.4845312 C27.6710861,54.4842271 17.3976422,57.862785 11.9507098,53.5192289 Z" id="Path" fill="url(#linearGradient-3)"></path>
                <path d="M36.4962724,60.5518848 L36.1513912,63.8614057 C36.1513912,63.8614057 62.7309619,57.2079974 65.7990052,55.8634476 C65.7990052,55.8634476 67.2249549,54.536233 66.8803779,51.8474373 C66.8803779,51.8474373 45.5285699,58.5522432 36.4962724,60.5518848 Z" id="Path" fill="url(#linearGradient-4)"></path>
                <path d="M14.8092088,17.5463608 C14.7304397,17.411328 14.4707144,21.1733914 14.4707144,21.1733914 C14.4707144,21.1733914 16.9043466,24.5817539 16.7373804,29.0530437 C16.7370762,29.0530437 18.3741972,23.6492974 14.8092088,17.5463608 Z" id="Path" fill="url(#linearGradient-5)"></path>
                <path d="M4.79061931,35.9302888 C4.6414893,37.1877535 4.68616631,38.2030735 4.92465034,38.9762486 C5.34504535,40.3391868 7.08848603,42.4103287 7.59760501,43.2864069 C8.22714997,44.3697108 8.82220164,45.9782486 8.82220164,46.6646255 C8.82220164,46.6646255 9.52794091,45.7566857 9.17065759,44.13942 C8.73983911,42.1892927 7.07077354,39.2333952 4.79061931,35.9302888 Z" id="Path" fill="url(#linearGradient-6)"></path>
                <path d="M41.5983237,0.291050496 L29.8772306,0.980508672 C29.8772306,0.980508672 25.8782515,2.49749914 26.5677097,5.25533184 C27.2571679,8.01316454 26.9813238,9.25431091 24.6371052,11.8743736 C22.2928865,14.4944364 14.2304532,15.1334227 12.989611,15.8666753 C11.7484646,16.6002321 11.6847019,16.9767291 12.3741601,19.0451036 C13.0636183,21.1134781 14.462303,28.008364 10.9362429,30.6284268 C7.40987877,33.2484895 3.19912243,34.5267529 5.40557107,37.9740438 C7.61201971,41.4213347 10.9753713,45.6590408 7.18836941,47.5893412 C3.92416358,49.2535296 1.01457101,51.2248873 0.273411072,51.737343 C0.187951104,51.7963438 0.194946048,51.9231652 0.284663808,51.9748669 L6.57281434,55.5872993 L11.9507098,53.5189248 C11.9507098,53.5189248 16.9149911,57.931518 27.670782,54.4842271 C27.670782,54.4842271 33.8762097,61.1032689 36.4962724,60.5515807 C39.1163351,60.0001966 66.5902927,53 66.9340934,52.1620091 C67.2778941,51.3240183 66.1438863,49.5199457 66.1438863,49.5199457 C66.1438863,49.5199457 72.349314,47.0379571 73.0387722,41.6597576 C73.7282304,36.2818621 75.5207608,27.3186017 75.5207608,27.3186017 L73.3143122,25.6638413 L74.4173844,22.0784763 L65.454124,19.0447995 L65.454124,14.4944364 L41.5983237,0.291050496 Z" id="Path" fill="url(#linearGradient-7)"></path>
                <path d="M28.1899284,55.0197965 C34.1505331,60.7793725 35.6222085,60.5178225 36.0124047,60.5844265 C36.402601,60.6510305 37.5522048,60.3186186 37.5522048,60.3186186 C37.5522048,60.3186186 55.1590871,55.6931359 59.1711437,54.6022287 C63.1832003,53.5113216 66.8803779,51.8474373 66.8803779,51.8474373 C67.3028117,51.2400937 66.1438863,49.5202499 66.1438863,49.5202499 C64.5469102,45.9148124 55.8354678,40.4408125 53.8218363,40.2942228 C51.8082048,40.1479373 43.735127,28.3134044 40.1883863,28.322317 C33.1949629,28.3401677 36.3472497,37.0391409 35.0717368,39.8736138 C33.796224,42.7083909 31.3866179,44.0547656 30.4967393,46.034943 C29.6068608,48.0151204 30.3945523,50.361772 29.8276577,51.8474373 C29.2607631,53.3331026 27.6710861,54.4842271 27.6710861,54.4842271 L28.1899284,55.0197965 Z" id="Path" fill="url(#linearGradient-8)"></path>
                <path d="M12.989611,15.8666753 C12.989611,15.8666753 19.4812232,14.8420547 25.1504732,17.5427113 C30.8197233,20.2433679 37.5071939,28.9660631 37.5071939,28.9660631 C37.5071939,28.9660631 34.8944302,30.0937697 35.3992827,35.9975025 C35.5510426,37.7717852 35.9308984,39.8997688 33.1204516,42.746711 C30.2789837,45.6252826 30.1071514,47.1033446 30.0743055,47.7937152 C30.0414597,48.4840858 30.9614469,52.5533184 27.670782,54.4839229 C27.670782,54.4839229 18.0974408,57.9868692 11.9507098,53.5186207 L6.57281434,55.5869952 L0.319942656,51.9949394 C0.319942656,51.9949394 0.075423744,51.8717676 0.347314176,51.6862495 C0.619204608,51.5007314 3.71735654,49.3943409 6.95753626,47.707647 C10.197716,46.0209531 8.4112681,42.3802502 5.40557107,37.9737396 C5.40557107,37.9737396 3.89593635,35.2230886 7.7480216,33.123693 C11.6001068,31.0242974 13.6560596,30.3863409 13.2609974,24.5209283 C12.8659351,18.6558198 13.1742167,17.7455781 12.82082,17.229777 C12.4674232,16.7139759 12.3609784,16.1306584 12.989611,15.8666753 Z" id="Path" fill="url(#linearGradient-9)"></path>
                <path d="M37.5071939,28.9663672 C37.5071939,28.9663672 45.9142042,23.6572047 50.5205268,23.5449815 C55.1268495,23.4327583 57.6070134,24.4543242 59.0954158,24.2980024 C60.5835141,24.1413765 65.4544282,19.0451036 65.4544282,19.0451036" id="Path" stroke="url(#linearGradient-10)" stroke-width="0.594" opacity="0.2"></path>
                <path d="M27.39605,54.6871984 C29.39275,53.3783518 30.3911,51.1332524 30.3911,47.9519 C30.3911,45.0261938 28.9507169,40.5861638 26.0699507,34.6318097 C25.9021378,34.2849515 25.6394209,33.753102 25.2818,33.0362613 L14.4707144,32.4 L8,32.4" id="路径-2" stroke="url(#linearGradient-11)" stroke-width="0.5"></path>
                <path d="M66.1438863,49.5202499 C64.3490476,48.4461385 62.3271057,46.3681908 60.0780607,43.2864069 C57.8290157,40.204623 54.4303622,37.884152 49.8821,36.324994" id="路径-3" stroke="url(#linearGradient-12)" stroke-width="0.5"></path>
                <path d="M65.4544282,19.0451036 C64.3900937,21.3172688 62.9106386,22.7348767 61.0160627,23.2979273 C59.1214868,23.8609778 55.4827992,26.2408849 50.1,30.4376484" id="路径-3备份" stroke="url(#linearGradient-13)" stroke-width="0.5"></path>
            </g>
            <path d="M15.7915277,50.66265 C27.8316338,57.3390126 35.3209934,61.6830837 38.2596065,63.6948632 C38.3576752,63.7620012 39.6902664,63.9214247 39.8171,63.8719611 C55.8863358,57.6051593 62.9024344,52.68525 62.1031443,50.66265 C59.9665634,48.9143833 54.0250928,45.2082333 44.2787326,39.5442 L15.7915277,50.66265 Z" id="路径" fill="url(#linearGradient-14)" opacity="0.563941592"></path>
            <g id="编组" transform="translate(8.000000, 0.000000)">
                <g id="XMLID_1574_" transform="translate(6.900000, 41.238300)" fill="url(#linearGradient-15)">
                    <path d="M23.8482,13.2387 L24.9171,22.3395 L24.9171,22.3395 C24.2571,22.7292 23.4378,22.7319 22.7754,22.3464 L1.0659,9.7104 C0.4524,9.3534 0.075,8.697 0.075,7.9872 L0.075,0.0315 L23.8482,13.2387 Z" id="XMLID_1575_"></path>
                </g>
                <g id="XMLID_1572_" transform="translate(30.600000, 41.838300)" fill="url(#linearGradient-16)">
                    <path d="M22.416,0.1452 L22.416,8.0805 C22.416,8.7858 22.0434,9.4386 21.4362,9.7974 L1.1829,21.7602 C0.7257,22.0302 0.1482,21.7008 0.1482,21.1698 L0.1482,11.976 L22.416,0.1452 Z" id="XMLID_1573_"></path>
                </g>
                <path d="M52.6851,42.645 L32.0346,54.8706 C31.1019,55.4226 29.9433,55.4253 29.0082,54.8769 L7.4265,42.2238 C6.8151,41.8653 6.8265,40.9776 7.4469,40.635 L28.4811,29.0517 C29.4312,28.527 30.591,28.5603 31.5096,29.1381 L52.7007,41.4933 C53.1279,41.7624 53.1195,42.3879 52.6851,42.645 Z" id="XMLID_1571_" fill="url(#linearGradient-17)"></path>
                <g id="XMLID_1567_" transform="translate(6.900000, 28.938300)" fill="url(#linearGradient-15)">
                    <path d="M23.8482,13.3017 L24.9171,22.4025 L24.9171,22.4025 C24.2571,22.7922 23.4378,22.7949 22.7754,22.4094 L1.0659,9.7734 C0.4524,9.4164 0.075,8.76 0.075,8.0502 L0.075,0.0945 L23.8482,13.3017 Z" id="XMLID_1568_"></path>
                </g>
                <g id="XMLID_1565_" transform="translate(30.600000, 29.538300)" fill="url(#linearGradient-18)">
                    <path d="M22.416,0.2079 L22.416,8.1432 C22.416,8.8485 22.0434,9.5013 21.4362,9.8601 L1.1829,21.8226 C0.7257,22.0926 0.1482,21.7632 0.1482,21.2322 L0.1482,12.0381 L22.416,0.2079 Z" id="XMLID_1566_"></path>
                </g>
                <path d="M52.6851,30.4077 L32.0346,42.6333 C31.1019,43.1853 29.9433,43.188 29.0082,42.6396 L7.4265,29.9865 C6.8151,29.628 6.8265,28.7403 7.4469,28.3977 L28.4811,16.8144 C29.4312,16.2897 30.591,16.323 31.5096,16.9008 L52.7007,29.256 C53.1279,29.5254 53.1195,30.1509 52.6851,30.4077 Z" id="XMLID_1564_" fill="url(#linearGradient-17)"></path>
                <path d="M49.3536,30.0294 L31.7352,40.4601 C30.9396,40.9311 29.9508,40.9332 29.1531,40.4655 L10.7403,29.6703 C10.2186,29.3646 10.2285,28.6071 10.7577,28.3149 L28.7034,18.4323 C29.514,17.9847 30.5034,18.0129 31.2873,18.5061 L49.3671,29.0472 C49.7313,29.2764 49.7241,29.8101 49.3536,30.0294 Z" id="XMLID_1561_" fill="url(#linearGradient-19)"></path>
                <path d="M24.5088,40.002 C24.5088,40.002 25.2702,40.4391 26.4123,41.0946 C26.9814,41.4255 27.6456,41.8116 28.3569,42.2256 C28.5348,42.3291 28.7157,42.4341 28.8987,42.5406 C29.0826,42.6528 29.2635,42.7512 29.4675,42.8244 C29.8677,42.9735 30.3063,43.0452 30.7383,43.0086 C31.1706,42.9786 31.5939,42.8454 31.9653,42.6333 C32.3382,42.4155 32.7051,42.2013 33.0603,41.994 C33.7701,41.5773 34.4325,41.1882 35.0001,40.8549 C36.1395,40.1946 36.8988,39.7542 36.8988,39.7542 C36.8988,39.7542 36.1476,40.2084 35.0205,40.8894 C34.455,41.2269 33.7956,41.6205 33.0888,42.0423 C32.7348,42.2523 32.3691,42.4695 31.9974,42.6903 C31.6203,42.9093 31.1874,43.05 30.7437,43.083 C30.3,43.1175 29.8518,43.0404 29.4444,42.8853 C29.241,42.8115 29.0448,42.7026 28.8681,42.5928 C28.6857,42.4851 28.5057,42.3786 28.3287,42.2739 C27.6201,41.8551 26.9589,41.4642 26.3922,41.1294 C25.2621,40.4529 24.5088,40.002 24.5088,40.002 Z" id="Path" fill="#DCCAFF"></path>
                <path d="M15.8958,39.4482 C15.8958,40.0428 15.4758,40.2822 14.9577,39.9831 C14.4396,39.684 14.0196,38.9595 14.0196,38.3649 C14.0196,37.7703 14.4396,37.5309 14.9577,37.83 C15.4758,38.1291 15.8958,38.8536 15.8958,39.4482 Z" id="Path" fill="url(#linearGradient-20)"></path>
                <path d="M19.158,41.3694 C19.158,41.964 18.738,42.2034 18.2199,41.9043 C17.7018,41.6052 17.2818,40.8807 17.2818,40.2861 C17.2818,39.6915 17.7018,39.4521 18.2199,39.7512 C18.738,40.0503 19.158,40.7748 19.158,41.3694 Z" id="Path" fill="#FFFFFF" opacity="0.637369792"></path>
                <path d="M22.3911,43.2645 C22.3911,43.8591 21.9711,44.0985 21.453,43.7994 C20.9349,43.5003 20.5149,42.7758 20.5149,42.1812 C20.5149,41.5866 20.9349,41.3472 21.453,41.6463 C21.9708,41.9454 22.3911,42.6699 22.3911,43.2645 Z" id="Path" fill="url(#linearGradient-20)"></path>
                <path d="M15.4473,51.2043 C15.4473,51.7989 15.0273,52.0383 14.5092,51.7392 C13.9911,51.4401 13.5711,50.7156 13.5711,50.121 C13.5711,49.5264 13.9911,49.287 14.5092,49.5861 C15.0273,49.8852 15.4473,50.6097 15.4473,51.2043 Z" id="Path" fill="url(#linearGradient-20)"></path>
                <path d="M18.7098,53.1255 C18.7098,53.7201 18.2898,53.9595 17.7717,53.6604 C17.2536,53.3613 16.8336,52.6368 16.8336,52.0422 C16.8336,51.4476 17.2536,51.2082 17.7717,51.5073 C18.2898,51.8064 18.7098,52.5309 18.7098,53.1255 Z" id="Path" fill="url(#linearGradient-20)"></path>
                <path d="M21.9426,55.0209 C21.9426,55.6155 21.5226,55.8549 21.0045,55.5558 C20.4864,55.2567 20.0664,54.5322 20.0664,53.9376 C20.0664,53.343 20.4864,53.1036 21.0045,53.4027 C21.5226,53.7018 21.9426,54.4263 21.9426,55.0209 Z" id="Path" fill="#FFFFFF" opacity="0.637369792"></path>
                <polygon id="Path" fill="url(#linearGradient-21)" points="46.1055 50.2221 40.1832 53.6415 40.1832 52.2051 46.1055 48.7857"></polygon>
                <polygon id="Path" fill="url(#linearGradient-22)" points="46.1055 52.9629 40.1832 56.382 40.1832 54.9456 46.1055 51.5265"></polygon>
                <polygon id="Path" fill="url(#linearGradient-23)" opacity="0.2" points="46.1055 50.2221 44.9607 49.4466 46.1055 48.7857"></polygon>
                <polygon id="Path" fill="url(#linearGradient-24)" opacity="0.2" points="46.1055 52.9629 44.9607 52.1874 46.1055 51.5265"></polygon>
                <polygon id="Path" fill="url(#linearGradient-21)" points="45.8814 38.2401 39.9591 41.6595 39.9591 40.2228 45.8814 36.8037"></polygon>
                <polygon id="Path" fill="url(#linearGradient-21)" points="45.8814 40.9806 39.9591 44.4 39.9591 42.9636 45.8814 39.5442"></polygon>
                <polygon id="Path" fill="url(#linearGradient-25)" opacity="0.2" points="45.8814 38.2401 44.7366 37.4646 45.8814 36.8037"></polygon>
                <polygon id="Path" fill="url(#linearGradient-26)" opacity="0.2" points="45.8814 40.9806 44.7366 40.2054 45.8814 39.5442"></polygon>
                <polygon id="Path" fill="url(#linearGradient-27)" points="19.533 29.8287 29.6772 24.1107 40.458 30.402 30.3135 36.12"></polygon>
                <polygon id="Path" fill="url(#linearGradient-28)" points="30.2667 25.8381 19.4859 19.5468 19.5798 7.0041 30.3606 13.2954"></polygon>
                <g id="Clipped" transform="translate(19.200000, 6.738300)">
                    <mask id="mask-31" fill="white">
                        <use xlink:href="#path-30"></use>
                    </mask>
                    <use id="SVGID_1260_" fill="url(#linearGradient-29)" opacity="0.8" xlink:href="#path-30"></use>
                </g>
                <polygon id="Path" fill="url(#linearGradient-32)" points="19.5798 7.0041 29.7243 1.2861 40.5048 7.5774 30.3606 13.2954"></polygon>
                <polygon id="Path" fill="url(#linearGradient-33)" points="30.3606 13.2954 40.5048 7.5774 40.4109 20.1201 30.2667 25.8381"></polygon>
                <path d="M49.3461,30.0207 L31.7277,40.4511 C31.7277,40.4511 30.5748,41.2944 29.1456,40.4565 L10.7328,29.6613 C10.7328,29.6613 10.3848,29.5185 10.3491,29.0241 L10.3482,0 L49.6275,0.4254 L49.6284,29.4561 C49.6284,29.4561 49.7391,29.7879 49.3461,30.0207 Z" id="Path" fill="url(#linearGradient-34)" opacity="0.4"></path>
                <path d="M53.582323,33.6801273 C54.9356735,34.4691879 56.9656991,35.6527788 59.6724,37.2309 C60.228,37.5804 60.2169,38.3946 59.652,38.7291 L32.7786,54.6387 C31.5648,55.3572 30.057,55.3605 28.8402,54.6471 L0.7551,38.181 C-0.0405,37.7145 -0.0255,36.5595 0.7818,36.1137 C3.34034222,34.704738 5.25924889,33.6480165 6.53852,32.9435355" id="路径" stroke="url(#linearGradient-35)" stroke-width="0.5"></path>
            </g>
        </g>
    </g>
</svg>