<?xml version="1.0" encoding="UTF-8"?>
<svg width="120px" height="100px" viewBox="0 0 120 100" version="1.1" xmlns="http://www.w3.org/2000/svg" xmlns:xlink="http://www.w3.org/1999/xlink">
    <title>管理中心备份 2</title>
    <defs>
        <linearGradient x1="3.16060613%" y1="36.7935305%" x2="69.8346086%" y2="57.6461016%" id="linearGradient-1">
            <stop stop-color="#A38DCD" offset="0%"></stop>
            <stop stop-color="#6A549E" offset="100%"></stop>
        </linearGradient>
        <path d="M7.37154,-0.002376 C8.52984,-0.002376 9.603792,0.509652 10.488852,1.381644 C10.595772,1.486188 10.701504,1.59786 10.803672,1.714284 C10.826244,1.741608 10.851192,1.768932 10.873764,1.796256 C12.073644,3.21354 12.837528,5.342436 12.837528,7.718436 C12.837528,11.983356 10.387872,15.447564 7.37154,15.447564 L5.691708,15.447564 C8.70804,15.447564 11.156508,11.983356 11.156508,7.718436 C11.156508,5.342436 10.393812,3.21354 9.193932,1.796256 C9.17136,1.768932 9.146412,1.741608 9.12384,1.714284 C9.021672,1.59786 8.91594,1.486188 8.807832,1.381644 C7.92396,0.509652 6.84882,-0.002376 5.691708,-0.002376 L7.37154,-0.002376 Z" id="path-2"></path>
        <filter x="-63.0%" y="-29.1%" width="225.9%" height="158.3%" filterUnits="objectBoundingBox" id="filter-3">
            <feOffset dx="0" dy="0" in="SourceAlpha" result="shadowOffsetOuter1"></feOffset>
            <feGaussianBlur stdDeviation="1.5" in="shadowOffsetOuter1" result="shadowBlurOuter1"></feGaussianBlur>
            <feColorMatrix values="0 0 0 0 0.822129875   0 0 0 0 0.849562517   0 0 0 0 0.959293089  0 0 0 1 0" type="matrix" in="shadowBlurOuter1"></feColorMatrix>
        </filter>
        <linearGradient x1="61.747084%" y1="18.2469561%" x2="-102.504264%" y2="276.632004%" id="linearGradient-4">
            <stop stop-color="#F8F7FF" offset="0%"></stop>
            <stop stop-color="#FCFCFF" offset="100%"></stop>
        </linearGradient>
        <linearGradient x1="21.8326006%" y1="0%" x2="91.878338%" y2="119.35354%" id="linearGradient-5">
            <stop stop-color="#66E4D5" offset="0%"></stop>
            <stop stop-color="#36C5AB" offset="100%"></stop>
        </linearGradient>
        <path d="M4.25554115,0 C4.95579052,0 5.60504738,0.322131488 6.14010973,0.870726644 C6.20474813,0.93649827 6.26866833,1.00675433 6.33043392,1.08 C6.3440798,1.09719031 6.35916209,1.11438062 6.37280798,1.13157093 C7.09819451,2.02322491 7.56,3.36257439 7.56,4.85738408 C7.56,7.54056747 6.07906234,9.72 4.25554115,9.72 L3.24,9.72 C5.0635212,9.72 6.54374065,7.54056747 6.54374065,4.85738408 C6.54374065,3.36257439 6.08265337,2.02322491 5.35726683,1.13157093 C5.34362095,1.11438062 5.32853865,1.09719031 5.31489277,1.08 C5.25312718,1.00675433 5.18920698,0.93649827 5.12385037,0.870726644 C4.58950623,0.322131488 3.93953117,0 3.24,0 L4.25554115,0 Z" id="path-6"></path>
        <filter x="-104.2%" y="-46.3%" width="308.3%" height="192.6%" filterUnits="objectBoundingBox" id="filter-7">
            <feOffset dx="0" dy="0" in="SourceAlpha" result="shadowOffsetOuter1"></feOffset>
            <feGaussianBlur stdDeviation="1.5" in="shadowOffsetOuter1" result="shadowBlurOuter1"></feGaussianBlur>
            <feColorMatrix values="0 0 0 0 0.822129875   0 0 0 0 0.849562517   0 0 0 0 0.959293089  0 0 0 1 0" type="matrix" in="shadowBlurOuter1"></feColorMatrix>
        </filter>
        <linearGradient x1="60.4439504%" y1="18.2469561%" x2="-12.5097776%" y2="74.984324%" id="linearGradient-8">
            <stop stop-color="#F6F5FF" offset="0%"></stop>
            <stop stop-color="#E9E8F6" offset="100%"></stop>
        </linearGradient>
        <linearGradient x1="21.8326006%" y1="0%" x2="91.878338%" y2="119.35354%" id="linearGradient-9">
            <stop stop-color="#66E4D5" offset="0%"></stop>
            <stop stop-color="#36C5AB" offset="100%"></stop>
        </linearGradient>
    </defs>
    <g id="管理中心备份-2" stroke="none" stroke-width="1" fill="none" fill-rule="evenodd">
        <g id="编组备份" transform="translate(46.000000, 11.000000)">
            <path d="M17.6116,34.1388 L17.2756,34.2491 L15.0326,34.9471 L10.8966,35.6081 L13.1416,34.8971 L13.4776,34.7848 L17.6116,34.1388 Z M27.2014,23.1422 L27.1934,23.4172 L27.193,23.418 C27.133,24.696 26.877,25.892 26.424,26.999 C25.974,28.098 25.333,29.103 24.504,30.011 C23.687,30.908 22.69,31.705 21.522,32.399 C20.375,33.081 19.068,33.661 17.611,34.138 L13.478,34.785 C14.939,34.296 16.248,33.702 17.399,33 C18.573,32.284 19.574,31.461 20.398,30.532 C21.231,29.59 21.876,28.547 22.329,27.405 C22.785,26.254 23.044,25.011 23.105,23.68 L23.1124,23.3932 L27.2014,23.1422 Z M13.4544,29.6139 L15.0324,30.5459 L10.8964,31.0449 L9.3204,30.0719 L13.4544,29.6139 Z M3.4161,9.4098 L7.5331,9.6628 L7.5331,21.8951 L7.539,22.073 C7.549,22.425 7.588,22.771 7.655,23.109 C7.724,23.447 7.821,23.779 7.948,24.105 C8.075,24.431 8.231,24.753 8.417,25.069 C8.52935032,25.2604788 8.65228149,25.450863 8.78623429,25.6397118 C8.96815678,25.4910806 9.15830103,25.364134 9.357,25.26 C9.713,25.075 10.096,24.962 10.499,24.934 L14.634,24.654 C14.231,24.681 13.848,24.791 13.492,24.97 C13.139,25.149 12.812,25.398 12.521,25.704 C12.231,26.008 11.975,26.371 11.761,26.779 C11.5906,27.1046 11.44644,27.46028 11.333128,27.839896 L11.254,28.129 C11.415,28.254 11.581,28.379 11.753,28.503 C11.926,28.627 12.103,28.751 12.286,28.875 C12.47,28.999 12.658,29.122 12.853,29.245 C13.048,29.369 13.248,29.491 13.454,29.614 L9.32,30.072 C9.114,29.944 8.913,29.816 8.719,29.687 C8.524,29.559 8.336,29.43 8.152,29.301 C7.971,29.172 7.793,29.044 7.621,28.914 C7.45,28.785 7.284,28.656 7.123,28.526 C7.245,28.019 7.416,27.55 7.629,27.129 C7.83183655,26.727136 8.07366745,26.3688007 8.34585695,26.0626296 L4.939,26.324 C4.695,26.003 4.481,25.678 4.295,25.349 C4.11,25.021 3.955,24.688 3.829,24.35 C3.703,24.013 3.606,23.67 3.538,23.319 C3.47,22.969 3.431,22.612 3.422,22.248 L3.4221,22.2481 L3.4161,22.0631 L3.4161,9.4098 Z M14.947,20.827 C14.976,20.827 15.004,20.828 15.032,20.829 C15.737,20.852 16.426,21.022 17.081,21.319 C17.744,21.62 18.374,22.051 18.952,22.591 C19.536,23.138 20.067,23.796 20.528,24.542 C20.992,25.294 21.384,26.134 21.685,27.04 L17.563,27.432 C17.261,26.49 16.868,25.616 16.402,24.834 C15.94,24.057 15.407,23.374 14.821,22.805 C14.242,22.243 13.611,21.795 12.947,21.481 C12.29,21.171 11.602,20.995 10.897,20.97 L10.812,20.967 C10.784,20.967 10.756,20.966 10.728,20.966 C10.699,20.966 10.671,20.967 10.644,20.967 L10.56,20.969 L10.56,20.969 C11.939,20.922 13.316,20.876 14.695,20.829 C14.723,20.828 14.751,20.827 14.778,20.827 L14.863,20.826 C14.891,20.826 14.919,20.826 14.947,20.827 Z M23.1124,6.1402 L27.2014,6.5672 L27.2084,6.7562 L27.2082,22.7812 L27.2012,23.1422 L23.1122,23.3932 L23.1202,23.0172 L23.1202,6.3385 L23.1124,6.1402 Z M11.192,10.055 L15.328,10.302 C15.773,10.33 16.197,10.474 16.584,10.716 C16.973,10.961 17.323,11.303 17.618,11.724 C17.914,12.148 18.154,12.649 18.32,13.207 C18.486,13.765 18.578,14.379 18.578,15.025 C18.578,15.691 18.481,16.327 18.304,16.906 C18.128,17.484 17.874,18.004 17.562,18.442 C17.25,18.877 16.881,19.23 16.473,19.476 C16.067,19.721 15.623,19.861 15.159,19.873 L11.024,19.978 C11.488,19.966 11.932,19.822 12.338,19.569 C12.747,19.313 13.116,18.948 13.428,18.496 C13.741,18.043 13.996,17.503 14.172,16.903 C14.349,16.301 14.446,15.641 14.446,14.95 C14.446,14.28 14.355,13.643 14.188,13.063 C14.022,12.485 13.781,11.964 13.484,11.526 C13.189,11.089 12.838,10.734 12.449,10.482 C12.063,10.231 11.638,10.082 11.192,10.055 Z M10.8965,4.858 L15.0325,5.29 L7.5335,9.663 L3.4165,9.41 L10.8965,4.858 Z M10.8965,0.2672 L15.0325,0.8622 L25.9875,4.6292 L26.1437,4.6985 L26.2511,4.7532 L26.255,4.754 C26.388,4.83 26.51,4.928 26.62,5.048 C26.731,5.169 26.829,5.309 26.912,5.466 C26.995,5.624 27.063,5.796 27.111,5.981 C27.161,6.167 27.191,6.363 27.201,6.567 L23.112,6.14 C23.103,5.928 23.072,5.724 23.023,5.532 C22.973,5.339 22.905,5.16 22.821,4.997 C22.738,4.834 22.639,4.687 22.527,4.563 C22.4165649,4.43863613 22.2942516,4.33703876 22.1610449,4.2591927 L22.1589,4.2588 L22.0469,4.2008 L21.8897,4.1295 L10.8965,0.2672 Z" id="形状结合" fill="#AC9AD4"></path>
            <path d="M10.8961,0.2671 L21.8901,4.1291 L22.0471,4.2011 L22.1591,4.2581 C22.2931,4.3351 22.4161,4.4381 22.5271,4.5631 C22.6391,4.6871 22.7381,4.8341 22.8211,4.9971 C22.9051,5.1601 22.9731,5.3391 23.0221,5.5321 C23.0721,5.7241 23.1021,5.9281 23.1121,6.1401 L23.1201,6.3381 L23.1201,23.0171 L23.1121,23.3931 L23.1041,23.6801 C23.0441,25.0111 22.7851,26.2541 22.3291,27.4051 C21.8761,28.5471 21.2311,29.5901 20.3971,30.5321 C19.5741,31.4601 18.5731,32.2841 17.3991,33.0001 C16.2481,33.7021 14.9381,34.2961 13.4771,34.7851 L13.1421,34.8971 L10.8961,35.6081 L8.4351,34.0111 C7.1081,33.1261 5.9751,32.2211 5.0221,31.2931 C4.0861,30.3811 3.3181,29.4411 2.7091,28.4681 C2.1061,27.5061 1.6561,26.5071 1.3511,25.4671 C1.0491,24.4321 0.8881,23.3501 0.8661,22.2161 L0.8611,21.9071 L0.8611,8.1971 L0.8661,8.0421 C0.8741,7.8581 0.8981,7.6771 0.9361,7.5051 C0.9751,7.3341 1.0281,7.1691 1.0941,7.0181 C1.1601,6.8661 1.2381,6.7271 1.3281,6.6051 C1.4181,6.4831 1.5171,6.3781 1.6281,6.2951 L1.7371,6.2181 L10.8961,0.2671 Z M9.6191,25.1391 C9.2241,25.2991 8.8571,25.5481 8.5301,25.8701 C8.2051,26.1891 7.9191,26.5801 7.6811,27.0281 C7.4441,27.4741 7.2551,27.9781 7.1231,28.5261 C7.2841,28.6561 7.4501,28.7851 7.6211,28.9141 C7.7931,29.0431 7.9711,29.1721 8.1521,29.3011 C8.3361,29.4301 8.5241,29.5591 8.7191,29.6871 C8.9131,29.8161 9.1141,29.9441 9.3201,30.0721 L10.8961,31.0441 L12.1631,30.5881 L12.5071,30.4581 L12.8651,30.3191 C12.9831,30.2711 13.1001,30.2231 13.2151,30.1741 C13.3301,30.1261 13.4431,30.0781 13.5551,30.0291 C13.6671,29.9801 13.7771,29.9301 13.8861,29.8801 C13.9951,29.8311 14.1021,29.7811 14.2091,29.7311 L14.7041,29.4801 L14.9361,29.3571 C14.7851,28.7411 14.5701,28.1621 14.3031,27.6381 C14.0371,27.1171 13.7201,26.6521 13.3641,26.2601 C13.0111,25.8711 12.6201,25.5551 12.2031,25.3291 C11.7891,25.1041 11.3501,24.9671 10.8961,24.9351 C10.4471,24.9041 10.0181,24.9771 9.6191,25.1391 Z M10.8961,4.8581 L3.4161,9.4101 L3.4161,22.0631 L3.4221,22.2481 C3.4311,22.6121 3.4701,22.9691 3.5381,23.3191 C3.6051,23.6691 3.7031,24.0131 3.8291,24.3501 C3.9551,24.6881 4.1101,25.0211 4.2951,25.3491 C4.4801,25.6781 4.6951,26.0021 4.9391,26.3241 C5.1801,25.5221 5.4981,24.7861 5.8801,24.1321 C6.2661,23.4741 6.7181,22.8981 7.2251,22.4251 C7.7351,21.9471 8.3041,21.5731 8.9151,21.3231 C9.5341,21.0711 10.1991,20.9451 10.8961,20.9701 C11.6011,20.9951 12.2901,21.1711 12.9471,21.4811 C13.6111,21.7941 14.2421,22.2431 14.8211,22.8051 C15.4071,23.3741 15.9401,24.0571 16.4021,24.8341 C16.8681,25.6161 17.2611,26.4901 17.5621,27.4321 C17.8621,27.1261 18.1301,26.8081 18.3641,26.4771 C18.6001,26.1441 18.8001,25.7971 18.9661,25.4381 C19.1311,25.0781 19.2621,24.7051 19.3541,24.3171 C19.4481,23.9291 19.5041,23.5281 19.5211,23.1131 L19.5211,22.9011 L19.5291,8.2431 L10.8961,4.8581 Z M12.2538,10.3659 C12.6768,10.5949 13.0608,10.9429 13.3848,11.3839 C13.7108,11.8279 13.9758,12.3649 14.1588,12.9679 C14.3438,13.5729 14.4468,14.2429 14.4468,14.9499 C14.4468,15.6569 14.3438,16.3319 14.1588,16.9439 C13.9758,17.5539 13.7108,18.1009 13.3848,18.5579 C13.0608,19.0109 12.6768,19.3739 12.2538,19.6199 C11.8328,19.8629 11.3748,19.9909 10.8968,19.9779 C10.4228,19.9669 9.9758,19.8159 9.5718,19.5569 C9.1698,19.3009 8.8118,18.9359 8.5118,18.4919 C8.2138,18.0489 7.9738,17.5249 7.8088,16.9469 C7.6438,16.3699 7.5528,15.7369 7.5528,15.0719 C7.5528,14.4069 7.6438,13.7709 7.8088,13.1889 C7.9738,12.6059 8.2138,12.0749 8.5118,11.6229 C8.8118,11.1689 9.1698,10.7929 9.5718,10.5219 C9.9758,10.2509 10.4228,10.0859 10.8968,10.0559 C11.3748,10.0259 11.8328,10.1369 12.2538,10.3659 Z" id="形状结合" fill="url(#linearGradient-1)"></path>
        </g>
        <g id="编组" transform="translate(26.000000, 37.000000)" stroke="#A8A0FB" stroke-linecap="square" stroke-opacity="0.2" stroke-width="0.2">
            <path d="M3.26869532,9.39689154 L33.9989,0.3452 L33.9989,0.3452 L33.9989,51.6582 L3.26869532,42.6065085 C1.56713523,42.1053079 0.3989,40.5433397 0.3989,38.7694996 L0.3989,13.2339004 C0.3989,11.4600603 1.56713523,9.89809214 3.26869532,9.39689154 Z" id="Fill-1" fill-opacity="0.1" fill="#CACAF1"></path>
            <path d="M33.9985,0.3447 L64.7325809,9.3964557 C66.434203,9.8976149 67.6025,11.4596132 67.6025,13.2335011 L67.6025,38.7679843 C67.6025,40.5418317 66.4342554,42.1038044 64.732686,42.6049988 L33.9985,51.6577 L33.9985,51.6577 L33.9985,0.3447 Z" id="Fill-3" fill-opacity="0.12" fill="#7575BF"></path>
        </g>
        <g id="编组备份-8" transform="translate(35.000000, 55.000000)">
            <g id="Clip-88">
                <use fill="black" fill-opacity="1" filter="url(#filter-3)" xlink:href="#path-2"></use>
                <use fill="#D8D5F6" fill-rule="evenodd" xlink:href="#path-2"></use>
            </g>
            <path d="M1.2098592,12.1263912 C0.5944752,10.8742392 0.2333232,9.3559752 0.2333232,7.7177232 C0.2333232,5.7218832 0.7714872,3.9018672 1.6529832,2.5309152 C1.7705952,2.3479632 1.8941472,2.1721392 2.0236392,2.0058192 C2.9930472,0.7596072 4.2808392,-0.0019008 5.6909952,-0.0019008 C6.8492952,-0.0019008 7.9232472,0.5101272 8.8083072,1.3809312 C8.9152272,1.4866632 9.0209592,1.5983352 9.1231272,1.7135712 C9.1468872,1.7420832 9.1706472,1.7682192 9.1944072,1.7967312 C10.3930992,3.2128272 11.1569832,5.3417232 11.1569832,7.7177232 C11.1569832,11.9838312 8.7085152,15.4480392 5.6909952,15.4480392 C4.0111632,15.4480392 2.5059672,14.3681472 1.5032952,12.6716832 C1.4842872,12.6384192 1.4652792,12.6039672 1.4462712,12.5707032 C1.3642992,12.4269552 1.2847032,12.2784552 1.2098592,12.1263912" id="Fill-1" fill="url(#linearGradient-4)"></path>
            <path d="M3.83914576,6.06840423 C3.821638,6.08637317 3.80527206,6.10641546 3.79042853,6.12853108 C3.7759656,6.15030115 3.76264449,6.17449011 3.75122639,6.19971575 C3.73980829,6.22494138 3.73029321,6.25154924 3.72230054,6.27953933 C3.71468847,6.30787497 3.70897942,6.33690173 3.70555399,6.36696515 L3.70365097,6.43331203 L3.70555399,6.49620333 L3.70555399,6.87424228 L3.98986467,6.86940449 L4.03972371,6.87182339 L4.08539611,6.86802226 L6.94639132,6.82137212 C6.96009304,6.82137212 6.97303355,6.82448213 6.98521286,6.83035659 C6.99701156,6.83657661 7.00766845,6.84521553 7.01680293,6.85627334 C7.02555681,6.86733115 7.03316888,6.8804623 7.03811672,6.89532124 C7.04306456,6.90983462 7.04610939,6.92573022 7.04610939,6.9426625 L7.04610939,7.55844441 C7.04610939,7.66038361 7.02898224,7.75783058 6.99853397,7.84629308 C6.96808571,7.93441002 6.92393572,8.01388804 6.86989005,8.08023491 C6.81584438,8.14658179 6.75152241,8.19979751 6.68073019,8.23608095 C6.60993798,8.2723644 6.5326755,8.29206113 6.4519876,8.2906789 L3.70555399,8.24575654 L3.70555399,8.62655994 L3.70365097,8.69290681 L3.70365097,8.72297024 L3.70555399,8.75579812 C3.70783761,8.77376706 3.71088244,8.79173601 3.71468847,8.8093594 C3.7184945,8.82698278 3.72268114,8.84426062 3.72762898,8.86119289 C3.73295743,8.87812517 3.73866648,8.89436633 3.74513674,8.91026193 C3.75160699,8.92615754 3.75883846,8.94136203 3.76683112,8.95587541 C3.77177897,8.96520544 3.77710741,8.97384435 3.78243586,8.98248327 C3.78776431,8.99077663 3.79347336,8.99906998 3.79956301,9.00701779 C3.80489146,9.01462003 3.81136171,9.02256784 3.81707076,9.02982452 C3.82354102,9.03742677 3.83039188,9.0443379 3.83686214,9.05159459 C3.84675782,9.06161573 3.85665351,9.07094576 3.8665492,9.07993024 C3.87720609,9.08822359 3.88748238,9.09651695 3.89851988,9.10342809 C3.90955737,9.11068478 3.92097547,9.11690479 3.93239357,9.12277926 C3.94419228,9.12830816 3.95675218,9.13349151 3.96893149,9.13798375 C3.97464054,9.13971153 3.98034959,9.14109376 3.98643924,9.14247599 C3.99176769,9.14351265 3.99785734,9.14489488 4.00356639,9.14593155 C4.00927544,9.14662266 4.0153651,9.14765933 4.02145475,9.14835045 C4.0275444,9.148696 4.03363406,9.14938712 4.03972371,9.14938712 C4.04619397,9.14973267 4.05266422,9.14973267 4.05837327,9.14973267 C4.06446293,9.14938712 4.07055258,9.14904156 4.07664223,9.148696 C4.08273189,9.14800489 4.08844094,9.14731378 4.09491119,9.14627711 C4.10062024,9.14558599 4.1070905,9.14420377 4.11356076,9.14282154 L7.47847477,9.26894971 C7.56296871,9.27205972 7.64403721,9.29590313 7.71787426,9.33667881 C7.79209191,9.37745449 7.8594587,9.43516245 7.91578799,9.505656 C7.97249789,9.57614955 8.01855089,9.65977426 8.05052157,9.75134676 C8.08211164,9.84326483 8.1,9.94347625 8.1,10.0481799 L8.1,10.6812396 C8.1,10.6985175 8.09733578,10.7147586 8.09162673,10.7296176 C8.08591768,10.744131 8.07830561,10.7572621 8.06840992,10.7683199 C8.05889484,10.7786866 8.04785734,10.78698 8.03491683,10.7928544 C8.02273752,10.7983833 8.00941641,10.8008022 7.99571469,10.7997656 L4.03972371,10.5229747 C4.01117846,10.5209014 3.98263321,10.5174458 3.95446856,10.5132991 C3.92592332,10.5091524 3.89737807,10.5036235 3.86959402,10.497058 C3.84180998,10.4908379 3.81402594,10.4828901 3.7866225,10.4745968 C3.75921906,10.4659579 3.73219622,10.4559367 3.70555399,10.4452245 C3.58490273,10.396501 3.47110234,10.3266985 3.36643643,10.2399638 C3.26215111,10.1532291 3.16738089,10.0495621 3.08402876,9.93207288 C3.00105723,9.81492918 2.9287426,9.68430878 2.87051029,9.54297612 C2.81265858,9.40198901 2.76774739,9.25063521 2.73844094,9.09167916 C2.73235128,9.0571235 2.72664223,9.02187672 2.72169439,8.98628439 C2.71674655,8.95069206 2.71294051,8.91475417 2.70951508,8.87881628 C2.70608965,8.84253283 2.70418664,8.80624939 2.70228362,8.76927483 C2.70076121,8.73299138 2.7,8.69636238 2.7,8.65973338 L2.7,6.46026544 C2.7,6.42259977 2.70076121,6.38597077 2.70228362,6.34899621 C2.70418664,6.31271276 2.70608965,6.27642932 2.70951508,6.24014587 C2.71294051,6.20455354 2.71674655,6.16861565 2.72169439,6.13302332 C2.72664223,6.09777654 2.73235128,6.06287532 2.73844094,6.02831966 C2.76774739,5.8686725 2.81265858,5.71662758 2.87051029,5.57529492 C2.9287426,5.43396226 3.00105723,5.30265074 3.08402876,5.18550705 C3.16738089,5.06801779 3.26215111,4.96469636 3.36643643,4.87865276 C3.47110234,4.79191805 3.58490273,4.72246116 3.70555399,4.67477435 C3.73219622,4.66406209 3.75921906,4.65404095 3.7866225,4.64574759 C3.81402594,4.63676312 3.84180998,4.62916088 3.86959402,4.6225953 C3.89737807,4.61637528 3.92592332,4.61084637 3.95446856,4.60704525 C3.98263321,4.60255302 4.01117846,4.59944301 4.03972371,4.59736967 L7.99571469,4.32023325 C8.00941641,4.31919658 8.02273752,4.32161548 8.03491683,4.32748994 C8.04785734,4.33301885 8.05889484,4.3413122 8.06840992,4.35202446 C8.07830561,4.36239116 8.08591768,4.37586787 8.09162673,4.3907268 C8.09733578,4.40524018 8.1,4.42148134 8.1,4.43875917 L8.1,5.06870891 C8.1,5.17306701 8.08211164,5.27362399 8.05052157,5.36588761 C8.01855089,5.45780567 7.97249789,5.54177593 7.91578799,5.61296059 C7.8594587,5.6837997 7.79209191,5.74185322 7.71787426,5.78297445 C7.64403721,5.82375014 7.56296871,5.8479391 7.47847477,5.85104911 L3.98986467,5.98132396 C3.97502114,5.98443397 3.96131942,5.98858065 3.94799831,5.993764 C3.93467719,5.99894735 3.92173668,6.00516737 3.90917677,6.01276961 C3.89661686,6.0200263 3.88443755,6.02866522 3.87301945,6.03799525 C3.86122075,6.04697972 3.84980265,6.05769197 3.83914576,6.06840423" id="Fill-1" fill="url(#linearGradient-5)"></path>
        </g>
        <g id="编组备份-10" transform="translate(70.000000, 11.000000)">
            <g id="Clip-88">
                <use fill="black" fill-opacity="1" filter="url(#filter-7)" xlink:href="#path-6"></use>
                <use fill="#D8D5F6" fill-rule="evenodd" xlink:href="#path-6"></use>
            </g>
            <path d="M0.0637406484,4.86 C0.0637406484,3.60435986 0.382983715,2.45933564 0.905893993,1.59683045 C0.975662345,1.4817301 1.04895435,1.37111419 1.12577001,1.26647751 C1.70083037,0.482449827 2.46475859,0.0033633218 3.30127409,0.0033633218 C3.98838665,0.0033633218 4.62546332,0.32549481 5.15048779,0.873342561 C5.21391357,0.939861592 5.27663461,1.01011765 5.33724146,1.08261592 C5.35133608,1.10055363 5.3654307,1.11699654 5.37952531,1.13493426 C6.09059872,2.02584083 6.54374065,3.36519031 6.54374065,4.86 C6.54374065,7.5439308 5.0912904,9.72336332 3.30127409,9.72336332 C2.30478469,9.72336332 1.41189073,9.04397232 0.817097908,7.9766782 C0.805822214,7.95575087 0.794546521,7.93407612 0.783270828,7.91314879 C0.7346444,7.8227128 0.687427435,7.7292872 0.643029392,7.63361938 C0.277978821,6.84585467 0.0637406484,5.89067128 0.0637406484,4.86 Z" id="Fill-1" fill="url(#linearGradient-8)"></path>
            <path d="M1.87433757,4.05490072 C1.86469562,4.0694141 1.85581487,4.08554008 1.84820281,4.10235716 C1.84059074,4.11917425 1.83424735,4.13691283 1.8289189,4.15557289 C1.82384419,4.17446331 1.82003816,4.19381449 1.81775454,4.21385677 L1.81648586,4.25808802 L1.81775454,4.30001556 L1.81775454,4.55204152 L2.007295,4.54881633 L2.04053435,4.55042892 L2.07098262,4.54789484 L3.97831276,4.51679475 C3.98744724,4.51679475 3.99607425,4.51886809 4.00419378,4.52278439 C4.01205959,4.52693107 4.01916418,4.53269035 4.02525384,4.54006223 C4.03108975,4.5474341 4.03616446,4.5561882 4.03946303,4.56609416 C4.04276159,4.57576974 4.04479147,4.58636681 4.04479147,4.597655 L4.04479147,5.00817627 C4.04479147,5.07613574 4.03337337,5.14110039 4.01307453,5.20007538 C3.99277568,5.25882001 3.96334236,5.31180536 3.92731191,5.35603661 C3.89128146,5.40026786 3.84840016,5.435745 3.80120534,5.45993397 C3.75401053,5.48412293 3.70250221,5.49725408 3.64871028,5.4963326 L1.81775454,5.46638436 L1.81775454,5.72025329 L1.81648586,5.76448454 L1.81648586,5.78452683 L1.81775454,5.80641208 C1.81927695,5.81839138 1.82130684,5.83037067 1.82384419,5.8421196 C1.82638155,5.85386852 1.82917264,5.86538708 1.8324712,5.87667526 C1.8360235,5.88796344 1.83982953,5.89879088 1.84414304,5.90938795 C1.84845654,5.91998502 1.85327752,5.93012135 1.85860596,5.93979694 C1.86190453,5.94601696 1.86545682,5.95177623 1.86900912,5.95753551 C1.87256142,5.96306442 1.87636745,5.96859332 1.88042722,5.97389186 C1.88397952,5.97896002 1.88829302,5.98425856 1.89209906,5.98909635 C1.89641256,5.99416451 1.9009798,5.99877194 1.90529331,6.00360973 C1.91189043,6.01029049 1.91848755,6.01651051 1.92508468,6.02250016 C1.93218927,6.02802906 1.93904013,6.03355797 1.94639846,6.03816539 C1.9537568,6.04300318 1.96136886,6.04714986 1.96898093,6.05106617 C1.97684673,6.05475211 1.98522,6.05820768 1.99333954,6.0612025 C1.99714557,6.06235436 2.00095161,6.06327584 2.00501138,6.06419732 C2.00856367,6.06488844 2.01262344,6.06580992 2.01642948,6.06650103 C2.02023551,6.06696178 2.02429528,6.06765289 2.02835505,6.06811363 C2.03241482,6.068344 2.03647459,6.06880475 2.04053435,6.06880475 C2.04484786,6.06903512 2.04916136,6.06903512 2.0529674,6.06903512 C2.05702716,6.06880475 2.06108693,6.06857437 2.0651467,6.068344 C2.06920647,6.06788326 2.0730125,6.06742252 2.07732601,6.06673141 C2.08113204,6.06627066 2.08544555,6.06534918 2.08975905,6.06442769 L4.33303506,6.14851314 C4.38936435,6.15058648 4.44341002,6.16648209 4.49263472,6.19366587 C4.54211315,6.22084966 4.58702435,6.25932163 4.62457721,6.30631733 C4.6623838,6.35331304 4.69308581,6.40906284 4.71439959,6.47011118 C4.73545964,6.53138988 4.74738521,6.5981975 4.74738521,6.66799994 L4.74738521,7.09003976 C4.74738521,7.10155832 4.74560906,7.11238576 4.74180303,7.12229172 C4.737997,7.1319673 4.73292229,7.1407214 4.72632516,7.14809328 C4.71998177,7.15500441 4.71262344,7.16053332 4.70399643,7.16444963 C4.6958769,7.16813556 4.68699615,7.16974816 4.67786167,7.16905705 L2.04053435,6.98452981 C2.02150419,6.98314758 2.00247402,6.98084387 1.98369759,6.97807942 C1.96466742,6.97531496 1.94563726,6.97162903 1.92711456,6.96725198 C1.90859187,6.9631053 1.89006917,6.95780676 1.87180021,6.95227786 C1.85353125,6.94651858 1.83551603,6.93983782 1.81775454,6.93269631 C1.73732037,6.90021399 1.66145344,6.85367903 1.59167616,6.79585589 C1.52215262,6.73803275 1.45897247,6.66892142 1.40340438,6.59059525 C1.34809003,6.51249945 1.29988028,6.42541918 1.26105874,6.33119741 C1.22249094,6.23720601 1.19255014,6.13630347 1.1730125,6.03033277 C1.16895274,6.00729567 1.1651467,5.98379782 1.16184814,5.96006959 C1.15854958,5.93634137 1.15601222,5.91238278 1.1537286,5.88842419 C1.15144498,5.86423522 1.1501763,5.84004626 1.14890763,5.81539655 C1.14789268,5.79120759 1.14738521,5.76678825 1.14738521,5.74236892 L1.14738521,4.27605696 C1.14738521,4.25094651 1.14789268,4.22652718 1.14890763,4.20187747 C1.1501763,4.17768851 1.15144498,4.15349955 1.1537286,4.12931058 C1.15601222,4.10558236 1.15854958,4.08162377 1.16184814,4.05789555 C1.1651467,4.03439769 1.16895274,4.01113022 1.1730125,3.98809311 C1.19255014,3.88166167 1.22249094,3.78029839 1.26105874,3.68607661 C1.29988028,3.59185484 1.34809003,3.50431383 1.40340438,3.42621803 C1.45897247,3.34789186 1.52215262,3.27901091 1.59167616,3.22164851 C1.66145344,3.16382537 1.73732037,3.11752078 1.81775454,3.08572957 C1.83551603,3.07858806 1.85353125,3.0719073 1.87180021,3.0663784 C1.89006917,3.06038875 1.90859187,3.05532058 1.92711456,3.05094353 C1.94563726,3.04679685 1.96466742,3.04311092 1.98369759,3.04057683 C2.00247402,3.03758201 2.02150419,3.03550867 2.04053435,3.03412644 L4.67786167,2.84936883 C4.68699615,2.84867772 4.6958769,2.85029032 4.70399643,2.85420663 C4.71262344,2.85789256 4.71998177,2.86342147 4.72632516,2.87056297 C4.73292229,2.87747411 4.737997,2.88645858 4.74180303,2.89636454 C4.74560906,2.90604012 4.74738521,2.91686756 4.74738521,2.92838612 L4.74738521,3.3483526 C4.74738521,3.41792467 4.73545964,3.48496266 4.71439959,3.54647174 C4.69308581,3.60775045 4.6623838,3.66373062 4.62457721,3.71118706 C4.58702435,3.75841314 4.54211315,3.79711548 4.49263472,3.82452964 C4.44341002,3.85171342 4.38936435,3.8678394 4.33303506,3.86991274 L2.007295,3.95676264 C1.99739931,3.95883598 1.98826483,3.96160043 1.97938409,3.965056 C1.97050334,3.96851156 1.96187633,3.97265824 1.95350306,3.97772641 C1.94512979,3.9825642 1.93701025,3.98832348 1.92939818,3.9945435 C1.92153238,4.00053315 1.91392031,4.00767465 1.90681572,4.01481615 C1.89514388,4.02679545 1.88423325,4.04015697 1.87433757,4.05490072 Z" id="Fill-1" fill="url(#linearGradient-9)"></path>
        </g>
    </g>
</svg>