<?xml version="1.0" encoding="utf-8"?>
<!-- Generator: Adobe Illustrator 21.1.0, SVG Export Plug-In . SVG Version: 6.00 Build 0)  -->
<svg version="1.1" id="图层_1" xmlns="http://www.w3.org/2000/svg" xmlns:xlink="http://www.w3.org/1999/xlink" x="0px" y="0px"
	 viewBox="0 0 100 100" style="enable-background:new 0 0 100 100;" xml:space="preserve">
<style type="text/css">
	.st0{fill:url(#Path_9_);}
	.st1{fill:url(#Path_10_);}
	.st2{fill:url(#Path_11_);}
	.st3{opacity:0.2;fill:none;stroke:#FFFFFF;stroke-width:0.6875;enable-background:new    ;}
	.st4{opacity:0.4;fill:url(#Path-Copy-3_1_);enable-background:new    ;}
	.st5{fill:none;}
	.st6{opacity:0.8;fill:none;stroke:#FBF8FF;stroke-width:0.55;enable-background:new    ;}
	.st7{fill:url(#Path_12_);}
	.st8{fill:url(#Path_13_);}
	.st9{fill:url(#Combined-Shape_1_);}
	.st10{opacity:0.1353;fill:url(#Path-Copy-2_1_);enable-background:new    ;}
	.st11{fill:url(#Path-Copy-4_1_);}
</style>
<title>Icon/实物类/kyy</title>
<desc>Created with Sketch.</desc>
<linearGradient id="Path_9_" gradientUnits="userSpaceOnUse" x1="-341.7491" y1="439.7986" x2="-342.9687" y2="440.0996" gradientTransform="matrix(56.9226 0 0 -32.9783 19550.582 14589.7363)">
	<stop  offset="0" style="stop-color:#FFFFFF"/>
	<stop  offset="1" style="stop-color:#AB9BE6"/>
</linearGradient>
<path id="Path" class="st0" d="M53.3,66.9c-2.1-1.2-5.7-1-8.1,0.3L33.6,74l4.6,1.6l10.9,11.2l0.3,11.7c1.5,0,3.1-0.4,4.3-1.1
	l34.6-17.5l0.6-0.3c1.3-0.7,1.7-1.5,1.7-3V65.5L53.3,66.9z"/>
<linearGradient id="Path_10_" gradientUnits="userSpaceOnUse" x1="-339.2109" y1="439.5244" x2="-340.4305" y2="440.1153" gradientTransform="matrix(40.3514 0 0 -32.7519 13742.6885 14487.8467)">
	<stop  offset="0" style="stop-color:#FFFFFF"/>
	<stop  offset="1" style="stop-color:#AB9BE6"/>
</linearGradient>
<path id="Path_1_" class="st1" d="M29.2,76.5L9.3,65.7L9,78c0.1,0.7,0.5,1.3,1.4,1.8l35.2,17.8c1,0.6,2.4,0.8,3.8,0.8l-0.3-11.7
	L29.2,76.5z"/>
<linearGradient id="Path_11_" gradientUnits="userSpaceOnUse" x1="-344.701" y1="441.3615" x2="-343.701" y2="441.3615" gradientTransform="matrix(81.1806 0 0 -38.1902 27992.3809 16923.4258)">
	<stop  offset="0" style="stop-color:#6A549E"/>
	<stop  offset="1" style="stop-color:#896CBF"/>
</linearGradient>
<path id="Path_2_" class="st2" d="M45.9,86L10.7,68.2c-2.1-1.2-1.8-3.3,0.6-4.7l34.6-13.7c2.4-1.4,6-1.5,8.1-0.3l35.2,14.1
	c2.1,1.2,1.8,3.3-0.6,4.7L54,85.7C51.6,87.1,48,87.2,45.9,86z"/>
<path id="Path_3_" class="st3" d="M46.5,81.2L18.1,67.8c-1.7-1-1.5-2.8,0.5-3.9l28-10.9c2-1.2,5.1-1.3,6.8-0.3L81,64.1
	c1.7,1,1.5,2.8-0.5,3.9L53.3,80.9C51.3,82,48.3,82.2,46.5,81.2z"/>
<linearGradient id="Path-Copy-3_1_" gradientUnits="userSpaceOnUse" x1="-343.963" y1="444.2254" x2="-343.963" y2="445.3219" gradientTransform="matrix(76.9226 0 0 -60.5564 26507.0801 26982.9414)">
	<stop  offset="0" style="stop-color:#735BA7"/>
	<stop  offset="1" style="stop-color:#FFFFFF;stop-opacity:0"/>
</linearGradient>
<path id="Path-Copy-3" class="st4" d="M47.1,81L18.1,67.6c-0.9-0.4-1.6-1.3-1.7-2.3L10.1,21l0,0H87l-5.1,45
	c-0.1,0.7-0.5,1.3-1.1,1.6L52.1,81C50.5,81.7,48.7,81.7,47.1,81z"/>
<path id="Path_4_" class="st5" d="M64.1,80.7c-2.2-1-3.7,0.4-3.7,2.4c0,0,0.5,1.4,0.7,3.5"/>
<path id="Path_5_" class="st6" d="M76.6,82.1v3.8"/>
<linearGradient id="Path_12_" gradientUnits="userSpaceOnUse" x1="-286.5901" y1="395.1709" x2="-285.5959" y2="393.7845" gradientTransform="matrix(5.6022 0 0 -6.2468 1679.786 2547.3533)">
	<stop  offset="0" style="stop-color:#33C3CA"/>
	<stop  offset="1" style="stop-color:#2BBFC5"/>
</linearGradient>
<polygon id="Path_6_" class="st7" points="73.6,85.3 79.2,82 79.2,79 73.6,82.3 "/>
<path id="Path_7_" class="st6" d="M21.2,82.1v3.8"/>
<linearGradient id="Path_13_" gradientUnits="userSpaceOnUse" x1="-411.1833" y1="395.1709" x2="-410.189" y2="393.7845" gradientTransform="matrix(-5.6022 0 0 -6.2468 -2280.0461 2547.3533)">
	<stop  offset="0" style="stop-color:#33C3CA"/>
	<stop  offset="1" style="stop-color:#2BBFC5"/>
</linearGradient>
<polygon id="Path_8_" class="st8" points="24.1,85.3 18.5,82 18.5,79 24.1,82.3 "/>
<linearGradient id="Combined-Shape_1_" gradientUnits="userSpaceOnUse" x1="-340.9994" y1="445.8671" x2="-339.7632" y2="444.4807" gradientTransform="matrix(50.5376 10.7421 10.7421 -50.5376 12472.8076 26206.0156)">
	<stop  offset="0" style="stop-color:#33C3CA"/>
	<stop  offset="1" style="stop-color:#2BBFC5"/>
</linearGradient>
<path id="Combined-Shape" class="st9" d="M69.9,27.6c1.5,0.3,2.5,1.8,2.1,3.3c-0.1,0.4-0.3,0.8-0.5,1.2c0,0,0,0,0,0.1
	c2.8,5.3,3.7,11.5,2.4,17.5c-3,14-16.7,22.9-30.6,19.9c-5-1.1-9.4-3.5-12.9-7c-0.4-0.4-0.4-1.1,0-1.5s1.1-0.4,1.5,0
	c3.2,3.2,7.3,5.5,11.8,6.4c12.8,2.7,25.4-5.4,28.1-18.2c1.2-5.5,0.3-11.1-2.2-16l0,0c-0.3,0-0.6,0-0.9,0c-1.5-0.3-2.5-1.8-2.1-3.3
	C67,28.2,68.4,27.2,69.9,27.6z M54.1,18.9c4.2,0.9,8.1,2.8,11.3,5.6c0.5,0.4,0.5,1.1,0.1,1.5c-0.4,0.5-1.1,0.5-1.5,0.1
	c-3-2.5-6.5-4.3-10.4-5.1c-12.8-2.7-25.4,5.4-28.1,18.2c-1.1,5.1-0.5,10.2,1.7,14.8l0,0.1c0.2,0,0.4,0,0.6,0.1
	c1.5,0.3,2.5,1.8,2.1,3.3s-1.8,2.5-3.3,2.1c-1.5-0.3-2.5-1.8-2.1-3.3c0.1-0.5,0.4-1,0.8-1.4c0,0,0,0,0,0c-2.3-5-3-10.7-1.8-16.2
	C26.5,24.9,40.2,16,54.1,18.9z M27.5,56c-0.6-0.1-1.1,0.2-1.2,0.8s0.2,1.1,0.8,1.2c0.6,0.1,1.1-0.2,1.2-0.8
	C28.5,56.6,28.1,56.1,27.5,56z M69.5,29.2c-0.6-0.1-1.1,0.2-1.2,0.8c-0.1,0.6,0.2,1.1,0.8,1.2c0.6,0.1,1.1-0.2,1.2-0.8
	C70.4,29.9,70.1,29.3,69.5,29.2z"/>
<linearGradient id="Path-Copy-2_1_" gradientUnits="userSpaceOnUse" x1="-336.0688" y1="439.2824" x2="-337.5513" y2="437.7918" gradientTransform="matrix(29.9667 0 0 -29.1212 10143.9004 12813.167)">
	<stop  offset="0" style="stop-color:#FFFFFF;stop-opacity:0"/>
	<stop  offset="0.5166" style="stop-color:#31C2C9"/>
	<stop  offset="1" style="stop-color:#FFFFFF;stop-opacity:0"/>
</linearGradient>
<path id="Path-Copy-2" class="st10" d="M45.1,28.5c2.9,0,5.3,2.1,5.7,4.9h5.5c2.5,0,4.5,2,4.5,4.5v5c2.1,0.8,3.7,2.9,3.7,5.3
	c0,2.4-1.5,4.5-3.7,5.4c-0.2,2.3-2.2,4-4.5,4H43.2l1-2.8c0.1-0.2,0.1-0.3,0.1-0.5c0-0.9-0.7-1.6-1.6-1.6s-1.6,0.7-1.6,1.6
	c0,0.2,0,0.4,0.1,0.5l1,2.8H39c-2.5,0-4.5-2-4.5-4.5V37.9c0-2.5,2-4.5,4.5-4.5h0.4C39.9,30.6,42.3,28.5,45.1,28.5z"/>
<linearGradient id="Path-Copy-4_1_" gradientUnits="userSpaceOnUse" x1="-337.4452" y1="438.9935" x2="-336.209" y2="437.6842" gradientTransform="matrix(29.9667 0 0 -29.1212 10143.9004 12813.167)">
	<stop  offset="0" style="stop-color:#33C3CA"/>
	<stop  offset="1" style="stop-color:#2BBFC5"/>
</linearGradient>
<path id="Path-Copy-4" class="st11" d="M46.2,55.6h10.2c1.3,0,2.4-1.1,2.4-2.4v-1.2c2,0,3.7-1.6,3.7-3.7c0-2-1.6-3.7-3.7-3.7v-6.7
	c0-1.3-1.1-2.4-2.4-2.4h-7.7c0.1-0.4,0.2-0.8,0.2-1.2c0-2-1.6-3.7-3.7-3.7c-2,0-3.7,1.6-3.7,3.7c0,0.4,0.1,0.8,0.2,1.2H39
	c-1.3,0-2.4,1.1-2.4,2.4v15.2c0,1.3,1.1,2.4,2.4,2.4h0.2c-0.1-0.4-0.2-0.8-0.2-1.2c0-2,1.6-3.7,3.7-3.7c2,0,3.7,1.6,3.7,3.7
	C46.4,54.8,46.3,55.2,46.2,55.6z M45.1,28.5c2.9,0,5.3,2.1,5.7,4.9h5.5c2.5,0,4.5,2,4.5,4.5v5c2.1,0.8,3.7,2.9,3.7,5.3
	c0,2.4-1.5,4.5-3.7,5.4c-0.2,2.3-2.2,4-4.5,4H43.2l1-2.8c0.1-0.2,0.1-0.3,0.1-0.5c0-0.9-0.7-1.6-1.6-1.6s-1.6,0.7-1.6,1.6
	c0,0.2,0,0.4,0.1,0.5l1,2.8H39c-2.5,0-4.5-2-4.5-4.5V37.9c0-2.5,2-4.5,4.5-4.5h0.4C39.9,30.6,42.3,28.5,45.1,28.5z"/>
</svg>
