<?xml version="1.0" encoding="UTF-8"?>
<svg width="120px" height="100px" viewBox="0 0 120 100" version="1.1" xmlns="http://www.w3.org/2000/svg" xmlns:xlink="http://www.w3.org/1999/xlink">
    <title>多云备份</title>
    <defs>
        <path d="M7.37154,-0.002376 C8.52984,-0.002376 9.603792,0.509652 10.488852,1.381644 C10.595772,1.486188 10.701504,1.59786 10.803672,1.714284 C10.826244,1.741608 10.851192,1.768932 10.873764,1.796256 C12.073644,3.21354 12.837528,5.342436 12.837528,7.718436 C12.837528,11.983356 10.387872,15.447564 7.37154,15.447564 L5.691708,15.447564 C8.70804,15.447564 11.156508,11.983356 11.156508,7.718436 C11.156508,5.342436 10.393812,3.21354 9.193932,1.796256 C9.17136,1.768932 9.146412,1.741608 9.12384,1.714284 C9.021672,1.59786 8.91594,1.486188 8.807832,1.381644 C7.92396,0.509652 6.84882,-0.002376 5.691708,-0.002376 L7.37154,-0.002376 Z" id="path-1"></path>
        <filter x="-63.0%" y="-29.1%" width="225.9%" height="158.3%" filterUnits="objectBoundingBox" id="filter-2">
            <feOffset dx="0" dy="0" in="SourceAlpha" result="shadowOffsetOuter1"></feOffset>
            <feGaussianBlur stdDeviation="1.5" in="shadowOffsetOuter1" result="shadowBlurOuter1"></feGaussianBlur>
            <feColorMatrix values="0 0 0 0 0.822129875   0 0 0 0 0.849562517   0 0 0 0 0.959293089  0 0 0 1 0" type="matrix" in="shadowBlurOuter1"></feColorMatrix>
        </filter>
        <linearGradient x1="61.747084%" y1="18.2469561%" x2="-102.504264%" y2="276.632004%" id="linearGradient-3">
            <stop stop-color="#F8F7FF" offset="0%"></stop>
            <stop stop-color="#FCFCFF" offset="100%"></stop>
        </linearGradient>
        <linearGradient x1="21.8326006%" y1="0%" x2="91.878338%" y2="119.35354%" id="linearGradient-4">
            <stop stop-color="#66E4D5" offset="0%"></stop>
            <stop stop-color="#36C5AB" offset="100%"></stop>
        </linearGradient>
        <linearGradient x1="6.81623383%" y1="36.7935305%" x2="68.2865966%" y2="57.6461016%" id="linearGradient-5">
            <stop stop-color="#A38DCD" offset="0%"></stop>
            <stop stop-color="#6A549E" offset="100%"></stop>
        </linearGradient>
        <linearGradient x1="-16.21423%" y1="50%" x2="100%" y2="50%" id="linearGradient-6">
            <stop stop-color="#F2F0FF" stop-opacity="0.2" offset="0%"></stop>
            <stop stop-color="#A8A0FB" stop-opacity="0.5" offset="100%"></stop>
        </linearGradient>
        <linearGradient x1="83.8496161%" y1="38.5354908%" x2="-45.2169389%" y2="74.984324%" id="linearGradient-7">
            <stop stop-color="#F9F8FF" offset="0%"></stop>
            <stop stop-color="#DCD8FF" offset="100%"></stop>
        </linearGradient>
        <path d="M4.25554115,0 C4.95579052,0 5.60504738,0.322131488 6.14010973,0.870726644 C6.20474813,0.93649827 6.26866833,1.00675433 6.33043392,1.08 C6.3440798,1.09719031 6.35916209,1.11438062 6.37280798,1.13157093 C7.09819451,2.02322491 7.56,3.36257439 7.56,4.85738408 C7.56,7.54056747 6.07906234,9.72 4.25554115,9.72 L3.24,9.72 C5.0635212,9.72 6.54374065,7.54056747 6.54374065,4.85738408 C6.54374065,3.36257439 6.08265337,2.02322491 5.35726683,1.13157093 C5.34362095,1.11438062 5.32853865,1.09719031 5.31489277,1.08 C5.25312718,1.00675433 5.18920698,0.93649827 5.12385037,0.870726644 C4.58950623,0.322131488 3.93953117,0 3.24,0 L4.25554115,0 Z" id="path-8"></path>
        <filter x="-104.2%" y="-46.3%" width="308.3%" height="192.6%" filterUnits="objectBoundingBox" id="filter-9">
            <feOffset dx="0" dy="0" in="SourceAlpha" result="shadowOffsetOuter1"></feOffset>
            <feGaussianBlur stdDeviation="1.5" in="shadowOffsetOuter1" result="shadowBlurOuter1"></feGaussianBlur>
            <feColorMatrix values="0 0 0 0 0.822129875   0 0 0 0 0.849562517   0 0 0 0 0.959293089  0 0 0 1 0" type="matrix" in="shadowBlurOuter1"></feColorMatrix>
        </filter>
        <linearGradient x1="60.4439504%" y1="18.2469561%" x2="-12.5097776%" y2="74.984324%" id="linearGradient-10">
            <stop stop-color="#F6F5FF" offset="0%"></stop>
            <stop stop-color="#E9E8F6" offset="100%"></stop>
        </linearGradient>
        <linearGradient x1="21.8326006%" y1="0%" x2="91.878338%" y2="119.35354%" id="linearGradient-11">
            <stop stop-color="#66E4D5" offset="0%"></stop>
            <stop stop-color="#36C5AB" offset="100%"></stop>
        </linearGradient>
    </defs>
    <g id="多云备份" stroke="none" stroke-width="1" fill="none" fill-rule="evenodd">
        <g id="编组-2" transform="translate(5.000000, 9.000000)">
            <path d="M109.817169,25.6906445 C109.82538,25.7186248 109.831949,25.7466051 109.839613,25.7751036 C109.846729,25.8030839 109.853297,25.8315824 109.860414,25.8600808 C109.86753,25.8885793 109.874099,25.9175959 109.88012,25.9466126 C109.886141,25.9756292 109.89271,26.0046458 109.897637,26.0336624 C109.914606,26.1170852 109.929386,26.2015444 109.941976,26.2870398 C109.954566,26.3730534 109.965514,26.4595851 109.973725,26.5476713 C109.982483,26.6357575 109.988505,26.72488 109.992884,26.8150388 C109.997263,26.9051976 110,26.9969108 110,27.0891423 L110,54.9103879 C110,54.9539128 109.999453,54.9974377 109.998358,55.0409627 C109.997263,55.0839695 109.995621,55.1269763 109.993979,55.1694649 C109.991789,55.2124717 109.989599,55.2549603 109.986862,55.2969308 C109.984125,55.3394194 109.980841,55.3813899 109.977009,55.4233604 L109.970441,55.4855389 L109.964419,55.5482355 C109.961682,55.5684435 109.959493,55.5891697 109.956756,55.6093777 C109.954019,55.6301038 109.951282,55.6503118 109.948545,55.671038 C109.906395,55.9762307 109.839065,56.2658789 109.749292,56.538946 C109.659519,56.8104588 109.547302,57.0643543 109.415379,57.2980417 C109.283457,57.5317292 109.132375,57.7441724 108.964324,57.9343349 C108.797368,58.122943 108.613442,58.2903067 108.415284,58.4317628 C108.375872,58.4602613 108.336459,58.4872053 108.295952,58.5136311 C108.254897,58.540057 108.213842,58.5654466 108.172787,58.5897998 C108.131185,58.6136349 108.089583,58.6364337 108.046886,58.6587143 C108.004189,58.6809949 107.961492,58.7022392 107.9177,58.7224472 C107.860223,58.7488731 107.801652,58.7737445 107.742533,58.7970614 C107.683414,58.8198602 107.6232,58.8411045 107.562439,58.8602762 C107.502225,58.8794479 107.440369,58.896547 107.378513,58.9120916 C107.316658,58.9271181 107.253707,58.9400719 107.190756,58.9519895 C107.159554,58.9576892 107.127805,58.9623526 107.095509,58.9670159 C107.064307,58.9721975 107.032011,58.9763427 107.000262,58.9799698 C106.967965,58.9830787 106.935669,58.9867058 106.903372,58.9892966 C106.871076,58.9918873 106.83878,58.99396 106.805936,58.9960326 C106.773092,58.997587 106.740795,58.9986233 106.707952,58.9991415 C106.675108,59 106.642264,59 106.60942,59 C106.576029,58.9991415 106.543185,58.9981052 106.509794,58.9970689 C106.476402,58.9955144 106.443559,58.9934418 106.40962,58.990851 C106.360354,58.987224 106.309994,58.9820424 106.259633,58.9763427 C106.208725,58.9701249 106.158364,58.9628707 106.108004,58.9545802 C106.057096,58.9462898 106.005641,58.936963 105.954733,58.9255636 C105.903825,58.9152005 105.852917,58.9027648 105.801461,58.889811 L89.2027275,54.6207397 C89.0445296,54.5803237 88.8907109,54.5155545 88.743461,54.4295409 C88.5967585,54.3445636 88.4566247,54.238342 88.3230597,54.1145032 C88.1905895,53.9906644 88.0652355,53.8492084 87.9480924,53.6927258 C87.8320442,53.5372796 87.7242069,53.3668069 87.6262227,53.1833804 C87.6015898,53.1377828 87.5780517,53.091149 87.5545136,53.0445151 C87.531523,52.9973631 87.5090797,52.9491748 87.4871838,52.9009864 C87.4652879,52.85228 87.443392,52.8035735 87.4231383,52.7533125 C87.4023371,52.7035697 87.3826308,52.6533088 87.3629245,52.6020115 C87.3536188,52.576622 87.344313,52.5507143 87.3350073,52.5253247 L87.3076374,52.4476016 C87.298879,52.4211758 87.2901207,52.3952681 87.2813623,52.3688422 C87.2726039,52.3424164 87.264393,52.3159905 87.256182,52.2890465 C87.2277174,52.1962969 87.2008949,52.1014747 87.1768094,52.0056162 C87.1527239,51.9092396 87.130828,51.8123448 87.1116691,51.7133773 C87.0919628,51.6149281 87.0749935,51.5144062 87.0602137,51.4138843 C87.0459814,51.3133624 87.0339386,51.2107679 87.0246329,51.1081734 C87.0229907,51.0936651 87.0218959,51.0791568 87.0208011,51.0641303 C87.0197063,51.049622 87.0186115,51.0351137 87.0169693,51.0200872 C87.0158745,51.0050608 87.0147797,50.9905524 87.0142323,50.975526 C87.0131375,50.9610177 87.0120427,50.9465093 87.0109479,50.9309647 C87.0093058,50.9019481 87.0076636,50.8718952 87.0065688,50.8423604 C87.0049266,50.8128256 87.0038318,50.7827727 87.002737,50.7532379 C87.0021896,50.7231849 87.0010948,50.693132 87.0010948,50.6630791 C87.0005474,50.6330261 87,50.6034914 87,50.5734384 L87,31.4266098 C87,30.9457629 87.0591189,30.475279 87.1669562,30.0353662 C87.2742461,29.5933808 87.4308018,29.1798939 87.6262227,28.8161497 C87.8227384,28.4492966 88.0581193,28.1316682 88.3230597,27.885545 C88.5901897,27.6363129 88.8874265,27.4596224 89.2027275,27.3782722 L105.801461,23.1102373 C105.852917,23.0967653 105.903825,23.0848477 105.954733,23.0739665 C106.005641,23.0630853 106.057096,23.0537585 106.108004,23.0449499 C106.158364,23.0366594 106.208725,23.0294052 106.259633,23.0237055 C106.309994,23.0174877 106.360354,23.0123062 106.40962,23.0086791 C106.443559,23.0060883 106.476402,23.0040157 106.509794,23.0029794 C106.543185,23.0014249 106.576029,23.0003886 106.60942,23.0003886 C106.642264,23 106.675108,23 106.707952,23.0003886 C106.740795,23.0014249 106.773092,23.0024612 106.805936,23.0034975 C106.83878,23.0055702 106.871076,23.0076428 106.903372,23.0102335 C106.935669,23.0128243 106.967965,23.0159332 107.000262,23.0195603 C107.032011,23.0237055 107.064307,23.0273326 107.095509,23.0325142 C107.127805,23.0366594 107.159554,23.0423591 107.190756,23.0475406 C107.244401,23.0573856 107.296951,23.0682668 107.348954,23.0807025 C107.400957,23.0931382 107.45296,23.1071284 107.503867,23.1221548 C107.555323,23.1376994 107.606231,23.1542804 107.657139,23.1718976 C107.707499,23.190033 107.756765,23.2092047 107.806578,23.2294127 C107.830664,23.2397758 107.854202,23.2501389 107.878287,23.260502 C107.901825,23.270865 107.925911,23.2817463 107.949449,23.2926275 C107.972987,23.3040269 107.996525,23.3154263 108.019516,23.3268257 C108.043054,23.3382251 108.066045,23.3506608 108.089035,23.3630965 C108.1175,23.3786411 108.14487,23.3941857 108.172787,23.4102485 C108.200157,23.4263112 108.228074,23.4428922 108.254897,23.4599913 C108.282267,23.4770903 108.309089,23.4947076 108.335912,23.512843 C108.362734,23.5309784 108.389557,23.5491138 108.415284,23.5677673 C108.448676,23.5916024 108.481519,23.6159556 108.513268,23.6413452 C108.546112,23.6667347 108.577314,23.6926424 108.609063,23.7190683 C108.640265,23.7460123 108.670919,23.7729563 108.702121,23.8009366 C108.732775,23.8289169 108.762334,23.8574154 108.792441,23.8869502 C108.808316,23.9024948 108.824738,23.9180394 108.840612,23.9341022 C108.855939,23.950165 108.871814,23.9662278 108.887688,23.9828087 C108.903015,23.9993896 108.918343,24.0159706 108.934217,24.0325515 C108.948997,24.0496506 108.964324,24.0662315 108.979651,24.0833306 C109.007568,24.1164924 109.031654,24.1465454 109.054097,24.1740075 C109.07654,24.2014697 109.097342,24.2268593 109.115406,24.2506943 C109.134017,24.2745294 109.150439,24.2968101 109.166861,24.3185725 C109.182736,24.3398168 109.197515,24.3610612 109.212842,24.3823055 L109.25116,24.437748 C109.26375,24.4558834 109.276341,24.4745369 109.288383,24.4937086 C109.301521,24.5123621 109.313564,24.5315338 109.325606,24.5507055 C109.337649,24.5698772 109.349692,24.5895671 109.361735,24.6087388 C109.409906,24.6890527 109.45534,24.7719573 109.498584,24.8574527 C109.541828,24.9429482 109.582883,25.0310344 109.621201,25.1211932 C109.658971,25.211352 109.694552,25.3041015 109.727396,25.3994419 C109.76024,25.4942641 109.789799,25.591677 109.817169,25.6906445" id="Fill-67备份-4" stroke-opacity="0.2" stroke="#A8A0FB" stroke-width="0.2" fill-opacity="0.08" fill="#CACAF1" stroke-linecap="square"></path>
            <path d="M99.7933218,23.989605 C99.8026037,24.0206942 99.8100293,24.0517834 99.8186924,24.0834484 C99.8267368,24.1145377 99.8341624,24.1462026 99.8422067,24.1778676 C99.8502511,24.2095326 99.8576767,24.2417733 99.8644834,24.274014 C99.8712902,24.3062547 99.8787158,24.3384954 99.8842849,24.3707361 C99.9034676,24.4634281 99.9201752,24.5572715 99.9344075,24.6522664 C99.9486398,24.7478371 99.9610158,24.8439834 99.9702977,24.941857 C99.9801985,25.0397305 99.9870053,25.1387555 99.9919556,25.238932 C99.996906,25.3391084 100,25.441012 100,25.5434914 L100,56.4559865 C100,56.5043476 99.9993812,56.5527086 99.9981436,56.6010696 C99.996906,56.648855 99.9950496,56.6966403 99.9931932,56.7438499 C99.990718,56.7916352 99.9882429,56.8388448 99.9851489,56.8854786 C99.9820549,56.9326882 99.9783421,56.9793221 99.9740105,57.025956 L99.966585,57.0950432 L99.9597782,57.1647061 C99.9566842,57.1871594 99.954209,57.2101885 99.951115,57.2326419 C99.948021,57.2556709 99.9449271,57.2781243 99.9418331,57.3011533 C99.8941857,57.6402564 99.8180736,57.9620876 99.7165909,58.2654956 C99.6151082,58.5671764 99.4882548,58.8492825 99.3391246,59.1089353 C99.1899945,59.368588 99.0192065,59.604636 98.8292358,59.8159277 C98.6405027,60.0254922 98.4325868,60.2114519 98.2085822,60.3686253 C98.1640288,60.4002903 98.1194755,60.4302281 98.0736845,60.4595902 C98.0272747,60.4889522 97.9808649,60.5171628 97.9344551,60.544222 C97.8874265,60.5707054 97.8403979,60.5960374 97.7921318,60.6207936 C97.7438656,60.6455499 97.6955994,60.6691547 97.6460956,60.691608 C97.5811219,60.7209701 97.5149106,60.748605 97.4480805,60.7745127 C97.3812504,60.7998447 97.3131828,60.8234495 97.2444963,60.8447513 C97.1764286,60.8660532 97.1065045,60.8850522 97.0365804,60.902324 C96.9666564,60.9190201 96.8954947,60.9334133 96.824333,60.946655 C96.7890616,60.952988 96.7531713,60.9581695 96.7166623,60.963351 C96.6813909,60.9691083 96.6448818,60.9737141 96.6089916,60.9777442 C96.5724826,60.9811986 96.5359735,60.9852287 96.4994645,60.9881073 C96.4629555,60.9909859 96.4264464,60.9932888 96.3893186,60.9955917 C96.3521908,60.9973189 96.3156817,60.9984704 96.2785539,60.9990461 C96.2414261,61 96.2042983,61 96.1671704,61 C96.1294238,60.9990461 96.092296,60.9978947 96.0545493,60.9967432 C96.0168027,60.995016 95.9796749,60.9927131 95.9413095,60.9898345 C95.8856177,60.9858044 95.8286884,60.9800471 95.771759,60.9737141 C95.7142109,60.9668054 95.6572816,60.9587452 95.6003522,60.9495336 C95.5428041,60.940322 95.4846372,60.9299589 95.427089,60.9172929 C95.3695409,60.9057784 95.3119928,60.8919609 95.2538258,60.8775678 L76.4900397,56.1341553 C76.3112074,56.0892486 76.1373254,56.0172827 75.9708689,55.9217121 C75.8050313,55.8272929 75.6466192,55.7092689 75.4956327,55.5716703 C75.3458838,55.4340716 75.2041793,55.2768982 75.0717567,55.1030287 C74.9405717,54.9303107 74.8186686,54.7408966 74.7079039,54.5370893 C74.6800581,54.4864254 74.6534498,54.43461 74.6268415,54.3827946 C74.600852,54.3304034 74.5754814,54.2768608 74.5507295,54.2233183 C74.5259776,54.1692 74.5012257,54.1150816 74.4783302,54.0592361 C74.4548159,54.0039664 74.4325392,53.9481209 74.4102625,53.8911239 C74.399743,53.8629133 74.3892234,53.834127 74.3787039,53.8059164 L74.347764,53.7195574 C74.3378632,53.6901953 74.3279625,53.661409 74.3180617,53.6320469 C74.308161,53.6026849 74.298879,53.5733228 74.2895971,53.543385 C74.2574196,53.4403299 74.2270986,53.3349719 74.1998715,53.2284625 C74.1726444,53.1213773 74.1478925,53.0137164 74.1262346,52.9037526 C74.1039579,52.7943645 74.0847752,52.6826735 74.0680677,52.5709826 C74.051979,52.4592916 74.0383654,52.3452977 74.0278459,52.2313038 C74.0259895,52.2151834 74.0247519,52.1990631 74.0235143,52.182367 C74.0222767,52.1662467 74.0210391,52.1501263 74.0191827,52.1334302 C74.0179451,52.1167342 74.0167075,52.1006138 74.0160887,52.0839177 C74.0148511,52.0677974 74.0136135,52.0516771 74.0123759,52.0344052 C74.0105196,52.0021646 74.0086632,51.9687724 74.0074256,51.935956 C74.0055692,51.9031396 74.0043316,51.8697474 74.003094,51.836931 C74.0024752,51.8035388 74.0012376,51.7701467 74.0012376,51.7367545 C74.0006188,51.7033624 74,51.670546 74,51.6371538 L74,30.3628998 C74,29.8286254 74.0668301,29.3058655 74.1887331,28.8170736 C74.3100174,28.3259787 74.4869934,27.8665487 74.7079039,27.4623886 C74.9300521,27.054774 75.1961349,26.7018536 75.4956327,26.4283834 C75.7976057,26.1514588 76.1336126,25.955136 76.4900397,25.8647469 L95.2538258,21.1224859 C95.3119928,21.107517 95.3695409,21.0942753 95.427089,21.082185 C95.4846372,21.0700947 95.5428041,21.0597316 95.6003522,21.0499443 C95.6572816,21.0407327 95.7142109,21.0326725 95.771759,21.0263395 C95.8286884,21.0194308 95.8856177,21.0136735 95.9413095,21.0096434 C95.9796749,21.0067648 96.0168027,21.0044619 96.0545493,21.0033104 C96.092296,21.0015832 96.1294238,21.0004318 96.1671704,21.0004318 C96.2042983,21 96.2414261,21 96.2785539,21.0004318 C96.3156817,21.0015832 96.3521908,21.0027347 96.3893186,21.0038862 C96.4264464,21.0061891 96.4629555,21.008492 96.4994645,21.0113706 C96.5359735,21.0142492 96.5724826,21.0177036 96.6089916,21.0217337 C96.6448818,21.0263395 96.6813909,21.0303696 96.7166623,21.0361269 C96.7531713,21.0407327 96.7890616,21.0470657 96.824333,21.0528229 C96.8849751,21.0637617 96.9443797,21.075852 97.0031654,21.0896694 C97.0619511,21.1034869 97.1207368,21.1190315 97.178285,21.1357276 C97.2364519,21.1529994 97.294,21.1714226 97.3515482,21.1909973 C97.4084775,21.2111478 97.4641693,21.2324497 97.5204798,21.254903 C97.5477069,21.2664175 97.5743152,21.2779321 97.6015422,21.2894466 C97.6281505,21.3009611 97.6553776,21.3130514 97.6819859,21.3251417 C97.7085941,21.3378077 97.7352024,21.3504736 97.7611919,21.3631396 C97.7878002,21.3758056 97.8137897,21.3896231 97.8397791,21.4034405 C97.8719566,21.4207123 97.9028964,21.4379841 97.9344551,21.4558316 C97.965395,21.4736792 97.9969536,21.4921024 98.0272747,21.5111014 C98.0582145,21.5301004 98.0885356,21.5496751 98.1188567,21.5698255 C98.1491777,21.589976 98.1794988,21.6101264 98.2085822,21.6308526 C98.2463289,21.657336 98.2834567,21.6843951 98.3193469,21.7126058 C98.3564748,21.7408164 98.3917462,21.7696027 98.4276364,21.7989648 C98.4629079,21.8289026 98.4975605,21.8588403 98.5328319,21.8899296 C98.5674846,21.9210188 98.6008996,21.9526838 98.6349335,21.9855002 C98.6528786,22.002772 98.6714425,22.0200438 98.6893876,22.0378914 C98.7067139,22.0557389 98.7246591,22.0735864 98.7426042,22.0920097 C98.7599305,22.1104329 98.7772568,22.1288562 98.7952019,22.1472794 C98.8119095,22.1662784 98.8292358,22.1847017 98.8465621,22.2037007 C98.8781208,22.2405472 98.9053478,22.2739393 98.9307185,22.3044528 C98.9560892,22.3349663 98.9796035,22.363177 99.0000238,22.3896604 C99.0210629,22.4161438 99.0396268,22.4409001 99.0581907,22.4650806 C99.0761358,22.4886854 99.0928434,22.5122902 99.1101697,22.535895 L99.1534855,22.5974977 C99.1677178,22.6176482 99.1819502,22.6383743 99.1955637,22.6596762 C99.2104148,22.6804024 99.2240284,22.7017043 99.2376419,22.7230062 C99.2512554,22.744308 99.264869,22.7661857 99.2784825,22.7874876 C99.3329367,22.8767252 99.3842968,22.9688415 99.4331818,23.0638364 C99.4820668,23.1588313 99.5284766,23.2567048 99.5717924,23.3568813 C99.6144894,23.4570577 99.6547112,23.5601128 99.691839,23.6660465 C99.7289668,23.7714045 99.7623819,23.8796412 99.7933218,23.989605" id="Fill-67备份" stroke-opacity="0.2" stroke="#A8A0FB" stroke-width="0.2" fill-opacity="0.1" fill="#CACAF1" stroke-linecap="square"></path>
            <path d="M85.7456268,18.0359667 C85.7570507,18.0779372 85.7661899,18.1199076 85.7768522,18.1626554 C85.786753,18.2046258 85.7958921,18.2473735 85.8057929,18.2901213 C85.8156936,18.332869 85.8248328,18.3763939 85.8332104,18.4199188 C85.8415879,18.4634438 85.8507271,18.5069687 85.8575815,18.5504937 C85.8811909,18.6756279 85.9017541,18.8023165 85.9192708,18.9305597 C85.9367875,19.05958 85.9520194,19.1893776 85.9634434,19.3215069 C85.9756289,19.4536362 85.9840065,19.5873199 85.9900992,19.7225581 C85.996192,19.8577963 86,19.9953662 86,20.1337134 L86,61.8655818 C86,61.9308692 85.9992384,61.9961566 85.9977152,62.061444 C85.996192,62.1259542 85.9939072,62.1904644 85.9916224,62.2541973 C85.9885761,62.3187075 85.9855297,62.3824405 85.9817217,62.4453962 C85.9779137,62.5091291 85.9733441,62.5720848 85.9680129,62.6350406 L85.9588738,62.7283083 L85.9504962,62.8223532 C85.9466882,62.8526653 85.9436419,62.8837545 85.9398339,62.9140665 C85.9360259,62.9451558 85.9322179,62.9754678 85.9284099,63.006557 C85.869767,63.4643461 85.7760906,63.8988183 85.6511888,64.3084191 C85.526287,64.7156882 85.3701597,65.0965314 85.1866149,65.4470626 C85.0030702,65.7975938 84.7928696,66.1162586 84.5590594,66.4015024 C84.3267725,66.6844145 84.0708761,66.9354601 83.7951781,67.1476442 C83.7403432,67.1903919 83.6855082,67.2308079 83.6291501,67.2704467 C83.5720304,67.3100855 83.5149106,67.3481698 83.4577909,67.3846997 C83.3999096,67.4204523 83.3420282,67.4546505 83.2826237,67.4880714 C83.2232192,67.5214924 83.1638146,67.5533588 83.1028869,67.5836708 C83.0229193,67.6233096 82.9414285,67.6606167 82.859176,67.6955921 C82.7769236,67.7297903 82.693148,67.7616568 82.6086108,67.7904143 C82.5248352,67.8191719 82.4387748,67.8448205 82.3527144,67.8681374 C82.266654,67.8906771 82.1790704,67.9101079 82.0914868,67.9279842 C82.0480758,67.9365338 82.0039032,67.9435288 81.958969,67.9505239 C81.915558,67.9582962 81.8706238,67.9645141 81.8264512,67.9699547 C81.781517,67.9746181 81.7365828,67.9800587 81.6916486,67.9839449 C81.6467144,67.987831 81.6017802,67.9909399 81.5560844,67.9940489 C81.5103887,67.9963805 81.4654545,67.997935 81.4197587,67.9987122 C81.3740629,68 81.3283671,68 81.2826713,68 C81.2362139,67.9987122 81.1905181,67.9971578 81.1440607,67.9956033 C81.0976034,67.9932716 81.0519076,67.9901627 81.0046886,67.9862765 C80.9361449,67.9808359 80.866078,67.9730636 80.7960111,67.9645141 C80.7251827,67.9551873 80.6551158,67.9443061 80.5850489,67.9318704 C80.5142204,67.9194347 80.4426304,67.9054445 80.3718019,67.8883454 C80.3009734,67.8728008 80.2301449,67.8541473 80.1585549,67.8347165 L57.0646643,61.4311096 C56.8445629,61.3704856 56.6305543,61.2733317 56.4256848,61.1443113 C56.221577,61.0168454 56.0266083,60.8575131 55.8407787,60.6717548 C55.6564724,60.4859966 55.4820668,60.2738125 55.3190851,60.0390887 C55.1576267,59.8059194 55.0075922,59.5502104 54.8712664,59.2750706 C54.8369945,59.2066743 54.8042459,59.1367235 54.7714973,59.0667727 C54.7395102,58.9960446 54.7082847,58.9237621 54.6778209,58.8514797 C54.647357,58.7784199 54.6168932,58.7053602 54.5887141,58.6299688 C54.5597734,58.5553546 54.532356,58.4799632 54.5049385,58.4030173 C54.4919913,58.364933 54.4790442,58.3260714 54.4660971,58.2879871 L54.4280172,58.1714025 C54.4158317,58.1317637 54.4036461,58.0929021 54.3914606,58.0532633 C54.3792751,58.0136246 54.3678511,57.9739858 54.3564272,57.9335697 C54.3168241,57.7944454 54.2795059,57.6522121 54.2459957,57.5084243 C54.2124854,57.3638594 54.1820216,57.2185172 54.1553657,57.070066 C54.1279482,56.9223921 54.1043387,56.7716093 54.0837756,56.6208265 C54.0639741,56.4700436 54.047219,56.3161519 54.0342718,56.1622601 C54.0319871,56.1404976 54.0304639,56.1187352 54.0289407,56.0961955 C54.0274175,56.074433 54.0258943,56.0526705 54.0236095,56.0301308 C54.0220863,56.0075911 54.0205631,55.9858287 54.0198015,55.963289 C54.0182783,55.9415265 54.0167551,55.919764 54.0152319,55.8964471 C54.0129471,55.8529221 54.0106624,55.8078427 54.0091392,55.7635406 C54.0068544,55.7192384 54.0053312,55.674159 54.003808,55.6298568 C54.0030464,55.5847774 54.0015232,55.539698 54.0015232,55.4946186 C54.0007616,55.4495392 54,55.405237 54,55.3601576 L54,26.6399148 C54,25.9186443 54.0822524,25.2129185 54.2322869,24.5530493 C54.3815598,23.8900712 54.5993764,23.2698408 54.8712664,22.7242246 C55.1446795,22.173945 55.472166,21.6975023 55.8407787,21.3283176 C56.2124378,20.9544694 56.6259847,20.6894336 57.0646643,20.5674083 L80.1585549,14.1653559 C80.2301449,14.1451479 80.3009734,14.1272716 80.3718019,14.1109497 C80.4426304,14.0946279 80.5142204,14.0806377 80.5850489,14.0674248 C80.6551158,14.0549891 80.7251827,14.0441079 80.7960111,14.0355583 C80.866078,14.0262315 80.9361449,14.0184592 81.0046886,14.0130186 C81.0519076,14.0091325 81.0976034,14.0060235 81.1440607,14.0044691 C81.1905181,14.0021374 81.2362139,14.0005829 81.2826713,14.0005829 C81.3283671,14 81.3740629,14 81.4197587,14.0005829 C81.4654545,14.0021374 81.5103887,14.0036918 81.5560844,14.0052463 C81.6017802,14.0083552 81.6467144,14.0114642 81.6916486,14.0153503 C81.7365828,14.0192365 81.781517,14.0238999 81.8264512,14.0293405 C81.8706238,14.0355583 81.915558,14.0409989 81.958969,14.0487713 C82.0039032,14.0549891 82.0480758,14.0635386 82.0914868,14.071311 C82.1661232,14.0860783 82.2392365,14.1024002 82.3115882,14.1210537 C82.3839398,14.1397073 82.4562915,14.1606925 82.52712,14.1832322 C82.59871,14.2065492 82.6695385,14.2314206 82.740367,14.2578464 C82.8104339,14.2850495 82.8789776,14.313807 82.9482828,14.3441191 C82.9817931,14.3596637 83.0145417,14.3752083 83.048052,14.3907529 C83.0808006,14.4062975 83.1143109,14.4226194 83.1470595,14.4389413 C83.1798082,14.4560403 83.2125568,14.4731394 83.2445439,14.4902385 C83.2772925,14.5073376 83.3092796,14.5259911 83.3412666,14.5446447 C83.3808696,14.5679616 83.4189495,14.5912785 83.4577909,14.6153727 C83.4958707,14.6394669 83.5347121,14.6643383 83.5720304,14.6899869 C83.6101102,14.7156355 83.6474284,14.7420614 83.6847467,14.7692645 C83.7220649,14.7964675 83.7593831,14.8236706 83.7951781,14.851651 C83.8416355,14.8874036 83.8873313,14.9239334 83.9315039,14.9620178 C83.9771997,15.0001021 84.0206107,15.0389636 84.0647833,15.0786024 C84.1081943,15.1190184 84.1508437,15.1594345 84.1942547,15.2014049 C84.2369041,15.2433754 84.2780303,15.2861231 84.3199181,15.3304253 C84.3420044,15.3537422 84.3648523,15.3770592 84.3869386,15.4011533 C84.4082633,15.4252475 84.4303496,15.4493417 84.4524359,15.4742131 C84.4737606,15.4990844 84.4950853,15.5239558 84.5171716,15.5488272 C84.5377347,15.5744759 84.5590594,15.5993473 84.5803841,15.6249959 C84.6192256,15.6747387 84.6527358,15.7198181 84.6839613,15.7610113 C84.7151867,15.8022046 84.7441274,15.8402889 84.7692601,15.8760415 C84.7951543,15.9117942 84.8180022,15.9452151 84.8408501,15.9778588 C84.8629364,16.0097253 84.8834995,16.0415917 84.9048242,16.0734582 L84.958136,16.1566219 C84.9756527,16.183825 84.9931694,16.2118053 85.0099246,16.2405629 C85.0282029,16.2685432 85.044958,16.2973008 85.0617131,16.3260583 C85.0784682,16.3548159 85.0952234,16.3843506 85.1119785,16.4131082 C85.178999,16.533579 85.2422115,16.657936 85.3023776,16.7861791 C85.3625437,16.9144222 85.4196635,17.0465515 85.4729752,17.1817897 C85.5255254,17.3170279 85.5750292,17.4561523 85.6207249,17.5991628 C85.6664207,17.7413961 85.7075469,17.8875156 85.7456268,18.0359667" id="Fill-67备份-2" stroke-opacity="0.2" stroke="#A8A0FB" stroke-width="0.2" fill-opacity="0.15" fill="#CACAF1" stroke-linecap="square"></path>
            <g id="编组备份-8" transform="translate(66.000000, 21.000000)">
                <g id="Clip-88">
                    <use fill="black" fill-opacity="1" filter="url(#filter-2)" xlink:href="#path-1"></use>
                    <use fill="#D8D5F6" fill-rule="evenodd" xlink:href="#path-1"></use>
                </g>
                <path d="M1.2098592,12.1263912 C0.5944752,10.8742392 0.2333232,9.3559752 0.2333232,7.7177232 C0.2333232,5.7218832 0.7714872,3.9018672 1.6529832,2.5309152 C1.7705952,2.3479632 1.8941472,2.1721392 2.0236392,2.0058192 C2.9930472,0.7596072 4.2808392,-0.0019008 5.6909952,-0.0019008 C6.8492952,-0.0019008 7.9232472,0.5101272 8.8083072,1.3809312 C8.9152272,1.4866632 9.0209592,1.5983352 9.1231272,1.7135712 C9.1468872,1.7420832 9.1706472,1.7682192 9.1944072,1.7967312 C10.3930992,3.2128272 11.1569832,5.3417232 11.1569832,7.7177232 C11.1569832,11.9838312 8.7085152,15.4480392 5.6909952,15.4480392 C4.0111632,15.4480392 2.5059672,14.3681472 1.5032952,12.6716832 C1.4842872,12.6384192 1.4652792,12.6039672 1.4462712,12.5707032 C1.3642992,12.4269552 1.2847032,12.2784552 1.2098592,12.1263912" id="Fill-1" fill="url(#linearGradient-3)"></path>
                <path d="M3.83914576,6.06840423 C3.821638,6.08637317 3.80527206,6.10641546 3.79042853,6.12853108 C3.7759656,6.15030115 3.76264449,6.17449011 3.75122639,6.19971575 C3.73980829,6.22494138 3.73029321,6.25154924 3.72230054,6.27953933 C3.71468847,6.30787497 3.70897942,6.33690173 3.70555399,6.36696515 L3.70365097,6.43331203 L3.70555399,6.49620333 L3.70555399,6.87424228 L3.98986467,6.86940449 L4.03972371,6.87182339 L4.08539611,6.86802226 L6.94639132,6.82137212 C6.96009304,6.82137212 6.97303355,6.82448213 6.98521286,6.83035659 C6.99701156,6.83657661 7.00766845,6.84521553 7.01680293,6.85627334 C7.02555681,6.86733115 7.03316888,6.8804623 7.03811672,6.89532124 C7.04306456,6.90983462 7.04610939,6.92573022 7.04610939,6.9426625 L7.04610939,7.55844441 C7.04610939,7.66038361 7.02898224,7.75783058 6.99853397,7.84629308 C6.96808571,7.93441002 6.92393572,8.01388804 6.86989005,8.08023491 C6.81584438,8.14658179 6.75152241,8.19979751 6.68073019,8.23608095 C6.60993798,8.2723644 6.5326755,8.29206113 6.4519876,8.2906789 L3.70555399,8.24575654 L3.70555399,8.62655994 L3.70365097,8.69290681 L3.70365097,8.72297024 L3.70555399,8.75579812 C3.70783761,8.77376706 3.71088244,8.79173601 3.71468847,8.8093594 C3.7184945,8.82698278 3.72268114,8.84426062 3.72762898,8.86119289 C3.73295743,8.87812517 3.73866648,8.89436633 3.74513674,8.91026193 C3.75160699,8.92615754 3.75883846,8.94136203 3.76683112,8.95587541 C3.77177897,8.96520544 3.77710741,8.97384435 3.78243586,8.98248327 C3.78776431,8.99077663 3.79347336,8.99906998 3.79956301,9.00701779 C3.80489146,9.01462003 3.81136171,9.02256784 3.81707076,9.02982452 C3.82354102,9.03742677 3.83039188,9.0443379 3.83686214,9.05159459 C3.84675782,9.06161573 3.85665351,9.07094576 3.8665492,9.07993024 C3.87720609,9.08822359 3.88748238,9.09651695 3.89851988,9.10342809 C3.90955737,9.11068478 3.92097547,9.11690479 3.93239357,9.12277926 C3.94419228,9.12830816 3.95675218,9.13349151 3.96893149,9.13798375 C3.97464054,9.13971153 3.98034959,9.14109376 3.98643924,9.14247599 C3.99176769,9.14351265 3.99785734,9.14489488 4.00356639,9.14593155 C4.00927544,9.14662266 4.0153651,9.14765933 4.02145475,9.14835045 C4.0275444,9.148696 4.03363406,9.14938712 4.03972371,9.14938712 C4.04619397,9.14973267 4.05266422,9.14973267 4.05837327,9.14973267 C4.06446293,9.14938712 4.07055258,9.14904156 4.07664223,9.148696 C4.08273189,9.14800489 4.08844094,9.14731378 4.09491119,9.14627711 C4.10062024,9.14558599 4.1070905,9.14420377 4.11356076,9.14282154 L7.47847477,9.26894971 C7.56296871,9.27205972 7.64403721,9.29590313 7.71787426,9.33667881 C7.79209191,9.37745449 7.8594587,9.43516245 7.91578799,9.505656 C7.97249789,9.57614955 8.01855089,9.65977426 8.05052157,9.75134676 C8.08211164,9.84326483 8.1,9.94347625 8.1,10.0481799 L8.1,10.6812396 C8.1,10.6985175 8.09733578,10.7147586 8.09162673,10.7296176 C8.08591768,10.744131 8.07830561,10.7572621 8.06840992,10.7683199 C8.05889484,10.7786866 8.04785734,10.78698 8.03491683,10.7928544 C8.02273752,10.7983833 8.00941641,10.8008022 7.99571469,10.7997656 L4.03972371,10.5229747 C4.01117846,10.5209014 3.98263321,10.5174458 3.95446856,10.5132991 C3.92592332,10.5091524 3.89737807,10.5036235 3.86959402,10.497058 C3.84180998,10.4908379 3.81402594,10.4828901 3.7866225,10.4745968 C3.75921906,10.4659579 3.73219622,10.4559367 3.70555399,10.4452245 C3.58490273,10.396501 3.47110234,10.3266985 3.36643643,10.2399638 C3.26215111,10.1532291 3.16738089,10.0495621 3.08402876,9.93207288 C3.00105723,9.81492918 2.9287426,9.68430878 2.87051029,9.54297612 C2.81265858,9.40198901 2.76774739,9.25063521 2.73844094,9.09167916 C2.73235128,9.0571235 2.72664223,9.02187672 2.72169439,8.98628439 C2.71674655,8.95069206 2.71294051,8.91475417 2.70951508,8.87881628 C2.70608965,8.84253283 2.70418664,8.80624939 2.70228362,8.76927483 C2.70076121,8.73299138 2.7,8.69636238 2.7,8.65973338 L2.7,6.46026544 C2.7,6.42259977 2.70076121,6.38597077 2.70228362,6.34899621 C2.70418664,6.31271276 2.70608965,6.27642932 2.70951508,6.24014587 C2.71294051,6.20455354 2.71674655,6.16861565 2.72169439,6.13302332 C2.72664223,6.09777654 2.73235128,6.06287532 2.73844094,6.02831966 C2.76774739,5.8686725 2.81265858,5.71662758 2.87051029,5.57529492 C2.9287426,5.43396226 3.00105723,5.30265074 3.08402876,5.18550705 C3.16738089,5.06801779 3.26215111,4.96469636 3.36643643,4.87865276 C3.47110234,4.79191805 3.58490273,4.72246116 3.70555399,4.67477435 C3.73219622,4.66406209 3.75921906,4.65404095 3.7866225,4.64574759 C3.81402594,4.63676312 3.84180998,4.62916088 3.86959402,4.6225953 C3.89737807,4.61637528 3.92592332,4.61084637 3.95446856,4.60704525 C3.98263321,4.60255302 4.01117846,4.59944301 4.03972371,4.59736967 L7.99571469,4.32023325 C8.00941641,4.31919658 8.02273752,4.32161548 8.03491683,4.32748994 C8.04785734,4.33301885 8.05889484,4.3413122 8.06840992,4.35202446 C8.07830561,4.36239116 8.08591768,4.37586787 8.09162673,4.3907268 C8.09733578,4.40524018 8.1,4.42148134 8.1,4.43875917 L8.1,5.06870891 C8.1,5.17306701 8.08211164,5.27362399 8.05052157,5.36588761 C8.01855089,5.45780567 7.97249789,5.54177593 7.91578799,5.61296059 C7.8594587,5.6837997 7.79209191,5.74185322 7.71787426,5.78297445 C7.64403721,5.82375014 7.56296871,5.8479391 7.47847477,5.85104911 L3.98986467,5.98132396 C3.97502114,5.98443397 3.96131942,5.98858065 3.94799831,5.993764 C3.93467719,5.99894735 3.92173668,6.00516737 3.90917677,6.01276961 C3.89661686,6.0200263 3.88443755,6.02866522 3.87301945,6.03799525 C3.86122075,6.04697972 3.84980265,6.05769197 3.83914576,6.06840423" id="Fill-1" fill="url(#linearGradient-4)"></path>
            </g>
            <path d="M70.7280387,13.9333581 C70.7401052,13.983101 70.7512435,14.0337651 70.7633101,14.0844292 C70.7753766,14.1350932 70.786515,14.1866785 70.7967251,14.2382638 C70.8069353,14.289849 70.8180736,14.3414343 70.8264274,14.3930195 C70.8552015,14.5413271 70.8802628,14.6914771 70.9016113,14.8434693 C70.9229598,14.9963828 70.9415237,15.1502174 70.9554466,15.3068154 C70.9702977,15.4634135 70.9805079,15.621854 70.9879335,15.7821367 C70.995359,15.9424195 71,16.1054657 71,16.2694331 L71,65.7295588 C71,65.8069367 70.9990718,65.8843146 70.9972154,65.9616924 C70.995359,66.0381491 70.9925744,66.1146059 70.9897898,66.1901414 C70.9860771,66.2665981 70.9823643,66.3421337 70.9777233,66.4167481 C70.9730823,66.4922836 70.9675131,66.566898 70.9610158,66.6415124 L70.9498774,66.7520522 L70.9396673,66.8635132 C70.9350263,66.8994387 70.9313135,66.9362853 70.9266725,66.9722107 C70.9220316,67.0090573 70.9173906,67.0449828 70.9127496,67.0818294 C70.8412785,67.6243957 70.7271105,68.1393271 70.5748864,68.6247812 C70.4226623,69.1074718 70.2323821,69.5588427 70.008687,69.9742883 C69.7849918,70.3897338 69.5288098,70.7674115 69.2438537,71.1054792 C68.960754,71.4407833 68.6488802,71.7383197 68.3128734,71.9897978 C68.2460433,72.0404619 68.1792132,72.0883625 68.1105267,72.1353419 C68.040912,72.1823214 67.9712973,72.2274585 67.9016827,72.2707532 C67.8311398,72.3131268 67.7605969,72.3536581 67.6881976,72.3932682 C67.6157984,72.4328783 67.5433991,72.4706461 67.4691434,72.5065715 C67.3716829,72.5535509 67.2723659,72.5977669 67.1721208,72.6392193 C67.0718757,72.6797506 66.9697741,72.7175184 66.8667444,72.7516015 C66.7646429,72.7856846 66.6597568,72.816083 66.5548706,72.843718 C66.4499845,72.8704318 66.343242,72.8934609 66.2364995,72.9146477 C66.1835924,72.9247805 66.129757,72.933071 66.0749935,72.9413615 C66.0220863,72.9505732 65.9673228,72.9579425 65.9134874,72.9643906 C65.8587238,72.9699176 65.8039603,72.9763658 65.7491968,72.9809716 C65.6944332,72.9855774 65.6396697,72.9892621 65.5839779,72.9929468 C65.5282862,72.9957103 65.4735226,72.9975526 65.4178309,72.9984738 C65.3621391,73 65.3064474,73 65.2507556,73 C65.1941357,72.9984738 65.138444,72.9966314 65.081824,72.9947891 C65.0252041,72.9920256 64.9695123,72.9883409 64.9119642,72.9837351 C64.8284266,72.977287 64.7430326,72.9680753 64.6576386,72.9579425 C64.5713164,72.9468885 64.4859224,72.9339922 64.4005284,72.9192536 C64.3142062,72.9045149 64.2269558,72.8879339 64.1406336,72.8676683 C64.0543114,72.849245 63.9679891,72.827137 63.8807387,72.8041079 L35.7350596,65.2146274 C35.4668111,65.1427765 35.2059881,65.0276309 34.9563034,64.8747174 C34.7075469,64.7236463 34.4699288,64.5348075 34.2434491,64.314649 C34.0188257,64.0944905 33.8062689,63.8430124 33.607635,63.5648205 C33.4108575,63.2884709 33.228003,62.9854075 33.0618559,62.659315 C33.0200871,62.5782525 32.9801747,62.4953476 32.9402623,62.4124427 C32.9012781,62.3286167 32.863222,62.2429483 32.8260942,62.15728 C32.7889664,62.0706904 32.7518385,61.9841009 32.7174953,61.8947479 C32.6822239,61.806316 32.6488088,61.716963 32.6153938,61.6257676 C32.5996144,61.5806305 32.5838351,61.5345723 32.5680558,61.4894352 L32.521646,61.3512604 C32.5067949,61.3042809 32.4919437,61.2582227 32.4770926,61.2112432 C32.4622415,61.1642638 32.4483185,61.1172844 32.4343956,61.0693838 C32.3861294,60.9044952 32.3406478,60.735922 32.2998072,60.5655064 C32.2589666,60.3941697 32.2218388,60.2219118 32.1893519,60.0459692 C32.1559369,59.8709478 32.1271628,59.6922418 32.1021015,59.5135357 C32.0779684,59.3348296 32.0575481,59.1524389 32.0417688,58.9700482 C32.0389842,58.9442556 32.0371278,58.9184629 32.0352714,58.8917492 C32.033415,58.8659565 32.0315587,58.8401639 32.0287741,58.8134501 C32.0269177,58.7867363 32.0250613,58.7609437 32.0241331,58.7342299 C32.0222767,58.7084373 32.0204203,58.6826446 32.0185639,58.6550097 C32.0157793,58.6034244 32.0129947,58.5499968 32.0111383,58.4974904 C32.0083538,58.444984 32.0064974,58.3915564 32.004641,58.33905 C32.0037128,58.2856224 32.0018564,58.2321948 32.0018564,58.1787673 C32.0009282,58.1253397 32,58.0728332 32,58.0194057 L32,23.9805074 C32,23.1256661 32.1002451,22.289248 32.2830997,21.5071787 C32.4650261,20.7214248 32.73049,19.9863349 33.0618559,19.3396769 C33.3950782,18.6874919 33.7942023,18.1228176 34.2434491,17.6852641 C34.6964086,17.2421836 35.2004189,16.9280663 35.7350596,16.7834433 L63.8807387,9.19580519 C63.9679891,9.17185489 64.0543114,9.15066809 64.1406336,9.13132362 C64.2269558,9.11197915 64.3142062,9.09539818 64.4005284,9.07973837 C64.4859224,9.06499972 64.5713164,9.05210341 64.6576386,9.04197059 C64.7430326,9.03091661 64.8284266,9.02170496 64.9119642,9.0152568 C64.9695123,9.01065097 65.0252041,9.00696631 65.081824,9.00512398 C65.138444,9.00236049 65.1941357,9 65.2507556,9 C65.3064474,9 65.3621391,9 65.4178309,9 C65.4735226,9.00236049 65.5282862,9.00420282 65.5839779,9.00604515 C65.6396697,9.00972981 65.6944332,9.01341447 65.7491968,9.0180203 C65.8039603,9.02262612 65.8587238,9.02815311 65.9134874,9.03460127 C65.9673228,9.04197059 66.0220863,9.04841875 66.0749935,9.0576304 C66.129757,9.06499972 66.1835924,9.07513254 66.2364995,9.08434419 C66.3274627,9.10184633 66.4165695,9.1211908 66.5047481,9.14329877 C66.5929267,9.16540673 66.6811053,9.1902782 66.7674275,9.21699199 C66.8546779,9.24462695 66.9410001,9.27410423 67.0273223,9.30542385 C67.1127163,9.33766464 67.1962539,9.37174775 67.2807197,9.4076732 C67.3215603,9.4260965 67.3614727,9.44451981 67.4023133,9.46294311 C67.4422258,9.48136641 67.4830664,9.50071089 67.5229788,9.52005536 C67.5628912,9.54032099 67.6028036,9.56058663 67.6417878,9.58085226 C67.6817003,9.6011179 67.7206845,9.62322586 67.7596687,9.64533383 C67.8079349,9.67296879 67.8543447,9.70060374 67.9016827,9.72915987 C67.9480924,9.75771599 67.9954304,9.78719328 68.040912,9.81759173 C68.0873218,9.84799018 68.1328034,9.8793098 68.178285,9.91155059 C68.2237666,9.94379137 68.2692482,9.97603215 68.3128734,10.0091941 C68.3694933,10.0515677 68.425185,10.0948625 68.4790204,10.1399996 C68.5347121,10.1851367 68.5876193,10.2311949 68.6414546,10.2781744 C68.6943618,10.3260749 68.7463408,10.3739755 68.7992479,10.4237185 C68.8512269,10.4734614 68.9013495,10.5241255 68.9524002,10.5766319 C68.9793179,10.6042669 69.0071638,10.6319018 69.0340814,10.6604579 C69.0600709,10.6890141 69.0869886,10.7175702 69.1139063,10.7470475 C69.1398958,10.7765248 69.1658852,10.806002 69.1928029,10.8354793 C69.2178642,10.8658778 69.2438537,10.8953551 69.2698432,10.9257535 C69.3171811,10.9847081 69.3580218,11.0381357 69.3960778,11.0869574 C69.4341338,11.1357792 69.4694052,11.1809163 69.5000357,11.2232899 C69.5315944,11.2656635 69.5594402,11.3052736 69.5872861,11.3439625 C69.6142038,11.3817303 69.6392651,11.4194981 69.6652545,11.4572659 L69.7302282,11.5558306 C69.7515767,11.5880713 69.7729252,11.6212333 69.7933456,11.6553164 C69.8156222,11.6884783 69.8360426,11.7225615 69.8564629,11.7566446 C69.8768832,11.7907277 69.8973035,11.825732 69.9177238,11.8598151 C69.999405,12.0025957 70.0764452,12.1499821 70.1497727,12.3019744 C70.2231002,12.4539667 70.2927149,12.6105648 70.3576886,12.7708475 C70.4217341,12.9311303 70.4820668,13.0960188 70.5377585,13.2655133 C70.5934503,13.4340865 70.6435728,13.6072656 70.6899826,13.7832081 C70.7039056,13.832951 70.7150439,13.882694 70.7280387,13.9333581 Z" id="Fill-67备份-3" stroke-opacity="0.2" stroke="#A8A0FB" stroke-width="0.2" fill-opacity="0.15" fill="#CACAF1" stroke-linecap="square"></path>
            <g id="编组">
                <path d="M52.215179,70.914029 C52.215179,71.0096738 52.2140126,71.1041522 52.2116798,71.1986306 C52.209347,71.2942754 52.2070142,71.3875874 52.2023486,71.4808994 C52.1988494,71.5742114 52.1930174,71.6675234 52.1871854,71.759669 C52.1825198,71.8518146 52.174355,71.9439602 52.1661902,72.0349394 C52.162691,72.080429 52.1580254,72.1259186 52.1533598,72.1714082 C52.1486942,72.2180642 52.1440286,72.2623874 52.139363,72.307877 L52.1322188,72.3753824 L52.1322188,72.3753824 L52.1241998,72.442013 C52.1183678,72.4875026 52.1125358,72.5318258 52.1067038,72.576149 C52.0180574,73.2433298 51.8757566,73.8790178 51.6867998,74.4762146 C51.4966766,75.0710786 51.2598974,75.6274514 50.9811278,76.1406674 C50.7035246,76.6515506 50.3850974,77.119277 50.0293454,77.5368482 C49.6759262,77.953253 49.287515,78.3195026 48.8699438,78.6332642 C48.785963,78.6950834 48.7008158,78.7557362 48.6156686,78.8140562 C48.5305214,78.8723762 48.4442078,78.927197 48.3555614,78.9808514 C48.2680814,79.0345058 48.179435,79.0858274 48.0896222,79.1348162 C48.0009758,79.183805 47.9099966,79.230461 47.817851,79.2759506 C47.7641966,79.3027778 47.7093758,79.3272722 47.654555,79.352933 C47.5997342,79.376261 47.5449134,79.4007554 47.4889262,79.4240834 L47.3232974,79.4905682 L47.3232974,79.4905682 C47.2673102,79.5115634 47.211323,79.5325586 47.1541694,79.5535538 L44.0013902,80.6581346 L44.0725406,80.630141 C44.1296942,80.6091458 44.1856814,80.5869842 44.2416686,80.5636562 C44.2976558,80.5403282 44.353643,80.5158338 44.4084638,80.490173 C44.4621182,80.4656786 44.5181054,80.4400178 44.5717598,80.4131906 C44.6650718,80.3688674 44.756051,80.321045 44.8470302,80.2708898 C44.9380094,80.2207346 45.0266558,80.1682466 45.1153022,80.1145922 C45.2027822,80.0597714 45.2902622,80.0026178 45.3777422,79.9442978 C45.4640558,79.8848114 45.5480366,79.8229922 45.6320174,79.7588402 C46.0542542,79.440413 46.4461646,79.0648322 46.8019166,78.6390962 C47.1600014,78.2110274 47.4819278,77.7328034 47.7630302,77.2079234 C48.0441326,76.681877 48.2832446,76.1091746 48.4745342,75.497981 C48.6658238,74.8844546 48.809291,74.2312706 48.8991038,73.544261 C48.9049358,73.497605 48.9107678,73.4521154 48.9165998,73.4054594 C48.9224318,73.3599698 48.9270974,73.3133138 48.931763,73.2678242 L48.9597566,72.9878882 C48.9679214,72.8934098 48.9749198,72.7989314 48.9795854,72.7032866 C48.9865838,72.6076418 48.9912494,72.511997 48.995915,72.4151858 C48.9994142,72.319541 49.0029134,72.2227298 49.0052462,72.1259186 C49.007579,72.027941 49.0087454,71.9299634 49.0087454,71.8319858 L49.0086288,9.20458728 C49.0087454,8.99685144 49.0029134,8.79156504 48.9935822,8.58861144 C48.984251,8.38449144 48.9714206,8.18503704 48.9527582,7.98674904 C48.9340958,7.78846104 48.9119342,7.59250584 48.8839406,7.40004984 C48.8582798,7.20642744 48.826787,7.01630424 48.7906286,6.82851384 L48.7533038,6.63255864 L48.7113134,6.43893624 C48.6961502,6.37361784 48.6821534,6.31063224 48.6669902,6.24648024 L48.6191678,6.05635704 C48.5608478,5.83357464 48.4966958,5.61429144 48.4278782,5.40084024 C48.3578942,5.18738904 48.2820782,4.97860344 48.2015966,4.77448344 C48.1199486,4.57152984 48.0324686,4.37324184 47.940323,4.18078584 C47.8481774,3.98832984 47.7513662,3.80287224 47.648723,3.62091384 C47.6230622,3.57775704 47.5974014,3.53343384 47.5705742,3.49027704 L47.532812,3.42568764 L47.532812,3.42568764 L47.4131102,3.23600184 L47.3302958,3.11119704 C47.298803,3.06337464 47.2673102,3.01555224 47.2323182,2.96772984 C47.1984926,2.91874104 47.1635006,2.86858584 47.123843,2.81493144 C47.0841854,2.76127704 47.0410286,2.70412344 46.9932062,2.64230424 C46.9453838,2.58048504 46.8928958,2.51283384 46.8345758,2.43935064 C46.8019166,2.40085944 46.7692574,2.36236824 46.7377646,2.32387704 L46.6386206,2.21190264 C46.604795,2.17574424 46.5709694,2.13841944 46.5383102,2.10342744 C46.5033182,2.06610264 46.4694926,2.03111064 46.435667,1.99611864 C46.371515,1.92963384 46.307363,1.86548184 46.243211,1.80249624 C46.1767262,1.73951064 46.1114078,1.67885784 46.044923,1.61820504 C45.9772718,1.55871864 45.910787,1.50039864 45.840803,1.44324504 C45.7719854,1.38609144 45.7031678,1.33243704 45.6320174,1.27878264 C45.5771966,1.23562584 45.520043,1.19480184 45.4628894,1.15397784 L45.3770132,1.09419984 L45.2902622,1.03617144 C45.2331086,0.99651384 45.1736222,0.96035544 45.1153022,0.92303064 C45.0558158,0.88687224 44.9963294,0.85188024 44.936843,0.81688824 C44.8878542,0.78889464 44.8388654,0.76206744 44.7887102,0.73524024 L44.639411,0.65825784 L44.487779,0.58594104 C44.4364574,0.56261304 44.3863022,0.53928504 44.3349806,0.51712344 L44.2794308,0.49277484 L44.2230062,0.46930104 C44.1856814,0.45413784 44.149523,0.43897464 44.1121982,0.42381144 L44.0551904,0.40223304 L44.0197502,0.38783064 L45.5110034,0.91020024 C46.0527962,1.10032344 46.5942974,1.29044664 47.135507,1.48056984 C47.1739982,1.49456664 47.211323,1.50739704 47.2486478,1.52139384 C47.2859726,1.53539064 47.3244638,1.54938744 47.3606222,1.56455064 C47.397947,1.57854744 47.4341054,1.59371064 47.4725966,1.60887384 L47.5810718,1.65552984 L47.5810718,1.65552984 C47.6323934,1.67769144 47.6825486,1.70101944 47.7338702,1.72434744 L47.8843358,1.79666424 C47.9333246,1.82115864 47.9834798,1.84565304 48.0324686,1.87131384 C48.0814574,1.89814104 48.1304462,1.92496824 48.179435,1.95179544 C48.2389214,1.98562104 48.2984078,2.02061304 48.3555614,2.05677144 L48.5305214,2.16641304 L48.7008158,2.28305304 C48.7579694,2.32271064 48.8139566,2.36353464 48.8699438,2.40435864 C48.9387614,2.45684664 49.0087454,2.51166744 49.0763966,2.56648824 C49.1440478,2.62247544 49.211699,2.67962904 49.2770174,2.73794904 C49.3446686,2.79626904 49.409987,2.85692184 49.474139,2.91874104 C49.5394574,2.98056024 49.6036094,3.04354584 49.6654286,3.10769784 L49.7669054,3.21150744 C49.800731,3.24766584 49.8333902,3.28265784 49.8660494,3.31881624 L49.964027,3.42845784 C49.9978526,3.46578264 50.0293454,3.50310744 50.0608382,3.54043224 C50.1191582,3.61391544 50.1716462,3.67923384 50.2194686,3.73988664 C50.2661246,3.80053944 50.3092814,3.85536024 50.3477726,3.90784824 C50.3874302,3.96033624 50.4224222,4.00815864 50.4562478,4.05714744 C50.4900734,4.10380344 50.5215662,4.15045944 50.553059,4.19711544 L50.5941746,4.25733084 L50.5941746,4.25733084 L50.6335406,4.31842104 C50.6615342,4.35924504 50.687195,4.40006904 50.7140222,4.44205944 C50.739683,4.48288344 50.7665102,4.52487384 50.7910046,4.56686424 C50.8178318,4.60885464 50.8423262,4.65084504 50.867987,4.69400184 C50.9694638,4.87012824 51.066275,5.05325304 51.1572542,5.23987704 C51.2493998,5.42650104 51.334547,5.62012344 51.4150286,5.81724504 C51.4966766,6.01553304 51.5701598,6.21848664 51.6401438,6.42727224 C51.7089614,6.63489144 51.771947,6.84834264 51.830267,7.06529304 L51.876923,7.24958424 L51.9212462,7.43620824 C51.935243,7.49919384 51.9480734,7.56101304 51.9620702,7.62516504 C51.976067,7.68815064 51.9888974,7.75113624 52.0005614,7.81528824 C52.0355534,7.99724664 52.0658798,8.18270424 52.092707,8.37049464 C52.1195342,8.55711864 52.1416958,8.74724184 52.1603582,8.93969784 C52.1778542,9.13215384 52.191851,9.32694264 52.2011822,9.52406424 C52.2105134,9.72118584 52.215179,9.92064024 52.215179,10.1235938 L52.215179,70.914029 Z" id="形状结合" fill="#AC9AD4"></path>
                <path d="M48.6190512,6.0568236 C48.6365472,6.1198092 48.650544,6.1827948 48.6668736,6.2469468 C48.6820368,6.3099324 48.6960336,6.3740844 48.7111968,6.4382364 C48.72636,6.5023884 48.7403568,6.5677068 48.7531872,6.6330252 C48.7660176,6.6983436 48.7800144,6.763662 48.790512,6.8289804 C48.8266704,7.0167708 48.8581632,7.206894 48.8849904,7.39935 C48.9118176,7.5929724 48.9351456,7.7877612 48.9526416,7.9860492 C48.971304,8.1843372 48.9841344,8.384958 48.9934656,8.5879116 C49.0027968,8.7908652 49.0086288,8.997318 49.0086288,9.2049372 L49.0086288,71.8324524 C49.0086288,71.93043 49.0074624,72.0284076 49.0051296,72.1263852 C49.0027968,72.2231964 48.9992976,72.3200076 48.9957984,72.4156524 C48.9911328,72.5124636 48.9864672,72.6081084 48.9806352,72.7025868 C48.9748032,72.7982316 48.9678048,72.89271 48.95964,72.9871884 L48.9456432,73.1271564 L48.9328128,73.2682908 C48.9269808,73.3137804 48.9223152,73.3604364 48.9164832,73.405926 C48.9106512,73.452582 48.9048192,73.4980716 48.8989872,73.5447276 C48.8091744,74.2317372 48.6657072,74.8837548 48.4744176,75.4984476 C48.283128,76.1096412 48.044016,76.6811772 47.7629136,77.2072236 C47.4818112,77.73327 47.1598848,78.211494 46.8018,78.6395628 C46.446048,79.0641324 46.0541376,79.4408796 45.6319008,79.7593068 C45.54792,79.8234588 45.4639392,79.8841116 45.3776256,79.943598 C45.2901456,80.0030844 45.2026656,80.060238 45.1151856,80.1150588 C45.0265392,80.1687132 44.9378928,80.2200348 44.8469136,80.27019 C44.7559344,80.3203452 44.6649552,80.3681676 44.5716432,80.4136572 C44.4491712,80.4731436 44.3243664,80.5291308 44.1983952,80.5816188 C44.072424,80.6329404 43.94412,80.6807628 43.8146496,80.7239196 C43.6863456,80.7670764 43.5545424,80.8055676 43.4227392,80.8405596 C43.290936,80.8743852 43.1568,80.9035452 43.022664,80.9303724 C42.9561792,80.9432028 42.888528,80.9537004 42.8197104,80.964198 C42.7532256,80.975862 42.684408,80.9851932 42.6167568,80.993358 C42.5479392,81.0003564 42.4791216,81.0085212 42.410304,81.0143532 C42.3414864,81.0201852 42.2726688,81.0248508 42.2026848,81.0295164 C42.1327008,81.0330156 42.0638832,81.0353484 41.9938992,81.0365148 C41.9239152,81.0384474 41.8539312,81.0384474 41.7839472,81.0384474 C41.7127968,81.0365148 41.6428128,81.034182 41.5716624,81.0318492 C41.500512,81.02835 41.430528,81.0236844 41.3582112,81.0178524 C41.2532352,81.0096876 41.1459264,80.9980236 41.0386176,80.9851932 C40.9301424,80.9711964 40.8228336,80.9548668 40.7155248,80.9362044 C40.6070496,80.917542 40.497408,80.8965468 40.3889328,80.870886 C40.2804576,80.847558 40.1719824,80.8195644 40.0623408,80.7904044 L4.6935936,71.1804348 C4.356504,71.0894556 4.0287456,70.9436556 3.714984,70.7500332 C3.4023888,70.5587436 3.1037904,70.3196316 2.8191888,70.040862 C2.53692,69.7620924 2.2698144,69.4436652 2.0202048,69.0914124 C1.772928,68.7414924 1.5431472,68.3577468 1.3343616,67.9448412 C1.2818736,67.842198 1.2317184,67.737222 1.1815632,67.632246 C1.1325744,67.5261036 1.084752,67.4176284 1.038096,67.3091532 C0.99144,67.1995116 0.944784,67.08987 0.9016272,66.9767292 C0.857304,66.8647548 0.8153136,66.751614 0.7733232,66.6361404 C0.7534944,66.5789868 0.7336656,66.5206668 0.7138368,66.4635132 L0.6555168,66.2885532 C0.6368544,66.2290668 0.618192,66.1707468 0.5995296,66.1112604 C0.5808672,66.051774 0.5633712,65.9922876 0.5458752,65.9316348 C0.4852224,65.7228492 0.4280688,65.509398 0.3767472,65.293614 C0.3254256,65.0766636 0.2787696,64.8585468 0.2379456,64.6357644 C0.1959552,64.4141484 0.1597968,64.1878668 0.128304,63.9615852 C0.0979776,63.7353036 0.0723168,63.5043564 0.052488,63.2734092 C0.0489888,63.24075 0.046656,63.2080908 0.0443232,63.1742652 C0.0419904,63.141606 0.0396576,63.1089468 0.0361584,63.0751212 C0.0338256,63.0412956 0.0314928,63.0086364 0.0303264,62.9748108 C0.0279936,62.9421516 0.0256608,62.9094924 0.023328,62.8745004 C0.0198288,62.809182 0.0163296,62.7415308 0.0139968,62.675046 C0.0104976,62.6085612 0.0081648,62.54091 0.005832,62.4744252 C0.0046656,62.406774 0.0023328,62.3391228 0.0023328,62.2714716 C0.0011664,62.2038204 1.33525191e-13,62.1373356 1.33525191e-13,62.0696844 L1.33525191e-13,18.9688716 C1.33525191e-13,17.8864524 0.1259712,16.8273612 0.355752,15.8370876 C0.5843664,14.8421484 0.9179568,13.9113612 1.3343616,13.0925484 C1.7530992,12.2667372 2.2546512,11.551734 2.8191888,10.997694 C3.388392,10.4366556 4.0217472,10.0389132 4.6935936,9.8557884 L40.0623408,0.2481516 C40.1719824,0.2178252 40.2804576,0.190998 40.3889328,0.1665036 C40.497408,0.1420092 40.6070496,0.121014 40.7155248,0.1011852 C40.8228336,0.0825228 40.9301424,0.0661932 41.0386176,0.0533628 C41.1459264,0.039366 41.2532352,0.027702 41.3582112,0.0195372 C41.430528,0.0137052 41.500512,0.0090396 41.5716624,0.0067068 C41.6428128,0.0032076 41.7127968,0.0008748 41.7839472,0.0008748 C41.8539312,5.52518031e-14 41.9239152,5.52518031e-14 41.9938992,0.0008748 C42.0638832,0.0032076 42.1327008,0.0055404 42.2026848,0.0078732 C42.2726688,0.0125388 42.3414864,0.0172044 42.410304,0.0230364 C42.4791216,0.0288684 42.5479392,0.0358668 42.6167568,0.0440316 C42.684408,0.0533628 42.7532256,0.0615276 42.8197104,0.0731916 C42.888528,0.0825228 42.9561792,0.0953532 43.022664,0.1070172 C43.1369712,0.1291788 43.2489456,0.1536732 43.3597536,0.1816668 C43.4705616,0.2096604 43.5813696,0.2411532 43.6898448,0.2749788 C43.7994864,0.3099708 43.9079616,0.3472956 44.0164368,0.3869532 C44.1237456,0.4277772 44.2287216,0.470934 44.334864,0.5164236 C44.3861856,0.5397516 44.4363408,0.5630796 44.4876624,0.5864076 C44.5378176,0.6097356 44.5891392,0.63423 44.6392944,0.6587244 C44.6894496,0.6843852 44.7396048,0.710046 44.7885936,0.7357068 C44.8387488,0.7613676 44.8877376,0.7893612 44.9367264,0.8173548 C44.9973792,0.8523468 45.0556992,0.8873388 45.1151856,0.9234972 C45.1735056,0.9596556 45.232992,0.9969804 45.2901456,1.0354716 C45.3484656,1.0739628 45.4056192,1.1136204 45.4627728,1.1544444 C45.5199264,1.1952684 45.57708,1.2360924 45.6319008,1.2780828 C45.7030512,1.3317372 45.7730352,1.386558 45.8406864,1.4437116 C45.9106704,1.5008652 45.9771552,1.5591852 46.0448064,1.6186716 C46.1112912,1.6793244 46.1766096,1.7399772 46.2430944,1.8029628 C46.3084128,1.8659484 46.3713984,1.9301004 46.4355504,1.9965852 C46.469376,2.0315772 46.504368,2.0665692 46.5381936,2.1027276 C46.5708528,2.138886 46.6046784,2.1750444 46.638504,2.2123692 C46.6711632,2.249694 46.7038224,2.2870188 46.737648,2.3243436 C46.7691408,2.3628348 46.8018,2.4001596 46.8344592,2.4386508 C46.8939456,2.5133004 46.9452672,2.5809516 46.9930896,2.6427708 C47.040912,2.70459 47.0852352,2.7617436 47.1237264,2.815398 C47.163384,2.8690524 47.198376,2.9192076 47.233368,2.9681964 C47.2671936,3.0160188 47.2986864,3.0638412 47.3313456,3.1116636 L47.4129936,3.2364684 C47.4398208,3.2772924 47.466648,3.3192828 47.4923088,3.3624396 C47.5203024,3.40443 47.5459632,3.4475868 47.571624,3.4907436 C47.5972848,3.5339004 47.6229456,3.5782236 47.6486064,3.6213804 C47.7512496,3.8021724 47.8480608,3.9887964 47.9402064,4.1812524 C48.032352,4.3737084 48.119832,4.5719964 48.20148,4.77495 C48.2819616,4.9779036 48.3577776,5.1866892 48.4277616,5.4013068 C48.4977456,5.614758 48.5607312,5.8340412 48.6190512,6.0568236" id="Fill-67" fill="url(#linearGradient-5)"></path>
                <g id="编组-13" transform="translate(4.000000, 18.000000)">
                    <path d="M30.3756565,35.9922703 C30.1943772,37.0645433 29.8957995,38.0645415 29.4988808,38.970938 C29.1043317,39.8714103 28.6149961,40.677096 28.0474616,41.3631138 C27.4846664,42.0443922 26.8472268,42.6083722 26.1541001,43.0349117 C25.4680823,43.4567119 24.7275623,43.7434412 23.9526822,43.8749576 C22.5865709,44.1083695 21.2204596,44.3394117 19.8555331,44.5716388 C20.6327829,44.4401225 21.3744878,44.1486538 22.0628752,43.7150053 C22.7583715,43.2789871 23.396996,42.7007891 23.960976,41.9993685 C24.5308802,41.2932087 25.0237703,40.4626414 25.4195042,39.534918 C25.8176078,38.6000855 26.1173703,37.5680969 26.2998344,36.4602789 L30.3756565,35.9922703 Z M12.9795976,24.5643287 L12.9795976,27.2361249 L10.295654,27.3392057 C10.1265787,27.4029355 9.9636396,27.4869767 9.80815778,27.5894418 C9.44915368,27.8252233 9.12924904,28.1617156 8.86147701,28.5704827 C8.59607464,28.9804345 8.38162005,29.4650308 8.23470088,30.0029445 C8.08778172,30.5408583 8.00839797,31.1332743 8.00839797,31.7612352 C8.00839797,32.390381 8.08896655,32.997015 8.23707055,33.5586254 C8.38517455,34.1237902 8.60081397,34.6427467 8.868586,35.0941676 C9.13754287,35.5479583 9.45981717,35.9342135 9.8200061,36.226867 C10.1694364,36.509143 10.5527627,36.7050386 10.9605315,36.7924956 L10.9647908,36.7922689 L10.9873026,36.7970082 L10.9876849,36.7962624 L11.3097425,36.8374816 L22.0243681,38.0829064 L18.562617,38.7226658 L17.9248494,38.5900145 L7.2578756,37.2713496 L6.88422937,37.2304197 L6.91468488,37.2272624 L6.90268488,37.2242624 C6.89133836,37.2232515 6.88778387,37.2223629 6.88422937,37.2211781 C6.87593555,37.2199932 6.86882655,37.2188084 6.86290239,37.2164387 C6.85460857,37.2152539 6.84749958,37.2128842 6.84039059,37.2116994 L6.84568488,37.2102624 L6.74760546,37.1868988 C6.3903527,37.0850723 6.05274812,36.8954508 5.74299919,36.6344492 C5.38517992,36.3323171 5.06409045,35.9342135 4.79631842,35.4685746 C4.52973122,35.0017508 4.31527663,34.4673915 4.16717263,33.8880087 C4.02025346,33.3086258 3.93968488,32.6842194 3.93968488,32.0384859 C3.93968488,31.3939373 4.01906863,30.7837488 4.16480296,30.232802 C4.31172213,29.6783006 4.52499189,29.1806711 4.78920943,28.7600558 C5.0546118,28.3382556 5.37451644,27.9946543 5.7323357,27.7517637 C6.0913398,27.5076884 6.49062818,27.3666933 6.91479804,27.3501057 L8.89051548,27.2760882 L8.89074236,24.6425276 L12.9795976,24.5643287 Z M31.3690196,18.7392207 L35.4152209,18.8434859 L35.4803867,19.0484618 C36.2109541,19.3193144 36.895787,19.7257118 37.5154541,20.2470379 C38.1386757,20.7719184 38.6943619,21.4129125 39.1611857,22.1451387 C39.6303792,22.8821042 40.0095255,23.7103018 40.2784823,24.6036651 C40.5090168,25.3714363 40.6585958,26.1870843 40.7137889,27.032702 L40.7332208,27.4576884 L40.7429365,27.77783 C40.7436474,27.809939 40.7436474,27.8407446 40.7424625,27.8715503 L40.7415155,27.8250882 L40.7319175,28.2887296 L40.7206616,28.4870409 L40.6898264,28.8675793 L40.626112,29.3914527 L40.561746,29.7730575 L40.46379,30.2407403 L40.4020603,30.4899994 L40.2630795,30.973322 L40.1220845,31.3882501 L39.9440042,31.8400266 L39.7643541,32.2357604 L39.5162799,32.7143141 L39.2855339,33.1024058 L38.9990092,33.5271679 L38.9502857,33.5941703 L38.9577501,33.5822035 L38.7844794,33.8111215 L38.6150967,34.0186956 L38.3686516,34.2935767 L38.1162836,34.5493206 L37.994716,34.664191 L37.7430603,34.8851633 L37.3999034,35.1536758 L37.1614609,35.3198677 L37.0059763,35.4199964 L36.7006451,35.5971288 L36.5977397,35.6523198 L36.3724933,35.764297 L36.038324,35.9087396 C35.813206,35.997602 35.5833486,36.0734313 35.347567,36.1326729 L35.1695857,36.1748726 L34.9265269,36.2228398 C34.8293254,36.2400652 34.7321028,36.254573 34.6342981,36.2665589 L30.5818172,36.7576718 L30.9764523,36.6956907 L31.2421605,36.6370787 L31.5226886,36.5595075 L31.6427338,36.5220566 L31.8401088,36.4508003 L32.0533298,36.369618 L32.1972464,36.3074714 L32.3768377,36.2221277 L32.5434588,36.1385225 C32.678217,36.0672483 32.8108117,35.9905316 32.9410708,35.9085441 L33.1935296,35.7416391 L33.4647873,35.5419747 L33.668091,35.3778435 L33.9772522,35.1019423 L34.0863603,34.9963981 C34.3888139,34.6976018 34.6711901,34.3658641 34.9301507,34.005307 C35.2811572,33.5180449 35.5891209,32.9780207 35.8468103,32.3936231 L36.0376199,31.928588 C36.1161278,31.7223527 36.1886134,31.5112457 36.2547929,31.2955963 L36.395568,30.7949443 L36.4795966,30.4401513 L36.562443,30.0234636 L36.6010886,29.7934902 L36.6440141,29.4945454 L36.6968864,29.0056087 L36.7088669,28.8559091 L36.7257737,28.5820681 L36.739391,28.156127 L36.740574,27.9875453 L36.7299105,27.6569772 C36.7026593,26.6238037 36.5438919,25.6297296 36.2713805,24.7008213 C36.000054,23.7742827 35.6161684,22.918834 35.1434204,22.1558022 C34.6718573,21.3986946 34.1126166,20.7351886 33.4846556,20.1913508 C32.8602492,19.6522522 32.1706769,19.230452 31.4337114,18.9508316 L31.3690196,18.7392207 Z M24.6469937,19.343011 L24.6789842,19.3441959 L28.7607305,19.4247644 L28.6967495,19.4247644 C28.3993567,19.4283189 28.114997,19.5077027 27.8555188,19.6475129 C27.5960406,19.7849534 27.360259,19.9840052 27.1588376,20.2292654 C26.9574161,20.4745256 26.7879852,20.7648094 26.6647626,21.0906382 C26.5642889,21.3494055 26.4926303,21.6309216 26.4528199,21.9273002 L26.4293365,22.1523662 L26.2279151,24.8502287 L22.7064365,24.9314718 C22.6839895,24.9432235 22.6618009,24.9556033 22.6398883,24.9685934 C22.4420214,25.0870766 22.2654814,25.2541379 22.1161926,25.4602987 C21.9680886,25.6664594 21.8484206,25.90935 21.7666672,26.1818613 C21.6837289,26.452003 21.6375205,26.7493959 21.6375205,27.0633764 C21.6375205,27.3797265 21.6860986,27.6854132 21.7714065,27.9662183 C21.8567144,28.2458387 21.9811217,28.5017624 22.1339651,28.7174018 C22.2879932,28.9365957 22.4716422,29.1155054 22.6754333,29.2458369 C22.839414,29.3482064 23.0170441,29.4187276 23.2028636,29.4495143 L23.3435601,29.4653863 L33.4252956,30.0092242 L29.3648763,30.28529 L19.246411,29.7047223 C19.0083783,29.6913337 18.7820753,29.6095803 18.5770994,29.4768791 C18.3733083,29.344178 18.1884745,29.1569745 18.0344464,28.9330412 C17.881603,28.7079232 17.7571957,28.4448905 17.6718878,28.1557915 C17.5865799,27.8678773 17.5391866,27.552712 17.5391866,27.2256983 C17.5391866,26.9010544 17.5842102,26.5941829 17.6671484,26.3157474 C17.7489018,26.0373118 17.8685699,25.7849426 18.0166739,25.5728577 C18.1659627,25.3595879 18.3425027,25.1877873 18.5415545,25.0669344 C18.7394214,24.9460816 18.9598001,24.8761765 19.1908424,24.8702523 L22.1465155,24.8040882 L22.3392965,22.1618449 C22.367377,21.769547 22.4491304,21.4010642 22.5747226,21.0645719 C22.6991299,20.7304493 22.8673761,20.429502 23.0699824,20.1759479 C23.2714038,19.9223939 23.5083702,19.7186028 23.7678484,19.5740533 C24.0296963,19.4306886 24.314056,19.3489352 24.6126336,19.3441959 L24.6304061,19.3441959 L24.6469937,19.343011 Z M12.3733191,19.562205 C13.7394304,19.5847168 15.1055417,19.6072286 16.4704681,19.6285556 L16.3887147,19.6285556 C15.9218909,19.6368494 15.4787637,19.7754747 15.0771057,20.0195501 C14.6766325,20.2636255 14.3188132,20.6107813 14.0143114,21.0373208 C13.7121792,21.4603058 13.4645493,21.9650443 13.2891942,22.5231001 C13.1126542,23.0799712 13.0060193,23.6937141 12.987062,24.3394476 L12.9856239,24.339205 L12.9794791,24.5639732 L8.89062388,24.6421722 L8.89773287,24.4123148 L10.9236239,24.375205 L8.8982068,24.4117223 C8.91716412,23.7470316 9.02261416,23.116701 9.1979693,22.5420574 C9.37450927,21.9674139 9.62095432,21.4496423 9.92308648,21.0124393 C10.2252186,20.5728667 10.5830379,20.2162322 10.9823263,19.9662327 C11.3827995,19.7150483 11.8247418,19.5716836 12.2915657,19.562205 L12.3733191,19.562205 Z M6.18731119,14.3750105 L10.2666878,14.5835409 C9.83185442,14.7600809 9.43019637,15.040886 9.07119228,15.4058143 C8.71574268,15.7683729 8.40294703,16.2115001 8.14465365,16.7162385 C7.88754511,17.2186073 7.68256917,17.7825873 7.54394383,18.3880364 C7.40413365,18.9899311 7.3283044,19.6356645 7.3283044,20.302725 C7.3283044,20.563388 7.34015272,20.8216814 7.36384936,21.0752354 C7.38636117,21.3276046 7.41953647,21.5764194 7.46456008,21.8181251 C7.50721404,22.0610156 7.56171631,22.2967972 7.6245124,22.5266546 C7.6873085,22.756512 7.76076808,22.9792604 7.84133666,23.1925302 L3.7738084,23.22926 C3.69442466,23.0100661 3.62096508,22.7813935 3.55935381,22.5444271 C3.49537288,22.3098304 3.44205544,22.065755 3.39821666,21.8169403 C3.35556271,21.5681255 3.32238741,21.3122018 3.29869077,21.0539084 C3.27617896,20.7932454 3.26551548,20.527843 3.26551548,20.260071 C3.26551548,19.5740533 3.33897506,18.9105474 3.4776004,18.2908802 C3.61741058,17.6688434 3.81883202,17.0894606 4.07594056,16.571689 C4.33304911,16.0527326 4.64465992,15.5953874 4.99892469,15.2233502 C5.35437429,14.8477584 5.75484751,14.5574746 6.18731119,14.3750105 Z M14.2560171,0.0740882231 L18.3555358,0.715082335 C19.1517429,0.839489695 19.9206989,1.11792522 20.6446313,1.53380125 C21.3756726,1.95441661 22.0593207,2.51484214 22.677803,3.19967504 C23.3022094,3.8904321 23.8590805,4.70796618 24.3294588,5.62976547 C24.8022067,6.55867376 25.188462,7.5930321 25.4657127,8.71269834 L25.5453334,9.03769775 L25.858129,9.33153609 C26.1872753,9.56222288 26.5048103,9.82288592 26.8081273,10.1084304 C27.1126291,10.3963446 27.4017281,10.7103251 27.6754243,11.0468174 C27.9514902,11.3856793 28.2097836,11.7482379 28.4503045,12.1297538 C28.6927619,12.5122717 28.9153434,12.9146655 29.1192103,13.3346125 L29.3709189,13.3536853 C30.0285007,13.3998937 30.6671251,13.5645854 31.2702046,13.8370967 C31.8803931,14.1107929 32.4538518,14.4923088 32.9787324,14.9674265 C33.5059826,15.4449138 33.9834699,16.0183724 34.3946066,16.6664756 C34.808113,17.3205028 35.1528991,18.0503593 35.414747,18.8430119 L31.3685457,18.7387467 C31.1043281,17.9212126 30.7571724,17.1652898 30.3401115,16.4899356 C29.92779,15.8193207 29.4467482,15.2292743 28.9159434,14.7351994 C28.3886932,14.2446789 27.8104952,13.8501299 27.1991219,13.5693247 C26.6523775,13.317801 26.0787899,13.1544765 25.4887073,13.0914243 L25.0427276,13.0622166 C24.8365669,12.6261984 24.610264,12.2091376 24.3661886,11.8122188 C24.1244828,11.4176698 23.8638198,11.0444477 23.5889388,10.6949223 C23.3140577,10.3477665 23.0225891,10.0254922 22.7180873,9.72928419 C22.4147703,9.43544586 22.0960505,9.16648899 21.7654823,8.92833776 L21.4525682,8.6262056 L21.3719996,8.29208298 C21.0948674,7.13687178 20.7074273,6.07052298 20.2334945,5.11317872 C19.7619314,4.16412829 19.2050604,3.32526723 18.5794691,2.61436803 C17.9598019,1.91057782 17.2761539,1.3359343 16.5451125,0.905840287 C15.8199953,0.480485599 15.0522242,0.197310751 14.2560171,0.0740882231 Z M12.8970148,13.8394664 L16.9953487,14.0728783 C17.5676225,14.1048688 18.1280481,14.2328306 18.6671466,14.4437307 C19.2097997,14.6570005 19.7299409,14.956763 20.2216462,15.3335396 C20.7157212,15.7138706 21.1789905,16.1712158 21.6019755,16.698466 C22.0296999,17.2280859 22.4147703,17.8276109 22.7500777,18.4851927 L18.6517438,18.3797426 C18.3152515,17.7008339 17.9301811,17.0835364 17.5024568,16.5373289 C17.0794718,15.9946758 16.6150176,15.5242975 16.1209427,15.1321181 C15.6304222,14.744678 15.110281,14.4366217 14.5676279,14.2174278 L12.8970148,13.8394664 Z M7.30093478,13.9015516 L11.3850507,14.1231152 L10.2665693,14.58283 L6.18837754,14.3742996 L7.30093478,13.9015516 Z M7.56704805,11.8778585 L11.651164,12.1562941 L11.6120645,12.4205116 L11.3855246,14.1237076 L7.30140872,13.9009592 L7.52771163,12.1485927 L7.56704805,11.8778585 Z M12.7027024,5.79327229 C12.7690529,5.79327229 12.8377732,5.79445712 12.9041238,5.79801162 C12.9716592,5.80038128 13.0391946,5.80630544 13.1055452,5.81459926 L17.2038791,6.28379274 C17.1375285,6.27668374 17.0699931,6.27075958 17.0024577,6.26602026 C16.9361071,6.26246576 16.8673868,6.2600961 16.7998514,6.26128093 C16.7311312,6.26128093 16.6624109,6.26246576 16.5948755,6.26720509 C16.5261552,6.27075958 16.457435,6.27786858 16.3887147,6.28497757 C15.8045925,6.35251299 15.244167,6.56104342 14.7263954,6.88568739 C14.214548,7.20559203 13.7418,7.63924054 13.3282937,8.16293629 C12.9159721,8.6818927 12.5593377,9.29089635 12.274978,9.96506576 C11.9918032,10.6368655 11.7785334,11.3750158 11.6517564,12.157005 L7.56764047,11.8773846 C7.69323266,11.0716988 7.90650242,10.3122215 8.18849244,9.62027965 C8.47166728,8.9259681 8.82711688,8.29919197 9.23825359,7.76246307 C9.65057512,7.22336451 10.1221383,6.77431318 10.6328009,6.44256022 C11.1493876,6.10725277 11.7074435,5.89161334 12.2915657,5.81933859 C12.3602859,5.80985994 12.4290062,5.80393578 12.4977264,5.80038128 L12.7027024,5.79327229 Z" id="形状结合" fill="url(#linearGradient-6)" opacity="0.8"></path>
                    <path d="M29.5177196,30.2937023 C29.7854916,30.2913327 30.0378609,30.2202427 30.2689031,30.0946505 C30.4987605,29.9690583 30.7061061,29.7854094 30.8790916,29.5591065 C31.0544467,29.3316187 31.1942569,29.061477 31.2914131,28.7605297 C31.3885693,28.4583975 31.4430716,28.1266446 31.4430716,27.778304 C31.4430716,27.4133757 31.3850148,27.0650351 31.2831193,26.7463153 C31.1800389,26.4275955 31.0331197,26.1396813 30.8518404,25.8967908 C30.6705612,25.6539002 30.4561066,25.4560333 30.2191402,25.3185927 C29.9821738,25.1811522 29.7238804,25.1005837 29.4549235,25.0946595 L27.1883399,25.0804415 L26.9727005,22.171679 C26.9418948,21.7676512 26.8542173,21.3849505 26.7215161,21.0413492 C26.5864452,20.6977479 26.4087204,20.3932461 26.1954507,20.1396921 C25.9845506,19.886138 25.7381055,19.6847166 25.4703335,19.5472761 C25.2025615,19.4098356 24.9134625,19.3387456 24.6125151,19.3446698 C24.3139375,19.3494091 24.0295778,19.4311625 23.7677299,19.5745272 C23.5082517,19.7178919 23.2724701,19.9228678 23.0698639,20.1764219 C22.8672576,20.4299759 22.6990115,20.7309232 22.5746041,21.0650459 C22.4490119,21.4003533 22.3672585,21.7700209 22.3388225,22.1622003 L22.1374011,24.9453707 L19.246411,24.8707263 C19.0082598,24.8648021 18.7819569,24.928783 18.5769809,25.0448966 C18.3731898,25.1621949 18.188356,25.3339956 18.0355127,25.5472653 C17.8814845,25.7605351 17.7570772,26.015274 17.6717693,26.2996336 C17.5864614,26.5828085 17.5390681,26.8956041 17.5390681,27.2249874 C17.5390681,27.5531859 17.5864614,27.8671664 17.6717693,28.1550806 C17.7570772,28.4441796 17.8814845,28.7083971 18.0355127,28.9335152 C18.188356,29.1574484 18.3731898,29.3434671 18.5769809,29.4773531 C18.7819569,29.6100543 19.0082598,29.6906228 19.246411,29.7048408 L29.3648763,30.2854085 L29.5177196,30.2937023 M3.26539699,20.2593601 C3.26539699,20.528317 3.27724531,20.7925345 3.29857229,21.0531975 C3.32226893,21.3126758 3.35544422,21.5685995 3.39809818,21.8174142 C3.44193696,22.0662289 3.4952544,22.3103043 3.55923533,22.544901 C3.62203142,22.7806826 3.69430618,23.01054 3.77368992,23.2297339 C3.88624896,23.1266535 3.99999283,23.0306822 4.11610637,22.9394501 C4.23103507,22.8494029 4.34951827,22.764095 4.4691863,22.6835264 C4.59003917,22.6041426 4.71207686,22.5294982 4.83648422,22.4619628 C4.96207642,22.3920577 5.08885344,22.3280768 5.21800013,22.2712048 L5.40046426,22.1930059 L5.49999014,22.1550913 L5.51894746,22.0081721 C5.69548742,20.9382688 5.97866227,19.9323465 6.35306918,19.0152865 C6.72984576,18.0923024 7.19903923,17.2581807 7.74287712,16.543727 C8.29263917,15.8209794 8.91823046,15.2167151 9.60543302,14.7652941 C10.3009294,14.307949 11.0580371,14.0034471 11.8601683,13.8873336 L12.0817319,13.8529735 L12.2914472,13.8399403 C12.9217778,13.8008409 13.5402601,13.8790398 14.1350458,14.0638736 C14.7357556,14.2498922 15.3151384,14.5437305 15.8589763,14.9347251 C16.4075535,15.3280893 16.9217706,15.8197946 17.3897793,16.395623 C17.8613424,16.9761906 18.2866971,17.6408814 18.6516253,18.3790317 C18.7594451,18.0804541 18.8791131,17.7925399 19.0070749,17.5129195 C19.1350368,17.2332992 19.274847,16.9631575 19.422951,16.7024944 C19.5722398,16.4430162 19.7321921,16.1942015 19.9016231,15.9548655 C20.0698692,15.7167142 20.2487789,15.4904113 20.4347975,15.2759567 C20.3352716,15.1420707 20.2286367,15.012924 20.1184474,14.8908863 C20.008258,14.7676638 19.8933293,14.6527351 19.7736612,14.5449154 C19.655178,14.4359108 19.5307707,14.3352001 19.4051785,14.2427832 C19.2772166,14.1503663 19.14807,14.0650584 19.0141839,13.9880443 L18.7973597,13.8814095 L17.66703,13.3257232 L17.4703478,11.6551101 C17.3625281,10.7356805 17.1409645,9.88734078 16.8281689,9.13971179 C16.5153732,8.39326763 16.1137152,7.74634936 15.6468914,7.22620811 C15.1824372,6.70962136 14.6540022,6.31744196 14.0852828,6.07573624 C13.5189331,5.83521534 12.9146688,5.74161361 12.2914472,5.81981252 C11.707325,5.89090244 11.1492691,6.1077267 10.6338672,6.44184932 C10.1220198,6.77360228 9.65045664,7.22265361 9.2381351,7.76175217 C8.8269984,8.2996659 8.4715488,8.92644203 8.18837395,9.62075358 C7.90638394,10.3126955 7.69311418,11.0709879 7.56752198,11.8778585 L7.5272377,12.1491851 L7.30093478,13.9015516 L6.18837754,14.3742996 C5.75472902,14.5579485 5.35425581,14.8482324 4.99880621,15.2226393 C4.64454144,15.5958614 4.33293062,16.0520217 4.07582208,16.5721629 C3.81989837,17.0887497 3.6172921,17.6693174 3.47748192,18.2901693 C3.33885658,18.9110213 3.26539699,19.5733424 3.26539699,20.2593601 M18.0923846,38.611223 C18.4561281,38.6361044 18.8080232,38.5910808 19.140961,38.4808914 C19.4750836,38.3695172 19.7914337,38.1953469 20.0817176,37.9654895 C20.3731862,37.7320776 20.6385886,37.4429786 20.8708157,37.1064863 C21.1030428,36.7688092 21.3020945,36.3837388 21.460862,35.9583841 L19.246411,35.733266 C18.4182134,35.6503278 17.638594,35.3363473 16.9371734,34.8470117 C16.2428619,34.3624154 15.6231948,33.702464 15.1089777,32.9157355 C14.5971302,32.1361161 14.1871784,31.2273499 13.9040035,30.2368304 C13.6231983,29.2510502 13.4691702,28.1787772 13.4691702,27.0626655 C13.4691702,26.5164579 13.5047151,25.9844683 13.5758051,25.4702512 C13.6457101,24.9548493 13.7499754,24.4572199 13.8850462,23.9832871 C14.0201171,23.5069846 14.1859935,23.0543788 14.3779363,22.6266544 C14.5722488,22.1989301 14.7926275,21.7984569 15.0378877,21.4299741 C14.8731961,21.1385055 14.6848078,20.8742879 14.4810167,20.6420608 C14.2772256,20.4110186 14.055662,20.2119668 13.8222501,20.0496448 C13.5888382,19.8896925 13.3412083,19.7641003 13.0840998,19.6811621 C12.8281761,19.5994087 12.5627737,19.5567547 12.2914472,19.5614941 C11.8246234,19.5709727 11.382681,19.7143374 10.9822078,19.9655218 C10.5841043,20.2155213 10.2251002,20.5733406 9.922968,21.0129133 C9.62083584,21.4489314 9.37439078,21.9678879 9.19903565,22.5425314 C9.02249568,23.1159901 8.91704563,23.7475055 8.89808832,24.4121963 L8.89097933,24.6420537 L8.89097933,27.3932336 L6.96681216,27.3493948 C6.53671814,27.355319 6.13032077,27.4903898 5.76420768,27.7297259 C5.40164909,27.9690619 5.07582029,28.3114784 4.80567859,28.7356482 C4.5355369,29.1562636 4.31871264,29.6574475 4.16942381,30.2155034 C4.02131981,30.7723744 3.9395664,31.3873023 3.9395664,32.0389599 C3.9395664,32.6846933 4.02013498,33.3090998 4.16705414,33.8872978 C4.31515814,34.4666806 4.52961274,35.0022247 4.79619994,35.4678637 C5.06397197,35.9346875 5.38506144,36.332791 5.74406554,36.6349232 C6.10425446,36.9382402 6.50354285,37.1455858 6.92889754,37.2297088 L7.0758167,37.2486662 L17.9253233,38.589896 L18.0923846,38.611223 M36.729792,27.6562663 L36.7404555,27.9880192 C36.7404555,29.2628985 36.5378492,30.4678726 36.1717361,31.5555484 C35.8068079,32.6384848 35.2807425,33.5993836 34.6326394,34.3944059 C33.9892756,35.1823191 33.2286134,35.8031711 32.3873827,36.2178623 C31.5556307,36.6266294 30.6468645,36.8327901 29.6966292,36.7936907 L29.4276724,36.7664395 L26.2997159,36.4607529 C26.0900006,37.7332624 25.7250724,38.9086158 25.2333671,39.9477135 C24.7464012,40.9820718 24.1350278,41.8754351 23.4300528,42.6017371 C22.7321868,43.3185605 21.9442735,43.8671377 21.0959338,44.2154783 C20.2570727,44.5590796 19.35897,44.7083684 18.4300618,44.6349088 L18.1990195,44.6064729 L17.963238,44.5780369 L7.0758167,42.751026 C6.14453875,42.5946281 5.27131757,42.1597948 4.48695878,41.5128765 C3.71444832,40.8730672 3.02606093,40.0247275 2.45260224,39.027099 C1.88625254,38.0401339 1.43246189,36.90388 1.11966624,35.6740244 C0.810425088,34.4512778 0.638624448,33.1301901 0.638624448,31.7605243 C0.638624448,31.3268758 0.656396928,30.9015211 0.688387392,30.4844603 C0.721562688,30.0673994 0.7701408,29.6586324 0.83530656,29.2617136 C0.90047232,28.8636101 0.979856064,28.47617 1.07464262,28.0993935 C1.16824435,27.7238017 1.27843373,27.3588735 1.40165626,27.009348 C1.17890784,26.5342304 0.979856064,26.0342313 0.806870592,25.5105355 C0.63388512,24.9880246 0.486965952,24.4441867 0.366113088,23.8802067 C0.247629888,23.3174115 0.156397824,22.735659 0.093601728,22.1373188 C0.031990464,21.5413483 0,20.9287902 0,20.3020141 C0,19.2072293 0.099525888,18.1396957 0.287914176,17.1266643 C0.476302464,16.1088936 0.753553152,15.1432555 1.10663309,14.2522619 C1.46208269,13.355344 1.89691603,12.5318858 2.39691514,11.8067686 C2.90165357,11.0769121 3.47629709,10.4453967 4.10544288,9.94184305 L4.28316768,9.80914187 L4.36847558,9.74160644 L4.42416269,9.5141187 C4.69311955,8.33876536 5.06752646,7.2297626 5.52961094,6.21436158 C5.99524992,5.19066673 6.55212096,4.25583428 7.18245158,3.44303953 C7.8198912,2.62076612 8.53316006,1.91934558 9.30567053,1.36721387 C10.0888445,0.809157996 10.93126,0.403945452 11.8186992,0.187121196 L12.0615898,0.13617342 L12.2914472,0.0864104759 C13.2807819,-0.0794660041 14.2499745,-0.00363675606 15.1717738,0.289016748 C16.1066062,0.58640958 16.989306,1.105366 17.7914373,1.81981969 C18.6018624,2.54138238 19.3269796,3.46199684 19.9347984,4.54730296 C20.5473565,5.64208772 21.037877,6.90274897 21.3719996,8.29255691 L21.4525682,8.62667953 L21.7653638,8.92881169 C22.095932,9.16696292 22.4146518,9.43591979 22.7179688,9.72975812 C23.0236554,10.0259661 23.3139393,10.3482404 23.5888203,10.6953962 C23.8648861,11.0449216 24.1243644,11.4169589 24.3660701,11.8115079 C24.6101455,12.2084267 24.8364484,12.6266724 25.0426092,13.0626905 C25.727442,13.0780934 26.3945025,13.2261974 27.0260179,13.4927846 C27.6646424,13.7617414 28.2653522,14.1503663 28.8162991,14.6432564 C29.3708004,15.139701 29.8707996,15.7404109 30.3008936,16.4276134 C30.7345421,17.1183705 31.0959158,17.8944354 31.3684272,18.7392207 L31.433593,18.9513056 C32.1705585,19.2309259 32.8601307,19.6527261 33.4845372,20.1918247 C34.1124981,20.7356626 34.6729236,21.3979837 35.143302,22.1562761 C35.6160499,22.9181231 35.9999355,23.7747567 36.271262,24.7001104 C36.5437734,25.6290187 36.7025409,26.6230928 36.729792,27.6562663" id="Fill-741" fill="url(#linearGradient-7)"></path>
                </g>
            </g>
            <g id="编组备份-10" transform="translate(96.000000, 48.000000)">
                <g id="Clip-88">
                    <use fill="black" fill-opacity="1" filter="url(#filter-9)" xlink:href="#path-8"></use>
                    <use fill="#D8D5F6" fill-rule="evenodd" xlink:href="#path-8"></use>
                </g>
                <path d="M0.0637406484,4.86 C0.0637406484,3.60435986 0.382983715,2.45933564 0.905893993,1.59683045 C0.975662345,1.4817301 1.04895435,1.37111419 1.12577001,1.26647751 C1.70083037,0.482449827 2.46475859,0.0033633218 3.30127409,0.0033633218 C3.98838665,0.0033633218 4.62546332,0.32549481 5.15048779,0.873342561 C5.21391357,0.939861592 5.27663461,1.01011765 5.33724146,1.08261592 C5.35133608,1.10055363 5.3654307,1.11699654 5.37952531,1.13493426 C6.09059872,2.02584083 6.54374065,3.36519031 6.54374065,4.86 C6.54374065,7.5439308 5.0912904,9.72336332 3.30127409,9.72336332 C2.30478469,9.72336332 1.41189073,9.04397232 0.817097908,7.9766782 C0.805822214,7.95575087 0.794546521,7.93407612 0.783270828,7.91314879 C0.7346444,7.8227128 0.687427435,7.7292872 0.643029392,7.63361938 C0.277978821,6.84585467 0.0637406484,5.89067128 0.0637406484,4.86 Z" id="Fill-1" fill="url(#linearGradient-10)"></path>
                <path d="M1.87433757,4.05490072 C1.86469562,4.0694141 1.85581487,4.08554008 1.84820281,4.10235716 C1.84059074,4.11917425 1.83424735,4.13691283 1.8289189,4.15557289 C1.82384419,4.17446331 1.82003816,4.19381449 1.81775454,4.21385677 L1.81648586,4.25808802 L1.81775454,4.30001556 L1.81775454,4.55204152 L2.007295,4.54881633 L2.04053435,4.55042892 L2.07098262,4.54789484 L3.97831276,4.51679475 C3.98744724,4.51679475 3.99607425,4.51886809 4.00419378,4.52278439 C4.01205959,4.52693107 4.01916418,4.53269035 4.02525384,4.54006223 C4.03108975,4.5474341 4.03616446,4.5561882 4.03946303,4.56609416 C4.04276159,4.57576974 4.04479147,4.58636681 4.04479147,4.597655 L4.04479147,5.00817627 C4.04479147,5.07613574 4.03337337,5.14110039 4.01307453,5.20007538 C3.99277568,5.25882001 3.96334236,5.31180536 3.92731191,5.35603661 C3.89128146,5.40026786 3.84840016,5.435745 3.80120534,5.45993397 C3.75401053,5.48412293 3.70250221,5.49725408 3.64871028,5.4963326 L1.81775454,5.46638436 L1.81775454,5.72025329 L1.81648586,5.76448454 L1.81648586,5.78452683 L1.81775454,5.80641208 C1.81927695,5.81839138 1.82130684,5.83037067 1.82384419,5.8421196 C1.82638155,5.85386852 1.82917264,5.86538708 1.8324712,5.87667526 C1.8360235,5.88796344 1.83982953,5.89879088 1.84414304,5.90938795 C1.84845654,5.91998502 1.85327752,5.93012135 1.85860596,5.93979694 C1.86190453,5.94601696 1.86545682,5.95177623 1.86900912,5.95753551 C1.87256142,5.96306442 1.87636745,5.96859332 1.88042722,5.97389186 C1.88397952,5.97896002 1.88829302,5.98425856 1.89209906,5.98909635 C1.89641256,5.99416451 1.9009798,5.99877194 1.90529331,6.00360973 C1.91189043,6.01029049 1.91848755,6.01651051 1.92508468,6.02250016 C1.93218927,6.02802906 1.93904013,6.03355797 1.94639846,6.03816539 C1.9537568,6.04300318 1.96136886,6.04714986 1.96898093,6.05106617 C1.97684673,6.05475211 1.98522,6.05820768 1.99333954,6.0612025 C1.99714557,6.06235436 2.00095161,6.06327584 2.00501138,6.06419732 C2.00856367,6.06488844 2.01262344,6.06580992 2.01642948,6.06650103 C2.02023551,6.06696178 2.02429528,6.06765289 2.02835505,6.06811363 C2.03241482,6.068344 2.03647459,6.06880475 2.04053435,6.06880475 C2.04484786,6.06903512 2.04916136,6.06903512 2.0529674,6.06903512 C2.05702716,6.06880475 2.06108693,6.06857437 2.0651467,6.068344 C2.06920647,6.06788326 2.0730125,6.06742252 2.07732601,6.06673141 C2.08113204,6.06627066 2.08544555,6.06534918 2.08975905,6.06442769 L4.33303506,6.14851314 C4.38936435,6.15058648 4.44341002,6.16648209 4.49263472,6.19366587 C4.54211315,6.22084966 4.58702435,6.25932163 4.62457721,6.30631733 C4.6623838,6.35331304 4.69308581,6.40906284 4.71439959,6.47011118 C4.73545964,6.53138988 4.74738521,6.5981975 4.74738521,6.66799994 L4.74738521,7.09003976 C4.74738521,7.10155832 4.74560906,7.11238576 4.74180303,7.12229172 C4.737997,7.1319673 4.73292229,7.1407214 4.72632516,7.14809328 C4.71998177,7.15500441 4.71262344,7.16053332 4.70399643,7.16444963 C4.6958769,7.16813556 4.68699615,7.16974816 4.67786167,7.16905705 L2.04053435,6.98452981 C2.02150419,6.98314758 2.00247402,6.98084387 1.98369759,6.97807942 C1.96466742,6.97531496 1.94563726,6.97162903 1.92711456,6.96725198 C1.90859187,6.9631053 1.89006917,6.95780676 1.87180021,6.95227786 C1.85353125,6.94651858 1.83551603,6.93983782 1.81775454,6.93269631 C1.73732037,6.90021399 1.66145344,6.85367903 1.59167616,6.79585589 C1.52215262,6.73803275 1.45897247,6.66892142 1.40340438,6.59059525 C1.34809003,6.51249945 1.29988028,6.42541918 1.26105874,6.33119741 C1.22249094,6.23720601 1.19255014,6.13630347 1.1730125,6.03033277 C1.16895274,6.00729567 1.1651467,5.98379782 1.16184814,5.96006959 C1.15854958,5.93634137 1.15601222,5.91238278 1.1537286,5.88842419 C1.15144498,5.86423522 1.1501763,5.84004626 1.14890763,5.81539655 C1.14789268,5.79120759 1.14738521,5.76678825 1.14738521,5.74236892 L1.14738521,4.27605696 C1.14738521,4.25094651 1.14789268,4.22652718 1.14890763,4.20187747 C1.1501763,4.17768851 1.15144498,4.15349955 1.1537286,4.12931058 C1.15601222,4.10558236 1.15854958,4.08162377 1.16184814,4.05789555 C1.1651467,4.03439769 1.16895274,4.01113022 1.1730125,3.98809311 C1.19255014,3.88166167 1.22249094,3.78029839 1.26105874,3.68607661 C1.29988028,3.59185484 1.34809003,3.50431383 1.40340438,3.42621803 C1.45897247,3.34789186 1.52215262,3.27901091 1.59167616,3.22164851 C1.66145344,3.16382537 1.73732037,3.11752078 1.81775454,3.08572957 C1.83551603,3.07858806 1.85353125,3.0719073 1.87180021,3.0663784 C1.89006917,3.06038875 1.90859187,3.05532058 1.92711456,3.05094353 C1.94563726,3.04679685 1.96466742,3.04311092 1.98369759,3.04057683 C2.00247402,3.03758201 2.02150419,3.03550867 2.04053435,3.03412644 L4.67786167,2.84936883 C4.68699615,2.84867772 4.6958769,2.85029032 4.70399643,2.85420663 C4.71262344,2.85789256 4.71998177,2.86342147 4.72632516,2.87056297 C4.73292229,2.87747411 4.737997,2.88645858 4.74180303,2.89636454 C4.74560906,2.90604012 4.74738521,2.91686756 4.74738521,2.92838612 L4.74738521,3.3483526 C4.74738521,3.41792467 4.73545964,3.48496266 4.71439959,3.54647174 C4.69308581,3.60775045 4.6623838,3.66373062 4.62457721,3.71118706 C4.58702435,3.75841314 4.54211315,3.79711548 4.49263472,3.82452964 C4.44341002,3.85171342 4.38936435,3.8678394 4.33303506,3.86991274 L2.007295,3.95676264 C1.99739931,3.95883598 1.98826483,3.96160043 1.97938409,3.965056 C1.97050334,3.96851156 1.96187633,3.97265824 1.95350306,3.97772641 C1.94512979,3.9825642 1.93701025,3.98832348 1.92939818,3.9945435 C1.92153238,4.00053315 1.91392031,4.00767465 1.90681572,4.01481615 C1.89514388,4.02679545 1.88423325,4.04015697 1.87433757,4.05490072 Z" id="Fill-1" fill="url(#linearGradient-11)"></path>
            </g>
        </g>
    </g>
</svg>