<svg xmlns="http://www.w3.org/2000/svg" xmlns:xlink="http://www.w3.org/1999/xlink" viewBox="0 0 480 455"><defs><style>.cls-1{fill:url(#未命名的渐变_7);}.cls-2{fill:url(#未命名的渐变_8);}.cls-3,.cls-5{fill:none;}.cls-3{stroke:#a89dd6;stroke-miterlimit:10;}.cls-4{opacity:0.3;fill:url(#未命名的渐变_12);}.cls-5{stroke:#83c5cd;stroke-linecap:round;stroke-width:12.5px;}</style><linearGradient id="未命名的渐变_7" x1="415.02" y1="383.39" x2="65.47" y2="383.39" gradientUnits="userSpaceOnUse"><stop offset="0" stop-color="#f5f3fb"/><stop offset="1" stop-color="#beb7e7"/></linearGradient><linearGradient id="未命名的渐变_8" x1="412.92" y1="298.3" x2="69.01" y2="326.54" gradientUnits="userSpaceOnUse"><stop offset="0" stop-color="#8a79be"/><stop offset="0.99" stop-color="#6a549e"/></linearGradient><linearGradient id="未命名的渐变_12" x1="240" x2="240" y2="393.44" gradientUnits="userSpaceOnUse"><stop offset="0.14" stop-color="#8a79be" stop-opacity="0"/><stop offset="0.26" stop-color="#8a79be" stop-opacity="0.11"/><stop offset="0.52" stop-color="#8a79be" stop-opacity="0.39"/><stop offset="0.88" stop-color="#8a79be" stop-opacity="0.85"/><stop offset="1" stop-color="#8a79be"/></linearGradient></defs><title>资源 1</title><g id="图层_2" data-name="图层 2"><g id="图层_2-2" data-name="图层 2"><path class="cls-1" d="M414.5,313.33V353.5C414.5,409.56,336.37,455,240,455S65.5,409.56,65.5,353.5V311.77"/><ellipse class="cls-2" cx="240" cy="312.5" rx="174.5" ry="101.5"/><path class="cls-3" d="M240,390c-42.44,0-82-9.89-111.32-27.84-24.9-15.23-39.18-34.79-39.18-53.66s14.28-38.43,39.18-53.66C158,236.89,197.56,227,240,227s82,9.89,111.32,27.84c24.9,15.23,39.18,34.79,39.18,53.66s-14.28,38.43-39.18,53.66C322,380.11,282.44,390,240,390Z"/><path class="cls-4" d="M480,0H0L89.53,307.37c0,.38,0,.76,0,1.13,0,18.87,14.28,38.43,39.18,53.66C158,380.11,197.56,390,240,390s82-9.89,111.32-27.84c24.9-15.23,39.18-34.79,39.18-53.66,0-.37,0-.75,0-1.13Z"/><path class="cls-5" d="M214.39,209V134.91a31.91,31.91,0,1,1,63.81,0v10.66"/><path class="cls-5" d="M278.2,209.37V283.8a31.91,31.91,0,0,1-63.81,0V273"/><path class="cls-5" d="M246.3,241.26H171.77a31.91,31.91,0,0,1,0-63.81h10.66"/><path class="cls-5" d="M246.3,177.45h74.38a31.91,31.91,0,1,1,0,63.81H310.46"/></g></g></svg>