<svg height="16" viewBox="0 0 1024 1024" width="16" xmlns="http://www.w3.org/2000/svg"><path d="m0 512a512 512 0 1 0 1024 0 512 512 0 1 0 -1024 0z" fill="#cce0f5"/><path d="m306.122105 573.44h-115.334737l-29.103157 96.471579h-42.037895l107.789473-315.823158h42.037895l107.789474 315.823158h-40.96zm-9.701052-31.797895-15.090527-48.505263c-11.856842-35.570526-21.557895-70.063158-31.797894-107.789474-10.24 37.187368-20.48 71.141053-31.797895 107.789474l-15.629474 48.505263zm126.652631-187.553684h90.004211c71.141053 0 118.568421 23.713684 118.568421 92.698947s-47.427368 97.549474-116.412632 97.549474h-53.894737v125.574737h-38.265263zm87.309474 157.911579c53.894737 0 81.92-19.941053 81.92-65.212632s-28.025263-60.362105-83.536842-60.362105h-45.271579v125.574737zm185.397895-157.911579h90.00421c71.141053 0 118.568421 23.713684 118.568421 92.698947s-47.427368 97.549474-116.412631 97.549474h-53.894737v125.574737h-39.882105zm86.770526 157.911579c53.894737 0 81.92-19.941053 81.92-65.212632s-28.025263-60.362105-83.536842-60.362105h-45.271579v125.574737z" fill="#06c"/></svg>