<svg height="16" viewBox="0 0 1024 1024" width="16" xmlns="http://www.w3.org/2000/svg"><path d="m0 512a512 512 0 1 0 1024 0 512 512 0 1 0 -1024 0z" fill="#fff"/><path d="m512 39.385a472.615 472.615 0 1 0 472.615 472.615 472.615 472.615 0 0 0 -472.615-472.615zm157.538 507.273a39.385 39.385 0 0 1 -48.049-19.692c-8.664-18.904 0-32.295 17.33-43.323a120.517 120.517 0 0 1 20.48-11.028c31.507-18.117 57.501-41.747 41.747-78.769a71.68 71.68 0 0 0 -84.283-41.748 66.954 66.954 0 0 0 -65.378 68.53v196.135a157.538 157.538 0 0 1 -157.539 136.27 157.538 157.538 0 0 1 -145.723-166.202c0-45.686 42.535-78.77 98.462-107.126 23.63-7.09 47.261-7.09 59.864 16.541s-11.027 40.96-31.507 50.412c-41.748 18.117-62.228 47.262-42.536 89.797a73.255 73.255 0 0 0 98.462 34.659 69.317 69.317 0 0 0 46.474-74.83v-178.02a137.058 137.058 0 0 1 99.249-139.42 163.84 163.84 0 0 1 173.292 44.898 144.148 144.148 0 0 1 -78.77 222.916z" fill="#7789db"/></svg>