<!--
 * Licensed to the Apache Software Foundation (ASF) under one or more
 * contributor license agreements.  See the NOTICE file distributed with
 * this work for additional information regarding copyright ownership.
 * The ASF licenses this file to You under the Apache License, Version 2.0
 * (the "License"); you may not use this file except in compliance with
 * the License.  You may obtain a copy of the License at
 *
 *     http://www.apache.org/licenses/LICENSE-2.0
 *
 * Unless required by applicable law or agreed to in writing, software
 * distributed under the License is distributed on an "AS IS" BASIS,
 * WITHOUT WARRANTIES OR CONDITIONS OF ANY KIND, either express or implied.
 * See the License for the specific language governing permissions and
 * limitations under the License.
-->
<svg id="Layer_1" data-name="Layer 1" xmlns="http://www.w3.org/2000/svg" viewBox="0 0 1212.29 177.38"><defs><style>.cls-1{fill:#cdcccc;}.cls-2,.cls-3{fill:#1fcfb8;}.cls-2{stroke:#1fcfb8;stroke-width:1.18px;}.cls-2,.cls-4,.cls-5{stroke-miterlimit:10;}.cls-4,.cls-5{fill:none;stroke:#cdcccc;}.cls-4{stroke-width:3.55px;}.cls-5{stroke-width:5px;}.cls-6{fill:#fff;}.cls-7{fill:#009883;}.cls-8{fill:#999;}</style></defs><title>Atlas_Logo_Beta</title><path class="cls-1" d="M288.37,66l23.37,65.13h9.5v10.66H286.9V130h10.91l-6.48-19H261l-6.48,19h9.86v11.84H230.06V131.17h10.42L263.74,66h-10V55.39h45V66Zm-12,0H276l-12.24,35.53h24.6Z" transform="translate(-27.56 -10.31)"/><path class="cls-1" d="M391.69,112a34.17,34.17,0,0,1-3.78,15.82,29.78,29.78,0,0,1-10.32,11.62,26,26,0,0,1-14.5,4.25q-11.74,0-20.54-9.32v24H354.4v9.47H320.05v-9.47h10.66V92.1h-9.47V81.44h21.31V91.1a29.47,29.47,0,0,1,9.58-7.88,24.91,24.91,0,0,1,11.18-2.59,26.3,26.3,0,0,1,14.75,4.23,28.79,28.79,0,0,1,10.05,11.42A34.73,34.73,0,0,1,391.69,112Zm-27.88,20.38a14.71,14.71,0,0,0,8.85-2.85,19.1,19.1,0,0,0,6.17-7.77,24.78,24.78,0,0,0,2.23-10.39,21.53,21.53,0,0,0-2.46-10.2,19.54,19.54,0,0,0-6.74-7.42A17.34,17.34,0,0,0,362.21,91a17.84,17.84,0,0,0-10,2.94,20,20,0,0,0-6.91,7.8,23.36,23.36,0,0,0-2.45,10.67q0,9.38,5.91,14.68T363.81,132.37Z" transform="translate(-27.56 -10.31)"/><path class="cls-1" d="M452.68,102.81v28.36h9.48v10.66H442v-7.36q-8.46,8.39-18.84,8.39a20,20,0,0,1-10-2.57,20.37,20.37,0,0,1-7.28-6.88,18.25,18.25,0,0,1,.28-19.64,19.85,19.85,0,0,1,8.15-6.83,24.23,24.23,0,0,1,10.33-2.4,28.11,28.11,0,0,1,16.18,5.14V103q0-7.17-3-10.27t-10-3.09a17,17,0,0,0-8.19,1.78,14.27,14.27,0,0,0-5.46,5.4L402.63,94a25.87,25.87,0,0,1,10.56-10.88A32.87,32.87,0,0,1,429,79.53q12.31,0,18,5.6T452.68,102.81Zm-28.11,30.53q8.67,0,16.27-7.25v-7q-7.71-6-15.42-6a12,12,0,0,0-8.08,2.94,9.87,9.87,0,0,0-.42,14.5A10.61,10.61,0,0,0,424.57,133.34Z" transform="translate(-27.56 -10.31)"/><path class="cls-1" d="M515.45,85.74v-4.3H526.1v22.5H515.45A13.49,13.49,0,0,0,510.12,94,17.57,17.57,0,0,0,499.4,90.6a16.65,16.65,0,0,0-9.35,2.71,18,18,0,0,0-6.41,7.35,22.85,22.85,0,0,0-2.25,10.12q0,9.33,5.09,15.23a16.89,16.89,0,0,0,13.44,5.91q12.91,0,18.25-11.7l10,4.63q-8.4,17.76-28.73,17.75a31.11,31.11,0,0,1-16.16-4.18A28.64,28.64,0,0,1,472.32,127a34.07,34.07,0,0,1-3.85-16.17A32.33,32.33,0,0,1,472.38,95a28.42,28.42,0,0,1,10.74-11.11,29.68,29.68,0,0,1,15.24-4A26,26,0,0,1,515.45,85.74Z" transform="translate(-27.56 -10.31)"/><path class="cls-1" d="M578,79.83q16.83,0,16.83,18.1v33.24h10.65v10.66H583V102.55c0-4.31-.63-7.33-1.88-9.08a6.58,6.58,0,0,0-5.78-2.63q-6.62,0-17.21,7.71v32.62h10.65v10.66H535.58V131.17h10.66V66H535.58V55.39h22.5V88.45Q568.76,79.83,578,79.83Z" transform="translate(-27.56 -10.31)"/><path class="cls-1" d="M675.25,114.6H624.94q1.08,8.63,6.68,13.62a19.84,19.84,0,0,0,13.71,5,25.09,25.09,0,0,0,11-2.45,21.5,21.5,0,0,0,8.51-7.54l10.39,4.68a31.58,31.58,0,0,1-12.88,11.56A38.73,38.73,0,0,1,645,143.38a35.72,35.72,0,0,1-17.24-4.06A29.3,29.3,0,0,1,616.06,128a34,34,0,0,1,0-32.61,29.71,29.71,0,0,1,11.33-11.33,33.75,33.75,0,0,1,32.41.11,29.3,29.3,0,0,1,11.1,12A42.4,42.4,0,0,1,675.25,114.6ZM643.44,90a17,17,0,0,0-11.7,4.48,20.57,20.57,0,0,0-6.45,11.85h37.57a20.91,20.91,0,0,0-7-11.85A18.77,18.77,0,0,0,643.44,90Z" transform="translate(-27.56 -10.31)"/><path class="cls-2" d="M765.6,66,789,131.17h9.5v10.66H764.13V130H775l-6.48-19H738.25l-6.48,19h9.86v11.84H707.29V131.17h10.42L741,66H731V55.39h45V66Zm-12.34,0h-.4l-12.25,35.53h24.61Z" transform="translate(-27.56 -10.31)"/><path class="cls-2" d="M834,81.44V92.1H823.34v31.74q0,4.95,1,6.42a4,4,0,0,0,3.53,1.47,18,18,0,0,0,6.1-1.1v10.11a33,33,0,0,1-8.74,1.58q-7.32,0-10.54-3.7T811.49,126V92.1H803.2V81.44h7.11V72.3l13-10.79V81.44Z" transform="translate(-27.56 -10.31)"/><path class="cls-2" d="M875.44,131.17v10.66h-32V131.17h10.66V66H843.47V55.39H866v75.78Z" transform="translate(-27.56 -10.31)"/><path class="cls-2" d="M935.83,102.81v28.36h9.48v10.66H925.18v-7.36q-8.46,8.39-18.83,8.39a20,20,0,0,1-10-2.57,20.26,20.26,0,0,1-7.27-6.88,18.25,18.25,0,0,1,.28-19.64,19.78,19.78,0,0,1,8.15-6.83,24.08,24.08,0,0,1,10.31-2.4A28.08,28.08,0,0,1,924,109.68V103q0-7.17-3-10.27t-10-3.09a17.06,17.06,0,0,0-8.2,1.78,14.27,14.27,0,0,0-5.46,5.4L885.78,94a25.87,25.87,0,0,1,10.56-10.88,32.9,32.9,0,0,1,15.81-3.59q12.32,0,18,5.6T935.83,102.81Zm-28.11,30.53q8.68,0,16.27-7.25v-7q-7.71-6-15.41-6a12,12,0,0,0-8.09,2.94,9.87,9.87,0,0,0-.42,14.5A10.62,10.62,0,0,0,907.72,133.34Z" transform="translate(-27.56 -10.31)"/><path class="cls-2" d="M990.31,83.63V81.44H1001v20.13H990.31V97.91a16,16,0,0,0-13.87-7.36,12.86,12.86,0,0,0-7.56,2A6.23,6.23,0,0,0,966,97.91a5.37,5.37,0,0,0,2.22,4.57q2.24,1.67,10,2.92l7.84,1.54q17.54,3.25,17.54,17.41a16.15,16.15,0,0,1-6.35,13.31q-6.33,5-16.83,5a28.28,28.28,0,0,1-8.2-1.22,25,25,0,0,1-6.74-3.06v2.25H954.78V120.52h10.66v2a10.58,10.58,0,0,0,4.76,7,16,16,0,0,0,9.11,2.62q5.7,0,9-2a6.64,6.64,0,0,0,3.27-6,4.73,4.73,0,0,0-2.6-4.37c-1.73-1-5.2-2-10.43-3l-6-1.32q-9-1.82-13.14-6.28a16,16,0,0,1-4.17-11.36,15.17,15.17,0,0,1,3.07-9.57,19,19,0,0,1,7.87-6,25.41,25.41,0,0,1,9.86-2Q984.5,80.26,990.31,83.63Z" transform="translate(-27.56 -10.31)"/><path class="cls-3" d="M103.94,10.31,27.56,58.51v80.66l76.38,48.2,76.38-48.2V58.51Zm56.25,118.23L103.94,164l-56.25-35.5V69.14l56.25-35.5,56.25,35.5Z" transform="translate(-27.56 -10.31)"/><circle class="cls-4" cx="62.76" cy="122.05" r="4.74"/><circle class="cls-4" cx="107.76" cy="80.6" r="5.33"/><circle class="cls-5" cx="59.21" cy="81.79" r="8.5"/><line class="cls-4" x1="59" y1="90.19" x2="61.96" y2="117.39"/><line class="cls-4" x1="102.43" y1="81.79" x2="68" y2="82.19"/><g id="search"><path class="cls-3" d="M111.8,108.67h-3.25l-1.22-1.21a25.44,25.44,0,0,0,6.5-17.06,26.39,26.39,0,1,0-26.39,26.4,25.43,25.43,0,0,0,17-6.5l1.22,1.22v3.24L126,135.07,132.1,129Zm-24.36,0A18.27,18.27,0,1,1,105.71,90.4,18.19,18.19,0,0,1,87.44,108.67Z" transform="translate(-27.56 -10.31)"/></g><path class="cls-6" d="M103.62,37.74" transform="translate(-27.56 -10.31)"/><polygon class="cls-7" points="152.76 48.1 132.63 58.73 132.63 118.24 75.79 154.11 75.79 177.38 152.76 128.81 152.76 48.1"/><path class="cls-8" d="M1035.64,142.74V99.29h12.92a28.58,28.58,0,0,1,6.06.59,14.18,14.18,0,0,1,4.7,1.86,8.89,8.89,0,0,1,3,3.28,10.06,10.06,0,0,1,1.09,4.86,10.94,10.94,0,0,1-1.62,5.87,8.37,8.37,0,0,1-4.74,3.6v.27a11.48,11.48,0,0,1,6.43,3.31A9.9,9.9,0,0,1,1066,130a12.21,12.21,0,0,1-1.2,5.56,10.87,10.87,0,0,1-3.37,4,15.48,15.48,0,0,1-5.24,2.38,26.45,26.45,0,0,1-6.69.8Zm5.5-25h6.42q5.57,0,8-1.93a6.29,6.29,0,0,0,2.45-5.23c0-2.52-.85-4.3-2.55-5.36s-4.25-1.59-7.65-1.59h-6.69Zm0,20.6h7.55c3.75,0,6.67-.7,8.74-2.09a7.22,7.22,0,0,0,3.11-6.46,6.47,6.47,0,0,0-3-5.93q-3-1.89-8.81-1.89h-7.55Z" transform="translate(-27.56 -10.31)"/><path class="cls-8" d="M1074.59,142.74V99.29h25v4.63h-19.54v13.65h16.5v4.7h-16.5V138h20.21v4.71Z" transform="translate(-27.56 -10.31)"/><path class="cls-8" d="M1118.5,142.74V103.92h-13.11V99.29h31.79v4.63h-13.11v38.82Z" transform="translate(-27.56 -10.31)"/><path class="cls-8" d="M1136.58,142.74l14.71-43.45h6.23l14.7,43.45h-5.89l-4.11-13.25h-15.83l-4.18,13.25Zm13.25-24.31-2,6.62h13l-2.06-6.62q-1.18-3.65-2.25-7.26c-.71-2.4-1.41-4.86-2.12-7.38h-.26c-.67,2.52-1.35,5-2.06,7.38S1150.63,116,1149.83,118.43Z" transform="translate(-27.56 -10.31)"/><path class="cls-8" d="M1207.06,143.53a19.44,19.44,0,0,1-6.19-1,11.87,11.87,0,0,1-5-3.18,15.56,15.56,0,0,1-3.28-5.79,28.3,28.3,0,0,1-1.19-8.81V99.29h5.5v25.63a23.21,23.21,0,0,0,.79,6.56,11.71,11.71,0,0,0,2.15,4.24,7.79,7.79,0,0,0,3.21,2.28,11.37,11.37,0,0,0,4,.7,11.5,11.5,0,0,0,4-.7,8,8,0,0,0,3.25-2.28,11.43,11.43,0,0,0,2.18-4.24,23.18,23.18,0,0,0,.8-6.56V99.29h5.29v25.5a28,28,0,0,1-1.19,8.81,15.42,15.42,0,0,1-3.28,5.79,11.86,11.86,0,0,1-4.93,3.18A19.17,19.17,0,0,1,1207.06,143.53Z" transform="translate(-27.56 -10.31)"/><path class="cls-8" d="M1234.35,142.74V99.29h5.5v43.45Z" transform="translate(-27.56 -10.31)"/></svg>