<?xml version="1.0" encoding="UTF-8"?>
<svg width="120px" height="100px" viewBox="0 0 120 100" version="1.1" xmlns="http://www.w3.org/2000/svg" xmlns:xlink="http://www.w3.org/1999/xlink">
    <!-- Generator: Sketch 64 (93537) - https://sketch.com -->
    <title>txy</title>
    <desc>Created with Sketch.</desc>
    <defs>
        <linearGradient x1="48.9775399%" y1="0%" x2="48.9775399%" y2="85.5108732%" id="linearGradient-1">
            <stop stop-color="#E2DFEE" offset="0%"></stop>
            <stop stop-color="#F3F5F8" stop-opacity="0" offset="100%"></stop>
        </linearGradient>
        <linearGradient x1="50%" y1="118.903351%" x2="50%" y2="50%" id="linearGradient-2">
            <stop stop-color="#F5F4F8" offset="0%"></stop>
            <stop stop-color="#E0DCE9" offset="100%"></stop>
        </linearGradient>
        <linearGradient x1="50%" y1="118.903351%" x2="50%" y2="50%" id="linearGradient-3">
            <stop stop-color="#F5F4F8" offset="0%"></stop>
            <stop stop-color="#E0DCE9" offset="100%"></stop>
        </linearGradient>
        <linearGradient x1="50%" y1="118.903351%" x2="50%" y2="50%" id="linearGradient-4">
            <stop stop-color="#F5F4F8" offset="0%"></stop>
            <stop stop-color="#E0DCE9" offset="100%"></stop>
        </linearGradient>
        <linearGradient x1="50%" y1="118.903351%" x2="50%" y2="50%" id="linearGradient-5">
            <stop stop-color="#F5F4F8" offset="0%"></stop>
            <stop stop-color="#E0DCE9" offset="100%"></stop>
        </linearGradient>
        <linearGradient x1="50%" y1="118.903351%" x2="50%" y2="50%" id="linearGradient-6">
            <stop stop-color="#F5F4F8" offset="0%"></stop>
            <stop stop-color="#E0DCE9" offset="100%"></stop>
        </linearGradient>
        <linearGradient x1="48.9775399%" y1="0%" x2="48.9775399%" y2="85.5108732%" id="linearGradient-7">
            <stop stop-color="#E2DFEE" offset="0%"></stop>
            <stop stop-color="#F3F5F8" stop-opacity="0" offset="100%"></stop>
        </linearGradient>
    </defs>
    <g id="0824-云资源引导信息" stroke="none" stroke-width="1" fill="none" fill-rule="evenodd">
        <g id="txy">
            <rect id="矩形" x="0" y="0" width="120" height="100"></rect>
            <g id="编组-3" transform="translate(0.000000, 3.000000)">
                <ellipse id="椭圆形" fill="url(#linearGradient-1)" opacity="0.8" cx="56.2" cy="77.6" rx="49.2" ry="15.6"></ellipse>
                <g id="编组-2" transform="translate(19.000000, 27.000000)">
                    <path d="M0.002612736,25.7759588 C0.000870912,34.2340073 2.84217094e-14,38.582222 2.84217094e-14,38.8206031 C2.84217094e-14,39.1781747 0.604288512,47.7460825 18.2697431,47.7476757 C35.9351977,47.7490685 58.1128474,47.1570788 62.3600364,47.1570788 C66.6072253,47.1570788 74.5542684,43.7394772 74.5542684,38.8206031 C74.5542684,35.068963 74.5166215,30.782583 74.4413276,25.961463 L66.6072253,33.2853353 L39.4765747,36.5125988 L11.7726152,35.3714183 L0.002612736,25.7759588 Z" id="路径-2" fill="url(#linearGradient-2)"></path>
                    <path d="M69.3931484,25.077985 L66.6072253,31.2708625 C65.3989832,28.6989705 62.4581622,27.5407997 57.7847624,27.7963502 C53.1113626,28.0519006 47.8583946,30.4487749 42.0258586,34.9869729 L26.4438743,36.5125988 L33.7513236,28.0647155 L55.5900227,16.6082963 L66.6072253,19.1747327 L69.3909827,24.5513321 L69.3931484,25.077985 Z" id="路径-3" fill="url(#linearGradient-3)"></path>
                    <polygon id="路径-4" fill="#E8E5EE" points="34.8882371 20.6057275 34.8882371 25.6415895 30.0847427 29.1788608 30.2450319 23.3722416"></polygon>
                    <path d="M27.3284721,30.5721956 C24.2267812,28.3251197 20.8587156,27.409418 17.2242755,27.8250903 C13.5898353,28.2407626 10.4803062,29.3893533 7.89568819,31.2708625 L3.29800627,25.7759588 L7.89568819,18.8708708 L17.2739174,16.6082963 L26.8615388,18.8708708 L30.9433789,22.3424504 L31.0482616,27.8250903 L27.3284721,30.5721956 Z" id="路径-5" fill="url(#linearGradient-4)"></path>
                    <polygon id="路径-6" fill="url(#linearGradient-5)" points="59.0873979 10.8460388 59.0873979 14.9010788 52.1293087 15.3250148 52.2767416 10.8460388 57.1759949 10.2466025"></polygon>
                    <path d="M52.2767416,10.9229278 L52.2767416,15.3250148 L47.831358,16.9746788 C43.7200573,15.257921 39.7546706,14.5151246 35.9351977,14.7462895 C32.1157248,14.9774545 29.2996931,16.4536022 27.4871025,19.1747327 L19.4283049,15.3250148 L22.7057956,8.81032338 L27.89133,4.53307875 L42.4572884,3.74955789 L53.1064719,8.07986053 L52.2767416,10.9229278 Z" id="路径-7" fill="url(#linearGradient-6)"></path>
                    <path d="M67.7206241,25.9920693 C67.7206241,24.0362498 66.6008801,22.1700098 64.5965384,20.8188521 C62.5324769,19.4900892 59.8637537,18.7174658 57.1017185,18.6950709 L56.8591073,18.6950709 C54.126932,18.6950709 51.4880686,19.4452994 49.5770388,20.8188521 C48.7558932,21.3115394 47.9384801,21.8079593 47.1471944,22.3417039 L43.567746,24.7864783 C40.869163,26.611661 36.1923656,29.7656066 31.0042184,33.2853353 L56.7993876,33.2853353 L57.1614382,33.2853353 C59.9234734,33.2853353 62.5921966,32.5351068 64.5965384,31.1615541 C66.6008801,29.8103964 67.7206241,27.9665513 67.7206241,25.9920693 Z M74.5510625,26.0331266 C74.5212027,29.2505244 72.6400328,32.3223554 69.3927752,34.550646 C66.2985492,36.5251279 62.4130376,37.7045916 58.2849147,37.9210754 C56.2805729,38.1151644 54.2799636,38.1786165 52.2756219,38.1375593 L19.594027,38.1375593 C18.4108308,38.1562217 17.1977748,38.1375593 16.0145787,38.0293173 L14.8015227,37.9210754 C11.188482,37.6859292 7.82178509,36.5699177 5.24264141,34.7671298 C-1.61765683,30.0231477 -1.76695603,22.2782517 4.94031053,17.4297602 C7.45600205,15.5187305 10.8264315,14.2310249 14.5253192,13.8241845 C16.2571899,6.48612886 24.745846,0.860068596 35.2517806,0.200632545 C41.7761556,-0.208889148 47.1471944,1.4902846 50.1518408,2.96640022 C54.0800893,4.89626095 57.4376417,7.53495574 59.16578,10.9053852 C58.7999969,10.8829903 58.4080865,10.8829903 58.0124436,10.8829903 C56.2208532,10.8829903 54.1866516,11.0994741 52.2756219,11.5287093 C49.5770388,7.40805142 43.7207777,4.76918806 37.2859822,4.76918806 C25.3760118,4.53307875 22.4755016,10.9912322 21.5685089,13.5031913 L21.3856174,13.9958786 L21.9604193,14.1265154 C23.9946209,14.5109609 25.9653704,15.2387945 27.6972411,16.160717 L29.8807419,17.47455 C31.5491604,18.4375298 33.4937825,19.6169935 34.88973,20.6061007 L34.88973,20.8188521 L30.3958241,23.9727977 L30.0934932,23.9727977 C28.9102971,23.1367221 25.57346,21.4645711 24.4201236,20.6061007 C22.6882529,19.34079 20.3853128,18.586829 17.9256084,18.4823196 L17.1977748,18.4823196 L16.8319918,18.4823196 C14.1632686,18.4823196 11.5841249,19.2325481 9.70295501,20.6061007 C5.75772365,23.5883522 5.88089549,28.2651497 10.0052859,31.1615541 C12.1589268,32.490317 14.9508219,33.2629404 17.8024366,33.2629404 L21.5685089,33.2629404 L41.7761556,19.34079 C43.2056955,18.2882306 44.6912225,17.2991234 46.2663291,16.3772009 C49.4837268,14.6415977 53.3692385,13.6748853 57.3741896,13.6524905 C62.0472545,13.6524905 66.5075681,15.0260431 69.6652462,17.4521551 C72.8490516,19.7252354 74.640642,22.8381237 74.5510625,26.0331266 Z" id="Fill-185" fill="#6A549E"></path>
                </g>
                <rect id="矩形" fill="url(#linearGradient-7)" opacity="0.8" transform="translate(15.600000, 39.600000) rotate(45.000000) translate(-15.600000, -39.600000) " x="10.8" y="22.8" width="9.6" height="33.6" rx="4.704"></rect>
                <rect id="矩形" fill="url(#linearGradient-7)" opacity="0.8" transform="translate(99.600000, 58.800000) rotate(45.000000) translate(-99.600000, -58.800000) " x="94.8" y="42" width="9.6" height="33.6" rx="4.704"></rect>
                <rect id="矩形" fill="url(#linearGradient-7)" opacity="0.8" transform="translate(96.000000, 15.600000) rotate(45.000000) translate(-96.000000, -15.600000) " x="91.2" y="-1.2" width="9.6" height="33.6" rx="4.704"></rect>
            </g>
        </g>
    </g>
</svg>