<svg id="图层_1" data-name="图层 1" xmlns="http://www.w3.org/2000/svg" viewBox="0 0 52 52"><defs><style>.cls-1{fill:#00c1de;}</style></defs><title>开源组件图标设计-</title><path class="cls-1" d="M40.08,3a8.92,8.92,0,1,1-8.91,8.92A8.93,8.93,0,0,1,40.08,3m0-3A11.92,11.92,0,1,0,52,11.92,11.91,11.91,0,0,0,40.08,0Z"/><path class="cls-1" d="M20.83,3V20.83H3V3H20.83m3-3H0V23.83H23.83V0Z"/><path class="cls-1" d="M20.83,31.17V49H3V31.17H20.83m3-3H0V52H23.83V28.17Z"/><path class="cls-1" d="M49,31.17V49H31.17V31.17H49m3-3H28.17V52H52V28.17Z"/></svg>