<svg width="51" height="50" viewBox="0 0 51 50" fill="none" xmlns="http://www.w3.org/2000/svg">
<path d="M35.6287 17.0286C34.8001 16.8571 34.2858 16.8571 33.8572 16.8571C33.3144 19.0857 32.0287 21.4857 32.1144 21.6857C33.5715 23.9714 34.6572 24.3428 35.6001 24.6571C36.6284 24.9999 37.0953 26.9048 37.3429 27.5714L42.1429 27.4286C41.7772 26.8571 41.1715 26.6381 40.9144 26.6C40.8668 26.4857 40.9087 26.2857 41.4572 26.4C42.0058 26.5143 42.5049 27.1333 42.6858 27.4286L43.1144 27.3714C42.9715 27.1143 42.6058 26.5314 42.2858 26.2571C41.8858 25.9143 40.5144 25.5714 40.5144 25.4286C40.4572 25.0286 37.4858 20.8 37.4287 20.4286C37.2001 18.6 36.1334 17.4 35.6287 17.0286Z" fill="#F8F9F9"/>
<path d="M45.8 26.8571C45.8457 27.1543 45.6667 28.8857 45.5714 29.7143L41.4571 36.2571L26.4857 48L18.2 42.2286C14.7524 40.8571 7.72571 38.0171 7.2 37.6286C6.67429 37.24 3.51429 31.9619 2 29.3714L3.77143 26.2857L5.71429 24.7714L37.9714 24.3428C40.5619 25.0571 45.7543 26.56 45.8 26.8571Z" fill="#1F4F69"/>
<path d="M11 32.4001L2.79999 29.8001L7.6857 37.1429L18.0857 41.3429L26.6 47.5429L41.0286 36.0286L44.8286 30.2572L31.3428 33.6001L11 32.4001Z" fill="#8DC8E5"/>
<path d="M16.1906 40.5771L2.80243 29.794L7.62852 37.1428L16.1906 40.5771Z" fill="#5FA2C8"/>
<path d="M10.9714 32.4L3.22852 29.9428L17.2285 40.8571L10.9714 32.4Z" fill="#67AFDA"/>
<path d="M45.4856 27.1428L45.2856 29.3714L31.4571 32.9714L10.6571 31.8571L2.34277 29.3714L3.99992 26.4285L5.79992 24.9714L37.9428 24.6L45.4856 27.1428Z" fill="#DDE7F4"/>
<path d="M48.2 15.1714L50.7143 18.5143C50.4629 18.9257 49.9619 19.3143 49.7429 19.4571C49.2857 19.3657 47.8952 19.5714 47.2571 19.6857L45.1429 19.0857C44.3886 18.24 43.5905 17.9143 43.2857 17.8571C40.3829 17.1486 37.5048 16.9714 36.4286 16.9714C37.5029 17.8171 37.8667 19.6095 37.9143 20.4C38.5314 22.0457 40.3429 24.2286 41.1714 25.1143C43.1429 25.7714 43.4 26.6286 43.3714 27.2286C43.3486 27.7086 42.8857 27.9238 42.6571 27.9714L37.1429 28.0571C37.0191 28.0667 36.7714 28.04 36.7714 27.8571C36.4571 26.1429 35.5429 25.1429 35.3429 24.9714C35.1429 24.8 34.7714 24.8571 34.0571 24.4571C33.3429 24.0571 32.0857 22.3429 31.8571 22.3429C31.6743 22.3429 31.2286 22.8762 31.0286 23.1429C31.1143 24.2952 31.3029 26.6286 31.3714 26.7429C31.4571 26.8857 32.1429 27.1143 32.2857 27.1429C32.4286 27.1714 33.1714 26.9429 33.3429 26.9714C33.48 26.9943 34.0667 27.4 34.3429 27.6C34.5714 27.8514 34.9524 28.8667 35.1143 29.3429L34.7714 29.4857H34.5143L34.3429 29.7429H33.9143L33.4857 30.0857L27.9429 29.7429C27.5771 28.1429 26.0381 26.7524 25.3143 26.2571C25.4057 25.8686 24.781 23.3524 24.4571 22.1429C24.2743 21.9829 22.8381 22.2095 22.1429 22.3429C22.181 22.5714 22.2343 23.2057 22.1429 23.9143C22.0514 24.6229 21.5333 25.219 21.2857 25.4286L21.7429 26.1143C21.8952 26.0381 22.3486 25.9314 22.9429 26.1143C23.7429 26.32 24.2857 27.3619 24.4571 27.8571L23.6286 28.4H18.2857L15.4286 25.6L15.8571 22.3429L14.4857 21.8C13.8476 22.8381 12.5029 24.9886 12.2286 25.2857C11.9543 25.5829 10.9524 25.9048 10.4857 26.0286L10.2857 26.7429L11.4286 27.4857C11.8171 28.1486 11.9143 28.9238 11.9143 29.2286L8.85715 30.7714L5.42858 29.7714L4.22858 26.2286L5.42858 20.9714C5.37143 18.1714 5.27429 12.5371 5.34286 12.4C5.42858 12.2286 8.37143 7.25714 9.40001 6.6C10.2229 6.07429 14.2381 4.95238 16.1429 4.45714L21.8571 4L28.4286 5.91429L34.3714 5.62857L46.0857 11.4571L46.7714 11.2571C46.8 11.4286 46.6857 11.6857 46.6571 11.7429C46.6343 11.7886 46.6476 11.9143 46.6571 11.9714C46.7048 11.9905 46.8057 12.0343 46.8286 12.0571C46.8514 12.08 47.7524 13.6667 48.2 14.4571V15.1714Z" fill="#1F4F6A"/>
<path d="M44.8285 30.2572L31.3428 33.6L26.4285 47.4L26.5999 47.5429L41.0285 36.0286L44.8285 30.2572Z" fill="#B2D7E9"/>
<path d="M41.0285 36.0286L28.2285 42.7429L26.5999 47.5429L41.0285 36.0286Z" fill="#8DC8E5"/>
<path d="M47.9143 15.2286L49.9715 18.0857C49.6286 18.2686 49.6001 18.8667 49.6286 19.1429C48.8001 19.2476 47.1258 19.4457 47.0572 19.4C46.8058 19.24 45.7905 18.9905 45.3143 18.8857C43.6001 17.4286 43.5143 17.5143 43.4572 17.5143C43.4001 17.5143 43.3048 17.5429 43.2572 17.5714C36.0286 16.0572 33.3429 16.4286 33.0572 16.4572C32.7715 16.4857 32.5715 16.6857 32.7715 16.6857C33.1829 16.6629 33.2477 16.7524 33.2286 16.8C33.1429 17.7429 32.7429 18.7143 32.3143 19.8286C30.9143 23.1714 29.7143 23.8 29.8001 23.8C29.8686 23.8 30.2477 23.6286 30.4286 23.5429L30.7715 26.6286C30.7429 26.6476 30.6629 26.6972 30.5715 26.7429C30.4572 26.8 29.1429 26.8286 29.5715 26.9714C30.1429 27.1772 30.9143 27.2095 31.2286 27.2C31.6001 27.3143 31.5429 27.4857 31.8001 27.4857C32.0572 27.4857 32.6858 27.2 33.2286 27.4C34.3143 27.6857 34.6286 29 34.6001 29.0857C34.5715 29.1714 34.3715 29.2 34.2858 29.1429C34.2001 29.0857 34.1715 28.7714 34.0286 28.5714C33.3143 27.6572 32.4572 27.8 32.6286 27.8572C33.6286 28.4572 33.7715 29.1143 33.8001 29.3143C33.8286 29.5143 33.5715 29.6572 33.4572 29.4857C33.1143 28.7143 32.7715 28.5429 32.4572 28.4286C32.1429 28.3143 31.8572 28.4 31.9143 28.4572C32.8286 28.7543 32.981 29.381 32.9429 29.6572L28.3143 29.3143C27.2858 26.9429 26.0001 26.2 25.8572 26.0286C25.6858 25.6857 23.7143 16.2572 23.6001 16.5714C23.4401 17.0743 24.0096 19.9429 24.3143 21.3143C18.6001 22.2857 18.1429 22.1429 17.1143 22.1429C16.2915 22.1429 14.2762 21.2476 13.3715 20.8C13.4172 21.0057 13.9048 21.3429 14.1429 21.4857C13.3334 22.6953 11.7029 25.1314 11.6572 25.2C11.6115 25.2686 9.86672 25.9143 9.00006 26.2286C8.20006 25.9334 6.58291 25.4057 6.51434 25.6572C6.44577 25.9086 8.02863 26.4095 8.82863 26.6286L9.88577 26.2286C9.86672 26.3143 9.80577 26.5086 9.71434 26.6C9.60006 26.7143 8.91434 26.9143 8.71434 26.9714C8.55434 27.0172 8.22863 27.2 8.08577 27.2857V27.5429C8.60958 27.3334 9.76006 26.9486 10.1715 27.0857C10.6858 27.2572 10.9143 27.4572 11.1715 27.7714C11.3772 28.0229 11.5239 28.5619 11.5715 28.8L11.0858 29.0286C10.9715 28.4286 10.7715 28.1143 10.6858 27.9714C10.6001 27.8286 9.77148 27.4 9.82863 27.5429C9.88577 27.6857 10.2858 27.8572 10.4858 28.0286C10.6458 28.1657 10.8382 28.8095 10.9143 29.1143L10.1715 29.4857C10.1429 29.0286 9.88577 28.4286 9.82863 28.3143C9.77148 28.2 9.31434 28.0286 9.0572 27.9714C8.80006 27.9143 8.80006 27.9714 8.80006 28.0286C8.80006 28.0857 9.54291 28.5143 9.6572 28.5714C9.74863 28.6172 9.90482 29.2953 9.97148 29.6286L9.0572 30.0857C9.0572 29.8 8.88577 29.3429 8.80006 29.1143C8.71434 28.8857 8.0572 28.6 7.94291 28.5714C7.82863 28.5429 7.74291 28.6286 7.77148 28.6857C7.80006 28.7429 8.48577 29.1429 8.60006 29.3429C8.69148 29.5029 8.77148 30 8.80006 30.2286L5.80006 29.3429L4.77148 26.2857C5.12387 24.6476 5.83434 21.3429 5.8572 21.2286C5.88006 21.1143 5.80958 15.4095 5.77148 12.5714C6.94291 10.781 9.34863 7.14859 9.60006 6.94288C9.85148 6.73716 14.0477 5.50478 16.1143 4.9143L21.7715 4.48573L28.2001 6.45716L34.2286 6.22859C39.5429 8.68573 46.4001 12.3429 46.5429 12.4572C46.6572 12.5486 47.5048 13.981 47.9143 14.6857V15.2286Z" fill="#F8F9F9"/>
<path d="M28.0946 42.7123L18.0854 41.3429L26.4854 47.4572L28.0946 42.7123Z" fill="#5D9CD1"/>
<path d="M35.6287 17.0286C34.8001 16.8571 34.2858 16.8571 33.8572 16.8571C33.3144 19.0857 32.0287 21.4857 32.1144 21.6857C33.5715 23.9714 34.6572 24.3428 35.6001 24.6571C36.6284 24.9999 37.0953 26.9048 37.3429 27.5714L42.1429 27.4286C41.7772 26.8571 41.1715 26.6381 40.9144 26.6C40.8668 26.4857 40.9087 26.2857 41.4572 26.4C42.0058 26.5143 42.5049 27.1333 42.6858 27.4286L43.1144 27.3714C42.9715 27.1143 42.6058 26.5314 42.2858 26.2571C41.8858 25.9143 40.5144 25.5714 40.5144 25.4286C40.4572 25.0286 37.4858 20.8 37.4287 20.4286C37.2001 18.6 36.1334 17.4 35.6287 17.0286Z" fill="#F8F9F9"/>
<path d="M17.5143 22.8572C17.0571 22.8343 16.5429 22.6191 16.3429 22.5143C16.0914 23.4057 16.0095 24.8095 16 25.4L18.8857 28.0286C20.3333 28.0286 23.2286 28.0114 23.2286 27.9429C23.2286 27.6686 22.6762 27.0476 22.4 26.7714C22.5333 26.8286 22.8514 26.9772 23.0571 27.1143C23.3143 27.2857 23.7143 28.0286 23.7714 28.0286C23.9086 28.0286 24.0571 27.9333 24.1143 27.8857C24.0286 27.6572 23.7314 27.0914 23.2286 26.6572C22.6 26.1143 21.6857 26.6286 21.5429 26.6572C21.4286 26.68 21.1714 26.1333 21.0571 25.8572C21.0286 25.7905 20.9543 25.6686 20.8857 25.7143C20.4514 25.9886 19.8476 26.0762 19.6 26.0857C19.9143 26.0286 21.0286 25.1714 21.4286 24.5714C21.7486 24.0914 21.8476 22.9048 21.8571 22.3714C20.6 22.5429 17.9714 22.88 17.5143 22.8572Z" fill="#FEFFFF"/>
<path d="M11.2858 16.8L11.6286 18.3143C12.0674 19.2007 12.9843 20.9661 13.3394 21.3451C13.3604 21.3643 13.3806 21.3826 13.4 21.4C13.3823 21.3877 13.3619 21.3692 13.3394 21.3451C12.7735 20.8274 11.6604 19.662 11.2858 18.7143C11.1143 18.3714 11.0572 17.0286 11.0858 16.8857C11.1086 16.7714 11.2286 16.7809 11.2858 16.8Z" fill="#224D6F"/>
<path d="M47.5141 15.1714L46.5427 14.2857L46.1141 14.9429C46.457 14.92 47.1903 15.0857 47.5141 15.1714Z" fill="#1F4B63"/>
<path d="M44.0857 12.7715L43.9428 11.8572L43.2 12.4286C43.2476 13 43.3428 14.1086 43.3428 13.9715C43.3885 13.5143 43.8571 12.981 44.0857 12.7715Z" fill="#234657"/>
<mask id="mask0_2_632" style="mask-type:alpha" maskUnits="userSpaceOnUse" x="4" y="4" width="46" height="27">
<path fill-rule="evenodd" clip-rule="evenodd" d="M47.9143 15.2286L49.9715 18.0857C49.6286 18.2686 49.6001 18.8667 49.6286 19.1429C48.8001 19.2476 47.1258 19.4457 47.0572 19.4C46.8058 19.24 45.7905 18.9905 45.3143 18.8857C43.6825 17.4986 43.5263 17.5096 43.4658 17.5139C43.4628 17.5141 43.4599 17.5143 43.4572 17.5143C43.4001 17.5143 43.3048 17.5429 43.2572 17.5714C36.2654 16.1068 33.5237 16.4063 33.0931 16.4533L33.0572 16.4572C32.7715 16.4857 32.5715 16.6857 32.7715 16.6857C33.1829 16.6629 33.2477 16.7524 33.2286 16.8C33.1498 17.6667 32.8055 18.5575 32.4175 19.5613C32.3834 19.6495 32.349 19.7386 32.3143 19.8286C31.1326 22.6504 30.0933 23.5381 29.8496 23.7463C29.8046 23.7847 29.7867 23.8 29.8001 23.8C29.8686 23.8 30.2477 23.6286 30.4286 23.5429L30.7715 26.6286C30.7429 26.6476 30.6629 26.6972 30.5715 26.7429C30.5331 26.7621 30.3593 26.778 30.1616 26.7962C29.7708 26.8321 29.2869 26.8766 29.5715 26.9714C30.1429 27.1772 30.9143 27.2095 31.2286 27.2C31.4117 27.2563 31.4907 27.3266 31.5544 27.3833C31.6201 27.4416 31.6697 27.4857 31.8001 27.4857C31.8771 27.4857 31.9876 27.4601 32.1191 27.4295C32.4263 27.3581 32.8485 27.26 33.2286 27.4C34.3143 27.6857 34.6286 29 34.6001 29.0857C34.5715 29.1714 34.3715 29.2 34.2858 29.1429C34.2446 29.1154 34.2165 29.0285 34.1827 28.9234C34.1461 28.8099 34.1028 28.6753 34.0286 28.5714C33.3143 27.6572 32.4572 27.8 32.6286 27.8572C33.6286 28.4572 33.7715 29.1143 33.8001 29.3143C33.8286 29.5143 33.5715 29.6572 33.4572 29.4857C33.1143 28.7143 32.7715 28.5429 32.4572 28.4286C32.1429 28.3143 31.8572 28.4 31.9143 28.4572C32.8286 28.7543 32.981 29.381 32.9429 29.6572L28.3143 29.3143C27.4507 27.323 26.4057 26.48 26.0082 26.1594L26.0082 26.1594C25.9324 26.0982 25.8801 26.0561 25.8572 26.0286C25.7856 25.8854 25.3998 24.1565 24.9666 22.2148C24.3627 19.5084 23.6666 16.3885 23.6001 16.5714C23.4401 17.0743 24.0096 19.9429 24.3143 21.3143C19.243 22.1764 18.3123 22.1609 17.4481 22.1465C17.3386 22.1447 17.2301 22.1429 17.1143 22.1429C16.2915 22.1429 14.2762 21.2476 13.3715 20.8C13.4172 21.0057 13.9048 21.3429 14.1429 21.4857C13.3334 22.6953 11.7029 25.1314 11.6572 25.2C11.6115 25.2686 9.86672 25.9143 9.00006 26.2286C8.20006 25.9334 6.58291 25.4057 6.51434 25.6572C6.44577 25.9086 8.02863 26.4095 8.82863 26.6286L9.88577 26.2286C9.86672 26.3143 9.80577 26.5086 9.71434 26.6C9.60006 26.7143 8.91434 26.9143 8.71434 26.9714C8.55434 27.0172 8.22863 27.2 8.08577 27.2857V27.5429C8.60958 27.3334 9.76006 26.9486 10.1715 27.0857C10.6858 27.2572 10.9143 27.4572 11.1715 27.7714C11.3772 28.0229 11.5239 28.5619 11.5715 28.8L11.0858 29.0286C10.9761 28.4529 10.7876 28.1402 10.6967 27.9897L10.6858 27.9714C10.6001 27.8286 9.77148 27.4 9.82863 27.5429C9.86273 27.6281 10.019 27.7236 10.1819 27.8231C10.292 27.8904 10.4051 27.9595 10.4858 28.0286C10.6458 28.1657 10.8382 28.8095 10.9143 29.1143L10.1715 29.4857C10.1429 29.0286 9.88577 28.4286 9.82863 28.3143C9.77148 28.2 9.31434 28.0286 9.0572 27.9714C8.80006 27.9143 8.80006 27.9714 8.80006 28.0286C8.80006 28.0857 9.54291 28.5143 9.6572 28.5714C9.74863 28.6172 9.90482 29.2953 9.97148 29.6286L9.0572 30.0857C9.0572 29.8 8.88577 29.3429 8.80006 29.1143C8.71434 28.8857 8.0572 28.6 7.94291 28.5714C7.82863 28.5429 7.74291 28.6286 7.77148 28.6857C7.78169 28.7061 7.87569 28.7703 7.99755 28.8534C8.21693 29.0031 8.52658 29.2143 8.60006 29.3429C8.69148 29.5029 8.77148 30 8.80006 30.2286L5.80006 29.3429L4.77148 26.2857C5.12387 24.6476 5.83434 21.3429 5.8572 21.2286C5.88006 21.1143 5.80958 15.4095 5.77148 12.5714C6.94291 10.781 9.34863 7.14859 9.60006 6.94288C9.85148 6.73716 14.0477 5.50478 16.1143 4.9143L21.7715 4.48573L28.2001 6.45716L34.2286 6.22859C39.5429 8.68573 46.4001 12.3429 46.5429 12.4572C46.6572 12.5486 47.5048 13.981 47.9143 14.6857V15.2286ZM35.6287 17.0286C34.8001 16.8572 34.2858 16.8572 33.8572 16.8572C33.5279 18.209 32.9253 19.6239 32.5212 20.5726C32.2592 21.1879 32.0807 21.607 32.1144 21.6857C33.5715 23.9714 34.6572 24.3429 35.6001 24.6572C36.4751 24.9488 36.9437 26.3716 37.2165 27.2001C37.2643 27.3452 37.306 27.4721 37.3429 27.5714L42.1429 27.4286C41.7772 26.8572 41.1715 26.6381 40.9144 26.6C40.8668 26.4857 40.9087 26.2857 41.4572 26.4C42.0058 26.5143 42.5049 27.1333 42.6858 27.4286L43.1144 27.3714C42.9715 27.1143 42.6058 26.5314 42.2858 26.2572C42.0705 26.0726 41.5736 25.888 41.1607 25.7346L41.1607 25.7346C40.8067 25.6031 40.5144 25.4945 40.5144 25.4286C40.4851 25.2238 39.692 24.0156 38.9172 22.8351L38.9172 22.8351L38.9172 22.8351C38.1785 21.7098 37.4565 20.6099 37.4287 20.4286C37.2001 18.6 36.1334 17.4 35.6287 17.0286ZM16.3432 22.5143C16.5432 22.619 17.0575 22.8343 17.5146 22.8571C17.9717 22.88 20.6003 22.5428 21.8575 22.3714C21.8479 22.9047 21.7489 24.0914 21.4289 24.5714C21.0289 25.1714 19.9146 26.0286 19.6003 26.0857C19.8479 26.0762 20.4517 25.9886 20.886 25.7143C20.9546 25.6686 21.0289 25.7905 21.0575 25.8571C21.1717 26.1333 21.4289 26.68 21.5432 26.6571C21.5659 26.6526 21.6081 26.6358 21.6656 26.6129C21.9695 26.4917 22.7003 26.2006 23.2289 26.6571C23.7317 27.0914 24.0289 27.6571 24.1146 27.8857C24.0575 27.9333 23.9089 28.0286 23.7717 28.0286C23.7497 28.0286 23.6763 27.9176 23.5798 27.7715C23.4267 27.5396 23.2152 27.2194 23.0575 27.1143C22.8517 26.9771 22.5336 26.8286 22.4003 26.7714C22.6765 27.0476 23.2289 27.6686 23.2289 27.9428C23.2289 28.0114 20.3337 28.0286 18.886 28.0286L16.0003 25.4C16.0098 24.8095 16.0917 23.4057 16.3432 22.5143Z" fill="#FEFFFF"/>
</mask>
<g mask="url(#mask0_2_632)">
<path d="M6.05734 28.9142L4.94305 26.9428L5.51448 29.4857L7.28591 30.2571C7.79067 30.2761 8.78877 30.3028 8.74305 30.2571C8.03448 29.0457 6.65734 28.8571 6.05734 28.9142Z" fill="#B3DFF7"/>
<path d="M24.1429 16.0858L24 14.0001L20.6 18.1143C20.2572 18.0286 17.8857 18.4001 17.0857 18.4001C16.4457 18.4001 13.6191 18.1905 12.2857 18.0858C12.1238 18.1524 11.8 18.0458 11.8 17.0858C11.8 16.1258 11.4191 14.9715 11.2286 14.5143L11.3143 15.1429L10.1143 22.6858C9.31431 23.2477 7.61145 24.3601 7.20002 24.3143C6.68574 24.2572 6.37145 24.5143 6.3143 24.6286C6.26859 24.7201 6.29526 25.1429 6.3143 25.3429L7.08573 27.5715L9.82859 26.9143L10.3143 25.9715L11.8 25.2858L14.3429 21.6572L15.4572 21.7715L16.0572 22.4858L15.6857 25.5429L18.6857 28.1715L23 28.0572C22.7429 27.0572 21.8857 26.8001 21.7714 26.7715C21.68 26.7486 21.3143 26.9334 21.1429 27.0286C21.0057 26.4115 20.5905 25.9715 20.4 25.8286C20.0572 26.0343 19.5334 26.1048 19.3143 26.1143C19.52 26.0686 20.2 25.3334 20.5143 24.9715C20.5429 24.6858 20.6 24.1029 20.6 24.0572C21.0572 24.0343 21.6476 23.6286 21.8857 23.4286L21.9714 22.0286L24.4572 21.6572L24.9429 23.4286L25.6 26.1715L26.8286 27.2001L28.2 29.5429L32.2 29.7715L32.3143 29.4001C32.2 29.1429 31.7314 28.5486 30.7714 28.2286C29.8114 27.9086 29.0191 28.2096 28.7429 28.4001C28.3086 26.3886 27.0191 25.4286 26.4286 25.2001L24.1429 16.0858Z" fill="#B3DFF7"/>
<path d="M49.7716 18.6571C49.5888 18.2228 49.6954 17.9238 49.7716 17.8286L50.2288 18.2286C50.1526 18.5524 49.9545 19.0914 49.7716 18.6571Z" fill="#B3DFF7"/>
<path d="M49.8284 19L49.5141 18.5714C48.9656 18.5714 47.3892 18.7659 46.6696 18.8631C46.2007 18.6353 45.7652 18.7376 45.5713 18.5714C45.1713 18.2286 43.3713 17 43.0856 16.8C42.857 16.64 42.6094 16.0667 42.5141 15.8C42.457 15.6857 42.3656 15.3657 42.457 15C42.5484 14.6343 42.5332 14.2381 42.5141 14.0857C42.5141 14.4571 42.3713 14.5714 42.2284 15C42.1141 15.6857 42.276 16.3333 42.3713 16.5714C41.857 16.2571 41.3141 16.1143 40.8856 16.0286C40.457 15.9429 40.657 16.0571 38.057 15.8571C35.977 15.6971 34.0094 15.1238 33.2856 14.8571C33.3084 13.2343 32.8379 12.0095 32.5998 11.6C32.7046 12.2095 32.9198 13.7143 32.9427 14.8571C32.9656 16 32.076 19.7524 31.6284 21.4857L32.7713 23L34.1998 24.0857L35.6856 24.9429L37.1427 27.7714L42.2284 27.5714C41.8284 26.0857 40.3618 25.5524 39.6856 25.2571L37.057 21.2C37.9713 17.7714 36.3141 17.4571 35.5998 16.8857C34.8856 16.3143 35.857 16.8 35.857 16.8H37.9141L43.4284 17.7143L45.3141 19L47.1427 19.4857L49.5141 19.2857L49.8284 19Z" fill="#B3DFF7"/>
<path d="M47.4856 15.0286C47.3942 14.9143 46.7999 14.4667 46.5142 14.2572C46.0799 14.6686 46.0285 14.981 46.0571 15.0857C46.6513 15.0857 47.1618 15.2381 47.3428 15.3143L48.7999 16.7429C48.3999 16.2191 47.5771 15.1429 47.4856 15.0286Z" fill="#B3DFF7"/>
<path d="M44.0573 12.8571C43.9658 12.7657 43.8668 12.2476 43.8287 12L43.143 12.4286C43.0973 12.6571 43.0477 14.1619 43.0287 14.8857C43.0515 14.5657 43.7239 13.4 44.0573 12.8571Z" fill="#B3DFF7"/>
</g>
</svg>
