<?xml version="1.0" encoding="UTF-8"?>
<!--
Licensed to the Apache Software Foundation (ASF) under one
or more contributor license agreements.  See the NOTICE file
distributed with this work for additional information
regarding copyright ownership.  The ASF licenses this file
to you under the Apache License, Version 2.0 (the
"License"); you may not use this file except in compliance
with the License.  You may obtain a copy of the License at

   http://www.apache.org/licenses/LICENSE-2.0

Unless required by applicable law or agreed to in writing,
software distributed under the License is distributed on an
"AS IS" BASIS, WITHOUT WARRANTIES OR CONDITIONS OF ANY
KIND, either express or implied.  See the License for the
specific language governing permissions and limitations
under the License.
-->
<svg width="54px" height="54px" viewBox="0 0 54 54" version="1.1" xmlns="http://www.w3.org/2000/svg" xmlns:xlink="http://www.w3.org/1999/xlink">
    <title>icon/待分配</title>
    <g id="icon/待分配" stroke="none" stroke-width="1" fill="none" fill-rule="evenodd">
        <g id="02-icon/36px/G-工作流">
            <g id="审批">
                <g>
                    <g id="编组">
                        <path d="M27.301232,16.8401442 C21.9934896,16.8401442 17.6743289,21.1593049 17.6743289,26.4670473 C17.6743289,31.7747897 21.9934896,36.0939503 27.301232,36.0939503 C32.6089744,36.0939503 36.928135,31.7747897 36.928135,26.4670473 C36.928135,21.1593049 32.6089744,16.8401442 27.301232,16.8401442 Z M34.5684846,26.8142278 C34.5684846,27.6321615 33.9094301,28.2912159 33.0914964,28.2912159 L27.2365034,28.2912159 C26.4185697,28.2912159 25.7595152,27.6321615 25.7595152,26.8142278 L25.7595152,21.5712139 C25.7595152,20.7532802 26.4185697,20.0942258 27.2365034,20.0942258 C28.0544371,20.0942258 28.7134916,20.7532802 28.7134916,21.5712139 L28.7134916,25.3313552 L33.0914964,25.3313552 C33.9094301,25.3313552 34.5684846,25.9962941 34.5684846,26.8142278 Z" id="形状" fill="#3889FF" fill-rule="nonzero"></path>
                        <path d="M47.5495042,18.0758714 C47.531851,17.8699169 47.4847756,17.6698468 47.4141627,17.4991987 C47.3141276,17.2520533 47.1611328,17.0284455 46.937525,16.822491 L32.1794121,3.57078826 C32.1676432,3.56490385 32.1617588,3.55313502 32.14999,3.5472506 C31.7792718,3.18830128 31.3261719,3.01765325 30.761268,3.01765325 L10.0245893,3.01765325 C8.38283754,3.01765325 7.04707532,4.35341546 7.04707532,5.99516727 L7.04707532,46.9389273 C7.04707532,48.5806791 8.38283754,49.9164413 10.0245893,49.9164413 L44.5778746,49.9164413 C46.2196264,49.9164413 47.5553886,48.5806791 47.5553886,46.9389273 L47.5553886,18.2053285 C47.5553886,18.1582532 47.5553886,18.1170623 47.5495042,18.0758714 Z M27.301232,39.8540915 C19.9162911,39.8540915 13.9141877,33.8461038 13.9141877,26.4670473 C13.9141877,19.0879908 19.9162911,13.080003 27.301232,13.080003 C34.6861729,13.080003 40.6882762,19.0879908 40.6882762,26.4670473 C40.6882762,33.8461038 34.6861729,39.8540915 27.301232,39.8540915 Z" id="形状" fill="#3889FF" fill-rule="nonzero"></path>
                        <rect id="矩形" x="0" y="0" width="54" height="54"></rect>
                    </g>
                </g>
            </g>
        </g>
    </g>
</svg>