<svg width="1280" height="720" xmlns="http://www.w3.org/2000/svg" xmlns:xlink="http://www.w3.org/1999/xlink" overflow="hidden"><defs><clipPath id="clip0"><rect x="0" y="0" width="1280" height="720"/></clipPath></defs><g clip-path="url(#clip0)"><rect x="0" y="0" width="1280" height="720" fill="#FFFFFF"/><path d="M510.5 183.5C510.5 178.53 514.53 174.5 519.5 174.5L707.5 174.5C712.471 174.5 716.5 178.53 716.5 183.5L716.5 219.5C716.5 224.471 712.471 228.5 707.5 228.5L519.5 228.5C514.53 228.5 510.5 224.471 510.5 219.5Z" stroke="#000000" stroke-width="1.33333" stroke-miterlimit="8" fill="#FFFFFF" fill-rule="evenodd"/><text font-family="Calibri,Calibri_MSFontService,sans-serif" font-weight="400" font-size="24" transform="translate(529.894 208)">deviceDiscoverer</text><path d="M233.5 112.334C233.5 106.903 237.903 102.5 243.334 102.5L371.667 102.5C377.097 102.5 381.5 106.903 381.5 112.334L381.5 151.667C381.5 157.097 377.097 161.5 371.667 161.5L243.334 161.5C237.903 161.5 233.5 157.097 233.5 151.667Z" stroke="#000000" stroke-width="1.33333" stroke-miterlimit="8" fill="#FFFFFF" fill-rule="evenodd"/><text font-family="Calibri,Calibri_MSFontService,sans-serif" font-weight="400" font-size="24" transform="translate(251.673 125)">Kubernetes <tspan font-size="24" x="39.62" y="29">API</tspan></text><path d="M381.816 131.913 504.531 197.893 503.9 199.068 381.184 133.087ZM504.935 194.326 510.087 201.638 501.147 201.372Z"/><path d="M510.5 306.667C510.5 301.604 514.604 297.5 519.667 297.5L707.333 297.5C712.396 297.5 716.5 301.604 716.5 306.667L716.5 343.333C716.5 348.396 712.396 352.5 707.333 352.5L519.667 352.5C514.604 352.5 510.5 348.396 510.5 343.333Z" stroke="#000000" stroke-width="1.33333" stroke-miterlimit="8" fill="#FFFFFF" fill-rule="evenodd"/><text font-family="Calibri,Calibri_MSFontService,sans-serif" font-weight="400" font-size="24" transform="translate(545.731 332)">deviceVerifier</text><path d="M495.5 430.667C495.5 425.604 499.604 421.5 504.667 421.5L722.333 421.5C727.396 421.5 731.5 425.604 731.5 430.667L731.5 467.333C731.5 472.396 727.396 476.5 722.333 476.5L504.667 476.5C499.604 476.5 495.5 472.396 495.5 467.333Z" stroke="#000000" stroke-width="1.33333" stroke-miterlimit="8" fill="#FFFFFF" fill-rule="evenodd"/><text font-family="Calibri,Calibri_MSFontService,sans-serif" font-weight="400" font-size="24" transform="translate(541.457 456)">deviceUpdater</text><path d="M614.167 228.5 614.167 291.118 612.833 291.118 612.833 228.5ZM617.5 289.784 613.5 297.784 609.5 289.784Z"/><path d="M0.666667-1.0102e-06 0.666762 62.6178-0.666572 62.6178-0.666667 1.0102e-06ZM4.00009 61.2844 0.000104987 69.2844-3.99991 61.2844Z" transform="matrix(-1 0 0 1 613.5 352.5)"/><path d="M614.167 476.5 614.167 539.485 612.833 539.485 612.833 476.5ZM617.5 538.151 613.5 546.151 609.5 538.151Z"/><path d="M539.5 556.334C539.5 550.903 543.903 546.5 549.334 546.5L677.667 546.5C683.097 546.5 687.5 550.903 687.5 556.334L687.5 595.667C687.5 601.097 683.097 605.5 677.667 605.5L549.334 605.5C543.903 605.5 539.5 601.097 539.5 595.667Z" stroke="#000000" stroke-width="1.33333" stroke-miterlimit="8" fill="#FFFFFF" fill-rule="evenodd"/><text font-family="Calibri,Calibri_MSFontService,sans-serif" font-weight="400" font-size="24" transform="translate(557.287 568)">Kubernetes <tspan font-size="24" x="39.62" y="29">API</tspan></text><path d="M507.717 36.9977C434.112 21.7589 364.409 34.6312 338.25 68.2937L348.858 70.49 318.122 86.2538 306.423 61.7044 317.032 63.9008C343.191 30.2384 412.895 17.3661 486.5 32.6049Z" fill="#FFFFFF" fill-rule="evenodd"/><path d="M630.343 150.895C639.599 106.187 581.307 55.489 497.07 34.9848 586.663 50.3208 656.191 101.652 652.367 149.637 652.215 151.542 651.946 153.426 651.561 155.287Z" fill="#CDCDCD" fill-rule="evenodd"/><path d="M507.717 36.9977C434.112 21.7589 364.409 34.6312 338.25 68.2937L348.858 70.49 318.122 86.2538 306.423 61.7044 317.032 63.9008C343.191 30.2384 412.895 17.3661 486.5 32.6049L507.717 36.9977C596.864 55.4543 661.265 108.414 651.561 155.287L630.343 150.895C639.599 106.187 581.307 55.489 497.07 34.9848" stroke="#000000" stroke-width="1.33333" stroke-miterlimit="8" fill="none" fill-rule="evenodd"/><path d="M946.5 351.25C946.5 296.416 893.441 248.527 817.5 234.818L817.5 256.318 774.5 209.5 817.5 170.319 817.5 191.818C893.441 205.527 946.5 253.416 946.5 308.25Z" fill="#FFFFFF" fill-rule="evenodd"/><path d="M774.5 428.5C857.631 428.5 928.865 386.933 943.729 329.75 960.713 395.092 898.715 457.688 805.253 469.563 795.106 470.852 784.813 471.5 774.5 471.5Z" fill="#CDCDCD" fill-rule="evenodd"/><path d="M946.5 351.25C946.5 296.416 893.441 248.527 817.5 234.818L817.5 256.318 774.5 209.5 817.5 170.319 817.5 191.818C893.441 205.527 946.5 253.416 946.5 308.25L946.5 351.25C946.5 417.662 869.493 471.5 774.5 471.5L774.5 428.5C857.631 428.5 928.865 386.933 943.729 329.75" stroke="#000000" stroke-width="1.33333" stroke-miterlimit="8" fill="none" fill-rule="evenodd"/></g></svg>