<svg width="1280" height="720" xmlns="http://www.w3.org/2000/svg" xmlns:xlink="http://www.w3.org/1999/xlink" overflow="hidden"><defs><clipPath id="clip0"><rect x="0" y="0" width="1280" height="720"/></clipPath></defs><g clip-path="url(#clip0)"><rect x="0" y="0" width="1280" height="720" fill="#FFFFFF"/><path d="M0.500053 9.6669C0.500053 4.60419 4.60416 0.500053 9.66684 0.500053L330.333 0.500053C335.396 0.500053 339.5 4.60419 339.5 9.6669L339.5 46.3332C339.5 51.3959 335.396 55.5 330.333 55.5L9.66684 55.5C4.60416 55.5 0.500053 51.3959 0.500053 46.3332Z" stroke="#000000" stroke-width="1.33333" stroke-miterlimit="8" fill="#FFFFFF" fill-rule="evenodd"/><text font-family="Calibri,Calibri_MSFontService,sans-serif" font-weight="400" font-size="24" transform="translate(43.6246 35)">deviceDiscoverer<tspan font-size="24" x="171.693" y="0">(cluster)</tspan></text><path d="M168.5 107.5C168.5 104.186 171.186 101.5 174.5 101.5L340.5 101.5C343.814 101.5 346.5 104.186 346.5 107.5L346.5 131.5C346.5 134.814 343.814 137.5 340.5 137.5L174.5 137.5C171.186 137.5 168.5 134.814 168.5 131.5Z" stroke="#000000" stroke-width="1.33333" stroke-miterlimit="8" fill="#FFFFFF" fill-rule="evenodd"/><text font-family="Calibri,Calibri_MSFontService,sans-serif" font-weight="400" font-size="24" transform="translate(189.118 126)">List of devices</text><path d="M78.5001 193.167C78.5001 188.933 81.9326 185.5 86.1669 185.5L429.833 185.5C434.067 185.5 437.5 188.933 437.5 193.167L437.5 223.833C437.5 228.067 434.067 231.5 429.833 231.5L86.1669 231.5C81.9326 231.5 78.5001 228.067 78.5001 223.833Z" stroke="#000000" stroke-width="1.33333" stroke-miterlimit="8" fill="#FFFFFF" fill-rule="evenodd"/><text font-family="Calibri,Calibri_MSFontService,sans-serif" font-weight="400" font-size="24" transform="translate(120.471 216)">deviceDiscoverer<tspan font-size="24" x="166.193" y="0">([] devices)</tspan></text><path d="M12.5001 287.167C12.5001 282.933 15.9326 279.5 20.1668 279.5L495.833 279.5C500.068 279.5 503.5 282.933 503.5 287.167L503.5 317.833C503.5 322.068 500.068 325.5 495.833 325.5L20.1668 325.5C15.9326 325.5 12.5001 322.068 12.5001 317.833Z" stroke="#000000" stroke-width="1.33333" stroke-miterlimit="8" fill="#FFFFFF" fill-rule="evenodd"/><text font-family="Calibri,Calibri_MSFontService,sans-serif" font-weight="400" font-size="24" transform="translate(80.7247 310)">discoverDevice(device configDevice<tspan font-size="24" x="346.593" y="0">)</tspan></text><path d="M179.5 411 258 362.5 336.5 411 258 459.5Z" stroke="#000000" stroke-width="1.33333" stroke-miterlimit="8" fill="#FFFFFF" fill-rule="evenodd"/><text font-family="Calibri,Calibri_MSFontService,sans-serif" font-weight="400" font-size="24" transform="translate(227.874 418)">Alive?</text><path d="M431.5 389.333C431.5 383.35 436.35 378.5 442.333 378.5L516.667 378.5C522.65 378.5 527.5 383.35 527.5 389.333L527.5 432.667C527.5 438.65 522.65 443.5 516.667 443.5L442.333 443.5C436.35 443.5 431.5 438.65 431.5 432.667Z" stroke="#000000" stroke-width="1.33333" stroke-miterlimit="8" fill="#FFFFFF" fill-rule="evenodd"/><text font-family="Calibri,Calibri_MSFontService,sans-serif" font-weight="400" font-size="24" transform="translate(453.183 418)">Done</text><path d="M154.5 595.833C154.5 589.574 159.574 584.5 165.833 584.5L328.167 584.5C334.426 584.5 339.5 589.574 339.5 595.833L339.5 641.167C339.5 647.426 334.426 652.5 328.167 652.5L165.833 652.5C159.574 652.5 154.5 647.426 154.5 641.167Z" stroke="#000000" stroke-width="1.33333" stroke-miterlimit="8" fill="#FFFFFF" fill-rule="evenodd"/><text font-family="Calibri,Calibri_MSFontService,sans-serif" font-weight="400" font-size="24" transform="translate(209.252 611)">Send to <tspan font-size="24" x="-30.1267" y="29">deviceVerifier</tspan></text><path d="M346.5 396.25 387 396.25 387 381.5 416.5 411 387 440.5 387 425.75 346.5 425.75Z" stroke="#000000" stroke-width="1.33333" stroke-miterlimit="8" fill="#FFFFFF" fill-rule="evenodd"/><text font-family="Calibri,Calibri_MSFontService,sans-serif" font-weight="400" font-size="24" transform="translate(359.403 418)">No</text><path d="M203.5 521.5 230.5 521.5 230.5 473.5 284.5 473.5 284.5 521.5 311.5 521.5 257.5 569.5Z" stroke="#000000" stroke-width="1.33333" stroke-miterlimit="8" fill="#FFFFFF" fill-rule="evenodd"/><text font-family="Calibri,Calibri_MSFontService,sans-serif" font-weight="400" font-size="24" transform="translate(241.534 517)">Yes</text><path d="M258.167 137.5 258.167 179.42 256.833 179.42 256.833 137.5ZM261.5 178.087 257.5 186.087 253.5 178.087Z"/><path d="M258.167 231.493 258.61 273.414 257.277 273.428 256.833 231.507ZM261.929 272.045 258.014 280.087 253.929 272.13Z"/><path d="M0.666603-0.00918437 1.08846 30.6093-0.244746 30.6277-0.666603 0.00918437ZM4.40311 29.2302 0.513701 37.2845-3.59613 29.3404Z" transform="matrix(-1 0 0 1 258.014 325.5)"/><path d="M756.5 110C756.5 105.858 759.858 102.5 764 102.5L1105 102.5C1109.14 102.5 1112.5 105.858 1112.5 110L1112.5 140C1112.5 144.142 1109.14 147.5 1105 147.5L764 147.5C759.858 147.5 756.5 144.142 756.5 140Z" stroke="#000000" stroke-width="1.33333" stroke-miterlimit="8" fill="#FFFFFF" fill-rule="evenodd"/><text font-family="Calibri,Calibri_MSFontService,sans-serif" font-weight="400" font-size="24" transform="translate(771.345 132)">discover<tspan font-size="24" x="80.96" y="0">TCP</tspan><tspan font-size="24" x="117.3" y="0">(device </tspan><tspan font-size="24" x="193.18" y="0">configDevice</tspan><tspan font-size="24" x="317.72" y="0">)</tspan></text><path d="M834.5 201.167C834.5 196.933 837.933 193.5 842.167 193.5L1026.83 193.5C1031.07 193.5 1034.5 196.933 1034.5 201.167L1034.5 231.833C1034.5 236.067 1031.07 239.5 1026.83 239.5L842.167 239.5C837.933 239.5 834.5 236.067 834.5 231.833Z" stroke="#000000" stroke-width="1.33333" stroke-miterlimit="8" fill="#FFFFFF" fill-rule="evenodd"/><text font-family="Calibri,Calibri_MSFontService,sans-serif" font-weight="400" font-size="24" transform="translate(855.058 223)">discover<tspan font-size="24" x="80.96" y="0">ONVIF</tspan>()</text><path d="M660.5 296.167C660.5 291.933 663.933 288.5 668.167 288.5L1200.83 288.5C1205.07 288.5 1208.5 291.933 1208.5 296.167L1208.5 326.833C1208.5 331.067 1205.07 334.5 1200.83 334.5L668.167 334.5C663.933 334.5 660.5 331.067 660.5 326.833Z" stroke="#000000" stroke-width="1.33333" stroke-miterlimit="8" fill="#FFFFFF" fill-rule="evenodd"/><text font-family="Calibri,Calibri_MSFontService,sans-serif" font-weight="400" font-size="24" transform="translate(754.695 318)">discover<tspan font-size="24" x="80.96" y="0">OPCUA</tspan><tspan font-size="24" x="150.6" y="0">(device </tspan>configDevice<tspan font-size="24" x="351.02" y="0">)</tspan></text><path d="M0 0 264.22 205.083" stroke="#000000" stroke-width="1.33333" stroke-miterlimit="8" stroke-dasharray="5.33333 4" fill="#FFFFFF" fill-rule="evenodd" transform="matrix(1 0 0 -1 501.5 263.583)"/><path d="M496.5 334.5 867.289 387.197" stroke="#000000" stroke-width="1.33333" stroke-miterlimit="8" stroke-dasharray="5.33333 4" fill="#FFFFFF" fill-rule="evenodd"/></g></svg>