<svg width="1280" height="720" xmlns="http://www.w3.org/2000/svg" xmlns:xlink="http://www.w3.org/1999/xlink" overflow="hidden"><defs><clipPath id="clip0"><rect x="0" y="0" width="1280" height="720"/></clipPath></defs><g clip-path="url(#clip0)"><rect x="0" y="0" width="1280" height="720" fill="#FFFFFF"/><path d="M7.50005 366.5C7.50005 175.41 290.008 20.5001 638.5 20.5001 986.992 20.5001 1269.5 175.41 1269.5 366.5 1269.5 557.591 986.992 712.5 638.5 712.5 290.008 712.5 7.50005 557.591 7.50005 366.5Z" stroke="#000000" stroke-width="1.33333" stroke-miterlimit="8" fill="#FFFFFF" fill-rule="evenodd"/><path d="M114.5 236.668C114.5 211.17 135.17 190.5 160.668 190.5L425.333 190.5C450.83 190.5 471.5 211.17 471.5 236.668L471.5 421.332C471.5 446.83 450.83 467.5 425.333 467.5L160.668 467.5C135.17 467.5 114.5 446.83 114.5 421.332Z" stroke="#000000" stroke-width="1.33333" stroke-miterlimit="8" fill="#FFFFFF" fill-rule="evenodd"/><text font-family="Consolas,Consolas_MSFontService,sans-serif" font-weight="400" font-size="12" transform="translate(137.279 210)">apiVersion:<tspan font-size="12" x="80" y="0">v1</tspan><tspan font-size="12" x="0" y="15">kind:</tspan><tspan font-size="12" x="40" y="15">edgeDevice</tspan><tspan font-size="12" x="0" y="29">metadata:</tspan><tspan font-size="12" x="13.3333" y="44">name:</tspan><tspan font-size="12" x="53.3333" y="44">franka</tspan><tspan font-size="12" x="93.3333" y="44">-</tspan><tspan font-size="12" x="100" y="44">emika</tspan><tspan font-size="12" x="133.333" y="44">-</tspan><tspan font-size="12" x="140" y="44">1</tspan><tspan font-size="12" x="0" y="58">spec:</tspan><tspan font-size="12" x="0" y="72">-</tspan><tspan font-size="12" x="13.3333" y="72">sku</tspan>:<tspan font-size="12" x="46.6667" y="72">"</tspan><tspan font-size="12" x="53.3333" y="72">Franka</tspan><tspan font-size="12" x="100" y="72">Emika</tspan><tspan font-size="12" x="133.333" y="72">"</tspan><tspan font-size="12" x="13.3333" y="87">connection:</tspan><tspan font-size="12" x="93.3333" y="87">Ethernet</tspan><tspan font-weight="700" font-size="12" x="13.3333" y="101">status:</tspan><tspan font-weight="700" font-size="12" x="66.6667" y="101">offline</tspan><tspan font-size="12" x="13.3333" y="116">address:</tspan><tspan font-size="12" x="73.3333" y="116">10.0.0.1:80</tspan><tspan font-size="12" x="13.3333" y="130">protocol:</tspan><tspan font-size="12" x="80" y="130">HTTP</tspan><tspan font-size="12" x="13.3333" y="144">disconnectTimeoutInSeconds:600</tspan><tspan font-size="12" x="220" y="144">#</tspan><tspan font-size="12" x="233.333" y="144">optional</tspan><tspan font-size="12" x="13.3333" y="159">group:["room1",</tspan><tspan font-size="12" x="120" y="159">"robot"]</tspan><tspan font-size="12" x="180" y="159">#</tspan><tspan font-size="12" x="193.333" y="159">optional</tspan><tspan font-size="12" x="13.3333" y="173">driverSpec</tspan>:<tspan font-size="12" x="93.3333" y="173">#</tspan><tspan font-size="12" x="106.667" y="173">optional</tspan><tspan font-size="12" x="166.667" y="173">when</tspan><tspan font-size="12" x="200" y="173">no</tspan><tspan font-size="12" x="220" y="173">driver</tspan><tspan font-size="12" x="266.667" y="173">is</tspan><tspan font-size="12" x="286.667" y="173">req</tspan><tspan font-size="12" x="0" y="188">uired</tspan><tspan font-size="12" x="13.3333" y="202">-</tspan><tspan font-size="12" x="26.6667" y="202">instructionMap</tspan><tspan font-size="12" x="120" y="202">:</tspan><tspan font-size="12" x="140" y="202">#</tspan><tspan font-size="12" x="153.333" y="202">optional</tspan><tspan font-size="12" x="40" y="216">move_to</tspan>:<tspan font-size="12" x="40" y="231">-</tspan><tspan font-size="12" x="53.3333" y="231">api</tspan>:<tspan font-size="12" x="86.6667" y="231">absolute_move</tspan><tspan font-size="12" x="180" y="231">#</tspan><tspan font-size="12" x="193.333" y="231">API</tspan><tspan font-size="12" x="220" y="231">of</tspan><tspan font-size="12" x="240" y="231">the</tspan><tspan font-size="12" x="266.667" y="231">driver</tspan><tspan font-size="12" x="0" y="245">......</tspan></text><path d="M181.5 542.667C181.5 535.947 186.947 530.5 193.667 530.5L389.333 530.5C396.053 530.5 401.5 535.947 401.5 542.667L401.5 591.333C401.5 598.053 396.053 603.5 389.333 603.5L193.667 603.5C186.947 603.5 181.5 598.053 181.5 591.333Z" stroke="#000000" stroke-width="1.33333" stroke-miterlimit="8" fill="#FFFFFF" fill-rule="evenodd"/><text font-family="Calibri,Calibri_MSFontService,sans-serif" font-weight="400" font-size="24" transform="translate(208.112 574)">deviceDiscoverer</text><path d="M441.5 524C441.5 514.888 448.888 507.5 458 507.5L524 507.5C533.113 507.5 540.5 514.888 540.5 524L540.5 610C540.5 619.113 533.113 626.5 524 626.5L458 626.5C448.888 626.5 441.5 619.113 441.5 610Z" stroke="#000000" stroke-width="1.33333" stroke-miterlimit="8" fill="#FFFFFF" fill-rule="evenodd"/><text font-family="Calibri,Calibri_MSFontService,sans-serif" font-weight="400" font-size="24" transform="translate(457.81 545)">Device <tspan font-size="24" x="-0.806671" y="29">found/</tspan><tspan font-size="24" x="2.10666" y="58">online</tspan></text><path d="M186.913 104.977 288.753 185.397 287.926 186.444 186.087 106.023ZM289.772 181.955 293.572 190.052 284.814 188.233Z"/><path d="M48.5001 78.0001C48.5001 56.1848 84.5411 38.5001 129 38.5001 173.459 38.5001 209.5 56.1848 209.5 78.0001 209.5 99.8153 173.459 117.5 129 117.5 84.5411 117.5 48.5001 99.8153 48.5001 78.0001Z" stroke="#000000" stroke-width="1.33333" stroke-miterlimit="8" fill="#FFFFFF" fill-rule="evenodd"/><text font-family="Calibri,Calibri_MSFontService,sans-serif" font-weight="400" font-size="19" transform="translate(85.3495 60)">Kubernetes <tspan font-size="19" x="-0.593338" y="23">edgeDevice</tspan><tspan font-size="19" x="10.38" y="45">resource</tspan></text><path d="M0.666482-0.0157032 1.98588 55.9826 0.652916 56.014-0.666482 0.0157032ZM5.28688 54.5711 1.47643 62.6631-2.7109 54.7595Z" transform="matrix(-1 0 0 1 292.976 467.5)"/><path d="M1.76912e-06-0.666667 32.8962-0.666579 32.8962 0.666754-1.76912e-06 0.666667ZM31.5628-3.99992 39.5628 0.000104987 31.5628 4.00008Z" transform="matrix(1 0 0 -1 401.5 566.5)"/><path d="M0.414476-0.522163 190.588 150.432 189.76 151.476-0.414476 0.522163ZM191.617 146.992 195.396 155.099 186.643 153.258Z" transform="matrix(1 0 0 -1 861.5 221.599)"/><path d="M588.5 530C588.5 519.783 596.783 511.5 607 511.5L777 511.5C787.217 511.5 795.5 519.783 795.5 530L795.5 604C795.5 614.217 787.217 622.5 777 622.5L607 622.5C596.783 622.5 588.5 614.217 588.5 604Z" stroke="#000000" stroke-width="1.33333" stroke-miterlimit="8" fill="#FFFFFF" fill-rule="evenodd"/><text font-family="Calibri,Calibri_MSFontService,sans-serif" font-weight="400" font-size="24" transform="translate(624.223 574)">deviceVerifier</text><path d="M540.5 565.833 581.586 565.833 581.586 567.167 540.5 567.167ZM580.252 562.5 588.252 566.5 580.252 570.5Z"/><path d="M803.5 384.834C803.5 374.708 811.708 366.5 821.834 366.5L1033.17 366.5C1043.29 366.5 1051.5 374.708 1051.5 384.834L1051.5 458.166C1051.5 468.292 1043.29 476.5 1033.17 476.5L821.834 476.5C811.708 476.5 803.5 468.292 803.5 458.166Z" stroke="#000000" stroke-width="1.33333" stroke-miterlimit="8" fill="#FFFFFF" fill-rule="evenodd"/><text font-family="Calibri,Calibri_MSFontService,sans-serif" font-weight="400" font-size="24" transform="translate(855.562 429)">deviceUpdater</text><path d="M926.833 507.412 926.833 483.167 928.167 483.167 928.167 507.412ZM923.5 484.5 927.5 476.5 931.5 484.5Z"/><path d="M504.5 128.834C504.5 103.245 525.245 82.5001 550.834 82.5001L815.166 82.5001C840.755 82.5001 861.5 103.245 861.5 128.834L861.5 314.166C861.5 339.755 840.755 360.5 815.166 360.5L550.834 360.5C525.245 360.5 504.5 339.755 504.5 314.166Z" stroke="#000000" stroke-width="1.33333" stroke-miterlimit="8" fill="#FFFFFF" fill-rule="evenodd"/><path d="M527.149 192.279 540.483 192.279 540.483 206.279 527.149 206.279Z" fill="#FFFF00" fill-rule="evenodd"/><path d="M540.483 192.279 587.149 192.279 587.149 206.279 540.483 206.279Z" fill="#FFFF00" fill-rule="evenodd"/><path d="M587.149 192.279 593.816 192.279 593.816 206.279 587.149 206.279Z" fill="#FFFF00" fill-rule="evenodd"/><path d="M593.816 192.279 633.816 192.279 633.816 206.279 593.816 206.279Z" fill="#FFFF00" fill-rule="evenodd"/><text font-family="Consolas,Consolas_MSFontService,sans-serif" font-weight="400" font-size="12" transform="translate(527.149 102)">apiVersion<tspan font-size="12" x="66.6666" y="0">:</tspan><tspan font-size="12" x="80" y="0">v1</tspan><tspan font-size="12" x="0" y="15">kind:</tspan><tspan font-size="12" x="40" y="15">edgeDevice</tspan><tspan font-size="12" x="0" y="29">metadata:</tspan><tspan font-size="12" x="13.3333" y="44">name:</tspan><tspan font-size="12" x="53.3333" y="44">franka</tspan>-<tspan font-size="12" x="100" y="44">emika</tspan><tspan font-size="12" x="133.333" y="44">-</tspan><tspan font-size="12" x="140" y="44">1</tspan><tspan font-size="12" x="0" y="58">spec:</tspan><tspan font-size="12" x="0" y="72">-</tspan><tspan font-size="12" x="13.3333" y="72">sku</tspan>:<tspan font-size="12" x="46.6666" y="72">"</tspan><tspan font-size="12" x="53.3333" y="72">Franka</tspan><tspan font-size="12" x="100" y="72">Emika</tspan><tspan font-size="12" x="133.333" y="72">"</tspan><tspan font-size="12" x="13.3333" y="87">connection:</tspan><tspan font-size="12" x="93.3333" y="87">Ethernet</tspan><tspan font-size="12" x="0" y="101">  </tspan><tspan font-weight="700" font-size="12" x="13.3333" y="101">status:</tspan><tspan font-weight="700" font-size="12" x="60" y="101"> </tspan><tspan font-weight="700" font-size="12" x="66.6666" y="101">online</tspan><tspan font-size="12" x="13.3333" y="116">address:</tspan><tspan font-size="12" x="73.3333" y="116">10.0.0.1:80</tspan><tspan font-size="12" x="13.3333" y="130">protocol:</tspan><tspan font-size="12" x="80" y="130">HTTP</tspan><tspan font-size="12" x="13.3333" y="144">disconnectTimeoutInSeconds:600</tspan><tspan font-size="12" x="220" y="144">#</tspan><tspan font-size="12" x="233.333" y="144">optional</tspan><tspan font-size="12" x="13.3333" y="159">group:["room1",</tspan><tspan font-size="12" x="120" y="159">"robot"]</tspan><tspan font-size="12" x="180" y="159">#</tspan><tspan font-size="12" x="193.333" y="159">optional</tspan><tspan font-size="12" x="13.3333" y="173">driverSpec</tspan><tspan font-size="12" x="80" y="173">:</tspan><tspan font-size="12" x="93.3333" y="173">#</tspan><tspan font-size="12" x="106.667" y="173">optional</tspan><tspan font-size="12" x="166.667" y="173">when</tspan><tspan font-size="12" x="200" y="173">no</tspan><tspan font-size="12" x="220" y="173">driver</tspan><tspan font-size="12" x="266.667" y="173">is</tspan><tspan font-size="12" x="286.667" y="173">req</tspan><tspan font-size="12" x="0" y="188">uired</tspan><tspan font-size="12" x="13.3333" y="202">-</tspan><tspan font-size="12" x="26.6666" y="202">instructionMap</tspan><tspan font-size="12" x="120" y="202">:</tspan><tspan font-size="12" x="140" y="202">#</tspan><tspan font-size="12" x="153.333" y="202">optional</tspan><tspan font-size="12" x="40" y="216">move_to</tspan><tspan font-size="12" x="86.6666" y="216">:</tspan><tspan font-size="12" x="40" y="231">-</tspan><tspan font-size="12" x="53.3333" y="231">api</tspan>:<tspan font-size="12" x="86.6666" y="231">absolute_move</tspan><tspan font-size="12" x="180" y="231">#</tspan><tspan font-size="12" x="193.333" y="231">API</tspan><tspan font-size="12" x="220" y="231">of</tspan><tspan font-size="12" x="240" y="231">the</tspan><tspan font-size="12" x="266.667" y="231">driver</tspan><tspan font-size="12" x="0" y="245">......</tspan></text><path d="M803.721 422.295 689.142 364.113 689.746 362.924 804.325 421.106ZM688.822 367.689 683.5 360.5 692.444 360.556Z"/><path d="M1057.5 66.5001C1057.5 40.5427 1096 19.5001 1143.5 19.5001 1191 19.5001 1229.5 40.5427 1229.5 66.5001 1229.5 92.4574 1191 113.5 1143.5 113.5 1096 113.5 1057.5 92.4574 1057.5 66.5001Z" stroke="#000000" stroke-width="1.33333" stroke-miterlimit="8" fill="#FFFFFF" fill-rule="evenodd"/><text font-family="Calibri,Calibri_MSFontService,sans-serif" font-weight="400" font-size="19" transform="translate(1099.2 60)">Kubernetes <tspan font-size="19" x="4.95337" y="23">API server</tspan></text><path d="M857.5 527.334C857.5 516.38 866.38 507.5 877.334 507.5L977.666 507.5C988.62 507.5 997.5 516.38 997.5 527.334L997.5 606.666C997.5 617.62 988.62 626.5 977.666 626.5L877.334 626.5C866.38 626.5 857.5 617.62 857.5 606.666Z" stroke="#000000" stroke-width="1.33333" stroke-miterlimit="8" fill="#FFFFFF" fill-rule="evenodd"/><text font-family="Calibri,Calibri_MSFontService,sans-serif" font-weight="400" font-size="24" transform="translate(879.728 560)">Metadata <tspan font-size="24" x="16.8734" y="29">match</tspan></text><path d="M0.000394684-0.666667 55.0463-0.634078 55.0455 0.699255-0.000394684 0.666667ZM53.7149-3.9682 61.7125 0.0365354 53.7102 4.0318Z" transform="matrix(1 0 0 -1 795.5 566.537)"/></g></svg>