<svg width="1280" height="720" xmlns="http://www.w3.org/2000/svg" xmlns:xlink="http://www.w3.org/1999/xlink" overflow="hidden"><defs><clipPath id="clip0"><rect x="0" y="0" width="1280" height="720"/></clipPath></defs><g clip-path="url(#clip0)"><rect x="0" y="0" width="1280" height="720" fill="#FFFFFF"/><path d="M0.500053 9.66705C0.500053 4.60426 4.60426 0.500053 9.66705 0.500053L291.333 0.500053C296.396 0.500053 300.5 4.60426 300.5 9.66705L300.5 46.3331C300.5 51.3959 296.396 55.5001 291.333 55.5001L9.66705 55.5001C4.60426 55.5001 0.500053 51.3959 0.500053 46.3331Z" stroke="#000000" stroke-width="1.33333" stroke-miterlimit="8" fill="#FFFFFF" fill-rule="evenodd"/><text font-family="Calibri,Calibri_MSFontService,sans-serif" font-weight="400" font-size="24" transform="translate(40.0851 35)">deviceVerifier<tspan font-size="24" x="140.02" y="0">(cluster)</tspan></text><path d="M55.5001 122C55.5001 117.858 58.8579 114.5 63 114.5L501 114.5C505.142 114.5 508.5 117.858 508.5 122L508.5 152C508.5 156.142 505.142 159.5 501 159.5L63 159.5C58.8579 159.5 55.5001 156.142 55.5001 152Z" stroke="#000000" stroke-width="1.33333" stroke-miterlimit="8" fill="#FFFFFF" fill-rule="evenodd"/><text font-family="Calibri,Calibri_MSFontService,sans-serif" font-weight="400" font-size="24" transform="translate(78.8477 144)">queryMetadata(device discoveredDevice)</text><path d="M710.5 63.0001C710.5 58.858 713.858 55.5001 718 55.5001L1171 55.5001C1175.14 55.5001 1178.5 58.858 1178.5 63.0001L1178.5 93C1178.5 97.1422 1175.14 100.5 1171 100.5L718 100.5C713.858 100.5 710.5 97.1422 710.5 93Z" stroke="#000000" stroke-width="1.33333" stroke-miterlimit="8" fill="#FFFFFF" fill-rule="evenodd"/><text font-family="Calibri,Calibri_MSFontService,sans-serif" font-weight="400" font-size="24" transform="translate(783.036 85)">querySNMP<tspan font-size="24" x="115.953" y="0">(device, </tspan><tspan font-size="24" x="197.833" y="0">snmpConfig</tspan>)</text><path d="M772.5 158.167C772.5 153.933 775.933 150.5 780.167 150.5L1107.83 150.5C1112.07 150.5 1115.5 153.933 1115.5 158.167L1115.5 188.833C1115.5 193.067 1112.07 196.5 1107.83 196.5L780.167 196.5C775.933 196.5 772.5 193.067 772.5 188.833Z" stroke="#000000" stroke-width="1.33333" stroke-miterlimit="8" fill="#FFFFFF" fill-rule="evenodd"/><text font-family="Calibri,Calibri_MSFontService,sans-serif" font-weight="400" font-size="24" transform="translate(801.956 181)">query<tspan font-size="24" x="56.62" y="0">ONVIF</tspan>(device, address)</text><path d="M710.5 252.167C710.5 247.933 713.933 244.5 718.167 244.5L1170.83 244.5C1175.07 244.5 1178.5 247.933 1178.5 252.167L1178.5 282.833C1178.5 287.067 1175.07 290.5 1170.83 290.5L718.167 290.5C713.933 290.5 710.5 287.067 710.5 282.833Z" stroke="#000000" stroke-width="1.33333" stroke-miterlimit="8" fill="#FFFFFF" fill-rule="evenodd"/><text font-family="Calibri,Calibri_MSFontService,sans-serif" font-weight="400" font-size="24" transform="translate(773.276 274)">query<tspan font-size="24" x="56.62" y="0">OPCUA</tspan><tspan font-size="24" x="126.26" y="0">(device, </tspan>deviceConfig)</text><path d="M37.5001 236C37.5001 231.858 40.8578 228.5 44.9998 228.5L521 228.5C525.142 228.5 528.5 231.858 528.5 236L528.5 266C528.5 270.142 525.142 273.5 521 273.5L44.9998 273.5C40.8578 273.5 37.5001 270.142 37.5001 266Z" stroke="#000000" stroke-width="1.33333" stroke-miterlimit="8" fill="#FFFFFF" fill-rule="evenodd"/><text font-family="Calibri,Calibri_MSFontService,sans-serif" font-weight="400" font-size="24" transform="translate(59.2552 258)">verifyMetadata(<tspan font-size="24" x="156.787" y="0">discoverDevice</tspan>, configDevice)</text><path d="M193.5 399 282.5 350.5 371.5 399 282.5 447.5Z" stroke="#000000" stroke-width="1.33333" stroke-miterlimit="8" fill="#FFFFFF" fill-rule="evenodd"/><text font-family="Calibri,Calibri_MSFontService,sans-serif" font-weight="400" font-size="24" transform="translate(251.262 392)">Match<tspan font-size="24" x="25.5733" y="29">?</tspan></text><path d="M457.5 377.333C457.5 371.35 462.35 366.5 468.333 366.5L542.667 366.5C548.65 366.5 553.5 371.35 553.5 377.333L553.5 420.667C553.5 426.65 548.65 431.5 542.667 431.5L468.333 431.5C462.35 431.5 457.5 426.65 457.5 420.667Z" stroke="#000000" stroke-width="1.33333" stroke-miterlimit="8" fill="#FFFFFF" fill-rule="evenodd"/><text font-family="Calibri,Calibri_MSFontService,sans-serif" font-weight="400" font-size="24" transform="translate(478.43 406)">Done</text><path d="M379.5 384.25 420 384.25 420 369.5 449.5 399 420 428.5 420 413.75 379.5 413.75Z" stroke="#000000" stroke-width="1.33333" stroke-miterlimit="8" fill="#FFFFFF" fill-rule="evenodd"/><text font-family="Calibri,Calibri_MSFontService,sans-serif" font-weight="400" font-size="24" transform="translate(392.43 406)">No</text><path d="M228.5 509.5 255.75 509.5 255.75 461.5 310.25 461.5 310.25 509.5 337.5 509.5 283 557.5Z" stroke="#000000" stroke-width="1.33333" stroke-miterlimit="8" fill="#FFFFFF" fill-rule="evenodd"/><text font-family="Calibri,Calibri_MSFontService,sans-serif" font-weight="400" font-size="24" transform="translate(266.782 505)">Yes</text><path d="M143.5 603.833C143.5 596.47 149.47 590.5 156.833 590.5L371.167 590.5C378.531 590.5 384.5 596.47 384.5 603.833L384.5 657.167C384.5 664.531 378.531 670.5 371.167 670.5L156.833 670.5C149.47 670.5 143.5 664.531 143.5 657.167Z" stroke="#000000" stroke-width="1.33333" stroke-miterlimit="8" fill="#FFFFFF" fill-rule="evenodd"/><text font-family="Calibri,Calibri_MSFontService,sans-serif" font-weight="400" font-size="24" transform="translate(226.133 623)">Send to <tspan font-size="24" x="-34.4" y="29">deviceUpdater</tspan></text><path d="M282.167 159.49 283.094 221.105 281.761 221.125 280.833 159.51ZM286.407 219.721 282.528 227.78 278.408 219.842Z"/><path d="M283.167 273.5 283.167 343.484 281.833 343.484 281.833 273.5ZM286.5 342.15 282.5 350.15 278.5 342.15Z"/><path d="M0 0 397.431 83.5414" stroke="#000000" stroke-width="1.33333" stroke-miterlimit="8" stroke-dasharray="5.33333 4" fill="#FFFFFF" fill-rule="evenodd" transform="matrix(1 0 0 -1 445.5 98.0415)"/><path d="M492.5 185.5 755.014 340.509" stroke="#000000" stroke-width="1.33333" stroke-miterlimit="8" stroke-dasharray="5.33333 4" fill="#FFFFFF" fill-rule="evenodd"/></g></svg>