<svg width="1001" height="1000" viewBox="0 0 1001 1000" fill="none" xmlns="http://www.w3.org/2000/svg">
<rect x="200.879" y="193.081" width="30.7692" height="153.846" fill="#399BFF"/>
<rect x="371.203" y="149.567" width="30.7692" height="503.506" fill="#399BFF"/>
<rect x="287.908" y="106.052" width="30.7692" height="123.077" transform="rotate(45 287.908 106.052)" fill="#399BFF"/>
<rect x="414.717" y="106.052" width="30.7692" height="61.5385" transform="rotate(45 414.717 106.052)" fill="#399BFF"/>
<rect x="309.664" y="412.198" width="30.7692" height="123.077" transform="rotate(135 309.664 412.198)" fill="#399BFF"/>
<rect x="309.664" y="566.045" width="30.7692" height="153.846" transform="rotate(-180 309.664 566.045)" fill="#399BFF"/>
<rect x="479.988" y="653.073" width="30.7692" height="240.875" transform="rotate(-180 479.988 653.073)" fill="#399BFF"/>
<rect x="756.912" y="566.045" width="30.7692" height="153.846" transform="rotate(-180 756.912 566.045)" fill="#399BFF"/>
<rect x="843.939" y="653.073" width="30.7692" height="240.875" transform="rotate(-180 843.939 653.073)" fill="#399BFF"/>
<rect x="572.297" y="653.073" width="30.7692" height="291.919" transform="rotate(-180 572.297 653.073)" fill="#399BFF"/>
<rect x="479.988" y="412.198" width="30.7692" height="123.077" transform="rotate(135 479.988 412.198)" fill="#399BFF"/>
<rect x="834.928" y="631.316" width="30.7692" height="123.077" transform="rotate(135 834.928 631.316)" fill="#399BFF"/>
<rect x="222.635" y="653.073" width="30.7692" height="123.077" transform="rotate(-135 222.635 653.073)" fill="#399BFF"/>
<path fill-rule="evenodd" clip-rule="evenodd" d="M556.911 381.429C580.702 381.429 599.988 362.143 599.988 338.352C599.988 314.562 580.702 295.275 556.911 295.275C533.12 295.275 513.834 314.562 513.834 338.352C513.834 362.143 533.12 381.429 556.911 381.429ZM556.91 353.737C565.407 353.737 572.295 346.849 572.295 338.352C572.295 329.856 565.407 322.968 556.91 322.968C548.413 322.968 541.525 329.856 541.525 338.352C541.525 346.849 548.413 353.737 556.91 353.737Z" fill="#399BFF"/>
<path fill-rule="evenodd" clip-rule="evenodd" d="M309.665 149.129C333.456 149.129 352.742 129.843 352.742 106.053C352.742 82.2618 333.456 62.9756 309.665 62.9756C285.874 62.9756 266.588 82.2618 266.588 106.053C266.588 129.843 285.874 149.129 309.665 149.129ZM309.666 121.437C318.163 121.437 325.05 114.549 325.05 106.052C325.05 97.5557 318.163 90.6678 309.666 90.6678C301.169 90.6678 294.281 97.5557 294.281 106.052C294.281 114.549 301.169 121.437 309.666 121.437Z" fill="#399BFF"/>
<rect x="720.863" y="106.052" width="30.7692" height="123.077" transform="rotate(45 720.863 106.052)" fill="#399BFF"/>
<path fill-rule="evenodd" clip-rule="evenodd" d="M742.62 149.129C766.411 149.129 785.697 129.843 785.697 106.053C785.697 82.2618 766.411 62.9756 742.62 62.9756C718.829 62.9756 699.543 82.2618 699.543 106.053C699.543 129.843 718.829 149.129 742.62 149.129ZM742.619 121.437C751.116 121.437 758.004 114.549 758.004 106.052C758.004 97.5557 751.116 90.6678 742.619 90.6678C734.122 90.6678 727.234 97.5557 727.234 106.052C727.234 114.549 734.122 121.437 742.619 121.437Z" fill="#399BFF"/>
<path fill-rule="evenodd" clip-rule="evenodd" d="M200.878 696.15C224.668 696.15 243.955 676.864 243.955 653.073C243.955 629.282 224.668 609.996 200.878 609.996C177.087 609.996 157.801 629.282 157.801 653.073C157.801 676.864 177.087 696.15 200.878 696.15ZM200.877 668.457C209.373 668.457 216.261 661.57 216.261 653.073C216.261 644.576 209.373 637.688 200.877 637.688C192.38 637.688 185.492 644.576 185.492 653.073C185.492 661.57 192.38 668.457 200.877 668.457Z" fill="#399BFF"/>
<rect x="664.604" y="806.919" width="30.7692" height="613.838" transform="rotate(-180 664.604 806.919)" fill="#399BFF"/>
<rect x="577.574" y="893.948" width="30.7692" height="123.077" transform="rotate(-135 577.574 893.948)" fill="#399BFF"/>
<path fill-rule="evenodd" clip-rule="evenodd" d="M555.817 937.025C579.608 937.025 598.894 917.739 598.894 893.948C598.894 870.157 579.608 850.871 555.817 850.871C532.026 850.871 512.74 870.157 512.74 893.948C512.74 917.739 532.026 937.025 555.817 937.025ZM555.816 909.332C564.313 909.332 571.201 902.445 571.201 893.948C571.201 885.451 564.313 878.563 555.816 878.563C547.32 878.563 540.432 885.451 540.432 893.948C540.432 902.445 547.32 909.332 555.816 909.332Z" fill="#399BFF"/>
<circle cx="649.219" cy="412.198" r="33.0769" fill="#399BFF"/>
</svg>
