<svg width="1280" height="720" xmlns="http://www.w3.org/2000/svg" xmlns:xlink="http://www.w3.org/1999/xlink" overflow="hidden"><defs><clipPath id="clip0"><rect x="0" y="0" width="1280" height="720"/></clipPath></defs><g clip-path="url(#clip0)"><rect x="0" y="0" width="1280" height="720" fill="#FFFFFF"/><path d="M0.500053 9.66698C0.500053 4.60422 4.60421 0.500053 9.66695 0.500053L228.333 0.500053C233.396 0.500053 237.5 4.60422 237.5 9.66698L237.5 46.3331C237.5 51.3959 233.396 55.5 228.333 55.5L9.66695 55.5C4.60421 55.5 0.500053 51.3959 0.500053 46.3331Z" stroke="#000000" stroke-width="1.33333" stroke-miterlimit="8" fill="#FFFFFF" fill-rule="evenodd"/><text font-family="Calibri,Calibri_MSFontService,sans-serif" font-weight="400" font-size="24" transform="translate(46.9253 35)">deviceUpdater</text><path d="M55.5001 419.167C55.5001 414.932 58.9324 411.5 63.1665 411.5L500.834 411.5C505.068 411.5 508.5 414.932 508.5 419.167L508.5 449.834C508.5 454.068 505.068 457.5 500.834 457.5L63.1665 457.5C58.9324 457.5 55.5001 454.068 55.5001 449.834Z" stroke="#000000" stroke-width="1.33333" stroke-miterlimit="8" fill="#FFFFFF" fill-rule="evenodd"/><text font-family="Calibri,Calibri_MSFontService,sans-serif" font-weight="400" font-size="24" transform="translate(76.9844 441)">updateDeviceResource(<tspan font-size="24" x="230.96" y="0">discoveredDevice</tspan>)</text><path d="M55.5001 93.1666C55.5001 88.9325 58.9324 85.5001 63.1665 85.5001L500.834 85.5001C505.068 85.5001 508.5 88.9325 508.5 93.1666L508.5 123.834C508.5 128.068 505.068 131.5 500.834 131.5L63.1665 131.5C58.9324 131.5 55.5001 128.068 55.5001 123.834Z" stroke="#000000" stroke-width="1.33333" stroke-miterlimit="8" fill="#FFFFFF" fill-rule="evenodd"/><text font-family="Calibri,Calibri_MSFontService,sans-serif" font-weight="400" font-size="24" transform="translate(116.741 116)">verifyResource(<tspan font-size="24" x="151.447" y="0">discoveredDevice</tspan>)</text><path d="M192.5 234 281.5 185.5 370.5 234 281.5 282.5Z" stroke="#000000" stroke-width="1.33333" stroke-miterlimit="8" fill="#FFFFFF" fill-rule="evenodd"/><text font-family="Calibri,Calibri_MSFontService,sans-serif" font-weight="400" font-size="24" transform="translate(252.061 241)">Valid?</text><path d="M455.5 213.167C455.5 207.276 460.276 202.5 466.167 202.5L540.833 202.5C546.724 202.5 551.5 207.276 551.5 213.167L551.5 255.833C551.5 261.724 546.724 266.5 540.833 266.5L466.167 266.5C460.276 266.5 455.5 261.724 455.5 255.833Z" stroke="#000000" stroke-width="1.33333" stroke-miterlimit="8" fill="#FFFFFF" fill-rule="evenodd"/><text font-family="Calibri,Calibri_MSFontService,sans-serif" font-weight="400" font-size="24" transform="translate(477.403 241)">Done</text><path d="M378.5 219.25 419 219.25 419 204.5 448.5 234 419 263.5 419 248.75 378.5 248.75Z" stroke="#000000" stroke-width="1.33333" stroke-miterlimit="8" fill="#FFFFFF" fill-rule="evenodd"/><text font-family="Calibri,Calibri_MSFontService,sans-serif" font-weight="400" font-size="24" transform="translate(391.403 241)">No</text><path d="M227.5 345 254.75 345 254.75 296.5 309.25 296.5 309.25 345 336.5 345 282 393.5Z" stroke="#000000" stroke-width="1.33333" stroke-miterlimit="8" fill="#FFFFFF" fill-rule="evenodd"/><text font-family="Calibri,Calibri_MSFontService,sans-serif" font-weight="400" font-size="24" transform="translate(265.754 340)">Yes</text><path d="M282.167 131.5 282.167 179.009 280.833 179.009 280.833 131.5ZM285.5 177.675 281.5 185.675 277.5 177.675Z"/><path d="M23.5001 545.167C23.5001 540.933 26.9326 537.5 31.1669 537.5L532.833 537.5C537.068 537.5 540.5 540.933 540.5 545.167L540.5 575.833C540.5 580.068 537.068 583.5 532.833 583.5L31.1669 583.5C26.9326 583.5 23.5001 580.068 23.5001 575.833Z" stroke="#000000" stroke-width="1.33333" stroke-miterlimit="8" fill="#FFFFFF" fill-rule="evenodd"/><text font-family="Calibri,Calibri_MSFontService,sans-serif" font-weight="400" font-size="24" transform="translate(42.6644 568)">operateKubernetesAPI<tspan font-size="24" x="219.767" y="0">(online, </tspan>discoveredDevice)</text><path d="M282.167 457.5 282.167 531.291 280.833 531.291 280.833 457.5ZM285.5 529.958 281.5 537.958 277.5 529.958Z"/><rect x="748.5" y="131.5" width="321" height="384" stroke="#000000" stroke-width="1.33333" stroke-miterlimit="8" fill="#FFFFFF"/><text font-family="Calibri,Calibri_MSFontService,sans-serif" font-weight="400" font-size="15" transform="translate(757.343 150)">apiVersion<tspan font-size="15" x="63.1667" y="0">:</tspan><tspan font-size="15" x="70.5" y="0">v1</tspan><tspan font-size="15" x="0" y="17">kind:</tspan><tspan font-size="15" x="32.6667" y="17">edgeDevice</tspan><tspan font-size="15" x="0" y="35">metadata:</tspan><tspan font-size="15" x="6.66669" y="53">name:</tspan><tspan font-size="15" x="47.6667" y="53">franka</tspan>-emika-1<tspan font-size="15" x="0" y="70">spec:</tspan><tspan font-size="15" x="0" y="88">-</tspan><tspan font-size="15" x="7.83337" y="88">sku</tspan>:<tspan font-size="15" x="35.1667" y="88">"</tspan><tspan font-size="15" x="41" y="88">Franka</tspan><tspan font-size="15" x="84.5" y="88">Emika</tspan><tspan font-size="15" x="120.333" y="88">"</tspan><tspan font-size="15" x="6.66669" y="105">connection:</tspan><tspan font-size="15" x="80.1667" y="105">Ethernet</tspan><tspan font-size="15" x="6.66669" y="123">status:</tspan><tspan font-size="15" x="49.6667" y="123">offline</tspan><tspan font-size="15" x="6.66669" y="141">address:</tspan><tspan font-size="15" x="60.1667" y="141">10.0.0.1:80</tspan><tspan font-size="15" x="6.66669" y="158">protocol:</tspan><tspan font-size="15" x="64.1667" y="158">HTTP</tspan><tspan font-size="15" x="6.66669" y="176">disconnectTimeoutInSeconds:600</tspan><tspan font-size="15" x="210.5" y="176">#</tspan><tspan font-size="15" x="221.167" y="176">optional</tspan><tspan font-size="15" x="6.66669" y="193">group:["room1",</tspan><tspan font-size="15" x="108.5" y="193">"robot"]</tspan><tspan font-size="15" x="161" y="193">#</tspan><tspan font-size="15" x="171.667" y="193">optional</tspan><tspan font-size="15" x="6.66669" y="211">driverSpec</tspan><tspan font-size="15" x="69.8334" y="211">:</tspan><tspan font-size="15" x="77.1667" y="211">#</tspan><tspan font-size="15" x="87.8334" y="211">optional</tspan><tspan font-size="15" x="140.333" y="211">when</tspan><tspan font-size="15" x="176.833" y="211">no</tspan><tspan font-size="15" x="195.5" y="211">driver</tspan><tspan font-size="15" x="234.167" y="211">is</tspan><tspan font-size="15" x="246.5" y="211">required</tspan><tspan font-size="15" x="6.66669" y="229">-</tspan><tspan font-size="15" x="14.5" y="229">instructionMap</tspan><tspan font-size="15" x="105.667" y="229">:</tspan><tspan font-size="15" x="116.333" y="229">#</tspan><tspan font-size="15" x="127" y="229">optional</tspan><tspan font-size="15" x="20" y="246">move_to</tspan><tspan font-size="15" x="73.1667" y="246">:</tspan><tspan font-size="15" x="20" y="264">-</tspan><tspan font-size="15" x="27.8334" y="264">api</tspan>:<tspan font-size="15" x="53.1667" y="264">absolute_move</tspan><tspan font-size="15" x="148.333" y="264">#</tspan><tspan font-size="15" x="159" y="264">API</tspan><tspan font-size="15" x="182" y="264">of</tspan><tspan font-size="15" x="197.5" y="264">the</tspan><tspan font-size="15" x="220.667" y="264">driver</tspan></text><path d="M0 0 306.165 353.174" stroke="#000000" stroke-width="1.33333" stroke-miterlimit="8" stroke-dasharray="5.33333 4" fill="#FFFFFF" fill-rule="evenodd" transform="matrix(1 0 0 -1 485.5 378.674)"/><path d="M478.5 473.5 983.748 613.537" stroke="#000000" stroke-width="1.33333" stroke-miterlimit="8" stroke-dasharray="5.33333 4" fill="#FFFFFF" fill-rule="evenodd"/></g></svg>