<svg width="1280" height="720" xmlns="http://www.w3.org/2000/svg" xmlns:xlink="http://www.w3.org/1999/xlink" overflow="hidden"><defs><clipPath id="clip0"><rect x="0" y="0" width="1280" height="720"/></clipPath></defs><g clip-path="url(#clip0)"><rect x="0" y="0" width="1280" height="720" fill="#FFFFFF"/><path d="M88.5001 374C88.5001 352.185 127.004 334.5 174.5 334.5 221.997 334.5 260.5 352.185 260.5 374 260.5 395.815 221.997 413.5 174.5 413.5 127.004 413.5 88.5001 395.815 88.5001 374Z" stroke="#000000" stroke-width="1.33333" stroke-miterlimit="8" fill="#FFFFFF" fill-rule="evenodd"/><text font-family="Calibri,Calibri_MSFontService,sans-serif" font-weight="400" font-size="19" transform="translate(130.688 356)">Kubernetes <tspan font-size="19" x="-0.593323" y="23">edgeDevice</tspan><tspan font-size="19" x="10.38" y="45">resource</tspan></text><path d="M546.5 374C546.5 352.185 578.288 334.5 617.5 334.5 656.712 334.5 688.5 352.185 688.5 374 688.5 395.815 656.712 413.5 617.5 413.5 578.288 413.5 546.5 395.815 546.5 374Z" stroke="#000000" stroke-width="1.33333" stroke-miterlimit="8" fill="#FFFFFF" fill-rule="evenodd"/><text font-family="Calibri,Calibri_MSFontService,sans-serif" font-weight="400" font-size="19" transform="translate(593.978 379)">shifud</text><path d="M3.02788e-07-0.666667 224.489-0.666565 224.489 0.666769-3.02788e-07 0.666667ZM223.156-3.9999 231.156 0.000104987 223.156 4.0001Z" transform="matrix(1 0 0 -1 282.5 373.5)"/><path d="M2.79945e-07-0.666667 243.352-0.666564 243.352 0.666769-2.79945e-07 0.666667ZM242.018-3.9999 250.018 0.000104987 242.018 4.0001Z" transform="matrix(1 0 0 -1 706.5 373.5)"/><rect x="328.5" y="314.5" width="151" height="39" stroke="#000000" stroke-width="1.33333" stroke-miterlimit="8" fill="#FFFFFF"/><text font-family="Calibri,Calibri_MSFontService,sans-serif" font-weight="400" font-size="24" transform="translate(337.6 341)">deviceList</text><rect x="765.5" y="263.5" width="151" height="97" stroke="#000000" stroke-width="1.33333" stroke-miterlimit="8" fill="#FFFFFF"/><text font-family="Calibri,Calibri_MSFontService,sans-serif" font-weight="400" font-size="24" transform="translate(774.518 290)">edgeDevice<tspan font-size="24" x="0" y="29">resource </tspan><tspan font-size="24" x="0" y="58">update</tspan></text><rect x="88.5001" y="38.5001" width="1104" height="140" stroke="#000000" stroke-width="1.33333" stroke-miterlimit="8" fill="#FFFFFF"/><text font-family="Calibri,Calibri_MSFontService,sans-serif" font-weight="400" font-size="59" transform="translate(97.6 124)">High-level overview</text><path d="M983.5 374.5C983.5 348.543 1022.23 327.5 1070 327.5 1117.77 327.5 1156.5 348.543 1156.5 374.5 1156.5 400.457 1117.77 421.5 1070 421.5 1022.23 421.5 983.5 400.457 983.5 374.5Z" stroke="#000000" stroke-width="1.33333" stroke-miterlimit="8" fill="#FFFFFF" fill-rule="evenodd"/><text font-family="Calibri,Calibri_MSFontService,sans-serif" font-weight="400" font-size="19" transform="translate(1026.1 368)">Kubernetes <tspan font-size="19" x="4.95337" y="23">API server</tspan></text></g></svg>