<?xml version="1.0" encoding="UTF-8"?>
<svg width="30px" height="22px" viewBox="0 0 30 22" version="1.1" xmlns="http://www.w3.org/2000/svg" xmlns:xlink="http://www.w3.org/1999/xlink">
    <title></title>
    <defs>
        <linearGradient x1="0%" y1="50%" x2="100%" y2="37.4921101%" id="linearGradient-1">
            <stop stop-color="#2872E0" offset="0%"></stop>
            <stop stop-color="#5AFFEF" offset="100%"></stop>
        </linearGradient>
        <linearGradient x1="0%" y1="50%" x2="100%" y2="37.4921101%" id="linearGradient-2">
            <stop stop-color="#39A9FF" offset="0%"></stop>
            <stop stop-color="#39A9FF" offset="100%"></stop>
        </linearGradient>
    </defs>
    <g id="页面-1" stroke="none" stroke-width="1" fill="none" fill-rule="evenodd">
        <g id="1实例" transform="translate(-9.000000, -13.000000)" stroke="#39A9FF">
            <g id="编组-34" transform="translate(-10.000000, -6.000000)">
                <g id="logo-18" transform="translate(20.000000, 20.000000)">
                    <path d="M25.5929067,6.37889669 C24.4717673,5.41239719 23.080008,4.83249749 21.5722688,4.71651757 C20.7604092,3.32475829 19.5619499,2.16495889 18.1701906,1.31443933 C16.7397713,0.46391976 15.0773922,0 13.3763531,0 C11.0954142,0 8.8531354,0.850519567 7.1134363,2.35825879 C5.60569708,3.67269811 4.52321763,5.45105717 4.09795786,7.42271615 C2.93815846,7.80931596 1.93299899,8.5051956 1.19845936,9.51035507 C0.425259772,10.5541745 0,11.7912939 0,13.1057332 C0,14.5361525 0.502579747,15.9279118 1.46907923,17.0490512 C2.39691875,18.1315306 3.67269809,18.8660702 5.06445737,19.0980301 L14.3650311,19.0980301 C14.9449308,19.0593701 15.3701906,18.5567904 15.3701906,17.9768907 C15.3701906,17.396991 14.9062708,16.9330712 14.3650311,16.8557513 L5.87631695,16.8557513 C3.86599798,16.8170913 2.20361886,15.1547122 2.20361886,13.1443932 C2.20361886,11.3660341 3.4793982,9.81963493 5.25775726,9.47169511 L6.03095687,9.31705518 L6.14693681,8.5051956 C6.37889669,6.80415649 7.26807623,5.2190973 8.58251555,4.0592979 C9.89695488,2.8994985 11.597994,2.28093881 13.3763531,2.28093883 C14.5361525,2.28093883 15.6959519,2.5515587 16.7397713,3.09279841 C17.6289508,3.55671817 18.4021505,4.17527786 19.0207101,4.94847745 C17.435651,5.37373722 16.0825517,6.30157674 15.1160522,7.61601607 C14.9227523,7.84797595 14.8454323,8.15725578 14.9227523,8.46653561 C14.9614122,8.77581544 15.1160522,9.04643531 15.348012,9.20107524 C15.8505918,9.54901506 16.5464714,9.47169511 16.9330712,8.96911536 C17.8609107,7.69333602 19.32999,6.95879639 20.9150491,6.95879639 C23.157328,6.95879639 25.0501283,8.37189502 25.630028,10.5368539 L25.668688,10.6914938 C25.7358433,11.0198717 26.1975482,11.5677203 26.7774479,11.5677203 C27.3960076,11.5677203 27.8836479,10.9582881 27.8849386,10.3660323 C27.8453649,10.179162 27.8738455,10.2835547 27.8351856,10.1675747 C27.5259057,8.65983553 26.7527061,7.38405619 25.5929067,6.37889669 Z" id="路径" stroke-width="0.3" fill="url(#linearGradient-2)"></path>
                    <path d="M27.6996434,14.3107895 C27.5934558,13.2489134 26.6377673,12.4348083 25.5758911,12.5409959 C24.7263902,12.6117877 24.0538687,13.2135175 23.8414935,13.9922267 L17.647216,13.0365381 C17.5764243,12.5763918 17.3286532,12.1870372 16.9746945,11.8684744 C16.549944,11.5145157 16.0544018,11.3729322 15.5234638,11.4083281 C14.4261918,11.5145157 13.6120867,12.4702042 13.7182744,13.5674762 C13.824462,14.5939565 14.6739629,15.3726656 15.7004431,15.3726656 L15.8774225,15.3726656 C16.0897977,15.3726656 16.2667771,15.3018739 16.4437564,15.2310821 L19.6647807,17.9919601 C19.593989,18.1689394 19.593989,18.3813146 19.593989,18.5936899 C19.6647807,19.4785867 20.4434899,20.1157123 21.2929908,20.0095247 C22.1424917,19.9033371 22.8150132,19.1600238 22.7088256,18.3105229 C22.7088256,18.2397312 22.7088256,18.2043353 22.6734297,18.1335436 L24.797182,16.1513748 C25.1157448,16.3283541 25.5050994,16.3991459 25.894454,16.36375 C26.991726,16.3283541 27.805831,15.4080615 27.6996434,14.3107895 L27.6996434,14.3107895 Z M21.0098238,16.9300839 C20.7266568,16.9654798 20.4788857,17.0362716 20.2665105,17.177855 L17.2932573,14.5939565 C17.3994449,14.452373 17.5056325,14.2753936 17.5764243,14.0630184 L23.8768893,15.0187069 C23.9122852,15.1602904 23.9830769,15.3018739 24.0538687,15.4434574 L22.1424917,17.2486468 C21.8239288,17.0362716 21.4345743,16.8946881 21.0098238,16.9300839 L21.0098238,16.9300839 Z M15.8066307,14.4877688 C15.2049009,14.5231647 14.7093587,14.0984143 14.638567,13.4966844 C14.6031711,12.8949546 15.0279216,12.3994124 15.6296514,12.3286207 L15.735839,12.3286207 C16.3021729,12.3286207 16.7623193,12.7533712 16.7977151,13.3197051 C16.833111,13.9214349 16.3729647,14.4169771 15.8066307,14.4877688 Z" id="形状" stroke-width="0.4" fill="#39A9FF" fill-rule="nonzero"></path>
                </g>
            </g>
        </g>
    </g>
</svg>