<?xml version="1.0" encoding="UTF-8"?>
<svg width="215px" height="118px" viewBox="0 0 215 118" version="1.1" xmlns="http://www.w3.org/2000/svg" xmlns:xlink="http://www.w3.org/1999/xlink">
    <title>编组 22</title>
    <defs>
        <linearGradient x1="100%" y1="50%" x2="0%" y2="50%" id="linearGradient-1">
            <stop stop-color="#A8BAFF" offset="0%"></stop>
            <stop stop-color="#CFDAFF" offset="25.2233067%"></stop>
            <stop stop-color="#CEDAFE" offset="50.0897391%"></stop>
            <stop stop-color="#F0F4FF" offset="79.6097957%"></stop>
            <stop stop-color="#E3E9FD" offset="100%"></stop>
        </linearGradient>
        <linearGradient x1="100%" y1="50%" x2="0%" y2="50%" id="linearGradient-2">
            <stop stop-color="#302647" offset="0%"></stop>
            <stop stop-color="#ACA8B5" offset="18.2240046%"></stop>
            <stop stop-color="#8D65E1" offset="18.2498845%"></stop>
            <stop stop-color="#8D65E1" offset="22.3140887%"></stop>
            <stop stop-color="#E0A716" offset="22.4135913%"></stop>
            <stop stop-color="#E0A716" offset="25.9926462%"></stop>
            <stop stop-color="#59516C" offset="26.0065665%"></stop>
            <stop stop-color="#302647" offset="49.6490762%"></stop>
            <stop stop-color="#ACA8B5" offset="100%"></stop>
        </linearGradient>
        <linearGradient x1="50%" y1="0%" x2="50%" y2="100%" id="linearGradient-3">
            <stop stop-color="#F0F4FF" offset="0%"></stop>
            <stop stop-color="#F8FAFF" offset="100%"></stop>
        </linearGradient>
        <path d="M99.9061637,3.39814097 L16.3868492,40.8456118 C14.8309478,41.5432297 14.1351717,43.370068 14.8327896,44.9259694 C15.1426578,45.6170702 15.6957483,46.1701608 16.3868492,46.480029 L99.9061637,83.9274998 C104.727533,86.0892524 110.242582,86.0892524 115.063951,83.9274998 L198.583266,46.480029 C200.139167,45.782411 200.834943,43.9555728 200.137325,42.3996714 C199.827457,41.7085705 199.274367,41.15548 198.583266,40.8456118 L115.063951,3.39814097 C110.242582,1.2363884 104.727533,1.2363884 99.9061637,3.39814097 Z" id="path-4"></path>
        <filter x="-1.1%" y="-2.1%" width="102.1%" height="101.1%" filterUnits="objectBoundingBox" id="filter-6">
            <feGaussianBlur stdDeviation="0.385928455" in="SourceGraphic"></feGaussianBlur>
        </filter>
        <linearGradient x1="50%" y1="0%" x2="50%" y2="98.8308566%" id="linearGradient-7">
            <stop stop-color="#C0BDC7" offset="0%"></stop>
            <stop stop-color="#59516C" offset="100%"></stop>
        </linearGradient>
        <path d="M59.5587094,3.39814097 L6.28323684,27.2852109 C4.72733551,27.9828288 4.03155933,29.8096671 4.72917724,31.3655684 C5.03904544,32.0566693 5.59213596,32.6097598 6.28323684,32.919628 L59.5587094,56.806698 C64.3800789,58.9684505 69.8951275,58.9684505 74.716497,56.806698 L127.99197,32.919628 C129.547871,32.2220101 130.243647,30.3951718 129.546029,28.8392705 C129.236161,28.1481696 128.68307,27.5950791 127.99197,27.2852109 L74.716497,3.39814097 C69.8951275,1.2363884 64.3800789,1.2363884 59.5587094,3.39814097 Z" id="path-8"></path>
        <linearGradient x1="50%" y1="0%" x2="50%" y2="98.8308566%" id="linearGradient-10">
            <stop stop-color="#837D91" offset="0%"></stop>
            <stop stop-color="#59516C" offset="100%"></stop>
        </linearGradient>
    </defs>
    <g id="微服务" stroke="none" stroke-width="1" fill="none" fill-rule="evenodd">
        <g id="微服务首页" transform="translate(-1201.000000, -75.000000)">
            <g id="编组-7" transform="translate(1201.000000, 13.000000)">
                <g id="编组-22" transform="translate(0.000000, 62.081576)">
                    <path d="M102.003243,21.1679839 C102.206467,21.1058119 102.421452,21.2206834 102.483425,21.4245567 C102.545399,21.62843 102.430894,21.8441024 102.22767,21.9062744 C101.507581,22.1265711 100.800894,22.3922597 100.111498,22.7022874 C99.9176232,22.7894746 99.690003,22.7024849 99.6030937,22.5079904 C99.5161844,22.313496 99.6028969,22.085148 99.7967714,21.9979608 C100.515563,21.6747136 101.25241,21.3976858 102.003243,21.1679839 Z M106.648473,20.3669769 C106.860726,20.3574943 107.040454,20.5224221 107.049906,20.7353534 C107.059358,20.9482848 106.894956,21.128587 106.682704,21.1380696 C105.929554,21.1717175 105.178995,21.2527219 104.435513,21.3807207 C104.226111,21.4167715 104.027225,21.2757 103.991289,21.0656285 C103.955353,20.8555571 104.095975,20.6560355 104.305377,20.6199846 C105.080596,20.486522 105.863186,20.4020606 106.648473,20.3669769 Z M111.345642,20.7502247 C111.553575,20.7940002 111.686765,20.9985899 111.643129,21.2071885 C111.599493,21.4157871 111.395555,21.5494027 111.187622,21.5056272 C110.449267,21.3501843 109.702227,21.2414882 108.950934,21.1800203 C108.739174,21.1626949 108.581509,20.9764356 108.598779,20.7639985 C108.61605,20.5515614 108.801715,20.3933922 109.013475,20.4107176 C109.796832,20.4748089 110.575762,20.5881449 111.345642,20.7502247 Z M115.783725,22.2724551 C115.9776,22.3596423 116.064312,22.5879903 115.977403,22.7824847 C115.890494,22.9769792 115.662874,23.0639689 115.468999,22.9767817 L114.858617,22.7022874 C114.385988,22.4897418 113.905168,22.2980066 113.41739,22.1274346 C113.216766,22.057278 113.11082,21.837247 113.180753,21.6359817 C113.250686,21.4347163 113.470016,21.3284317 113.67064,21.3985883 C114.179234,21.5764398 114.680566,21.7763544 115.173343,21.9979608 L115.783725,22.2724551 Z M119.996216,24.1668509 C120.190091,24.254038 120.276803,24.4823861 120.189894,24.6768805 C120.102985,24.8713749 119.875365,24.9583647 119.68149,24.8711775 L117.575245,23.9239796 C117.38137,23.8367925 117.294658,23.6084444 117.381567,23.41395 C117.468476,23.2194556 117.696096,23.1324658 117.889971,23.219653 L119.996216,24.1668509 Z M124.208708,26.0612466 C124.402582,26.1484338 124.489295,26.3767818 124.402385,26.5712763 C124.315476,26.7657707 124.087856,26.8527604 123.893981,26.7655733 L121.787736,25.8183754 C121.593861,25.7311882 121.507149,25.5028402 121.594058,25.3083457 C121.680967,25.1138513 121.908587,25.0268616 122.102462,25.1140487 L124.208708,26.0612466 Z M128.421199,27.9556424 C128.615073,28.0428295 128.701786,28.2711776 128.614876,28.465672 C128.527967,28.6601664 128.300347,28.7471562 128.106472,28.659969 L126.000227,27.7127711 C125.806352,27.625584 125.71964,27.3972359 125.806549,27.2027415 C125.893458,27.0082471 126.121079,26.9212573 126.314953,27.0084445 L128.421199,27.9556424 Z M132.63369,29.8500381 C132.827564,29.9372253 132.914277,30.1655733 132.827368,30.3600678 C132.740458,30.5545622 132.512838,30.6415519 132.318963,30.5543648 L130.212718,29.6071669 C130.018843,29.5199797 129.932131,29.2916317 130.01904,29.0971373 C130.105949,28.9026428 130.33357,28.8156531 130.527444,28.9028403 L132.63369,29.8500381 Z M136.846181,31.7444339 C137.040055,31.831621 137.126768,32.0599691 137.039859,32.2544635 C136.952949,32.4489579 136.725329,32.5359477 136.531455,32.4487605 L134.425209,31.5015626 C134.231334,31.4143755 134.144622,31.1860274 134.231531,30.991533 C134.318441,30.7970386 134.546061,30.7100489 134.739935,30.797236 L136.846181,31.7444339 Z M141.058672,33.6388296 C141.252547,33.7260168 141.339259,33.9543648 141.25235,34.1488593 C141.16544,34.3433537 140.93782,34.4303434 140.743946,34.3431563 L138.6377,33.3959584 C138.443826,33.3087712 138.357113,33.0804232 138.444022,32.8859288 C138.530932,32.6914343 138.758552,32.6044446 138.952426,32.6916318 L141.058672,33.6388296 Z M145.271163,35.5332254 C145.465038,35.6204126 145.55175,35.8487606 145.464841,36.043255 C145.377932,36.2377495 145.150311,36.3247392 144.956437,36.237552 L142.850191,35.2903542 C142.656317,35.203167 142.569604,34.974819 142.656513,34.7803245 C142.743423,34.5858301 142.971043,34.4988404 143.164918,34.5860275 L145.271163,35.5332254 Z M149.483654,37.4276212 C149.677529,37.5148083 149.764241,37.7431564 149.677332,37.9376508 C149.590423,38.1321452 149.362802,38.2191349 149.168928,38.1319478 L147.062682,37.1847499 C146.868808,37.0975628 146.782095,36.8692147 146.869005,36.6747203 C146.955914,36.4802259 147.183534,36.3932361 147.377409,36.4804233 L149.483654,37.4276212 Z M153.696145,39.3220169 C153.89002,39.4092041 153.976732,39.6375521 153.889823,39.8320465 C153.802914,40.026541 153.575294,40.1135307 153.381419,40.0263435 L151.275173,39.0791457 C151.081299,38.9919585 150.994586,38.7636105 151.081496,38.569116 C151.168405,38.3746216 151.396025,38.2876319 151.5899,38.374819 L153.696145,39.3220169 Z M157.908636,41.2164127 C158.102511,41.3035998 158.189224,41.5319479 158.102314,41.7264423 C158.015405,41.9209367 157.787785,42.0079265 157.59391,41.9207393 L155.487665,40.9735414 C155.29379,40.8863543 155.207078,40.6580062 155.293987,40.4635118 C155.380896,40.2690174 155.608516,40.1820276 155.802391,40.2692148 L157.908636,41.2164127 Z M162.121128,43.1108084 C162.315002,43.1979956 162.401715,43.4263436 162.314805,43.6208381 C162.227896,43.8153325 162.000276,43.9023222 161.806401,43.8151351 L159.700156,42.8679372 C159.506281,42.78075 159.419569,42.552402 159.506478,42.3579076 C159.593387,42.1634131 159.821007,42.0764234 160.014882,42.1636105 L162.121128,43.1108084 Z M166.333619,45.0052042 C166.527493,45.0923913 166.614206,45.3207394 166.527296,45.5152338 C166.440387,45.7097282 166.212767,45.796718 166.018892,45.7095308 L163.912647,44.7623329 C163.718772,44.6751458 163.63206,44.4467977 163.718969,44.2523033 C163.805878,44.0578089 164.033499,43.9708191 164.227373,44.0580063 L166.333619,45.0052042 Z M170.54611,46.8995999 C170.739984,46.9867871 170.826697,47.2151351 170.739788,47.4096296 C170.652878,47.604124 170.425258,47.6911137 170.231383,47.6039266 L168.125138,46.6567287 C167.931263,46.5695415 167.844551,46.3411935 167.93146,46.1466991 C168.018369,45.9522046 168.24599,45.8652149 168.439864,45.9524021 L170.54611,46.8995999 Z M174.758601,48.7939957 C174.952475,48.8811829 175.039188,49.1095309 174.952279,49.3040253 C174.865369,49.4985197 174.637749,49.5855095 174.443875,49.4983223 L172.337629,48.5511244 C172.143754,48.4639373 172.057042,48.2355892 172.143951,48.0410948 C172.230861,47.8466004 172.458481,47.7596107 172.652355,47.8467978 L174.758601,48.7939957 Z M178.971092,50.6883915 C179.164967,50.7755786 179.251679,51.0039267 179.16477,51.1984211 C179.077861,51.3929155 178.85024,51.4799052 178.656366,51.3927181 L176.55012,50.4455202 C176.356246,50.358333 176.269533,50.129985 176.356442,49.9354906 C176.443352,49.7409961 176.670972,49.6540064 176.864846,49.7411936 L178.971092,50.6883915 Z M183.183583,52.5827872 C183.377458,52.6699744 183.46417,52.8983224 183.377261,53.0928168 C183.290352,53.2873113 183.062731,53.374301 182.868857,53.2871138 L180.762611,52.339916 C180.568737,52.2527288 180.482024,52.0243808 180.568933,51.8298863 C180.655843,51.6353919 180.883463,51.5484022 181.077338,51.6355893 L183.183583,52.5827872 Z M187.396074,54.477183 C187.589949,54.5643701 187.676661,54.7927182 187.589752,54.9872126 C187.502843,55.181707 187.275222,55.2686967 187.081348,55.1815096 L184.975102,54.2343117 C184.781228,54.1471246 184.694515,53.9187765 184.781425,53.7242821 C184.868334,53.5297877 185.095954,53.4427979 185.289829,53.5299851 L187.396074,54.477183 Z M191.608565,56.3715787 C191.80244,56.4587659 191.889152,56.6871139 191.802243,56.8816083 C191.715334,57.0761028 191.487714,57.1630925 191.293839,57.0759053 L189.187593,56.1287075 C188.993719,56.0415203 188.907006,55.8131723 188.993916,55.6186778 C189.080825,55.4241834 189.308445,55.3371937 189.50232,55.4243808 L191.608565,56.3715787 Z M195.821056,58.2659745 C196.014931,58.3531616 196.101644,58.5815097 196.014734,58.7760041 C195.927825,58.9704985 195.700205,59.0574883 195.50633,58.9703011 L193.400085,58.0231032 C193.20621,57.9359161 193.119498,57.707568 193.206407,57.5130736 C193.293316,57.3185792 193.520936,57.2315894 193.714811,57.3187766 L195.821056,58.2659745 Z M200.033548,60.1603702 C200.227422,60.2475574 200.314135,60.4759054 200.227225,60.6703999 C200.140316,60.8648943 199.912696,60.951884 199.718821,60.8646969 L197.612576,59.917499 C197.418701,59.8303118 197.331989,59.6019638 197.418898,59.4074694 C197.505807,59.2129749 197.733427,59.1259852 197.927302,59.2131724 L200.033548,60.1603702 Z M204.246039,62.054766 C204.439913,62.1419531 204.526626,62.3703012 204.439716,62.5647956 C204.352807,62.75929 204.125187,62.8462798 203.931312,62.7590926 L201.825067,61.8118947 C201.631192,61.7247076 201.54448,61.4963595 201.631389,61.3018651 C201.718298,61.1073707 201.945919,61.020381 202.139793,61.1075681 L204.246039,62.054766 Z M208.45853,63.9491617 C208.652404,64.0363489 208.739117,64.2646969 208.652208,64.4591914 C208.565298,64.6536858 208.337678,64.7406755 208.143803,64.6534884 L206.037558,63.7062905 C205.843683,63.6191033 205.756971,63.3907553 205.84388,63.1962609 C205.930789,63.0017664 206.15841,62.9147767 206.352284,63.0019639 L208.45853,63.9491617 Z M212.671021,65.8435575 C212.864895,65.9307447 212.951608,66.1590927 212.864699,66.3535871 C212.777789,66.5480816 212.550169,66.6350713 212.356295,66.5478841 L210.250049,65.6006862 C210.056174,65.5134991 209.969462,65.285151 210.056371,65.0906566 C210.143281,64.8961622 210.370901,64.8091725 210.564775,64.8963596 L212.671021,65.8435575 Z M214.862486,70.1004853 C214.803129,70.3051407 214.589634,70.4227745 214.38563,70.3632276 C214.181627,70.3036807 214.064368,70.0895024 214.123725,69.8848469 C214.300777,69.2743958 214.258886,68.6226595 213.990939,68.0230644 C213.967814,67.9718575 213.943119,67.9214349 213.916891,67.8718606 C213.817288,67.6835915 213.888679,67.4499664 214.076348,67.3500442 C214.264017,67.2501221 214.496897,67.3217414 214.596501,67.5100105 C214.630246,67.5737951 214.662019,67.638668 214.69239,67.7059272 C215.036193,68.4752601 215.090193,69.3153814 214.862486,70.1004853 Z M211.101366,73.1305275 C210.907494,73.2177214 210.679871,73.1307396 210.592955,72.9362481 C210.506039,72.7417567 210.592744,72.5134057 210.786615,72.4262118 L212.661075,71.5831813 C212.733873,71.5498501 212.804795,71.5135208 212.873734,71.4742925 C213.058537,71.3691327 213.293327,71.4341758 213.398152,71.6195703 C213.502976,71.8049647 213.438141,72.0405055 213.253337,72.1456652 C213.164816,72.1960371 213.073825,72.2426465 212.978178,72.2864297 L211.101366,73.1305275 Z M206.888863,75.0249287 C206.694988,75.1121159 206.467368,75.0251261 206.380459,74.8306317 C206.293549,74.6361373 206.380262,74.4077892 206.574136,74.3206021 L208.680382,73.3734042 C208.874257,73.286217 209.101877,73.3732068 209.188786,73.5677012 C209.275695,73.7621956 209.188983,73.9905437 208.995108,74.0777308 L206.888863,75.0249287 Z M202.676372,76.9193245 C202.482497,77.0065116 202.254877,76.9195219 202.167968,76.7250275 C202.081058,76.530533 202.167771,76.302185 202.361645,76.2149978 L204.467891,75.2678 C204.661765,75.1806128 204.889386,75.2676025 204.976295,75.462097 C205.063204,75.6565914 204.976492,75.8849394 204.782617,75.9721266 L202.676372,76.9193245 Z M198.463881,78.8137202 C198.270006,78.9009074 198.042386,78.8139176 197.955476,78.6194232 C197.868567,78.4249288 197.95528,78.1965807 198.149154,78.1093936 L200.2554,77.1621957 C200.449274,77.0750086 200.676895,77.1619983 200.763804,77.3564927 C200.850713,77.5509871 200.764001,77.7793352 200.570126,77.8665223 L198.463881,78.8137202 Z M194.251389,80.708116 C194.057515,80.7953031 193.829895,80.7083134 193.742985,80.513819 C193.656076,80.3193245 193.742789,80.0909765 193.936663,80.0037893 L196.042909,79.0565915 C196.236783,78.9694043 196.464403,79.056394 196.551313,79.2508885 C196.638222,79.4453829 196.55151,79.6737309 196.357635,79.7609181 L194.251389,80.708116 Z M190.038898,82.6025117 C189.845024,82.6896989 189.617403,82.6027092 189.530494,82.4082147 C189.443585,82.2137203 189.530297,81.9853723 189.724172,81.8981851 L191.830418,80.9509872 C192.024292,80.8638001 192.251912,80.9507898 192.338822,81.1452842 C192.425731,81.3397786 192.339018,81.5681267 192.145144,81.6553138 L190.038898,82.6025117 Z M185.826407,84.4969075 C185.632533,84.5840946 185.404912,84.4971049 185.318003,84.3026105 C185.231094,84.1081161 185.317806,83.879768 185.511681,83.7925809 L187.617926,82.845383 C187.811801,82.7581958 188.039421,82.8451855 188.12633,83.03968 C188.21324,83.2341744 188.126527,83.4625224 187.932653,83.5497096 L185.826407,84.4969075 Z M181.613916,86.3913032 C181.420042,86.4784904 181.192421,86.3915007 181.105512,86.1970062 C181.018603,86.0025118 181.105315,85.7741638 181.29919,85.6869766 L183.405435,84.7397787 C183.59931,84.6525916 183.82693,84.7395813 183.913839,84.9340757 C184.000749,85.1285702 183.914036,85.3569182 183.720162,85.4441054 L181.613916,86.3913032 Z M177.401425,88.285699 C177.20755,88.3728862 176.97993,88.2858964 176.893021,88.091402 C176.806112,87.8969076 176.892824,87.6685595 177.086699,87.5813724 L179.192944,86.6341745 C179.386819,86.5469873 179.614439,86.6339771 179.701348,86.8284715 C179.788258,87.0229659 179.701545,87.251314 179.507671,87.3385011 L177.401425,88.285699 Z M173.188934,90.1800947 C172.995059,90.2672819 172.767439,90.1802922 172.68053,89.9857977 C172.59362,89.7913033 172.680333,89.5629553 172.874208,89.4757681 L174.980453,88.5285702 C175.174328,88.4413831 175.401948,88.5283728 175.488857,88.7228672 C175.575766,88.9173617 175.489054,89.1457097 175.295179,89.2328969 L173.188934,90.1800947 Z M168.976443,92.0744905 C168.782568,92.1616777 168.554948,92.0746879 168.468039,91.8801935 C168.381129,91.6856991 168.467842,91.457351 168.661716,91.3701639 L170.767962,90.422966 C170.961836,90.3357788 171.189457,90.4227686 171.276366,90.617263 C171.363275,90.8117574 171.276563,91.0401055 171.082688,91.1272926 L168.976443,92.0744905 Z M164.763952,93.9688863 C164.570077,94.0560734 164.342457,93.9690837 164.255548,93.7745893 C164.168638,93.5800948 164.255351,93.3517468 164.449225,93.2645596 L166.555471,92.3173618 C166.749345,92.2301746 166.976966,92.3171643 167.063875,92.5116588 C167.150784,92.7061532 167.064072,92.9345012 166.870197,93.0216884 L164.763952,93.9688863 Z M160.551461,95.863282 C160.357586,95.9504692 160.129966,95.8634794 160.043056,95.668985 C159.956147,95.4744906 160.04286,95.2461425 160.236734,95.1589554 L162.34298,94.2117575 C162.536854,94.1245704 162.764475,94.2115601 162.851384,94.4060545 C162.938293,94.6005489 162.851581,94.828897 162.657706,94.9160841 L160.551461,95.863282 Z M156.338969,97.7576778 C156.145095,97.8448649 155.917475,97.7578752 155.830565,97.5633808 C155.743656,97.3688863 155.830369,97.1405383 156.024243,97.0533511 L158.130489,96.1061533 C158.324363,96.0189661 158.551983,96.1059558 158.638893,96.3004503 C158.725802,96.4949447 158.63909,96.7232927 158.445215,96.8104799 L156.338969,97.7576778 Z M152.126478,99.6520735 C151.932604,99.7392607 151.704983,99.652271 151.618074,99.4577765 C151.531165,99.2632821 151.617877,99.0349341 151.811752,98.9477469 L153.917997,98.000549 C154.111872,97.9133619 154.339492,98.0003516 154.426402,98.194846 C154.513311,98.3893405 154.426598,98.6176885 154.232724,98.7048757 L152.126478,99.6520735 Z M147.913987,101.546469 C147.720113,101.633656 147.492492,101.546667 147.405583,101.352172 C147.318674,101.157678 147.405386,100.92933 147.599261,100.842143 L149.705506,99.8949448 C149.899381,99.8077576 150.127001,99.8947474 150.21391,100.089242 C150.30082,100.283736 150.214107,100.512084 150.020233,100.599271 L147.913987,101.546469 Z M143.701496,103.440865 C143.507622,103.528052 143.280001,103.441062 143.193092,103.246568 C143.106183,103.052074 143.192895,102.823726 143.38677,102.736538 L145.493015,101.789341 C145.68689,101.702153 145.91451,101.789143 146.001419,101.983638 C146.088329,102.178132 146.001616,102.40648 145.807742,102.493667 L143.701496,103.440865 Z M139.489005,105.335261 C139.29513,105.422448 139.06751,105.335458 138.980601,105.140964 C138.893692,104.946469 138.980404,104.718121 139.174279,104.630934 L141.280524,103.683736 C141.474399,103.596549 141.702019,103.683539 141.788928,103.878033 C141.875838,104.072528 141.789125,104.300876 141.595251,104.388063 L139.489005,105.335261 Z M135.276514,107.229657 C135.082639,107.316844 134.855019,107.229854 134.76811,107.03536 C134.6812,106.840865 134.767913,106.612517 134.961787,106.52533 L137.068033,105.578132 C137.261908,105.490945 137.489528,105.577935 137.576437,105.772429 C137.663346,105.966923 137.576634,106.195272 137.382759,106.282459 L135.276514,107.229657 Z M131.064023,109.124052 C130.870148,109.211239 130.642528,109.12425 130.555619,108.929755 C130.468709,108.735261 130.555422,108.506913 130.749296,108.419726 L132.855542,107.472528 C133.049416,107.385341 133.277037,107.47233 133.363946,107.666825 C133.450855,107.861319 133.364143,108.089667 133.170268,108.176854 L131.064023,109.124052 Z M126.851532,111.018448 C126.657657,111.105635 126.430037,111.018645 126.343128,110.824151 C126.256218,110.629657 126.342931,110.401309 126.536805,110.314121 L128.643051,109.366924 C128.836925,109.279736 129.064546,109.366726 129.151455,109.561221 C129.238364,109.755715 129.151652,109.984063 128.957777,110.07125 L126.851532,111.018448 Z M122.639041,112.912844 C122.445166,113.000031 122.217546,112.913041 122.130636,112.718547 C122.043727,112.524052 122.13044,112.295704 122.324314,112.208517 L124.43056,111.261319 C124.624434,111.174132 124.852055,111.261122 124.938964,111.455616 C125.025873,111.650111 124.939161,111.878459 124.745286,111.965646 L122.639041,112.912844 Z M118.426549,114.80724 C118.232675,114.894427 118.005055,114.807437 117.918145,114.612943 C117.831236,114.418448 117.917948,114.1901 118.111823,114.102913 L120.218069,113.155715 C120.411943,113.068528 120.639563,113.155518 120.726473,113.350012 C120.813382,113.544506 120.72667,113.772855 120.532795,113.860042 L118.426549,114.80724 Z M114.182332,116.682287 C113.983819,116.758247 113.761511,116.658383 113.685794,116.459235 C113.610076,116.260088 113.709622,116.037069 113.908135,115.96111 C114.228347,115.838583 114.545292,115.706814 114.858617,115.565909 L116.005577,115.050111 C116.199452,114.962924 116.427072,115.049913 116.513982,115.244408 C116.600891,115.438902 116.514178,115.66725 116.320304,115.754437 L115.173343,116.270236 C114.846665,116.417147 114.516203,116.554534 114.182332,116.682287 Z M109.60868,117.799208 C109.397577,117.823282 109.20699,117.671117 109.182993,117.459338 C109.158996,117.24756 109.310675,117.056364 109.521779,117.03229 C110.270528,116.946904 111.013606,116.814459 111.746638,116.635536 C111.953078,116.585146 112.16115,116.712186 112.211379,116.919286 C112.261607,117.126387 112.134973,117.335123 111.928533,117.385513 C111.164197,117.572077 110.389392,117.710177 109.60868,117.799208 Z M104.897722,117.740459 C104.687281,117.711127 104.540387,117.516206 104.569626,117.305092 C104.598865,117.093977 104.793164,116.946614 105.003606,116.975946 C105.750644,117.080072 106.503344,117.137041 107.257191,117.146597 C107.469637,117.14929 107.639683,117.324245 107.636998,117.537371 C107.634314,117.750496 107.459916,117.921085 107.24747,117.918392 C106.46146,117.908429 105.676642,117.849029 104.897722,117.740459 Z M100.314867,116.493938 C100.118475,116.412618 100.02498,116.186979 100.106041,115.989959 C100.187101,115.79294 100.412021,115.699146 100.608413,115.780466 C101.306545,116.069541 102.020862,116.313848 102.747378,116.512398 C102.952371,116.568421 103.073279,116.780547 103.017435,116.986195 C102.961591,117.191844 102.750141,117.313139 102.545148,117.257116 C101.787606,117.050086 101.04279,116.795348 100.314867,116.493938 Z M96.1208588,114.617144 C95.9269843,114.529957 95.8402718,114.301609 95.9271811,114.107115 C96.0140903,113.91262 96.2417106,113.825631 96.4355852,113.912818 L98.5418307,114.860016 C98.7357053,114.947203 98.8224177,115.175551 98.7355085,115.370045 C98.6485992,115.56454 98.4209789,115.65153 98.2271044,115.564342 L96.1208588,114.617144 Z M91.9083677,112.722749 C91.7144931,112.635562 91.6277807,112.407214 91.7146899,112.212719 C91.8015992,112.018225 92.0292195,111.931235 92.223094,112.018422 L94.3293396,112.96562 C94.5232141,113.052807 94.6099266,113.281155 94.5230174,113.47565 C94.4361081,113.670144 94.2084878,113.757134 94.0146133,113.669947 L91.9083677,112.722749 Z M87.6958766,110.828353 C87.502002,110.741166 87.4152896,110.512818 87.5021988,110.318323 C87.5891081,110.123829 87.8167284,110.036839 88.0106029,110.124026 L90.1168485,111.071224 C90.310723,111.158411 90.3974355,111.386759 90.3105262,111.581254 C90.223617,111.775748 89.9959967,111.862738 89.8021221,111.775551 L87.6958766,110.828353 Z M83.4833855,108.933957 C83.2895109,108.84677 83.2027984,108.618422 83.2897077,108.423928 C83.376617,108.229433 83.6042373,108.142443 83.7981118,108.229631 L85.9043574,109.176828 C86.0982319,109.264016 86.1849444,109.492364 86.0980351,109.686858 C86.0111258,109.881353 85.7835056,109.968342 85.589631,109.881155 L83.4833855,108.933957 Z M79.2708944,107.039561 C79.0770198,106.952374 78.9903073,106.724026 79.0772166,106.529532 C79.1641259,106.335037 79.3917462,106.248048 79.5856207,106.335235 L81.6918663,107.282433 C81.8857408,107.36962 81.9724533,107.597968 81.885544,107.792462 C81.7986347,107.986957 81.5710145,108.073947 81.3771399,107.986759 L79.2708944,107.039561 Z M75.0584032,105.145166 C74.8645287,105.057979 74.7778162,104.829631 74.8647255,104.635136 C74.9516348,104.440642 75.179255,104.353652 75.3731296,104.440839 L77.4793752,105.388037 C77.6732497,105.475224 77.7599622,105.703572 77.6730529,105.898067 C77.5861436,106.092561 77.3585234,106.179551 77.1646488,106.092364 L75.0584032,105.145166 Z M70.8459121,103.25077 C70.6520376,103.163583 70.5653251,102.935235 70.6522344,102.74074 C70.7391437,102.546246 70.9667639,102.459256 71.1606385,102.546443 L73.266884,103.493641 C73.4607586,103.580828 73.5474711,103.809176 73.4605618,104.003671 C73.3736525,104.198165 73.1460322,104.285155 72.9521577,104.197968 L70.8459121,103.25077 Z M66.633421,101.356374 C66.4395465,101.269187 66.352834,101.040839 66.4397433,100.846345 C66.5266526,100.65185 66.7542728,100.56486 66.9481474,100.652048 L69.0543929,101.599245 C69.2482675,101.686433 69.33498,101.914781 69.2480707,102.109275 C69.1611614,102.30377 68.9335411,102.390759 68.7396666,102.303572 L66.633421,101.356374 Z M62.4209299,99.4619785 C62.2270554,99.3747913 62.1403429,99.1464433 62.2272522,98.9519488 C62.3141614,98.7574544 62.5417817,98.6704647 62.7356563,98.7576518 L64.8419018,99.7048497 C65.0357764,99.7920369 65.1224888,100.020385 65.0355796,100.214879 C64.9486703,100.409374 64.72105,100.496363 64.5271755,100.409176 L62.4209299,99.4619785 Z M58.2084388,97.5675827 C58.0145642,97.4803955 57.9278518,97.2520475 58.014761,97.0575531 C58.1016703,96.8630586 58.3292906,96.7760689 58.5231651,96.8632561 L60.6294107,97.8104539 C60.8232853,97.8976411 60.9099977,98.1259891 60.8230885,98.3204836 C60.7361792,98.514978 60.5085589,98.6019677 60.3146844,98.5147806 L58.2084388,97.5675827 Z M53.9959477,95.6731869 C53.8020731,95.5859998 53.7153607,95.3576517 53.8022699,95.1631573 C53.8891792,94.9686629 54.1167995,94.8816732 54.310674,94.9688603 L56.4169196,95.9160582 C56.6107941,96.0032453 56.6975066,96.2315934 56.6105973,96.4260878 C56.5236881,96.6205822 56.2960678,96.707572 56.1021932,96.6203848 L53.9959477,95.6731869 Z M49.7834566,93.7787912 C49.589582,93.691604 49.5028695,93.463256 49.5897788,93.2687616 C49.6766881,93.0742671 49.9043084,92.9872774 50.0981829,93.0744646 L52.2044285,94.0216624 C52.398303,94.1088496 52.4850155,94.3371976 52.3981062,94.5316921 C52.311197,94.7261865 52.0835767,94.8131762 51.8897021,94.7259891 L49.7834566,93.7787912 Z M45.5709655,91.8843954 C45.3770909,91.7972083 45.2903784,91.5688602 45.3772877,91.3743658 C45.464197,91.1798714 45.6918173,91.0928816 45.8856918,91.1800688 L47.9919374,92.1272667 C48.1858119,92.2144538 48.2725244,92.4428019 48.1856151,92.6372963 C48.0987058,92.8317907 47.8710856,92.9187805 47.677211,92.8315933 L45.5709655,91.8843954 Z M41.3584744,89.9899997 C41.1645998,89.9028125 41.0778873,89.6744645 41.1647966,89.47997 C41.2517059,89.2854756 41.4793261,89.1984859 41.6732007,89.285673 L43.7794463,90.2328709 C43.9733208,90.3200581 44.0600333,90.5484061 43.973124,90.7429005 C43.8862147,90.937395 43.6585945,91.0243847 43.4647199,90.9371975 L41.3584744,89.9899997 Z M37.1459832,88.0956039 C36.9521087,88.0084168 36.8653962,87.7800687 36.9523055,87.5855743 C37.0392148,87.3910799 37.266835,87.3040901 37.4607096,87.3912773 L39.5669551,88.3384752 C39.7608297,88.4256623 39.8475422,88.6540104 39.7606329,88.8485048 C39.6737236,89.0429992 39.4461033,89.1299889 39.2522288,89.0428018 L37.1459832,88.0956039 Z M32.9334921,86.2012082 C32.7396176,86.114021 32.6529051,85.885673 32.7398144,85.6911785 C32.8267237,85.4966841 33.0543439,85.4096944 33.2482185,85.4968815 L35.354464,86.4440794 C35.5483386,86.5312666 35.6350511,86.7596146 35.5481418,86.954109 C35.4612325,87.1486035 35.2336122,87.2355932 35.0397377,87.148406 L32.9334921,86.2012082 Z M28.721001,84.3068124 C28.5271265,84.2196252 28.440414,83.9912772 28.5273233,83.7967828 C28.6142325,83.6022883 28.8418528,83.5152986 29.0357274,83.6024858 L31.1419729,84.5496837 C31.3358475,84.6368708 31.42256,84.8652189 31.3356507,85.0597133 C31.2487414,85.2542077 31.0211211,85.3411974 30.8272466,85.2540103 L28.721001,84.3068124 Z M24.5085099,82.4124166 C24.3146354,82.3252295 24.2279229,82.0968814 24.3148322,81.902387 C24.4017414,81.7078926 24.6293617,81.6209029 24.8232363,81.70809 L26.9294818,82.6552879 C27.1233564,82.7424751 27.2100688,82.9708231 27.1231596,83.1653175 C27.0362503,83.359812 26.80863,83.4468017 26.6147555,83.3596145 L24.5085099,82.4124166 Z M20.2960188,80.5180209 C20.1021442,80.4308337 20.0154318,80.2024857 20.102341,80.0079913 C20.1892503,79.8134968 20.4168706,79.7265071 20.6107451,79.8136943 L22.7169907,80.7608921 C22.9108652,80.8480793 22.9975777,81.0764273 22.9106684,81.2709218 C22.8237592,81.4654162 22.5961389,81.5524059 22.4022643,81.4652188 L20.2960188,80.5180209 Z M16.0835277,78.6236251 C15.8896531,78.536438 15.8029406,78.3080899 15.8898499,78.1135955 C15.9767592,77.9191011 16.2043795,77.8321114 16.398254,77.9192985 L18.5044996,78.8664964 C18.6983741,78.9536835 18.7850866,79.1820316 18.6981773,79.376526 C18.6112681,79.5710204 18.3836478,79.6580102 18.1897732,79.570823 L16.0835277,78.6236251 Z M11.8710366,76.7292294 C11.677162,76.6420422 11.5904495,76.4136942 11.6773588,76.2191998 C11.7642681,76.0247053 11.9918884,75.9377156 12.1857629,76.0249028 L14.2920085,76.9721006 C14.485883,77.0592878 14.5725955,77.2876358 14.4856862,77.4821303 C14.3987769,77.6766247 14.1711567,77.7636144 13.9772821,77.6764273 L11.8710366,76.7292294 Z M7.65854546,74.8348336 C7.46467091,74.7476465 7.37795842,74.5192984 7.4648677,74.324804 C7.55177698,74.1303096 7.77939725,74.0433198 7.9732718,74.130507 L10.0795174,75.0777049 C10.2733919,75.164892 10.3601044,75.3932401 10.2731951,75.5877345 C10.1862858,75.7822289 9.95866556,75.8692187 9.76479101,75.7820315 L7.65854546,74.8348336 Z M3.44605434,72.9404379 C3.25217979,72.8532507 3.16546731,72.6249027 3.25237659,72.4304082 C3.33928587,72.2359138 3.56690614,72.1489241 3.76078069,72.2361112 L5.86702625,73.1833091 C6.0609008,73.2704963 6.14761328,73.4988443 6.060704,73.6933387 C5.97379472,73.8878332 5.74617445,73.9748229 5.5522999,73.8876357 L3.44605434,72.9404379 Z M0.0038641513,69.6194445 C-0.0259855896,69.4084162 0.120343473,69.2130685 0.33069926,69.1831234 C0.541055047,69.1531782 0.735780102,69.2999751 0.765629843,69.5110035 C0.801169795,69.7622598 0.872112033,70.0055258 0.986900776,70.262082 C1.16673013,70.6530735 1.43704634,70.9943283 1.77451204,71.2580542 C1.94212103,71.3890388 1.97214936,71.6315312 1.84158217,71.7996761 C1.71101499,71.967821 1.46929544,71.9979454 1.30168644,71.8669607 C0.867487391,71.5276388 0.519668845,71.0885428 0.286638192,70.58183 C0.140964975,70.2563098 0.0496632112,69.9432296 0.0038641513,69.6194445 Z M2.72146967,65.6536115 C2.91526215,65.5662409 3.14296412,65.6530152 3.23005624,65.8474273 C3.31714836,66.0418394 3.23065062,66.2702694 3.03685814,66.35764 L2.26953574,66.7034846 C1.85502336,66.9013221 1.50519635,67.196834 1.2433155,67.5635681 C1.11958531,67.7368381 0.879266815,67.7766773 0.70654911,67.6525515 C0.533831405,67.5284257 0.494119174,67.2873388 0.617849359,67.1140689 C0.955080016,66.641816 1.40609208,66.2608293 1.94656966,66.0029721 L2.72146967,65.6536115 Z M6.93429184,63.7590667 C7.12816639,63.6718795 7.35578666,63.7588692 7.44269594,63.9533637 C7.52960522,64.1478581 7.44289274,64.3762061 7.24901819,64.4633933 L5.14277263,65.4105912 C4.94889808,65.4977783 4.72127781,65.4107886 4.63436853,65.2162942 C4.54745925,65.0217997 4.63417173,64.7934517 4.82804628,64.7062645 L6.93429184,63.7590667 Z M11.146783,61.8646709 C11.3406575,61.7774838 11.5682778,61.8644735 11.6551871,62.0589679 C11.7420963,62.2534623 11.6553839,62.4818104 11.4615093,62.5689975 L9.35526374,63.5161954 C9.16138919,63.6033826 8.93376893,63.5163928 8.84685964,63.3218984 C8.75995036,63.127404 8.84666285,62.8990559 9.0405374,62.8118688 L11.146783,61.8646709 Z M15.3592741,59.9702752 C15.5531486,59.883088 15.7807689,59.9700777 15.8676782,60.1645722 C15.9545874,60.3590666 15.867875,60.5874146 15.6740004,60.6746018 L13.5677549,61.6217997 C13.3738803,61.7089868 13.14626,61.6219971 13.0593508,61.4275027 C12.9724415,61.2330082 13.059154,61.0046602 13.2530285,60.917473 L15.3592741,59.9702752 Z M19.5717652,58.0758794 C19.7656397,57.9886922 19.99326,58.075682 20.0801693,58.2701764 C20.1670786,58.4646708 20.0803661,58.6930189 19.8864915,58.780206 L17.780246,59.7274039 C17.5863714,59.8145911 17.3587511,59.7276013 17.2718419,59.5331069 C17.1849326,59.3386125 17.2716451,59.1102644 17.4655196,59.0230773 L19.5717652,58.0758794 Z M23.7842563,56.1814836 C23.9781308,56.0942965 24.2057511,56.1812862 24.2926604,56.3757806 C24.3795697,56.5702751 24.2928572,56.7986231 24.0989826,56.8858103 L21.9927371,57.8330081 C21.7988625,57.9201953 21.5712423,57.8332056 21.484333,57.6387111 C21.3974237,57.4442167 21.4841362,57.2158687 21.6780107,57.1286815 L23.7842563,56.1814836 Z M27.9967474,54.2870879 C28.190622,54.1999007 28.4182422,54.2868905 28.5051515,54.4813849 C28.5920608,54.6758793 28.5053483,54.9042274 28.3114737,54.9914145 L26.2052282,55.9386124 C26.0113536,56.0257995 25.7837334,55.9388098 25.6968241,55.7443154 C25.6099148,55.549821 25.6966273,55.3214729 25.8905018,55.2342858 L27.9967474,54.2870879 Z M32.2092385,52.3926921 C32.4031131,52.305505 32.6307333,52.3924947 32.7176426,52.5869891 C32.8045519,52.7814836 32.7178394,53.0098316 32.5239649,53.0970188 L30.4177193,54.0442166 C30.2238448,54.1314038 29.9962245,54.0444141 29.9093152,53.8499196 C29.8224059,53.6554252 29.9091184,53.4270772 30.102993,53.33989 L32.2092385,52.3926921 Z M36.4217296,50.4982964 C36.6156042,50.4111092 36.8432244,50.4980989 36.9301337,50.6925934 C37.017043,50.8870878 36.9303305,51.1154358 36.736456,51.202623 L34.6302104,52.1498209 C34.4363359,52.237008 34.2087156,52.1500183 34.1218063,51.9555239 C34.034897,51.7610295 34.1216095,51.5326814 34.3154841,51.4454943 L36.4217296,50.4982964 Z M40.6342207,48.6039006 C40.8280953,48.5167135 41.0557156,48.6037032 41.1426248,48.7981976 C41.2295341,48.992692 41.1428216,49.2210401 40.9489471,49.3082272 L38.8427015,50.2554251 C38.648827,50.3426123 38.4212067,50.2556225 38.3342974,50.0611281 C38.2473881,49.8666337 38.3341006,49.6382857 38.5279752,49.5510985 L40.6342207,48.6039006 Z M44.8467118,46.7095049 C45.0405864,46.6223177 45.2682067,46.7093074 45.3551159,46.9038019 C45.4420252,47.0982963 45.3553127,47.3266443 45.1614382,47.4138315 L43.0551926,48.3610294 C42.8613181,48.4482165 42.6336978,48.3612268 42.5467885,48.1667324 C42.4598793,47.9722379 42.5465917,47.7438899 42.7404663,47.6567027 L44.8467118,46.7095049 Z M49.059203,44.8151091 C49.2530775,44.7279219 49.4806978,44.8149117 49.5676071,45.0094061 C49.6545163,45.2039005 49.5678039,45.4322486 49.3739293,45.5194357 L47.2676838,46.4666336 C47.0738092,46.5538208 46.8461889,46.466831 46.7592797,46.2723366 C46.6723704,46.0778422 46.7590829,45.8494941 46.9529574,45.762307 L49.059203,44.8151091 Z M53.2716941,42.9207133 C53.4655686,42.8335262 53.6931889,42.9205159 53.7800982,43.1150103 C53.8670075,43.3095048 53.780295,43.5378528 53.5864204,43.62504 L51.4801749,44.5722379 C51.2863003,44.659425 51.05868,44.5724353 50.9717708,44.3779409 C50.8848615,44.1834464 50.971574,43.9550984 51.1654485,43.8679112 L53.2716941,42.9207133 Z M57.4841852,41.0263176 C57.6780597,40.9391304 57.90568,41.0261202 57.9925893,41.2206146 C58.0794986,41.415109 57.9927861,41.6434571 57.7989115,41.7306442 L55.692666,42.6778421 C55.4987914,42.7650293 55.2711712,42.6780395 55.1842619,42.4835451 C55.0973526,42.2890507 55.1840651,42.0607026 55.3779396,41.9735155 L57.4841852,41.0263176 Z M61.6966763,39.1319218 C61.8905508,39.0447347 62.1181711,39.1317244 62.2050804,39.3262188 C62.2919897,39.5207133 62.2052772,39.7490613 62.0114026,39.8362485 L59.9051571,40.7834463 C59.7112825,40.8706335 59.4836623,40.7836438 59.396753,40.5891493 C59.3098437,40.3946549 59.3965562,40.1663069 59.5904307,40.0791197 L61.6966763,39.1319218 Z M65.9091674,37.2375261 C66.103042,37.1503389 66.3306622,37.2373287 66.4175715,37.4318231 C66.5044808,37.6263175 66.4177683,37.8546656 66.2238938,37.9418527 L64.1176482,38.8890506 C63.9237736,38.9762377 63.6961534,38.889248 63.6092441,38.6947536 C63.5223348,38.5002592 63.6090473,38.2719111 63.8029219,38.184724 L65.9091674,37.2375261 Z M70.1216585,35.3431303 C70.3155331,35.2559432 70.5431533,35.3429329 70.6300626,35.5374273 C70.7169719,35.7319218 70.6302594,35.9602698 70.4363849,36.047457 L68.3301393,36.9946548 C68.1362648,37.081842 67.9086445,36.9948523 67.8217352,36.8003578 C67.7348259,36.6058634 67.8215384,36.3775154 68.015413,36.2903282 L70.1216585,35.3431303 Z M74.3341496,33.4487346 C74.5280242,33.3615474 74.7556445,33.4485371 74.8425537,33.6430316 C74.929463,33.837526 74.8427505,34.065874 74.648876,34.1530612 L72.5426304,35.1002591 C72.3487559,35.1874462 72.1211356,35.1004565 72.0342263,34.9059621 C71.947317,34.7114676 72.0340295,34.4831196 72.2279041,34.3959324 L74.3341496,33.4487346 Z M78.5466407,31.5543388 C78.7405153,31.4671517 78.9681356,31.5541414 79.0550448,31.7486358 C79.1419541,31.9431302 79.0552416,32.1714783 78.8613671,32.2586654 L76.7551215,33.2058633 C76.561247,33.2930505 76.3336267,33.2060607 76.2467174,33.0115663 C76.1598082,32.8170719 76.2465206,32.5887238 76.4403952,32.5015367 L78.5466407,31.5543388 Z M82.7591319,29.6599431 C82.9530064,29.5727559 83.1806267,29.6597456 83.267536,29.8542401 C83.3544452,30.0487345 83.2677328,30.2770825 83.0738582,30.3642697 L80.9676126,31.3114676 C80.7737381,31.3986547 80.5461178,31.311665 80.4592085,31.1171706 C80.3722993,30.9226761 80.4590118,30.6943281 80.6528863,30.6071409 L82.7591319,29.6599431 Z M86.971623,27.7655473 C87.1654975,27.6783601 87.3931178,27.7653499 87.4800271,27.9598443 C87.5669363,28.1543387 87.4802239,28.3826868 87.2863493,28.4698739 L85.1801038,29.4170718 C84.9862292,29.504259 84.7586089,29.4172692 84.6716997,29.2227748 C84.5847904,29.0282804 84.6715029,28.7999323 84.8653774,28.7127452 L86.971623,27.7655473 Z M91.1841141,25.8711515 C91.3779886,25.7839644 91.6056089,25.8709541 91.6925182,26.0654485 C91.7794275,26.259943 91.692715,26.488291 91.4988404,26.5754782 L89.3925949,27.5226761 C89.1987203,27.6098632 88.9711001,27.5228735 88.8841908,27.3283791 C88.7972815,27.1338846 88.883994,26.9055366 89.0778685,26.8183494 L91.1841141,25.8711515 Z M95.3966052,23.9767558 C95.5904797,23.8895686 95.8181,23.9765584 95.9050093,24.1710528 C95.9919186,24.3655472 95.9052061,24.5938953 95.7113315,24.6810824 L93.605086,25.6282803 C93.4112114,25.7154675 93.1835912,25.6284777 93.0966819,25.4339833 C93.0097726,25.2394889 93.0964851,25.0111408 93.2903596,24.9239537 L95.3966052,23.9767558 Z M99.6090963,22.08236 C99.8029709,21.9951729 100.030591,22.0821626 100.1175,22.276657 C100.20441,22.4711515 100.117697,22.6994995 99.9238227,22.7866867 L97.8175771,23.7338845 C97.6237025,23.8210717 97.3960823,23.734082 97.309173,23.5395875 C97.2222637,23.3450931 97.3089762,23.1167451 97.5028507,23.0295579 L99.6090963,22.08236 Z" id="路径-2" fill-opacity="0.16" fill="#302647" fill-rule="nonzero"></path>
                    <path d="M99.9061637,25.7819913 C104.727533,23.6202388 110.242582,23.6202388 115.063951,25.7819913 L115.063951,25.7819913 L154.943131,43.6622099 L200.384456,43.6628204 L200.385656,65.6728329 C200.545645,66.9812861 199.849122,68.2963087 198.583266,68.8638793 L198.583266,68.8638793 L115.063951,106.31135 C110.242582,108.473103 104.727533,108.473103 99.9061637,106.31135 L99.9061637,106.31135 L16.3868492,68.8638793 C15.6957483,68.5540111 15.1426578,68.0009206 14.8327896,67.3098197 C14.5547994,66.6898166 14.4980665,66.0267914 14.6288481,65.4093397 L14.6296093,43.6628204 L60.0261308,43.6622099 Z" id="形状结合" fill="url(#linearGradient-1)"></path>
                    <path d="M14.8327896,54.1882523 C15.1426578,54.8793532 15.6957483,55.4324437 16.3868492,55.7423119 L99.9061637,93.1897827 C104.727533,95.3515353 110.242582,95.3515353 115.063951,93.1897827 L198.583266,55.7423119 C199.608806,55.2824914 200.260664,54.3320796 200.386132,53.2920249 L200.385656,56.41055 C200.538027,57.6566958 199.913515,58.9088004 198.760198,59.5155116 L198.583266,59.6015964 L115.063951,97.0490673 C110.376509,99.1507712 105.033389,99.2091518 100.30952,97.2242093 L99.9061637,97.0490673 L16.3868492,59.6015964 C15.6957483,59.2917282 15.1426578,58.7386377 14.8327896,58.0475368 C14.6244367,57.5828462 14.5403742,57.093988 14.5663956,56.6182634 L14.5661428,53.0899665 C14.5857913,53.4590433 14.6725181,53.8307979 14.8327896,54.1882523 Z" id="形状结合" fill="url(#linearGradient-2)"></path>
                    <mask id="mask-5" fill="white">
                        <use xlink:href="#path-4"></use>
                    </mask>
                    <use id="蒙版" fill="url(#linearGradient-3)" xlink:href="#path-4"></use>
                    <path d="M174.908607,30.2330995 L159.786173,37.1437649 L160.009304,50.2892859 L114.745815,70.5257678 C110.135184,72.5870972 104.864826,72.587075 100.254212,70.5257066 L66.4513244,55.4127082 L66.4513244,55.4127082 L117.347814,32.8568237 L153.110681,19.100503 L174.908607,30.2330995 Z" id="路径-10" fill-opacity="0.1" fill="#302647" filter="url(#filter-6)" mask="url(#mask-5)"></path>
                    <g id="路径-2备份-4" mask="url(#mask-5)">
                        <g transform="translate(40.347454, 13.560401)">
                            <mask id="mask-9" fill="white">
                                <use xlink:href="#path-8"></use>
                            </mask>
                            <use id="蒙版" stroke="none" fill="url(#linearGradient-7)" fill-rule="evenodd" xlink:href="#path-8"></use>
                            <path d="M59.5587094,18.8352792 L6.28323684,42.7223491 C4.72733551,43.419967 4.03155933,45.2468053 4.72917724,46.8027066 C5.03904544,47.4938075 5.59213596,48.046898 6.28323684,48.3567662 L59.5587094,72.2438362 C64.3800789,74.4055887 69.8951275,74.4055887 74.716497,72.2438362 L127.99197,48.3567662 C129.547871,47.6591483 130.243647,45.83231 129.546029,44.2764087 C129.236161,43.5853078 128.68307,43.0322173 127.99197,42.7223491 L74.716497,18.8352792 C69.8951275,16.6735266 64.3800789,16.6735266 59.5587094,18.8352792 Z" id="路径-2备份-4" stroke="none" fill="url(#linearGradient-10)" fill-rule="evenodd" mask="url(#mask-9)"></path>
                            <polygon id="路径-10" stroke="none" fill-opacity="0.1" fill="#302647" fill-rule="evenodd" mask="url(#mask-9)" points="134.561153 16.6726986 119.438718 23.583364 119.661849 36.728885 67.1525457 60.2048389 26.1038701 41.8523073 77.0003597 19.2964227 119.125271 3.833121"></polygon>
                        </g>
                    </g>
                </g>
            </g>
        </g>
    </g>
</svg>