<?xml version="1.0" standalone="no"?><!DOCTYPE svg PUBLIC "-//W3C//DTD SVG 1.1//EN" "http://www.w3.org/Graphics/SVG/1.1/DTD/svg11.dtd"><svg t="1621318318254" class="icon" viewBox="0 0 1024 1024" version="1.1" xmlns="http://www.w3.org/2000/svg" p-id="2657" xmlns:xlink="http://www.w3.org/1999/xlink" width="128" height="128"><defs><style type="text/css"></style></defs><path d="M445.077246 114.505446H154.362346c-20.056361 0-36.326571 16.270211-36.326571 36.326572v290.714899c0 20.056361 16.270211 36.326571 36.326571 36.326572h290.7149c20.056361 0 36.326571-16.270211 36.326571-36.326572v-290.612571c0-20.056361-16.270211-36.4289-36.326571-36.4289z m4.707105 327.1438c0 2.558209-2.148896 4.707105-4.707105 4.707105H154.362346c-2.558209 0-4.707105-2.148896-4.707105-4.707105V150.934346c0-2.558209 2.148896-4.707105 4.707105-4.707105h290.7149c2.558209 0 4.707105 2.148896 4.707105 4.707105v290.7149z" fill="#999999" p-id="2658"></path><path d="M350.218847 222.768862h-101.10043c-12.688718 0-22.921555 10.335165-22.921555 22.921555v101.100429c0 12.688718 10.335165 22.921555 22.921555 22.921555h101.10043c12.688718 0 22.921555-10.335165 22.921555-22.921555v-101.100429c0.102328-12.58639-10.232837-22.921555-22.921555-22.921555z m-8.697912 115.324073h-83.704606v-83.704607h83.704606v83.704607zM350.218847 653.878285h-101.10043c-12.688718 0-22.921555 10.335165-22.921555 22.921555v101.10043c0 12.688718 10.335165 22.921555 22.921555 22.921555h101.10043c12.688718 0 22.921555-10.335165 22.921555-22.921555v-101.10043c0.102328-12.688718-10.232837-22.921555-22.921555-22.921555z m-8.697912 115.324073h-83.704606v-83.704606h83.704606v83.704606zM673.474168 369.712401h101.10043c12.688718 0 22.921555-10.335165 22.921555-22.921555v-101.100429c0-12.688718-10.335165-22.921555-22.921555-22.921555h-101.10043c-12.688718 0-22.921555 10.335165-22.921555 22.921555v101.100429c0 12.688718 10.232837 22.921555 22.921555 22.921555z m8.697912-115.324073h83.704606v83.704607h-83.704606v-83.704607z" fill="#999999" p-id="2659"></path><path d="M445.077246 542.852004H154.362346c-20.056361 0-36.326571 16.270211-36.326571 36.326571v290.7149c0 20.056361 16.270211 36.326571 36.326571 36.326571h290.7149c20.056361 0 36.326571-16.270211 36.326571-36.326571V579.178575c0-20.056361-16.270211-36.326571-36.326571-36.326571z m4.707105 327.041471c0 2.558209-2.148896 4.707105-4.707105 4.707105H154.362346c-2.558209 0-4.707105-2.148896-4.707105-4.707105V579.178575c0-2.558209 2.148896-4.707105 4.707105-4.707105h290.7149c2.558209 0 4.707105 2.148896 4.707105 4.707105v290.7149zM580.45768 543.977616c-20.056361 0-36.326571 16.270211-36.326572 36.326571v167.204557c0 8.697911 7.060658 15.860897 15.860898 15.860897 8.697911 0 15.860897-7.060658 15.860897-15.860897V580.406515c0-2.558209 2.148896-4.707105 4.707105-4.707105h176.004797c8.697911 0 15.860897-7.060658 15.860897-15.860897s-7.060658-15.860897-15.860897-15.860897H580.45768zM578.615769 477.975817h290.7149c20.056361 0 36.326571-16.270211 36.326571-36.326571V150.934346c0-20.056361-16.270211-36.326571-36.326571-36.326571H578.615769c-20.056361 0-36.326571 16.270211-36.326571 36.326571v290.7149c0 19.954032 16.372539 36.326571 36.326571 36.326571z m-4.604777-327.041471c0-2.558209 2.148896-4.707105 4.707105-4.707105h290.7149c2.558209 0 4.707105 2.148896 4.707105 4.707105v290.7149c0 2.558209-2.148896 4.707105-4.707105 4.707105H578.615769c-2.558209 0-4.707105-2.148896-4.707105-4.707105V150.934346h0.102328zM905.964225 559.838513c0-8.697911-7.060658-15.860897-15.860897-15.860897h-58.020186c-8.697911 0-15.860897 7.060658-15.860898 15.860897s7.060658 15.860897 15.860898 15.860897h42.159288v60.987709H742.750475c-8.697911 0-15.860897 7.060658-15.860898 15.860897 0 8.697911 7.060658 15.860897 15.860898 15.860898h147.352853c8.697911 0 15.860897-7.060658 15.860897-15.860898v-0.204656-92.504847zM614.226042 875.112221h-38.475467v-44.103527c0-8.697911-7.060658-15.860897-15.860898-15.860897s-15.860897 7.060658-15.860897 15.860897v59.862096c0 8.697911 7.060658 15.860897 15.860897 15.860898h54.336365c8.697911 0 15.860897-7.060658 15.860897-15.860898 0-8.697911-7.060658-15.758569-15.860897-15.758569zM789.412211 752.420506c0-8.697911-7.060658-15.860897-15.860897-15.860898h-99.974818c-8.697911 0-15.860897 7.060658-15.860897 15.860898v140.087538c0 8.697911 7.060658 15.860897 15.860897 15.860898s15.860897-7.060658 15.860898-15.860898V768.281403h84.11392c8.80024 0 15.860897-7.060658 15.860897-15.860897zM890.000999 694.911962c-8.697911 0-15.860897 7.060658-15.860897 15.860897v166.897572h-143.259718c-8.697911 0-15.860897 7.060658-15.860898 15.860897 0 8.697911 7.060658 15.860897 15.860898 15.860897h159.018287c8.697911 0 15.860897-7.060658 15.860897-15.860897V710.772859c0-8.80024-7.060658-15.860897-15.758569-15.860897z" fill="#999999" p-id="2660"></path><path d="M636.431298 609.160787c-8.697911 0-15.860897 7.060658-15.860897 15.860898v51.47117c0 8.697911 7.060658 15.860897 15.860897 15.860897 8.697911 0 15.860897-7.060658 15.860897-15.860897v-51.47117c0-8.80024-7.162986-15.860897-15.860897-15.860898z" fill="#999999" p-id="2661"></path></svg>