<?xml version="1.0" standalone="no"?><!DOCTYPE svg PUBLIC "-//W3C//DTD SVG 1.1//EN" "http://www.w3.org/Graphics/SVG/1.1/DTD/svg11.dtd"><svg t="1563628959371" class="icon" viewBox="0 0 1024 1024" version="1.1" xmlns="http://www.w3.org/2000/svg" p-id="3310" xmlns:xlink="http://www.w3.org/1999/xlink" width="200" height="200"><defs><style type="text/css"></style></defs><path d="M860.4672 183.6032l-146.066286-124.225829c-10.971429-10.971429-22.864457-21.591771-38.370743-21.591771H210.651429c-32.314514 0-70.465829 35.108571-70.465829 67.423086v819.2c0 32.314514 23.522743 49.605486 55.837257 49.605485h629.028572c32.314514 0 46.562743-17.290971 46.562742-49.605485V224.9728c0-15.520914-0.175543-30.398171-11.146971-41.3696z m-40.594286 29.725257h-109.173028V120.378514l109.173028 92.949943z m-6.773028 702.171429h-614.4v-819.2h482.742857v129.857828c0 8.0896 4.110629 16.427886 12.200228 16.427886h119.456915v672.914286z" fill="" p-id="3311"></path><path d="M725.328457 315.728457a14.628571 14.628571 0 0 0-14.628571-14.628571h-409.6a14.628571 14.628571 0 0 0-14.628572 14.628571v453.485714a14.628571 14.628571 0 0 0 14.628572 14.628572h409.6a14.628571 14.628571 0 0 0 14.628571-14.628572v-453.485714z m-292.571428 351.085714v-58.514285h190.171428v58.514285h-190.171428z m190.171428 29.257143v58.514286h-190.171428v-58.514286h190.171428z m0-117.028571h-190.171428v-73.142857h190.171428v73.142857z m29.257143-73.142857h43.885714v73.142857h-43.885714v-73.142857z m-248.685714 73.142857h-87.771429v-73.142857h87.771429v73.142857z m-87.771429-102.4v-58.514286h87.771429v58.514286h-87.771429z m0 131.657143h87.771429v58.514285h-87.771429v-58.514285z m336.457143 0h43.885714v58.514285h-43.885714v-58.514285z m43.885714-131.657143h-43.885714v-58.514286h43.885714v58.514286z m-73.142857 0h-190.171428v-58.514286h190.171428v58.514286z m-190.171428-87.771429v-58.514285h190.171428v58.514285h-190.171428z m-29.257143-58.514285v58.514285h-87.771429v-58.514285h87.771429z m-87.771429 365.714285h87.771429v58.514286h-87.771429v-58.514286z m336.457143 58.514286v-58.514286h43.885714v58.514286h-43.885714z m43.885714-365.714286h-43.885714v-58.514285h43.885714v58.514285z" fill="" p-id="3312"></path></svg>