<svg id="图层_1" data-name="图层 1" xmlns="http://www.w3.org/2000/svg" viewBox="0 0 52 52"><defs><style>.cls-1{fill:#00c1de;}</style></defs><title>开源组件图标设计-</title><path class="cls-1" d="M13.92,41.88c0-.16-.84-.83-1-1.17a4.64,4.64,0,0,1-1-1.5c-.17-.34-.51-.84-.67-1.18a2.61,2.61,0,0,0-1.34-.67A86.67,86.67,0,0,1,2.2,33l-.34-.33c-.33-.34-.33-.51-.17-.84s5.86-6.53,6-6.7a7.62,7.62,0,0,0,.67-2.68c.17-.67.84-3.35.84-3.68-.17-.34-2.51-9.21-2.51-9.54,0-.17,0-.34.33-.34s9.88-.33,10.05-.33,2.68-1.18,3-1.34a14,14,0,0,1,2.35-1A2.8,2.8,0,0,0,24,5.05c.5-.67,3-4.35,3.18-4.52.17,0,.51-.67,1.18-.5.5.16,4.18,4.85,4.52,5.19s2.51.67,3.18,1a4.75,4.75,0,0,0,2.68.5c.83-.16,4.35-1.17,4.68-1.17s.51,0,.51.34.83,4.69.67,5c0,.33,3.34,4.19,4.18,5.86a33,33,0,0,1,1.68,5.86v2c0,.67-.67.5-.67.17a24.53,24.53,0,0,0-2.35-5.36,16,16,0,0,0-3.35-4,16.64,16.64,0,0,0-3.68-2.51A26.11,26.11,0,0,0,26,12.25a14.55,14.55,0,0,0-10,10.38c-.67,3.18-.17,8.71.67,10.72a14.83,14.83,0,0,0,10.88,8.2c6.7,1.17,9.88-2,10.21-2.34s3.52-2.85,3.52-8.71-4.36-9-9.71-8.2-5.86,7.53-5.19,8.87a6.22,6.22,0,0,0,4.35,3.18,11.36,11.36,0,0,0,3.68-.5c.51,0,.34.5-.16.84a9.31,9.31,0,0,1-4,1,6.78,6.78,0,0,1-6.53-5.19c-1-4.19.16-7.37,2-9.38a10.6,10.6,0,0,1,6.19-3,13.35,13.35,0,0,1,6.53.5c3,1,6.2,5,6.53,5.36a15,15,0,0,1,1.68,4.52,38,38,0,0,1,.33,3.85v.5c0,.17,2.85,4.86,2.85,5.36s0,.17-.34.34-4.52,1.67-4.69,1.67c-.33,0-.5.17-.67.5s-1,1.68-1.5,2.51c-.51.67-3,2.18-3.18,2.52s-2.18,5.69-2.52,6c-.33.17-.16.34-.83.17-.84-.17-4.52-2.85-4.86-3a3.11,3.11,0,0,0-1.34-.34,17.44,17.44,0,0,1-3.68-.33c-1.34-.17-3-.84-3.35-.84-.17,0-7.37,2.34-8.37,2.51-1-.17-.5-7.7-.5-8Zm0,0"/></svg>