<svg t="1629719898841" class="icon" viewBox="0 0 1024 1024" version="1.1" xmlns="http://www.w3.org/2000/svg" p-id="3693" width="64" height="64"><path d="M865.28 951.04H148.48c-49.28 0-89.6-40.32-89.6-89.6V144.64c0-49.28 40.32-89.6 89.6-89.6h716.8c49.28 0 89.6 40.32 89.6 89.6v716.8c0 49.28-39.68 89.6-89.6 89.6z m30.08-806.4a30.08 30.08 0 0 0-30.08-30.08H148.48c-16.64 0-29.44 13.44-29.44 30.08v716.8c0 16.64 13.44 30.08 30.08 30.08h716.8c16.64 0 30.08-13.44 30.08-30.08V144.64z m-179.2 657.28H417.28c-49.28 0-89.6-40.32-89.6-89.6v-69.12a30.08 30.08 0 1 1 60.16 0v69.12c0 7.68 3.2 15.36 8.96 21.12 5.76 5.76 13.44 8.96 21.12 8.96h298.88c7.68 0 15.36-3.2 21.12-8.96a30.08 30.08 0 0 0 8.96-21.12V413.44a30.08 30.08 0 0 0-8.96-21.12 30.08 30.08 0 0 0-21.12-8.96h-65.28a30.08 30.08 0 1 1 0-60.16h65.28c49.28 0 89.6 40.32 89.6 89.6v298.88c-0.64 49.92-40.96 90.24-90.24 90.24zM477.44 562.56h-179.2c-49.28 0-89.6-40.32-89.6-89.6v-179.2c0-49.28 40.32-89.6 89.6-89.6h179.2c49.28 0 89.6 40.32 89.6 89.6v179.2c0 49.92-40.32 89.6-89.6 89.6z m29.44-268.8a29.632 29.632 0 0 0-29.44-29.44h-179.2a30.08 30.08 0 0 0-21.12 8.96c-5.76 5.12-8.96 12.8-8.96 20.48v179.2c0 7.68 3.2 15.36 8.96 21.12 5.76 5.76 13.44 8.96 21.12 8.96h179.2c16.64 0 30.08-13.44 30.08-30.08v-179.2z" p-id="3694" fill="#4185f4"></path></svg>