<svg xmlns="http://www.w3.org/2000/svg" viewBox="0 0 130 130"><style type="text/css">  
	.st0{fill:#EB5648;}
	.st1{fill:#FFFFFF;}
</style><title>  biglogo</title><circle class="st0" cx="65" cy="65" r="59.2"/><path class="st1" d="M65 0C29.1 0 0 29.1 0 65s29.1 65 65 65 65-29.1 65-65S100.9 0 65 0zM85.2 95.4h-41c-8.8 0-16.2-4.1-21.4-11.6l5-2.9c4.5 6 9.7 8.7 16.4 8.7h41c6.8 0 12-2.6 16.4-8.7l5 2.9C101.5 91.3 94 95.4 85.2 95.4zM32.4 70.6V59.4c0-0.9 0.8-1.7 1.7-1.7h6.8c0.9 0 1.7 0.8 1.7 1.7v11.1c0 0.9-0.8 1.7-1.7 1.7h-6.8C33.1 72.3 32.4 71.5 32.4 70.6zM59.9 70.6V59.4c0-0.9 0.8-1.7 1.7-1.7h6.8c0.9 0 1.7 0.8 1.7 1.7v11.1c0 0.9-0.8 1.7-1.7 1.7h-6.8C60.7 72.3 59.9 71.5 59.9 70.6zM101.7 49.1c-4.5-6-9.7-8.7-16.4-8.7h-41c-6.8 0-12 2.6-16.4 8.7l-5-2.9c5.2-7.5 12.7-11.6 21.4-11.6h41c8.8 0 16.2 4.1 21.4 11.6L101.7 49.1z"/></svg>