<?xml version="1.0" encoding="UTF-8"?>
<!--
Licensed to the Apache Software Foundation (ASF) under one
or more contributor license agreements.  See the NOTICE file
distributed with this work for additional information
regarding copyright ownership.  The ASF licenses this file
to you under the Apache License, Version 2.0 (the
"License"); you may not use this file except in compliance
with the License.  You may obtain a copy of the License at

   http://www.apache.org/licenses/LICENSE-2.0

Unless required by applicable law or agreed to in writing,
software distributed under the License is distributed on an
"AS IS" BASIS, WITHOUT WARRANTIES OR CONDITIONS OF ANY
KIND, either express or implied.  See the License for the
specific language governing permissions and limitations
under the License.
-->
<svg width="54px" height="54px" viewBox="0 0 54 54" version="1.1" xmlns="http://www.w3.org/2000/svg" xmlns:xlink="http://www.w3.org/1999/xlink">
    <title>icon/待分配</title>
    <g id="icon/待分配" stroke="none" stroke-width="1" fill="none" fill-rule="evenodd">
        <rect id="矩形" x="0" y="0" width="54" height="54"></rect>
        <g id="02-icon/36px/G-工作流">
            <g>
                <path d="M33.3996246,3.01863329 C35.536707,3.01947722 38.9669071,3.02086619 43.6902249,3.0228002 L44.6240217,3.02318474 C46.280867,3.02577425 47.6219064,4.371012 47.6193293,6.02785736 L47.6193293,6.02785736 L47.5553886,46.9389273 C47.5553886,48.5806791 46.2196264,49.9164413 44.5778746,49.9164413 L44.5778746,49.9164413 L10.0245893,49.9164413 C8.38283754,49.9164413 7.04707532,48.5806791 7.04707532,46.9389273 L7.04707532,46.9389273 L7.04707532,5.99516727 C7.04707532,4.35341546 8.38283754,3.01765325 10.0245893,3.01765325 L10.0245893,3.01765325 Z M30,11 L24,11 C22.8954305,11 22,11.8954305 22,13 L22,13 L22,19 C22,20.1045695 22.8954305,21 24,21 L24,21 L25.5,21 L25.499,25.5 L19,25.5 L18.7881643,25.504898 C16.4012365,25.6155109 14.5,27.5857267 14.5,30 L14.5,30 L14.5,32 L14,32 C12.8954305,32 12,32.8954305 12,34 L12,34 L12,38 C12,39.1045695 12.8954305,40 14,40 L14,40 L18,40 C19.1045695,40 20,39.1045695 20,38 L20,38 L20,34 C20,32.8954305 19.1045695,32 18,32 L18,32 L17.5,32 L17.5,30 L17.5068666,29.85554 C17.5795513,29.0948881 18.2203039,28.5 19,28.5 L19,28.5 L28.5,28.5 L28.5,21 L30,21 C31.1045695,21 32,20.1045695 32,19 L32,19 L32,13 C32,11.8954305 31.1045695,11 30,11 L30,11 Z M36,25.5 L31.3920898,25.5238037 L31.3920898,28.5238037 L36,28.5 L36.0898756,28.5080557 C36.3231248,28.5503916 36.5,28.7545401 36.5,29 L36.5,29 L36.499,32 L36,32 C34.8954305,32 34,32.8954305 34,34 L34,34 L34,38 C34,39.1045695 34.8954305,40 36,40 L36,40 L40,40 C41.1045695,40 42,39.1045695 42,38 L42,38 L42,34 C42,32.8954305 41.1045695,32 40,32 L40,32 L39.499,32 L39.5,29 L39.4948211,28.8079648 C39.3951264,26.9642776 37.8685634,25.5 36,25.5 L36,25.5 Z" id="形状结合" fill="#3889FF" fill-rule="nonzero"></path>
                <g id="审批">
                    <g id="编组">
                        <polygon id="矩形" points="0 0 3.51904297 0 54 0 54 54 0 54"></polygon>
                    </g>
                </g>
            </g>
        </g>
    </g>
</svg>