<?xml version="1.0" standalone="no"?><!DOCTYPE svg PUBLIC "-//W3C//DTD SVG 1.1//EN" "http://www.w3.org/Graphics/SVG/1.1/DTD/svg11.dtd"><svg t="1675063377549" class="icon" viewBox="0 0 1024 1024" version="1.1" xmlns="http://www.w3.org/2000/svg" p-id="8301" xmlns:xlink="http://www.w3.org/1999/xlink" width="32" height="32"><path d="M512 960C264.576 960 64 759.424 64 512S264.576 64 512 64s448 200.576 448 448-200.576 448-448 448z m0-64c212.064 0 384-171.936 384-384S724.064 128 512 128 128 299.936 128 512s171.936 384 384 384z m-32.96-566.464c0-9.856 2.08-16.576 6.272-20.16 4.16-3.584 11.2-5.376 21.056-5.376 9.28 0 16.128 1.792 20.608 5.376 4.48 3.584 6.72 10.304 6.72 20.16v56.448h110.208c11.04 0 19.936 0.512 26.656 1.568 6.72 1.056 11.936 3.36 15.68 6.944 3.744 3.584 6.272 8.64 7.616 15.232 1.344 6.56 2.016 15.232 2.016 25.984v135.744c0 9.856-0.608 17.984-1.792 24.416a26.976 26.976 0 0 1-7.392 15.008c-3.744 3.584-8.96 6.112-15.68 7.616-6.72 1.504-15.616 2.24-26.656 2.24H533.696v92.288c0 7.776-1.92 13.952-5.824 18.592-3.872 4.64-11.04 6.944-21.504 6.944-11.648 0-19.104-1.92-22.4-5.824-3.296-3.872-4.928-10.592-4.928-20.16v-91.84H371.072c-10.752 0-19.488-0.736-26.208-2.24a31.168 31.168 0 0 1-15.68-7.84 28.192 28.192 0 0 1-7.392-15.232c-1.184-6.4-1.792-14.4-1.792-23.968V435.264c0-10.144 0.608-18.432 1.792-24.864a26.976 26.976 0 0 1 7.392-15.008 30.816 30.816 0 0 1 15.68-7.392 138.24 138.24 0 0 1 26.208-2.016H479.04v-56.448z m-94.528 109.76c-4.48 0-7.328 0.736-8.512 2.24-1.184 1.504-1.792 5.216-1.792 11.2v99.008c0 7.168 0.672 11.584 2.016 13.216 1.344 1.632 4.544 2.464 9.632 2.464h93.184V439.296h-94.528z m149.184 0v128.128h95.424c5.984 0 9.568-0.896 10.752-2.688 1.184-1.792 1.792-6.112 1.792-12.992v-99.008c0-5.664-0.96-9.344-2.912-10.976-1.92-1.632-6.336-2.464-13.216-2.464h-91.84z" fill="#ffd56a" p-id="8302"></path></svg>