<?xml version="1.0" standalone="no"?><!DOCTYPE svg PUBLIC "-//W3C//DTD SVG 1.1//EN" "http://www.w3.org/Graphics/SVG/1.1/DTD/svg11.dtd"><svg t="1539845388293" class="icon" style="" viewBox="0 0 1024 1024" version="1.1" xmlns="http://www.w3.org/2000/svg" p-id="1000" xmlns:xlink="http://www.w3.org/1999/xlink" width="200" height="200"><defs><style type="text/css"></style></defs><path d="M228.616 662.377c-18.254-4.236-32.293-19.763-32.293-39.526V405.455c1.404-19.764 14.041-35.291 32.293-39.527l200.78-43.76 21.062-86.112H217.384c-82.839 0-148.83 66.347-148.83 148.225v256.923c0 81.876 67.395 149.636 148.83 149.636h233.074l-21.061-86.112-200.781-42.351z m584.092-426.323H578.226l21.062 86.111 200.785 43.761c18.253 4.237 32.287 19.764 32.287 39.526V622.85c-1.4 19.763-14.035 35.29-32.287 39.526l-200.785 43.762-21.062 86.11h234.482c81.436 0 148.83-66.347 148.83-149.635V384.278c-1.41-81.877-67.394-148.224-148.83-148.224zM429.396 502.86H600.69v21.174H429.396V502.86z" fill="#ffffff" p-id="1001"></path></svg>