<svg id="图层_1" data-name="图层 1" xmlns="http://www.w3.org/2000/svg" viewBox="0 0 13 13"><title></title><g id="页面-1"><g id="_3-1集群管理" data-name="3-1集群管理"><g id="编组-10"><g id="编组"><g id="jiqun-4"><path id="路径" d="M12.24,9.18h-.77V6.88H6.88V5.35H8A1.16,1.16,0,0,0,8.84,5a1.14,1.14,0,0,0,.34-.81V1.15A1.11,1.11,0,0,0,8.84.34,1.13,1.13,0,0,0,8,0H5a1.13,1.13,0,0,0-.81.34,1.11,1.11,0,0,0-.34.81V4.21A1.14,1.14,0,0,0,4.16,5,1.16,1.16,0,0,0,5,5.35H6.12V6.88H1.53v2.3H.76A.76.76,0,0,0,0,9.94v2.3A.76.76,0,0,0,.76,13h2.3a.76.76,0,0,0,.76-.76V9.94a.76.76,0,0,0-.76-.76H2.29V7.65H6.12V9.18H5.35a.76.76,0,0,0-.76.76v2.3a.76.76,0,0,0,.76.76h2.3a.76.76,0,0,0,.76-.76V9.94a.76.76,0,0,0-.76-.76H6.88V7.65h3.83V9.18H9.94a.76.76,0,0,0-.76.76v2.3a.76.76,0,0,0,.76.76h2.3a.76.76,0,0,0,.76-.76V9.94a.76.76,0,0,0-.76-.76Z"/></g></g></g></g></g></svg>