<?xml version="1.0" encoding="UTF-8"?>
<svg width="14px" height="15px" viewBox="0 0 14 15" version="1.1" xmlns="http://www.w3.org/2000/svg" xmlns:xlink="http://www.w3.org/1999/xlink">
    <title>编组 11</title>
    <g id="页面-1" stroke="none" stroke-width="1" fill="none" fill-rule="evenodd">
        <g id="3-1集群管理" transform="translate(-1234.000000, -152.000000)" fill-rule="nonzero">
            <g id="编组-16" transform="translate(800.000000, 129.000000)">
                <g id="编组-7" transform="translate(434.000000, 20.000000)">
                    <g id="编组-11" transform="translate(0.000000, 3.000000)">
                        <path d="M7,14.0859951 C3.14002082,14.0859951 0,10.9266867 0,7.04312618 C0,3.15943705 3.14014868,0 7,0 C10.8599792,0 14,3.15943707 14,7.04312618 C14,10.9268153 10.8598513,14.0859951 6.99987215,14.0859951 L7,14.0859951 Z" id="形状" fill="#4DA1FE"></path>
                        <path d="M10.1271191,4.70588531 C9.98695843,4.70668085 9.85285941,4.76352193 9.75440745,4.86389843 L6.27079191,9.14886113 L4.56551653,7.38593479 C4.46787258,7.28475541 4.33426201,7.22677415 4.19410858,7.22475966 C4.05395515,7.22274517 3.91875294,7.27686266 3.81827623,7.37519435 C3.71776568,7.47347448 3.66018591,7.60790952 3.65815661,7.74891267 C3.65623253,7.88991581 3.71002091,8.02593134 3.80773649,8.1270246 L5.88865889,10.2786458 C5.89406388,10.2828604 5.89446924,10.2848997 5.89568538,10.2859874 C5.92892608,10.3190244 5.97000404,10.3392817 6.00919024,10.3615783 C6.02986433,10.3727266 6.04621444,10.3914883 6.06729392,10.3999175 C6.1944618,10.4526263 6.33710981,10.4530168 6.46456092,10.4010052 C6.48523501,10.39244 6.50104462,10.3753097 6.52063771,10.3647052 C6.56022929,10.3424086 6.60157749,10.3226952 6.63549383,10.2892503 L10.5052961,5.61192193 C10.7105784,5.40314554 10.7088848,5.06649471 10.5015126,4.85981978 C10.4019839,4.76052412 10.2672797,4.7051505 10.1271191,4.70588531 Z" id="路径" stroke="#FFFFFF" stroke-width="0.4" fill="#FFFFFF"></path>
                    </g>
                </g>
            </g>
        </g>
    </g>
</svg>