<svg id="图层_1" data-name="图层 1" xmlns="http://www.w3.org/2000/svg" viewBox="0 0 52 52"><defs><style>.cls-1{fill:none;stroke:#00c1de;stroke-linecap:round;stroke-linejoin:round;stroke-width:4px;}.cls-2{fill:#00c1de;}</style></defs><title>开源组件图标设计-</title><line class="cls-1" x1="32.87" y1="33.31" x2="47.28" y2="48.78"/><path class="cls-2" d="M28.6,7.56l-.84,6.85a4,4,0,0,0,1.32,3.48l5.17,4.57-6.77,1.32a4,4,0,0,0-2.9,2.33l-2.75,6.33-3.35-6a4,4,0,0,0-3.12-2L8.5,23.71l4.7-5.05a4,4,0,0,0,1-3.59L12.68,8.33l6.25,2.91a4,4,0,0,0,1.69.38,4,4,0,0,0,2-.56l6-3.5M33.55,0,20.62,7.62,7,1.29l3.25,14.64L0,26.91,15,28.35l7.28,13.12,6-13.76L43,24.83,31.73,14.89,33.55,0Z"/></svg>