<?xml version="1.0" encoding="UTF-8"?>
<svg width="81px" height="75px" viewBox="0 0 81 75" version="1.1" xmlns="http://www.w3.org/2000/svg" xmlns:xlink="http://www.w3.org/1999/xlink">
    <title>编组 38</title>
    <defs>
        <rect id="path-1" x="5.63492063" y="6" width="60.8571429" height="54" rx="4"></rect>
        <mask id="mask-2" maskContentUnits="userSpaceOnUse" maskUnits="objectBoundingBox" x="0" y="0" width="60.8571429" height="54" fill="white">
            <use xlink:href="#path-1"></use>
        </mask>
    </defs>
    <g id="页面-1" stroke="none" stroke-width="1" fill="none" fill-rule="evenodd" opacity="0.753823417">
        <g id="3-1集群管理" transform="translate(-1024.000000, -425.000000)">
            <g id="编组-16" transform="translate(800.000000, 370.000000)">
                <g id="编组-38" transform="translate(224.260000, 55.020000)">
                    <rect id="矩形" stroke-opacity="0.6" stroke="#B4B4B4" fill-opacity="0.08" fill="#A6A6A6" x="0.5" y="0.5" width="70" height="65" rx="4"></rect>
                    <use id="矩形" stroke-opacity="0.6" stroke="#9B9B9B" mask="url(#mask-2)" stroke-width="2" fill="#FFFFFF" stroke-dasharray="2" xlink:href="#path-1"></use>
                    <circle id="椭圆形" fill="#FFFFFF" cx="65.5" cy="59.5" r="14.5"></circle>
                    <g id="xinjian01-2" transform="translate(49.740000, 43.980000)" fill="#D0D5D9" fill-rule="nonzero">
                        <path d="M20.6432749,13.9766082 L16.0233918,13.9766082 L16.0233918,9.35672515 C16.0233918,8.80116959 15.5555556,8.33333333 15,8.33333333 C14.4444444,8.33333333 13.9766082,8.80116959 13.9766082,9.35672515 L13.9766082,13.9766082 L9.35672515,13.9766082 C8.80116959,13.9766082 8.33333333,14.4444444 8.33333333,15 C8.33333333,15.5555556 8.80116959,16.0233918 9.35672515,16.0233918 L13.9766082,16.0233918 L13.9766082,20.6432749 C13.9766082,21.1988304 14.4444444,21.6666667 15,21.6666667 C15.5555556,21.6666667 16.0233918,21.1988304 16.0233918,20.6432749 L16.0233918,16.0233918 L20.6432749,16.0233918 C21.1988304,16.0233918 21.6666667,15.5555556 21.6666667,15 C21.6666667,14.4444444 21.1988304,13.9766082 20.6432749,13.9766082 L20.6432749,13.9766082 Z" id="路径"></path>
                        <path d="M15,0 C6.72,0 0,6.72 0,15 C0,23.28 6.72,30 15,30 C23.28,30 30,23.28 30,15 C30,6.72 23.28,0 15,0 L15,0 Z M0.995020635,15.0005148 C0.995020635,7.28423571 7.27874157,1.00051477 14.9950206,1.00051477 C22.7112997,1.00051477 28.9950206,7.25167757 28.9950206,15.0005148 C28.9950206,22.749352 22.7112997,29.0005148 14.9950206,29.0005148 C7.27874157,29.0005148 0.995020635,22.7167938 0.995020635,15.0005148 Z" id="形状"></path>
                    </g>
                    <g id="jiqun-3" transform="translate(18.740000, 16.980000)" fill="#C0C6CC" fill-rule="nonzero">
                        <path d="M28.7757238,0 C29.4114195,0 29.9267527,0.516594519 29.9267527,1.15384615 L29.9267527,10.3846154 C29.9267527,11.021867 29.4114195,11.5384615 28.7757238,11.5384615 L17.6498779,11.5384615 L17.6498779,15.3830769 L28.7780258,15.3830769 C29.3339551,15.3828911 29.8105711,15.7810432 29.9106383,16.3292308 L29.9290548,16.5369231 L29.9290548,21.5376923 L31.848971,21.5376923 C32.4049003,21.5375065 32.8815163,21.9356586 32.9815835,22.4838462 L33,22.6915385 L33,28.8461538 C33,29.4834055 32.4846668,30 31.848971,30 L25.7070806,30 C25.0713848,30 24.5560516,29.4834055 24.5560516,28.8461538 L24.5560516,22.6915385 C24.5560516,22.0542868 25.0713848,21.5376923 25.7070806,21.5376923 L27.6223927,21.5376923 L27.6223927,17.6907692 L17.6498779,17.6884615 L17.6498779,21.5376923 L19.5697942,21.5376923 C20.1257235,21.5375065 20.6023395,21.9356586 20.7024067,22.4838462 L20.7208232,22.6915385 L20.7208232,28.8461538 C20.7208232,29.4834055 20.2054899,30 19.5697942,30 L13.4302058,30 C12.7945101,30 12.2791768,29.4834055 12.2791768,28.8461538 L12.2791768,22.6915385 C12.2791768,22.0542868 12.7945101,21.5376923 13.4302058,21.5376923 L15.345518,21.5376923 L15.345518,17.6884615 L5.37070108,17.6907692 L5.37070108,21.5376923 L7.29061737,21.5376923 C7.84654665,21.5375065 8.32316261,21.9356586 8.42322986,22.4838462 L8.44164632,22.6915385 L8.44164632,28.8461538 C8.44164632,29.4834055 7.92631311,30 7.29061737,30 L1.15102895,30 C0.515333214,30 0,29.4834055 0,28.8461538 L0,22.6915385 C0,22.0542868 0.515333214,21.5376923 1.15102895,21.5376923 L3.06864318,21.5376923 L3.06864318,16.5392308 C3.06845785,15.9819408 3.46563781,15.5041583 4.01248692,15.4038462 L4.21967213,15.3853846 L15.34782,15.3830769 L15.34782,11.5384615 L4.22197419,11.5384615 C3.66604491,11.5386473 3.18942895,11.1404952 3.0893617,10.5923077 L3.07094524,10.3846154 L3.07094524,1.15384615 C3.07094524,0.516594519 3.58627845,0 4.22197419,0 L28.7757238,0 Z M7,24 L3,24 L3,28 L7,28 L7,24 Z M31,24 L27,24 L27,28 L31,28 L31,24 Z M15,24 L15,28 L18.9976005,28 L18.9976005,24 L15,24 Z M6,2 L6,9 L27.9977242,9 L27.9977242,2 L6,2 Z M11.9950354,5.90964376 C12.0511564,6.42550318 11.6256368,6.89171578 11.0144549,6.9839983 L10.7986135,6.99999828 L9.20138654,6.99999828 C8.58026893,7.00095182 8.06108559,6.60621567 8.00496459,6.09035624 C7.9488436,5.57449682 8.37436325,5.10828422 8.98554506,5.0160017 L9.20138654,4.99999828 L10.7986135,4.99999828 C11.4197311,4.99904818 11.9389144,5.39378433 11.9950354,5.90964376 Z" id="形状"></path>
                    </g>
                </g>
            </g>
        </g>
    </g>
</svg>