<?xml version="1.0" standalone="no"?><!DOCTYPE svg PUBLIC "-//W3C//DTD SVG 1.1//EN" "http://www.w3.org/Graphics/SVG/1.1/DTD/svg11.dtd"><svg t="1618907493155" class="icon" viewBox="0 0 1024 1024" version="1.1" xmlns="http://www.w3.org/2000/svg" p-id="2032" xmlns:xlink="http://www.w3.org/1999/xlink" width="200" height="200"><defs><style type="text/css"></style></defs><path d="M227.134488 0.628913H67.164724C30.268472 0.628913 0.233827 30.72 0.233827 67.713008v160.28422c0 36.984945 30.034646 67.084094 66.947023 67.084095h159.961701c36.912378 0 66.938961-30.09915 66.938961-67.084095V67.704945c0-36.984945-30.026583-67.084094-66.938961-67.084095z m15.84378 227.368315c0 8.780598-7.08737 15.884094-15.84378 15.884095H67.164724a15.859906 15.859906 0 0 1-15.843779-15.884095V67.704945c0-8.772535 7.095433-15.884094 15.851842-15.884095h159.961701c8.756409 0 15.84378 7.111559 15.84378 15.884095v160.292283zM0.016126 592.460598h0.209638v-160.292283c0-36.984945 30.034646-67.084094 66.947023-67.084095h159.752063c36.912378 0 66.947024 30.09915 66.947024 67.084095v160.292283c0 36.984945-30.034646 67.084094-66.947024 67.084095H66.955087C30.058835 659.53663 0.016126 629.43748 0.016126 592.452535z m51.095181-160.501921h0.209638v160.292284c0 8.772535 7.095433 15.884094 15.851842 15.884094h159.752063a15.859906 15.859906 0 0 0 15.851843-15.884094v-160.292284c0-8.772535-7.095433-15.884094-15.851843-15.884094H66.955087a15.859906 15.859906 0 0 0-15.84378 15.884094zM0.016126 956.706268h0.209638v-160.292284c0-36.984945 30.034646-67.076031 66.947023-67.076031h159.752063c36.912378 0 66.947024 30.091087 66.947024 67.084094v160.292284c0 36.984945-30.034646 67.084094-66.947024 67.084094H66.955087c-36.904315 0-66.938961-30.09915-66.938961-67.084094z m51.095181-160.292284h0.209638v160.292284c0 8.780598 7.095433 15.884094 15.851842 15.884094h159.752063a15.859906 15.859906 0 0 0 15.851843-15.884094v-160.292284c0-8.772535-7.095433-15.876031-15.851843-15.876031H66.955087a15.859906 15.859906 0 0 0-15.84378 15.884094z m371.018583-622.962897a25.656441 25.656441 0 0 1-25.656441-25.704819 25.656441 25.656441 0 0 1 25.656441-25.704819h574.568819a25.656441 25.656441 0 0 1 25.648378 25.704819 25.656441 25.656441 0 0 1-25.648378 25.704819h-574.568819z m0 364.46337a25.656441 25.656441 0 0 1-25.656441-25.704819 25.656441 25.656441 0 0 1 25.656441-25.704819h574.568819a25.656441 25.656441 0 0 1 25.648378 25.704819 25.656441 25.656441 0 0 1-25.648378 25.704819h-574.568819z m0 364.253732a25.656441 25.656441 0 0 1-25.656441-25.704819 25.656441 25.656441 0 0 1 25.656441-25.704819h574.568819a25.656441 25.656441 0 0 1 25.648378 25.704819 25.656441 25.656441 0 0 1-25.648378 25.704819h-574.568819z" fill="#4185f4" p-id="2033"></path></svg>