<svg width="171" height="17" viewBox="0 0 171 17" fill="none" xmlns="http://www.w3.org/2000/svg">
<path d="M4.16 9.92L4.76 7.94C5.24 6.34 5.7 4.72 6.12 3.04H6.2C6.66 4.7 7.1 6.34 7.6 7.94L8.18 9.92H4.16ZM9.98 15.94H12.44L7.56 1.22H4.88L0 15.94H2.36L3.62 11.74H8.74L9.98 15.94Z" fill="white"/>
<path d="M14.7814 15.94H17.0614V9.08C17.7614 7.34 18.8414 6.72 19.7414 6.72C20.1814 6.72 20.4614 6.78 20.8414 6.9L21.2614 4.9C20.9214 4.74 20.5614 4.66 20.0214 4.66C18.8414 4.66 17.6814 5.5 16.9014 6.92H16.8414L16.6614 4.94H14.7814V15.94Z" fill="white"/>
<path d="M27.8302 16.2C29.0902 16.2 30.3902 15.74 31.3902 14.84L30.4502 13.32C29.7902 13.88 28.9702 14.32 28.0502 14.32C26.2102 14.32 24.9502 12.78 24.9502 10.46C24.9502 8.12 26.2702 6.56 28.1102 6.56C28.8702 6.56 29.4902 6.88 30.0902 7.42L31.2302 5.92C30.4302 5.22 29.4102 4.66 28.0102 4.66C25.1102 4.66 22.5702 6.78 22.5702 10.46C22.5702 14.1 24.8502 16.2 27.8302 16.2Z" fill="white"/>
<path d="M37.7673 16.2C38.5673 16.2 39.3073 16 39.9273 15.8L39.5073 14.1C39.1873 14.24 38.7073 14.36 38.3273 14.36C37.1873 14.36 36.7273 13.68 36.7273 12.36V6.78H39.5873V4.94H36.7273V1.9H34.7873L34.5273 4.94L32.8273 5.06V6.78H34.4273V12.34C34.4273 14.66 35.2873 16.2 37.7673 16.2Z" fill="white"/>
<path d="M42.597 15.94H44.877V4.94H42.597V15.94ZM43.737 2.88C44.577 2.88 45.217 2.32 45.217 1.52C45.217 0.700001 44.577 0.16 43.737 0.16C42.897 0.16 42.277 0.700001 42.277 1.52C42.277 2.32 42.897 2.88 43.737 2.88Z" fill="white"/>
<path d="M53.4192 16.2C54.6792 16.2 55.9792 15.74 56.9792 14.84L56.0392 13.32C55.3792 13.88 54.5592 14.32 53.6392 14.32C51.7992 14.32 50.5392 12.78 50.5392 10.46C50.5392 8.12 51.8592 6.56 53.6992 6.56C54.4592 6.56 55.0792 6.88 55.6792 7.42L56.8192 5.92C56.0192 5.22 54.9992 4.66 53.5992 4.66C50.6992 4.66 48.1592 6.78 48.1592 10.46C48.1592 14.1 50.4392 16.2 53.4192 16.2Z" fill="white"/>
<path d="M65.1634 15.94H69.1034C73.5034 15.94 76.0834 13.3 76.0834 8.52C76.0834 3.72 73.5034 1.22 68.9834 1.22H65.1634V15.94ZM67.4834 14.04V3.1H68.8234C71.9834 3.1 73.6834 4.84 73.6834 8.52C73.6834 12.18 71.9834 14.04 68.8234 14.04H67.4834Z" fill="white"/>
<path d="M82.1478 16.2C83.4678 16.2 84.6478 15.54 85.6478 14.68H85.7078L85.9078 15.94H87.7878V9.32C87.7878 6.4 86.5278 4.66 83.7878 4.66C82.0278 4.66 80.4878 5.38 79.3478 6.1L80.2078 7.66C81.1478 7.06 82.2278 6.54 83.3878 6.54C85.0078 6.54 85.4678 7.66 85.4878 8.94C80.9078 9.44 78.9078 10.66 78.9078 13.02C78.9078 14.96 80.2478 16.2 82.1478 16.2ZM82.8478 14.38C81.8678 14.38 81.1278 13.94 81.1278 12.86C81.1278 11.62 82.2278 10.8 85.4878 10.4V13.1C84.5878 13.92 83.8078 14.38 82.8478 14.38Z" fill="white"/>
<path d="M94.6317 16.2C97.3517 16.2 98.8117 14.7 98.8117 12.86C98.8117 10.78 97.1117 10.1 95.5717 9.52C94.3717 9.08 93.2317 8.72 93.2317 7.78C93.2317 7.02 93.7917 6.42 94.9917 6.42C95.9117 6.42 96.6917 6.82 97.4517 7.38L98.5317 5.96C97.6317 5.26 96.4317 4.66 94.9517 4.66C92.5317 4.66 91.0517 6.04 91.0517 7.88C91.0517 9.74 92.7317 10.52 94.1917 11.08C95.3917 11.54 96.6317 11.98 96.6317 12.98C96.6317 13.82 96.0117 14.46 94.6917 14.46C93.5117 14.46 92.5517 13.98 91.5717 13.2L90.4917 14.68C91.5517 15.56 93.1117 16.2 94.6317 16.2Z" fill="white"/>
<path d="M101.861 15.94H104.141V8.14C105.121 7.16 105.821 6.64 106.841 6.64C108.141 6.64 108.701 7.4 108.701 9.3V15.94H111.001V9.02C111.001 6.22 109.961 4.66 107.621 4.66C106.121 4.66 105.021 5.48 104.061 6.4L104.141 4.22V0H101.861V15.94Z" fill="white"/>
<path d="M120.003 16.2C122.483 16.2 124.743 14.04 124.743 10.26C124.743 6.88 123.163 4.66 120.383 4.66C119.223 4.66 118.043 5.28 117.103 6.1L117.163 4.22V0H114.883V15.94H116.683L116.903 14.8H116.963C117.903 15.7 119.003 16.2 120.003 16.2ZM119.563 14.3C118.883 14.3 118.003 14.04 117.163 13.3V7.92C118.083 7.02 118.923 6.58 119.783 6.58C121.623 6.58 122.363 8 122.363 10.3C122.363 12.88 121.163 14.3 119.563 14.3Z" fill="white"/>
<path d="M132.461 16.2C135.181 16.2 137.641 14.1 137.641 10.46C137.641 6.78 135.181 4.66 132.461 4.66C129.741 4.66 127.281 6.78 127.281 10.46C127.281 14.1 129.741 16.2 132.461 16.2ZM132.461 14.32C130.741 14.32 129.661 12.78 129.661 10.46C129.661 8.12 130.741 6.56 132.461 6.56C134.201 6.56 135.281 8.12 135.281 10.46C135.281 12.78 134.201 14.32 132.461 14.32Z" fill="white"/>
<path d="M143.253 16.2C144.573 16.2 145.753 15.54 146.753 14.68H146.813L147.013 15.94H148.893V9.32C148.893 6.4 147.633 4.66 144.893 4.66C143.133 4.66 141.593 5.38 140.453 6.1L141.313 7.66C142.253 7.06 143.333 6.54 144.493 6.54C146.113 6.54 146.573 7.66 146.593 8.94C142.013 9.44 140.013 10.66 140.013 13.02C140.013 14.96 141.353 16.2 143.253 16.2ZM143.953 14.38C142.973 14.38 142.233 13.94 142.233 12.86C142.233 11.62 143.333 10.8 146.593 10.4V13.1C145.693 13.92 144.913 14.38 143.953 14.38Z" fill="white"/>
<path d="M152.757 15.94H155.037V9.08C155.737 7.34 156.817 6.72 157.717 6.72C158.157 6.72 158.437 6.78 158.817 6.9L159.237 4.9C158.897 4.74 158.537 4.66 157.997 4.66C156.817 4.66 155.657 5.5 154.877 6.92H154.817L154.637 4.94H152.757V15.94Z" fill="white"/>
<path d="M165.126 16.2C166.366 16.2 167.506 15.54 168.326 14.7H168.386L168.586 15.94H170.466V0H168.166V4.08L168.266 5.9C167.366 5.14 166.566 4.66 165.306 4.66C162.846 4.66 160.586 6.88 160.586 10.46C160.586 14.1 162.366 16.2 165.126 16.2ZM165.666 14.3C163.946 14.3 162.966 12.92 162.966 10.42C162.966 8.04 164.206 6.58 165.746 6.58C166.566 6.58 167.346 6.84 168.166 7.58V12.96C167.366 13.88 166.586 14.3 165.666 14.3Z" fill="white"/>
</svg>
