<?xml version="1.0" standalone="no"?><!DOCTYPE svg PUBLIC "-//W3C//DTD SVG 1.1//EN" "http://www.w3.org/Graphics/SVG/1.1/DTD/svg11.dtd"><svg t="1563629260840" class="icon" viewBox="0 0 1024 1024" version="1.1" xmlns="http://www.w3.org/2000/svg" p-id="3144" xmlns:xlink="http://www.w3.org/1999/xlink" width="200" height="200"><defs><style type="text/css"></style></defs><path d="M512 0q52.992 0 90.496 37.504t37.504 90.496l0 22.016q15.658667 5.333333 37.674667 15.317333l15.317333-15.317333q37.674667-37.674667 90.666667-37.674667 52.650667 0 90.325333 37.674667t37.674667 90.325333q0 52.992-37.674667 90.666667l-15.317333 15.317333q9.984 22.016 15.317333 37.674667l22.016 0q52.992 0 90.496 37.504t37.504 90.496-37.504 90.496-90.496 37.504l-22.016 0q-5.333333 15.658667-15.317333 37.674667l15.317333 15.317333q37.674667 37.674667 37.674667 90.666667 0 52.650667-37.674667 90.325333t-90.325333 37.674667q-52.992 0-90.666667-37.674667l-15.317333-15.317333q-22.016 9.984-37.674667 15.317333l0 22.016q0 52.992-37.504 90.496t-90.496 37.504-90.496-37.504-37.504-90.496l0-22.016q-15.658667-5.333333-37.674667-15.317333l-15.317333 15.317333q-37.674667 37.674667-90.325333 37.674667-52.992 0-90.496-37.674667t-37.504-90.325333q0-53.333333 37.333333-90.666667l15.317333-15.317333q-9.984-22.016-15.317333-37.674667l-22.016 0q-52.992 0-90.496-37.504t-37.504-90.496 37.504-90.496 90.496-37.504l22.016 0q5.333333-15.658667 15.317333-37.674667l-15.317333-15.317333q-37.333333-37.333333-37.333333-90.666667 0-52.650667 37.504-90.325333t90.496-37.674667q52.650667 0 90.325333 37.674667l15.317333 15.317333q22.016-9.984 37.674667-15.317333l0-22.016q0-52.992 37.504-90.496t90.496-37.504zM512 85.333333q-17.664 0-30.165333 12.501333t-12.501333 30.165333l0 88.32q-74.666667 10.666667-136.32 56.32l-62.336-62.336q-12.672-12.672-29.994667-12.672-17.664 0-30.165333 12.501333t-12.501333 30.165333q0 18.005333 12.330667 30.336l62.336 62.336q-45.653333 61.653333-56.32 136.32l-88.32 0q-17.664 0-30.165333 12.501333t-12.501333 30.165333 12.501333 30.165333 30.165333 12.501333l88.32 0q10.666667 74.666667 56.32 136.32l-62.336 62.336q-12.330667 12.330667-12.330667 30.336 0 17.664 12.501333 30.165333t30.165333 12.501333q17.322667 0 29.994667-12.672l62.336-62.336q61.653333 45.653333 136.32 56.32l0 88.32q0 17.664 12.501333 30.165333t30.165333 12.501333 30.165333-12.501333 12.501333-30.165333l0-88.32q74.666667-10.666667 136.32-56.32l62.336 62.336q12.672 12.672 30.336 12.672t30.165333-12.501333 12.501333-30.165333-12.672-30.336l-62.336-62.336q45.653333-61.653333 56.32-136.32l88.32 0q17.664 0 30.165333-12.501333t12.501333-30.165333-12.501333-30.165333-30.165333-12.501333l-88.32 0q-10.666667-74.666667-56.32-136.32l62.336-62.336q12.672-12.672 12.672-30.336t-12.501333-30.165333-30.165333-12.501333-30.336 12.672l-62.336 62.336q-61.653333-45.653333-136.32-56.32l0-88.32q0-17.664-12.501333-30.165333t-30.165333-12.501333zM512 341.333333q70.656 0 120.661333 50.005333t50.005333 120.661333-50.005333 120.661333-120.661333 50.005333-120.661333-50.005333-50.005333-120.661333 50.005333-120.661333 120.661333-50.005333zM512 426.666667q-35.328 0-60.330667 25.002667t-25.002667 60.330667 25.002667 60.330667 60.330667 25.002667 60.330667-25.002667 25.002667-60.330667-25.002667-60.330667-60.330667-25.002667z" p-id="3145"></path></svg>