<?xml version="1.0" standalone="no"?><!DOCTYPE svg PUBLIC "-//W3C//DTD SVG 1.1//EN" "http://www.w3.org/Graphics/SVG/1.1/DTD/svg11.dtd"><svg t="1563629382117" class="icon" viewBox="0 0 1024 1024" version="1.1" xmlns="http://www.w3.org/2000/svg" p-id="3890" xmlns:xlink="http://www.w3.org/1999/xlink" width="200" height="200"><defs><style type="text/css"></style></defs><path d="M1024 779.8v214.4c0 16.5-16.2 29.8-36.3 29.8H437.3c-20.1 0-36.3-13.3-36.3-29.8V779.8c0-16.5 16.2-29.8 36.3-29.8h550.4c20.1 0 36.3 13.3 36.3 29.8zM1024 404.8v214.4c0 16.5-16.2 29.8-36.3 29.8H247.3c-20.1 0-36.3-13.3-36.3-29.8V404.8c0-16.5 16.2-29.8 36.3-29.8h740.4c20.1 0 36.3 13.3 36.3 29.8zM1024 29.8v214.4c0 16.5-16.2 29.8-36.3 29.8H107.3C87.2 274 71 260.7 71 244.2V29.8C71 13.3 87.2 0 107.3 0h880.4c20.1 0 36.3 13.3 36.3 29.8z" p-id="3891"></path></svg>