<svg id="图层_1" data-name="图层 1" xmlns="http://www.w3.org/2000/svg" viewBox="0 0 52 52"><defs><style>.cls-1{fill:none;stroke:#00c1de;stroke-miterlimit:10;stroke-width:4px;}.cls-2{fill:#00c1de;}</style></defs><title>开源组件图标设计-</title><path class="cls-1" d="M50,26A24,24,0,1,1,26,2"/><path class="cls-1" d="M39.54,26A13.54,13.54,0,1,1,26,12.45"/><path class="cls-2" d="M26,23.62A2.38,2.38,0,1,1,23.62,26,2.39,2.39,0,0,1,26,23.62m0-3A5.38,5.38,0,1,0,31.38,26,5.38,5.38,0,0,0,26,20.62Z"/><path class="cls-2" d="M31.52,3.22A20.54,20.54,0,0,1,48.78,20.48H31.52V3.22M28.52,0V23.48H52A23.48,23.48,0,0,0,28.52,0Z"/></svg>