<?xml version="1.0" standalone="no"?><!DOCTYPE svg PUBLIC "-//W3C//DTD SVG 1.1//EN" "http://www.w3.org/Graphics/SVG/1.1/DTD/svg11.dtd"><svg t="1563629281844" class="icon" viewBox="0 0 1024 1024" version="1.1" xmlns="http://www.w3.org/2000/svg" p-id="3416" xmlns:xlink="http://www.w3.org/1999/xlink" width="200" height="200"><defs><style type="text/css"></style></defs><path d="M794.1 380H644V236.7c0-40.4-32.9-73.7-73.3-73.7H243.1c-40.4 0-73.1 33.3-73.1 73.7v327.6c0 40.4 32.7 73.7 73.1 73.7H393v143.3c0 40.4 33.1 73.7 73.5 73.7h327.6c40.4 0 72.9-33.3 72.9-73.7V453.7c0-40.4-32.5-73.7-72.9-73.7z m-551 186c-0.6 0-1.1-1.1-1.1-1.7V236.7c0-0.6 0.5-1.7 1.1-1.7h327.6c0.6 0 1.3 1.1 1.3 1.7V380H466.5c-40.4 0-73.5 33.3-73.5 73.7V566H243.1zM572 452v112.3c0 0.6-0.7 1.7-1.3 1.7H465V453.7c0-0.6 0.9-1.7 1.5-1.7H572z m223 329.3c0 0.6-0.3 1.7-0.9 1.7H466.5c-0.6 0-1.5-1.1-1.5-1.7V638h105.7c40.4 0 73.3-33.3 73.3-73.7V452h150.1c0.6 0 0.9 1.1 0.9 1.7v327.6z" p-id="3417"></path></svg>