<?xml version="1.0" encoding="UTF-8"?>
<svg width="256px" height="256px" viewBox="0 0 256 256" version="1.1" xmlns="http://www.w3.org/2000/svg" xmlns:xlink="http://www.w3.org/1999/xlink">
    <title>Message Page/Components/页面崩溃</title>
    <defs>
        <radialGradient cx="50%" cy="-29.7362992%" fx="50%" fy="-29.7362992%" r="129.736299%" gradientTransform="translate(0.500000,-0.297363),scale(0.328125,1.000000),rotate(90.000000),scale(1.000000,1.385870),translate(-0.500000,0.297363)" id="radialGradient-1">
            <stop stop-color="#E7E7E9" offset="0%"></stop>
            <stop stop-color="#E7E7E9" stop-opacity="0" offset="100%"></stop>
        </radialGradient>
        <linearGradient x1="50%" y1="-24.977938%" x2="50%" y2="41.640794%" id="linearGradient-2">
            <stop stop-color="#CDCED1" stop-opacity="0.5" offset="0%"></stop>
            <stop stop-color="#CDCED1" stop-opacity="0" offset="100%"></stop>
        </linearGradient>
        <linearGradient x1="50%" y1="0%" x2="50%" y2="59.7604305%" id="linearGradient-3">
            <stop stop-color="#CDCED1" stop-opacity="0.5" offset="0%"></stop>
            <stop stop-color="#CDCED1" stop-opacity="0" offset="100%"></stop>
        </linearGradient>
        <linearGradient x1="55.803365%" y1="50.6648104%" x2="50.9961513%" y2="49.3351896%" id="linearGradient-4">
            <stop stop-color="#070A1A" stop-opacity="0.1" offset="0%"></stop>
            <stop stop-color="#070A1A" stop-opacity="0" offset="100%"></stop>
        </linearGradient>
        <linearGradient x1="50%" y1="0%" x2="50%" y2="100%" id="linearGradient-5">
            <stop stop-color="#DBDCDF" offset="0%"></stop>
            <stop stop-color="#B5B6BB" offset="100%"></stop>
        </linearGradient>
        <rect id="path-6" x="0" y="0" width="108" height="135.9" rx="2.7"></rect>
        <linearGradient x1="50%" y1="0%" x2="50%" y2="100%" id="linearGradient-8">
            <stop stop-color="#F9F9FA" offset="0%"></stop>
            <stop stop-color="#F0F1F2" offset="100%"></stop>
        </linearGradient>
        <linearGradient x1="100%" y1="23.553719%" x2="0%" y2="76.446281%" id="linearGradient-9">
            <stop stop-color="#F0F1F2" offset="0%"></stop>
            <stop stop-color="#E7E7E9" offset="100%"></stop>
        </linearGradient>
        <linearGradient x1="100%" y1="48.4877127%" x2="0%" y2="51.5122873%" id="linearGradient-10">
            <stop stop-color="#F0F1F2" offset="0%"></stop>
            <stop stop-color="#E7E7E9" offset="100%"></stop>
        </linearGradient>
        <linearGradient x1="100%" y1="49.0150816%" x2="0%" y2="50.9849184%" id="linearGradient-11">
            <stop stop-color="#F0F1F2" offset="0%"></stop>
            <stop stop-color="#E7E7E9" offset="100%"></stop>
        </linearGradient>
        <linearGradient x1="100%" y1="47.6625274%" x2="0%" y2="52.3374726%" id="linearGradient-12">
            <stop stop-color="#F0F1F2" offset="0%"></stop>
            <stop stop-color="#E7E7E9" offset="100%"></stop>
        </linearGradient>
        <linearGradient x1="100%" y1="49.3079585%" x2="0%" y2="50.6920415%" id="linearGradient-13">
            <stop stop-color="#F0F1F2" offset="0%"></stop>
            <stop stop-color="#E7E7E9" offset="100%"></stop>
        </linearGradient>
        <linearGradient x1="50%" y1="-15.9005335%" x2="50%" y2="149.503732%" id="linearGradient-14">
            <stop stop-color="#CBCCD0" offset="0%"></stop>
            <stop stop-color="#9C9DA3" offset="100%"></stop>
        </linearGradient>
        <linearGradient x1="83.8049703%" y1="19.7840864%" x2="8.81137529%" y2="85.8002314%" id="linearGradient-15">
            <stop stop-color="#DBDCDF" offset="0%"></stop>
            <stop stop-color="#9C9DA3" offset="100%"></stop>
            <stop stop-color="#9C9DA3" offset="100%"></stop>
        </linearGradient>
        <linearGradient x1="74.151555%" y1="44.8467152%" x2="6.11042217%" y2="95.6257696%" id="linearGradient-16">
            <stop stop-color="#E7E7E9" offset="0%"></stop>
            <stop stop-color="#F5F5F6" offset="100%"></stop>
        </linearGradient>
        <linearGradient x1="84.0162258%" y1="3.95439234%" x2="27.7170139%" y2="92.4932807%" id="linearGradient-17">
            <stop stop-color="#F5F5F6" stop-opacity="0.5" offset="0%"></stop>
            <stop stop-color="#FFFFFF" stop-opacity="0.4" offset="100%"></stop>
        </linearGradient>
        <linearGradient x1="55.8689185%" y1="0%" x2="44.0190181%" y2="100%" id="linearGradient-18">
            <stop stop-color="#DBDCDF" offset="0%"></stop>
            <stop stop-color="#9C9DA3" offset="100%"></stop>
        </linearGradient>
        <linearGradient x1="83.8049703%" y1="0%" x2="15.5495441%" y2="100%" id="linearGradient-19">
            <stop stop-color="#DBDCDF" offset="0%"></stop>
            <stop stop-color="#9C9DA3" offset="100%"></stop>
        </linearGradient>
    </defs>
    <g id="0514-标准页" stroke="none" stroke-width="1" fill="none" fill-rule="evenodd">
        <g id="Message-Page/Components/页面崩溃" transform="translate(-48.000000, 19.000000)">
            <g id="Message-Page/Components/无数据">
                <ellipse id="椭圆形" fill="url(#radialGradient-1)" cx="176" cy="195" rx="128" ry="42"></ellipse>
                <circle id="椭圆形" fill="url(#linearGradient-2)" opacity="0.7" cx="78.5" cy="55.5" r="22.5"></circle>
                <circle id="椭圆形复制-3" fill="url(#linearGradient-3)" opacity="0.5" cx="286.5" cy="117.5" r="22.5"></circle>
                <circle id="椭圆形复制" fill="url(#linearGradient-3)" opacity="0.4" cx="126.5" cy="40" r="40"></circle>
                <circle id="椭圆形复制-2" fill="url(#linearGradient-3)" opacity="0.4" cx="243" cy="95" r="40"></circle>
                <path d="M2.45853277,156.189947 L116.458533,156.189947 C118.115387,156.189947 120.486275,156.428423 121.754059,156.722597 L232.704474,182.46735 C233.972258,182.761524 233.656854,183 232,183 L118,183 C116.343146,183 113.972258,182.761524 112.704474,182.46735 L1.75405861,156.722597 C0.486274696,156.428423 0.801678521,156.189947 2.45853277,156.189947 Z" id="矩形" fill="url(#linearGradient-4)"></path>
                <g id="编组-2" transform="translate(122.000000, 42.000000)">
                    <g id="编组-4" transform="translate(0.000000, 5.400000)">
                        <mask id="mask-7" fill="white">
                            <use xlink:href="#path-6"></use>
                        </mask>
                        <use id="蒙版" fill="url(#linearGradient-5)" fill-rule="nonzero" xlink:href="#path-6"></use>
                        <rect id="矩形" fill="url(#linearGradient-8)" fill-rule="nonzero" mask="url(#mask-7)" x="6.3" y="8.1" width="95.4" height="119.7" rx="2.7"></rect>
                        <rect id="矩形" fill="url(#linearGradient-9)" mask="url(#mask-7)" x="17.1" y="25.2" width="9.9" height="7.2"></rect>
                        <rect id="矩形复制-2" fill="url(#linearGradient-9)" mask="url(#mask-7)" x="17.1" y="44.1" width="9.9" height="7.2"></rect>
                        <rect id="矩形复制-4" fill="url(#linearGradient-9)" mask="url(#mask-7)" x="17.1" y="62.1" width="9.9" height="7.2"></rect>
                        <rect id="矩形复制-8" fill="url(#linearGradient-9)" mask="url(#mask-7)" x="17.1" y="81" width="9.9" height="7.2"></rect>
                        <rect id="矩形复制" fill="url(#linearGradient-10)" mask="url(#mask-7)" x="33.3" y="25.2" width="41.4" height="7.2"></rect>
                        <rect id="矩形复制-3" fill="url(#linearGradient-11)" mask="url(#mask-7)" x="33.3" y="44.1" width="51.3" height="7.2"></rect>
                        <rect id="矩形复制-5" fill="url(#linearGradient-12)" mask="url(#mask-7)" x="33.3" y="62.1" width="33.3" height="7.2"></rect>
                        <rect id="矩形复制-9" fill="url(#linearGradient-13)" mask="url(#mask-7)" x="33.3" y="81" width="61.2" height="7.2"></rect>
                    </g>
                    <rect id="矩形" fill="url(#linearGradient-14)" fill-rule="nonzero" x="33.3" y="0" width="41.4" height="16.2"></rect>
                </g>
            </g>
            <g id="编组-8" transform="translate(168.000000, 103.000000)" fill-rule="nonzero">
                <path d="M38.9953811,7.00346188 L68.2687195,50.9134696 C69.3715884,52.5677729 68.9245625,54.8029025 67.2702592,55.9057713 C66.6788961,56.3000134 65.9840684,56.5103903 65.2733385,56.5103903 L6.72666153,56.5103903 C4.73843643,56.5103903 3.12666153,54.8986154 3.12666153,52.9103903 C3.12666153,52.1996603 3.33703843,51.5048326 3.73128047,50.9134696 L33.0046189,7.00346188 C34.1074878,5.3491586 36.3426174,4.90213267 37.9969207,6.00500153 C38.3923889,6.26864701 38.7317356,6.60799364 38.9953811,7.00346188 Z" id="三角形" fill-opacity="0.1" fill="#070A1A"></path>
                <path d="M40.6969207,0.605001525 C41.0923889,0.868647015 41.4317356,1.20799364 41.6953811,1.60346188 L70.9687195,45.5134696 C72.0715884,47.1677729 71.6245625,49.4029025 69.9702592,50.5057713 C69.3788961,50.9000134 68.6840684,51.1103903 67.9733385,51.1103903 L9.42666153,51.1103903 C7.43843643,51.1103903 5.82666153,49.4986154 5.82666153,47.5103903 C5.82666153,46.7996603 6.03703843,46.1048326 6.43128047,45.5134696 L35.7046189,1.60346188 C36.8074878,-0.0508414007 39.0426174,-0.497867328 40.6969207,0.605001525 Z M38.7,10.0901903 L16.1523,43.9103903 L61.2468,43.9103903 L38.7,10.0901903 Z" id="三角形备份" fill="url(#linearGradient-15)"></path>
                <polygon id="三角形备份-2" fill="url(#linearGradient-16)" points="38.7 10.0901903 16.1523 43.9103903 61.2468 43.9103903"></polygon>
                <polygon id="三角形备份-3" fill="url(#linearGradient-17)" points="38.7 10.0901903 16.1523 43.9103903 34.2633256 43.9103903 47.5593308 23.3791864"></polygon>
                <path d="M39,18 C40.5457852,18 41.7988918,19.2531065 41.7988918,20.7988918 C41.7988918,20.8635836 41.7966489,20.9282559 41.7921672,20.9927923 L41.1385552,30.4048052 C41.0605278,31.5283995 40.1263004,32.4 39,32.4 C37.8736996,32.4 36.9394722,31.5283995 36.8614448,30.4048052 L36.2078328,20.9927923 C36.1007445,19.4507209 37.2640281,18.1138128 38.8060995,18.0067246 C38.8706359,18.0022429 38.9353082,18 39,18 Z" id="矩形" fill="url(#linearGradient-18)"></path>
                <circle id="椭圆形" fill="url(#linearGradient-19)" cx="39" cy="37" r="3"></circle>
            </g>
        </g>
    </g>
</svg>