<?xml version="1.0" standalone="no"?><!DOCTYPE svg PUBLIC "-//W3C//DTD SVG 1.1//EN" "http://www.w3.org/Graphics/SVG/1.1/DTD/svg11.dtd"><svg t="1600135127944" class="icon" viewBox="0 0 1024 1024" version="1.1" xmlns="http://www.w3.org/2000/svg" p-id="16244" xmlns:xlink="http://www.w3.org/1999/xlink" width="200" height="200"><defs><style type="text/css"></style></defs><path d="M512 938.667c-234.667 0-426.667-192-426.667-426.667S277.333 85.333 512 85.333s426.667 192 426.667 426.667-192 426.667-426.667 426.667z m0-85.334c187.733 0 341.333-153.6 341.333-341.333S699.733 170.667 512 170.667 170.667 324.267 170.667 512 324.267 853.333 512 853.333zM640 384h-85.333c-25.6 0-42.667-17.067-42.667-42.667s17.067-42.666 42.667-42.666h128c25.6 0 42.666 17.066 42.666 42.666v128c0 25.6-17.066 42.667-42.666 42.667S640 494.933 640 469.333V384zM512 554.667c-25.6 0-42.667-17.067-42.667-42.667S486.4 469.333 512 469.333 554.667 486.4 554.667 512 537.6 554.667 512 554.667zM384 640h85.333c25.6 0 42.667 17.067 42.667 42.667s-17.067 42.666-42.667 42.666h-128c-25.6 0-42.666-17.066-42.666-42.666v-128c0-25.6 17.066-42.667 42.666-42.667S384 529.067 384 554.667V640z" fill="#C7C5CF" p-id="16245"></path></svg>