<?xml version="1.0" encoding="UTF-8"?>
<svg width="120px" height="100px" viewBox="0 0 120 100" version="1.1" xmlns="http://www.w3.org/2000/svg" xmlns:xlink="http://www.w3.org/1999/xlink">
    <title>微服务备份 2</title>
    <defs>
        <linearGradient x1="6.81623383%" y1="36.7935305%" x2="68.2865966%" y2="57.6461016%" id="linearGradient-1">
            <stop stop-color="#A38DCD" offset="0%"></stop>
            <stop stop-color="#6A549E" offset="100%"></stop>
        </linearGradient>
        <linearGradient x1="-16.21423%" y1="50%" x2="100%" y2="50%" id="linearGradient-2">
            <stop stop-color="#F2F0FF" stop-opacity="0.2" offset="0%"></stop>
            <stop stop-color="#A8A0FB" stop-opacity="0.5" offset="100%"></stop>
        </linearGradient>
        <linearGradient x1="76.150113%" y1="38.5354908%" x2="-23.5586987%" y2="74.984324%" id="linearGradient-3">
            <stop stop-color="#F9F8FF" offset="0%"></stop>
            <stop stop-color="#DCD8FF" offset="100%"></stop>
        </linearGradient>
        <path d="M7.37154,-0.002376 C8.52984,-0.002376 9.603792,0.509652 10.488852,1.381644 C10.595772,1.486188 10.701504,1.59786 10.803672,1.714284 C10.826244,1.741608 10.851192,1.768932 10.873764,1.796256 C12.073644,3.21354 12.837528,5.342436 12.837528,7.718436 C12.837528,11.983356 10.387872,15.447564 7.37154,15.447564 L5.691708,15.447564 C8.70804,15.447564 11.156508,11.983356 11.156508,7.718436 C11.156508,5.342436 10.393812,3.21354 9.193932,1.796256 C9.17136,1.768932 9.146412,1.741608 9.12384,1.714284 C9.021672,1.59786 8.91594,1.486188 8.807832,1.381644 C7.92396,0.509652 6.84882,-0.002376 5.691708,-0.002376 L7.37154,-0.002376 Z" id="path-4"></path>
        <filter x="-63.0%" y="-29.1%" width="225.9%" height="158.3%" filterUnits="objectBoundingBox" id="filter-5">
            <feOffset dx="0" dy="0" in="SourceAlpha" result="shadowOffsetOuter1"></feOffset>
            <feGaussianBlur stdDeviation="1.5" in="shadowOffsetOuter1" result="shadowBlurOuter1"></feGaussianBlur>
            <feColorMatrix values="0 0 0 0 0.822129875   0 0 0 0 0.849562517   0 0 0 0 0.959293089  0 0 0 1 0" type="matrix" in="shadowBlurOuter1"></feColorMatrix>
        </filter>
        <linearGradient x1="61.747084%" y1="18.2469561%" x2="-24.4460486%" y2="210.698058%" id="linearGradient-6">
            <stop stop-color="#F6F5FF" offset="0%"></stop>
            <stop stop-color="#E9E8F6" offset="100%"></stop>
        </linearGradient>
        <linearGradient x1="21.8326006%" y1="0%" x2="91.878338%" y2="119.35354%" id="linearGradient-7">
            <stop stop-color="#66E4D5" offset="0%"></stop>
            <stop stop-color="#36C5AB" offset="100%"></stop>
        </linearGradient>
        <path d="M4.25554115,0 C4.95579052,0 5.60504738,0.322131488 6.14010973,0.870726644 C6.20474813,0.93649827 6.26866833,1.00675433 6.33043392,1.08 C6.3440798,1.09719031 6.35916209,1.11438062 6.37280798,1.13157093 C7.09819451,2.02322491 7.56,3.36257439 7.56,4.85738408 C7.56,7.54056747 6.07906234,9.72 4.25554115,9.72 L3.24,9.72 C5.0635212,9.72 6.54374065,7.54056747 6.54374065,4.85738408 C6.54374065,3.36257439 6.08265337,2.02322491 5.35726683,1.13157093 C5.34362095,1.11438062 5.32853865,1.09719031 5.31489277,1.08 C5.25312718,1.00675433 5.18920698,0.93649827 5.12385037,0.870726644 C4.58950623,0.322131488 3.93953117,0 3.24,0 L4.25554115,0 Z" id="path-8"></path>
        <filter x="-104.2%" y="-46.3%" width="308.3%" height="192.6%" filterUnits="objectBoundingBox" id="filter-9">
            <feOffset dx="0" dy="0" in="SourceAlpha" result="shadowOffsetOuter1"></feOffset>
            <feGaussianBlur stdDeviation="1.5" in="shadowOffsetOuter1" result="shadowBlurOuter1"></feGaussianBlur>
            <feColorMatrix values="0 0 0 0 0.822129875   0 0 0 0 0.849562517   0 0 0 0 0.959293089  0 0 0 1 0" type="matrix" in="shadowBlurOuter1"></feColorMatrix>
        </filter>
        <linearGradient x1="60.4439504%" y1="18.2469561%" x2="-12.5097776%" y2="74.984324%" id="linearGradient-10">
            <stop stop-color="#F6F5FF" offset="0%"></stop>
            <stop stop-color="#E9E8F6" offset="100%"></stop>
        </linearGradient>
        <linearGradient x1="21.8326006%" y1="0%" x2="91.878338%" y2="119.35354%" id="linearGradient-11">
            <stop stop-color="#66E4D5" offset="0%"></stop>
            <stop stop-color="#36C5AB" offset="100%"></stop>
        </linearGradient>
    </defs>
    <g id="微服务备份-2" stroke="none" stroke-width="1" fill="none" fill-rule="evenodd">
        <g id="编组-2" transform="translate(5.000000, 9.000000)">
            <path d="M109.793322,23.989605 C109.802604,24.0206942 109.810029,24.0517834 109.818692,24.0834484 C109.826737,24.1145377 109.834162,24.1462026 109.842207,24.1778676 C109.850251,24.2095326 109.857677,24.2417733 109.864483,24.274014 C109.87129,24.3062547 109.878716,24.3384954 109.884285,24.3707361 C109.903468,24.4634281 109.920175,24.5572715 109.934408,24.6522664 C109.94864,24.7478371 109.961016,24.8439834 109.970298,24.941857 C109.980198,25.0397305 109.987005,25.1387555 109.991956,25.238932 C109.996906,25.3391084 110,25.441012 110,25.5434914 L110,56.4559865 C110,56.5043476 109.999381,56.5527086 109.998144,56.6010696 C109.996906,56.648855 109.99505,56.6966403 109.993193,56.7438499 C109.990718,56.7916352 109.988243,56.8388448 109.985149,56.8854786 C109.982055,56.9326882 109.978342,56.9793221 109.974011,57.025956 L109.966585,57.0950432 L109.959778,57.1647061 C109.956684,57.1871594 109.954209,57.2101885 109.951115,57.2326419 C109.948021,57.2556709 109.944927,57.2781243 109.941833,57.3011533 C109.894186,57.6402564 109.818074,57.9620876 109.716591,58.2654956 C109.615108,58.5671764 109.488255,58.8492825 109.339125,59.1089353 C109.189995,59.368588 109.019207,59.604636 108.829236,59.8159277 C108.640503,60.0254922 108.432587,60.2114519 108.208582,60.3686253 C108.164029,60.4002903 108.119475,60.4302281 108.073684,60.4595902 C108.027275,60.4889522 107.980865,60.5171628 107.934455,60.544222 C107.887427,60.5707054 107.840398,60.5960374 107.792132,60.6207936 C107.743866,60.6455499 107.695599,60.6691547 107.646096,60.691608 C107.581122,60.7209701 107.514911,60.748605 107.448081,60.7745127 C107.38125,60.7998447 107.313183,60.8234495 107.244496,60.8447513 C107.176429,60.8660532 107.106505,60.8850522 107.03658,60.902324 C106.966656,60.9190201 106.895495,60.9334133 106.824333,60.946655 C106.789062,60.952988 106.753171,60.9581695 106.716662,60.963351 C106.681391,60.9691083 106.644882,60.9737141 106.608992,60.9777442 C106.572483,60.9811986 106.535974,60.9852287 106.499465,60.9881073 C106.462955,60.9909859 106.426446,60.9932888 106.389319,60.9955917 C106.352191,60.9973189 106.315682,60.9984704 106.278554,60.9990461 C106.241426,61 106.204298,61 106.16717,61 C106.129424,60.9990461 106.092296,60.9978947 106.054549,60.9967432 C106.016803,60.995016 105.979675,60.9927131 105.941309,60.9898345 C105.885618,60.9858044 105.828688,60.9800471 105.771759,60.9737141 C105.714211,60.9668054 105.657282,60.9587452 105.600352,60.9495336 C105.542804,60.940322 105.484637,60.9299589 105.427089,60.9172929 C105.369541,60.9057784 105.311993,60.8919609 105.253826,60.8775678 L86.4900397,56.1341553 C86.3112074,56.0892486 86.1373254,56.0172827 85.9708689,55.9217121 C85.8050313,55.8272929 85.6466192,55.7092689 85.4956327,55.5716703 C85.3458838,55.4340716 85.2041793,55.2768982 85.0717567,55.1030287 C84.9405717,54.9303107 84.8186686,54.7408966 84.7079039,54.5370893 C84.6800581,54.4864254 84.6534498,54.43461 84.6268415,54.3827946 C84.600852,54.3304034 84.5754814,54.2768608 84.5507295,54.2233183 C84.5259776,54.1692 84.5012257,54.1150816 84.4783302,54.0592361 C84.4548159,54.0039664 84.4325392,53.9481209 84.4102625,53.8911239 C84.399743,53.8629133 84.3892234,53.834127 84.3787039,53.8059164 L84.347764,53.7195574 C84.3378632,53.6901953 84.3279625,53.661409 84.3180617,53.6320469 C84.308161,53.6026849 84.298879,53.5733228 84.2895971,53.543385 C84.2574196,53.4403299 84.2270986,53.3349719 84.1998715,53.2284625 C84.1726444,53.1213773 84.1478925,53.0137164 84.1262346,52.9037526 C84.1039579,52.7943645 84.0847752,52.6826735 84.0680677,52.5709826 C84.051979,52.4592916 84.0383654,52.3452977 84.0278459,52.2313038 C84.0259895,52.2151834 84.0247519,52.1990631 84.0235143,52.182367 C84.0222767,52.1662467 84.0210391,52.1501263 84.0191827,52.1334302 C84.0179451,52.1167342 84.0167075,52.1006138 84.0160887,52.0839177 C84.0148511,52.0677974 84.0136135,52.0516771 84.0123759,52.0344052 C84.0105196,52.0021646 84.0086632,51.9687724 84.0074256,51.935956 C84.0055692,51.9031396 84.0043316,51.8697474 84.003094,51.836931 C84.0024752,51.8035388 84.0012376,51.7701467 84.0012376,51.7367545 C84.0006188,51.7033624 84,51.670546 84,51.6371538 L84,30.3628998 C84,29.8286254 84.0668301,29.3058655 84.1887331,28.8170736 C84.3100174,28.3259787 84.4869934,27.8665487 84.7079039,27.4623886 C84.9300521,27.054774 85.1961349,26.7018536 85.4956327,26.4283834 C85.7976057,26.1514588 86.1336126,25.955136 86.4900397,25.8647469 L105.253826,21.1224859 C105.311993,21.107517 105.369541,21.0942753 105.427089,21.082185 C105.484637,21.0700947 105.542804,21.0597316 105.600352,21.0499443 C105.657282,21.0407327 105.714211,21.0326725 105.771759,21.0263395 C105.828688,21.0194308 105.885618,21.0136735 105.941309,21.0096434 C105.979675,21.0067648 106.016803,21.0044619 106.054549,21.0033104 C106.092296,21.0015832 106.129424,21.0004318 106.16717,21.0004318 C106.204298,21 106.241426,21 106.278554,21.0004318 C106.315682,21.0015832 106.352191,21.0027347 106.389319,21.0038862 C106.426446,21.0061891 106.462955,21.008492 106.499465,21.0113706 C106.535974,21.0142492 106.572483,21.0177036 106.608992,21.0217337 C106.644882,21.0263395 106.681391,21.0303696 106.716662,21.0361269 C106.753171,21.0407327 106.789062,21.0470657 106.824333,21.0528229 C106.884975,21.0637617 106.94438,21.075852 107.003165,21.0896694 C107.061951,21.1034869 107.120737,21.1190315 107.178285,21.1357276 C107.236452,21.1529994 107.294,21.1714226 107.351548,21.1909973 C107.408478,21.2111478 107.464169,21.2324497 107.52048,21.254903 C107.547707,21.2664175 107.574315,21.2779321 107.601542,21.2894466 C107.628151,21.3009611 107.655378,21.3130514 107.681986,21.3251417 C107.708594,21.3378077 107.735202,21.3504736 107.761192,21.3631396 C107.7878,21.3758056 107.81379,21.3896231 107.839779,21.4034405 C107.871957,21.4207123 107.902896,21.4379841 107.934455,21.4558316 C107.965395,21.4736792 107.996954,21.4921024 108.027275,21.5111014 C108.058215,21.5301004 108.088536,21.5496751 108.118857,21.5698255 C108.149178,21.589976 108.179499,21.6101264 108.208582,21.6308526 C108.246329,21.657336 108.283457,21.6843951 108.319347,21.7126058 C108.356475,21.7408164 108.391746,21.7696027 108.427636,21.7989648 C108.462908,21.8289026 108.497561,21.8588403 108.532832,21.8899296 C108.567485,21.9210188 108.6009,21.9526838 108.634933,21.9855002 C108.652879,22.002772 108.671443,22.0200438 108.689388,22.0378914 C108.706714,22.0557389 108.724659,22.0735864 108.742604,22.0920097 C108.759931,22.1104329 108.777257,22.1288562 108.795202,22.1472794 C108.811909,22.1662784 108.829236,22.1847017 108.846562,22.2037007 C108.878121,22.2405472 108.905348,22.2739393 108.930719,22.3044528 C108.956089,22.3349663 108.979603,22.363177 109.000024,22.3896604 C109.021063,22.4161438 109.039627,22.4409001 109.058191,22.4650806 C109.076136,22.4886854 109.092843,22.5122902 109.11017,22.535895 L109.153485,22.5974977 C109.167718,22.6176482 109.18195,22.6383743 109.195564,22.6596762 C109.210415,22.6804024 109.224028,22.7017043 109.237642,22.7230062 C109.251255,22.744308 109.264869,22.7661857 109.278483,22.7874876 C109.332937,22.8767252 109.384297,22.9688415 109.433182,23.0638364 C109.482067,23.1588313 109.528477,23.2567048 109.571792,23.3568813 C109.614489,23.4570577 109.654711,23.5601128 109.691839,23.6660465 C109.728967,23.7714045 109.762382,23.8796412 109.793322,23.989605" id="Fill-67备份" stroke-opacity="0.2" stroke="#A8A0FB" stroke-width="0.2" fill-opacity="0.1" fill="#CACAF1" stroke-linecap="square"></path>
            <path d="M95.7138301,16.3349272 C95.7266821,16.3800066 95.7369636,16.425086 95.7489588,16.4710002 C95.7600971,16.5160796 95.7703787,16.5619938 95.781517,16.607908 C95.7926554,16.6538222 95.8029369,16.7005712 95.8123617,16.7473202 C95.8217864,16.7940693 95.832068,16.8408183 95.8397791,16.8875673 C95.8663398,17.0219707 95.8894733,17.1580437 95.9091796,17.2957863 C95.9288859,17.4343637 95.9460218,17.573776 95.9588738,17.7156926 C95.9725825,17.8576092 95.9820073,18.0011955 95.9888617,18.1464513 C95.995716,18.2917072 96,18.4394675 96,18.5880625 L96,63.4111804 C96,63.481304 95.9991432,63.5514275 95.9974296,63.621551 C95.995716,63.6908397 95.9931456,63.7601284 95.9905752,63.8285823 C95.9871481,63.897871 95.9837209,63.9663249 95.9794369,64.033944 C95.9751529,64.1023979 95.9700121,64.170017 95.9640146,64.2376362 L95.953733,64.3378126 L95.9443083,64.4388239 C95.9400243,64.4713812 95.9365971,64.5047734 95.9323131,64.5373307 C95.9280291,64.5707228 95.9237452,64.6032802 95.9194612,64.6366723 C95.8534879,65.1283718 95.748102,65.5950271 95.6075874,66.0349686 C95.4670729,66.4724058 95.2914297,66.8814596 95.0849418,67.2579561 C94.878454,67.6344526 94.6419782,67.9767222 94.3789419,68.2830951 C94.1176191,68.5869637 93.8297356,68.8566053 93.5195754,69.0845067 C93.4578861,69.1304209 93.3961968,69.1738307 93.3327939,69.2164057 C93.2685342,69.2589807 93.2042745,69.2998861 93.1400148,69.3391219 C93.0748983,69.3775229 93.0097818,69.4142542 92.9429517,69.4501508 C92.8761216,69.4860473 92.8092915,69.5202743 92.7407478,69.5528316 C92.6507842,69.5954066 92.559107,69.6354772 92.4665731,69.6730434 C92.3740391,69.7097748 92.2797915,69.7440017 92.1846872,69.7748894 C92.0904396,69.8057772 91.9936216,69.8333257 91.8968037,69.8583698 C91.7999857,69.8825791 91.7014542,69.9034492 91.6029226,69.9226497 C91.5540853,69.9318326 91.5043911,69.9393458 91.4538401,69.946859 C91.4050027,69.9552071 91.3544518,69.9618855 91.3047576,69.9677291 C91.2542066,69.9727379 91.2036557,69.9785816 91.1531047,69.9827556 C91.1025537,69.9869296 91.0520028,69.9902688 91.000595,69.993608 C90.9491872,69.9961124 90.8986363,69.997782 90.8472285,69.9986169 C90.7958207,70 90.744413,70 90.6930052,70 C90.6407407,69.9986169 90.5893329,69.9969472 90.5370683,69.9952776 C90.4848038,69.9927732 90.433396,69.989434 90.3802747,69.98526 C90.303163,69.9794164 90.2243378,69.9710683 90.1455125,69.9618855 C90.0658305,69.9518678 89.9870053,69.9401806 89.90818,69.9268237 C89.828498,69.9134669 89.7479592,69.8984404 89.6682771,69.8800747 C89.5885951,69.8633786 89.5089131,69.8433434 89.4283742,69.8224733 L63.4477473,62.9445251 C63.2001333,62.8794104 62.9593736,62.77506 62.7288954,62.6364826 C62.4992741,62.4995747 62.2799343,62.32844 62.0708761,62.1289219 C61.8635314,61.9294038 61.6673251,61.7015023 61.4839708,61.4493916 C61.30233,61.1989505 61.1335412,60.9243001 60.9801747,60.6287795 C60.9416189,60.5553168 60.9047766,60.4801845 60.8679344,60.4050521 C60.831949,60.329085 60.7968203,60.2514482 60.7625485,60.1738115 C60.7282766,60.0953399 60.6940048,60.0168684 60.6623034,59.9358924 C60.6297451,59.8557513 60.5989004,59.7747753 60.5680558,59.6921297 C60.5534903,59.6512243 60.5389247,59.6094841 60.5243592,59.5685788 L60.4815194,59.4433582 C60.4678106,59.4007832 60.4541019,59.359043 60.4403932,59.316468 C60.4266844,59.273893 60.4138325,59.231318 60.4009806,59.1879082 C60.3564272,59.0384784 60.3144442,58.8857093 60.2767451,58.7312706 C60.2390461,58.5759971 60.2047743,58.4198888 60.1747864,58.2604413 C60.1439417,58.1018286 60.1173811,57.9398766 60.0942476,57.7779247 C60.0719709,57.6159728 60.0531214,57.4506816 60.0385558,57.2853905 C60.0359854,57.262016 60.0342718,57.2386415 60.0325583,57.2144322 C60.0308447,57.1910577 60.0291311,57.1676832 60.0265607,57.1434739 C60.0248471,57.1192645 60.0231335,57.09589 60.0222767,57.0716807 C60.0205631,57.0483062 60.0188495,57.0249317 60.0171359,56.9998876 C60.0145655,56.9531386 60.0119951,56.90472 60.0102816,56.8571362 C60.0077112,56.8095524 60.0059976,56.7611337 60.004284,56.7135499 C60.0034272,56.6651313 60.0017136,56.6167127 60.0017136,56.5682941 C60.0008568,56.5198755 60,56.4722916 60,56.423873 L60,25.5762047 C60,24.8015069 60.092534,24.043505 60.2613228,23.3347567 C60.4292548,22.6226691 60.6742985,21.9564957 60.9801747,21.3704634 C61.2877645,20.7794224 61.6561868,20.2676877 62.0708761,19.8711559 C62.4889926,19.4696153 62.9542328,19.1849472 63.4477473,19.053883 L89.4283742,12.1776045 C89.5089131,12.1558996 89.5885951,12.1366991 89.6682771,12.1191682 C89.7479592,12.1016374 89.828498,12.0866109 89.90818,12.0724192 C89.9870053,12.0590624 90.0658305,12.0473751 90.1455125,12.0381923 C90.2243378,12.0281746 90.303163,12.0198266 90.3802747,12.013983 C90.433396,12.0098089 90.4848038,12.0064697 90.5370683,12.0048001 C90.5893329,12.0022957 90.6407407,12.0006261 90.6930052,12.0006261 C90.744413,12 90.7958207,12 90.8472285,12.0006261 C90.8986363,12.0022957 90.9491872,12.0039653 91.000595,12.0056349 C91.0520028,12.0089741 91.1025537,12.0123134 91.1531047,12.0164874 C91.2036557,12.0206614 91.2542066,12.0256702 91.3047576,12.0315138 C91.3544518,12.0381923 91.4050027,12.0440359 91.4538401,12.0523839 C91.5043911,12.0590624 91.5540853,12.0682452 91.6029226,12.0765932 C91.6868886,12.0924545 91.7691411,12.1099854 91.8505367,12.1300207 C91.9319323,12.150056 92.0133279,12.1725957 92.09301,12.196805 C92.1735488,12.2218491 92.2532308,12.2485628 92.3329129,12.2769461 C92.4117381,12.3061643 92.4888498,12.337052 92.5668182,12.3696094 C92.6045172,12.3863054 92.6413594,12.4030015 92.6790585,12.4196976 C92.7159007,12.4363937 92.7535997,12.4539245 92.790442,12.4714554 C92.8272842,12.4898211 92.8641264,12.5081868 92.9001119,12.5265525 C92.9369541,12.5449181 92.9729395,12.5649534 93.008925,12.5849887 C93.0534784,12.6100328 93.0963182,12.635077 93.1400148,12.6609559 C93.1828546,12.6868348 93.2265512,12.7135485 93.2685342,12.741097 C93.311374,12.7686456 93.353357,12.7970289 93.39534,12.826247 C93.437323,12.8554651 93.479306,12.8846833 93.5195754,12.9147362 C93.57184,12.9531372 93.6232477,12.992373 93.6729419,13.0332783 C93.7243497,13.0741837 93.773187,13.1159239 93.8228812,13.1584989 C93.8717186,13.2019087 93.9196992,13.2453185 93.9685365,13.2903979 C94.0165171,13.3354773 94.0627841,13.3813915 94.1099079,13.4289753 C94.134755,13.4540194 94.1604589,13.4790635 94.1853059,13.5049425 C94.2092962,13.5308214 94.2341433,13.5567003 94.2589904,13.583414 C94.2829807,13.6101277 94.306971,13.6368415 94.3318181,13.6635552 C94.3549516,13.6911037 94.3789419,13.7178174 94.4029321,13.7453659 C94.4466287,13.7987934 94.4843278,13.847212 94.5194564,13.8914566 C94.554585,13.9357012 94.5871433,13.9766066 94.6154176,14.0150076 C94.6445486,14.0534085 94.6702525,14.0893051 94.6959564,14.1243669 C94.7208035,14.1585938 94.743937,14.1928208 94.7679273,14.2270477 L94.827903,14.3163717 C94.8476093,14.3455898 94.8673156,14.3756428 94.8861651,14.4065305 C94.9067282,14.4365835 94.9255777,14.4674712 94.9444273,14.4983589 C94.9632768,14.5292467 94.9821263,14.5609692 95.0009758,14.591857 C95.0763738,14.7212515 95.1474879,14.8548201 95.2151748,14.9925628 C95.2828617,15.1303054 95.3471214,15.272222 95.4070971,15.4174779 C95.4662161,15.5627337 95.5219078,15.7121636 95.5733156,15.8657675 C95.6247233,16.0185366 95.6709903,16.1754797 95.7138301,16.3349272" id="Fill-67备份-4" stroke-opacity="0.2" stroke="#A8A0FB" stroke-width="0.2" fill-opacity="0.15" fill="#CACAF1" stroke-linecap="square"></path>
            <g id="编组" transform="translate(29.000000, 0.000000)">
                <path d="M52.215179,70.914029 C52.215179,71.0096738 52.2140126,71.1041522 52.2116798,71.1986306 C52.209347,71.2942754 52.2070142,71.3875874 52.2023486,71.4808994 C52.1988494,71.5742114 52.1930174,71.6675234 52.1871854,71.759669 C52.1825198,71.8518146 52.174355,71.9439602 52.1661902,72.0349394 C52.162691,72.080429 52.1580254,72.1259186 52.1533598,72.1714082 C52.1486942,72.2180642 52.1440286,72.2623874 52.139363,72.307877 L52.1322188,72.3753824 L52.1322188,72.3753824 L52.1241998,72.442013 C52.1183678,72.4875026 52.1125358,72.5318258 52.1067038,72.576149 C52.0180574,73.2433298 51.8757566,73.8790178 51.6867998,74.4762146 C51.4966766,75.0710786 51.2598974,75.6274514 50.9811278,76.1406674 C50.7035246,76.6515506 50.3850974,77.119277 50.0293454,77.5368482 C49.6759262,77.953253 49.287515,78.3195026 48.8699438,78.6332642 C48.785963,78.6950834 48.7008158,78.7557362 48.6156686,78.8140562 C48.5305214,78.8723762 48.4442078,78.927197 48.3555614,78.9808514 C48.2680814,79.0345058 48.179435,79.0858274 48.0896222,79.1348162 C48.0009758,79.183805 47.9099966,79.230461 47.817851,79.2759506 C47.7641966,79.3027778 47.7093758,79.3272722 47.654555,79.352933 C47.5997342,79.376261 47.5449134,79.4007554 47.4889262,79.4240834 L47.3232974,79.4905682 L47.3232974,79.4905682 C47.2673102,79.5115634 47.211323,79.5325586 47.1541694,79.5535538 L44.0013902,80.6581346 L44.0725406,80.630141 C44.1296942,80.6091458 44.1856814,80.5869842 44.2416686,80.5636562 C44.2976558,80.5403282 44.353643,80.5158338 44.4084638,80.490173 C44.4621182,80.4656786 44.5181054,80.4400178 44.5717598,80.4131906 C44.6650718,80.3688674 44.756051,80.321045 44.8470302,80.2708898 C44.9380094,80.2207346 45.0266558,80.1682466 45.1153022,80.1145922 C45.2027822,80.0597714 45.2902622,80.0026178 45.3777422,79.9442978 C45.4640558,79.8848114 45.5480366,79.8229922 45.6320174,79.7588402 C46.0542542,79.440413 46.4461646,79.0648322 46.8019166,78.6390962 C47.1600014,78.2110274 47.4819278,77.7328034 47.7630302,77.2079234 C48.0441326,76.681877 48.2832446,76.1091746 48.4745342,75.497981 C48.6658238,74.8844546 48.809291,74.2312706 48.8991038,73.544261 C48.9049358,73.497605 48.9107678,73.4521154 48.9165998,73.4054594 C48.9224318,73.3599698 48.9270974,73.3133138 48.931763,73.2678242 L48.9597566,72.9878882 C48.9679214,72.8934098 48.9749198,72.7989314 48.9795854,72.7032866 C48.9865838,72.6076418 48.9912494,72.511997 48.995915,72.4151858 C48.9994142,72.319541 49.0029134,72.2227298 49.0052462,72.1259186 C49.007579,72.027941 49.0087454,71.9299634 49.0087454,71.8319858 L49.0086288,9.20458728 C49.0087454,8.99685144 49.0029134,8.79156504 48.9935822,8.58861144 C48.984251,8.38449144 48.9714206,8.18503704 48.9527582,7.98674904 C48.9340958,7.78846104 48.9119342,7.59250584 48.8839406,7.40004984 C48.8582798,7.20642744 48.826787,7.01630424 48.7906286,6.82851384 L48.7533038,6.63255864 L48.7113134,6.43893624 C48.6961502,6.37361784 48.6821534,6.31063224 48.6669902,6.24648024 L48.6191678,6.05635704 C48.5608478,5.83357464 48.4966958,5.61429144 48.4278782,5.40084024 C48.3578942,5.18738904 48.2820782,4.97860344 48.2015966,4.77448344 C48.1199486,4.57152984 48.0324686,4.37324184 47.940323,4.18078584 C47.8481774,3.98832984 47.7513662,3.80287224 47.648723,3.62091384 C47.6230622,3.57775704 47.5974014,3.53343384 47.5705742,3.49027704 L47.532812,3.42568764 L47.532812,3.42568764 L47.4131102,3.23600184 L47.3302958,3.11119704 C47.298803,3.06337464 47.2673102,3.01555224 47.2323182,2.96772984 C47.1984926,2.91874104 47.1635006,2.86858584 47.123843,2.81493144 C47.0841854,2.76127704 47.0410286,2.70412344 46.9932062,2.64230424 C46.9453838,2.58048504 46.8928958,2.51283384 46.8345758,2.43935064 C46.8019166,2.40085944 46.7692574,2.36236824 46.7377646,2.32387704 L46.6386206,2.21190264 C46.604795,2.17574424 46.5709694,2.13841944 46.5383102,2.10342744 C46.5033182,2.06610264 46.4694926,2.03111064 46.435667,1.99611864 C46.371515,1.92963384 46.307363,1.86548184 46.243211,1.80249624 C46.1767262,1.73951064 46.1114078,1.67885784 46.044923,1.61820504 C45.9772718,1.55871864 45.910787,1.50039864 45.840803,1.44324504 C45.7719854,1.38609144 45.7031678,1.33243704 45.6320174,1.27878264 C45.5771966,1.23562584 45.520043,1.19480184 45.4628894,1.15397784 L45.3770132,1.09419984 L45.2902622,1.03617144 C45.2331086,0.99651384 45.1736222,0.96035544 45.1153022,0.92303064 C45.0558158,0.88687224 44.9963294,0.85188024 44.936843,0.81688824 C44.8878542,0.78889464 44.8388654,0.76206744 44.7887102,0.73524024 L44.639411,0.65825784 L44.487779,0.58594104 C44.4364574,0.56261304 44.3863022,0.53928504 44.3349806,0.51712344 L44.2794308,0.49277484 L44.2230062,0.46930104 C44.1856814,0.45413784 44.149523,0.43897464 44.1121982,0.42381144 L44.0551904,0.40223304 L44.0197502,0.38783064 L45.5110034,0.91020024 C46.0527962,1.10032344 46.5942974,1.29044664 47.135507,1.48056984 C47.1739982,1.49456664 47.211323,1.50739704 47.2486478,1.52139384 C47.2859726,1.53539064 47.3244638,1.54938744 47.3606222,1.56455064 C47.397947,1.57854744 47.4341054,1.59371064 47.4725966,1.60887384 L47.5810718,1.65552984 L47.5810718,1.65552984 C47.6323934,1.67769144 47.6825486,1.70101944 47.7338702,1.72434744 L47.8843358,1.79666424 C47.9333246,1.82115864 47.9834798,1.84565304 48.0324686,1.87131384 C48.0814574,1.89814104 48.1304462,1.92496824 48.179435,1.95179544 C48.2389214,1.98562104 48.2984078,2.02061304 48.3555614,2.05677144 L48.5305214,2.16641304 L48.7008158,2.28305304 C48.7579694,2.32271064 48.8139566,2.36353464 48.8699438,2.40435864 C48.9387614,2.45684664 49.0087454,2.51166744 49.0763966,2.56648824 C49.1440478,2.62247544 49.211699,2.67962904 49.2770174,2.73794904 C49.3446686,2.79626904 49.409987,2.85692184 49.474139,2.91874104 C49.5394574,2.98056024 49.6036094,3.04354584 49.6654286,3.10769784 L49.7669054,3.21150744 C49.800731,3.24766584 49.8333902,3.28265784 49.8660494,3.31881624 L49.964027,3.42845784 C49.9978526,3.46578264 50.0293454,3.50310744 50.0608382,3.54043224 C50.1191582,3.61391544 50.1716462,3.67923384 50.2194686,3.73988664 C50.2661246,3.80053944 50.3092814,3.85536024 50.3477726,3.90784824 C50.3874302,3.96033624 50.4224222,4.00815864 50.4562478,4.05714744 C50.4900734,4.10380344 50.5215662,4.15045944 50.553059,4.19711544 L50.5941746,4.25733084 L50.5941746,4.25733084 L50.6335406,4.31842104 C50.6615342,4.35924504 50.687195,4.40006904 50.7140222,4.44205944 C50.739683,4.48288344 50.7665102,4.52487384 50.7910046,4.56686424 C50.8178318,4.60885464 50.8423262,4.65084504 50.867987,4.69400184 C50.9694638,4.87012824 51.066275,5.05325304 51.1572542,5.23987704 C51.2493998,5.42650104 51.334547,5.62012344 51.4150286,5.81724504 C51.4966766,6.01553304 51.5701598,6.21848664 51.6401438,6.42727224 C51.7089614,6.63489144 51.771947,6.84834264 51.830267,7.06529304 L51.876923,7.24958424 L51.9212462,7.43620824 C51.935243,7.49919384 51.9480734,7.56101304 51.9620702,7.62516504 C51.976067,7.68815064 51.9888974,7.75113624 52.0005614,7.81528824 C52.0355534,7.99724664 52.0658798,8.18270424 52.092707,8.37049464 C52.1195342,8.55711864 52.1416958,8.74724184 52.1603582,8.93969784 C52.1778542,9.13215384 52.191851,9.32694264 52.2011822,9.52406424 C52.2105134,9.72118584 52.215179,9.92064024 52.215179,10.1235938 L52.215179,70.914029 Z" id="形状结合" fill="#AC9AD4"></path>
                <path d="M48.6190512,6.0568236 C48.6365472,6.1198092 48.650544,6.1827948 48.6668736,6.2469468 C48.6820368,6.3099324 48.6960336,6.3740844 48.7111968,6.4382364 C48.72636,6.5023884 48.7403568,6.5677068 48.7531872,6.6330252 C48.7660176,6.6983436 48.7800144,6.763662 48.790512,6.8289804 C48.8266704,7.0167708 48.8581632,7.206894 48.8849904,7.39935 C48.9118176,7.5929724 48.9351456,7.7877612 48.9526416,7.9860492 C48.971304,8.1843372 48.9841344,8.384958 48.9934656,8.5879116 C49.0027968,8.7908652 49.0086288,8.997318 49.0086288,9.2049372 L49.0086288,71.8324524 C49.0086288,71.93043 49.0074624,72.0284076 49.0051296,72.1263852 C49.0027968,72.2231964 48.9992976,72.3200076 48.9957984,72.4156524 C48.9911328,72.5124636 48.9864672,72.6081084 48.9806352,72.7025868 C48.9748032,72.7982316 48.9678048,72.89271 48.95964,72.9871884 L48.9456432,73.1271564 L48.9328128,73.2682908 C48.9269808,73.3137804 48.9223152,73.3604364 48.9164832,73.405926 C48.9106512,73.452582 48.9048192,73.4980716 48.8989872,73.5447276 C48.8091744,74.2317372 48.6657072,74.8837548 48.4744176,75.4984476 C48.283128,76.1096412 48.044016,76.6811772 47.7629136,77.2072236 C47.4818112,77.73327 47.1598848,78.211494 46.8018,78.6395628 C46.446048,79.0641324 46.0541376,79.4408796 45.6319008,79.7593068 C45.54792,79.8234588 45.4639392,79.8841116 45.3776256,79.943598 C45.2901456,80.0030844 45.2026656,80.060238 45.1151856,80.1150588 C45.0265392,80.1687132 44.9378928,80.2200348 44.8469136,80.27019 C44.7559344,80.3203452 44.6649552,80.3681676 44.5716432,80.4136572 C44.4491712,80.4731436 44.3243664,80.5291308 44.1983952,80.5816188 C44.072424,80.6329404 43.94412,80.6807628 43.8146496,80.7239196 C43.6863456,80.7670764 43.5545424,80.8055676 43.4227392,80.8405596 C43.290936,80.8743852 43.1568,80.9035452 43.022664,80.9303724 C42.9561792,80.9432028 42.888528,80.9537004 42.8197104,80.964198 C42.7532256,80.975862 42.684408,80.9851932 42.6167568,80.993358 C42.5479392,81.0003564 42.4791216,81.0085212 42.410304,81.0143532 C42.3414864,81.0201852 42.2726688,81.0248508 42.2026848,81.0295164 C42.1327008,81.0330156 42.0638832,81.0353484 41.9938992,81.0365148 C41.9239152,81.0384474 41.8539312,81.0384474 41.7839472,81.0384474 C41.7127968,81.0365148 41.6428128,81.034182 41.5716624,81.0318492 C41.500512,81.02835 41.430528,81.0236844 41.3582112,81.0178524 C41.2532352,81.0096876 41.1459264,80.9980236 41.0386176,80.9851932 C40.9301424,80.9711964 40.8228336,80.9548668 40.7155248,80.9362044 C40.6070496,80.917542 40.497408,80.8965468 40.3889328,80.870886 C40.2804576,80.847558 40.1719824,80.8195644 40.0623408,80.7904044 L4.6935936,71.1804348 C4.356504,71.0894556 4.0287456,70.9436556 3.714984,70.7500332 C3.4023888,70.5587436 3.1037904,70.3196316 2.8191888,70.040862 C2.53692,69.7620924 2.2698144,69.4436652 2.0202048,69.0914124 C1.772928,68.7414924 1.5431472,68.3577468 1.3343616,67.9448412 C1.2818736,67.842198 1.2317184,67.737222 1.1815632,67.632246 C1.1325744,67.5261036 1.084752,67.4176284 1.038096,67.3091532 C0.99144,67.1995116 0.944784,67.08987 0.9016272,66.9767292 C0.857304,66.8647548 0.8153136,66.751614 0.7733232,66.6361404 C0.7534944,66.5789868 0.7336656,66.5206668 0.7138368,66.4635132 L0.6555168,66.2885532 C0.6368544,66.2290668 0.618192,66.1707468 0.5995296,66.1112604 C0.5808672,66.051774 0.5633712,65.9922876 0.5458752,65.9316348 C0.4852224,65.7228492 0.4280688,65.509398 0.3767472,65.293614 C0.3254256,65.0766636 0.2787696,64.8585468 0.2379456,64.6357644 C0.1959552,64.4141484 0.1597968,64.1878668 0.128304,63.9615852 C0.0979776,63.7353036 0.0723168,63.5043564 0.052488,63.2734092 C0.0489888,63.24075 0.046656,63.2080908 0.0443232,63.1742652 C0.0419904,63.141606 0.0396576,63.1089468 0.0361584,63.0751212 C0.0338256,63.0412956 0.0314928,63.0086364 0.0303264,62.9748108 C0.0279936,62.9421516 0.0256608,62.9094924 0.023328,62.8745004 C0.0198288,62.809182 0.0163296,62.7415308 0.0139968,62.675046 C0.0104976,62.6085612 0.0081648,62.54091 0.005832,62.4744252 C0.0046656,62.406774 0.0023328,62.3391228 0.0023328,62.2714716 C0.0011664,62.2038204 1.33525191e-13,62.1373356 1.33525191e-13,62.0696844 L1.33525191e-13,18.9688716 C1.33525191e-13,17.8864524 0.1259712,16.8273612 0.355752,15.8370876 C0.5843664,14.8421484 0.9179568,13.9113612 1.3343616,13.0925484 C1.7530992,12.2667372 2.2546512,11.551734 2.8191888,10.997694 C3.388392,10.4366556 4.0217472,10.0389132 4.6935936,9.8557884 L40.0623408,0.2481516 C40.1719824,0.2178252 40.2804576,0.190998 40.3889328,0.1665036 C40.497408,0.1420092 40.6070496,0.121014 40.7155248,0.1011852 C40.8228336,0.0825228 40.9301424,0.0661932 41.0386176,0.0533628 C41.1459264,0.039366 41.2532352,0.027702 41.3582112,0.0195372 C41.430528,0.0137052 41.500512,0.0090396 41.5716624,0.0067068 C41.6428128,0.0032076 41.7127968,0.0008748 41.7839472,0.0008748 C41.8539312,5.52518031e-14 41.9239152,5.52518031e-14 41.9938992,0.0008748 C42.0638832,0.0032076 42.1327008,0.0055404 42.2026848,0.0078732 C42.2726688,0.0125388 42.3414864,0.0172044 42.410304,0.0230364 C42.4791216,0.0288684 42.5479392,0.0358668 42.6167568,0.0440316 C42.684408,0.0533628 42.7532256,0.0615276 42.8197104,0.0731916 C42.888528,0.0825228 42.9561792,0.0953532 43.022664,0.1070172 C43.1369712,0.1291788 43.2489456,0.1536732 43.3597536,0.1816668 C43.4705616,0.2096604 43.5813696,0.2411532 43.6898448,0.2749788 C43.7994864,0.3099708 43.9079616,0.3472956 44.0164368,0.3869532 C44.1237456,0.4277772 44.2287216,0.470934 44.334864,0.5164236 C44.3861856,0.5397516 44.4363408,0.5630796 44.4876624,0.5864076 C44.5378176,0.6097356 44.5891392,0.63423 44.6392944,0.6587244 C44.6894496,0.6843852 44.7396048,0.710046 44.7885936,0.7357068 C44.8387488,0.7613676 44.8877376,0.7893612 44.9367264,0.8173548 C44.9973792,0.8523468 45.0556992,0.8873388 45.1151856,0.9234972 C45.1735056,0.9596556 45.232992,0.9969804 45.2901456,1.0354716 C45.3484656,1.0739628 45.4056192,1.1136204 45.4627728,1.1544444 C45.5199264,1.1952684 45.57708,1.2360924 45.6319008,1.2780828 C45.7030512,1.3317372 45.7730352,1.386558 45.8406864,1.4437116 C45.9106704,1.5008652 45.9771552,1.5591852 46.0448064,1.6186716 C46.1112912,1.6793244 46.1766096,1.7399772 46.2430944,1.8029628 C46.3084128,1.8659484 46.3713984,1.9301004 46.4355504,1.9965852 C46.469376,2.0315772 46.504368,2.0665692 46.5381936,2.1027276 C46.5708528,2.138886 46.6046784,2.1750444 46.638504,2.2123692 C46.6711632,2.249694 46.7038224,2.2870188 46.737648,2.3243436 C46.7691408,2.3628348 46.8018,2.4001596 46.8344592,2.4386508 C46.8939456,2.5133004 46.9452672,2.5809516 46.9930896,2.6427708 C47.040912,2.70459 47.0852352,2.7617436 47.1237264,2.815398 C47.163384,2.8690524 47.198376,2.9192076 47.233368,2.9681964 C47.2671936,3.0160188 47.2986864,3.0638412 47.3313456,3.1116636 L47.4129936,3.2364684 C47.4398208,3.2772924 47.466648,3.3192828 47.4923088,3.3624396 C47.5203024,3.40443 47.5459632,3.4475868 47.571624,3.4907436 C47.5972848,3.5339004 47.6229456,3.5782236 47.6486064,3.6213804 C47.7512496,3.8021724 47.8480608,3.9887964 47.9402064,4.1812524 C48.032352,4.3737084 48.119832,4.5719964 48.20148,4.77495 C48.2819616,4.9779036 48.3577776,5.1866892 48.4277616,5.4013068 C48.4977456,5.614758 48.5607312,5.8340412 48.6190512,6.0568236" id="Fill-67" fill="url(#linearGradient-1)"></path>
                <g id="编组-14" transform="translate(7.000000, 16.000000)">
                    <path d="M31.8211,30.743875 L35.5116,33.622275 C35.6556,33.734275 35.7836,33.866275 35.8976,34.013275 C36.0116,34.160275 36.1096,34.323275 36.1896,34.497275 C36.2696,34.671275 36.3316,34.855275 36.3736,35.046275 C36.4016,35.1736083 36.4211556,35.3040528 36.4310815,35.4358306 L36.4383,35.633975 L36.4386,40.970275 C36.4386,41.169275 36.4156,41.362275 36.3736,41.544275 C36.3316,41.727275 36.2696,41.897275 36.1896,42.054275 C36.1096,42.210275 36.0116,42.350275 35.8976,42.471275 C35.7836,42.591275 35.6556,42.691275 35.5116,42.769275 L31.8216,44.799275 C31.7936,44.812275 31.7666,44.826275 31.7386,44.839275 L31.697475,44.857025 L31.6556,44.873275 C31.6266,44.884275 31.5986,44.893275 31.5706,44.901275 C31.5416,44.910275 31.5136,44.917275 31.4846,44.924275 L29.7761,45.306525 L28.1186,45.676275 L28.1546,45.665275 C28.1836,45.656275 28.2116,45.647275 28.2396,45.637275 C28.2686,45.626275 28.2966,45.614275 28.3236,45.602275 C28.3526,45.589275 28.3796,45.575275 28.4066,45.561275 L28.4076,45.560275 L32.1287,43.479775 L34.8866,42.898275 L32.1286,43.479275 C32.2736,43.401275 32.4046,43.298275 32.5186,43.174275 C32.6336,43.050275 32.7326,42.904275 32.8136,42.743275 C32.8946,42.582275 32.9566,42.405275 32.9986,42.217275 C33.0416,42.028275 33.0646,41.828275 33.0646,41.622275 L33.0643,36.094975 C33.0646,35.889275 33.0416,35.684275 32.9986,35.485275 C32.9566,35.287275 32.8946,35.096275 32.8136,34.915275 C32.7326,34.735275 32.6336,34.566275 32.5186,34.414275 C32.4046,34.261275 32.2736,34.124275 32.1286,34.008275 L32.1291,34.007875 L28.4071,31.017875 L31.8211,30.743875 Z M11.4949,33.628675 L10.3639,34.476775 L10.3639,37.453775 L10.3626,37.453675 L10.3589704,37.6120157 C10.3528222,37.7168306 10.3406,37.819275 10.3226,37.917275 C10.2946,38.065275 10.2546,38.205275 10.2016,38.332275 C10.1506,38.460275 10.0866,38.575275 10.0126,38.675275 C9.96326667,38.7419417 9.90948889,38.8014972 9.85126667,38.8530528 L9.7604,38.923975 L7.3426,40.658275 C7.3096,40.678275 7.2776,40.695275 7.2456,40.711275 C7.2146,40.727275 7.1856,40.739275 7.1556,40.751275 C7.1266,40.762275 7.0986,40.771275 7.0706,40.779275 C7.0426,40.786275 7.0156,40.792275 6.9886,40.796275 L3.5536,41.297275 C3.5796,41.293275 3.6076,41.287275 3.6346,41.279275 C3.6616,41.271275 3.6906,41.263275 3.7196,41.251275 C3.7486,41.240275 3.7786,41.227275 3.8096,41.211275 C3.8406,41.195275 3.8716,41.177275 3.9056,41.157275 L6.3116,39.385275 C6.4046,39.318275 6.4886,39.232275 6.5626,39.130275 C6.6356,39.027275 6.6986,38.909275 6.7506,38.778275 C6.8036,38.646275 6.8436,38.504275 6.8706,38.352275 C6.8986,38.199275 6.9116,38.039275 6.9116,37.874275 L6.9119,34.811775 L8.0399,33.942675 L11.4949,33.628675 Z M29.6183,36.554675 L29.6183,38.489675 L30.9573,39.630675 L27.5373,40.209675 L26.1893,39.022675 L26.1893,37.022675 L29.6183,36.554675 Z M18.6596,38.747275 L18.6296,38.767275 L18.6151,38.775525 L18.6151,38.775525 L18.5706,38.803275 C18.5606,38.809275 18.5496,38.814275 18.5396,38.820275 L15.0736,39.316275 C15.0836,39.311275 15.0936,39.305275 15.1046,39.299275 C15.1136,39.293275 15.1236,39.286275 15.1336,39.280275 C15.1446,39.274275 15.1546,39.268275 15.1636,39.261275 C15.1736,39.255275 15.1836,39.248275 15.1936,39.241275 L18.6596,38.747275 Z M24.4587,34.906075 L18.6597,38.747075 L15.1927,39.241075 L21.0047,35.301075 L24.4587,34.906075 Z M30.9569,35.722275 L29.6179,36.555275 L26.1889,37.022275 L27.5369,36.166275 L30.9569,35.722275 Z M5.8868,35.577975 L6.7718,36.480975 L3.3388,36.860975 L2.4578,35.929975 L5.8868,35.578775 L5.8868,35.577975 Z M6.7727,33.303975 L5.8868,34.002775 L5.8868,35.577975 L2.4578,35.929775 L2.4578,34.311775 L2.4588,34.310975 L3.3387,33.595975 L6.7727,33.303975 Z M14.1522,18.476775 L17.6192,18.606775 L12.9192,22.564775 L12.9188,30.130975 L17.6188,34.388975 L14.1518,34.743975 L9.4588,30.346975 L9.4588,22.556875 L14.1522,18.476775 Z M22.7948,21.360575 L26.2418,21.406575 L26.2488,21.611575 L26.2486,31.009475 L27.7386,32.220475 L24.2976,32.536475 L22.8016,31.280575 L22.8016,21.571575 L22.7948,21.360575 Z M6.7536,28.984275 C6.7606,28.984275 6.7676,28.984275 6.7746,28.985275 C6.8006,28.986275 6.8256,28.989275 6.8526,28.994275 C6.8776,28.998275 6.9046,29.004275 6.9296,29.011275 C6.9546,29.018275 6.9816,29.026275 7.0066,29.035275 C7.0316,29.045275 7.0576,29.056275 7.0826,29.068275 C7.0916,29.072275 7.1006,29.077275 7.1096,29.082275 L7.1356,29.097275 L7.148975,29.1044 L7.1616,29.112275 C7.1706,29.117275 7.1796,29.123275 7.1886,29.129275 L7.1996,29.136775 L7.2326,29.158275 L7.2431,29.166775 L7.2757,29.191375 L9.0047,30.820375 L5.5587,31.048375 L3.8387,29.369375 C3.8316,29.363275 3.8236,29.357275 3.8176,29.353275 C3.8106,29.347275 3.8026,29.341275 3.7956,29.336275 C3.7886,29.330275 3.7806,29.325275 3.7746,29.320275 C3.7666,29.314275 3.7596,29.310275 3.7516,29.305275 C3.7426,29.299275 3.7346,29.293275 3.7256,29.288275 C3.7176,29.282275 3.7086,29.276275 3.6996,29.271275 L3.6736,29.257275 C3.6636,29.252275 3.6556,29.247275 3.6466,29.242275 C3.6216,29.230275 3.5966,29.219275 3.5716,29.209275 C3.5456,29.199275 3.5206,29.190275 3.4946,29.184275 C3.4686,29.176275 3.4436,29.170275 3.4176,29.166275 C3.3926,29.161275 3.3656,29.158275 3.3406,29.156275 L3.330225,29.15615 L3.2806,29.155275 L6.6936,28.984275 L6.7536,28.984275 Z M15.7411,14.452375 L19.2071,14.705375 L25.0596,18.953275 L25.0626,18.954275 C25.2336,19.078275 25.3886,19.228275 25.5276,19.400275 C25.6666,19.573275 25.7876,19.767275 25.8896,19.978275 C25.9906,20.188275 26.0726,20.417275 26.1326,20.656275 C26.1926,20.896275 26.2296,21.148275 26.2416,21.406275 L22.7946,21.360275 C22.7816,21.093275 22.7436,20.833275 22.6846,20.585275 C22.6246,20.337275 22.5426,20.103275 22.4406,19.884275 C22.3386,19.666275 22.2166,19.466275 22.0766,19.288275 C21.9378791,19.1116304 21.7812304,18.9568976 21.61063,18.8290464 L21.6091,18.828375 L15.7411,14.452375 Z M14.5686,0.026275 L17.9876,0.699275 C17.9996,0.701275 18.0136,0.704275 18.0276,0.708275 C18.0396,0.711275 18.0536,0.715275 18.0676,0.719275 C18.0796,0.723275 18.0936,0.727275 18.1066,0.730275 C18.1196,0.735275 18.1326,0.740275 18.1466,0.745275 L18.209225,0.7724 L18.2306,0.782275 C18.2436,0.789275 18.2576,0.796275 18.2716,0.804275 C18.2856,0.811275 18.2996,0.819275 18.3126,0.828275 L21.2676,2.633275 C21.3796,2.703275 21.4826,2.795275 21.5726,2.903275 C21.6626,3.013275 21.7406,3.139275 21.8056,3.278275 C21.8696,3.418275 21.9196,3.570275 21.9536,3.733275 C21.9769333,3.841275 21.9922667,3.95416389 21.9998963,4.07016389 L22.0058,4.246575 L22.0058,9.001575 L22.0046,9.001275 L21.9998963,9.18023796 C21.9922667,9.29883056 21.9769333,9.41594167 21.9536,9.531275 C21.9196,9.703275 21.8696,9.870275 21.8056,10.026275 C21.7406,10.183275 21.6626,10.328275 21.5726,10.461275 C21.5126,10.5499417 21.4468222,10.6319417 21.3764519,10.7063861 L21.2675,10.812875 L19.2065,12.619875 L19.2071,12.619975 L19.2071,14.704975 L15.7411,14.451975 L15.7411,12.302975 L17.8045,10.431875 C17.9166,10.327275 18.0196,10.205275 18.1106,10.067275 C18.1996,9.931275 18.2796,9.779275 18.3436,9.618275 C18.4076,9.457275 18.4576,9.285275 18.4916,9.107275 C18.5149333,8.98860833 18.5307111,8.867275 18.538637,8.74475648 L18.5448,8.559575 L18.5446,3.652275 C18.5446,3.469275 18.5266,3.292275 18.4916,3.124275 C18.4576,2.956275 18.4076,2.799275 18.3436,2.655275 C18.2796,2.512275 18.1996,2.382275 18.1106,2.270275 C18.0196,2.158275 17.9166,2.064275 17.8046,1.992275 L14.8465,0.147675 L14.8056,0.123275 L14.7636,0.101275 L14.7216,0.081275 L14.6796,0.063275 L14.620225,0.0424 L14.5806,0.030775 L14.5686,0.026275 Z M13.075,5.994375 L16.541,6.491375 L16.541,8.227375 L17.619,8.967475 L14.152,8.541475 L13.075,7.783475 L13.075,5.994375 Z M14.1522,4.928975 L17.6192,5.461975 L16.5412,6.490975 L13.0752,5.993975 L14.1522,4.928975 Z" id="形状结合" fill="url(#linearGradient-2)" opacity="0.8"></path>
                    <path d="M13.075,5.994375 L13.075,7.783375 L14.152,8.541375 L15.251,7.489375 L15.251,5.665375 L14.152,4.929375 L13.075,5.994375 L13.075,5.994375 Z M28.914,39.378375 L28.914,37.334375 L27.537,36.166375 L26.189,37.022375 L26.189,39.022375 L27.537,40.209375 L28.914,39.378375 L28.914,39.378375 Z M4.235,36.161375 L4.235,34.515375 L3.339,33.596375 L2.458,34.311375 L2.458,35.930375 L3.339,36.860375 L4.235,36.161375 L4.235,36.161375 Z M19.266,31.033375 L19.266,22.533375 L14.152,18.476375 L9.459,22.556375 L9.459,30.347375 L14.152,34.744375 L19.266,31.033375 L19.266,31.033375 Z M32.129,34.008375 C32.273,34.124375 32.404,34.261375 32.518,34.414375 C32.634,34.566375 32.732,34.735375 32.813,34.915375 C32.894,35.096375 32.957,35.287375 32.999,35.485375 C33.042,35.683375 33.064,35.889375 33.064,36.095375 L33.064,41.622375 C33.064,41.828375 33.042,42.028375 32.999,42.217375 C32.957,42.405375 32.894,42.582375 32.813,42.743375 C32.732,42.904375 32.634,43.050375 32.518,43.174375 C32.404,43.298375 32.273,43.401375 32.129,43.479375 L28.407,45.560375 C28.347,45.593375 28.287,45.620375 28.224,45.641375 C28.163,45.664375 28.099,45.682375 28.036,45.694375 C27.972,45.707375 27.908,45.715375 27.844,45.718375 C27.779,45.721375 27.714,45.719725 27.648,45.712375 C27.565,45.694375 27.495,45.679375 27.436,45.664375 C27.377,45.649375 27.328,45.636375 27.287,45.622375 C27.246,45.609375 27.211,45.597375 27.18,45.583375 C27.149,45.570375 27.122,45.557375 27.096,45.543375 C27.077,45.534375 27.059,45.524375 27.042,45.514375 C27.023,45.504375 27.006,45.493375 26.988,45.482375 C26.971,45.472375 26.953,45.461375 26.935,45.449375 L26.883,45.414375 C26.865,45.401375 26.847,45.389375 26.831,45.376375 C26.813,45.363375 26.797,45.349375 26.779,45.336375 C26.763,45.322375 26.745,45.308375 26.728,45.294375 L26.679,45.250375 L23.258,42.072375 C23.133,41.959375 23.019,41.826375 22.921,41.679375 C22.822,41.531375 22.738,41.371375 22.669,41.200375 C22.6,41.030375 22.548,40.849375 22.512,40.665375 C22.475,40.480375 22.457,40.291375 22.457,40.101375 L22.457,36.587375 L21.005,35.301375 L15.193,39.241375 C15.183,39.248375 15.174,39.255375 15.164,39.261375 C15.154,39.267375 15.144,39.274375 15.134,39.280375 C15.124,39.286375 15.114,39.293375 15.104,39.299375 C15.094,39.305375 15.084,39.310375 15.074,39.316375 C14.632,39.267375 14.3,39.230375 14.05,39.200375 C13.801,39.171375 13.633,39.148375 13.517,39.131375 C13.403,39.114375 13.341,39.101375 13.305,39.092375 C13.27,39.082375 13.261,39.074375 13.252,39.066375 L13.124,38.941375 L8.04,33.942375 L6.912,34.811375 L6.912,37.874375 C6.912,38.039375 6.898,38.199375 6.871,38.351375 C6.844,38.504375 6.804,38.646375 6.751,38.778375 C6.699,38.909375 6.636,39.027375 6.562,39.130375 C6.488,39.232375 6.404,39.318375 6.311,39.385375 L3.905,41.157375 C3.849,41.191375 3.797,41.219375 3.747,41.240375 C3.696,41.262375 3.649,41.277375 3.603,41.287375 C3.557,41.298375 3.512,41.303375 3.47,41.303375 C3.426,41.304375 3.383,41.300375 3.341,41.292375 C3.328,41.290375 3.316,41.287375 3.304,41.284375 C3.292,41.281375 3.279,41.278375 3.267,41.274375 C3.256,41.271375 3.243,41.267375 3.231,41.264375 C3.219,41.260375 3.207,41.255375 3.195,41.251375 C3.159,41.236375 3.123,41.220375 3.087,41.200375 C3.051,41.181375 3.015,41.159375 2.981,41.135375 C2.946,41.109375 2.912,41.082375 2.878,41.052375 C2.844,41.022375 2.81,40.989375 2.778,40.954375 L0.53,38.468375 C0.448,38.378375 0.375,38.273375 0.309,38.156375 C0.245,38.039375 0.188,37.909375 0.142,37.772375 C0.096,37.636375 0.061,37.490375 0.037,37.341375 C0.012,37.191375 -7.46069873e-14,37.037375 -7.46069873e-14,36.883375 L-7.46069873e-14,32.748375 C-7.46069873e-14,32.594375 0.012,32.444375 0.037,32.301375 C0.061,32.158375 0.096,32.022375 0.142,31.896375 C0.188,31.771375 0.245,31.656375 0.309,31.555375 C0.375,31.453375 0.448,31.365375 0.53,31.293375 L2.778,29.356375 C2.789,29.348375 2.8,29.339375 2.811,29.330375 C2.822,29.321375 2.833,29.313375 2.844,29.306375 C2.855,29.298375 2.866,29.290375 2.878,29.283375 C2.888,29.275375 2.9,29.268375 2.912,29.263375 C2.923,29.256375 2.934,29.249375 2.946,29.243375 C2.958,29.237375 2.97,29.231375 2.981,29.226375 C2.992,29.221375 3.004,29.216375 3.015,29.211375 C3.027,29.206375 3.039,29.201375 3.052,29.197375 L3.087,29.185375 C3.098,29.182375 3.11,29.179375 3.123,29.176375 C3.135,29.173375 3.146,29.171375 3.159,29.168375 C3.171,29.166375 3.182,29.164375 3.195,29.162375 C3.207,29.160375 3.219,29.159375 3.231,29.158375 C3.243,29.157375 3.256,29.156375 3.267,29.155375 L3.304,29.155375 C3.316,29.155375 3.328,29.156375 3.341,29.156375 C3.366,29.158375 3.392,29.161375 3.418,29.166375 C3.443,29.170375 3.469,29.176375 3.495,29.183375 C3.52,29.190375 3.546,29.199375 3.571,29.209375 C3.596,29.219375 3.622,29.230375 3.646,29.242375 C3.655,29.247375 3.664,29.252375 3.674,29.257375 L3.7,29.271375 C3.709,29.276375 3.718,29.282375 3.725,29.288375 C3.734,29.293375 3.743,29.299375 3.752,29.305375 C3.76,29.309375 3.766,29.314375 3.774,29.320375 C3.781,29.325375 3.789,29.330375 3.796,29.336375 C3.803,29.341375 3.81,29.347375 3.817,29.352375 C3.824,29.357375 3.832,29.363375 3.839,29.369375 L5.558,31.048375 L6.652,30.150375 L6.652,21.737375 C6.652,21.504375 6.671,21.274375 6.707,21.053375 C6.743,20.831375 6.797,20.618375 6.866,20.417375 C6.935,20.217375 7.02,20.028375 7.12,19.857375 C7.22,19.685375 7.333,19.532375 7.459,19.399375 L7.563,19.295375 L12.601,14.682375 L12.601,12.593375 L10.723,11.187375 C10.63,11.118375 10.545,11.031375 10.47,10.932375 C10.394,10.833375 10.329,10.721375 10.274,10.598375 C10.219,10.475375 10.175,10.342375 10.141,10.201375 C10.108,10.059375 10.088,9.911375 10.079,9.757375 L10.079,9.594375 L10.079,5.043375 C10.079,4.872375 10.094,4.702375 10.123,4.536375 C10.152,4.371375 10.194,4.209375 10.25,4.056375 C10.305,3.901375 10.373,3.756375 10.453,3.623375 C10.532,3.489375 10.623,3.368375 10.723,3.264375 L13.467,0.425375 C13.5,0.392375 13.528,0.365375 13.553,0.343375 C13.578,0.320375 13.599,0.301375 13.618,0.285375 C13.637,0.269375 13.653,0.256375 13.668,0.244375 C13.683,0.232375 13.697,0.223375 13.712,0.213375 C13.747,0.187375 13.782,0.165375 13.818,0.145375 C13.854,0.125375 13.891,0.106375 13.928,0.091375 C13.965,0.074375 14.001,0.060375 14.038,0.048375 C14.075,0.036375 14.112,0.026375 14.15,0.019375 C14.165,0.015375 14.179,0.014375 14.194,0.011375 C14.21,0.009375 14.224,0.007375 14.239,0.005375 C14.255,0.004375 14.269,0.002375 14.284,0.001375 C14.299,-3.19744231e-14 14.314,-3.19744231e-14 14.329,-3.19744231e-14 C14.358,-0.000625 14.388,-3.19744231e-14 14.418,0.003375 C14.447,0.005375 14.476,0.009375 14.506,0.014375 C14.535,0.019375 14.564,0.026375 14.594,0.034375 C14.622,0.042375 14.651,0.052375 14.679,0.063375 C14.694,0.068375 14.708,0.075375 14.721,0.081375 C14.736,0.087375 14.75,0.094375 14.763,0.100375 C14.778,0.108375 14.792,0.115375 14.805,0.123375 C14.819,0.131375 14.833,0.139375 14.846,0.147375 L17.804,1.992375 C17.917,2.064375 18.019,2.158375 18.11,2.269375 C18.2,2.382375 18.279,2.512375 18.344,2.655375 C18.408,2.799375 18.458,2.956375 18.492,3.124375 C18.526,3.292375 18.545,3.469375 18.545,3.652375 L18.545,8.559375 C18.545,8.745375 18.526,8.929375 18.492,9.107375 C18.458,9.285375 18.408,9.457375 18.344,9.618375 C18.279,9.779375 18.2,9.931375 18.11,10.067375 C18.019,10.205375 17.917,10.327375 17.804,10.431375 L15.741,12.303375 L15.741,14.452375 L21.609,18.828375 C21.781,18.956375 21.937,19.111375 22.077,19.288375 C22.217,19.466375 22.339,19.666375 22.44,19.884375 C22.543,20.102375 22.625,20.337375 22.684,20.585375 C22.744,20.833375 22.782,21.093375 22.795,21.360375 L22.802,21.571375 L22.802,31.280375 L24.298,32.536375 L26.679,30.905375 L28.407,31.017375 L32.129,34.008375 Z" id="Fill-295" fill="url(#linearGradient-3)"></path>
                </g>
            </g>
            <path d="M44.7138301,16.3349272 C44.7266821,16.3800066 44.7369636,16.425086 44.7489588,16.4710002 C44.7600971,16.5160796 44.7703787,16.5619938 44.781517,16.607908 C44.7926554,16.6538222 44.8029369,16.7005712 44.8123617,16.7473202 C44.8217864,16.7940693 44.832068,16.8408183 44.8397791,16.8875673 C44.8663398,17.0219707 44.8894733,17.1580437 44.9091796,17.2957863 C44.9288859,17.4343637 44.9460218,17.573776 44.9588738,17.7156926 C44.9725825,17.8576092 44.9820073,18.0011955 44.9888617,18.1464513 C44.995716,18.2917072 45,18.4394675 45,18.5880625 L45,63.4111804 C45,63.481304 44.9991432,63.5514275 44.9974296,63.621551 C44.995716,63.6908397 44.9931456,63.7601284 44.9905752,63.8285823 C44.9871481,63.897871 44.9837209,63.9663249 44.9794369,64.033944 C44.9751529,64.1023979 44.9700121,64.170017 44.9640146,64.2376362 L44.953733,64.3378126 L44.9443083,64.4388239 C44.9400243,64.4713812 44.9365971,64.5047734 44.9323131,64.5373307 C44.9280291,64.5707228 44.9237452,64.6032802 44.9194612,64.6366723 C44.8534879,65.1283718 44.748102,65.5950271 44.6075874,66.0349686 C44.4670729,66.4724058 44.2914297,66.8814596 44.0849418,67.2579561 C43.878454,67.6344526 43.6419782,67.9767222 43.3789419,68.2830951 C43.1176191,68.5869637 42.8297356,68.8566053 42.5195754,69.0845067 C42.4578861,69.1304209 42.3961968,69.1738307 42.3327939,69.2164057 C42.2685342,69.2589807 42.2042745,69.2998861 42.1400148,69.3391219 C42.0748983,69.3775229 42.0097818,69.4142542 41.9429517,69.4501508 C41.8761216,69.4860473 41.8092915,69.5202743 41.7407478,69.5528316 C41.6507842,69.5954066 41.559107,69.6354772 41.4665731,69.6730434 C41.3740391,69.7097748 41.2797915,69.7440017 41.1846872,69.7748894 C41.0904396,69.8057772 40.9936216,69.8333257 40.8968037,69.8583698 C40.7999857,69.8825791 40.7014542,69.9034492 40.6029226,69.9226497 C40.5540853,69.9318326 40.5043911,69.9393458 40.4538401,69.946859 C40.4050027,69.9552071 40.3544518,69.9618855 40.3047576,69.9677291 C40.2542066,69.9727379 40.2036557,69.9785816 40.1531047,69.9827556 C40.1025537,69.9869296 40.0520028,69.9902688 40.000595,69.993608 C39.9491872,69.9961124 39.8986363,69.997782 39.8472285,69.9986169 C39.7958207,70 39.744413,70 39.6930052,70 C39.6407407,69.9986169 39.5893329,69.9969472 39.5370683,69.9952776 C39.4848038,69.9927732 39.433396,69.989434 39.3802747,69.98526 C39.303163,69.9794164 39.2243378,69.9710683 39.1455125,69.9618855 C39.0658305,69.9518678 38.9870053,69.9401806 38.90818,69.9268237 C38.828498,69.9134669 38.7479592,69.8984404 38.6682771,69.8800747 C38.5885951,69.8633786 38.5089131,69.8433434 38.4283742,69.8224733 L12.4477473,62.9445251 C12.2001333,62.8794104 11.9593736,62.77506 11.7288954,62.6364826 C11.4992741,62.4995747 11.2799343,62.32844 11.0708761,62.1289219 C10.8635314,61.9294038 10.6673251,61.7015023 10.4839708,61.4493916 C10.30233,61.1989505 10.1335412,60.9243001 9.98017469,60.6287795 C9.94161887,60.5553168 9.90477664,60.4801845 9.86793441,60.4050521 C9.83194897,60.329085 9.79682033,60.2514482 9.76254849,60.1738115 C9.72827665,60.0953399 9.69400481,60.0168684 9.66230335,59.9358924 C9.6297451,59.8557513 9.59890045,59.7747753 9.56805579,59.6921297 C9.55349025,59.6512243 9.53892472,59.6094841 9.52435919,59.5685788 L9.48151939,59.4433582 C9.46781065,59.4007832 9.45410191,59.359043 9.44039317,59.316468 C9.42668444,59.273893 9.4138325,59.231318 9.40098056,59.1879082 C9.35642716,59.0384784 9.31444415,58.8857093 9.27674513,58.7312706 C9.2390461,58.5759971 9.20477426,58.4198888 9.1747864,58.2604413 C9.14394174,58.1018286 9.11738106,57.9398766 9.09424757,57.7779247 C9.07197087,57.6159728 9.05312136,57.4506816 9.03855582,57.2853905 C9.03598543,57.262016 9.03427184,57.2386415 9.03255825,57.2144322 C9.03084466,57.1910577 9.02913107,57.1676832 9.02656068,57.1434739 C9.02484709,57.1192645 9.02313349,57.09589 9.0222767,57.0716807 C9.02056311,57.0483062 9.01884951,57.0249317 9.01713592,56.9998876 C9.01456553,56.9531386 9.01199514,56.90472 9.01028155,56.8571362 C9.00771116,56.8095524 9.00599757,56.7611337 9.00428398,56.7135499 C9.00342718,56.6651313 9.00171359,56.6167127 9.00171359,56.5682941 C9.0008568,56.5198755 9,56.4722916 9,56.423873 L9,25.5762047 C9,24.8015069 9.09253397,24.043505 9.2613228,23.3347567 C9.42925483,22.6226691 9.6742985,21.9564957 9.98017469,21.3704634 C10.2877645,20.7794224 10.6561868,20.2676877 11.0708761,19.8711559 C11.4889926,19.4696153 11.9542328,19.1849472 12.4477473,19.053883 L38.4283742,12.1776045 C38.5089131,12.1558996 38.5885951,12.1366991 38.6682771,12.1191682 C38.7479592,12.1016374 38.828498,12.0866109 38.90818,12.0724192 C38.9870053,12.0590624 39.0658305,12.0473751 39.1455125,12.0381923 C39.2243378,12.0281746 39.303163,12.0198266 39.3802747,12.013983 C39.433396,12.0098089 39.4848038,12.0064697 39.5370683,12.0048001 C39.5893329,12.0022957 39.6407407,12.0006261 39.6930052,12.0006261 C39.744413,12 39.7958207,12 39.8472285,12.0006261 C39.8986363,12.0022957 39.9491872,12.0039653 40.000595,12.0056349 C40.0520028,12.0089741 40.1025537,12.0123134 40.1531047,12.0164874 C40.2036557,12.0206614 40.2542066,12.0256702 40.3047576,12.0315138 C40.3544518,12.0381923 40.4050027,12.0440359 40.4538401,12.0523839 C40.5043911,12.0590624 40.5540853,12.0682452 40.6029226,12.0765932 C40.6868886,12.0924545 40.7691411,12.1099854 40.8505367,12.1300207 C40.9319323,12.150056 41.0133279,12.1725957 41.09301,12.196805 C41.1735488,12.2218491 41.2532308,12.2485628 41.3329129,12.2769461 C41.4117381,12.3061643 41.4888498,12.337052 41.5668182,12.3696094 C41.6045172,12.3863054 41.6413594,12.4030015 41.6790585,12.4196976 C41.7159007,12.4363937 41.7535997,12.4539245 41.790442,12.4714554 C41.8272842,12.4898211 41.8641264,12.5081868 41.9001119,12.5265525 C41.9369541,12.5449181 41.9729395,12.5649534 42.008925,12.5849887 C42.0534784,12.6100328 42.0963182,12.635077 42.1400148,12.6609559 C42.1828546,12.6868348 42.2265512,12.7135485 42.2685342,12.741097 C42.311374,12.7686456 42.353357,12.7970289 42.39534,12.826247 C42.437323,12.8554651 42.479306,12.8846833 42.5195754,12.9147362 C42.57184,12.9531372 42.6232477,12.992373 42.6729419,13.0332783 C42.7243497,13.0741837 42.773187,13.1159239 42.8228812,13.1584989 C42.8717186,13.2019087 42.9196992,13.2453185 42.9685365,13.2903979 C43.0165171,13.3354773 43.0627841,13.3813915 43.1099079,13.4289753 C43.134755,13.4540194 43.1604589,13.4790635 43.1853059,13.5049425 C43.2092962,13.5308214 43.2341433,13.5567003 43.2589904,13.583414 C43.2829807,13.6101277 43.306971,13.6368415 43.3318181,13.6635552 C43.3549516,13.6911037 43.3789419,13.7178174 43.4029321,13.7453659 C43.4466287,13.7987934 43.4843278,13.847212 43.5194564,13.8914566 C43.554585,13.9357012 43.5871433,13.9766066 43.6154176,14.0150076 C43.6445486,14.0534085 43.6702525,14.0893051 43.6959564,14.1243669 C43.7208035,14.1585938 43.743937,14.1928208 43.7679273,14.2270477 L43.827903,14.3163717 C43.8476093,14.3455898 43.8673156,14.3756428 43.8861651,14.4065305 C43.9067282,14.4365835 43.9255777,14.4674712 43.9444273,14.4983589 C43.9632768,14.5292467 43.9821263,14.5609692 44.0009758,14.591857 C44.0763738,14.7212515 44.1474879,14.8548201 44.2151748,14.9925628 C44.2828617,15.1303054 44.3471214,15.272222 44.4070971,15.4174779 C44.4662161,15.5627337 44.5219078,15.7121636 44.5733156,15.8657675 C44.6247233,16.0185366 44.6709903,16.1754797 44.7138301,16.3349272" id="Fill-67备份" stroke-opacity="0.2" stroke="#A8A0FB" stroke-width="0.2" fill-opacity="0.2" fill="#CACAF1" stroke-linecap="square"></path>
            <g id="编组备份-8" transform="translate(90.000000, 41.000000)">
                <g id="Clip-88">
                    <use fill="black" fill-opacity="1" filter="url(#filter-5)" xlink:href="#path-4"></use>
                    <use fill="#D8D5F6" fill-rule="evenodd" xlink:href="#path-4"></use>
                </g>
                <path d="M1.2098592,12.1263912 C0.5944752,10.8742392 0.2333232,9.3559752 0.2333232,7.7177232 C0.2333232,5.7218832 0.7714872,3.9018672 1.6529832,2.5309152 C1.7705952,2.3479632 1.8941472,2.1721392 2.0236392,2.0058192 C2.9930472,0.7596072 4.2808392,-0.0019008 5.6909952,-0.0019008 C6.8492952,-0.0019008 7.9232472,0.5101272 8.8083072,1.3809312 C8.9152272,1.4866632 9.0209592,1.5983352 9.1231272,1.7135712 C9.1468872,1.7420832 9.1706472,1.7682192 9.1944072,1.7967312 C10.3930992,3.2128272 11.1569832,5.3417232 11.1569832,7.7177232 C11.1569832,11.9838312 8.7085152,15.4480392 5.6909952,15.4480392 C4.0111632,15.4480392 2.5059672,14.3681472 1.5032952,12.6716832 C1.4842872,12.6384192 1.4652792,12.6039672 1.4462712,12.5707032 C1.3642992,12.4269552 1.2847032,12.2784552 1.2098592,12.1263912" id="Fill-1" fill="url(#linearGradient-6)"></path>
                <path d="M3.83914576,6.06840423 C3.821638,6.08637317 3.80527206,6.10641546 3.79042853,6.12853108 C3.7759656,6.15030115 3.76264449,6.17449011 3.75122639,6.19971575 C3.73980829,6.22494138 3.73029321,6.25154924 3.72230054,6.27953933 C3.71468847,6.30787497 3.70897942,6.33690173 3.70555399,6.36696515 L3.70365097,6.43331203 L3.70555399,6.49620333 L3.70555399,6.87424228 L3.98986467,6.86940449 L4.03972371,6.87182339 L4.08539611,6.86802226 L6.94639132,6.82137212 C6.96009304,6.82137212 6.97303355,6.82448213 6.98521286,6.83035659 C6.99701156,6.83657661 7.00766845,6.84521553 7.01680293,6.85627334 C7.02555681,6.86733115 7.03316888,6.8804623 7.03811672,6.89532124 C7.04306456,6.90983462 7.04610939,6.92573022 7.04610939,6.9426625 L7.04610939,7.55844441 C7.04610939,7.66038361 7.02898224,7.75783058 6.99853397,7.84629308 C6.96808571,7.93441002 6.92393572,8.01388804 6.86989005,8.08023491 C6.81584438,8.14658179 6.75152241,8.19979751 6.68073019,8.23608095 C6.60993798,8.2723644 6.5326755,8.29206113 6.4519876,8.2906789 L3.70555399,8.24575654 L3.70555399,8.62655994 L3.70365097,8.69290681 L3.70365097,8.72297024 L3.70555399,8.75579812 C3.70783761,8.77376706 3.71088244,8.79173601 3.71468847,8.8093594 C3.7184945,8.82698278 3.72268114,8.84426062 3.72762898,8.86119289 C3.73295743,8.87812517 3.73866648,8.89436633 3.74513674,8.91026193 C3.75160699,8.92615754 3.75883846,8.94136203 3.76683112,8.95587541 C3.77177897,8.96520544 3.77710741,8.97384435 3.78243586,8.98248327 C3.78776431,8.99077663 3.79347336,8.99906998 3.79956301,9.00701779 C3.80489146,9.01462003 3.81136171,9.02256784 3.81707076,9.02982452 C3.82354102,9.03742677 3.83039188,9.0443379 3.83686214,9.05159459 C3.84675782,9.06161573 3.85665351,9.07094576 3.8665492,9.07993024 C3.87720609,9.08822359 3.88748238,9.09651695 3.89851988,9.10342809 C3.90955737,9.11068478 3.92097547,9.11690479 3.93239357,9.12277926 C3.94419228,9.12830816 3.95675218,9.13349151 3.96893149,9.13798375 C3.97464054,9.13971153 3.98034959,9.14109376 3.98643924,9.14247599 C3.99176769,9.14351265 3.99785734,9.14489488 4.00356639,9.14593155 C4.00927544,9.14662266 4.0153651,9.14765933 4.02145475,9.14835045 C4.0275444,9.148696 4.03363406,9.14938712 4.03972371,9.14938712 C4.04619397,9.14973267 4.05266422,9.14973267 4.05837327,9.14973267 C4.06446293,9.14938712 4.07055258,9.14904156 4.07664223,9.148696 C4.08273189,9.14800489 4.08844094,9.14731378 4.09491119,9.14627711 C4.10062024,9.14558599 4.1070905,9.14420377 4.11356076,9.14282154 L7.47847477,9.26894971 C7.56296871,9.27205972 7.64403721,9.29590313 7.71787426,9.33667881 C7.79209191,9.37745449 7.8594587,9.43516245 7.91578799,9.505656 C7.97249789,9.57614955 8.01855089,9.65977426 8.05052157,9.75134676 C8.08211164,9.84326483 8.1,9.94347625 8.1,10.0481799 L8.1,10.6812396 C8.1,10.6985175 8.09733578,10.7147586 8.09162673,10.7296176 C8.08591768,10.744131 8.07830561,10.7572621 8.06840992,10.7683199 C8.05889484,10.7786866 8.04785734,10.78698 8.03491683,10.7928544 C8.02273752,10.7983833 8.00941641,10.8008022 7.99571469,10.7997656 L4.03972371,10.5229747 C4.01117846,10.5209014 3.98263321,10.5174458 3.95446856,10.5132991 C3.92592332,10.5091524 3.89737807,10.5036235 3.86959402,10.497058 C3.84180998,10.4908379 3.81402594,10.4828901 3.7866225,10.4745968 C3.75921906,10.4659579 3.73219622,10.4559367 3.70555399,10.4452245 C3.58490273,10.396501 3.47110234,10.3266985 3.36643643,10.2399638 C3.26215111,10.1532291 3.16738089,10.0495621 3.08402876,9.93207288 C3.00105723,9.81492918 2.9287426,9.68430878 2.87051029,9.54297612 C2.81265858,9.40198901 2.76774739,9.25063521 2.73844094,9.09167916 C2.73235128,9.0571235 2.72664223,9.02187672 2.72169439,8.98628439 C2.71674655,8.95069206 2.71294051,8.91475417 2.70951508,8.87881628 C2.70608965,8.84253283 2.70418664,8.80624939 2.70228362,8.76927483 C2.70076121,8.73299138 2.7,8.69636238 2.7,8.65973338 L2.7,6.46026544 C2.7,6.42259977 2.70076121,6.38597077 2.70228362,6.34899621 C2.70418664,6.31271276 2.70608965,6.27642932 2.70951508,6.24014587 C2.71294051,6.20455354 2.71674655,6.16861565 2.72169439,6.13302332 C2.72664223,6.09777654 2.73235128,6.06287532 2.73844094,6.02831966 C2.76774739,5.8686725 2.81265858,5.71662758 2.87051029,5.57529492 C2.9287426,5.43396226 3.00105723,5.30265074 3.08402876,5.18550705 C3.16738089,5.06801779 3.26215111,4.96469636 3.36643643,4.87865276 C3.47110234,4.79191805 3.58490273,4.72246116 3.70555399,4.67477435 C3.73219622,4.66406209 3.75921906,4.65404095 3.7866225,4.64574759 C3.81402594,4.63676312 3.84180998,4.62916088 3.86959402,4.6225953 C3.89737807,4.61637528 3.92592332,4.61084637 3.95446856,4.60704525 C3.98263321,4.60255302 4.01117846,4.59944301 4.03972371,4.59736967 L7.99571469,4.32023325 C8.00941641,4.31919658 8.02273752,4.32161548 8.03491683,4.32748994 C8.04785734,4.33301885 8.05889484,4.3413122 8.06840992,4.35202446 C8.07830561,4.36239116 8.08591768,4.37586787 8.09162673,4.3907268 C8.09733578,4.40524018 8.1,4.42148134 8.1,4.43875917 L8.1,5.06870891 C8.1,5.17306701 8.08211164,5.27362399 8.05052157,5.36588761 C8.01855089,5.45780567 7.97249789,5.54177593 7.91578799,5.61296059 C7.8594587,5.6837997 7.79209191,5.74185322 7.71787426,5.78297445 C7.64403721,5.82375014 7.56296871,5.8479391 7.47847477,5.85104911 L3.98986467,5.98132396 C3.97502114,5.98443397 3.96131942,5.98858065 3.94799831,5.993764 C3.93467719,5.99894735 3.92173668,6.00516737 3.90917677,6.01276961 C3.89661686,6.0200263 3.88443755,6.02866522 3.87301945,6.03799525 C3.86122075,6.04697972 3.84980265,6.05769197 3.83914576,6.06840423" id="Fill-1" fill="url(#linearGradient-7)"></path>
            </g>
            <g id="编组备份-9" transform="translate(13.000000, 16.000000)">
                <g id="Clip-88">
                    <use fill="black" fill-opacity="1" filter="url(#filter-9)" xlink:href="#path-8"></use>
                    <use fill="#D8D5F6" fill-rule="evenodd" xlink:href="#path-8"></use>
                </g>
                <path d="M0.579288744,7.63025606 C0.214238173,6.84249135 0,5.88730796 0,4.85663668 C0,3.60099654 0.319243067,2.45597232 0.842153344,1.59346713 C0.911921697,1.47836678 0.985213703,1.36775087 1.06202936,1.26311419 C1.63708972,0.479086505 2.40101794,0 3.23753344,0 C3.924646,0 4.56172268,0.322131488 5.08674715,0.869979239 C5.15017292,0.93649827 5.21289396,1.00675433 5.27350082,1.0792526 C5.28759543,1.09719031 5.30169005,1.11363322 5.31578467,1.13157093 C6.02685808,2.02247751 6.48,3.36182699 6.48,4.85663668 C6.48,7.54056747 5.02754976,9.72 3.23753344,9.72 C2.24104405,9.72 1.34815008,9.040609 0.753357259,7.97331488 C0.742081566,7.95238754 0.730805873,7.9307128 0.719530179,7.90978547 C0.670903752,7.81934948 0.623686786,7.72592388 0.579288744,7.63025606" id="Fill-1" fill="url(#linearGradient-10)"></path>
                <path d="M1.87433757,4.05490072 C1.86469562,4.0694141 1.85581487,4.08554008 1.84820281,4.10235716 C1.84059074,4.11917425 1.83424735,4.13691283 1.8289189,4.15557289 C1.82384419,4.17446331 1.82003816,4.19381449 1.81775454,4.21385677 L1.81648586,4.25808802 L1.81775454,4.30001556 L1.81775454,4.55204152 L2.007295,4.54881633 L2.04053435,4.55042892 L2.07098262,4.54789484 L3.97831276,4.51679475 C3.98744724,4.51679475 3.99607425,4.51886809 4.00419378,4.52278439 C4.01205959,4.52693107 4.01916418,4.53269035 4.02525384,4.54006223 C4.03108975,4.5474341 4.03616446,4.5561882 4.03946303,4.56609416 C4.04276159,4.57576974 4.04479147,4.58636681 4.04479147,4.597655 L4.04479147,5.00817627 C4.04479147,5.07613574 4.03337337,5.14110039 4.01307453,5.20007538 C3.99277568,5.25882001 3.96334236,5.31180536 3.92731191,5.35603661 C3.89128146,5.40026786 3.84840016,5.435745 3.80120534,5.45993397 C3.75401053,5.48412293 3.70250221,5.49725408 3.64871028,5.4963326 L1.81775454,5.46638436 L1.81775454,5.72025329 L1.81648586,5.76448454 L1.81648586,5.78452683 L1.81775454,5.80641208 C1.81927695,5.81839138 1.82130684,5.83037067 1.82384419,5.8421196 C1.82638155,5.85386852 1.82917264,5.86538708 1.8324712,5.87667526 C1.8360235,5.88796344 1.83982953,5.89879088 1.84414304,5.90938795 C1.84845654,5.91998502 1.85327752,5.93012135 1.85860596,5.93979694 C1.86190453,5.94601696 1.86545682,5.95177623 1.86900912,5.95753551 C1.87256142,5.96306442 1.87636745,5.96859332 1.88042722,5.97389186 C1.88397952,5.97896002 1.88829302,5.98425856 1.89209906,5.98909635 C1.89641256,5.99416451 1.9009798,5.99877194 1.90529331,6.00360973 C1.91189043,6.01029049 1.91848755,6.01651051 1.92508468,6.02250016 C1.93218927,6.02802906 1.93904013,6.03355797 1.94639846,6.03816539 C1.9537568,6.04300318 1.96136886,6.04714986 1.96898093,6.05106617 C1.97684673,6.05475211 1.98522,6.05820768 1.99333954,6.0612025 C1.99714557,6.06235436 2.00095161,6.06327584 2.00501138,6.06419732 C2.00856367,6.06488844 2.01262344,6.06580992 2.01642948,6.06650103 C2.02023551,6.06696178 2.02429528,6.06765289 2.02835505,6.06811363 C2.03241482,6.068344 2.03647459,6.06880475 2.04053435,6.06880475 C2.04484786,6.06903512 2.04916136,6.06903512 2.0529674,6.06903512 C2.05702716,6.06880475 2.06108693,6.06857437 2.0651467,6.068344 C2.06920647,6.06788326 2.0730125,6.06742252 2.07732601,6.06673141 C2.08113204,6.06627066 2.08544555,6.06534918 2.08975905,6.06442769 L4.33303506,6.14851314 C4.38936435,6.15058648 4.44341002,6.16648209 4.49263472,6.19366587 C4.54211315,6.22084966 4.58702435,6.25932163 4.62457721,6.30631733 C4.6623838,6.35331304 4.69308581,6.40906284 4.71439959,6.47011118 C4.73545964,6.53138988 4.74738521,6.5981975 4.74738521,6.66799994 L4.74738521,7.09003976 C4.74738521,7.10155832 4.74560906,7.11238576 4.74180303,7.12229172 C4.737997,7.1319673 4.73292229,7.1407214 4.72632516,7.14809328 C4.71998177,7.15500441 4.71262344,7.16053332 4.70399643,7.16444963 C4.6958769,7.16813556 4.68699615,7.16974816 4.67786167,7.16905705 L2.04053435,6.98452981 C2.02150419,6.98314758 2.00247402,6.98084387 1.98369759,6.97807942 C1.96466742,6.97531496 1.94563726,6.97162903 1.92711456,6.96725198 C1.90859187,6.9631053 1.89006917,6.95780676 1.87180021,6.95227786 C1.85353125,6.94651858 1.83551603,6.93983782 1.81775454,6.93269631 C1.73732037,6.90021399 1.66145344,6.85367903 1.59167616,6.79585589 C1.52215262,6.73803275 1.45897247,6.66892142 1.40340438,6.59059525 C1.34809003,6.51249945 1.29988028,6.42541918 1.26105874,6.33119741 C1.22249094,6.23720601 1.19255014,6.13630347 1.1730125,6.03033277 C1.16895274,6.00729567 1.1651467,5.98379782 1.16184814,5.96006959 C1.15854958,5.93634137 1.15601222,5.91238278 1.1537286,5.88842419 C1.15144498,5.86423522 1.1501763,5.84004626 1.14890763,5.81539655 C1.14789268,5.79120759 1.14738521,5.76678825 1.14738521,5.74236892 L1.14738521,4.27605696 C1.14738521,4.25094651 1.14789268,4.22652718 1.14890763,4.20187747 C1.1501763,4.17768851 1.15144498,4.15349955 1.1537286,4.12931058 C1.15601222,4.10558236 1.15854958,4.08162377 1.16184814,4.05789555 C1.1651467,4.03439769 1.16895274,4.01113022 1.1730125,3.98809311 C1.19255014,3.88166167 1.22249094,3.78029839 1.26105874,3.68607661 C1.29988028,3.59185484 1.34809003,3.50431383 1.40340438,3.42621803 C1.45897247,3.34789186 1.52215262,3.27901091 1.59167616,3.22164851 C1.66145344,3.16382537 1.73732037,3.11752078 1.81775454,3.08572957 C1.83551603,3.07858806 1.85353125,3.0719073 1.87180021,3.0663784 C1.89006917,3.06038875 1.90859187,3.05532058 1.92711456,3.05094353 C1.94563726,3.04679685 1.96466742,3.04311092 1.98369759,3.04057683 C2.00247402,3.03758201 2.02150419,3.03550867 2.04053435,3.03412644 L4.67786167,2.84936883 C4.68699615,2.84867772 4.6958769,2.85029032 4.70399643,2.85420663 C4.71262344,2.85789256 4.71998177,2.86342147 4.72632516,2.87056297 C4.73292229,2.87747411 4.737997,2.88645858 4.74180303,2.89636454 C4.74560906,2.90604012 4.74738521,2.91686756 4.74738521,2.92838612 L4.74738521,3.3483526 C4.74738521,3.41792467 4.73545964,3.48496266 4.71439959,3.54647174 C4.69308581,3.60775045 4.6623838,3.66373062 4.62457721,3.71118706 C4.58702435,3.75841314 4.54211315,3.79711548 4.49263472,3.82452964 C4.44341002,3.85171342 4.38936435,3.8678394 4.33303506,3.86991274 L2.007295,3.95676264 C1.99739931,3.95883598 1.98826483,3.96160043 1.97938409,3.965056 C1.97050334,3.96851156 1.96187633,3.97265824 1.95350306,3.97772641 C1.94512979,3.9825642 1.93701025,3.98832348 1.92939818,3.9945435 C1.92153238,4.00053315 1.91392031,4.00767465 1.90681572,4.01481615 C1.89514388,4.02679545 1.88423325,4.04015697 1.87433757,4.05490072 Z" id="Fill-1" fill="url(#linearGradient-11)"></path>
            </g>
            <path d="M25.7933218,23.989605 C25.8026037,24.0206942 25.8100293,24.0517834 25.8186924,24.0834484 C25.8267368,24.1145377 25.8341624,24.1462026 25.8422067,24.1778676 C25.8502511,24.2095326 25.8576767,24.2417733 25.8644834,24.274014 C25.8712902,24.3062547 25.8787158,24.3384954 25.8842849,24.3707361 C25.9034676,24.4634281 25.9201752,24.5572715 25.9344075,24.6522664 C25.9486398,24.7478371 25.9610158,24.8439834 25.9702977,24.941857 C25.9801985,25.0397305 25.9870053,25.1387555 25.9919556,25.238932 C25.996906,25.3391084 26,25.441012 26,25.5434914 L26,56.4559865 C26,56.5043476 25.9993812,56.5527086 25.9981436,56.6010696 C25.996906,56.648855 25.9950496,56.6966403 25.9931932,56.7438499 C25.990718,56.7916352 25.9882429,56.8388448 25.9851489,56.8854786 C25.9820549,56.9326882 25.9783421,56.9793221 25.9740105,57.025956 L25.966585,57.0950432 L25.9597782,57.1647061 C25.9566842,57.1871594 25.954209,57.2101885 25.951115,57.2326419 C25.948021,57.2556709 25.9449271,57.2781243 25.9418331,57.3011533 C25.8941857,57.6402564 25.8180736,57.9620876 25.7165909,58.2654956 C25.6151082,58.5671764 25.4882548,58.8492825 25.3391246,59.1089353 C25.1899945,59.368588 25.0192065,59.604636 24.8292358,59.8159277 C24.6405027,60.0254922 24.4325868,60.2114519 24.2085822,60.3686253 C24.1640288,60.4002903 24.1194755,60.4302281 24.0736845,60.4595902 C24.0272747,60.4889522 23.9808649,60.5171628 23.9344551,60.544222 C23.8874265,60.5707054 23.8403979,60.5960374 23.7921318,60.6207936 C23.7438656,60.6455499 23.6955994,60.6691547 23.6460956,60.691608 C23.5811219,60.7209701 23.5149106,60.748605 23.4480805,60.7745127 C23.3812504,60.7998447 23.3131828,60.8234495 23.2444963,60.8447513 C23.1764286,60.8660532 23.1065045,60.8850522 23.0365804,60.902324 C22.9666564,60.9190201 22.8954947,60.9334133 22.824333,60.946655 C22.7890616,60.952988 22.7531713,60.9581695 22.7166623,60.963351 C22.6813909,60.9691083 22.6448818,60.9737141 22.6089916,60.9777442 C22.5724826,60.9811986 22.5359735,60.9852287 22.4994645,60.9881073 C22.4629555,60.9909859 22.4264464,60.9932888 22.3893186,60.9955917 C22.3521908,60.9973189 22.3156817,60.9984704 22.2785539,60.9990461 C22.2414261,61 22.2042983,61 22.1671704,61 C22.1294238,60.9990461 22.092296,60.9978947 22.0545493,60.9967432 C22.0168027,60.995016 21.9796749,60.9927131 21.9413095,60.9898345 C21.8856177,60.9858044 21.8286884,60.9800471 21.771759,60.9737141 C21.7142109,60.9668054 21.6572816,60.9587452 21.6003522,60.9495336 C21.5428041,60.940322 21.4846372,60.9299589 21.427089,60.9172929 C21.3695409,60.9057784 21.3119928,60.8919609 21.2538258,60.8775678 L2.49003975,56.1341553 C2.31120737,56.0892486 2.13732537,56.0172827 1.97086893,55.9217121 C1.8050313,55.8272929 1.64661923,55.7092689 1.49563272,55.5716703 C1.34588381,55.4340716 1.20417926,55.2768982 1.07175667,55.1030287 C0.940571673,54.9303107 0.818668634,54.7408966 0.707903944,54.5370893 C0.680058072,54.4864254 0.653449794,54.43461 0.626841517,54.3827946 C0.600852036,54.3304034 0.575481353,54.2768608 0.550729467,54.2233183 C0.525977581,54.1692 0.501225694,54.1150816 0.4783302,54.0592361 C0.454815908,54.0039664 0.43253921,53.9481209 0.410262513,53.8911239 C0.399742961,53.8629133 0.38922341,53.834127 0.378703858,53.8059164 L0.347764,53.7195574 C0.337863246,53.6901953 0.327962491,53.661409 0.318061737,53.6320469 C0.308160982,53.6026849 0.298879025,53.5733228 0.289597068,53.543385 C0.257419616,53.4403299 0.227098555,53.3349719 0.199871481,53.2284625 C0.172644406,53.1213773 0.14789252,53.0137164 0.126234619,52.9037526 C0.103957922,52.7943645 0.08477521,52.6826735 0.0680676869,52.5709826 C0.0519789609,52.4592916 0.0383654235,52.3452977 0.0278458719,52.2313038 C0.0259894804,52.2151834 0.0247518861,52.1990631 0.0235142918,52.182367 C0.0222766975,52.1662467 0.0210391032,52.1501263 0.0191827118,52.1334302 C0.0179451175,52.1167342 0.0167075231,52.1006138 0.016088726,52.0839177 C0.0148511317,52.0677974 0.0136135374,52.0516771 0.0123759431,52.0344052 C0.0105195516,52.0021646 0.00866316015,51.9687724 0.00742556584,51.935956 C0.00556917438,51.9031396 0.00433158007,51.8697474 0.00309398577,51.836931 C0.00247518861,51.8035388 0.00123759431,51.7701467 0.00123759431,51.7367545 C0.000618797154,51.7033624 0,51.670546 0,51.6371538 L0,30.3628998 C0,29.8286254 0.0668300926,29.3058655 0.188733132,28.8170736 C0.310017374,28.3259787 0.48699336,27.8665487 0.707903944,27.4623886 C0.930052122,27.054774 1.1961349,26.7018536 1.49563272,26.4283834 C1.79760573,26.1514588 2.13361259,25.955136 2.49003975,25.8647469 L21.2538258,21.1224859 C21.3119928,21.107517 21.3695409,21.0942753 21.427089,21.082185 C21.4846372,21.0700947 21.5428041,21.0597316 21.6003522,21.0499443 C21.6572816,21.0407327 21.7142109,21.0326725 21.771759,21.0263395 C21.8286884,21.0194308 21.8856177,21.0136735 21.9413095,21.0096434 C21.9796749,21.0067648 22.0168027,21.0044619 22.0545493,21.0033104 C22.092296,21.0015832 22.1294238,21.0004318 22.1671704,21.0004318 C22.2042983,21 22.2414261,21 22.2785539,21.0004318 C22.3156817,21.0015832 22.3521908,21.0027347 22.3893186,21.0038862 C22.4264464,21.0061891 22.4629555,21.008492 22.4994645,21.0113706 C22.5359735,21.0142492 22.5724826,21.0177036 22.6089916,21.0217337 C22.6448818,21.0263395 22.6813909,21.0303696 22.7166623,21.0361269 C22.7531713,21.0407327 22.7890616,21.0470657 22.824333,21.0528229 C22.8849751,21.0637617 22.9443797,21.075852 23.0031654,21.0896694 C23.0619511,21.1034869 23.1207368,21.1190315 23.178285,21.1357276 C23.2364519,21.1529994 23.294,21.1714226 23.3515482,21.1909973 C23.4084775,21.2111478 23.4641693,21.2324497 23.5204798,21.254903 C23.5477069,21.2664175 23.5743152,21.2779321 23.6015422,21.2894466 C23.6281505,21.3009611 23.6553776,21.3130514 23.6819859,21.3251417 C23.7085941,21.3378077 23.7352024,21.3504736 23.7611919,21.3631396 C23.7878002,21.3758056 23.8137897,21.3896231 23.8397791,21.4034405 C23.8719566,21.4207123 23.9028964,21.4379841 23.9344551,21.4558316 C23.965395,21.4736792 23.9969536,21.4921024 24.0272747,21.5111014 C24.0582145,21.5301004 24.0885356,21.5496751 24.1188567,21.5698255 C24.1491777,21.589976 24.1794988,21.6101264 24.2085822,21.6308526 C24.2463289,21.657336 24.2834567,21.6843951 24.3193469,21.7126058 C24.3564748,21.7408164 24.3917462,21.7696027 24.4276364,21.7989648 C24.4629079,21.8289026 24.4975605,21.8588403 24.5328319,21.8899296 C24.5674846,21.9210188 24.6008996,21.9526838 24.6349335,21.9855002 C24.6528786,22.002772 24.6714425,22.0200438 24.6893876,22.0378914 C24.7067139,22.0557389 24.7246591,22.0735864 24.7426042,22.0920097 C24.7599305,22.1104329 24.7772568,22.1288562 24.7952019,22.1472794 C24.8119095,22.1662784 24.8292358,22.1847017 24.8465621,22.2037007 C24.8781208,22.2405472 24.9053478,22.2739393 24.9307185,22.3044528 C24.9560892,22.3349663 24.9796035,22.363177 25.0000238,22.3896604 C25.0210629,22.4161438 25.0396268,22.4409001 25.0581907,22.4650806 C25.0761358,22.4886854 25.0928434,22.5122902 25.1101697,22.535895 L25.1534855,22.5974977 C25.1677178,22.6176482 25.1819502,22.6383743 25.1955637,22.6596762 C25.2104148,22.6804024 25.2240284,22.7017043 25.2376419,22.7230062 C25.2512554,22.744308 25.264869,22.7661857 25.2784825,22.7874876 C25.3329367,22.8767252 25.3842968,22.9688415 25.4331818,23.0638364 C25.4820668,23.1588313 25.5284766,23.2567048 25.5717924,23.3568813 C25.6144894,23.4570577 25.6547112,23.5601128 25.691839,23.6660465 C25.7289668,23.7714045 25.7623819,23.8796412 25.7933218,23.989605" id="Fill-67备份" stroke-opacity="0.2" stroke="#A8A0FB" stroke-width="0.2" fill-opacity="0.1" fill="#CACAF1" stroke-linecap="square"></path>
        </g>
    </g>
</svg>