<?xml version="1.0" encoding="UTF-8"?>
<svg width="54px" height="54px" viewBox="0 0 54 54" version="1.1" xmlns="http://www.w3.org/2000/svg" xmlns:xlink="http://www.w3.org/1999/xlink">
    <!-- Generator: Sketch 60 (88103) - https://sketch.com -->
    <title>图形/阿里云</title>
    <desc>Created with Sketch.</desc>
    <defs>
        <linearGradient x1="50%" y1="0%" x2="50%" y2="68.0749974%" id="linearGradient-1">
            <stop stop-color="#E7E4F7" offset="0%"></stop>
            <stop stop-color="#CAC4EC" offset="100%"></stop>
        </linearGradient>
        <linearGradient x1="50%" y1="0%" x2="50%" y2="68.0749974%" id="linearGradient-2">
            <stop stop-color="#E7E4F7" offset="0%"></stop>
            <stop stop-color="#CAC4EC" offset="100%"></stop>
        </linearGradient>
        <linearGradient x1="50%" y1="0%" x2="50%" y2="68.0749974%" id="linearGradient-3">
            <stop stop-color="#E7E4F7" offset="0%"></stop>
            <stop stop-color="#CAC4EC" offset="100%"></stop>
        </linearGradient>
        <linearGradient x1="50%" y1="0%" x2="50%" y2="68.0749974%" id="linearGradient-4">
            <stop stop-color="#E7E4F7" offset="0%"></stop>
            <stop stop-color="#CAC4EC" offset="100%"></stop>
        </linearGradient>
    </defs>
    <g id="图形/阿里云" stroke="none" stroke-width="1" fill="none" fill-rule="evenodd">
        <g id="编组-3" transform="translate(-9.000000, -8.000000)">
            <polygon id="Path-2" fill="#FFFFFF" fill-rule="nonzero" points="34.1477445 14.5061012 9.4554 26.1226389 9.4554 44.7847347 11.3095419 47.7293963 34.1477445 58.5287294 36.2593578 58.5287294 60.4786883 46.6750854 62.1751043 44.0052418 62.1751043 27.7852848 61.491829 26.1226389 36.0004467 14.5061012"></polygon>
            <polygon id="Path-29" fill="#F6F4FE" points="36.0004467 39.7452108 61.491829 27.7852848 61.491829 46.7205936 36.0004467 58.7217293"></polygon>
            <path d="M54.3902472,9.71469119 L44.4410581,35.6215946 C44.336885,35.8928533 44.1208776,36.1060691 43.8482869,36.2067052 L18.5322818,45.552969 C18.009254,45.7460625 17.428723,45.4785979 17.2356295,44.9555701 C17.1529501,44.7316183 17.1523119,44.4856123 17.2338283,44.2612346 L26.0532561,19.9853559 C26.4187899,18.9792074 27.2053062,18.1827424 28.2067809,17.8045911 L53.0912419,8.40835714 C53.6128301,8.21140831 54.1953196,8.47458057 54.3922684,8.99616885 C54.4797381,9.22781874 54.4790188,9.48353706 54.3902472,9.71469119 Z" id="Path" stroke="#E7E6F1" stroke-width="1.1124" fill-rule="nonzero" transform="translate(35.815252, 26.979360) rotate(45.000000) translate(-35.815252, -26.979360) "></path>
            <line x1="35.4880555" y1="39.794725" x2="35.4880555" y2="58.5287294" id="Line-2" stroke="#E7E6F1" stroke-width="1.1124" fill-rule="nonzero"></line>
            <path d="M47.1678678,11.605037 L58.9136066,23.0951359 C60.0321173,24.1893028 60.4178358,25.8311576 59.9035437,27.3089164 L51.6732421,50.9577351 C51.2736233,52.1059935 50.3779007,53.0130747 49.2347689,53.4271306 L27.0453213,61.4644111 C25.5719649,61.9980783 23.9228878,61.6311425 22.8148309,60.5230857 L10.6933234,48.4015782 L10.6933234,48.4015782" id="Path" stroke="#E7E6F1" stroke-width="1.1124" fill-rule="nonzero" transform="translate(35.719735, 36.972018) rotate(45.000000) translate(-35.719735, -36.972018) "></path>
        </g>
        <g id="编组-2" transform="translate(6.000000, 3.000000)">
            <g id="编组" transform="translate(0.000402, -0.000000)">
                <path d="M16.0832737,-1.13686838e-13 L16.0836762,4.38648329 L13.8558697,6.58752391 C9.55021322,7.51093717 7.05877289,8.0825463 6.38154871,8.30235131 C5.42750282,8.61200366 4.82735109,10.063763 4.58109353,12.6576294 L3.45038324,3.70254599 L9.76702973,1.45295207 L16.0832737,-1.13686838e-13 Z" id="路径-2" fill="url(#linearGradient-1)"></path>
                <path d="M38.0983087,-8.34887715e-14 L38.0987112,4.38648329 L35.8709047,6.58752391 C31.5652482,7.51093717 29.0738078,8.0825463 28.3965837,8.30235131 C27.4425378,8.61200366 26.842386,10.063763 26.5961285,12.6576294 L25.4654182,3.70254599 L31.7820647,1.45295207 L38.0983087,-8.34887715e-14 Z" id="路径-2备份" fill="url(#linearGradient-1)" transform="translate(31.782065, 6.328815) scale(-1, 1) translate(-31.782065, -6.328815) "></path>
                <polygon id="Fill-27" fill="url(#linearGradient-2)" points="13.8558697 14.5790502 27.7298517 14.5790502 27.7298517 7.99293504 13.8558697 7.99293504"></polygon>
                <path d="M5.68434189e-14,13.9644294 C5.68434189e-14,15.5546927 5.68434189e-14,16.8267131 5.68434189e-14,17.7804907 C5.68434189e-14,19.211157 1.59659466,22.4691479 5.6818122,22.5713815 C8.40529056,22.6395372 11.8724444,22.6736151 16.0832737,22.6736151 L16.0832737,18.2887418 L6.98207036,17.4036566 L5.68434189e-14,13.9644294 Z" id="路径" fill="url(#linearGradient-3)"></path>
                <path d="M25.4841342,13.6389072 C25.4841342,15.4461853 25.4841342,16.8267131 25.4841342,17.7804907 C25.4841342,19.211157 27.0807288,22.4691479 31.1659464,22.5713815 C33.8894247,22.6395372 37.3565786,22.6736151 41.5674079,22.6736151 L41.5674079,18.2887418 L32.4662045,17.4036566 L25.4841342,13.6389072 Z" id="路径备份" fill="url(#linearGradient-4)" transform="translate(33.525771, 18.156261) scale(-1, 1) translate(-33.525771, -18.156261) "></path>
            </g>
            <polygon id="Fill-27备份" fill="#5441C9" points="13.8562722 10.1945794 27.7302542 10.1945794 27.7302542 7.99293504 13.8562722 7.99293504"></polygon>
            <path d="M16.0836762,9.59232693e-14 L13.8558697,2.20365684 L7.15433796,3.64861174 C5.9227051,3.91828298 5.16199068,4.73735909 5.16199068,5.61077194 L5.16199068,12.6664988 C5.16199068,13.549974 5.9227051,14.3569752 7.15433796,14.6266465 L13.8558697,16.0856887 L16.0836762,18.2893455 L6.90076649,18.2893455 C3.06096991,18.2893455 3.77475828e-14,16.0856887 3.77475828e-14,13.3970261 L3.77475828e-14,4.85408246 C3.77475828e-14,2.16541987 3.06096991,9.59232693e-14 6.90076649,9.59232693e-14 L16.0836762,9.59232693e-14 Z" id="Fill-30" fill="#5441C9"></path>
            <path d="M34.6489317,9.59232693e-14 C38.4525038,9.59232693e-14 41.5678104,2.16541987 41.5678104,4.85408246 L41.5678104,13.3970261 C41.5678104,16.0856887 38.4887282,18.2893455 34.6489317,18.2893455 L25.4660219,18.2893455 L27.6938284,16.0856887 L34.3953602,14.6266465 C35.6269931,14.3569752 36.4058197,13.549974 36.4058197,12.6664988 L36.4058197,5.61077194 C36.4058197,4.73735909 35.6269931,3.91828298 34.3953602,3.64861174 L27.6938284,2.20365684 L25.4660219,9.59232693e-14 L34.6489317,9.59232693e-14 Z" id="Fill-50" fill="#5441C9"></path>
        </g>
    </g>
</svg>