<?xml version="1.0" encoding="UTF-8"?>
<svg width="54px" height="54px" viewBox="0 0 54 54" version="1.1" xmlns="http://www.w3.org/2000/svg" xmlns:xlink="http://www.w3.org/1999/xlink">
    <!-- Generator: Sketch 64 (93537) - https://sketch.com -->
    <title>图形/tg</title>
    <desc>Created with Sketch.</desc>
    <defs>
        <linearGradient x1="50%" y1="-33.7012872%" x2="49.3698991%" y2="100%" id="linearGradient-1">
            <stop stop-color="#E2E0F1" offset="0%"></stop>
            <stop stop-color="#E8E6F2" offset="100%"></stop>
        </linearGradient>
        <linearGradient x1="50%" y1="-33.7012872%" x2="49.3174476%" y2="100%" id="linearGradient-2">
            <stop stop-color="#E2E0F1" offset="0%"></stop>
            <stop stop-color="#E8E6F2" offset="100%"></stop>
        </linearGradient>
        <linearGradient x1="50%" y1="0%" x2="50%" y2="68.0749974%" id="linearGradient-3">
            <stop stop-color="#EFEEF8" offset="0%"></stop>
            <stop stop-color="#E8E6F2" offset="100%"></stop>
        </linearGradient>
        <linearGradient x1="50%" y1="-33.7012872%" x2="49.0295216%" y2="100%" id="linearGradient-4">
            <stop stop-color="#E2E0F1" offset="0%"></stop>
            <stop stop-color="#E8E6F2" offset="100%"></stop>
        </linearGradient>
        <linearGradient x1="50%" y1="0%" x2="50%" y2="68.0749974%" id="linearGradient-5">
            <stop stop-color="#EFEEF8" offset="0%"></stop>
            <stop stop-color="#E8E6F2" offset="100%"></stop>
        </linearGradient>
        <linearGradient x1="50%" y1="-33.7012872%" x2="49.2720301%" y2="100%" id="linearGradient-6">
            <stop stop-color="#E2E0F1" offset="0%"></stop>
            <stop stop-color="#E8E6F2" offset="100%"></stop>
        </linearGradient>
        <path d="M2.26,1.09384615 L2.26,9.79692308 C1.87230769,10.1492308 1.33230769,10.3938462 0.681538462,10.52 L0.681538462,1.81846154" id="path-7"></path>
        <linearGradient x1="50%" y1="-33.7012872%" x2="49.8771493%" y2="100%" id="linearGradient-9">
            <stop stop-color="#E2E0F1" offset="0%"></stop>
            <stop stop-color="#E8E6F2" offset="100%"></stop>
        </linearGradient>
        <path d="M2.26,1.09384615 L2.26,9.79692308 C1.87230769,10.1492308 1.33230769,10.3938462 0.681538462,10.52 L0.681538462,1.81846154 C1.33230769,1.69076923 1.87230769,1.44615385 2.26,1.09384615 Z" id="path-10"></path>
        <linearGradient x1="50%" y1="0%" x2="50%" y2="68.0749974%" id="linearGradient-12">
            <stop stop-color="#EFEEF8" offset="0%"></stop>
            <stop stop-color="#E8E6F2" offset="100%"></stop>
        </linearGradient>
        <linearGradient x1="50%" y1="0%" x2="50%" y2="68.0749974%" id="linearGradient-13">
            <stop stop-color="#EFEEF8" offset="0%"></stop>
            <stop stop-color="#E8E6F2" offset="100%"></stop>
        </linearGradient>
        <linearGradient x1="50%" y1="46.2315784%" x2="45.6189441%" y2="52.2511133%" id="linearGradient-14">
            <stop stop-color="#E2E0F1" offset="0%"></stop>
            <stop stop-color="#E8E6F2" offset="100%"></stop>
        </linearGradient>
        <linearGradient x1="50%" y1="-33.7012872%" x2="49.6972118%" y2="100%" id="linearGradient-15">
            <stop stop-color="#E2E0F1" offset="0%"></stop>
            <stop stop-color="#E8E6F2" offset="100%"></stop>
        </linearGradient>
        <path d="M0.689230769,0.958461538 C0.932307692,1.54153846 1.69230769,1.94769231 2.61384615,1.94769231 L2.61384615,10.6492351 C1.69230769,10.6507692 0.932307692,10.2446154 0.689230769,9.66153846" id="path-16"></path>
        <linearGradient x1="50%" y1="-33.7012872%" x2="49.6290141%" y2="100%" id="linearGradient-18">
            <stop stop-color="#E2E0F1" offset="0%"></stop>
            <stop stop-color="#E8E6F2" offset="100%"></stop>
        </linearGradient>
        <linearGradient x1="50%" y1="0%" x2="50%" y2="68.0749974%" id="linearGradient-19">
            <stop stop-color="#EFEEF8" offset="0%"></stop>
            <stop stop-color="#E8E6F2" offset="100%"></stop>
        </linearGradient>
        <linearGradient x1="50%" y1="0%" x2="50%" y2="68.0749974%" id="linearGradient-20">
            <stop stop-color="#EFEEF8" offset="0%"></stop>
            <stop stop-color="#E8E6F2" offset="100%"></stop>
        </linearGradient>
        <path d="M1.04923077,0.710769231 C1.04923077,1.29846154 1.71384615,1.76769231 2.54461538,1.76769231 L2.54461538,7.39384615 C1.71384615,7.39384615 1.04923077,6.92461538 1.04923077,6.33692308 L1.04923077,0.710769231 Z" id="path-21"></path>
    </defs>
    <g id="图形/tg" stroke="none" stroke-width="1" fill="none" fill-rule="evenodd">
        <g id="编组-3" transform="translate(-8.000000, -7.000000)">
            <polygon id="Path-2" fill="#FFFFFF" fill-rule="nonzero" points="33.1477445 13.5061012 8.4554 25.1226389 8.4554 43.7847347 10.3095419 46.7293963 33.1477445 57.5287294 35.2593578 57.5287294 59.4786883 45.6750854 61.1751043 43.0052418 61.1751043 26.7852848 60.491829 25.1226389 35.0004467 13.5061012"></polygon>
            <polygon id="Path-29" fill="#F7F6FD" points="35.0004467 40.7452108 60.491829 28.7852848 60.491829 45.7205936 35.0004467 57.7217293"></polygon>
            <path d="M53.3955837,10.7407369 L43.4463946,36.6476403 C43.3422214,36.918899 43.1262141,37.1321148 42.8536233,37.232751 L17.5376182,46.5790147 C17.0145904,46.7721082 16.4340594,46.5046436 16.2409659,45.9816158 C16.1582865,45.757664 16.1576483,45.511658 16.2391648,45.2872803 L25.0585925,21.0114016 C25.4241263,20.0052531 26.2106426,19.2087881 27.2121173,18.8306368 L52.0965783,9.43440286 C52.6181666,9.23745403 53.200656,9.5006263 53.3976048,10.0222146 C53.4850745,10.2538645 53.4843552,10.5095828 53.3955837,10.7407369 Z" id="Path" stroke="#E7E6F1" stroke-width="1.1124" fill-rule="nonzero" transform="translate(34.849360, 27.985942) rotate(45.000000) translate(-34.849360, -27.985942) "></path>
            <line x1="34.4880555" y1="40.794725" x2="34.4880555" y2="57.5287294" id="Line-2" stroke="#E7E6F1" stroke-width="1.1124" fill-rule="nonzero"></line>
            <path d="M46.8749745,12.3121438 L57.2015544,22.3878408 C58.3228335,23.4818787 58.7101443,25.125731 58.195231,26.6052748 L49.9661353,50.2506283 C49.5665165,51.3988867 48.6707939,52.305968 47.5276621,52.7200238 L25.3382146,60.7573043 C23.8648581,61.2909715 22.215781,60.9240357 21.1077242,59.8159789 L10.4004302,49.1086849 L10.4004302,49.1086849" id="Path" stroke="#E7E6F1" stroke-width="1.1124" fill-rule="nonzero" transform="translate(34.719735, 36.972018) rotate(45.000000) translate(-34.719735, -36.972018) "></path>
        </g>
        <g id="编组-9" transform="translate(6.000000, 1.000000)">
            <g id="编组">
                <path d="M1.53907692,5.68353846 L1.53907692,14.3866154 C1.53907692,14.3758462 1.53907692,14.3666154 1.53907692,14.3573846 L1.53907692,5.65430769 C1.53907692,5.66353846 1.53907692,5.67430769 1.53907692,5.68353846" id="Fill-1" fill="#2C2269"></path>
                <polygon id="Fill-2" fill="url(#linearGradient-1)" points="26.2678462 10.2952308 26.2678462 18.9983077 20.4386154 12.3306154 20.4386154 3.62753846"></polygon>
                <path d="M26.4763077,10.4610769 L26.7503588,10.6457833 L26.9488774,10.7559113 L27.2181874,10.8783904 L27.3380936,10.9242992 L27.5127794,10.9833168 C27.6474442,11.0250328 27.7864983,11.0599388 27.9292308,11.0876923 L28.3449231,11.0973846 L28.5943077,11.0876923 L30.02,10.6969231 L30.02,19.3984615 C29.6046154,19.6338462 29.1061538,19.7707692 28.5938462,19.7907692 L28.3450769,19.8 L27.9292308,19.7907692 L27.7179797,19.7438174 L27.4748756,19.6743414 L27.2776022,19.6048934 L27.0010396,19.4848569 L26.801503,19.3788514 L26.6986726,19.3179404 C26.6224502,19.269622 26.5477971,19.2182815 26.4763077,19.1641538 L26.4763077,10.4610769 Z M26.2683077,10.2950769 L26.476,10.4612308 L26.476,19.1643077 L26.2683077,18.9981538 L26.2683077,10.2950769 Z" id="形状" fill="url(#linearGradient-2)"></path>
                <polygon id="Fill-4" fill="url(#linearGradient-3)" points="20.4384615 3.62753846 20.4384615 12.3306154 14.5676923 19.0275385 14.5676923 10.3244615"></polygon>
                <polygon id="Fill-8" fill="url(#linearGradient-4)" points="10.7052308 10.6963077 10.7052308 19.3993846 5.04215385 16.0701538 5.04215385 7.36707692"></polygon>
                <polygon id="Fill-10" fill="url(#linearGradient-5)" points="35.6976923 7.358 35.6976923 16.0610769 30.0207692 19.3995385 30.0207692 10.6964615"></polygon>
                <path d="M14.5676923,10.3246154 L14.5676923,19.0276923 C14.3161732,19.2562553 14.0005494,19.4394918 13.6321634,19.5744612 L13.2387223,19.6952337 L13.2387223,19.6952337 L13.1701154,19.7125385 L13.1701154,19.7125385 L12.9896923,19.7516923 L12.6989231,19.7993846 L12.3661538,19.8 C12.1429298,19.7958662 11.9197057,19.7738374 11.7014557,19.7332226 L11.3790769,19.6586154 L11.1749163,19.5950718 L11.1749163,19.5950718 L10.9261538,19.4969231 L10.9261538,19.4969231 L10.7052308,19.3986154 L10.7052308,10.6970769 L10.9267692,10.794 L11.1609883,10.8871309 L11.2816344,10.9269752 L11.2816344,10.9269752 C11.5415691,11.0081506 11.8140984,11.0593151 12.0897763,11.0827065 L12.3661538,11.0969231 L12.6989231,11.0978462 L12.9929231,11.0476923 L14.5676923,10.3246154 Z" id="路径" fill="url(#linearGradient-6)"></path>
                <g transform="translate(12.307692, 9.230769)">
                    <g>
                        <mask id="mask-8" fill="white">
                            <use xlink:href="#path-7"></use>
                        </mask>
                        <g id="Clip-15"></g>
                        <path d="M2.26015385,1.09369231 L2.26015385,9.79676923 C2.08784615,9.95369231 1.88476923,10.0890769 1.65553846,10.2029231 L1.65553846,1.49984615 C1.88476923,1.386 2.08784615,1.25061538 2.26015385,1.09369231" id="Fill-14" fill="#372B85" mask="url(#mask-8)"></path>
                    </g>
                    <g>
                        <mask id="mask-11" fill="white">
                            <use xlink:href="#path-10"></use>
                        </mask>
                        <use id="Clip-17" fill="url(#linearGradient-9)" xlink:href="#path-10"></use>
                    </g>
                </g>
                <polygon id="Fill-50" fill="url(#linearGradient-12)" points="39.2283077 5.73230769 39.2283077 11.3584615 35.5175385 24.9184615 35.5175385 19.2923077"></polygon>
                <polygon id="Fill-51" fill="url(#linearGradient-13)" points="5.26353846 19.2923077 5.26353846 24.9184615 1.53892308 11.3092308 1.53892308 5.68307692"></polygon>
                <polygon id="Fill-53" fill="url(#linearGradient-14)" points="7.22923077 26.0338462 33.7446154 26.0338462 33.7446154 20.4076923 7.22923077 20.4076923"></polygon>
                <g transform="translate(32.307692, 18.461538)" fill="url(#linearGradient-15)" id="Clip-67">
                    <g>
                        <path d="M3.20923077,0.830769231 L3.20923077,6.45692308 C3.04307692,7.07384615 2.30923077,7.53384615 1.43692308,7.57230769 L1.43692308,1.94769231 C2.30923077,1.90769231 3.04307692,1.44769231 3.20923077,0.830769231 Z"></path>
                    </g>
                </g>
                <g transform="translate(4.615385, 18.461538)">
                    <g>
                        <mask id="mask-17" fill="white">
                            <use xlink:href="#path-16"></use>
                        </mask>
                        <g id="Clip-69"></g>
                    </g>
                    <path d="M0.689230769,0.958461538 C0.932307692,1.54153846 1.69230769,1.94769231 2.61384615,1.94769231 L2.61384615,7.57231638 C1.69230769,7.57384615 0.932307692,7.16769231 0.689230769,6.58461538 L0.689230769,0.958461538 Z" id="Clip-75" fill="url(#linearGradient-18)"></path>
                </g>
                <path d="M35.6969231,7.35753846 L30.02,10.696 C29.6046154,10.9313846 29.1061538,11.0683077 28.5938462,11.0883077 L28.3446154,11.0975385 L27.9292308,11.0883077 C27.3753846,10.9806154 26.8769231,10.7652308 26.4753846,10.4606154 L26.2676923,10.2944615 L20.4384615,3.62676923 L14.5676923,10.3236923 C14.18,10.676 13.64,10.9221538 12.9892308,11.0483077 L12.6984615,11.0975385 L12.3661538,11.0975385 C11.8676923,11.0883077 11.3692308,10.9898462 10.9261538,10.7944615 L10.7046154,10.696 L5.04153846,7.36830769 L8.11538462,18.3036923 L32.7476923,18.3036923 L35.6969231,7.35753846 Z M39.2276923,5.556 L39.2276923,5.73292308 L35.5169231,19.2929231 C35.3507692,19.9083077 34.6169231,20.3698462 33.7446154,20.4083164 L7.22923077,20.4083164 C6.30769231,20.4098462 5.54769231,20.0036923 5.30461538,19.4206154 L5.26307692,19.2929231 L1.53846154,5.68369231 C1.52461538,5.15446154 1.88461538,4.64523077 2.54923077,4.32215385 C2.81076923,4.22215385 3.10153846,4.17138462 3.40769231,4.17138462 C3.45692308,4.17138462 3.50923077,4.17292308 3.56,4.176 C3.87846154,4.196 4.18307692,4.26369231 4.48769231,4.37138462 L4.70923077,4.45907692 L12.4492308,8.84676923 L19.0123077,1.38523077 L19.4553846,1.08215385 C19.7969231,0.928307692 20.1830769,0.851384615 20.5692308,0.851384615 C21.0923077,0.851384615 21.6169231,0.991384615 22.0307692,1.26830769 L22.1969231,1.38523077 L28.7461538,8.836 L36.1953846,4.44061538 C36.4030769,4.35138462 36.6246154,4.28369231 36.8461538,4.23446154 L37.0676923,4.196 L37.2892308,4.176 C37.34,4.16984615 37.3923077,4.16830769 37.4446154,4.16830769 C37.6815385,4.16830769 37.9446154,4.22215385 38.2723077,4.34215385 C38.8261538,4.616 39.1861538,5.05753846 39.2276923,5.556 Z" id="Fill-76" fill="#CECBE1"></path>
            </g>
            <g id="编组" transform="translate(4.615385, 20.000000)">
                <path d="M29.1021538,1.20184615 C29.9190769,1.20184615 30.5975385,1.67107692 30.5975385,2.24953846 C30.5975385,2.83569231 29.9190769,3.30646154 29.1021538,3.30646154 L2.54523077,3.30646154 C1.71446154,3.30646154 1.04984615,2.83569231 1.04984615,2.24953846 C1.04984615,1.67107692 1.71446154,1.20184615 2.54523077,1.20184615 L29.1021538,1.20184615 Z" id="Fill-77" fill="#CECBE1"></path>
                <path d="M30.5969231,2.24923077 L30.5969231,7.87538462 C30.5969231,8.46307692 29.9184615,8.93230769 29.1015385,8.93230769 L29.1015385,3.30615385 C29.9184615,3.30615385 30.5969231,2.83692308 30.5969231,2.24923077 Z" id="Clip-96" fill="url(#linearGradient-19)"></path>
                <polygon id="Fill-97" fill="url(#linearGradient-20)" points="2.54461538 8.93230769 29.1015385 8.93230769 29.1015385 3.30615385 2.54461538 3.30615385"></polygon>
                <g transform="translate(0.000000, 1.538462)">
                    <g>
                        <mask id="mask-22" fill="white">
                            <use xlink:href="#path-21"></use>
                        </mask>
                        <use id="Clip-106" fill="url(#linearGradient-19)" xlink:href="#path-21"></use>
                    </g>
                </g>
            </g>
        </g>
    </g>
</svg>