<?xml version="1.0" standalone="no"?><!DOCTYPE svg PUBLIC "-//W3C//DTD SVG 1.1//EN" "http://www.w3.org/Graphics/SVG/1.1/DTD/svg11.dtd"><svg t="1598448126006" class="icon" viewBox="0 0 1024 1024" version="1.1" xmlns="http://www.w3.org/2000/svg" p-id="1751" xmlns:xlink="http://www.w3.org/1999/xlink" width="200" height="200"><defs><style type="text/css"></style></defs><path d="M192 546.112H64a64 64 0 0 0-64 64V960a64 64 0 0 0 64 64h128a64 64 0 0 0 64-64V610.112a64 64 0 0 0-64-64zM576 0H448a64 64 0 0 0-64 64v896a64 64 0 0 0 64 64h128a64 64 0 0 0 64-64V64a64 64 0 0 0-64-64z m384 273.088h-128a64 64 0 0 0-64 64V960a64 64 0 0 0 64 64h128a64 64 0 0 0 64-64V337.088a64 64 0 0 0-64-64z" p-id="1752" fill="#13227a"></path></svg>