<svg id="图层_1" data-name="图层 1" xmlns="http://www.w3.org/2000/svg" viewBox="0 0 12 14"><title>告警管理</title><g id="页面-1"><g id="_1实例2" data-name="1实例2"><g id="编组-10"><g id="编组"><g id="alert-fill"><path id="形状" d="M5.94,2.77a5,5,0,0,1,5,5v3.68a.5.5,0,0,1-.51.5h-9a.5.5,0,0,1-.5-.5V7.8A5,5,0,0,1,5.94,2.77ZM5.5,0h.88a.13.13,0,0,1,.13.13V1.64a.13.13,0,0,1-.13.13H5.5a.13.13,0,0,1-.13-.13V.13A.13.13,0,0,1,5.5,0ZM.66,2a.15.15,0,0,1,.09,0A.15.15,0,0,1,.84,2L1.91,3a.15.15,0,0,1,0,.09.18.18,0,0,1,0,.09l-.62.62a.12.12,0,0,1-.09,0,.1.1,0,0,1-.09,0L0,2.75a.1.1,0,0,1,0-.09.12.12,0,0,1,0-.09L.66,2ZM11.22,2l.62.62a.12.12,0,0,1,0,.09.1.1,0,0,1,0,.09L10.77,3.82a.1.1,0,0,1-.09,0,.12.12,0,0,1-.09,0L10,3.2a.18.18,0,0,1,0-.09A.15.15,0,0,1,10,3L11,2a.15.15,0,0,1,.09,0,.18.18,0,0,1,.09,0ZM.89,13H11a.51.51,0,0,1,.51.51v.37a.13.13,0,0,1-.13.13H.52a.13.13,0,0,1-.13-.13V13.5A.51.51,0,0,1,.89,13ZM3.23,8v4h1V8Z"/></g></g></g></g></g></svg>