<svg id="图层_1" data-name="图层 1" xmlns="http://www.w3.org/2000/svg" viewBox="0 0 14 14"><title>总览</title><g id="页面-1"><g id="_1实例" data-name="1实例"><g id="编组-10"><g id="编组"><g id="zonglan-2"><path id="形状" d="M1.37,11.12,7,7.86l5.66,3.26a7,7,0,0,1-11.32,0Zm12-1.26-.52-.31a.57.57,0,0,1,0-1,.59.59,0,0,1,.65.07.62.62,0,0,1,.19.64c-.07.17-.18.38-.25.56,0,0,0,0,0,.07ZM0,7A7,7,0,0,1,6.32,0V6.63L.63,9.9A7.33,7.33,0,0,1,0,7Zm10.58,1.3-.25-.14A.55.55,0,0,1,10,7.65a.56.56,0,0,1,.29-.49l2.78-1.62a.57.57,0,0,1,.55,0A.55.55,0,0,1,14,6c0,.1,0,.21,0,.28a.57.57,0,0,1-.28.56L11.14,8.28a.52.52,0,0,1-.56,0ZM8.12,6.88,8,6.81a.61.61,0,0,1-.28-.49V6.14A.58.58,0,0,1,8,5.65l4.25-2.46A.6.6,0,0,1,13,3.4c0,.07.1.18.14.25a.54.54,0,0,1,.06.43.55.55,0,0,1-.27.34L8.68,6.88A.56.56,0,0,1,8.12,6.88ZM7.73,3.54V3.26A.58.58,0,0,1,8,2.77L10.54,1.3a.6.6,0,0,1,.63,0,1.14,1.14,0,0,1,.25.18.58.58,0,0,1,.22.49.62.62,0,0,1-.29.46L8.61,4a.66.66,0,0,1-.31.09.6.6,0,0,1-.57-.59ZM7.73.7V0h.11l.63.11A.57.57,0,0,1,8.92.6a.56.56,0,0,1-.31.59.57.57,0,0,1-.28.08A.6.6,0,0,1,7.73.7Z"/></g></g></g></g></g></svg>