<svg t="1671603729943" class="icon" viewBox="0 0 1024 1024" version="1.1" xmlns="http://www.w3.org/2000/svg" p-id="46931" width="200" height="200"><path d="M1017.6 492.8c-6.4-6.4-12.8-12.8-25.6-19.2-12.8 0-32-12.8-44.8-25.6-38.4-38.4-38.4-108.8 0-153.6 12.8-12.8 12.8-38.4 0-51.2L774.4 70.4c-6.4 0-12.8-6.4-25.6-6.4s-19.2 6.4-25.6 12.8c-38.4 38.4-108.8 38.4-153.6 0-12.8-12.8-19.2-32-25.6-51.2 0-6.4-6.4-19.2-19.2-25.6h-25.6L268.8 64c-25.6 6.4-32 25.6-32 44.8 12.8 38.4 0 76.8-25.6 102.4-25.6 25.6-64 38.4-102.4 25.6-19.2 0-38.4 6.4-44.8 32L0 499.2c0 6.4 0 19.2 6.4 25.6 6.4 6.4 12.8 12.8 25.6 19.2 12.8 6.4 32 12.8 44.8 25.6 38.4 38.4 38.4 108.8 0 153.6-6.4 6.4-12.8 19.2-12.8 25.6 0 12.8 6.4 19.2 12.8 25.6l172.8 172.8c12.8 12.8 38.4 12.8 51.2 0 38.4-38.4 108.8-38.4 153.6 0 12.8 12.8 25.6 32 25.6 51.2 0 12.8 6.4 19.2 19.2 25.6h25.6l230.4-64c19.2-6.4 32-25.6 25.6-44.8-12.8-38.4 0-76.8 25.6-102.4 25.6-25.6 64-38.4 102.4-25.6 19.2 6.4 38.4-6.4 44.8-25.6l64-236.8c6.4-12.8 6.4-19.2 0-32zM896 704c-51.2 0-102.4 19.2-140.8 51.2-32 38.4-51.2 89.6-51.2 140.8l-166.4 44.8c-6.4-19.2-19.2-32-32-51.2-32-32-76.8-51.2-128-51.2-38.4 0-70.4 12.8-102.4 32L153.6 748.8c44.8-70.4 38.4-166.4-25.6-230.4-12.8-12.8-32-25.6-44.8-32L128 320c51.2 0 102.4-19.2 140.8-51.2 32-38.4 51.2-89.6 51.2-140.8l166.4-44.8c6.4 12.8 19.2 32 32 44.8 57.6 57.6 160 70.4 230.4 25.6l121.6 121.6c-44.8 70.4-38.4 166.4 25.6 224 12.8 12.8 32 25.6 44.8 32L896 704z" p-id="46932"></path><path d="M512 300.8c-115.2 0-211.2 96-211.2 211.2 0 115.2 96 211.2 211.2 211.2s211.2-96 211.2-211.2c0-115.2-96-211.2-211.2-211.2z m0 345.6c-76.8 0-134.4-64-134.4-134.4 0-76.8 64-134.4 134.4-134.4s134.4 64 134.4 134.4c0 76.8-57.6 134.4-134.4 134.4z" p-id="46933"></path></svg>