<?xml version="1.0" standalone="no"?><!DOCTYPE svg PUBLIC "-//W3C//DTD SVG 1.1//EN" "http://www.w3.org/Graphics/SVG/1.1/DTD/svg11.dtd"><svg t="1675063333105" class="icon" viewBox="0 0 1024 1024" version="1.1" xmlns="http://www.w3.org/2000/svg" p-id="7408" xmlns:xlink="http://www.w3.org/1999/xlink" width="32" height="32"><path d="M512 960C264.576 960 64 759.424 64 512S264.576 64 512 64s448 200.576 448 448-200.576 448-448 448z m0-64c212.064 0 384-171.936 384-384S724.064 128 512 128 128 299.936 128 512s171.936 384 384 384z m103.04-428.32v7.232c10.464-13.856 21.952-24.032 34.432-30.528 12.48-6.496 26.784-9.728 42.976-9.728 15.744 0 29.824 3.424 42.24 10.272 12.384 6.848 21.632 16.576 27.776 29.12 3.936 7.264 6.496 15.136 7.648 23.616 1.152 8.448 1.76 19.232 1.76 32.352v111.136c0 11.968-2.752 20.992-8.224 27.136a27.264 27.264 0 0 1-21.312 9.184 27.52 27.52 0 0 1-21.664-9.408c-5.536-6.272-8.32-15.232-8.32-26.88v-99.552c0-19.68-2.72-34.752-8.192-45.184-5.472-10.432-16.384-15.648-32.704-15.648-10.656 0-20.352 3.2-29.12 9.536-8.736 6.336-15.136 15.04-19.2 26.144-2.944 8.896-4.384 25.504-4.384 49.856v74.816c0 12.096-2.816 21.184-8.448 27.232a28.352 28.352 0 0 1-21.76 9.088 27.04 27.04 0 0 1-21.216-9.408c-5.536-6.272-8.32-15.232-8.32-26.88V468.576c0-11.392 2.496-19.872 7.456-25.504 4.96-5.6 11.744-8.416 20.32-8.416 5.28 0 10.016 1.248 14.24 3.712a26.624 26.624 0 0 1 10.176 11.168c2.56 4.96 3.84 11.008 3.84 18.144z m-112.736-66.272H355.968v78.72H490.72c9.92 0 17.312 2.24 22.208 6.72a22.688 22.688 0 0 1 7.328 17.6 23.552 23.552 0 0 1-7.232 17.824c-4.8 4.576-12.256 6.88-22.304 6.88H355.968v91.2h151.36c10.24 0 17.92 2.4 23.104 7.136a24.416 24.416 0 0 1 7.744 18.912c0 7.584-2.56 13.76-7.744 18.496-5.184 4.736-12.864 7.104-23.104 7.104H330.816c-14.144 0-24.32-3.136-30.528-9.408-6.176-6.272-9.28-16.416-9.28-30.4V391.136c0-9.344 1.376-16.96 4.16-22.88a25.792 25.792 0 0 1 12.992-12.896c5.92-2.688 13.44-4.032 22.656-4.032h171.52c10.336 0 18.016 2.272 23.04 6.88a23.296 23.296 0 0 1 7.552 18.048 23.552 23.552 0 0 1-7.552 18.24c-5.024 4.608-12.704 6.912-23.04 6.912z" fill="#ffd56a" p-id="7409"></path></svg>