<?xml version="1.0" standalone="no"?><!DOCTYPE svg PUBLIC "-//W3C//DTD SVG 1.1//EN" "http://www.w3.org/Graphics/SVG/1.1/DTD/svg11.dtd"><svg t="1670844364713" class="icon" viewBox="0 0 1024 1024" version="1.1" xmlns="http://www.w3.org/2000/svg" p-id="1918" width="32" height="32" xmlns:xlink="http://www.w3.org/1999/xlink"><path d="M872.74 615.45H749.29v-32.49c0-17.95-14.54-32.49-32.49-32.49-17.94 0-32.49 14.54-32.49 32.49v32.49H560.88c-17.95 0-32.49 8.04-32.49 25.99v155.93c0 17.95 14.54 38.98 32.49 38.98h123.45v58.47c0 17.95 14.54 32.49 32.49 32.49 17.95 0 32.49-14.54 32.49-32.49v-58.47h123.45c17.94 0 32.49-21.04 32.49-38.98V641.43c-0.02-17.94-14.56-25.98-32.51-25.98zM684.32 771.38h-90.96v-90.96h90.96v90.96z m155.93 0h-90.96v-90.96h90.96v90.96zM515.86 171.29c8.18 0.19 193.1 6.77 221.56 176.83l-9.71-6.48c-17.08-11.4-40.22-6.78-51.61 10.32-11.4 17.1-6.78 40.21 10.32 51.61L756.07 450c0.05 0.03 0.1 0.06 0.14 0.1l0.44 0.29c0.23 0.15 0.47 0.25 0.7 0.39 1.16 0.74 2.34 1.41 3.57 2.01 0.57 0.28 1.14 0.52 1.72 0.77 0.95 0.41 1.92 0.78 2.9 1.1 0.67 0.22 1.34 0.44 2.03 0.63 0.97 0.26 1.95 0.46 2.93 0.64 0.64 0.12 1.28 0.27 1.93 0.35 1.47 0.2 2.96 0.3 4.45 0.32 0.13 0 0.26 0.03 0.38 0.03h0.08c0.13 0 0.25-0.03 0.38-0.03 1.49-0.02 2.98-0.12 4.45-0.32 0.64-0.08 1.27-0.23 1.91-0.35 0.99-0.18 1.98-0.39 2.96-0.65 0.67-0.18 1.34-0.4 2-0.62 0.99-0.33 1.96-0.7 2.92-1.11 0.57-0.25 1.14-0.49 1.71-0.76 1.23-0.6 2.41-1.28 3.58-2.02 0.23-0.14 0.47-0.24 0.7-0.39l0.44-0.29c0.05-0.03 0.1-0.06 0.14-0.1l71.53-47.69c17.1-11.4 21.73-34.51 10.32-51.61-11.4-17.1-34.5-21.75-51.61-10.32L813 350.89C789.63 155.52 610.89 99.13 517.66 96.88c-20.11-0.53-37.61 15.76-38.11 36.31-0.49 20.55 15.77 37.61 36.31 38.1zM499.05 850.55c-8.33-0.2-200.05-7.03-222.97-186.55l12.68 8.45a37.011 37.011 0 0 0 20.61 6.25c12.03 0 23.83-5.82 31-16.57 11.4-17.1 6.78-40.21-10.32-51.61l-70.23-46.82c-0.01 0-0.01-0.01-0.01-0.01a36.814 36.814 0 0 0-6.59-3.49c-0.67-0.27-1.36-0.38-2.03-0.61-1.61-0.55-3.21-1.11-4.88-1.44-0.95-0.19-1.91-0.18-2.86-0.29-1.44-0.17-2.88-0.4-4.33-0.39-0.74 0-1.46 0.15-2.19 0.2-1.67 0.1-3.33 0.18-4.99 0.51-0.59 0.12-1.15 0.37-1.74 0.51-1.73 0.43-3.46 0.86-5.13 1.55-2.26 0.92-4.43 2.08-6.48 3.45-0.01 0.01-0.03 0.01-0.05 0.02l-72.11 48.08c-17.1 11.4-21.73 34.51-10.32 51.61 7.17 10.76 18.97 16.57 31 16.57 7.09 0 14.27-2.02 20.61-6.25l13.53-9.02c20.25 200.43 201.79 258 296 260.27 0.31 0.01 0.61 0.01 0.92 0.01 20.14 0 36.7-16.08 37.19-36.32 0.49-20.55-15.76-37.61-36.31-38.11zM159.31 459.28c1.54 0.19 3.06 0.47 4.65 0.47h208.58c20.55 0 37.22-16.66 37.22-37.22s-16.66-37.22-37.22-37.22H191.88v-55.83h180.67c20.55 0 37.22-16.66 37.22-37.22s-16.66-37.22-37.22-37.22H191.88v-55.83h180.67c20.55 0 37.22-16.66 37.22-37.22s-16.66-37.22-37.22-37.22H163.96c-1.59 0-3.11 0.27-4.65 0.47-1.54-0.19-3.06-0.47-4.65-0.47-20.55 0-37.22 16.66-37.22 37.22v260.53c0 20.55 16.66 37.22 37.22 37.22 1.59 0 3.11-0.27 4.65-0.46z" fill="#070605" p-id="1919"></path></svg>