<?xml version="1.0" encoding="UTF-8"?>
<svg width="29px" height="22px" viewBox="0 0 29 22" version="1.1" xmlns="http://www.w3.org/2000/svg" xmlns:xlink="http://www.w3.org/1999/xlink">
    <title></title>
    <defs>
        <linearGradient x1="0%" y1="50%" x2="100%" y2="37.4921101%" id="linearGradient-1">
            <stop stop-color="#2872E0" offset="0%"></stop>
            <stop stop-color="#5AFFEF" offset="100%"></stop>
        </linearGradient>
        <linearGradient x1="0%" y1="50%" x2="100%" y2="37.4921101%" id="linearGradient-2">
            <stop stop-color="#FFFFFF" offset="0%"></stop>
            <stop stop-color="#FFFFFF" offset="100%"></stop>
        </linearGradient>
    </defs>
    <g id="页面-1" stroke="none" stroke-width="1" fill="none" fill-rule="evenodd">
        <g id="1实例" transform="translate(-9.000000, -13.000000)" stroke="#FFFFFF">
            <g id="编组-34" transform="translate(-10.000000, -6.000000)">
                <g id="logo-18" transform="translate(20.000000, 20.000000)">
                    <path d="M25.5929067,6.37889669 C24.4717673,5.41239719 23.080008,4.83249749 21.5722688,4.71651757 C20.7604092,3.32475829 19.5619499,2.16495889 18.1701906,1.31443933 C16.7397713,0.46391976 15.0773922,0 13.3763531,0 C11.0954142,0 8.8531354,0.850519567 7.1134363,2.35825879 C5.60569708,3.67269811 4.52321763,5.45105717 4.09795786,7.42271615 C2.93815846,7.80931596 1.93299899,8.5051956 1.19845936,9.51035507 C0.425259772,10.5541745 0,11.7912939 0,13.1057332 C0,14.5361525 0.502579747,15.9279118 1.46907923,17.0490512 C2.39691875,18.1315306 3.67269809,18.8660702 5.06445737,19.0980301 L14.3650311,19.0980301 C14.9449308,19.0593701 15.3701906,18.5567904 15.3701906,17.9768907 C15.3701906,17.396991 14.9062708,16.9330712 14.3650311,16.8557513 L5.87631695,16.8557513 C3.86599798,16.8170913 2.20361886,15.1547122 2.20361886,13.1443932 C2.20361886,11.3660341 3.4793982,9.81963493 5.25775726,9.47169511 L6.03095687,9.31705518 L6.14693681,8.5051956 C6.37889669,6.80415649 7.26807623,5.2190973 8.58251555,4.0592979 C9.89695488,2.8994985 11.597994,2.28093881 13.3763531,2.28093883 C14.5361525,2.28093883 15.6959519,2.5515587 16.7397713,3.09279841 C17.6289508,3.55671817 18.4021505,4.17527786 19.0207101,4.94847745 C17.435651,5.37373722 16.0825517,6.30157674 15.1160522,7.61601607 C14.9227523,7.84797595 14.8454323,8.15725578 14.9227523,8.46653561 C14.9614122,8.77581544 15.1160522,9.04643531 15.348012,9.20107524 C15.8505918,9.54901506 16.5464714,9.47169511 16.9330712,8.96911536 C17.8609107,7.69333602 19.32999,6.95879639 20.9150491,6.95879639 C23.157328,6.95879639 25.0501283,8.37189502 25.630028,10.5368539 L25.668688,10.6914938 C25.7358433,11.0198717 26.1975482,11.5677203 26.7774479,11.5677203 C27.3960076,11.5677203 27.8836479,10.9582881 27.8849386,10.3660323 C27.8453649,10.179162 27.8738455,10.2835547 27.8351856,10.1675747 C27.5259057,8.65983553 26.7527061,7.38405619 25.5929067,6.37889669 Z" id="路径" stroke-width="0.1" fill="url(#linearGradient-2)"></path>
                    <path d="M25.4355003,13.148878 C24.6709495,13.2125906 24.0656801,13.7541474 23.8745424,14.4549857 L18.2996928,13.594866 C18.2359802,13.1807343 18.0129862,12.8303152 17.6944234,12.5436086 C17.3121479,12.2250458 16.86616,12.0976207 16.3883157,12.1294769 C15.4007709,12.2250458 14.6680764,13.0851655 14.7636452,14.0727103 C14.8592141,14.9965425 15.6237649,15.6973807 16.5475971,15.6973807 L16.7068786,15.6973807 C16.8980163,15.6973807 17.0572977,15.6336682 17.2165791,15.5699556 L20.1155009,18.0547457 C20.0517884,18.2140272 20.0517884,18.4051649 20.0517884,18.5963026 C20.1155009,19.3927097 20.8163392,19.9661228 21.58089,19.8705539 C22.3454408,19.7749851 22.9507102,19.1060031 22.8551414,18.3414523 C22.8551414,18.2777397 22.8551414,18.2458834 22.8232851,18.1821709 L24.7346621,16.398219 C25.0213687,16.5575004 25.3717878,16.621213 25.7222069,16.5893567 C26.7097517,16.5575004 27.4424462,15.729237 27.3468774,14.7416922 C27.2513085,13.7860037 26.3911889,13.0533092 25.4355003,13.148878 Z M20.6570578,17.3220512 L17.9811299,14.9965425 C18.0766988,14.8691173 18.1722676,14.7098359 18.2359802,14.5186982 L23.9063987,15.3788179 C23.938255,15.506243 24.0019676,15.6336682 24.0656802,15.7610933 L22.3454408,17.3857638 C22.0587343,17.1946261 21.7083151,17.0672009 21.3260397,17.0990572 C21.0711895,17.1309135 20.8481955,17.1946261 20.6570578,17.3220512 Z M16.643166,14.9009736 C16.1016092,14.9328299 15.6556212,14.5505545 15.5919086,14.0089977 C15.5600523,13.4674409 15.9423277,13.0214529 16.4838846,12.9577403 L16.5794534,12.9577403 C17.089154,12.9577403 17.5032857,13.3400157 17.5351419,13.8497163 C17.5669982,14.3912731 17.1528665,14.8372611 16.643166,14.9009736 Z" id="形状" stroke-width="0.4" fill="#FFFFFF" fill-rule="nonzero"></path>
                </g>
            </g>
        </g>
    </g>
</svg>