<?xml version="1.0" encoding="UTF-8"?>
<svg id="Logos" xmlns="http://www.w3.org/2000/svg" viewBox="0 0 331.5548875 84.4714785">
  <defs>
    <style>
      .cls-1, .cls-2 {
        fill: #fff;
      }

      .cls-2 {
        fill-rule: evenodd;
      }
    </style>
  </defs>
  <g>
    <path class="cls-1" d="M100.4047325,20.7678956h7.0224609V57.7415284h21.5478516v6.7226562h-28.5703125V20.7678956Z"/>
    <path class="cls-1" d="M144.5204552,65.1243409c-2.4008789,0-4.5717773-.5004883-6.512207-1.5004883-1.9414062-.9995117-3.472168-2.4907227-4.5917969-4.4716797-1.1206055-1.9804688-1.6806641-4.4311523-1.6806641-7.3525391,0-2.8813477,.5898438-5.3515625,1.7705078-7.4130859,1.1796875-2.0600586,2.7407227-3.6508789,4.6816406-4.7714844,1.9404297-1.1201172,4.0517578-1.6806641,6.3325195-1.6806641,2.4404297,0,4.4013672,.4799805,5.8823242,1.4404297,1.4799805,.9604492,2.6606445,2.1005859,3.5410156,3.4213867l-.3598633,.9604492,.6601562-4.6821289h6.2421875v25.3896484h-6.7822266v-6.1821289l.6601562,1.6206055c-.1606445,.2397461-.4707031,.6298828-.9306641,1.1704102-.4604492,.5400391-1.1206055,1.1308594-1.9804688,1.7705078-.8608398,.640625-1.8608398,1.1806641-3.0009766,1.6206055-1.140625,.4399414-2.4516602,.6601562-3.9316406,.6601562Zm1.8608398-5.5219727c1.2001953,0,2.300293-.2099609,3.3012695-.6303711,.9995117-.4199219,1.8398438-1.0400391,2.5209961-1.8603516,.6796875-.8198242,1.1796875-1.7905273,1.5004883-2.9111328v-5.5219727c-.3208008-1.0405273-.8505859-1.9511719-1.5908203-2.7314453-.7407227-.7802734-1.6206055-1.3896484-2.6411133-1.8305664-1.0200195-.4399414-2.1303711-.6601562-3.3310547-.6601562-1.4013672,0-2.6811523,.340332-3.8413086,1.0205078-1.1611328,.6806641-2.0810547,1.6206055-2.7612305,2.8208008-.6806641,1.2006836-1.0205078,2.5810547-1.0205078,4.1416016,0,1.5214844,.3603516,2.9018555,1.0805664,4.1416016,.7202148,1.2407227,1.6704102,2.2207031,2.8510742,2.940918,1.1796875,.7202148,2.4912109,1.0805664,3.9316406,1.0805664Z"/>
    <path class="cls-1" d="M166.7880333,64.4641847V17.6468019h6.7226562v46.8173828h-6.7226562Zm4.621582-7.6230469l-.6601562-6.4824219,15.4257812-11.8842773,4.081543,3.6015625-18.847168,14.7651367Zm8.3432617-9.4833984l11.5844727,17.1064453h-7.8032227l-8.2226562-13.2050781,4.4414062-3.9013672Z"/>
    <path class="cls-1" d="M206.1029747,65.1243409c-2.9213867,0-5.4526367-.5805664-7.5927734-1.7407227-2.1411133-1.1601562-3.7719727-2.7607422-4.8916016-4.8017578-1.1206055-2.0405273-1.6806641-4.3813477-1.6806641-7.0224609,0-2.5605469,.6396484-4.8618164,1.9204102-6.9023438,1.2802734-2.0410156,3.0107422-3.6708984,5.1923828-4.8920898,2.1801758-1.2202148,4.5913086-1.8305664,7.2324219-1.8305664,3.4814453,0,6.3520508,1.0107422,8.6132812,3.03125,2.2602539,2.0209961,3.7709961,4.8720703,4.5317383,8.5532227l-20.4677734,6.9023438-1.5004883-3.78125,15.9057617-5.7021484-1.3203125,.840332c-.440918-1.2397461-1.1611328-2.3110352-2.1606445-3.2114258-1.0009766-.9003906-2.3813477-1.3505859-4.1416016-1.3505859-1.4013672,0-2.6411133,.3408203-3.7216797,1.0205078-1.0800781,.6811523-1.9306641,1.6113281-2.5507812,2.7910156-.6206055,1.1806641-.9301758,2.5507812-.9301758,4.1118164,0,1.7207031,.3393555,3.1914062,1.0200195,4.4116211,.6801758,1.2207031,1.6000977,2.1606445,2.7612305,2.8208008,1.1601562,.6601562,2.4804688,.9902344,3.9614258,.9902344,1.0400391,0,2.0410156-.1796875,3.0009766-.5400391,.9604492-.3603516,1.8608398-.840332,2.7011719-1.4404297l3.0610352,4.9819336c-1.3203125,.840332-2.7709961,1.5107422-4.3515625,2.0107422-1.5810547,.4995117-3.1118164,.75-4.5917969,.75Z"/>
    <path class="cls-1" d="M247.3373497,29.711255c-1.5605469-.840332-3.2216797-1.550293-4.9819336-2.1308594-1.7612305-.5795898-3.4418945-.8701172-5.0415039-.8701172-2.1611328,0-3.8623047,.4799805-5.1020508,1.4404297-1.2407227,.9604492-1.8608398,2.2807617-1.8608398,3.9614258,0,1.2006836,.4296875,2.2509766,1.2905273,3.1513672,.8598633,.9003906,1.9707031,1.6806641,3.3310547,2.3408203,1.3598633,.6601562,2.8007812,1.2905273,4.3217773,1.890625,1.3203125,.4799805,2.6206055,1.050293,3.9013672,1.7104492,1.2802734,.6606445,2.4506836,1.4614258,3.5112305,2.4008789,1.0600586,.940918,1.9003906,2.1411133,2.5209961,3.6015625,.6201172,1.4609375,.9306641,3.2109375,.9306641,5.2519531,0,2.3212891-.5703125,4.4116211-1.7109375,6.2724609-1.1401367,1.8603516-2.8115234,3.3608398-5.0117188,4.5014648-2.2011719,1.140625-4.8222656,1.7104492-7.862793,1.7104492-1.8413086,0-3.6313477-.2006836-5.3720703-.6000977s-3.3911133-.9394531-4.9516602-1.6206055c-1.5610352-.6796875-3.0014648-1.5004883-4.3217773-2.4609375l3.1210938-5.4018555c.9604492,.7202148,2.0605469,1.3803711,3.3012695,1.9804688,1.2397461,.6005859,2.5107422,1.0805664,3.8115234,1.440918,1.2998047,.3598633,2.5507812,.5400391,3.7514648,.5400391,1.2001953,0,2.4306641-.2099609,3.690918-.6303711,1.2607422-.4199219,2.2905273-1.0898438,3.0913086-2.0107422,.800293-.9199219,1.2006836-2.1606445,1.2006836-3.7211914,0-1.2397461-.3603516-2.2905273-1.0805664-3.1513672-.7202148-.8598633-1.6503906-1.6206055-2.7910156-2.2807617s-2.3916016-1.25-3.7514648-1.7705078c-1.3203125-.5195312-2.7011719-1.1000977-4.1416016-1.7407227-1.4404297-.6396484-2.7709961-1.4301758-3.9912109-2.3710938-1.2211914-.9394531-2.190918-2.090332-2.9111328-3.4511719-.7202148-1.3598633-1.0805664-3.0205078-1.0805664-4.9819336,0-2.4008789,.5400391-4.4912109,1.6206055-6.2719727,1.0805664-1.7802734,2.6308594-3.190918,4.6518555-4.2319336,2.0200195-1.0400391,4.3110352-1.5996094,6.8725586-1.6806641,3.0805664,0,5.7114258,.3706055,7.8930664,1.1108398,2.1801758,.7407227,4.1308594,1.6503906,5.8520508,2.730957l-2.7011719,5.3417969Z"/>
    <path class="cls-1" d="M252.8588341,51.4993409c0-2.5600586,.609375-4.8618164,1.8305664-6.9023438,1.2202148-2.0410156,2.9111328-3.6616211,5.0717773-4.8618164,2.1611328-1.2006836,4.6416016-1.8007812,7.4428711-1.8007812,2.800293,0,5.2519531,.6000977,7.3525391,1.8007812,2.1010742,1.2001953,3.730957,2.8208008,4.8920898,4.8618164,1.1601562,2.0405273,1.7407227,4.3212891,1.7407227,6.8422852,0,2.6015625-.5805664,4.9321289-1.7407227,6.9926758-1.1611328,2.0615234-2.7910156,3.6914062-4.8920898,4.8916016-2.1005859,1.2006836-4.6123047,1.8007812-7.5327148,1.8007812-2.7216797,0-5.1523438-.550293-7.2924805-1.6503906-2.1411133-1.1000977-3.8217773-2.6708984-5.0419922-4.7119141-1.2211914-2.0405273-1.8305664-4.4614258-1.8305664-7.2626953Zm6.7822266,.0600586c0,1.5209961,.3198242,2.8808594,.9604492,4.081543,.6396484,1.2001953,1.5102539,2.1606445,2.6113281,2.8808594,1.1000977,.7202148,2.3500977,1.0805664,3.7509766,1.0805664,1.4799805,0,2.7705078-.3603516,3.871582-1.0805664,1.1000977-.7202148,1.9707031-1.6806641,2.6108398-2.8808594,.6396484-1.2006836,.9604492-2.5605469,.9604492-4.081543,0-1.5200195-.3208008-2.8808594-.9604492-4.081543-.6401367-1.2001953-1.5107422-2.1606445-2.6108398-2.8808594-1.1010742-.7202148-2.3706055-1.0805664-3.8115234-1.0805664-1.4008789,0-2.6616211,.3603516-3.78125,1.0805664-1.1206055,.7202148-2.0014648,1.690918-2.6411133,2.9111328-.640625,1.2207031-.9604492,2.5712891-.9604492,4.0512695Z"/>
    <path class="cls-1" d="M293.3734825,65.5447511c-2.2807617,0-4.1713867-.7109375-5.671875-2.1308594s-2.2915039-3.2504883-2.3710938-5.4921875v-18.847168h6.7226562v16.3862305c.0395508,1.3208008,.3798828,2.3710938,1.0205078,3.1513672,.6396484,.7802734,1.659668,1.1704102,3.0610352,1.1704102,1.3203125,0,2.4907227-.4101562,3.5112305-1.2304688,1.0205078-.8198242,1.8305664-1.9506836,2.4306641-3.3911133,.6005859-1.440918,.9003906-3.0615234,.9003906-4.8618164v-11.2246094h6.7226562v25.3896484h-6.0620117l-.5405273-5.5820312,.1801758,.840332c-.5205078,1.1611328-1.2602539,2.1811523-2.2207031,3.0610352-.9604492,.8808594-2.0810547,1.5605469-3.3613281,2.0410156-1.28125,.4799805-2.7216797,.7202148-4.3217773,.7202148Z"/>
    <path class="cls-1" d="M316.0614708,17.6468019h6.7226562v46.8173828h-6.7226562V17.6468019Z"/>
  </g>
  <path class="cls-2" d="M42.5656889,4.1258024l39.108105,19.5540525V62.7879599l-39.108105,19.5540525L3.4575839,62.7879599V23.6798549L42.5656889,4.1258024ZM18.1231232,28.568368l24.4425656,12.208246v24.9444538l-24.4425656-12.208246V28.568368Zm31.286484,28.4537561v-19.4979985l-19.5540525-9.1981166v-5.6238111l24.4425656,12.208248v24.9444538l-4.8885131-2.8327756Zm12.7101341-4.8885131v-19.4979985l-19.5540525-9.1981166v-5.6238111l24.4425656,12.208248v24.9444538l-4.8885131-2.8327756ZM42.5656889,11.4129481L9.9756014,27.7079929v31.0511845l32.5900875,16.2950437,32.5900875-16.2950437V27.7079929L42.5656889,11.4129481Z"/>
</svg>