<svg id="图层_1" data-name="图层 1" xmlns="http://www.w3.org/2000/svg" viewBox="0 0 52 52"><defs><style>.cls-1{fill:#00c1de;}</style></defs><title>开源组件图标设计-基础组件_过滤条</title><path class="cls-1" d="M12.83,30.16V40H3.05V30.16h9.78m3-3H.05V43H15.83V27.16Z"/><path class="cls-1" d="M30.94,30.16V40H21.16V30.16h9.78m3-3H18.16V43H33.94V27.16Z"/><path class="cls-1" d="M49,30.16V40H39.17V30.16H49m3-3H36.17V43H52V27.16Z"/><path class="cls-1" d="M12.83,12.05v9.79H3.05V12.05h9.78m3-3H.05V24.84H15.83V9.05Z"/><path class="cls-1" d="M30.94,12.05v9.79H21.16V12.05h9.78m3-3H18.16V24.84H33.94V9.05Z"/><path class="cls-1" d="M49,12.05v9.79H39.17V12.05H49m3-3H36.17V24.84H52V9.05Z"/></svg>