<?xml version="1.0" encoding="UTF-8"?>
<svg width="54px" height="54px" viewBox="0 0 54 54" version="1.1" xmlns="http://www.w3.org/2000/svg" xmlns:xlink="http://www.w3.org/1999/xlink">
    <!-- Generator: Sketch 60 (88103) - https://sketch.com -->
    <title>图形/容器服务</title>
    <desc>Created with Sketch.</desc>
    <defs>
        <linearGradient x1="50%" y1="0%" x2="50%" y2="68.0749974%" id="linearGradient-1">
            <stop stop-color="#E7E4F7" offset="0%"></stop>
            <stop stop-color="#CAC4EC" offset="100%"></stop>
        </linearGradient>
        <linearGradient x1="50%" y1="0%" x2="50%" y2="68.0749974%" id="linearGradient-2">
            <stop stop-color="#E7E4F7" offset="0%"></stop>
            <stop stop-color="#CAC4EC" offset="100%"></stop>
        </linearGradient>
        <linearGradient x1="50%" y1="0%" x2="50%" y2="68.0749974%" id="linearGradient-3">
            <stop stop-color="#E7E4F7" offset="0%"></stop>
            <stop stop-color="#CAC4EC" offset="100%"></stop>
        </linearGradient>
        <linearGradient x1="50%" y1="0%" x2="50%" y2="68.0749974%" id="linearGradient-4">
            <stop stop-color="#E7E4F7" offset="0%"></stop>
            <stop stop-color="#CAC4EC" offset="100%"></stop>
        </linearGradient>
        <linearGradient x1="50%" y1="0%" x2="50%" y2="68.0749974%" id="linearGradient-5">
            <stop stop-color="#E7E4F7" offset="0%"></stop>
            <stop stop-color="#CAC4EC" offset="100%"></stop>
        </linearGradient>
        <linearGradient x1="50%" y1="0%" x2="50%" y2="68.0749974%" id="linearGradient-6">
            <stop stop-color="#E7E4F7" offset="0%"></stop>
            <stop stop-color="#CAC4EC" offset="100%"></stop>
        </linearGradient>
        <linearGradient x1="50%" y1="0%" x2="50%" y2="68.0749974%" id="linearGradient-7">
            <stop stop-color="#E7E4F7" offset="0%"></stop>
            <stop stop-color="#CAC4EC" offset="100%"></stop>
        </linearGradient>
        <linearGradient x1="50%" y1="0%" x2="50%" y2="68.0749974%" id="linearGradient-8">
            <stop stop-color="#E7E4F7" offset="0%"></stop>
            <stop stop-color="#CAC4EC" offset="100%"></stop>
        </linearGradient>
    </defs>
    <g id="图形/容器服务" stroke="none" stroke-width="1" fill="none" fill-rule="evenodd">
        <g id="编组-3" transform="translate(-8.000000, -7.000000)">
            <polygon id="Path-2" fill="#FFFFFF" fill-rule="nonzero" points="33.1477445 13.5061012 8.4554 25.1226389 8.4554 43.7847347 10.3095419 46.7293963 33.1477445 57.5287294 35.2593578 57.5287294 59.4786883 45.6750854 61.1751043 43.0052418 61.1751043 26.7852848 60.491829 25.1226389 35.0004467 13.5061012"></polygon>
            <polygon id="Path-29" fill="#F6F4FE" points="35.0004467 40.7452108 60.491829 28.7852848 60.491829 45.7205936 35.0004467 57.7217293"></polygon>
            <path d="M53.3955837,10.7407369 L43.4463946,36.6476403 C43.3422214,36.918899 43.1262141,37.1321148 42.8536233,37.232751 L17.5376182,46.5790147 C17.0145904,46.7721082 16.4340594,46.5046436 16.2409659,45.9816158 C16.1582865,45.757664 16.1576483,45.511658 16.2391648,45.2872803 L25.0585925,21.0114016 C25.4241263,20.0052531 26.2106426,19.2087881 27.2121173,18.8306368 L52.0965783,9.43440286 C52.6181666,9.23745403 53.200656,9.5006263 53.3976048,10.0222146 C53.4850745,10.2538645 53.4843552,10.5095828 53.3955837,10.7407369 Z" id="Path" stroke="#E7E6F1" stroke-width="1.1124" fill-rule="nonzero" transform="translate(34.849360, 27.985942) rotate(45.000000) translate(-34.849360, -27.985942) "></path>
            <line x1="34.4880555" y1="40.794725" x2="34.4880555" y2="57.5287294" id="Line-2" stroke="#E7E6F1" stroke-width="1.1124" fill-rule="nonzero"></line>
            <path d="M46.8749745,12.3121438 L57.2015544,22.3878408 C58.3228335,23.4818787 58.7101443,25.125731 58.195231,26.6052748 L49.9661353,50.2506283 C49.5665165,51.3988867 48.6707939,52.305968 47.5276621,52.7200238 L25.3382146,60.7573043 C23.8648581,61.2909715 22.215781,60.9240357 21.1077242,59.8159789 L10.4004302,49.1086849 L10.4004302,49.1086849" id="Path" stroke="#E7E6F1" stroke-width="1.1124" fill-rule="nonzero" transform="translate(34.719735, 36.972018) rotate(45.000000) translate(-34.719735, -36.972018) "></path>
        </g>
        <g id="编组-5" transform="translate(8.000000, 2.000000)">
            <path d="M0.014812,20.624836 C0.00493733333,23.7284365 -3.55271368e-15,25.7382434 -3.55271368e-15,26.6542567 C-3.55271368e-15,28.0282767 1.5755,29.274124 2.551068,29.274124 C3.526636,29.274124 35.3615746,29.274124 36.5652106,29.274124 C37.7688466,29.274124 38.63264,28.0296567 38.63264,26.6542567 C38.63264,25.7373234 38.5532133,23.7275165 38.39436,20.624836 L35.872732,22.9408581 L13.561925,23.583096 L2.091068,23.257692 L0.014812,20.624836 Z" id="路径-6" fill="url(#linearGradient-1)"></path>
            <path d="M1.875972,8.664836 L2.091068,1.27557512 L36.362724,1.27557512 L36.62014,9.48349443 C37.3437507,7.93185548 36.7493387,7.156036 34.836904,7.156036 C31.968252,7.156036 6.091688,7.156036 4.43164,7.156036 C3.32494133,7.156036 2.473052,7.65896933 1.875972,8.664836 Z" id="路径-5" fill="url(#linearGradient-2)"></path>
            <g id="编组-4" transform="translate(4.360892, 4.723556)">
                <polygon id="Fill-27" fill="url(#linearGradient-3)" points="-4.70734562e-14 5.20444 2.30368 5.20444 2.30368 7.63833441e-14 -4.70734562e-14 7.63833441e-14"></polygon>
                <polygon id="Fill-29" fill="url(#linearGradient-4)" points="27.60736 5.20444 29.90368 5.20444 29.90368 7.63833441e-14 27.60736 7.63833441e-14"></polygon>
                <polygon id="Fill-31" fill="url(#linearGradient-5)" points="11.04736 4.28444 13.34368 4.28444 13.34368 7.63833441e-14 11.04736 7.63833441e-14"></polygon>
                <polygon id="Fill-33" fill="url(#linearGradient-5)" points="5.52736 4.28444 7.82368 4.28444 7.82368 7.63833441e-14 5.52736 7.63833441e-14"></polygon>
                <polygon id="Fill-36" fill="url(#linearGradient-5)" points="22.08736 4.28444 24.38368 4.28444 24.38368 7.63833441e-14 22.08736 7.63833441e-14"></polygon>
                <polygon id="Fill-38" fill="url(#linearGradient-6)" points="16.56 4.28444 18.86368 4.28444 18.86368 7.63833441e-14 16.56 7.63833441e-14"></polygon>
                <polygon id="Fill-39" fill="url(#linearGradient-3)" points="-4.70734562e-14 9.26624 2.30368 9.26624 2.30368 4.0618 -4.70734562e-14 4.0618"></polygon>
                <polygon id="Fill-40" fill="url(#linearGradient-4)" points="27.60736 9.26624 29.90368 9.26624 29.90368 4.0618 27.60736 4.0618"></polygon>
                <polygon id="Fill-43" fill="url(#linearGradient-4)" points="27.60736 13.33264 29.90368 13.33264 29.90368 8.1282 27.60736 8.1282"></polygon>
                <polygon id="Fill-44" fill="url(#linearGradient-3)" points="-4.70734562e-14 13.33264 2.30368 13.33264 2.30368 8.1282 -4.70734562e-14 8.1282"></polygon>
                <polygon id="Fill-45" fill="url(#linearGradient-3)" points="-4.70734562e-14 17.39996 2.30368 17.39996 2.30368 12.19552 -4.70734562e-14 12.19552"></polygon>
                <polygon id="Fill-47" fill="url(#linearGradient-4)" points="27.60736 17.39996 29.90368 17.39996 29.90368 12.19552 27.60736 12.19552"></polygon>
                <polygon id="Fill-49" fill="url(#linearGradient-7)" points="-4.70734562e-14 17.78176 2.30368 17.78176 2.30368 16.25732 -4.70734562e-14 16.25732"></polygon>
                <polygon id="Fill-51" fill="url(#linearGradient-8)" points="27.60736 17.78176 29.90368 17.78176 29.90368 16.25732 27.60736 16.25732"></polygon>
                <polygon id="Fill-53" fill="url(#linearGradient-8)" points="22.08736 17.78176 24.38368 17.78176 24.38368 16.25732 22.08736 16.25732"></polygon>
                <polygon id="Fill-55" fill="url(#linearGradient-7)" points="16.56 17.78176 18.86368 17.78176 18.86368 16.25732 16.56 16.25732"></polygon>
                <polygon id="Fill-57" fill="url(#linearGradient-8)" points="11.04736 17.78176 13.34368 17.78176 13.34368 16.25732 11.04736 16.25732"></polygon>
                <polygon id="Fill-59" fill="url(#linearGradient-8)" points="5.52736 17.78176 7.82368 17.78176 7.82368 16.25732 5.52736 16.25732"></polygon>
            </g>
            <g id="编组-2" transform="translate(4.360892, 3.094236)" fill="#5441C9">
                <polygon id="Fill-28" points="27.60736 1.62932 29.90368 1.62932 29.90368 9.23705556e-14 27.60736 9.23705556e-14"></polygon>
                <polygon id="Fill-30" points="11.04736 1.62932 13.34368 1.62932 13.34368 9.23705556e-14 11.04736 9.23705556e-14"></polygon>
                <polygon id="Fill-32" points="5.52736 1.62932 7.82368 1.62932 7.82368 9.23705556e-14 5.52736 9.23705556e-14"></polygon>
                <polygon id="Fill-34" points="-4.70734562e-14 1.62932 2.30368 1.62932 2.30368 9.23705556e-14 -4.70734562e-14 9.23705556e-14"></polygon>
                <polygon id="Fill-35" points="22.08736 1.62932 24.38368 1.62932 24.38368 9.23705556e-14 22.08736 9.23705556e-14"></polygon>
                <polygon id="Fill-37" points="16.56 1.62932 18.86368 1.62932 18.86368 9.23705556e-14 16.56 9.23705556e-14"></polygon>
                <polygon id="Fill-41" points="27.60736 5.69112 29.90368 5.69112 29.90368 4.0618 27.60736 4.0618"></polygon>
                <polygon id="Fill-42" points="-4.70734562e-14 5.69112 2.30368 5.69112 2.30368 4.0618 -4.70734562e-14 4.0618"></polygon>
                <polygon id="Fill-46" points="-4.70734562e-14 13.82576 2.30368 13.82576 2.30368 12.19644 -4.70734562e-14 12.19644"></polygon>
                <polygon id="Fill-48" points="27.60736 13.82576 29.90368 13.82576 29.90368 12.19644 27.60736 12.19644"></polygon>
                <polygon id="Fill-50" points="27.60736 17.88756 29.90368 17.88756 29.90368 16.26376 27.60736 16.26376"></polygon>
                <polygon id="Fill-52" points="22.08736 17.88756 24.38368 17.88756 24.38368 16.26376 22.08736 16.26376"></polygon>
                <polygon id="Fill-54" points="16.56 17.88756 18.86368 17.88756 18.86368 16.26376 16.56 16.26376"></polygon>
                <polygon id="Fill-56" points="11.04736 17.88756 13.34368 17.88756 13.34368 16.26376 11.04736 16.26376"></polygon>
                <polygon id="Fill-58" points="5.52736 17.88756 7.82368 17.88756 7.82368 16.26376 5.52736 16.26376"></polygon>
                <polygon id="Fill-60" points="-4.70734562e-14 17.88756 2.30368 17.88756 2.30368 16.26376 -4.70734562e-14 16.26376"></polygon>
                <polygon id="Fill-62" points="-4.70734562e-14 9.75844 2.30368 9.75844 2.30368 8.12912 -4.70734562e-14 8.12912"></polygon>
                <polygon id="Fill-63" points="27.60736 9.75844 29.90368 9.75844 29.90368 8.12912 27.60736 8.12912"></polygon>
            </g>
            <path d="M35.41632,20.98152 L35.41632,3.09396 C35.41632,2.66064 35.05016,2.35336 34.48896,2.2908 L34.26448,2.27976 L4.3608,2.27976 C3.74808,2.27976 3.3212,2.5392 3.23196,2.93572 L3.21632,3.09396 L3.21632,20.98152 C3.21632,21.42036 3.57604,21.72212 4.15196,21.78008 L4.3608,21.79572 L34.26448,21.79572 C34.87812,21.79572 35.31144,21.5372 35.39424,21.13976 L35.41632,20.98152 M38.61792,1.52352 L38.63264,1.72408 L38.63264,22.35692 C38.63264,23.2346 37.69792,23.95864 36.501,24.05984 L36.22408,24.06996 L2.40856,24.06996 C1.17484,24.06996 0.14996,23.40388 0.01564,22.55748 L-2.13162821e-14,22.35692 L-2.13162821e-14,1.72408 C-2.13162821e-14,0.8464 0.93564,0.11132 2.12428,0.01564 L2.40856,5.32907052e-15 L36.22408,5.32907052e-15 C37.45872,5.32907052e-15 38.47532,0.6716 38.61792,1.52352" id="Fill-61" fill="#5441C9"></path>
        </g>
    </g>
</svg>