<?xml version="1.0" encoding="UTF-8"?>
<svg width="54px" height="54px" viewBox="0 0 54 54" version="1.1" xmlns="http://www.w3.org/2000/svg" xmlns:xlink="http://www.w3.org/1999/xlink">
    <!-- Generator: Sketch 60 (88103) - https://sketch.com -->
    <title>图形/edas-1</title>
    <desc>Created with Sketch.</desc>
    <defs>
        <linearGradient x1="50%" y1="0%" x2="50%" y2="68.0749974%" id="linearGradient-1">
            <stop stop-color="#EFEEF8" offset="0%"></stop>
            <stop stop-color="#E8E6F2" offset="100%"></stop>
        </linearGradient>
        <linearGradient x1="50%" y1="0%" x2="50%" y2="68.0749974%" id="linearGradient-2">
            <stop stop-color="#EFEEF8" offset="0%"></stop>
            <stop stop-color="#F1F0F7" offset="100%"></stop>
        </linearGradient>
        <linearGradient x1="50%" y1="0%" x2="50%" y2="68.0749974%" id="linearGradient-3">
            <stop stop-color="#EFEEF8" offset="0%"></stop>
            <stop stop-color="#E8E6F2" offset="100%"></stop>
        </linearGradient>
    </defs>
    <g id="图形/edas-1" stroke="none" stroke-width="1" fill="none" fill-rule="evenodd">
        <g id="编组-3" transform="translate(-8.000000, -7.000000)">
            <polygon id="Path-2" fill="#FFFFFF" fill-rule="nonzero" points="33.1477445 13.5061012 8.4554 25.1226389 8.4554 43.7847347 10.3095419 46.7293963 33.1477445 57.5287294 35.2593578 57.5287294 59.4786883 45.6750854 61.1751043 43.0052418 61.1751043 26.7852848 60.491829 25.1226389 35.0004467 13.5061012"></polygon>
            <polygon id="Path-29" fill="#F7F6FD" points="35.0004467 40.7452108 60.491829 28.7852848 60.491829 45.7205936 35.0004467 57.7217293"></polygon>
            <path d="M53.3955837,10.7407369 L43.4463946,36.6476403 C43.3422214,36.918899 43.1262141,37.1321148 42.8536233,37.232751 L17.5376182,46.5790147 C17.0145904,46.7721082 16.4340594,46.5046436 16.2409659,45.9816158 C16.1582865,45.757664 16.1576483,45.511658 16.2391648,45.2872803 L25.0585925,21.0114016 C25.4241263,20.0052531 26.2106426,19.2087881 27.2121173,18.8306368 L52.0965783,9.43440286 C52.6181666,9.23745403 53.200656,9.5006263 53.3976048,10.0222146 C53.4850745,10.2538645 53.4843552,10.5095828 53.3955837,10.7407369 Z" id="Path" stroke="#E7E6F1" stroke-width="1.1124" fill-rule="nonzero" transform="translate(34.849360, 27.985942) rotate(45.000000) translate(-34.849360, -27.985942) "></path>
            <line x1="34.4880555" y1="40.794725" x2="34.4880555" y2="57.5287294" id="Line-2" stroke="#E7E6F1" stroke-width="1.1124" fill-rule="nonzero"></line>
            <path d="M46.8749745,12.3121438 L57.2015544,22.3878408 C58.3228335,23.4818787 58.7101443,25.125731 58.195231,26.6052748 L49.9661353,50.2506283 C49.5665165,51.3988867 48.6707939,52.305968 47.5276621,52.7200238 L25.3382146,60.7573043 C23.8648581,61.2909715 22.215781,60.9240357 21.1077242,59.8159789 L10.4004302,49.1086849 L10.4004302,49.1086849" id="Path" stroke="#E7E6F1" stroke-width="1.1124" fill-rule="nonzero" transform="translate(34.719735, 36.972018) rotate(45.000000) translate(-34.719735, -36.972018) "></path>
        </g>
        <g id="编组" transform="translate(2.200000, 0.000000)">
            <g id="编组-2备份-2" transform="translate(12.700000, 0.500000)">
                <path d="M4.07417241,10.8939224 L9.07381761,6.98724865 C10.4814294,5.88735456 12.4477196,5.85414361 13.8916727,6.90587432 L19.3669854,10.8939224 L19.3669854,10.8939224 L20.7860204,6.63530172 L14.4924983,2.36629544 L11.3694155,1.16528333 L8.86250489,1.89392241 L2.47601734,7.44815345 L4.07417241,10.8939224 Z" id="路径-4" fill="url(#linearGradient-1)"></path>
                <path d="M0.11047931,7.90993793 L0.106503181,13.1314578 C0.105471154,14.4867335 0.79076488,15.7503517 1.92723965,16.4887273 L8.53569645,20.7822876 C10.1467443,21.8289966 12.215049,21.8600419 13.8567863,20.8621572 L21.0334806,16.5000015 C22.2509393,15.7600028 22.9829011,14.4282972 22.9551101,13.0038565 L22.854069,7.8249569 L22.854069,7.8249569 L13.4827586,14.5663362 L7.29583793,14.5663362 L0.11047931,7.90993793 Z" id="路径-3" fill="url(#linearGradient-2)"></path>
                <path d="M18.2317034,9.24441379 C19.1374276,8.60398276 19.160031,7.57136207 18.2927724,6.90991379 L18.2317034,6.8647069 L13.1859793,3.29653448 C12.957169,3.13474138 12.6894966,3.01418966 12.4059621,2.93210345 C12.2996862,2.89998276 12.186669,2.90236207 12.0768241,2.88412069 C11.8932207,2.85001724 11.7127897,2.80877586 11.5224448,2.8067931 C10.9002552,2.81789655 10.3296172,2.95946552 9.88468621,3.25331034 L9.82044483,3.29653448 L4.77154828,6.8647069 C3.86225517,7.5095 3.84282414,8.54013793 4.71008276,9.19881034 L4.77154828,9.24441379 L9.82044483,12.814569 C10.0492552,12.9787414 10.3169276,13.0996897 10.6004621,13.1813793 C10.6520138,13.1952586 10.7067379,13.1928793 10.7551172,13.2043793 C10.9970138,13.2614828 11.2420828,13.3047069 11.4934966,13.3047069 C12.0998241,13.3003448 12.6704621,13.1563966 13.1217379,12.8601724 L13.1859793,12.814569 L18.2317034,9.24441379 L18.2317034,9.24441379 Z M21.0333414,4.88313793 C23.5157552,6.6362931 23.5157552,9.47481034 21.0333414,11.227569 L15.9876172,14.7977241 C15.3686,15.2355172 14.6532207,15.5638621 13.8890655,15.7827586 C13.1249103,16.0016552 12.3155483,16.1107069 11.5030138,16.1107069 C10.6904793,16.1107069 9.87834138,16.0016552 9.11418621,15.7827586 C8.35003103,15.5638621 7.63425517,15.2355172 7.01523793,14.7977241 L1.96991034,11.227569 C-0.509331034,9.47481034 -0.509331034,6.6362931 1.96991034,4.88313793 L7.01523793,1.31337931 C7.63425517,0.875586207 8.35003103,0.547241379 9.11418621,0.328741379 C9.87834138,0.109844828 10.6904793,-7.10542736e-14 11.5030138,-7.10542736e-14 C12.3155483,-7.10542736e-14 13.1249103,0.109844828 13.8890655,0.328741379 C14.6532207,0.547241379 15.3686,0.875586207 15.9876172,1.31337931 L21.0333414,4.88313793 Z" id="Fill-77" fill="#CECBE1"></path>
            </g>
            <g id="编组-2" transform="translate(0.100000, 12.000000)">
                <path d="M4.07417241,10.8939224 L9.07381761,6.98724865 C10.4814294,5.88735456 12.4477196,5.85414361 13.8916727,6.90587432 L19.3669854,10.8939224 L19.3669854,10.8939224 L20.7860204,6.63530172 L14.4924983,2.36629544 L11.3694155,1.16528333 L8.86250489,1.89392241 L2.47601734,7.44815345 L4.07417241,10.8939224 Z" id="路径-4" fill="url(#linearGradient-1)"></path>
                <path d="M0.11047931,7.90993793 L0.107117466,11.130727 C0.105702418,12.4864031 0.791042119,13.7505318 1.92785292,14.4891257 L8.53569645,18.7822876 C10.1467443,19.8289966 12.215049,19.8600419 13.8567863,18.8621572 L21.0172579,14.509862 C22.2434083,13.7645803 22.9764296,12.4196312 22.9382308,10.9852567 L22.854069,7.8249569 L22.854069,7.8249569 L13.4827586,14.5663362 L7.29583793,14.5663362 L0.11047931,7.90993793 Z" id="路径-3" fill="url(#linearGradient-3)"></path>
                <path d="M18.2317034,9.24441379 C19.1374276,8.60398276 19.160031,7.57136207 18.2927724,6.90991379 L18.2317034,6.8647069 L13.1859793,3.29653448 C12.957169,3.13474138 12.6894966,3.01418966 12.4059621,2.93210345 C12.2996862,2.89998276 12.186669,2.90236207 12.0768241,2.88412069 C11.8932207,2.85001724 11.7127897,2.80877586 11.5224448,2.8067931 C10.9002552,2.81789655 10.3296172,2.95946552 9.88468621,3.25331034 L9.82044483,3.29653448 L4.77154828,6.8647069 C3.86225517,7.5095 3.84282414,8.54013793 4.71008276,9.19881034 L4.77154828,9.24441379 L9.82044483,12.814569 C10.0492552,12.9787414 10.3169276,13.0996897 10.6004621,13.1813793 C10.6520138,13.1952586 10.7067379,13.1928793 10.7551172,13.2043793 C10.9970138,13.2614828 11.2420828,13.3047069 11.4934966,13.3047069 C12.0998241,13.3003448 12.6704621,13.1563966 13.1217379,12.8601724 L13.1859793,12.814569 L18.2317034,9.24441379 L18.2317034,9.24441379 Z M21.0333414,4.88313793 C23.5157552,6.6362931 23.5157552,9.47481034 21.0333414,11.227569 L15.9876172,14.7977241 C15.3686,15.2355172 14.6532207,15.5638621 13.8890655,15.7827586 C13.1249103,16.0016552 12.3155483,16.1107069 11.5030138,16.1107069 C10.6904793,16.1107069 9.87834138,16.0016552 9.11418621,15.7827586 C8.35003103,15.5638621 7.63425517,15.2355172 7.01523793,14.7977241 L1.96991034,11.227569 C-0.509331034,9.47481034 -0.509331034,6.6362931 1.96991034,4.88313793 L7.01523793,1.31337931 C7.63425517,0.875586207 8.35003103,0.547241379 9.11418621,0.328741379 C9.87834138,0.109844828 10.6904793,-7.10542736e-14 11.5030138,-7.10542736e-14 C12.3155483,-7.10542736e-14 13.1249103,0.109844828 13.8890655,0.328741379 C14.6532207,0.547241379 15.3686,0.875586207 15.9876172,1.31337931 L21.0333414,4.88313793 Z" id="Fill-77" fill="#CECBE1"></path>
            </g>
            <g id="编组-2备份" transform="translate(26.000000, 12.000000)">
                <path d="M4.07417241,10.8939224 L9.07381761,6.98724865 C10.4814294,5.88735456 12.4477196,5.85414361 13.8916727,6.90587432 L19.3669854,10.8939224 L19.3669854,10.8939224 L20.7860204,6.63530172 L14.4924983,2.36629544 L11.3694155,1.16528333 L8.86250489,1.89392241 L2.47601734,7.44815345 L4.07417241,10.8939224 Z" id="路径-4" fill="url(#linearGradient-1)"></path>
                <path d="M0.11047931,7.90993793 L0.107117466,11.130727 C0.105702418,12.4864031 0.791042119,13.7505318 1.92785292,14.4891257 L8.53569645,18.7822876 C10.1467443,19.8289966 12.215049,19.8600419 13.8567863,18.8621572 L21.0172579,14.509862 C22.2434083,13.7645803 22.9764296,12.4196312 22.9382308,10.9852567 L22.854069,7.8249569 L22.854069,7.8249569 L13.4827586,14.5663362 L7.29583793,14.5663362 L0.11047931,7.90993793 Z" id="路径-3" fill="url(#linearGradient-3)"></path>
                <path d="M18.2317034,9.24441379 C19.1374276,8.60398276 19.160031,7.57136207 18.2927724,6.90991379 L18.2317034,6.8647069 L13.1859793,3.29653448 C12.957169,3.13474138 12.6894966,3.01418966 12.4059621,2.93210345 C12.2996862,2.89998276 12.186669,2.90236207 12.0768241,2.88412069 C11.8932207,2.85001724 11.7127897,2.80877586 11.5224448,2.8067931 C10.9002552,2.81789655 10.3296172,2.95946552 9.88468621,3.25331034 L9.82044483,3.29653448 L4.77154828,6.8647069 C3.86225517,7.5095 3.84282414,8.54013793 4.71008276,9.19881034 L4.77154828,9.24441379 L9.82044483,12.814569 C10.0492552,12.9787414 10.3169276,13.0996897 10.6004621,13.1813793 C10.6520138,13.1952586 10.7067379,13.1928793 10.7551172,13.2043793 C10.9970138,13.2614828 11.2420828,13.3047069 11.4934966,13.3047069 C12.0998241,13.3003448 12.6704621,13.1563966 13.1217379,12.8601724 L13.1859793,12.814569 L18.2317034,9.24441379 L18.2317034,9.24441379 Z M21.0333414,4.88313793 C23.5157552,6.6362931 23.5157552,9.47481034 21.0333414,11.227569 L15.9876172,14.7977241 C15.3686,15.2355172 14.6532207,15.5638621 13.8890655,15.7827586 C13.1249103,16.0016552 12.3155483,16.1107069 11.5030138,16.1107069 C10.6904793,16.1107069 9.87834138,16.0016552 9.11418621,15.7827586 C8.35003103,15.5638621 7.63425517,15.2355172 7.01523793,14.7977241 L1.96991034,11.227569 C-0.509331034,9.47481034 -0.509331034,6.6362931 1.96991034,4.88313793 L7.01523793,1.31337931 C7.63425517,0.875586207 8.35003103,0.547241379 9.11418621,0.328741379 C9.87834138,0.109844828 10.6904793,-7.10542736e-14 11.5030138,-7.10542736e-14 C12.3155483,-7.10542736e-14 13.1249103,0.109844828 13.8890655,0.328741379 C14.6532207,0.547241379 15.3686,0.875586207 15.9876172,1.31337931 L21.0333414,4.88313793 Z" id="Fill-77" fill="#CECBE1"></path>
            </g>
        </g>
    </g>
</svg>