<?xml version="1.0" encoding="utf-8"?>
<!-- Generator: Adobe Illustrator 21.1.0, SVG Export Plug-In . SVG Version: 6.00 Build 0)  -->
<svg version="1.1" id="图层_1" xmlns="http://www.w3.org/2000/svg" xmlns:xlink="http://www.w3.org/1999/xlink" x="0px" y="0px"
	 viewBox="0 0 54 54" style="enable-background:new 0 0 54 54;" xml:space="preserve">
<style type="text/css">
	.st0{fill:#FFFFFF;}
	.st1{fill:#F6F4FE;}
	.st2{fill:none;stroke:#E7E6F1;stroke-width:1.1124;}
	.st3{fill:url(#路径-11_1_);}
	.st4{fill:url(#路径-12_1_);}
	.st5{fill:url(#路径-13_1_);}
	.st6{fill:url(#路径-14_1_);}
	.st7{fill:url(#路径-15_1_);}
	.st8{fill:url(#路径-9_1_);}
	.st9{fill:url(#路径-10_1_);}
	.st10{fill:url(#路径-8_1_);}
	.st11{fill:url(#形状结合_3_);}
	.st12{fill:url(#形状结合_4_);}
	.st13{fill:url(#Fill-85_1_);}
	.st14{fill:url(#Fill-87_1_);}
	.st15{fill:url(#Fill-103_1_);}
	.st16{fill:url(#Fill-104_1_);}
	.st17{fill:url(#Clip-112_1_);}
	.st18{fill:url(#Clip-114_1_);}
	.st19{filter:url(#Adobe_OpacityMaskFilter);}
	.st20{mask:url(#mask-22);fill:#3D315C;}
	.st21{filter:url(#Adobe_OpacityMaskFilter_1_);}
	.st22{mask:url(#mask-24);fill:#372C52;}
	.st23{filter:url(#Adobe_OpacityMaskFilter_2_);}
	.st24{mask:url(#mask-26);fill:#392D55;}
	.st25{filter:url(#Adobe_OpacityMaskFilter_3_);}
	.st26{mask:url(#mask-28);fill:#3B2F58;}
	.st27{fill:url(#Fill-256_1_);}
	.st28{fill:url(#形状结合_5_);}
	.st29{fill:url(#Clip-136_1_);}
	.st30{fill:url(#Clip-136备份_1_);}
	.st31{fill:url(#Fill-154_1_);}
	.st32{fill:url(#Fill-154备份_1_);}
	.st33{fill:url(#Fill-254_1_);}
	.st34{fill:url(#Fill-255_1_);}
	.st35{fill:#6A549E;}
</style>
<g>
	<path id="path-37" class="st0" d="M21,26v6.9c-0.2,0.1-0.4,0.1-0.6,0.3v-6.9"/>
</g>
<g>
	<path id="path-12" class="st0" d="M13.4,8.4c0.2,0.1,0.2,0.3,0.2,0.5v6.9c0-0.2,0-0.3-0.2-0.5"/>
</g>
<g>
	<path id="path-10" class="st0" d="M12.3,10.1c0.7,0.3,1.3,0.6,1.7,0.9v6.9c-0.5-0.3-1-0.6-1.7-0.9"/>
</g>
<title>图形/k8s</title>
<desc>Created with Sketch.</desc>
<polygon id="Path-2" class="st0" points="25.8,8.9 0.5,20.4 0.5,36.8 2.3,39.7 25.1,50.5 27.3,50.5 51.5,38.7 53.2,36 53.2,21.8 
	52.5,20.1 27.7,8.9 "/>
<polygon id="Path-29" class="st1" points="27,33.7 52.5,21.8 52.5,38.7 27,50.7 "/>
<path id="Path" class="st2" d="M52.2,21.9L26.8,33.2c-0.3,0.1-0.6,0.1-0.8,0L1.5,21.9C1,21.7,0.7,21.1,1,20.6
	c0.1-0.2,0.3-0.4,0.5-0.5L24.9,9.1c1-0.5,2.1-0.5,3.1,0l24.2,11c0.5,0.2,0.7,0.8,0.5,1.3C52.6,21.6,52.4,21.8,52.2,21.9z"/>
<line id="Line-2" class="st2" x1="26.5" y1="33.8" x2="26.5" y2="50.5"/>
<path id="Path_1_" class="st2" d="M52.8,21.1l0.2,14.4c0,1.6-0.9,3-2.3,3.7L28.1,50.1c-1.1,0.5-2.4,0.5-3.5,0l-21.4-10
	c-1.4-0.7-2.3-2.1-2.3-3.7l0-15.1l0,0"/>
<linearGradient id="路径-11_1_" gradientUnits="userSpaceOnUse" x1="-312.403" y1="367.6825" x2="-312.403" y2="367.0018" gradientTransform="matrix(6.2947 0 0 -6.1674 1975.642 2285.5037)">
	<stop  offset="0" style="stop-color:#E7E4F7"/>
	<stop  offset="1" style="stop-color:#CAC4EC"/>
</linearGradient>
<path id="路径-11" class="st3" d="M6,18.5c0,2.9,0,4.5,0,4.6c0,0.2,0.2,1,1.4,0.9c1.2-0.2,3.3-0.9,3.7-0.8c0.2,0,0.4,0.1,0.5,0.2
	l0.7-0.1v-5l-1.6-0.5L6,18.5z"/>
<linearGradient id="路径-12_1_" gradientUnits="userSpaceOnUse" x1="-286.9127" y1="383.3086" x2="-286.9127" y2="382.6279" gradientTransform="matrix(4.3978 0 0 -8.3238 1280.8923 3215.9878)">
	<stop  offset="0" style="stop-color:#E7E4F7"/>
	<stop  offset="1" style="stop-color:#CAC4EC"/>
</linearGradient>
<path id="路径-12" class="st4" d="M16.9,28.1c0,2.7,0,4.4,0,4.8c0,0.7,0.6,0.8,1.1,0.8c0.4,0,1.2-0.5,1.5-1.2
	c0.3-0.7,0.6-1.8,1-1.8c0.2,0,0.4-0.1,0.5-0.1l0.3-0.4v-4.8L16.9,28.1z"/>
<linearGradient id="路径-13_1_" gradientUnits="userSpaceOnUse" x1="-337.5116" y1="365.3168" x2="-337.5116" y2="364.6361" gradientTransform="matrix(10.9449 0 0 -5.9346 3720.7576 2193.1748)">
	<stop  offset="0" style="stop-color:#E7E4F7"/>
	<stop  offset="1" style="stop-color:#CAC4EC"/>
</linearGradient>
<path id="路径-13" class="st5" d="M21.3,25.2l0,5.2c1.6,0.5,3.4,0.8,5.3,0.8s3.8-0.3,5.5-0.8l0.1-4.9L21.3,25.2z"/>
<linearGradient id="路径-14_1_" gradientUnits="userSpaceOnUse" x1="-287.5916" y1="388.2383" x2="-287.5916" y2="385.8808" gradientTransform="matrix(4.4334 0 0 -9.0469 1309.2134 3524.8325)">
	<stop  offset="0" style="stop-color:#E7E4F7"/>
	<stop  offset="1" style="stop-color:#C0BAE3"/>
</linearGradient>
<path id="路径-14" class="st6" d="M36.4,28.1c0,3,0,4.5,0,4.7c0,0.3-0.2,1.1-1.2,1c-1-0.1-1.2-0.7-1.5-1.2c-0.2-0.6-1-1.7-1.1-1.8
	c-0.1-0.1-0.2-0.1-0.4-0.1L32,30.2l0.1-4.8l1.7-0.7L36.4,28.1z"/>
<linearGradient id="路径-15_1_" gradientUnits="userSpaceOnUse" x1="-311.1192" y1="366.5638" x2="-311.1192" y2="364.2063" gradientTransform="matrix(6.1609 0 0 -5.9242 1960.8827 2181.5979)">
	<stop  offset="0" style="stop-color:#E7E4F7"/>
	<stop  offset="1" style="stop-color:#C0BAE3"/>
</linearGradient>
<path id="路径-15" class="st7" d="M47.1,18.6c0,3.1,0.1,4.7,0.1,4.7c0,0-0.2,0.7-1,0.7s-1.6-0.3-1.9-0.4c-0.3-0.1-1.8-0.5-2.1-0.4
	c-0.2,0-0.4,0.1-0.6,0.1l-0.6,0l0-5l0.9-0.2l4.2,0.7L47.1,18.6z"/>
<linearGradient id="路径-9_1_" gradientUnits="userSpaceOnUse" x1="-214.7791" y1="342.163" x2="-214.7791" y2="341.4823" gradientTransform="matrix(2.3736 0 0 -4.3338 536.3115 1483.7867)">
	<stop  offset="0" style="stop-color:#E7E4F7"/>
	<stop  offset="1" style="stop-color:#CAC4EC"/>
</linearGradient>
<polygon id="路径-9" class="st8" points="25.3,0.9 25.3,5.3 27.7,5.2 27.7,1 "/>
<linearGradient id="路径-10_1_" gradientUnits="userSpaceOnUse" x1="-351.9499" y1="359.6765" x2="-351.9499" y2="358.9957" gradientTransform="matrix(19.0281 0 0 -5.4447 6723.3398 1963.8114)">
	<stop  offset="0" style="stop-color:#E7E4F7"/>
	<stop  offset="1" style="stop-color:#CAC4EC"/>
</linearGradient>
<path id="路径-10" class="st9" d="M16.9,8.9l7.8-3.4H28l7.6,2l0.3,1.7l-2.8,1.5c-2.1-1.2-4.3-1.8-6.7-1.8s-4.6,0.7-6.7,2L16.9,8.9
	z"/>
<linearGradient id="路径-8_1_" gradientUnits="userSpaceOnUse" x1="-292.6156" y1="368.1669" x2="-292.6156" y2="365.8094" gradientTransform="matrix(4.7158 0 0 -6.0794 1420.72 2236.2393)">
	<stop  offset="0" style="stop-color:#E7E4F7"/>
	<stop  offset="1" style="stop-color:#C0BAE3"/>
</linearGradient>
<path id="路径-8" class="st10" d="M43.1,6.3c0,3,0,4.6,0,4.7c0,0.2-0.1,0.9-1.8,1.3c-1.1,0.3-2.1-0.8-3-3.2l1.8-1.4L43.1,6.3z"/>
<linearGradient id="形状结合_3_" gradientUnits="userSpaceOnUse" x1="-280.4628" y1="379.1914" x2="-280.4628" y2="378.5106" gradientTransform="matrix(4.0862 0 0 -7.6216 1157.9344 2896.2339)">
	<stop  offset="0" style="stop-color:#E7E4F7"/>
	<stop  offset="1" style="stop-color:#CAC4EC"/>
</linearGradient>
<path id="形状结合" class="st11" d="M10.4,11.7L10.4,11.7c-0.4-0.2-0.6-0.5-0.6-0.8V6.2c0,0.3,0.2,0.6,0.6,0.8l0,0l0.2,0.1v0
	c0.2,0.1,0.4,0.2,0.7,0.3c0.1,0,0.2,0.1,0.3,0.1l0,0c0.6,0.3,1.1,0.5,1.5,0.7l0.2,0.1c0.2,0.1,0.2,0.2,0.2,0.4l0,0.1l0.4,0.3v4.7
	l-0.4-0.3c0-0.2,0-0.3-0.2-0.5c-0.5-0.3-1-0.6-1.7-0.9c-0.1-0.1-0.2-0.1-0.3-0.1l0,0c-0.2-0.1-0.4-0.2-0.7-0.3v0L10.4,11.7z"/>
<linearGradient id="形状结合_4_" gradientUnits="userSpaceOnUse" x1="-296.4125" y1="375.3987" x2="-296.4125" y2="374.718" gradientTransform="matrix(4.9542 0 0 -7.0721 1487.0739 2665.6174)">
	<stop  offset="0" style="stop-color:#E7E4F7"/>
	<stop  offset="1" style="stop-color:#CAC4EC"/>
</linearGradient>
<path id="形状结合_1_" class="st12" d="M16.1,14.3v-3.5l4.6,3c0.2,0.1,0.3,0.3,0.3,0.6v3.5c0-0.2-0.1-0.4-0.3-0.6L16.1,14.3z"/>
<linearGradient id="Fill-85_1_" gradientUnits="userSpaceOnUse" x1="-300.2747" y1="371.6132" x2="-300.2747" y2="370.9324" gradientTransform="matrix(5.2229 0 0 -6.5973 1602.4716 2462.4065)">
	<stop  offset="0" style="stop-color:#E7E4F7"/>
	<stop  offset="1" style="stop-color:#CAC4EC"/>
</linearGradient>
<path id="Fill-85" class="st13" d="M36.8,10.8v3.5l-4.7,3.1c-0.3,0-0.5-0.6-0.5-1.7s0-1.9,0.2-2.3L36.8,10.8z"/>
<linearGradient id="Fill-87_1_" gradientUnits="userSpaceOnUse" x1="-175.6759" y1="374.4141" x2="-175.6759" y2="373.7333" gradientTransform="matrix(1.8997 0 0 -6.9421 360.1778 2613.1975)">
	<stop  offset="0" style="stop-color:#E7E4F7"/>
	<stop  offset="1" style="stop-color:#CAC4EC"/>
</linearGradient>
<polygon id="Fill-87" class="st14" points="25.5,20.9 27.4,20.9 27.4,14 25.5,14 "/>
<linearGradient id="Fill-103_1_" gradientUnits="userSpaceOnUse" x1="-50.7217" y1="382.4045" x2="-50.7217" y2="379.8235" gradientTransform="matrix(1.1597 0 0 -8.0122 86.8031 3071.198)">
	<stop  offset="0" style="stop-color:#E8E3FF"/>
	<stop  offset="1" style="stop-color:#AEA7DA"/>
</linearGradient>
<polygon id="Fill-103" class="st15" points="28.6,15 28.6,22 27.4,20.9 27.4,14 "/>
<linearGradient id="Fill-104_1_" gradientUnits="userSpaceOnUse" x1="-50.7217" y1="381.5709" x2="-50.7217" y2="380.8901" gradientTransform="matrix(1.1597 0 0 -8.0122 83.7441 3071.1987)">
	<stop  offset="0" style="stop-color:#E7E4F7"/>
	<stop  offset="1" style="stop-color:#CAC4EC"/>
</linearGradient>
<polygon id="Fill-104" class="st16" points="25.5,14 25.5,20.9 24.3,22 24.3,15 "/>
<linearGradient id="Clip-112_1_" gradientUnits="userSpaceOnUse" x1="-163.0161" y1="382.7423" x2="-163.0161" y2="382.0616" gradientTransform="matrix(1.7843 0 0 -8.2196 306.083 3156.76)">
	<stop  offset="0" style="stop-color:#E7E4F7"/>
	<stop  offset="1" style="stop-color:#CAC4EC"/>
</linearGradient>
<path id="Clip-112" class="st17" d="M16.1,10.8v3.5c-1.2,1.4-1.8,3-1.8,4.7v-3.5C14.3,13.8,14.9,12.2,16.1,10.8z"/>
<linearGradient id="Clip-114_1_" gradientUnits="userSpaceOnUse" x1="-164.2986" y1="383.7376" x2="-164.2986" y2="381.1565" gradientTransform="matrix(1.7954 0 0 -8.2491 332.6622 3169.3657)">
	<stop  offset="0" style="stop-color:#E8E3FF"/>
	<stop  offset="1" style="stop-color:#AEA7DA"/>
</linearGradient>
<path id="Clip-114" class="st18" d="M36.8,10.8c0.7,0.8,1.2,1.7,1.5,2.7c0.2,0.7,0.3,1.4,0.3,2V19c0-0.7-0.5-1.1-0.7-1.7
	c-0.3-1-0.4-2.2-1-3V10.8z"/>
<defs>
	<filter id="Adobe_OpacityMaskFilter" filterUnits="userSpaceOnUse" x="41.6" y="15.4" width="0" height="7.2">
		<feColorMatrix  type="matrix" values="1 0 0 0 0  0 1 0 0 0  0 0 1 0 0  0 0 0 1 0"/>
	</filter>
</defs>
<mask maskUnits="userSpaceOnUse" x="41.6" y="15.4" width="0" height="7.2" id="mask-22">
	<g class="st19">
		<path id="path-21" class="st0" d="M41.6,15.4v6.9c0,0.5,0,1-0.1,1.4v-6.9"/>
	</g>
</mask>
<path id="Fill-117" class="st20" d="M41.6,15.4v6.9c0,0.1,0,0.1,0,0.2v-6.9C41.6,15.6,41.6,15.5,41.6,15.4"/>
<defs>
	<filter id="Adobe_OpacityMaskFilter_1_" filterUnits="userSpaceOnUse" x="21.6" y="17.7" width="0.6" height="7.4">
		<feColorMatrix  type="matrix" values="1 0 0 0 0  0 1 0 0 0  0 0 1 0 0  0 0 0 1 0"/>
	</filter>
</defs>
<mask maskUnits="userSpaceOnUse" x="21.6" y="17.7" width="0.6" height="7.4" id="mask-24">
	<g class="st21">
		<path id="path-23" class="st0" d="M21.3,17.6C21.3,17.6,21.3,17.6,21.3,17.6C21.3,17.6,21.4,17.6,21.3,17.6l0.1,0l0,0l0,0l0,0l0,0
			l0.1,0l0,0c0,0,0,0,0,0c0,0,0,0,0,0c0,0,0,0,0,0c0,0,0,0,0,0c0,0,0,0,0,0l0,0c0,0,0,0,0,0c0,0,0,0,0,0l0,0l0,0l0,0l0,0
			c0,0,0,0,0,0l0,0l0,0c0,0,0,0,0,0c0,0,0,0,0,0s0,0,0,0c0,0,0,0,0,0c0,0,0,0,0,0l0,0c0,0,0,0,0,0c0,0,0,0,0,0V25l0,0l0,0
			c0,0,0,0,0,0l0,0l0,0c0,0,0,0,0,0l0,0c0,0,0,0,0,0s0,0,0,0c0,0,0,0,0,0l0,0l0,0c0,0,0,0,0,0c0,0,0,0,0,0l0,0l0,0c0,0,0,0,0,0
			c0,0,0,0,0,0l0,0c0,0,0,0,0,0l0,0c0,0,0,0,0,0s0,0,0,0l0,0l0,0l0,0c0,0,0,0,0,0l0,0c0,0,0,0,0,0c0,0,0,0,0,0c0,0,0,0,0,0
			c0,0-0.1,0-0.1,0L21.3,17.6"/>
	</g>
</mask>
<path id="Fill-129" class="st22" d="M22.2,18.1V25c0,0,0,0,0,0c0,0,0,0,0,0c0,0,0,0,0,0c0,0,0,0,0,0l0,0c0,0,0,0,0,0c0,0,0,0,0,0
	c0,0,0,0,0,0c0,0,0,0,0,0c0,0,0,0,0,0c0,0,0,0,0,0l0,0l0,0c0,0,0,0,0,0c0,0,0,0,0,0l0,0c0,0,0,0,0,0c0,0,0,0,0,0c0,0,0,0,0,0v-6.9
	c0,0,0,0,0,0c0,0,0,0,0,0c0,0,0,0,0,0l0,0c0,0,0,0,0,0c0,0,0,0,0,0l0,0l0,0c0,0,0,0,0,0c0,0,0,0,0,0c0,0,0,0,0,0c0,0,0,0,0,0
	c0,0,0,0,0,0c0,0,0,0,0,0c0,0,0,0,0,0C22.2,18,22.2,18,22.2,18.1L22.2,18.1C22.2,18,22.2,18.1,22.2,18.1
	C22.2,18.1,22.2,18.1,22.2,18.1"/>
<defs>
	<filter id="Adobe_OpacityMaskFilter_2_" filterUnits="userSpaceOnUse" x="21.5" y="17.6" width="0.2" height="7">
		<feColorMatrix  type="matrix" values="1 0 0 0 0  0 1 0 0 0  0 0 1 0 0  0 0 0 1 0"/>
	</filter>
</defs>
<mask maskUnits="userSpaceOnUse" x="21.5" y="17.6" width="0.2" height="7" id="mask-26">
	<g class="st23">
		<path id="path-25" class="st0" d="M21.3,17.6C21.3,17.6,21.3,17.6,21.3,17.6C21.3,17.6,21.4,17.6,21.3,17.6l0.1,0l0,0l0,0l0,0l0,0
			l0.1,0l0,0c0,0,0,0,0,0c0,0,0,0,0,0c0,0,0,0,0,0c0,0,0,0,0,0c0,0,0,0,0,0l0,0c0,0,0,0,0,0c0,0,0,0,0,0l0,0l0,0l0,0l0,0
			c0,0,0,0,0,0l0,0l0,0c0,0,0,0,0,0c0,0,0,0,0,0s0,0,0,0c0,0,0,0,0,0c0,0,0,0,0,0l0,0c0,0,0,0,0,0c0,0,0,0,0,0V25l0,0l0,0
			c0,0,0,0,0,0l0,0l0,0c0,0,0,0,0,0l0,0c0,0,0,0,0,0s0,0,0,0c0,0,0,0,0,0l0,0l0,0c0,0,0,0,0,0c0,0,0,0,0,0l0,0l0,0c0,0,0,0,0,0
			c0,0,0,0,0,0l0,0c0,0,0,0,0,0l0,0c0,0,0,0,0,0s0,0,0,0l0,0l0,0l0,0c0,0,0,0,0,0l0,0c0,0,0,0,0,0c0,0,0,0,0,0c0,0,0,0,0,0
			c0,0-0.1,0-0.1,0L21.3,17.6"/>
	</g>
</mask>
<path id="Fill-131" class="st24" d="M21.6,17.7v6.9c0,0,0,0,0,0c0,0,0,0,0,0c0,0,0,0,0,0c0,0,0,0,0,0c0,0,0,0,0,0v-6.9c0,0,0,0,0,0
	C21.5,17.6,21.5,17.6,21.6,17.7C21.6,17.7,21.6,17.7,21.6,17.7C21.6,17.7,21.6,17.7,21.6,17.7C21.6,17.7,21.6,17.7,21.6,17.7"/>
<defs>
	<filter id="Adobe_OpacityMaskFilter_3_" filterUnits="userSpaceOnUse" x="21.3" y="17.6" width="0.1" height="7">
		<feColorMatrix  type="matrix" values="1 0 0 0 0  0 1 0 0 0  0 0 1 0 0  0 0 0 1 0"/>
	</filter>
</defs>
<mask maskUnits="userSpaceOnUse" x="21.3" y="17.6" width="0.1" height="7" id="mask-28">
	<g class="st25">
		<path id="path-27" class="st0" d="M21.3,17.6C21.3,17.6,21.3,17.6,21.3,17.6C21.3,17.6,21.4,17.6,21.3,17.6l0.1,0l0,0l0,0l0,0l0,0
			l0.1,0l0,0c0,0,0,0,0,0c0,0,0,0,0,0c0,0,0,0,0,0c0,0,0,0,0,0c0,0,0,0,0,0l0,0c0,0,0,0,0,0c0,0,0,0,0,0l0,0l0,0l0,0l0,0
			c0,0,0,0,0,0l0,0l0,0c0,0,0,0,0,0c0,0,0,0,0,0s0,0,0,0c0,0,0,0,0,0c0,0,0,0,0,0l0,0c0,0,0,0,0,0c0,0,0,0,0,0V25l0,0l0,0
			c0,0,0,0,0,0l0,0l0,0c0,0,0,0,0,0l0,0c0,0,0,0,0,0s0,0,0,0c0,0,0,0,0,0l0,0l0,0c0,0,0,0,0,0c0,0,0,0,0,0l0,0l0,0c0,0,0,0,0,0
			c0,0,0,0,0,0l0,0c0,0,0,0,0,0l0,0c0,0,0,0,0,0s0,0,0,0l0,0l0,0l0,0c0,0,0,0,0,0l0,0c0,0,0,0,0,0c0,0,0,0,0,0c0,0,0,0,0,0
			c0,0-0.1,0-0.1,0L21.3,17.6"/>
	</g>
</mask>
<path id="Fill-133" class="st26" d="M21.5,17.6v6.9c0,0,0,0,0,0l0,0c0,0,0,0,0,0c0,0,0,0,0,0v-6.9C21.3,17.6,21.4,17.6,21.5,17.6
	C21.4,17.6,21.4,17.6,21.5,17.6L21.5,17.6C21.5,17.6,21.5,17.6,21.5,17.6"/>
<linearGradient id="Fill-256_1_" gradientUnits="userSpaceOnUse" x1="-316.1934" y1="393.4625" x2="-316.1934" y2="392.7817" gradientTransform="matrix(6.7261 0 0 -10.7709 2142.2837 4256.5859)">
	<stop  offset="0" style="stop-color:#E7E4F7"/>
	<stop  offset="1" style="stop-color:#CAC4EC"/>
</linearGradient>
<path id="Fill-256" class="st27" d="M18.9,29.4c-0.6-0.3-1.1-0.5-1.7-0.8c-2.4-1.4-4.1-3.2-5.1-5.3v-4.7c0.9,2.1,2.7,3.9,5.1,5.3
	c0.5,0.3,1.1,0.6,1.7,0.8V29.4z"/>
<linearGradient id="形状结合_5_" gradientUnits="userSpaceOnUse" x1="-316.1934" y1="397.2972" x2="-316.1934" y2="396.6164" gradientTransform="matrix(6.7261 0 0 -12.1162 2164.4836 4832.3242)">
	<stop  offset="0" style="stop-color:#E7E4F7"/>
	<stop  offset="1" style="stop-color:#CAC4EC"/>
</linearGradient>
<path id="形状结合_2_" class="st28" d="M41.1,18.6v4.7c-0.4,0.9-0.9,1.7-1.6,2.5c-1.3,1.5-3.1,4-5.1,4.9l0-6
	c2-0.9,3.8-2.1,5.1-3.6C40.2,20.4,40.7,19.5,41.1,18.6z"/>
<linearGradient id="Clip-136_1_" gradientUnits="userSpaceOnUse" x1="-649.6627" y1="380.4254" x2="-649.6627" y2="377.8443" gradientTransform="matrix(-1.3373 0 0 -7.6846 -837.8682 2934.3708)">
	<stop  offset="0" style="stop-color:#E8E3FF"/>
	<stop  offset="1" style="stop-color:#AEA7DA"/>
</linearGradient>
<path id="Clip-136" class="st29" d="M30.6,25L30.6,25C30.6,25,30.6,25,30.6,25L30.6,25c0.1-0.1,0.1-0.1,0.1-0.1l0,0c0,0,0,0,0,0
	s0,0,0,0c0,0,0,0,0,0l0,0c0,0,0,0,0,0c0,0,0,0,0,0l0,0l0,0c0,0,0,0,0,0c0,0,0,0,0,0l0,0c0,0,0,0,0,0l0,0c0,0,0,0,0,0c0,0,0,0,0,0
	l0,0l0,0c0,0,0,0,0,0l0,0c0,0,0,0,0,0c0,0,0,0,0,0c0,0,0,0,0,0c0,0,0.1,0,0.1,0v-7.2c0,0-1.2-0.2-1.3,0.4C30.2,18.6,30.3,21,30.6,25
	z"/>
<linearGradient id="Clip-136备份_1_" gradientUnits="userSpaceOnUse" x1="-93.3371" y1="379.5402" x2="-93.3371" y2="376.9591" gradientTransform="matrix(1.3373 0 0 -7.5466 146.6992 2875.4487)">
	<stop  offset="0" style="stop-color:#E8E3FF"/>
	<stop  offset="1" style="stop-color:#AEA7DA"/>
</linearGradient>
<path id="Clip-136备份" class="st30" d="M22.2,25L22.2,25C22.2,25,22.2,25,22.2,25L22.2,25c-0.1-0.1-0.1-0.1-0.1-0.1l0,0
	c0,0,0,0,0,0s0,0,0,0c0,0,0,0,0,0l0,0c0,0,0,0,0,0c0,0,0,0,0,0l0,0l0,0c0,0,0,0,0,0c0,0,0,0,0,0l0,0c0,0,0,0,0,0l0,0c0,0,0,0,0,0
	c0,0,0,0,0,0l0,0l0,0c0,0,0,0,0,0l0,0c0,0,0,0,0,0c0,0,0,0,0,0c0,0,0,0,0,0c0,0-0.1,0-0.1,0v-6.9c0,0,1.2-0.4,1.3,0.2
	C22.6,18.6,22.5,21,22.2,25z"/>
<linearGradient id="Fill-154_1_" gradientUnits="userSpaceOnUse" x1="-316.6338" y1="361.6778" x2="-316.6338" y2="360.9971" gradientTransform="matrix(6.7801 0 0 -5.609 2164.9065 2046.2711)">
	<stop  offset="0" style="stop-color:#E7E4F7"/>
	<stop  offset="1" style="stop-color:#CAC4EC"/>
</linearGradient>
<polygon id="Fill-154" class="st31" points="21.2,17.6 21.5,20.7 14.7,23.2 15.1,18.4 "/>
<linearGradient id="Fill-154备份_1_" gradientUnits="userSpaceOnUse" x1="-426.9621" y1="353.5033" x2="-426.9621" y2="352.8225" gradientTransform="matrix(-6.7073 0 0 -4.9935 -2828.7778 1782.6637)">
	<stop  offset="0" style="stop-color:#E7E4F7"/>
	<stop  offset="1" style="stop-color:#CAC4EC"/>
</linearGradient>
<polygon id="Fill-154备份" class="st32" points="31.6,17.4 31.6,20.7 36.3,22.4 38.3,20.9 38.1,18.4 "/>
<linearGradient id="Fill-254_1_" gradientUnits="userSpaceOnUse" x1="-275.2634" y1="375.1634" x2="-275.2634" y2="372.5823" gradientTransform="matrix(3.8655 0 0 -6.9312 1092.3867 2613.4402)">
	<stop  offset="0" style="stop-color:#E8E3FF"/>
	<stop  offset="1" style="stop-color:#AEA7DA"/>
</linearGradient>
<polygon id="Fill-254" class="st33" points="30.3,23.8 30.3,25.8 28.5,25.5 26.4,22.7 26.4,18.9 27.7,20.3 "/>
<linearGradient id="Fill-255_1_" gradientUnits="userSpaceOnUse" x1="-275.2726" y1="373.2056" x2="-275.2726" y2="372.5248" gradientTransform="matrix(3.8658 0 0 -6.789 1088.6577 2552.5776)">
	<stop  offset="0" style="stop-color:#E7E4F7"/>
	<stop  offset="1" style="stop-color:#CAC4EC"/>
</linearGradient>
<polygon id="Fill-255" class="st34" points="26.4,18.9 26.4,22.5 24.2,25.7 22.6,25.5 22.6,23.8 25.1,19.8 "/>
<path id="Fill-360" class="st35" d="M24.3,15l0.4,1.3l1.7,0.6l1.7-0.6l0.4-1.3L27.4,14h-1.9L24.3,15z M28,6.6l0.4,4.6
	c0,0.1,0.1,0.2,0.2,0.3c0,0,0,0,0.1,0c0,0,0.1,0,0.1,0.1c0,0,0,0,0.1,0c0,0,0.1,0,0.1,0c0,0,0.1,0,0.1,0c0,0,0.1,0,0.1,0
	c0,0,0.1,0,0.1,0c0,0,0.1,0,0.1,0c0,0,0.1,0,0.1,0c0,0,0.1,0,0.1,0c0,0,0.1,0,0.1,0l0,0c0,0,0,0,0.1,0c0,0,0,0,0,0c0,0,0.1,0,0.1,0
	c0,0,0.1,0,0.1,0c0,0,0,0,0,0c0,0,0,0,0.1,0c0,0,0,0,0,0c0,0,0.1,0,0.1,0l5.1-2.6C33.1,7.7,30.6,6.9,28,6.6z M18,9.1l5.1,2.7
	c0.1,0.1,0.3,0.1,0.5,0.1c0.6,0,1-0.3,1-0.7L25,6.6c-0.4,0.1-0.8,0.1-1.2,0.2C21.5,7.1,19.5,7.9,18,9.1z M30.3,23.8l-3-3.9
	c-0.1-0.1-0.3-0.2-0.5-0.3c0,0,0,0-0.1,0c0,0-0.1,0-0.1,0c0,0-0.1,0-0.1,0c0,0-0.1,0-0.1,0c0,0-0.1,0-0.1,0c-0.1,0-0.1,0-0.1,0
	c0,0-0.1,0-0.1,0c0,0-0.1,0-0.1,0c0,0-0.1,0-0.1,0c0,0-0.1,0-0.1,0c0,0-0.1,0-0.1,0c0,0-0.1,0-0.1,0c0,0,0,0-0.1,0c0,0-0.1,0-0.1,0
	c0,0,0,0-0.1,0c0,0-0.1,0-0.1,0l-3,4c1.3,0.3,2.6,0.4,3.9,0.5c0.9,0,1.8-0.1,2.7-0.2C29.6,23.9,30,23.8,30.3,23.8z M22.3,18.2
	C22.3,18.2,22.3,18.2,22.3,18.2C22.3,18.1,22.3,18.1,22.3,18.2c0-0.1,0-0.1-0.1-0.1c0,0,0,0,0,0c0,0,0,0,0,0l0,0c0,0,0,0,0,0
	s0,0,0,0c0,0,0,0,0,0c0,0,0,0,0,0c0,0,0,0,0,0c0,0,0,0,0,0c0,0,0,0,0,0c0,0,0,0,0,0l0,0l0,0c0,0,0,0,0,0c0,0,0,0,0,0l0,0
	c0,0,0,0,0,0c0,0,0,0,0,0c0,0,0,0,0,0c0,0,0,0,0,0c0,0,0,0,0,0c0,0,0,0,0,0c0,0,0,0,0,0l0,0c0,0,0,0,0,0c0,0,0,0,0,0c0,0,0,0,0,0
	c0,0-0.1,0-0.1,0l-6.2,0.8c0.9,1.9,2.7,3.4,4.8,4.4l2.4-4.1C22.3,18.5,22.3,18.4,22.3,18.2z M38.3,13.4c-0.3-1-0.8-1.9-1.5-2.7
	l-4.7,3.1c-0.1,0.1-0.2,0.2-0.2,0.3c-0.1,0.4,0.2,0.8,0.7,0.9l5.9,1.2C38.7,15.3,38.6,14.4,38.3,13.4z M37.8,18.4l-6.2-0.8
	c0,0,0,0-0.1,0c0,0,0,0,0,0c0,0,0,0,0,0c0,0,0,0,0,0c0,0,0,0,0,0c0,0,0,0,0,0c0,0,0,0,0,0c0,0,0,0,0,0c0,0,0,0,0,0c0,0,0,0,0,0
	c0,0,0,0,0,0c0,0,0,0,0,0c0,0,0,0,0,0c0,0,0,0,0,0c0,0,0,0-0.1,0c-0.5,0.2-0.7,0.5-0.5,0.9l2.4,4.2c1.5-0.7,2.8-1.6,3.7-2.7
	C37.2,19.5,37.6,19,37.8,18.4z M14.4,16.3l6-1.3c0.2,0,0.4-0.1,0.5-0.2c0.4-0.3,0.3-0.8-0.1-1l-4.6-3C14.7,12.4,14.1,14.4,14.4,16.3
	z M46,17.7c0.8,0.2,1.2,0.6,1.2,1C47,19,46.5,19.3,46,19.3l-0.3,0l-0.3-0.1c-0.3-0.1-0.5-0.1-0.7-0.2c-0.1,0-0.2-0.1-0.4-0.1
	c-0.8-0.2-1.4-0.4-2.1-0.4c-0.3,0-0.4,0.1-0.6,0.1l-0.5,0c-0.4,0.9-0.9,1.7-1.6,2.5c-1.3,1.5-3.1,2.8-5.1,3.6l0.2,0.3
	c-0.1,0.2-0.2,0.3-0.1,0.5c0.2,0.4,0.6,0.8,1,1.3c0.1,0.1,0.2,0.2,0.2,0.3c0.2,0.1,0.3,0.3,0.4,0.5l0.1,0.1c0.2,0.3,0.2,0.5,0.1,0.8
	c-0.1,0.2-0.3,0.4-0.6,0.5c-0.2,0.1-0.3,0.1-0.5,0.1c-0.5,0-0.9-0.2-1.2-0.5L34,28.4c-0.1-0.2-0.2-0.3-0.2-0.5l-0.1-0.2
	c-0.3-0.6-0.5-1-0.8-1.4C32.7,26,32.5,26,32.4,26L32,25.6c-0.7,0.2-1.3,0.3-2,0.4c-1.1,0.2-2.3,0.3-3.4,0.3c-1.9,0-3.7-0.3-5.4-0.7
	L21,26c-0.2,0.1-0.4,0.1-0.6,0.3c-0.4,0.4-0.5,0.8-0.8,1.4l-0.1,0.2c-0.1,0.2-0.1,0.3-0.2,0.5l-0.1,0.1c-0.3,0.4-0.7,0.6-1.2,0.6
	c-0.2,0-0.3,0-0.5-0.1c-0.6-0.2-0.8-0.7-0.5-1.2l0.2-0.2c0.2-0.2,0.3-0.3,0.4-0.5c0.1-0.1,0.2-0.1,0.2-0.2c0.4-0.5,0.8-0.9,1-1.3
	c0.1-0.2,0-0.3-0.1-0.5l0.2-0.4c-0.6-0.3-1.1-0.5-1.7-0.8c-2.4-1.4-4.1-3.2-5.1-5.3l-0.5,0.1c-0.2-0.1-0.3-0.2-0.6-0.2
	C10.3,18.6,9.7,18.8,9,19c-0.2,0-0.3,0.1-0.4,0.1c-0.2,0.1-0.5,0.1-0.7,0.2l-0.2,0c-0.2,0.1-0.3,0.1-0.4,0.1c-0.6,0-1.1-0.2-1.2-0.6
	c-0.1-0.5,0.3-0.9,1-1l0.3-0.1c0.3,0,0.5-0.1,0.7-0.1c0.1,0,0.3,0,0.4,0c0.9-0.1,1.5-0.1,2.1-0.3c0.2-0.1,0.3-0.2,0.4-0.3l0.5-0.2
	c-0.5-2.6,0.2-5.2,2.2-7.4c0-0.1,0.1-0.1,0.2-0.2l-0.4-0.3c0-0.2,0-0.3-0.2-0.5c-0.5-0.3-1-0.6-1.7-0.9c-0.1-0.1-0.2-0.1-0.3-0.1
	c-0.2-0.1-0.4-0.2-0.7-0.3L10.4,7c-0.6-0.4-0.7-0.9-0.4-1.3c1.2-0.3,1.5-0.2,1.7-0.1l0.3,0.2c0.2,0.1,0.4,0.3,0.5,0.4
	c0.1,0.1,0.2,0.1,0.3,0.2c0.5,0.4,1,0.8,1.5,1c0.1,0.1,0.2,0.1,0.4,0.1l0.2,0l0.5,0.2c2-1.6,4.7-2.7,7.7-3.2
	c0.7-0.1,1.4-0.2,2.1-0.2l0-0.4c0.2-0.1,0.3-0.2,0.4-0.4c0.1-0.5,0-1-0.1-1.5c0-0.1,0-0.2-0.1-0.3c-0.1-0.2-0.1-0.3-0.1-0.5V0.9
	c0-0.3,0.1-0.5,0.3-0.6C25.9,0.1,26.2,0,26.5,0c0.7,0,1.2,0.4,1.2,0.9v0.3c0,0.2-0.1,0.4-0.1,0.5c0,0.1-0.1,0.2-0.1,0.3
	c-0.1,0.6-0.2,1.1-0.1,1.5c0,0.2,0.2,0.3,0.3,0.4l0.1,0.4c3,0.2,5.8,1,8.1,2.3C36.4,7,37,7.3,37.5,7.7L38,7.5l0.3,0
	c0.1,0,0.2,0,0.3-0.1c0.5-0.3,1-0.6,1.5-1c0.1-0.1,0.2-0.1,0.3-0.2c0.2-0.1,0.3-0.3,0.5-0.4l0.2-0.1c0.4-0.2,0.6-0.3,0.9-0.3
	c0.3,0,0.7,0.1,0.9,0.3c0.4,0.4,0.3,0.9-0.3,1.3l-0.3,0.2c-0.2,0.1-0.4,0.2-0.7,0.3c-0.1,0.1-0.2,0.1-0.4,0.1
	c-0.7,0.3-1.3,0.6-1.7,0.9c-0.1,0.1-0.2,0.3-0.2,0.4l-0.4,0.3c1,1.1,1.7,2.4,2.2,3.7s0.5,2.6,0.3,4L42,17c0.1,0.2,0.2,0.3,0.5,0.4
	c0.6,0.1,1.3,0.2,2.1,0.3c0.2,0,0.3,0,0.4,0c0.2,0,0.5,0,0.7,0.1L46,17.7z"/>
</svg>
