<svg id="图层_1" data-name="图层 1" xmlns="http://www.w3.org/2000/svg" viewBox="0 0 18 19"><title>新增</title><g id="页面-1"><g id="_4-5分配M-aster角色-弹窗" data-name="4-5分配M-aster角色-弹窗"><g id="编组-3"><g id="编组-9"><g id="编组-11"><path id="矩形" d="M16,1a2,2,0,0,1,2,2V17a2,2,0,0,1-2,2H2a2,2,0,0,1-2-2V3A2,2,0,0,1,2,1Zm0,1H2a1,1,0,0,0-1,.88V17a1,1,0,0,0,.88,1H16a1,1,0,0,0,1-.88V3a1,1,0,0,0-.88-1Z"/><polygon id="路径" points="9.55 6.01 8.47 5.99 8.46 9.4 5 9.42 5.03 10.55 8.49 10.53 8.47 13.99 9.55 14.01 9.57 10.55 13.03 10.55 13.01 9.42 9.54 9.42 9.55 6.01"/></g></g></g></g></g></svg>