<svg id="图层_1" data-name="图层 1" xmlns="http://www.w3.org/2000/svg" viewBox="0 0 24 22"><title></title><g id="页面-1"><g id="_3-2集群管理" data-name="3-2集群管理"><g id="编组-16"><g id="编组-38"><g id="jiqun-3"><path id="形状" d="M20.43.62a.82.82,0,0,1,.82.81V7.94a.82.82,0,0,1-.82.81H12.57v2.71h7.87a.81.81,0,0,1,.8.67V15.8h1.36a.81.81,0,0,1,.8.67V21a.82.82,0,0,1-.81.82H18.27a.82.82,0,0,1-.82-.82V16.62a.82.82,0,0,1,.82-.82h1.35V13.09h-7V15.8h1.36a.81.81,0,0,1,.8.67V21a.82.82,0,0,1-.81.82H9.59A.82.82,0,0,1,8.78,21V16.62a.82.82,0,0,1,.81-.82h1.35V13.09h-7V15.8H5.25a.81.81,0,0,1,.8.67l0,.15V21a.82.82,0,0,1-.82.82H.91A.82.82,0,0,1,.1,21V16.62a.82.82,0,0,1,.81-.82H2.27V12.28a.81.81,0,0,1,.67-.8h8V8.75H3.08a.81.81,0,0,1-.8-.66V1.43A.81.81,0,0,1,3.08.62Zm-16,16.81H1.73v2.71H4.44Zm17.35,0H19.08v2.71h2.71Zm-8.68,0H10.4v2.71h2.71V17.43ZM19.62,2.25H3.9V7.13H19.62V2.25ZM7.42,3.87a.81.81,0,0,1,.81.74.82.82,0,0,1-.66.88H6.34a.81.81,0,0,1-.81-.74.8.8,0,0,1,.66-.87l.15,0Z"/></g></g></g></g></g></svg>