<?xml version="1.0" encoding="UTF-8"?>
<svg width="239px" height="223px" viewBox="0 0 239 223" version="1.1" xmlns="http://www.w3.org/2000/svg" xmlns:xlink="http://www.w3.org/1999/xlink">
    <!-- Generator: Sketch 64 (93537) - https://sketch.com -->
    <title>Message Page/Components/页面崩溃</title>
    <desc>Created with Sketch.</desc>
    <defs>
        <rect id="path-1" x="0" y="0" width="240" height="240"></rect>
        <radialGradient cx="50%" cy="-29.7362992%" fx="50%" fy="-29.7362992%" r="129.736299%" gradientTransform="translate(0.500000,-0.297363),scale(0.328125,1.000000),rotate(90.000000),scale(1.000000,1.385870),translate(-0.500000,0.297363)" id="radialGradient-3">
            <stop stop-color="#E7E7E9" offset="0%"></stop>
            <stop stop-color="#E7E7E9" stop-opacity="0" offset="100%"></stop>
        </radialGradient>
        <linearGradient x1="50%" y1="-24.977938%" x2="50%" y2="41.640794%" id="linearGradient-4">
            <stop stop-color="#CDCED1" stop-opacity="0.5" offset="0%"></stop>
            <stop stop-color="#CDCED1" stop-opacity="0" offset="100%"></stop>
        </linearGradient>
        <linearGradient x1="50%" y1="0%" x2="50%" y2="59.7604305%" id="linearGradient-5">
            <stop stop-color="#CDCED1" stop-opacity="0.5" offset="0%"></stop>
            <stop stop-color="#CDCED1" stop-opacity="0" offset="100%"></stop>
        </linearGradient>
        <linearGradient x1="55.803365%" y1="50.6648104%" x2="50.9961513%" y2="49.3351896%" id="linearGradient-6">
            <stop stop-color="#070A1A" stop-opacity="0.1" offset="0%"></stop>
            <stop stop-color="#070A1A" stop-opacity="0" offset="100%"></stop>
        </linearGradient>
        <linearGradient x1="50%" y1="0%" x2="50%" y2="100%" id="linearGradient-7">
            <stop stop-color="#DBDCDF" offset="0%"></stop>
            <stop stop-color="#B5B6BB" offset="100%"></stop>
        </linearGradient>
        <rect id="path-8" x="0" y="0" width="101.25" height="127.40625" rx="2.7"></rect>
        <linearGradient x1="50%" y1="0%" x2="50%" y2="100%" id="linearGradient-10">
            <stop stop-color="#F9F9FA" offset="0%"></stop>
            <stop stop-color="#F0F1F2" offset="100%"></stop>
        </linearGradient>
        <linearGradient x1="100%" y1="23.553719%" x2="0%" y2="76.446281%" id="linearGradient-11">
            <stop stop-color="#F0F1F2" offset="0%"></stop>
            <stop stop-color="#E7E7E9" offset="100%"></stop>
        </linearGradient>
        <linearGradient x1="100%" y1="48.4877127%" x2="0%" y2="51.5122873%" id="linearGradient-12">
            <stop stop-color="#F0F1F2" offset="0%"></stop>
            <stop stop-color="#E7E7E9" offset="100%"></stop>
        </linearGradient>
        <linearGradient x1="100%" y1="49.0150816%" x2="0%" y2="50.9849184%" id="linearGradient-13">
            <stop stop-color="#F0F1F2" offset="0%"></stop>
            <stop stop-color="#E7E7E9" offset="100%"></stop>
        </linearGradient>
        <linearGradient x1="100%" y1="47.6625274%" x2="0%" y2="52.3374726%" id="linearGradient-14">
            <stop stop-color="#F0F1F2" offset="0%"></stop>
            <stop stop-color="#E7E7E9" offset="100%"></stop>
        </linearGradient>
        <linearGradient x1="100%" y1="49.3079585%" x2="0%" y2="50.6920415%" id="linearGradient-15">
            <stop stop-color="#F0F1F2" offset="0%"></stop>
            <stop stop-color="#E7E7E9" offset="100%"></stop>
        </linearGradient>
        <linearGradient x1="50%" y1="-15.9005335%" x2="50%" y2="149.503732%" id="linearGradient-16">
            <stop stop-color="#CBCCD0" offset="0%"></stop>
            <stop stop-color="#9C9DA3" offset="100%"></stop>
        </linearGradient>
        <linearGradient x1="45.2521747%" y1="0%" x2="57.2543234%" y2="93.9738301%" id="linearGradient-17">
            <stop stop-color="#DBDCDF" offset="0%"></stop>
            <stop stop-color="#B5B6BB" offset="100%"></stop>
        </linearGradient>
        <linearGradient x1="83.8049703%" y1="0%" x2="15.5495441%" y2="100%" id="linearGradient-18">
            <stop stop-color="#DBDCDF" offset="0%"></stop>
            <stop stop-color="#9C9DA3" offset="100%"></stop>
        </linearGradient>
        <linearGradient x1="78.4283285%" y1="9.65163954%" x2="30.9936273%" y2="94.6231418%" id="linearGradient-19">
            <stop stop-color="#E7E7E9" offset="0%"></stop>
            <stop stop-color="#F5F5F6" offset="100%"></stop>
        </linearGradient>
        <linearGradient x1="73.9483354%" y1="3.95439234%" x2="34.3121801%" y2="92.4932807%" id="linearGradient-20">
            <stop stop-color="#F5F5F6" stop-opacity="0.5" offset="0%"></stop>
            <stop stop-color="#FFFFFF" stop-opacity="0.4" offset="100%"></stop>
        </linearGradient>
    </defs>
    <g id="0810-工单/耗时/代办事项/封网" stroke="none" stroke-width="1" fill="none" fill-rule="evenodd">
        <g id="代办事项" transform="translate(-1059.000000, -267.000000)">
            <g id="编组-2" transform="translate(948.000000, 90.000000)">
                <g id="Message-Page/Components/无数据" transform="translate(110.000000, 160.000000)">
                    <g>
                        <mask id="mask-2" fill="white">
                            <use xlink:href="#path-1"></use>
                        </mask>
                        <g id="矩形"></g>
                        <ellipse id="椭圆形" fill="url(#radialGradient-3)" mask="url(#mask-2)" cx="120" cy="200.625" rx="120" ry="39.375"></ellipse>
                        <circle id="椭圆形" fill="url(#linearGradient-4)" opacity="0.7" mask="url(#mask-2)" cx="28.59375" cy="69.84375" r="21.09375"></circle>
                        <circle id="椭圆形复制-3" fill="url(#linearGradient-5)" opacity="0.5" mask="url(#mask-2)" cx="223.59375" cy="127.96875" r="21.09375"></circle>
                        <circle id="椭圆形复制" fill="url(#linearGradient-5)" opacity="0.4" mask="url(#mask-2)" cx="73.59375" cy="55.3125" r="37.5"></circle>
                        <circle id="椭圆形复制-2" fill="url(#linearGradient-5)" opacity="0.4" mask="url(#mask-2)" cx="182.8125" cy="106.875" r="37.5"></circle>
                        <path d="M-42.6951255,164.240575 L64.1798745,164.240575 C65.7331753,164.240575 67.9558825,164.464146 69.1444299,164.739935 L173.160445,188.875641 C174.348992,189.151429 174.053301,189.375 172.5,189.375 L65.625,189.375 C64.0716991,189.375 61.8489919,189.151429 60.6604445,188.875641 L-43.3555701,164.739935 C-44.5441175,164.464146 -44.2484264,164.240575 -42.6951255,164.240575 Z" id="矩形" fill="url(#linearGradient-6)" mask="url(#mask-2)"></path>
                        <g id="编组" mask="url(#mask-2)">
                            <g transform="translate(69.375000, 57.187500)">
                                <g id="编组-2">
                                    <g id="编组-4" transform="translate(0.000000, 5.062500)">
                                        <mask id="mask-9" fill="white">
                                            <use xlink:href="#path-8"></use>
                                        </mask>
                                        <use id="蒙版" fill="url(#linearGradient-7)" fill-rule="nonzero" xlink:href="#path-8"></use>
                                        <rect id="矩形" fill="url(#linearGradient-10)" fill-rule="nonzero" mask="url(#mask-9)" x="5.90625" y="7.59375" width="89.4375" height="112.21875" rx="2.7"></rect>
                                        <rect id="矩形" fill="url(#linearGradient-11)" mask="url(#mask-9)" x="16.03125" y="23.625" width="9.28125" height="6.75"></rect>
                                        <rect id="矩形复制-2" fill="url(#linearGradient-11)" mask="url(#mask-9)" x="16.03125" y="41.34375" width="9.28125" height="6.75"></rect>
                                        <rect id="矩形复制-4" fill="url(#linearGradient-11)" mask="url(#mask-9)" x="16.03125" y="58.21875" width="9.28125" height="6.75"></rect>
                                        <rect id="矩形复制-8" fill="url(#linearGradient-11)" mask="url(#mask-9)" x="16.03125" y="75.9375" width="9.28125" height="6.75"></rect>
                                        <rect id="矩形复制" fill="url(#linearGradient-12)" mask="url(#mask-9)" x="31.21875" y="23.625" width="38.8125" height="6.75"></rect>
                                        <rect id="矩形复制-3" fill="url(#linearGradient-13)" mask="url(#mask-9)" x="31.21875" y="41.34375" width="48.09375" height="6.75"></rect>
                                        <rect id="矩形复制-5" fill="url(#linearGradient-14)" mask="url(#mask-9)" x="31.21875" y="58.21875" width="31.21875" height="6.75"></rect>
                                        <rect id="矩形复制-9" fill="url(#linearGradient-15)" mask="url(#mask-9)" x="31.21875" y="75.9375" width="57.375" height="6.75"></rect>
                                        <g mask="url(#mask-9)" fill="#070A1A" fill-opacity="0.1">
                                            <g transform="translate(54.843750, 55.687500)">
                                                <polygon id="矩形" fill-rule="evenodd" transform="translate(42.730861, 27.658370) rotate(-67.000000) translate(-42.730861, -27.658370) " points="39.7777363 15.0021197 45.6839863 15.0021197 45.6839863 40.3146197 39.7777363 40.3146197"></polygon>
                                                <path d="M17.296875,34.59375 C26.8496753,34.59375 34.59375,26.8496753 34.59375,17.296875 C34.59375,7.74407472 26.8496753,0 17.296875,0 C7.74407472,0 0,7.74407472 0,17.296875 C0,26.8496753 7.74407472,34.59375 17.296875,34.59375 Z M17.296875,29.53125 C10.5400163,29.53125 5.0625,24.0537337 5.0625,17.296875 C5.0625,10.5400163 10.5400163,5.0625 17.296875,5.0625 C24.0537337,5.0625 29.53125,10.5400163 29.53125,17.296875 C29.53125,24.0537337 24.0537337,29.53125 17.296875,29.53125 Z" id="椭圆形" fill-rule="nonzero"></path>
                                            </g>
                                        </g>
                                    </g>
                                    <rect id="矩形" fill="url(#linearGradient-16)" fill-rule="nonzero" x="31.21875" y="0" width="38.8125" height="15.1875"></rect>
                                </g>
                                <g id="编组-3" transform="translate(56.531250, 58.218750)">
                                    <polygon id="矩形" fill="url(#linearGradient-17)" transform="translate(42.730861, 27.658370) rotate(-67.000000) translate(-42.730861, -27.658370) " points="39.7777363 15.0021197 45.6839863 15.0021197 45.6839863 40.3146197 39.7777363 40.3146197"></polygon>
                                    <path d="M17.296875,34.59375 C26.8496753,34.59375 34.59375,26.8496753 34.59375,17.296875 C34.59375,7.74407472 26.8496753,0 17.296875,0 C7.74407472,0 0,7.74407472 0,17.296875 C0,26.8496753 7.74407472,34.59375 17.296875,34.59375 Z M17.296875,29.53125 C10.5400163,29.53125 5.0625,24.0537337 5.0625,17.296875 C5.0625,10.5400163 10.5400163,5.0625 17.296875,5.0625 C24.0537337,5.0625 29.53125,10.5400163 29.53125,17.296875 C29.53125,24.0537337 24.0537337,29.53125 17.296875,29.53125 Z" id="椭圆形" fill="url(#linearGradient-18)" fill-rule="nonzero"></path>
                                    <path d="M17.296875,29.53125 C10.5400163,29.53125 5.0625,24.0537337 5.0625,17.296875 C5.0625,10.5400163 10.5400163,5.0625 17.296875,5.0625 C24.0537337,5.0625 29.53125,10.5400163 29.53125,17.296875 C29.53125,24.0537337 24.0537337,29.53125 17.296875,29.53125 Z" id="路径" fill="url(#linearGradient-19)" fill-rule="nonzero"></path>
                                    <path d="M12.0680962,28.3607873 C7.92688864,26.4002102 5.0625,22.1830495 5.0625,17.296875 C5.0625,10.5400163 10.5400163,5.0625 17.296875,5.0625 C19.4441582,5.0625 21.4622375,5.61568788 23.2163736,6.58732447 L12.0680962,28.3607873 Z" id="形状" fill="url(#linearGradient-20)" fill-rule="nonzero"></path>
                                </g>
                            </g>
                        </g>
                    </g>
                </g>
            </g>
        </g>
    </g>
</svg>