<svg xmlns="http://www.w3.org/2000/svg" viewBox="0 0 24 24"><g fill-rule="evenodd" fill="none"><path fill="none" d="M0 0h24v24H0z"/><path fill="#302647" fill-opacity=".6" d="M21 3v14a4 4 0 0 1-4 4H7a4 4 0 0 1-4-4V7a4 4 0 0 1 4-4h14zm-5.988 15.62-.34.216c.236.32.424.612.564.876l.352-.24a8.034 8.034 0 0 0-.576-.852zm-1.624.152-.392.08c.072.244.136.524.184.844l.42-.1a9.473 9.473 0 0 0-.212-.824zm-.988-.132c-.14.312-.304.576-.496.8l.344.252c.192-.248.356-.544.5-.884l-.348-.168zm1.816.076-.392.08c.112.256.204.556.276.892l.416-.1a7.66 7.66 0 0 0-.3-.872zM11.228 17.2H8.176v.404h1.088v2.076h.42v-2.076h1.124c-.012.328-.024.54-.032.636-.008.168-.032.28-.072.328-.036.04-.096.064-.18.064-.152 0-.3-.004-.448-.008l.12.416c.168-.008.312-.012.428-.012.196 0 .332-.036.404-.108.072-.072.112-.204.128-.396.02-.144.044-.584.072-1.324zm2.672-1.18h-.412v1.12h-1.08v1.384h2.76V17.14H13.9v-.392h1.512v-.388H13.9v-.34zm.852 1.508v.612h-1.928v-.612h1.928zM9.292 16h-.424v.336H8v.408h.868v.324h.424v-.324h.928v.328h.424v-.328h.868v-.408h-.868V16h-.424v.336h-.928V16zm7.208-4.077c-.828 0-1.5.689-1.5 1.539S15.672 15 16.5 15s1.5-.689 1.5-1.538c0-.85-.672-1.539-1.5-1.539zm-9-.77c-.828 0-1.5.69-1.5 1.54 0 .849.672 1.538 1.5 1.538S9 13.542 9 12.692s-.672-1.538-1.5-1.538zm3.712-3.291c-.327.38-.793.631-1.316.671H9.86l.497 1.043a2.331 2.331 0 0 0-.608 1.558l-.77.256a2.022 2.022 0 0 1 .464 1.465l.794-.266a2.226 2.226 0 0 0 1.762.873l.154-.006a2.222 2.222 0 0 0 1.497-.734l.91.518a2.01 2.01 0 0 1 .729-1.347l-1.044-.592a2.403 2.403 0 0 0-.131-.937l.678-.544a1.997 1.997 0 0 1-.924-1.213l-.709.57a2.198 2.198 0 0 0-1.468-.31zM12 10.385a.76.76 0 0 1 .75.769.76.76 0 0 1-.75.77.76.76 0 0 1-.75-.77.76.76 0 0 1 .75-.77zm3.75-3.847c-.828 0-1.5.69-1.5 1.539 0 .85.672 1.538 1.5 1.538s1.5-.688 1.5-1.538c0-.85-.672-1.539-1.5-1.539zM9.75 5c-.828 0-1.5.689-1.5 1.538 0 .85.672 1.539 1.5 1.539s1.5-.689 1.5-1.539S10.578 5 9.75 5z" data-follow-fill="#302647"/></g></svg>