<?xml version="1.0" standalone="no"?><!DOCTYPE svg PUBLIC "-//W3C//DTD SVG 1.1//EN" "http://www.w3.org/Graphics/SVG/1.1/DTD/svg11.dtd"><svg t="1600135215605" class="icon" viewBox="0 0 1024 1024" version="1.1" xmlns="http://www.w3.org/2000/svg" p-id="16532" xmlns:xlink="http://www.w3.org/1999/xlink" width="200" height="200"><defs><style type="text/css"></style></defs><path d="M512 85.333c183.467 0 337.067 145.067 341.333 332.8v456.534c0 25.6-17.066 42.666-42.666 42.666-4.267 0-12.8 0-17.067-4.266L512 793.6 230.4 913.067c-21.333 8.533-46.933 0-55.467-21.334-4.266-4.266-4.266-12.8-4.266-17.066V418.133C174.933 230.4 328.533 85.333 512 85.333z m0 85.334c-136.533 0-251.733 110.933-256 247.466v392.534L512 704l256 106.667v-384c0-140.8-115.2-256-256-256z m0 42.666c119.467 0 213.333 93.867 213.333 213.334S631.467 640 512 640s-213.333-93.867-213.333-213.333S392.533 213.333 512 213.333z m0 85.334c-72.533 0-128 55.466-128 128s55.467 128 128 128 128-55.467 128-128-55.467-128-128-128z" fill="#6A549E" p-id="16533"></path></svg>