<?xml version="1.0" encoding="UTF-8"?>
<svg width="156px" height="110px" viewBox="0 0 156 110" version="1.1" xmlns="http://www.w3.org/2000/svg" xmlns:xlink="http://www.w3.org/1999/xlink">
    <title>k8s</title>
    <defs>
        <rect id="path-1" x="0" y="0" width="1112" height="178" rx="2"></rect>
        <filter x="-0.6%" y="-2.8%" width="101.3%" height="107.9%" filterUnits="objectBoundingBox" id="filter-3">
            <feOffset dx="0" dy="2" in="SourceAlpha" result="shadowOffsetOuter1"></feOffset>
            <feGaussianBlur stdDeviation="2" in="shadowOffsetOuter1" result="shadowBlurOuter1"></feGaussianBlur>
            <feColorMatrix values="0 0 0 0 0.333333333   0 0 0 0 0.301960784   0 0 0 0 0.407843137  0 0 0 0.08 0" type="matrix" in="shadowBlurOuter1"></feColorMatrix>
        </filter>
    </defs>
    <g id="缺陷" stroke="none" stroke-width="1" fill="none" fill-rule="evenodd">
        <g id="集群列表" transform="translate(-1260.000000, -84.000000)">
            <rect fill="#302647" opacity="0.06" x="0" y="0" width="1440" height="862"></rect>
            <g id="编组-22" transform="translate(304.000000, 84.000000)">
                <mask id="mask-2" fill="white">
                    <use xlink:href="#path-1"></use>
                </mask>
                <g id="蒙版">
                    <use fill="black" fill-opacity="1" filter="url(#filter-3)" xlink:href="#path-1"></use>
                    <use fill="#FFFFFF" fill-rule="evenodd" xlink:href="#path-1"></use>
                </g>
                <g id="编组" mask="url(#mask-2)" opacity="0.04">
                    <g transform="translate(936.000000, -100.000000)" id="k8s">
                        <rect id="矩形" x="0" y="0" width="240" height="240"></rect>
                        <g id="kubernetes" transform="translate(20.000000, 20.000000)">
                            <path d="M197.099551,126.541487 L148.9904,185.129238 C146.451906,188.20291 142.627595,189.984964 138.590223,189.975516 L61.4139112,190 C57.3766634,190.002989 53.5554406,188.214946 51.022068,185.137397 L2.88791649,126.557805 C0.379020009,123.48519 -0.562774466,119.46063 0.329539806,115.625123 L17.4964982,42.5638076 C18.3965135,38.7292105 21.038225,35.5146757 24.688287,33.8095038 L94.2061354,1.28069693 C97.8557424,-0.426898977 102.098391,-0.426898977 105.747998,1.28069693 L175.290847,33.7931864 C178.940909,35.4983583 181.58262,38.7210519 182.482636,42.5474903 L199.666261,115.608806 C200.566276,119.443403 199.624594,123.465651 197.099551,126.541487 Z" id="形状" fill="#1890FF"></path>
                            <path d="M99.9895669,24.8838668 C102.289606,24.8838668 104.156305,26.9153875 104.156305,29.4119551 C104.156304,29.7627798 104.172971,30.2441441 104.164638,30.5704928 C104.106304,32.0145859 103.789631,33.1160127 103.597962,34.4458837 C103.247956,37.2851174 102.939617,39.6429867 103.122954,41.8295231 C103.289623,42.9309499 103.939634,43.3633621 104.48131,43.8692025 L104.48131,43.8692025 L104.581312,45.6885966 C117.739785,46.8589968 130.016966,52.6659203 139.131899,62.0305078 L139.131899,62.0305078 L140.715259,60.9290809 C141.248602,60.9617158 142.431955,61.1167313 143.240302,60.6598432 C145.098667,59.4278768 146.798696,57.7308637 148.848731,55.6911842 C149.790413,54.7121381 150.482092,53.7820443 151.598777,52.8356331 C151.857115,52.6235064 152.240455,52.3379513 152.523793,52.1176659 C154.515494,50.559351 157.298874,50.7225252 158.732232,52.4848082 C160.16559,54.2470912 159.707249,56.9313094 157.707215,58.4896244 C157.423877,58.7099098 157.057203,59.019941 156.790532,59.2157502 C155.607179,60.0724155 154.515494,60.5048275 153.33214,61.1901598 C150.840431,62.6913639 148.782063,63.9396477 147.140368,65.4490103 C146.365355,66.2567234 146.42369,67.0154841 146.357022,67.7497687 C146.132018,67.9618953 145.315337,68.6635451 144.881997,69.0470048 C148.564525,74.4118432 151.208495,80.3936574 152.682129,86.6943108 C154.153358,92.9314634 154.449885,99.3790803 153.557144,105.72044 L153.557144,105.72044 L155.232173,106.201804 C155.532178,106.617899 156.157188,107.637739 157.032203,107.964087 C159.173906,108.624944 161.573947,108.869705 164.490663,109.171578 C165.857353,109.277641 167.032373,109.212371 168.482398,109.481609 C168.832404,109.546879 169.340746,109.677418 169.690752,109.759005 C172.149127,110.338274 173.71582,112.549287 173.215812,114.719506 C172.707469,116.897883 170.315762,118.219596 167.84072,117.697438 L167.84072,117.697438 L167.782386,117.689279 L167.707385,117.664803 C167.357379,117.591374 166.924038,117.517946 166.624033,117.436359 C165.199009,117.069216 164.173991,116.514424 162.890636,116.0249 C160.140589,115.062172 157.857217,114.254459 155.640513,113.936269 C154.733831,113.870999 154.184488,114.192126 153.681013,114.532051 L153.431656,114.701878 L153.431656,114.701878 L153.30714,114.784775 C152.998801,114.719506 152.065452,114.556331 151.53211,114.474744 C147.506187,126.874278 138.964139,137.391807 127.531702,144.025619 C127.731705,144.498825 128.073378,145.494188 128.22338,145.67368 C127.965043,146.359012 127.573369,147.01171 127.906708,148.072343 C128.715055,150.12834 130.015077,152.127226 131.598438,154.542206 C132.356784,155.65995 133.140131,156.516616 133.831809,157.789376 C133.998478,158.099407 134.206815,158.564454 134.373485,158.882644 C135.440169,161.126291 134.656823,163.712604 132.598455,164.675333 C130.531753,165.654379 127.956709,164.626381 126.848357,162.374575 C126.690021,162.056385 126.465017,161.623973 126.331681,161.3221 C125.740005,160.000388 125.540001,158.866326 125.123327,157.593566 C124.181645,154.876713 123.406632,152.633066 122.273279,150.740244 C121.639935,149.818308 120.856588,149.704086 120.139909,149.475642 L120.139909,149.475642 L119.256561,147.909169 C106.877777,152.506617 93.2017386,152.471757 80.847575,147.811264 L80.847575,147.811264 L79.9058923,149.483801 C79.1975469,149.671452 78.5308688,149.850943 78.1141951,150.340466 C76.5975027,152.110908 75.989159,154.950142 74.8891403,157.658836 C74.4724666,158.939755 74.2724632,160.073816 73.6891199,161.395529 C73.5557844,161.697401 73.3391139,162.113496 73.1724445,162.431686 L73.1724445,162.431686 L73.1724445,162.448003 C72.0557589,164.69165 69.4890485,165.727808 67.4223468,164.748762 C65.3639784,163.777874 64.5806319,161.199719 65.6473166,158.956072 C65.8056527,158.637882 66.0139896,158.164677 66.1806591,157.862804 C66.8723374,156.581885 67.6556839,155.717061 68.4140302,154.607476 C69.9890572,152.192495 71.3724139,150.030435 72.180761,147.974438 C72.3890978,147.297265 72.0890927,146.359012 71.814088,145.67368 L71.814088,145.67368 L72.5641008,143.89508 C61.1734914,137.312355 52.6366995,126.87675 48.5636928,114.556331 L48.5636928,114.556331 L46.7553289,114.858204 C46.2719873,114.597125 45.2886374,113.960745 44.3552881,114.034173 C42.1385838,114.352363 39.8552116,115.160076 37.1051649,116.122805 C35.8218097,116.60417 34.7884587,117.150803 33.371768,117.526105 L33.371768,117.526105 L32.2967497,117.762707 L32.2134149,117.787183 L32.1550807,117.795342 C29.6883722,118.3175 27.2883314,116.995788 26.7799894,114.81741 C26.2716473,112.647191 27.8466741,110.436179 30.3050493,109.85691 L30.3050493,109.85691 L30.3633835,109.840593 L30.3967175,109.824275 C30.7550569,109.742688 31.196731,109.636625 31.5050697,109.579514 C32.9634279,109.310276 34.1384478,109.375546 35.5051377,109.261324 C38.4135203,108.959451 40.8218946,108.722848 42.9635976,108.061992 C43.6469427,107.792755 44.2969537,106.878978 44.7552949,106.29155 L44.7552949,106.29155 L46.4886576,105.802027 C44.5978799,92.9408317 47.6248802,79.8490353 54.988802,69.0388462 L54.988802,69.0388462 L53.6554462,67.8721495 C53.5721114,67.366309 53.4554428,66.1914537 52.8220986,65.5224388 C51.1804041,64.0212347 49.1220357,62.7729509 46.6303268,61.2635882 C45.4469733,60.5864148 44.3636216,60.145844 43.1802681,59.2891787 L43.1802681,59.2891787 L42.3135866,58.6120052 L42.2552524,58.5712115 C40.2552184,57.0128965 39.7968772,54.3205197 41.230235,52.5582367 C42.0387894,51.5893247 43.27079,51.0559453 44.546958,51.1223025 C45.6065223,51.1678549 46.6231286,51.5453778 47.4470073,52.1992532 C47.7617273,52.4305876 48.0701727,52.6699928 48.372023,52.9172202 C49.4887086,53.8554728 50.1720536,54.7855666 51.1137362,55.7646127 C53.163771,57.8042919 54.8637999,59.5013053 56.7221649,60.7251129 C57.6971815,61.2880646 58.4471942,61.0596204 59.197207,60.9617158 C59.6925038,61.3162628 60.1925558,61.6643983 60.6972325,62.0060316 C69.7975778,52.5299635 82.1717826,46.7052477 95.4144891,45.6641204 L95.4144891,45.6641204 L95.5144908,43.942631 C96.1597264,43.3808849 96.6280321,42.650705 96.8645138,41.8376818 C97.0478503,39.6429869 96.7478452,37.2851174 96.3978393,34.4458837 C96.2061692,33.1160127 95.8894972,32.0145859 95.8394964,30.5704928 C95.8228295,30.276779 95.8394964,29.8606844 95.8394964,29.5261771 L95.8394964,29.5261771 L95.831163,29.4119551 C95.8311628,26.9153875 97.6978614,24.8838668 99.9895669,24.8838668 Z M99.8562314,117.795342 C98.5507701,117.843101 97.3698565,118.567248 96.7561787,119.696323 L96.7395117,119.696323 L86.1726655,138.396104 C95.1561238,141.396676 104.900831,141.405282 113.889803,138.42058 L103.30629,119.688165 L103.222955,119.688165 C102.566434,118.475346 101.25707,117.739202 99.8562314,117.795342 Z M116.706518,109.432657 C114.926606,110.265329 114.138587,112.327452 114.923154,114.099443 L114.898154,114.132078 L123.314963,134.023031 C131.357333,128.996407 137.459426,121.489273 140.656925,112.687985 L118.98989,109.098149 L118.956556,109.138943 C118.193691,109.001375 117.405917,109.104209 116.706518,109.432657 Z M84.517202,110.519081 C83.6739162,109.485373 82.318256,108.989525 80.989244,109.228689 L80.989244,109.228689 L80.9559102,109.187895 L59.4722116,112.753255 C62.6971499,121.486752 68.7753354,128.934475 76.7641721,133.941444 L76.7641721,133.941444 L85.0893136,114.254459 L85.0309795,114.172872 C85.5547107,112.956802 85.3604878,111.552789 84.517202,110.519081 Z M103.339624,91.6548112 L96.63951,91.6548112 L92.4727725,96.7376922 L93.9644645,103.093333 L93.9644645,103.085174 L99.9895669,105.932567 L106.006336,103.101492 L107.506361,96.7376922 L103.339624,91.6548112 Z M63.2056085,76.2348351 C58.220318,84.1794395 56.0798599,93.523392 57.1221717,102.791461 L78.0725278,96.8763903 L78.0891947,96.8029619 C79.3924552,96.4536358 80.3938644,95.4308832 80.6952813,94.1413307 C80.9966982,92.8517783 80.5492702,91.5044322 79.530886,90.6349714 L79.5475529,90.5452256 L63.2056085,76.2348351 Z M136.66519,76.2348351 L136.66519,76.2429937 L120.414914,90.4881145 L120.414914,90.5289082 C119.391857,91.3977203 118.941262,92.747886 119.242989,94.0404735 C119.544717,95.333061 120.549629,96.3575698 121.856605,96.7050573 L121.881606,96.7866445 L142.931964,102.726191 C143.389066,98.1559436 143.085106,93.5433519 142.031948,89.0684976 C140.972946,84.531745 139.159886,80.1961283 136.66519,76.2348351 Z M94.7894785,56.4825799 C85.3250166,57.5657589 76.4989741,61.7053795 69.705719,68.2474505 L87.5976897,80.6731773 L87.6310236,80.6568599 L87.6310236,80.6487011 C88.7236479,81.4293895 90.1665483,81.5577374 91.384995,80.982622 C92.6034417,80.4075066 93.3995135,79.222348 93.4561227,77.8992134 L93.5394573,77.8584197 L94.7894785,56.4825799 Z M105.214656,56.4907385 L106.44801,77.825785 L106.464677,77.8339436 C106.522148,79.1584971 107.320601,80.3442146 108.541395,80.917907 C109.762188,81.4915994 111.206564,81.3598639 112.29811,80.5752727 L112.364777,80.5997488 L130.148413,68.2556093 C123.378567,61.7649266 114.618191,57.6313865 105.214656,56.4907385 Z" id="形状结合" fill="#FFFFFF"></path>
                        </g>
                    </g>
                </g>
            </g>
        </g>
    </g>
</svg>