<?xml version="1.0" encoding="UTF-8"?>
<svg width="54px" height="54px" viewBox="0 0 54 54" version="1.1" xmlns="http://www.w3.org/2000/svg" xmlns:xlink="http://www.w3.org/1999/xlink">
    <!-- Generator: Sketch 64 (93537) - https://sketch.com -->
    <title>图形/zyb</title>
    <desc>Created with Sketch.</desc>
    <defs>
        <polygon id="path-1" points="0 0.389647059 39.5094118 0.389647059 39.5094118 31.0321176 0 31.0321176"></polygon>
        <linearGradient x1="50%" y1="0%" x2="50%" y2="68.0749974%" id="linearGradient-3">
            <stop stop-color="#EFEEF8" offset="0%"></stop>
            <stop stop-color="#E8E6F2" offset="100%"></stop>
        </linearGradient>
        <path d="M1.34117647,0.410588235 L1.34117647,7.06588235 C1.34117647,7.62 0.790588235,8.08470588 0.06,8.20470588 L0.06,1.54941176" id="path-4"></path>
        <path d="M1.34117647,0.410588235 L1.34117647,7.06588235 C1.34117647,7.62 0.790588235,8.08470588 0.06,8.20470588 L0.06,1.54941176" id="path-6"></path>
        <path d="M1.34117647,0.410588235 L1.34117647,7.06588235 C1.34117647,7.62 0.790588235,8.08470588 0.06,8.20470588 L0.06,1.54941176" id="path-8"></path>
        <path d="M1.34117647,0.410588235 L1.34117647,7.06588235 C1.34117647,7.62 0.790588235,8.08470588 0.06,8.20470588 L0.06,1.54941176" id="path-10"></path>
        <path d="M1.34117647,0.410588235 L1.34117647,7.06588235 C1.34117647,7.62 0.790588235,8.08470588 0.06,8.20470588 L0.06,1.54941176" id="path-12"></path>
        <path d="M1.34117647,0.410588235 L1.34117647,7.06588235 C1.34117647,7.62 0.790588235,8.08470588 0.06,8.20470588 L0.06,1.54941176" id="path-14"></path>
        <linearGradient x1="50%" y1="0%" x2="50%" y2="68.0749974%" id="linearGradient-16">
            <stop stop-color="#EFEEF8" offset="0%"></stop>
            <stop stop-color="#E8E6F2" offset="100%"></stop>
        </linearGradient>
        <path d="M1.34117647,0.410588235 L1.34117647,7.06588235 C1.34117647,7.62 0.790588235,8.08470588 0.06,8.20470588 L0.06,1.54941176" id="path-17"></path>
        <linearGradient x1="50%" y1="0%" x2="50%" y2="68.0749974%" id="linearGradient-19">
            <stop stop-color="#EFEEF8" offset="0%"></stop>
            <stop stop-color="#E8E6F2" offset="100%"></stop>
        </linearGradient>
        <linearGradient x1="50%" y1="0%" x2="50%" y2="68.0749974%" id="linearGradient-20">
            <stop stop-color="#EFEEF8" offset="0%"></stop>
            <stop stop-color="#E8E6F2" offset="100%"></stop>
        </linearGradient>
        <path d="M0.401176471,0.538823529 C0.496470588,1.12235294 1.19529412,1.57882353 2.04235294,1.57882353 L2.04235294,8.23411765 C1.19529412,8.23411765 0.496470588,7.77764706 0.401176471,7.19294118" id="path-21"></path>
        <path d="M0.401176471,0.538823529 C0.496470588,1.12235294 1.19529412,1.57882353 2.04235294,1.57882353 L2.04235294,8.23411765 C1.19529412,8.23411765 0.496470588,7.77764706 0.401176471,7.19294118" id="path-23"></path>
        <linearGradient x1="50%" y1="0%" x2="50%" y2="68.0749974%" id="linearGradient-25">
            <stop stop-color="#EFEEF8" offset="0%"></stop>
            <stop stop-color="#E8E6F2" offset="100%"></stop>
        </linearGradient>
        <path d="M0.401176471,0.538823529 C0.496470588,1.12235294 1.19529412,1.57882353 2.04235294,1.57882353 L2.04235294,8.23411765 C1.19529412,8.23411765 0.496470588,7.77764706 0.401176471,7.19294118 L0.401176471,0.538823529 Z" id="path-26"></path>
        <linearGradient x1="50%" y1="0%" x2="50%" y2="68.0749974%" id="linearGradient-28">
            <stop stop-color="#EFEEF8" offset="0%"></stop>
            <stop stop-color="#E8E6F2" offset="100%"></stop>
        </linearGradient>
        <path d="M2.80941176,0.507058824 L2.80941176,7.16235294 C2.80941176,8.24117647 1.63411765,9.12470588 0.151764706,9.20588235 L0.151764706,2.55176471" id="path-29"></path>
        <path d="M2.80941176,0.507058824 L2.80941176,7.16235294 C2.80941176,8.24117647 1.63411765,9.12470588 0.151764706,9.20588235 L0.151764706,2.55176471" id="path-31"></path>
        <path d="M2.80941176,0.507058824 L2.80941176,7.16235294 C2.80941176,8.24117647 1.63411765,9.12470588 0.151764706,9.20588235 L0.151764706,2.55176471" id="path-33"></path>
        <path d="M2.80941176,0.507058824 L2.80941176,7.16235294 C2.80941176,8.24117647 1.63411765,9.12470588 0.151764706,9.20588235 L0.151764706,2.55176471" id="path-35"></path>
        <path d="M2.80941176,0.507058824 L2.80941176,7.16235294 C2.80941176,8.24117647 1.63411765,9.12470588 0.151764706,9.20588235 L0.151764706,2.55176471" id="path-37"></path>
        <path d="M2.80941176,0.507058824 L2.80941176,7.16235294 C2.80941176,8.24117647 1.63411765,9.12470588 0.151764706,9.20588235 L0.151764706,2.55176471" id="path-39"></path>
        <path d="M2.80941176,0.507058824 L2.80941176,7.16235294 C2.80941176,8.24117647 1.63411765,9.12470588 0.151764706,9.20588235 L0.151764706,2.55176471" id="path-41"></path>
        <linearGradient x1="50%" y1="0%" x2="50%" y2="68.0749974%" id="linearGradient-43">
            <stop stop-color="#EFEEF8" offset="0%"></stop>
            <stop stop-color="#E8E6F2" offset="100%"></stop>
        </linearGradient>
        <path d="M2.80941176,0.507058824 L2.80941176,7.16235294 C2.80941176,8.24117647 1.63411765,9.12470588 0.151764706,9.20588235 L0.151764706,2.55176471" id="path-44"></path>
        <linearGradient x1="50%" y1="0%" x2="50%" y2="68.0749974%" id="linearGradient-46">
            <stop stop-color="#EFEEF8" offset="0%"></stop>
            <stop stop-color="#E8E6F2" offset="100%"></stop>
        </linearGradient>
        <path d="M0.209411765,0.214117647 C0.209411765,0.858823529 0.950588235,1.38235294 1.86117647,1.38235294 L1.86117647,8.03764706 C0.950588235,8.03764706 0.209411765,7.51294118 0.209411765,6.86941176" id="path-47"></path>
        <path d="M0.209411765,0.214117647 C0.209411765,0.858823529 0.950588235,1.38235294 1.86117647,1.38235294 L1.86117647,8.03764706 C0.950588235,8.03764706 0.209411765,7.51294118 0.209411765,6.86941176" id="path-49"></path>
        <path d="M0.209411765,0.214117647 C0.209411765,0.858823529 0.950588235,1.38235294 1.86117647,1.38235294 L1.86117647,8.03764706 C0.950588235,8.03764706 0.209411765,7.51294118 0.209411765,6.86941176" id="path-51"></path>
        <linearGradient x1="50%" y1="0%" x2="50%" y2="68.0749974%" id="linearGradient-53">
            <stop stop-color="#EFEEF8" offset="0%"></stop>
            <stop stop-color="#E8E6F2" offset="100%"></stop>
        </linearGradient>
        <path d="M0.209411765,0.214117647 C0.209411765,0.858823529 0.950588235,1.38235294 1.86117647,1.38235294 L1.86117647,8.03764706 C0.950588235,8.03764706 0.209411765,7.51294118 0.209411765,6.86941176" id="path-54"></path>
        <linearGradient x1="50%" y1="0%" x2="50%" y2="68.0749974%" id="linearGradient-56">
            <stop stop-color="#EFEEF8" offset="0%"></stop>
            <stop stop-color="#E8E6F2" offset="100%"></stop>
        </linearGradient>
        <linearGradient x1="50%" y1="0%" x2="50%" y2="68.0749974%" id="linearGradient-57">
            <stop stop-color="#EFEEF8" offset="0%"></stop>
            <stop stop-color="#E8E6F2" offset="100%"></stop>
        </linearGradient>
        <linearGradient x1="50%" y1="0%" x2="50%" y2="68.0749974%" id="linearGradient-58">
            <stop stop-color="#EFEEF8" offset="0%"></stop>
            <stop stop-color="#E8E6F2" offset="100%"></stop>
        </linearGradient>
        <linearGradient x1="50%" y1="-33.7012872%" x2="49.8764993%" y2="100%" id="linearGradient-59">
            <stop stop-color="#E2E0F1" offset="0%"></stop>
            <stop stop-color="#E8E6F2" offset="100%"></stop>
        </linearGradient>
        <path d="M5.99058824,0.735294118 C6.23058824,0.735294118 6.46823529,0.748235294 6.70235294,0.774117647 C8.47058824,0.976470588 9.40235294,1.30588235 11.0117647,2.28588235 L11.0117647,8.94117647 C9.40235294,7.96 8.47058824,7.63058824 6.70235294,7.42941176 C6.46823529,7.40352941 6.23058824,7.39058824 5.99058824,7.39058824 C4.2,7.39058824 2.24352941,8.10705882 0.105882353,9.59294118 L0.105882353,2.93764706" id="path-60"></path>
        <path d="M5.99058824,0.735294118 C6.23058824,0.735294118 6.46823529,0.748235294 6.70235294,0.774117647 C8.47058824,0.976470588 9.40235294,1.30588235 11.0117647,2.28588235 L11.0117647,8.94117647 C9.40235294,7.96 8.47058824,7.63058824 6.70235294,7.42941176 C6.46823529,7.40352941 6.23058824,7.39058824 5.99058824,7.39058824 C4.2,7.39058824 2.24352941,8.10705882 0.105882353,9.59294118 L0.105882353,2.93764706" id="path-62"></path>
        <path d="M5.99058824,0.735294118 C6.23058824,0.735294118 6.46823529,0.748235294 6.70235294,0.774117647 C8.47058824,0.976470588 9.40235294,1.30588235 11.0117647,2.28588235 L11.0117647,8.94117647 C9.40235294,7.96 8.47058824,7.63058824 6.70235294,7.42941176 C6.46823529,7.40352941 6.23058824,7.39058824 5.99058824,7.39058824 C4.2,7.39058824 2.24352941,8.10705882 0.105882353,9.59294118 L0.105882353,2.93764706" id="path-64"></path>
        <path d="M5.99058824,0.735294118 C6.23058824,0.735294118 6.46823529,0.748235294 6.70235294,0.774117647 C8.47058824,0.976470588 9.40235294,1.30588235 11.0117647,2.28588235 L11.0117647,8.94117647 C9.40235294,7.96 8.47058824,7.63058824 6.70235294,7.42941176 C6.46823529,7.40352941 6.23058824,7.39058824 5.99058824,7.39058824 C4.2,7.39058824 2.24352941,8.10705882 0.105882353,9.59294118 L0.105882353,2.93764706" id="path-66"></path>
        <path d="M5.99058824,0.735294118 C6.23058824,0.735294118 6.46823529,0.748235294 6.70235294,0.774117647 C8.47058824,0.976470588 9.40235294,1.30588235 11.0117647,2.28588235 L11.0117647,8.94117647 C9.40235294,7.96 8.47058824,7.63058824 6.70235294,7.42941176 C6.46823529,7.40352941 6.23058824,7.39058824 5.99058824,7.39058824 C4.2,7.39058824 2.24352941,8.10705882 0.105882353,9.59294118 L0.105882353,2.93764706" id="path-68"></path>
        <path d="M5.99058824,0.735294118 C6.23058824,0.735294118 6.46823529,0.748235294 6.70235294,0.774117647 C8.47058824,0.976470588 9.40235294,1.30588235 11.0117647,2.28588235 L11.0117647,8.94117647 C9.40235294,7.96 8.47058824,7.63058824 6.70235294,7.42941176 C6.46823529,7.40352941 6.23058824,7.39058824 5.99058824,7.39058824 C4.2,7.39058824 2.24352941,8.10705882 0.105882353,9.59294118 L0.105882353,2.93764706" id="path-70"></path>
        <path d="M5.99058824,0.735294118 C6.23058824,0.735294118 6.46823529,0.748235294 6.70235294,0.774117647 C8.47058824,0.976470588 9.40235294,1.30588235 11.0117647,2.28588235 L11.0117647,8.94117647 C9.40235294,7.96 8.47058824,7.63058824 6.70235294,7.42941176 C6.46823529,7.40352941 6.23058824,7.39058824 5.99058824,7.39058824 C4.2,7.39058824 2.24352941,8.10705882 0.105882353,9.59294118 L0.105882353,2.93764706" id="path-72"></path>
        <linearGradient x1="50%" y1="-5.21375235%" x2="45.6189441%" y2="82.9826184%" id="linearGradient-74">
            <stop stop-color="#E2E0F1" offset="0%"></stop>
            <stop stop-color="#E8E6F2" offset="100%"></stop>
        </linearGradient>
        <path d="M5.99058824,0.735294118 C6.23058824,0.735294118 6.46823529,0.748235294 6.70235294,0.774117647 C8.47058824,0.976470588 9.40235294,1.30588235 11.0117647,2.28588235 L11.0117647,8.94117647 C9.40235294,7.96 8.47058824,7.63058824 6.70235294,7.42941176 C6.46823529,7.40352941 6.23058824,7.39058824 5.99058824,7.39058824 C4.2,7.39058824 2.24352941,8.10705882 0.105882353,9.59294118 L0.105882353,2.93764706 C2.24352941,1.45294118 4.2,0.735294118 5.99058824,0.735294118 Z" id="path-75"></path>
        <linearGradient x1="50%" y1="-33.7012872%" x2="49.7184072%" y2="100%" id="linearGradient-77">
            <stop stop-color="#E2E0F1" offset="0%"></stop>
            <stop stop-color="#E8E6F2" offset="100%"></stop>
        </linearGradient>
        <linearGradient x1="50%" y1="-33.7012872%" x2="49.8696316%" y2="100%" id="linearGradient-78">
            <stop stop-color="#E2E0F1" offset="0%"></stop>
            <stop stop-color="#E8E6F2" offset="100%"></stop>
        </linearGradient>
        <path d="M1.96470588,0.431764706 C2.33058824,0.431764706 2.62941176,0.565882353 2.96705882,0.876470588 L2.96705882,7.53176471 C2.62941176,7.22117647 2.33058824,7.08705882 1.96470588,7.08705882 C1.56705882,7.08705882 1.09176471,7.24588235 0.468235294,7.56941176 L0.468235294,0.914117647" id="path-79"></path>
        <path d="M1.96470588,0.431764706 C2.33058824,0.431764706 2.62941176,0.565882353 2.96705882,0.876470588 L2.96705882,7.53176471 C2.62941176,7.22117647 2.33058824,7.08705882 1.96470588,7.08705882 C1.56705882,7.08705882 1.09176471,7.24588235 0.468235294,7.56941176 L0.468235294,0.914117647" id="path-81"></path>
        <path d="M1.96470588,0.431764706 C2.33058824,0.431764706 2.62941176,0.565882353 2.96705882,0.876470588 L2.96705882,7.53176471 C2.62941176,7.22117647 2.33058824,7.08705882 1.96470588,7.08705882 C1.56705882,7.08705882 1.09176471,7.24588235 0.468235294,7.56941176 L0.468235294,0.914117647" id="path-83"></path>
        <path d="M1.96470588,0.431764706 C2.33058824,0.431764706 2.62941176,0.565882353 2.96705882,0.876470588 L2.96705882,7.53176471 C2.62941176,7.22117647 2.33058824,7.08705882 1.96470588,7.08705882 C1.56705882,7.08705882 1.09176471,7.24588235 0.468235294,7.56941176 L0.468235294,0.914117647" id="path-85"></path>
        <path d="M1.96470588,0.431764706 C2.33058824,0.431764706 2.62941176,0.565882353 2.96705882,0.876470588 L2.96705882,7.53176471 C2.62941176,7.22117647 2.33058824,7.08705882 1.96470588,7.08705882 C1.56705882,7.08705882 1.09176471,7.24588235 0.468235294,7.56941176 L0.468235294,0.914117647" id="path-87"></path>
        <path d="M1.96470588,0.431764706 C2.33058824,0.431764706 2.62941176,0.565882353 2.96705882,0.876470588 L2.96705882,7.53176471 C2.62941176,7.22117647 2.33058824,7.08705882 1.96470588,7.08705882 C1.56705882,7.08705882 1.09176471,7.24588235 0.468235294,7.56941176 L0.468235294,0.914117647" id="path-89"></path>
        <path d="M1.96470588,0.431764706 C2.33058824,0.431764706 2.62941176,0.565882353 2.96705882,0.876470588 L2.96705882,7.53176471 C2.62941176,7.22117647 2.33058824,7.08705882 1.96470588,7.08705882 C1.56705882,7.08705882 1.09176471,7.24588235 0.468235294,7.56941176 L0.468235294,0.914117647" id="path-91"></path>
        <linearGradient x1="50%" y1="-33.7012872%" x2="49.4630426%" y2="100%" id="linearGradient-93">
            <stop stop-color="#E2E0F1" offset="0%"></stop>
            <stop stop-color="#E8E6F2" offset="100%"></stop>
        </linearGradient>
        <path d="M1.96470588,0.431764706 C2.33058824,0.431764706 2.62941176,0.565882353 2.96705882,0.876470588 L2.96705882,7.53176471 C2.62941176,7.22117647 2.33058824,7.08705882 1.96470588,7.08705882 C1.56705882,7.08705882 1.09176471,7.24588235 0.468235294,7.56941176 L0.468235294,0.914117647 C1.09176471,0.590588235 1.56705882,0.431764706 1.96470588,0.431764706 Z" id="path-94"></path>
        <linearGradient x1="50%" y1="-33.7012872%" x2="49.8662384%" y2="100%" id="linearGradient-96">
            <stop stop-color="#E2E0F1" offset="0%"></stop>
            <stop stop-color="#E8E6F2" offset="100%"></stop>
        </linearGradient>
        <linearGradient x1="50%" y1="-33.7012872%" x2="49.8681803%" y2="100%" id="linearGradient-97">
            <stop stop-color="#E2E0F1" offset="0%"></stop>
            <stop stop-color="#E8E6F2" offset="100%"></stop>
        </linearGradient>
        <path d="M1.02705882,0.284705882 C1.85294118,0.778823529 2.38235294,1.04117647 3.07058824,1.29647059 L3.07058824,7.95058824 C2.38235294,7.69647059 1.85294118,7.43411765 1.02705882,6.94" id="path-98"></path>
        <linearGradient x1="50%" y1="-33.7012872%" x2="49.6886734%" y2="100%" id="linearGradient-100">
            <stop stop-color="#E2E0F1" offset="0%"></stop>
            <stop stop-color="#E8E6F2" offset="100%"></stop>
        </linearGradient>
        <path d="M0.717647059,0.12 C1.51176471,0.425882353 2.42235294,0.591764706 3.58705882,0.672941176 C4.07411765,0.703529412 4.57176471,0.725882353 5.05882353,0.732941176 L5.05882353,7.38823529 C4.57176471,7.38117647 4.07411765,7.35882353 3.58705882,7.32823529 C2.42235294,7.24588235 1.51176471,7.08117647 0.717647059,6.77411765" id="path-101"></path>
        <path d="M0.717647059,0.12 C1.51176471,0.425882353 2.42235294,0.591764706 3.58705882,0.672941176 C4.07411765,0.703529412 4.57176471,0.725882353 5.05882353,0.732941176 L5.05882353,7.38823529 C4.57176471,7.38117647 4.07411765,7.35882353 3.58705882,7.32823529 C2.42235294,7.24588235 1.51176471,7.08117647 0.717647059,6.77411765" id="path-103"></path>
        <path d="M0.717647059,0.12 C1.51176471,0.425882353 2.42235294,0.591764706 3.58705882,0.672941176 C4.07411765,0.703529412 4.57176471,0.725882353 5.05882353,0.732941176 L5.05882353,7.38823529 C4.57176471,7.38117647 4.07411765,7.35882353 3.58705882,7.32823529 C2.42235294,7.24588235 1.51176471,7.08117647 0.717647059,6.77411765" id="path-105"></path>
        <linearGradient x1="50%" y1="-33.7012872%" x2="48.4370837%" y2="100%" id="linearGradient-107">
            <stop stop-color="#E2E0F1" offset="0%"></stop>
            <stop stop-color="#E8E6F2" offset="100%"></stop>
        </linearGradient>
        <path d="M0.717647059,0.12 C1.51176471,0.425882353 2.42235294,0.591764706 3.58705882,0.672941176 C4.07411765,0.703529412 4.57176471,0.725882353 5.05882353,0.732941176 L5.05882353,7.38823529 C4.57176471,7.38117647 4.07411765,7.35882353 3.58705882,7.32823529 C2.42235294,7.24588235 1.51176471,7.08117647 0.717647059,6.77411765" id="path-108"></path>
        <linearGradient x1="50%" y1="-33.7012872%" x2="49.8710149%" y2="100%" id="linearGradient-110">
            <stop stop-color="#E2E0F1" offset="0%"></stop>
            <stop stop-color="#E8E6F2" offset="100%"></stop>
        </linearGradient>
        <linearGradient x1="50%" y1="-33.7012872%" x2="49.863389%" y2="100%" id="linearGradient-111">
            <stop stop-color="#E2E0F1" offset="0%"></stop>
            <stop stop-color="#E8E6F2" offset="100%"></stop>
        </linearGradient>
        <linearGradient x1="50%" y1="-33.7012872%" x2="49.8643488%" y2="100%" id="linearGradient-112">
            <stop stop-color="#E2E0F1" offset="0%"></stop>
            <stop stop-color="#E8E6F2" offset="100%"></stop>
        </linearGradient>
        <path d="M4.70823529,1.16823529 L4.70823529,7.82352941 C3.52235294,8.52 2.02941176,9.03647059 0.0176470588,9.47882353 L0.0176470588,2.82352941" id="path-113"></path>
        <path d="M4.70823529,1.16823529 L4.70823529,7.82352941 C3.52235294,8.52 2.02941176,9.03647059 0.0176470588,9.47882353 L0.0176470588,2.82352941" id="path-115"></path>
        <linearGradient x1="50%" y1="-33.7012872%" x2="48.6043713%" y2="100%" id="linearGradient-117">
            <stop stop-color="#E2E0F1" offset="0%"></stop>
            <stop stop-color="#E8E6F2" offset="100%"></stop>
        </linearGradient>
        <path d="M4.70823529,1.16823529 L4.70823529,7.82352941 C3.52235294,8.52 2.02941176,9.03647059 0.0176470588,9.47882353 L0.0176470588,2.82352941" id="path-118"></path>
        <linearGradient x1="50%" y1="-33.7012872%" x2="49.7901493%" y2="100%" id="linearGradient-120">
            <stop stop-color="#E2E0F1" offset="0%"></stop>
            <stop stop-color="#E8E6F2" offset="100%"></stop>
        </linearGradient>
        <linearGradient x1="50%" y1="-33.7012872%" x2="49.8687728%" y2="100%" id="linearGradient-121">
            <stop stop-color="#E2E0F1" offset="0%"></stop>
            <stop stop-color="#E8E6F2" offset="100%"></stop>
        </linearGradient>
        <path d="M1.69294118,0.612941176 L1.69294118,7.26705882 C1.46,7.31294118 1.21647059,7.36470588 0.962352941,7.41764706 L0.962352941,0.762352941" id="path-122"></path>
        <linearGradient x1="50%" y1="-33.7012872%" x2="49.869045%" y2="100%" id="linearGradient-124">
            <stop stop-color="#E2E0F1" offset="0%"></stop>
            <stop stop-color="#E8E6F2" offset="100%"></stop>
        </linearGradient>
        <linearGradient x1="50%" y1="-33.7012872%" x2="49.8407785%" y2="100%" id="linearGradient-125">
            <stop stop-color="#E2E0F1" offset="0%"></stop>
            <stop stop-color="#E8E6F2" offset="100%"></stop>
        </linearGradient>
        <linearGradient x1="50%" y1="-33.7012872%" x2="49.9483961%" y2="100%" id="linearGradient-126">
            <stop stop-color="#E2E0F1" offset="0%"></stop>
            <stop stop-color="#E8E6F2" offset="100%"></stop>
        </linearGradient>
        <path d="M0.343529412,0.508235294 C0.396470588,0.927058824 0.756470588,1.28588235 1.29647059,1.46588235 C5.00235294,2.69176471 7.85764706,3.30352941 10.0082353,3.30352941 C10.4070588,3.30352941 10.7811765,3.28235294 11.1329412,3.24117647 C13.6,2.94823529 15.3258824,2.18470588 16.12,0.994117647 L16.12,7.64941176 C15.3258824,8.84 13.6,9.60352941 11.1329412,9.89529412 C10.7811765,9.93764706 10.4070588,9.95882353 10.0082353,9.95882353 C7.85764706,9.95882353 5.00235294,9.34588235 1.29647059,8.12117647 C0.756470588,7.94117647 0.396470588,7.58235294 0.343529412,7.16352941 L0.339852941,7.12 L0.339852941,7.12 L0.338823529,0.422352941" id="path-127"></path>
        <path d="M0.343529412,0.508235294 C0.396470588,0.927058824 0.756470588,1.28588235 1.29647059,1.46588235 C5.00235294,2.69176471 7.85764706,3.30352941 10.0082353,3.30352941 C10.4070588,3.30352941 10.7811765,3.28235294 11.1329412,3.24117647 C13.6,2.94823529 15.3258824,2.18470588 16.12,0.994117647 L16.12,7.64941176 C15.3258824,8.84 13.6,9.60352941 11.1329412,9.89529412 C10.7811765,9.93764706 10.4070588,9.95882353 10.0082353,9.95882353 C7.85764706,9.95882353 5.00235294,9.34588235 1.29647059,8.12117647 C0.756470588,7.94117647 0.396470588,7.58235294 0.343529412,7.16352941 L0.339852941,7.12 L0.339852941,7.12 L0.338823529,0.422352941" id="path-129"></path>
        <path d="M0.343529412,0.508235294 C0.396470588,0.927058824 0.756470588,1.28588235 1.29647059,1.46588235 C5.00235294,2.69176471 7.85764706,3.30352941 10.0082353,3.30352941 C10.4070588,3.30352941 10.7811765,3.28235294 11.1329412,3.24117647 C13.6,2.94823529 15.3258824,2.18470588 16.12,0.994117647 L16.12,7.64941176 C15.3258824,8.84 13.6,9.60352941 11.1329412,9.89529412 C10.7811765,9.93764706 10.4070588,9.95882353 10.0082353,9.95882353 C7.85764706,9.95882353 5.00235294,9.34588235 1.29647059,8.12117647 C0.756470588,7.94117647 0.396470588,7.58235294 0.343529412,7.16352941 L0.339852941,7.12 L0.339852941,7.12 L0.338823529,0.422352941" id="path-131"></path>
        <path d="M0.343529412,0.508235294 C0.396470588,0.927058824 0.756470588,1.28588235 1.29647059,1.46588235 C5.00235294,2.69176471 7.85764706,3.30352941 10.0082353,3.30352941 C10.4070588,3.30352941 10.7811765,3.28235294 11.1329412,3.24117647 C13.6,2.94823529 15.3258824,2.18470588 16.12,0.994117647 L16.12,7.64941176 C15.3258824,8.84 13.6,9.60352941 11.1329412,9.89529412 C10.7811765,9.93764706 10.4070588,9.95882353 10.0082353,9.95882353 C7.85764706,9.95882353 5.00235294,9.34588235 1.29647059,8.12117647 C0.756470588,7.94117647 0.396470588,7.58235294 0.343529412,7.16352941 L0.339852941,7.12 L0.339852941,7.12 L0.338823529,0.422352941" id="path-133"></path>
        <path d="M0.343529412,0.508235294 C0.396470588,0.927058824 0.756470588,1.28588235 1.29647059,1.46588235 C5.00235294,2.69176471 7.85764706,3.30352941 10.0082353,3.30352941 C10.4070588,3.30352941 10.7811765,3.28235294 11.1329412,3.24117647 C13.6,2.94823529 15.3258824,2.18470588 16.12,0.994117647 L16.12,7.64941176 C15.3258824,8.84 13.6,9.60352941 11.1329412,9.89529412 C10.7811765,9.93764706 10.4070588,9.95882353 10.0082353,9.95882353 C7.85764706,9.95882353 5.00235294,9.34588235 1.29647059,8.12117647 C0.756470588,7.94117647 0.396470588,7.58235294 0.343529412,7.16352941 L0.339852941,7.12 L0.339852941,7.12 L0.338823529,0.422352941" id="path-135"></path>
        <path d="M0.343529412,0.508235294 C0.396470588,0.927058824 0.756470588,1.28588235 1.29647059,1.46588235 C5.00235294,2.69176471 7.85764706,3.30352941 10.0082353,3.30352941 C10.4070588,3.30352941 10.7811765,3.28235294 11.1329412,3.24117647 C13.6,2.94823529 15.3258824,2.18470588 16.12,0.994117647 L16.12,7.64941176 C15.3258824,8.84 13.6,9.60352941 11.1329412,9.89529412 C10.7811765,9.93764706 10.4070588,9.95882353 10.0082353,9.95882353 C7.85764706,9.95882353 5.00235294,9.34588235 1.29647059,8.12117647 C0.756470588,7.94117647 0.396470588,7.58235294 0.343529412,7.16352941 L0.339852941,7.12 L0.339852941,7.12 L0.338823529,0.422352941" id="path-137"></path>
        <path d="M0.343529412,0.508235294 C0.396470588,0.927058824 0.756470588,1.28588235 1.29647059,1.46588235 C5.00235294,2.69176471 7.85764706,3.30352941 10.0082353,3.30352941 C10.4070588,3.30352941 10.7811765,3.28235294 11.1329412,3.24117647 C13.6,2.94823529 15.3258824,2.18470588 16.12,0.994117647 L16.12,7.64941176 C15.3258824,8.84 13.6,9.60352941 11.1329412,9.89529412 C10.7811765,9.93764706 10.4070588,9.95882353 10.0082353,9.95882353 C7.85764706,9.95882353 5.00235294,9.34588235 1.29647059,8.12117647 C0.756470588,7.94117647 0.396470588,7.58235294 0.343529412,7.16352941 L0.339852941,7.12 L0.339852941,7.12 L0.338823529,0.422352941" id="path-139"></path>
        <path d="M0.343529412,0.508235294 C0.396470588,0.927058824 0.756470588,1.28588235 1.29647059,1.46588235 C5.00235294,2.69176471 7.85764706,3.30352941 10.0082353,3.30352941 C10.4070588,3.30352941 10.7811765,3.28235294 11.1329412,3.24117647 C13.6,2.94823529 15.3258824,2.18470588 16.12,0.994117647 L16.12,7.64941176 C15.3258824,8.84 13.6,9.60352941 11.1329412,9.89529412 C10.7811765,9.93764706 10.4070588,9.95882353 10.0082353,9.95882353 C7.85764706,9.95882353 5.00235294,9.34588235 1.29647059,8.12117647 C0.756470588,7.94117647 0.396470588,7.58235294 0.343529412,7.16352941 L0.339852941,7.12 L0.339852941,7.12 L0.338823529,0.422352941" id="path-141"></path>
        <linearGradient x1="50%" y1="19.4346951%" x2="45.6189441%" y2="68.2585632%" id="linearGradient-143">
            <stop stop-color="#E2E0F1" offset="0%"></stop>
            <stop stop-color="#E8E6F2" offset="100%"></stop>
        </linearGradient>
        <path d="M0.343529412,0.508235294 C0.396470588,0.927058824 0.756470588,1.28588235 1.29647059,1.46588235 C5.00235294,2.69176471 7.85764706,3.30352941 10.0082353,3.30352941 C10.4070588,3.30352941 10.7811765,3.28235294 11.1329412,3.24117647 C13.6,2.94823529 15.3258824,2.18470588 16.12,0.994117647 L16.12,7.64941176 C15.3258824,8.84 13.6,9.60352941 11.1329412,9.89529412 C10.7811765,9.93764706 10.4070588,9.95882353 10.0082353,9.95882353 C7.85764706,9.95882353 5.00235294,9.34588235 1.29647059,8.12117647 C0.756470588,7.94117647 0.396470588,7.58235294 0.343529412,7.16352941 L0.339852941,7.12 L0.339852941,7.12 L0.338823529,0.422352941" id="path-144"></path>
        <linearGradient x1="50%" y1="-33.7012872%" x2="49.2339137%" y2="100%" id="linearGradient-146">
            <stop stop-color="#E2E0F1" offset="0%"></stop>
            <stop stop-color="#E8E6F2" offset="100%"></stop>
        </linearGradient>
        <path d="M0.954117647,0.228235294 L0.954117647,6.88352941 C0.943529412,7.21294118 0.742352941,7.51294118 0.414117647,7.72941176 L0.414117647,1.07529412" id="path-147"></path>
        <path d="M0.954117647,0.228235294 L0.954117647,6.88352941 C0.943529412,7.21294118 0.742352941,7.51294118 0.414117647,7.72941176 L0.414117647,1.07529412" id="path-149"></path>
        <path d="M0.954117647,0.228235294 L0.954117647,6.88352941 C0.943529412,7.21294118 0.742352941,7.51294118 0.414117647,7.72941176 L0.414117647,1.07529412" id="path-151"></path>
        <linearGradient x1="50%" y1="-33.7012872%" x2="49.8922339%" y2="100%" id="linearGradient-153">
            <stop stop-color="#E2E0F1" offset="0%"></stop>
            <stop stop-color="#E8E6F2" offset="100%"></stop>
        </linearGradient>
        <path d="M0.954117647,0.228235294 L0.954117647,6.88352941 C0.943529412,7.21294118 0.742352941,7.51294118 0.414117647,7.72941176 L0.414117647,1.07529412" id="path-154"></path>
        <linearGradient x1="50%" y1="-33.7012872%" x2="49.8154287%" y2="100%" id="linearGradient-156">
            <stop stop-color="#E2E0F1" offset="0%"></stop>
            <stop stop-color="#E8E6F2" offset="100%"></stop>
        </linearGradient>
        <linearGradient x1="50%" y1="-33.7012872%" x2="49.8039316%" y2="100%" id="linearGradient-157">
            <stop stop-color="#E2E0F1" offset="0%"></stop>
            <stop stop-color="#E8E6F2" offset="100%"></stop>
        </linearGradient>
        <linearGradient x1="50%" y1="-33.7012872%" x2="49.8034329%" y2="100%" id="linearGradient-158">
            <stop stop-color="#E2E0F1" offset="0%"></stop>
            <stop stop-color="#E8E6F2" offset="100%"></stop>
        </linearGradient>
        <path d="M0.00352941176,0.325882353 C0.0564705882,0.692941176 0.352941176,1.02235294 0.797647059,1.20941176 C1.06117647,1.32235294 1.35764706,1.37882353 1.65411765,1.37882353 C1.92941176,1.37882353 2.20352941,1.32941176 2.44941176,1.23176471 L2.44941176,7.88705882 C2.20352941,7.98470588 1.92941176,8.03294118 1.65411765,8.03294118 C1.35764706,8.03294118 1.06117647,7.97647059 0.797647059,7.86470588 C0.352941176,7.67764706 0.0564705882,7.34823529 0.00352941176,6.98117647" id="path-159"></path>
        <path d="M0.00352941176,0.325882353 C0.0564705882,0.692941176 0.352941176,1.02235294 0.797647059,1.20941176 C1.06117647,1.32235294 1.35764706,1.37882353 1.65411765,1.37882353 C1.92941176,1.37882353 2.20352941,1.32941176 2.44941176,1.23176471 L2.44941176,7.88705882 C2.20352941,7.98470588 1.92941176,8.03294118 1.65411765,8.03294118 C1.35764706,8.03294118 1.06117647,7.97647059 0.797647059,7.86470588 C0.352941176,7.67764706 0.0564705882,7.34823529 0.00352941176,6.98117647" id="path-161"></path>
        <path d="M0.00352941176,0.325882353 C0.0564705882,0.692941176 0.352941176,1.02235294 0.797647059,1.20941176 C1.06117647,1.32235294 1.35764706,1.37882353 1.65411765,1.37882353 C1.92941176,1.37882353 2.20352941,1.32941176 2.44941176,1.23176471 L2.44941176,7.88705882 C2.20352941,7.98470588 1.92941176,8.03294118 1.65411765,8.03294118 C1.35764706,8.03294118 1.06117647,7.97647059 0.797647059,7.86470588 C0.352941176,7.67764706 0.0564705882,7.34823529 0.00352941176,6.98117647" id="path-163"></path>
        <path d="M0.00352941176,0.325882353 C0.0564705882,0.692941176 0.352941176,1.02235294 0.797647059,1.20941176 C1.06117647,1.32235294 1.35764706,1.37882353 1.65411765,1.37882353 C1.92941176,1.37882353 2.20352941,1.32941176 2.44941176,1.23176471 L2.44941176,7.88705882 C2.20352941,7.98470588 1.92941176,8.03294118 1.65411765,8.03294118 C1.35764706,8.03294118 1.06117647,7.97647059 0.797647059,7.86470588 C0.352941176,7.67764706 0.0564705882,7.34823529 0.00352941176,6.98117647" id="path-165"></path>
        <path d="M0.00352941176,0.325882353 C0.0564705882,0.692941176 0.352941176,1.02235294 0.797647059,1.20941176 C1.06117647,1.32235294 1.35764706,1.37882353 1.65411765,1.37882353 C1.92941176,1.37882353 2.20352941,1.32941176 2.44941176,1.23176471 L2.44941176,7.88705882 C2.20352941,7.98470588 1.92941176,8.03294118 1.65411765,8.03294118 C1.35764706,8.03294118 1.06117647,7.97647059 0.797647059,7.86470588 C0.352941176,7.67764706 0.0564705882,7.34823529 0.00352941176,6.98117647" id="path-167"></path>
        <linearGradient x1="50%" y1="-33.7012872%" x2="49.3854668%" y2="100%" id="linearGradient-169">
            <stop stop-color="#E2E0F1" offset="0%"></stop>
            <stop stop-color="#E8E6F2" offset="100%"></stop>
        </linearGradient>
        <path d="M0.00352941176,0.325882353 C0.0564705882,0.692941176 0.352941176,1.02235294 0.797647059,1.20941176 C1.06117647,1.32235294 1.35764706,1.37882353 1.65411765,1.37882353 C1.92941176,1.37882353 2.20352941,1.32941176 2.44941176,1.23176471 L2.44941176,6.71058824 C2.20352941,6.80823529 1.92941176,6.85647059 1.65411765,6.85647059 C1.35764706,6.85647059 1.06117647,6.8 0.797647059,6.68823529 C0.352941176,6.50117647 0.0564705882,6.17176471 0.00352941176,5.80470588" id="path-170"></path>
        <linearGradient x1="50%" y1="-33.7012872%" x2="49.8542191%" y2="100%" id="linearGradient-172">
            <stop stop-color="#E2E0F1" offset="0%"></stop>
            <stop stop-color="#E8E6F2" offset="100%"></stop>
        </linearGradient>
        <path d="M15.98,0.970588235 L15.98,7.62588235 C15.98,7.89529412 15.8811765,8.17176471 15.6717647,8.4 C11.5847059,12.8023529 5.82470588,15.5129412 1.08117647,15.6623529 L1.08117647,9.00705882 C5.82470588,8.85764706 11.5847059,6.14705882 15.6717647,1.74588235 C15.8811765,1.51764706 15.98,1.24 15.98,0.970588235 Z" id="path-173"></path>
        <path d="M15.98,0.970588235 L15.98,7.62588235 C15.98,7.89529412 15.8811765,8.17176471 15.6717647,8.4 C11.5847059,12.8023529 5.82470588,15.5129412 1.08117647,15.6623529 L1.08117647,9.00705882 C5.82470588,8.85764706 11.5847059,6.14705882 15.6717647,1.74588235" id="path-175"></path>
        <linearGradient x1="50%" y1="0%" x2="50%" y2="68.0749974%" id="linearGradient-177">
            <stop stop-color="#EFEEF8" offset="0%"></stop>
            <stop stop-color="#E8E6F2" offset="100%"></stop>
        </linearGradient>
        <path d="M15.98,0.970588235 L15.98,6.44941176 C15.98,6.71882353 15.8811765,6.99529412 15.6717647,7.22352941 C11.5847059,11.6258824 5.82470588,14.3364706 1.08117647,14.4858824 L1.08117647,9.00705882 C5.82470588,8.85764706 11.5847059,6.14705882 15.6717647,1.74588235" id="path-178"></path>
        <linearGradient x1="50%" y1="0%" x2="50%" y2="68.0749974%" id="linearGradient-180">
            <stop stop-color="#EFEEF8" offset="0%"></stop>
            <stop stop-color="#E8E6F2" offset="100%"></stop>
        </linearGradient>
        <linearGradient x1="50%" y1="0%" x2="50%" y2="68.0749974%" id="linearGradient-181">
            <stop stop-color="#EFEEF8" offset="0%"></stop>
            <stop stop-color="#E8E6F2" offset="100%"></stop>
        </linearGradient>
        <path d="M1.12588235,0.945764706 C1.12588235,1.58929412 1.86705882,2.11282353 2.77764706,2.11282353 L2.84117647,7.52208147 C1.93058824,7.52208147 1.18941176,6.99855206 1.18941176,6.35384617" id="path-182"></path>
        <linearGradient x1="50%" y1="0%" x2="50%" y2="68.0749974%" id="linearGradient-184">
            <stop stop-color="#EFEEF8" offset="0%"></stop>
            <stop stop-color="#E8E6F2" offset="100%"></stop>
        </linearGradient>
        <linearGradient x1="50%" y1="0%" x2="50%" y2="68.0749974%" id="linearGradient-185">
            <stop stop-color="#EFEEF8" offset="0%"></stop>
            <stop stop-color="#E8E6F2" offset="100%"></stop>
        </linearGradient>
    </defs>
    <g id="图形/zyb" stroke="none" stroke-width="1" fill="none" fill-rule="evenodd">
        <g id="编组-3" transform="translate(-8.000000, -7.000000)">
            <polygon id="Path-2" fill="#FFFFFF" fill-rule="nonzero" points="33.1477445 13.5061012 8.4554 25.1226389 8.4554 43.7847347 10.3095419 46.7293963 33.1477445 57.5287294 35.2593578 57.5287294 59.4786883 45.6750854 61.1751043 43.0052418 61.1751043 26.7852848 60.491829 25.1226389 35.0004467 13.5061012"></polygon>
            <polygon id="Path-29" fill="#F7F6FD" points="35.0004467 40.7452108 60.491829 28.7852848 60.491829 45.7205936 35.0004467 57.7217293"></polygon>
            <path d="M53.3955837,10.7407369 L43.4463946,36.6476403 C43.3422214,36.918899 43.1262141,37.1321148 42.8536233,37.232751 L17.5376182,46.5790147 C17.0145904,46.7721082 16.4340594,46.5046436 16.2409659,45.9816158 C16.1582865,45.757664 16.1576483,45.511658 16.2391648,45.2872803 L25.0585925,21.0114016 C25.4241263,20.0052531 26.2106426,19.2087881 27.2121173,18.8306368 L52.0965783,9.43440286 C52.6181666,9.23745403 53.200656,9.5006263 53.3976048,10.0222146 C53.4850745,10.2538645 53.4843552,10.5095828 53.3955837,10.7407369 Z" id="Path" stroke="#E7E6F1" stroke-width="1.1124" fill-rule="nonzero" transform="translate(34.849360, 27.985942) rotate(45.000000) translate(-34.849360, -27.985942) "></path>
            <line x1="34.4880555" y1="40.794725" x2="34.4880555" y2="57.5287294" id="Line-2" stroke="#E7E6F1" stroke-width="1.1124" fill-rule="nonzero"></line>
            <path d="M46.8749745,12.3121438 L57.2015544,22.3878408 C58.3228335,23.4818787 58.7101443,25.125731 58.195231,26.6052748 L49.9661353,50.2506283 C49.5665165,51.3988867 48.6707939,52.305968 47.5276621,52.7200238 L25.3382146,60.7573043 C23.8648581,61.2909715 22.215781,60.9240357 21.1077242,59.8159789 L10.4004302,49.1086849 L10.4004302,49.1086849" id="Path" stroke="#E7E6F1" stroke-width="1.1124" fill-rule="nonzero" transform="translate(34.719735, 36.972018) rotate(45.000000) translate(-34.719735, -36.972018) "></path>
        </g>
        <g id="编组" transform="translate(7.000000, 2.000000)">
            <mask id="mask-2" fill="white">
                <use xlink:href="#path-1"></use>
            </mask>
            <g id="Clip-2"></g>
            <polygon id="Fill-1" fill="url(#linearGradient-3)" mask="url(#mask-2)" points="8.4 9.38035294 31.2705882 9.38035294 31.2705882 2.72505882 8.4 2.72505882"></polygon>
            <g mask="url(#mask-2)">
                <g transform="translate(7.058824, 7.502706)">
                    <g>
                        <mask id="mask-5" fill="white">
                            <use xlink:href="#path-4"></use>
                        </mask>
                        <g id="Clip-5"></g>
                        <path d="M1.34117647,0.410941176 L1.34117647,7.06623529 C1.34117647,7.07329412 1.34117647,7.08035294 1.34117647,7.08741176 L1.34117647,0.433294118 C1.34117647,0.426235294 1.34117647,0.418 1.34117647,0.410941176" id="Fill-4" fill="#312675" mask="url(#mask-5)"></path>
                    </g>
                    <g>
                        <mask id="mask-7" fill="white">
                            <use xlink:href="#path-6"></use>
                        </mask>
                        <g id="Clip-7"></g>
                        <path d="M1.34058824,0.432705882 L1.34058824,7.088 C1.33941176,7.14447059 1.33235294,7.19858824 1.31941176,7.25270588 L1.31941176,0.597411765 C1.33235294,0.543294118 1.33941176,0.488 1.34058824,0.432705882" id="Fill-6" fill="#322779" mask="url(#mask-7)"></path>
                    </g>
                    <g>
                        <mask id="mask-9" fill="white">
                            <use xlink:href="#path-8"></use>
                        </mask>
                        <g id="Clip-9"></g>
                        <path d="M1.31988235,0.597058824 L1.31988235,7.25235294 C1.30576471,7.31352941 1.28458824,7.37470588 1.25752941,7.43235294 L1.25752941,0.777058824 C1.28458824,0.719411765 1.30576471,0.659411765 1.31988235,0.597058824" id="Fill-8" fill="#34287D" mask="url(#mask-9)"></path>
                    </g>
                    <g>
                        <mask id="mask-11" fill="white">
                            <use xlink:href="#path-10"></use>
                        </mask>
                        <g id="Clip-11"></g>
                        <path d="M1.25729412,0.777411765 L1.25729412,7.43270588 C1.21729412,7.51741176 1.16317647,7.59858824 1.09729412,7.67505882 L1.09729412,1.01976471 C1.16317647,0.944470588 1.21729412,0.863294118 1.25729412,0.777411765" id="Fill-10" fill="#362A81" mask="url(#mask-11)"></path>
                    </g>
                    <g>
                        <mask id="mask-13" fill="white">
                            <use xlink:href="#path-12"></use>
                        </mask>
                        <g id="Clip-13"></g>
                        <path d="M1.09764706,1.01976471 L1.09764706,7.67505882 C0.977647059,7.81152941 0.82,7.93035294 0.634117647,8.02211765 L0.634117647,1.36682353 C0.82,1.27505882 0.977647059,1.15623529 1.09764706,1.01976471" id="Fill-12" fill="#372B85" mask="url(#mask-13)"></path>
                    </g>
                    <g>
                        <mask id="mask-15" fill="white">
                            <use xlink:href="#path-14"></use>
                        </mask>
                        <g id="Clip-15"></g>
                        <path d="M0.634588235,1.36729412 L0.634588235,8.02258824 C0.529882353,8.07435294 0.416941176,8.11788235 0.296941176,8.152 L0.296941176,1.49670588 C0.416941176,1.46258824 0.529882353,1.41905882 0.634588235,1.36729412" id="Fill-14" fill="#362A81" mask="url(#mask-15)"></path>
                    </g>
                    <g>
                        <mask id="mask-18" fill="white">
                            <use xlink:href="#path-17"></use>
                        </mask>
                        <use id="Clip-17" fill="url(#linearGradient-16)" xlink:href="#path-17"></use>
                        <path d="M0.296823529,1.49658824 L0.296823529,8.15188235 C0.220352941,8.17305882 0.141529412,8.19070588 0.0591764706,8.20482353 L0.0591764706,1.54835294 C0.141529412,1.53541176 0.220352941,1.51776471 0.296823529,1.49658824" id="Fill-16" fill="url(#linearGradient-19)" mask="url(#mask-18)"></path>
                    </g>
                </g>
            </g>
            <polygon id="Fill-18" fill="url(#linearGradient-20)" mask="url(#mask-2)" points="7.11835294 9.05152941 7.11835294 15.7068235 6.92776471 15.7291765 6.92776471 9.07388235"></polygon>
            <g mask="url(#mask-2)">
                <g transform="translate(4.705882, 7.502706)">
                    <g>
                        <mask id="mask-22" fill="white">
                            <use xlink:href="#path-21"></use>
                        </mask>
                        <g id="Clip-20"></g>
                        <path d="M2.042,1.57870588 L2.042,8.234 C2.00905882,8.234 1.97494118,8.23282353 1.942,8.23164706 L1.942,1.57752941 C1.97494118,1.57870588 2.00905882,1.57870588 2.042,1.57870588" id="Fill-19" fill="#312675" mask="url(#mask-22)"></path>
                    </g>
                    <g>
                        <mask id="mask-24" fill="white">
                            <use xlink:href="#path-23"></use>
                        </mask>
                        <g id="Clip-22"></g>
                        <path d="M1.942,1.57705882 L1.942,8.23235294 C1.862,8.22882353 1.78317647,8.22058824 1.70670588,8.21 L1.70670588,1.55470588 C1.78317647,1.56647059 1.862,1.57352941 1.942,1.57705882" id="Fill-21" fill="#2F2471" mask="url(#mask-24)"></path>
                    </g>
                    <g>
                        <mask id="mask-27" fill="white">
                            <use xlink:href="#path-26"></use>
                        </mask>
                        <use id="Clip-26" fill="url(#linearGradient-25)" xlink:href="#path-26"></use>
                    </g>
                </g>
            </g>
            <polygon id="Fill-27" fill="url(#linearGradient-28)" mask="url(#mask-2)" points="6.92764706 9.074 6.92764706 15.7292941 6.74764706 15.7375294 6.74764706 9.08105882"></polygon>
            <g mask="url(#mask-2)">
                <g transform="translate(31.764706, 8.679176)">
                    <g>
                        <mask id="mask-30" fill="white">
                            <use xlink:href="#path-29"></use>
                        </mask>
                        <g id="Clip-29"></g>
                        <path d="M2.80894118,0.507411765 L2.80894118,7.16270588 C2.80894118,7.17564706 2.80894118,7.18858824 2.80894118,7.20152941 L2.80894118,0.546235294 C2.80894118,0.533294118 2.80894118,0.520352941 2.80894118,0.507411765" id="Fill-28" fill="#312675" mask="url(#mask-30)"></path>
                    </g>
                    <g>
                        <mask id="mask-32" fill="white">
                            <use xlink:href="#path-31"></use>
                        </mask>
                        <g id="Clip-31"></g>
                        <path d="M2.80835294,0.545882353 L2.80835294,7.20117647 C2.806,7.3 2.79305882,7.39764706 2.77188235,7.49176471 L2.77188235,0.837647059 C2.79305882,0.742352941 2.806,0.644705882 2.80835294,0.545882353" id="Fill-30" fill="#322779" mask="url(#mask-32)"></path>
                    </g>
                    <g>
                        <mask id="mask-34" fill="white">
                            <use xlink:href="#path-33"></use>
                        </mask>
                        <g id="Clip-33"></g>
                        <path d="M2.77211765,0.837176471 L2.77211765,7.49247059 C2.74741176,7.60188235 2.70976471,7.70776471 2.66152941,7.81011765 L2.66152941,1.156 C2.70976471,1.05247059 2.74741176,0.946588235 2.77211765,0.837176471" id="Fill-32" fill="#34287D" mask="url(#mask-34)"></path>
                    </g>
                    <g>
                        <mask id="mask-36" fill="white">
                            <use xlink:href="#path-35"></use>
                        </mask>
                        <g id="Clip-35"></g>
                        <path d="M2.66129412,1.15541176 L2.66129412,7.81070588 C2.58952941,7.96364706 2.49423529,8.10717647 2.37658824,8.24129412 L2.37658824,1.586 C2.49423529,1.45188235 2.58952941,1.30717647 2.66129412,1.15541176" id="Fill-34" fill="#362A81" mask="url(#mask-36)"></path>
                    </g>
                    <g>
                        <mask id="mask-38" fill="white">
                            <use xlink:href="#path-37"></use>
                        </mask>
                        <g id="Clip-37"></g>
                        <path d="M2.37635294,1.58623529 L2.37635294,8.24152941 C2.16811765,8.48035294 1.89164706,8.68623529 1.56811765,8.84623529 L1.56811765,2.19094118 C1.89164706,2.03094118 2.16811765,1.82505882 2.37635294,1.58623529" id="Fill-36" fill="#372B85" mask="url(#mask-38)"></path>
                    </g>
                    <g>
                        <mask id="mask-40" fill="white">
                            <use xlink:href="#path-39"></use>
                        </mask>
                        <g id="Clip-39"></g>
                        <path d="M1.56870588,2.19105882 L1.56870588,8.84635294 C1.38752941,8.93576471 1.19223529,9.01105882 0.984,9.06988235 L0.984,2.41458824 C1.19223529,2.35576471 1.38752941,2.28047059 1.56870588,2.19105882" id="Fill-38" fill="#362A81" mask="url(#mask-40)"></path>
                    </g>
                    <g>
                        <mask id="mask-42" fill="white">
                            <use xlink:href="#path-41"></use>
                        </mask>
                        <g id="Clip-41"></g>
                        <path d="M0.983882353,2.41458824 L0.983882353,9.06988235 C0.843882353,9.10870588 0.698,9.14047059 0.548588235,9.164 L0.548588235,2.50988235 C0.698,2.48635294 0.843882353,2.45341176 0.983882353,2.41458824" id="Fill-40" fill="#34287D" mask="url(#mask-42)"></path>
                    </g>
                    <g>
                        <mask id="mask-45" fill="white">
                            <use xlink:href="#path-44"></use>
                        </mask>
                        <use id="Clip-43" fill="url(#linearGradient-43)" xlink:href="#path-44"></use>
                        <path d="M0.548470588,2.50929412 L0.548470588,9.16458824 C0.419058824,9.18458824 0.286117647,9.19870588 0.152,9.20576471 L0.152,2.55164706 C0.286117647,2.54341176 0.419058824,2.52929412 0.548470588,2.50929412" id="Fill-42" fill="url(#linearGradient-46)" mask="url(#mask-45)"></path>
                    </g>
                </g>
            </g>
            <path d="M6.74788235,9.08141176 C5.90082353,9.08141176 5.202,8.62494118 5.10670588,8.04141176 L5.09611765,7.91317647 L5.09611765,2.43317647 C5.09611765,1.36258824 6.27141176,0.479058824 7.75376471,0.396705882 L7.99729412,0.389647059 L31.6725882,0.389647059 C33.1972941,0.389647059 34.4467059,1.21317647 34.5631765,2.26847059 L34.5737647,2.43317647 L34.5737647,9.18611765 C34.5737647,10.2649412 33.3984706,11.1484706 31.9161176,11.2308235 L31.6725882,11.2378824 L18.3314118,11.2378824 C17.4208235,11.2378824 16.6796471,10.7143529 16.6796471,10.0696471 C16.6796471,9.46376471 17.3255294,8.96964706 18.1514118,8.90964706 L18.3314118,8.90258824 L31.2702353,8.90258824 L31.2702353,2.72494118 L8.39964706,2.72494118 L8.39964706,7.91317647 C8.39964706,8.46847059 7.84905882,8.932 7.11847059,9.052 L6.92788235,9.07435294 L6.74788235,9.08141176 Z" id="Fill-44" fill="#CECBE1" mask="url(#mask-2)"></path>
            <g mask="url(#mask-2)">
                <g transform="translate(16.470588, 9.855647)">
                    <g>
                        <mask id="mask-48" fill="white">
                            <use xlink:href="#path-47"></use>
                        </mask>
                        <g id="Clip-46"></g>
                        <path d="M1.86105882,1.38223529 L1.86105882,8.03752941 C1.82694118,8.03752941 1.79282353,8.03635294 1.75988235,8.03517647 L1.75988235,1.37988235 C1.79282353,1.38223529 1.82694118,1.38223529 1.86105882,1.38223529" id="Fill-45" fill="#312675" mask="url(#mask-48)"></path>
                    </g>
                    <g>
                        <mask id="mask-50" fill="white">
                            <use xlink:href="#path-49"></use>
                        </mask>
                        <g id="Clip-48"></g>
                        <path d="M1.76,1.38 L1.76,8.03529412 C1.67882353,8.03176471 1.6,8.02352941 1.52235294,8.01294118 L1.52235294,1.35764706 C1.6,1.36941176 1.67882353,1.37647059 1.76,1.38" id="Fill-47" fill="#2F2471" mask="url(#mask-50)"></path>
                    </g>
                    <g>
                        <mask id="mask-52" fill="white">
                            <use xlink:href="#path-51"></use>
                        </mask>
                        <g id="Clip-50"></g>
                        <path d="M1.52270588,1.35752941 L1.52270588,8.01282353 C1.42976471,7.99870588 1.33917647,7.97988235 1.25329412,7.95517647 L1.25329412,1.29988235 C1.33917647,1.32458824 1.42976471,1.34341176 1.52270588,1.35752941" id="Fill-49" fill="#2D236D" mask="url(#mask-52)"></path>
                    </g>
                    <g>
                        <mask id="mask-55" fill="white">
                            <use xlink:href="#path-54"></use>
                        </mask>
                        <use id="Clip-52" fill="url(#linearGradient-53)" xlink:href="#path-54"></use>
                        <path d="M1.25270588,1.30011765 L1.25270588,7.95541176 C0.642117647,7.78364706 0.209176471,7.36129412 0.209176471,6.86952941 L0.209176471,0.214235294 C0.209176471,0.707176471 0.642117647,1.12835294 1.25270588,1.30011765" id="Fill-51" fill="url(#linearGradient-56)" mask="url(#mask-55)"></path>
                    </g>
                </g>
            </g>
            <polygon id="Fill-53" fill="url(#linearGradient-57)" mask="url(#mask-2)" points="18.3317647 17.8932941 31.6729412 17.8932941 31.6729412 11.238 18.3317647 11.238"></polygon>
            <polygon id="Fill-54" fill="url(#linearGradient-58)" mask="url(#mask-2)" points="31.9162353 11.2304706 31.9162353 17.8857647 31.6727059 17.8928235 31.6727059 11.2375294"></polygon>
            <polygon id="Fill-55" fill="url(#linearGradient-59)" mask="url(#mask-2)" points="15.1445882 14.8465882 15.1445882 21.5018824 14.5410588 21.1501176 14.5410588 14.4948235"></polygon>
            <g mask="url(#mask-2)">
                <g transform="translate(3.529412, 12.208588)">
                    <g>
                        <mask id="mask-61" fill="white">
                            <use xlink:href="#path-60"></use>
                        </mask>
                        <g id="Clip-57"></g>
                        <path d="M11.0114118,2.28647059 L11.0114118,8.94176471 C10.022,8.33823529 9.28788235,7.98058824 8.45847059,7.74882353 L8.45847059,1.09352941 C9.28788235,1.32647059 10.022,1.68294118 11.0114118,2.28647059" id="Fill-56" fill="#2C2269" mask="url(#mask-61)"></path>
                    </g>
                    <g>
                        <mask id="mask-63" fill="white">
                            <use xlink:href="#path-62"></use>
                        </mask>
                        <g id="Clip-59"></g>
                        <path d="M8.458,1.09329412 L8.458,7.74858824 C8.08623529,7.64388235 7.69329412,7.56505882 7.25094118,7.50035294 L7.25094118,0.845058824 C7.69329412,0.909764706 8.08623529,0.989764706 8.458,1.09329412" id="Fill-58" fill="#2D236D" mask="url(#mask-63)"></path>
                    </g>
                    <g>
                        <mask id="mask-65" fill="white">
                            <use xlink:href="#path-64"></use>
                        </mask>
                        <g id="Clip-61"></g>
                        <path d="M7.25047059,0.844588235 L7.25047059,7.49988235 C7.07635294,7.474 6.894,7.45047059 6.70223529,7.42929412 C6.55988235,7.41282353 6.41752941,7.40223529 6.27282353,7.39635294 L6.27282353,0.741058824 C6.41752941,0.746941176 6.55988235,0.758705882 6.70223529,0.774 C6.894,0.795176471 7.07635294,0.819882353 7.25047059,0.844588235" id="Fill-60" fill="#2F2471" mask="url(#mask-65)"></path>
                    </g>
                    <g>
                        <mask id="mask-67" fill="white">
                            <use xlink:href="#path-66"></use>
                        </mask>
                        <g id="Clip-63"></g>
                        <path d="M6.27341176,0.741176471 L6.27341176,7.39647059 C6.17929412,7.39176471 6.08517647,7.39058824 5.99105882,7.39058824 C5.86635294,7.39058824 5.74164706,7.39411765 5.61576471,7.40117647 L5.61576471,0.745882353 C5.74164706,0.738823529 5.86635294,0.735294118 5.99105882,0.735294118 C6.08517647,0.735294118 6.17929412,0.737647059 6.27341176,0.741176471" id="Fill-62" fill="#312675" mask="url(#mask-67)"></path>
                    </g>
                    <g>
                        <mask id="mask-69" fill="white">
                            <use xlink:href="#path-68"></use>
                        </mask>
                        <g id="Clip-65"></g>
                        <path d="M5.61623529,0.745764706 L5.61623529,7.40105882 C5.37505882,7.414 5.13152941,7.43988235 4.88447059,7.47870588 L4.88447059,0.823411765 C5.13152941,0.784588235 5.37505882,0.758705882 5.61623529,0.745764706" id="Fill-64" fill="#322779" mask="url(#mask-69)"></path>
                    </g>
                    <g>
                        <mask id="mask-71" fill="white">
                            <use xlink:href="#path-70"></use>
                        </mask>
                        <g id="Clip-67"></g>
                        <path d="M4.88435294,0.823294118 L4.88435294,7.47858824 C4.56905882,7.528 4.24905882,7.59858824 3.92435294,7.69035294 L3.92435294,1.03505882 C4.24905882,0.943294118 4.56905882,0.872705882 4.88435294,0.823294118" id="Fill-66" fill="#34287D" mask="url(#mask-71)"></path>
                    </g>
                    <g>
                        <mask id="mask-73" fill="white">
                            <use xlink:href="#path-72"></use>
                        </mask>
                        <g id="Clip-69"></g>
                        <path d="M3.92388235,1.03529412 L3.92388235,7.69058824 C3.33094118,7.85764706 2.72035294,8.09529412 2.09329412,8.40588235 L2.09329412,1.75058824 C2.72035294,1.44 3.33094118,1.20235294 3.92388235,1.03529412" id="Fill-68" fill="#362A81" mask="url(#mask-73)"></path>
                    </g>
                    <g>
                        <mask id="mask-76" fill="white">
                            <use xlink:href="#path-75"></use>
                        </mask>
                        <use id="Clip-71" fill="url(#linearGradient-74)" xlink:href="#path-75"></use>
                        <path d="M2.09364706,1.75047059 L2.09364706,8.40576471 C1.44894118,8.72458824 0.786588235,9.11988235 0.105411765,9.59282353 L0.105411765,2.93752941 C0.786588235,2.46458824 1.44894118,2.06929412 2.09364706,1.75047059" id="Fill-70" fill="url(#linearGradient-77)" mask="url(#mask-76)"></path>
                    </g>
                </g>
            </g>
            <polygon id="Fill-72" fill="url(#linearGradient-78)" mask="url(#mask-2)" points="3.63494118 15.1458824 3.63494118 21.8011765 3.402 21.9658824 3.402 15.3105882"></polygon>
            <g mask="url(#mask-2)">
                <g transform="translate(32.941176, 14.561529)">
                    <g>
                        <mask id="mask-80" fill="white">
                            <use xlink:href="#path-79"></use>
                        </mask>
                        <g id="Clip-74"></g>
                        <path d="M2.96682353,0.876823529 L2.96682353,7.53211765 C2.74094118,7.32388235 2.53270588,7.19447059 2.30917647,7.13211765 L2.30917647,0.476823529 C2.53270588,0.539176471 2.74094118,0.668588235 2.96682353,0.876823529" id="Fill-73" fill="#2C2269" mask="url(#mask-80)"></path>
                    </g>
                    <g>
                        <mask id="mask-82" fill="white">
                            <use xlink:href="#path-81"></use>
                        </mask>
                        <g id="Clip-76"></g>
                        <path d="M2.30917647,0.476941176 L2.30917647,7.13223529 C2.25976471,7.11811765 2.21152941,7.10752941 2.16094118,7.10047059 L2.16094118,0.445176471 C2.21152941,0.452235294 2.25976471,0.462823529 2.30917647,0.476941176" id="Fill-75" fill="#2D236D" mask="url(#mask-82)"></path>
                    </g>
                    <g>
                        <mask id="mask-84" fill="white">
                            <use xlink:href="#path-83"></use>
                        </mask>
                        <g id="Clip-78"></g>
                        <path d="M2.16035294,0.445411765 L2.16035294,7.10070588 C2.11564706,7.09364706 2.07211765,7.09011765 2.02623529,7.08776471 L2.02623529,0.432470588 C2.07211765,0.434823529 2.11564706,0.439529412 2.16035294,0.445411765" id="Fill-77" fill="#2F2471" mask="url(#mask-84)"></path>
                    </g>
                    <g>
                        <mask id="mask-86" fill="white">
                            <use xlink:href="#path-85"></use>
                        </mask>
                        <g id="Clip-80"></g>
                        <path d="M2.02588235,0.432705882 L2.02588235,7.088 C2.00588235,7.08682353 1.98588235,7.08682353 1.96470588,7.08682353 C1.93647059,7.08682353 1.90823529,7.08682353 1.87882353,7.08917647 L1.87882353,0.433882353 C1.90823529,0.432705882 1.93647059,0.431529412 1.96470588,0.431529412 C1.98588235,0.431529412 2.00588235,0.431529412 2.02588235,0.432705882" id="Fill-79" fill="#312675" mask="url(#mask-86)"></path>
                    </g>
                    <g>
                        <mask id="mask-88" fill="white">
                            <use xlink:href="#path-87"></use>
                        </mask>
                        <g id="Clip-82"></g>
                        <path d="M1.87941176,0.433882353 L1.87941176,7.08917647 C1.82058824,7.09270588 1.76058824,7.09858824 1.69823529,7.108 L1.69823529,0.453882353 C1.76058824,0.443294118 1.82058824,0.436235294 1.87941176,0.433882353" id="Fill-81" fill="#322779" mask="url(#mask-88)"></path>
                    </g>
                    <g>
                        <mask id="mask-90" fill="white">
                            <use xlink:href="#path-89"></use>
                        </mask>
                        <g id="Clip-84"></g>
                        <path d="M1.69847059,0.453411765 L1.69847059,7.10870588 C1.60905882,7.12164706 1.51729412,7.14282353 1.42082353,7.16988235 L1.42082353,0.515764706 C1.51729412,0.487529412 1.60905882,0.467529412 1.69847059,0.453411765" id="Fill-83" fill="#34287D" mask="url(#mask-90)"></path>
                    </g>
                    <g>
                        <mask id="mask-92" fill="white">
                            <use xlink:href="#path-91"></use>
                        </mask>
                        <g id="Clip-86"></g>
                        <path d="M1.42047059,0.515411765 L1.42047059,7.17070588 C1.184,7.23658824 0.920470588,7.34364706 0.622823529,7.49070588 L0.622823529,0.835411765 C0.920470588,0.688352941 1.184,0.582470588 1.42047059,0.515411765" id="Fill-85" fill="#362A81" mask="url(#mask-92)"></path>
                    </g>
                    <g>
                        <mask id="mask-95" fill="white">
                            <use xlink:href="#path-94"></use>
                        </mask>
                        <use id="Clip-88" fill="url(#linearGradient-93)" xlink:href="#path-94"></use>
                        <path d="M0.622588235,0.836 L0.622588235,7.49129412 C0.572,7.516 0.520235294,7.54188235 0.468470588,7.56894118 L0.468470588,0.913647059 C0.520235294,0.886588235 0.572,0.860705882 0.622588235,0.836" id="Fill-87" fill="url(#linearGradient-96)" mask="url(#mask-95)"></path>
                    </g>
                </g>
            </g>
            <polygon id="Fill-89" fill="url(#linearGradient-97)" mask="url(#mask-2)" points="33.4091765 15.4756471 33.4091765 22.1309412 33.1762353 22.258 33.1762353 15.6027059"></polygon>
            <polygon id="Fill-90" fill="url(#linearGradient-97)" mask="url(#mask-2)" points="33.176 15.6031765 33.176 22.2584706 32.9430588 22.3855294 32.9430588 15.7302353"></polygon>
            <g mask="url(#mask-2)">
                <g transform="translate(14.117647, 14.561529)">
                    <mask id="mask-99" fill="white">
                        <use xlink:href="#path-98"></use>
                    </mask>
                    <g id="Clip-92" stroke="none" fill="none"></g>
                    <path d="M3.07023529,1.29611765 L3.07023529,7.95141176 C2.382,7.69611765 1.85258824,7.43494118 1.02670588,6.93964706 L1.02670588,0.285529412 C1.85258824,0.779647059 2.382,1.042 3.07023529,1.29611765" id="Fill-91" stroke="none" fill="url(#linearGradient-100)" fill-rule="evenodd" mask="url(#mask-99)"></path>
                </g>
            </g>
            <g mask="url(#mask-2)">
                <g transform="translate(16.470588, 15.738000)">
                    <g>
                        <mask id="mask-102" fill="white">
                            <use xlink:href="#path-101"></use>
                        </mask>
                        <g id="Clip-94"></g>
                        <path d="M5.05847059,0.733176471 L5.05847059,7.38847059 C4.80552941,7.38494118 4.55023529,7.37670588 4.29494118,7.36611765 L4.29494118,0.710823529 C4.55023529,0.721411765 4.80552941,0.729647059 5.05847059,0.733176471" id="Fill-93" fill="#312675" mask="url(#mask-102)"></path>
                    </g>
                    <g>
                        <mask id="mask-104" fill="white">
                            <use xlink:href="#path-103"></use>
                        </mask>
                        <g id="Clip-96"></g>
                        <path d="M4.29447059,0.710705882 L4.29447059,7.366 C4.058,7.35541176 3.82152941,7.34247059 3.58623529,7.32835294 C3.178,7.30011765 2.79917647,7.26011765 2.44741176,7.20835294 L2.44741176,0.553058824 C2.79917647,0.606 3.178,0.644823529 3.58623529,0.673058824 C3.82152941,0.687176471 4.058,0.700117647 4.29447059,0.710705882" id="Fill-95" fill="#2F2471" mask="url(#mask-104)"></path>
                    </g>
                    <g>
                        <mask id="mask-106" fill="white">
                            <use xlink:href="#path-105"></use>
                        </mask>
                        <g id="Clip-98"></g>
                        <path d="M2.44694118,0.553411765 L2.44694118,7.20870588 C2.04341176,7.14870588 1.67282353,7.07341176 1.32576471,6.97576471 L1.32576471,0.320470588 C1.67282353,0.418117647 2.04341176,0.494588235 2.44694118,0.553411765" id="Fill-97" fill="#2D236D" mask="url(#mask-106)"></path>
                    </g>
                    <g>
                        <mask id="mask-109" fill="white">
                            <use xlink:href="#path-108"></use>
                        </mask>
                        <use id="Clip-100" fill="url(#linearGradient-107)" xlink:href="#path-108"></use>
                        <path d="M1.32623529,0.320705882 L1.32623529,6.976 C1.11447059,6.91717647 0.912117647,6.85011765 0.716823529,6.77482353 L0.716823529,0.119529412 C0.912117647,0.194823529 1.11447059,0.261882353 1.32623529,0.320705882" id="Fill-99" fill="url(#linearGradient-110)" mask="url(#mask-109)"></path>
                    </g>
                </g>
            </g>
            <polygon id="Fill-101" fill="url(#linearGradient-111)" mask="url(#mask-2)" points="21.7835294 16.4785882 21.7835294 23.1338824 21.5294118 23.1268235 21.5294118 16.4715294"></polygon>
            <polygon id="Fill-102" fill="url(#linearGradient-112)" mask="url(#mask-2)" points="22.3867059 16.5090588 22.3867059 23.1643529 21.7831765 23.1337647 21.7831765 16.4784706"></polygon>
            <g mask="url(#mask-2)">
                <g transform="translate(28.235294, 14.561529)">
                    <g>
                        <mask id="mask-114" fill="white">
                            <use xlink:href="#path-113"></use>
                        </mask>
                        <g id="Clip-104"></g>
                        <path d="M4.708,1.16858824 L4.708,7.82388235 C4.51035294,7.93917647 4.30447059,8.05094118 4.08917647,8.15682353 L4.08917647,1.50152941 C4.30447059,1.39564706 4.51035294,1.28505882 4.708,1.16858824" id="Fill-103" fill="#372B85" mask="url(#mask-114)"></path>
                    </g>
                    <g>
                        <mask id="mask-116" fill="white">
                            <use xlink:href="#path-115"></use>
                        </mask>
                        <g id="Clip-106"></g>
                        <path d="M4.08929412,1.50176471 L4.08929412,8.15705882 C3.36458824,8.51470588 2.53282353,8.82176471 1.55752941,9.09705882 L1.55752941,2.44176471 C2.53282353,2.16647059 3.36458824,1.85941176 4.08929412,1.50176471" id="Fill-105" fill="#362A81" mask="url(#mask-116)"></path>
                    </g>
                    <g>
                        <mask id="mask-119" fill="white">
                            <use xlink:href="#path-118"></use>
                        </mask>
                        <use id="Clip-108" fill="url(#linearGradient-117)" xlink:href="#path-118"></use>
                        <path d="M1.55717647,2.44152941 L1.55717647,9.09682353 C1.07952941,9.23094118 0.567764706,9.35682353 0.0171764706,9.478 L0.0171764706,2.82270588 C0.567764706,2.70270588 1.07952941,2.57564706 1.55717647,2.44152941" id="Fill-107" fill="url(#linearGradient-120)" mask="url(#mask-119)"></path>
                    </g>
                </g>
            </g>
            <polygon id="Fill-109" fill="url(#linearGradient-121)" mask="url(#mask-2)" points="28.2529412 17.3845882 28.2529412 24.0398824 27.5752941 24.1822353 27.5752941 17.5269412"></polygon>
            <g mask="url(#mask-2)">
                <g transform="translate(25.882353, 16.914471)">
                    <mask id="mask-123" fill="white">
                        <use xlink:href="#path-122"></use>
                    </mask>
                    <g id="Clip-111" stroke="none" fill="none"></g>
                    <path d="M1.69270588,0.612470588 L1.69270588,7.26776471 C1.45976471,7.31247059 1.21623529,7.36541176 0.962117647,7.41717647 L0.962117647,0.761882353 C1.21623529,0.710117647 1.45976471,0.657176471 1.69270588,0.612470588" id="Fill-110" stroke="none" fill="url(#linearGradient-124)" fill-rule="evenodd" mask="url(#mask-123)"></path>
                </g>
            </g>
            <polygon id="Fill-112" fill="url(#linearGradient-125)" mask="url(#mask-2)" points="26.8443529 17.6769412 26.8443529 24.3322353 25.5314118 24.564 25.5314118 17.9087059"></polygon>
            <polygon id="Fill-113" fill="url(#linearGradient-126)" mask="url(#mask-2)" points="3.40235294 15.3108235 3.40235294 21.9661176 3.30705882 26.1508235 3.30705882 19.4967059"></polygon>
            <g mask="url(#mask-2)">
                <g transform="translate(9.411765, 16.914471)">
                    <g>
                        <mask id="mask-128" fill="white">
                            <use xlink:href="#path-127"></use>
                        </mask>
                        <g id="Clip-115"></g>
                        <path d="M16.12,0.994588235 L16.12,7.64988235 C16.0458824,7.76047059 15.9635294,7.86870588 15.8729412,7.97223529 L15.8729412,1.31694118 C15.9635294,1.21341176 16.0458824,1.10517647 16.12,0.994588235" id="Fill-114" fill="#362A81" mask="url(#mask-128)"></path>
                    </g>
                    <g>
                        <mask id="mask-130" fill="white">
                            <use xlink:href="#path-129"></use>
                        </mask>
                        <g id="Clip-117"></g>
                        <path d="M15.8730588,1.31682353 L15.8730588,7.97211765 C15.5236471,8.37447059 15.0542353,8.71917647 14.4742353,9.00623529 L14.4742353,2.35094118 C15.0542353,2.06388235 15.5236471,1.718 15.8730588,1.31682353" id="Fill-116" fill="#372B85" mask="url(#mask-130)"></path>
                    </g>
                    <g>
                        <mask id="mask-132" fill="white">
                            <use xlink:href="#path-131"></use>
                        </mask>
                        <g id="Clip-119"></g>
                        <path d="M14.4736471,2.35082353 L14.4736471,9.00611765 C14.0736471,9.20376471 13.6207059,9.37317647 13.1183529,9.51435294 L13.1183529,2.86023529 C13.6207059,2.71788235 14.0736471,2.54847059 14.4736471,2.35082353" id="Fill-118" fill="#362A81" mask="url(#mask-132)"></path>
                    </g>
                    <g>
                        <mask id="mask-134" fill="white">
                            <use xlink:href="#path-133"></use>
                        </mask>
                        <g id="Clip-121"></g>
                        <path d="M13.1184706,2.85976471 L13.1184706,9.51505882 C12.6878824,9.63623529 12.2196471,9.73623529 11.7184706,9.81505882 L11.7184706,3.15976471 C12.2196471,3.08094118 12.6878824,2.98094118 13.1184706,2.85976471" id="Fill-120" fill="#34287D" mask="url(#mask-134)"></path>
                    </g>
                    <g>
                        <mask id="mask-136" fill="white">
                            <use xlink:href="#path-135"></use>
                        </mask>
                        <g id="Clip-123"></g>
                        <path d="M11.7185882,3.16023529 L11.7185882,9.81552941 C11.528,9.84494118 11.3327059,9.872 11.1327059,9.89552941 C10.9527059,9.91788235 10.7656471,9.93317647 10.5738824,9.94376471 L10.5738824,3.28847059 C10.7656471,3.27788235 10.9527059,3.26141176 11.1327059,3.24023529 C11.3327059,3.21670588 11.528,3.18964706 11.7185882,3.16023529" id="Fill-122" fill="#322779" mask="url(#mask-136)"></path>
                    </g>
                    <g>
                        <mask id="mask-138" fill="white">
                            <use xlink:href="#path-137"></use>
                        </mask>
                        <g id="Clip-125"></g>
                        <path d="M10.5737647,3.28882353 L10.5737647,9.94411765 C10.3902353,9.95352941 10.202,9.95823529 10.0078824,9.95823529 C9.83729412,9.95823529 9.66317647,9.95470588 9.48317647,9.94764706 L9.48317647,3.29235294 C9.66317647,3.29941176 9.83729412,3.30411765 10.0078824,3.30411765 C10.202,3.30411765 10.3902353,3.29823529 10.5737647,3.28882353" id="Fill-124" fill="#312675" mask="url(#mask-138)"></path>
                    </g>
                    <g>
                        <mask id="mask-140" fill="white">
                            <use xlink:href="#path-139"></use>
                        </mask>
                        <g id="Clip-127"></g>
                        <path d="M9.48282353,3.29235294 L9.48282353,9.94764706 C8.95223529,9.92411765 8.38282353,9.86764706 7.77223529,9.77823529 L7.77223529,3.12294118 C8.38282353,3.21352941 8.95223529,3.26882353 9.48282353,3.29235294" id="Fill-126" fill="#2F2471" mask="url(#mask-140)"></path>
                    </g>
                    <g>
                        <mask id="mask-142" fill="white">
                            <use xlink:href="#path-141"></use>
                        </mask>
                        <g id="Clip-129"></g>
                        <path d="M7.77270588,3.12282353 L7.77270588,9.77811765 C6.628,9.60988235 5.33858824,9.32282353 3.89152941,8.91811765 L3.89152941,2.26282353 C5.33858824,2.66752941 6.628,2.95458824 7.77270588,3.12282353" id="Fill-128" fill="#2D236D" mask="url(#mask-142)"></path>
                    </g>
                    <g>
                        <mask id="mask-145" fill="white">
                            <use xlink:href="#path-144"></use>
                        </mask>
                        <use id="Clip-131" fill="url(#linearGradient-143)" xlink:href="#path-144"></use>
                        <path d="M3.89176471,2.26294118 L3.89176471,8.91823529 C3.07764706,8.69 2.21294118,8.42411765 1.29647059,8.12058824 C0.756470588,7.94176471 0.396470588,7.58176471 0.343529412,7.16294118 C0.34,7.13470588 0.338823529,7.10529412 0.338823529,7.07705882 L0.338823529,0.421764706 C0.338823529,0.45 0.34,0.479411765 0.343529412,0.507647059 C0.396470588,0.926470588 0.756470588,1.28647059 1.29647059,1.46647059 C2.21294118,1.76882353 3.07764706,2.03470588 3.89176471,2.26294118" id="Fill-130" fill="url(#linearGradient-146)" mask="url(#mask-145)"></path>
                    </g>
                </g>
            </g>
            <g mask="url(#mask-2)">
                <g transform="translate(2.352941, 19.267412)">
                    <g>
                        <mask id="mask-148" fill="white">
                            <use xlink:href="#path-147"></use>
                        </mask>
                        <g id="Clip-133"></g>
                        <path d="M0.954,0.228823529 L0.954,6.88411765 C0.952823529,6.93941176 0.944588235,6.99352941 0.932823529,7.04647059 L0.932823529,0.391176471 C0.944588235,0.338235294 0.952823529,0.284117647 0.954,0.228823529" id="Fill-132" fill="#322779" mask="url(#mask-148)"></path>
                    </g>
                    <g>
                        <mask id="mask-150" fill="white">
                            <use xlink:href="#path-149"></use>
                        </mask>
                        <g id="Clip-135"></g>
                        <path d="M0.932705882,0.391411765 L0.932705882,7.04670588 C0.918588235,7.10905882 0.897411765,7.17023529 0.869176471,7.22905882 L0.869176471,0.573764706 C0.897411765,0.514941176 0.918588235,0.453764706 0.932705882,0.391411765" id="Fill-134" fill="#34287D" mask="url(#mask-150)"></path>
                    </g>
                    <g>
                        <mask id="mask-152" fill="white">
                            <use xlink:href="#path-151"></use>
                        </mask>
                        <g id="Clip-137"></g>
                        <path d="M0.869529412,0.574 L0.869529412,7.22929412 C0.828352941,7.31635294 0.773058824,7.39988235 0.706,7.47752941 L0.706,0.822235294 C0.773058824,0.744588235 0.828352941,0.661058824 0.869529412,0.574" id="Fill-136" fill="#362A81" mask="url(#mask-152)"></path>
                    </g>
                    <g>
                        <mask id="mask-155" fill="white">
                            <use xlink:href="#path-154"></use>
                        </mask>
                        <use id="Clip-139" fill="url(#linearGradient-153)" xlink:href="#path-154"></use>
                        <path d="M0.705882353,6.30105882 C0.625882353,6.39282353 0.527058824,6.47870588 0.414117647,6.554 L0.414117647,1.07517647 C0.527058824,0.999882353 0.625882353,0.915176471 0.705882353,0.822235294 L0.705882353,6.30105882 Z" id="Fill-138" fill="url(#linearGradient-156)" mask="url(#mask-155)"></path>
                    </g>
                </g>
            </g>
            <polygon id="Fill-140" fill="url(#linearGradient-157)" mask="url(#mask-2)" points="2.76694118 20.3423529 2.76694118 25.8211765 2.61870588 25.9035294 2.61870588 20.4247059"></polygon>
            <polygon id="Fill-141" fill="url(#linearGradient-158)" mask="url(#mask-2)" points="2.61870588 20.4244706 2.61870588 25.9032941 2.44929412 25.9785882 2.44929412 20.4985882"></polygon>
            <g mask="url(#mask-2)">
                <g transform="translate(0.000000, 19.267412)">
                    <g>
                        <mask id="mask-160" fill="white">
                            <use xlink:href="#path-159"></use>
                        </mask>
                        <g id="Clip-143"></g>
                        <path d="M2.44929412,1.23176471 L2.44929412,7.88705882 C2.38694118,7.91176471 2.32223529,7.93294118 2.25635294,7.95176471 L2.25635294,1.29647059 C2.32223529,1.27882353 2.38694118,1.25647059 2.44929412,1.23176471" id="Fill-142" fill="#362A81" mask="url(#mask-160)"></path>
                    </g>
                    <g>
                        <mask id="mask-162" fill="white">
                            <use xlink:href="#path-161"></use>
                        </mask>
                        <g id="Clip-145"></g>
                        <path d="M2.25682353,1.29670588 L2.25682353,7.952 C2.17682353,7.97435294 2.09329412,7.992 2.00976471,8.00611765 L2.00976471,1.35082353 C2.09329412,1.33788235 2.17682353,1.32023529 2.25682353,1.29670588" id="Fill-144" fill="#34287D" mask="url(#mask-162)"></path>
                    </g>
                    <g>
                        <mask id="mask-164" fill="white">
                            <use xlink:href="#path-163"></use>
                        </mask>
                        <g id="Clip-147"></g>
                        <path d="M2.00988235,1.35070588 L2.00988235,8.006 C1.93458824,8.01776471 1.85811765,8.026 1.78164706,8.02952941 L1.78164706,1.37541176 C1.85811765,1.37070588 1.93458824,1.36247059 2.00988235,1.35070588" id="Fill-146" fill="#322779" mask="url(#mask-164)"></path>
                    </g>
                    <g>
                        <mask id="mask-166" fill="white">
                            <use xlink:href="#path-165"></use>
                        </mask>
                        <g id="Clip-149"></g>
                        <path d="M1.78117647,1.37482353 L1.78117647,8.03011765 C1.73882353,8.03247059 1.69647059,8.03364706 1.65411765,8.03364706 C1.62,8.03364706 1.58705882,8.03247059 1.55411765,8.03129412 L1.55411765,1.376 C1.58705882,1.37717647 1.62,1.37835294 1.65411765,1.37835294 C1.69647059,1.37835294 1.73882353,1.37717647 1.78117647,1.37482353" id="Fill-148" fill="#312675" mask="url(#mask-166)"></path>
                    </g>
                    <g>
                        <mask id="mask-168" fill="white">
                            <use xlink:href="#path-167"></use>
                        </mask>
                        <g id="Clip-151"></g>
                        <path d="M1.55435294,1.376 L1.55435294,8.03129412 C1.47435294,8.02776471 1.39435294,8.01952941 1.31552941,8.00894118 L1.31552941,1.35364706 C1.39435294,1.36541176 1.47435294,1.37247059 1.55435294,1.376" id="Fill-150" fill="#2F2471" mask="url(#mask-168)"></path>
                    </g>
                    <g>
                        <mask id="mask-171" fill="white">
                            <use xlink:href="#path-170"></use>
                        </mask>
                        <use id="Clip-155" fill="url(#linearGradient-169)" xlink:href="#path-170"></use>
                        <path d="M1.04364706,6.77494118 C0.958941176,6.75141176 0.876588235,6.722 0.797764706,6.68788235 C0.353058824,6.50082353 0.0565882353,6.17141176 0.00364705882,5.80552941 L0.00364705882,0.325529412 C0.0565882353,0.692588235 0.353058824,1.022 0.797764706,1.20905882 C0.876588235,1.24317647 0.958941176,1.27141176 1.04364706,1.29611765 L1.04364706,6.77494118 Z" id="Fill-154" fill="url(#linearGradient-172)" mask="url(#mask-171)"></path>
                    </g>
                </g>
            </g>
            <g mask="url(#mask-2)">
                <g transform="translate(23.529412, 14.561529)">
                    <g>
                        <mask id="mask-174" fill="white">
                            <use xlink:href="#path-173"></use>
                        </mask>
                        <g id="Clip-157"></g>
                        <polygon id="Fill-156" fill="#312675" mask="url(#mask-174)" points="15.9804706 0.970352941 15.9804706 7.62564706 15.9804706 7.65505882 15.9804706 0.998588235"></polygon>
                    </g>
                    <g>
                        <mask id="mask-176" fill="white">
                            <use xlink:href="#path-175"></use>
                        </mask>
                        <g id="Clip-159"></g>
                    </g>
                    <g>
                        <mask id="mask-179" fill="white">
                            <use xlink:href="#path-178"></use>
                        </mask>
                        <use id="Clip-173" fill="url(#linearGradient-177)" xlink:href="#path-178"></use>
                        <path d="M1.40211765,8.99376471 L1.40211765,15.6490588 C1.29505882,15.6549412 1.188,15.6596471 1.08094118,15.662 L1.08094118,9.00788235 C1.188,9.00435294 1.29505882,8.99964706 1.40211765,8.99376471" id="Fill-172" fill="url(#linearGradient-180)" mask="url(#mask-179)"></path>
                    </g>
                </g>
            </g>
            <path d="M39.2010588,16.3074118 C35.114,20.7085882 29.354,23.4191765 24.6104706,23.5685882 L2.77752941,23.7331765 C1.86694118,23.7331765 1.12576471,23.2096471 1.12576471,22.5649412 C1.12576471,21.9590588 1.77164706,21.4649412 2.59752941,21.4049412 L2.76694118,21.3978824 L24.1975294,21.2403529 C27.1410588,21.2403529 31.0375294,19.3615294 35.654,15.6403529 L35.9081176,15.438 C35.5704706,15.1274118 35.2716471,14.9932941 34.9057647,14.9932941 C34.5081176,14.9932941 34.0328235,15.1521176 33.4092941,15.4756471 L33.1763529,15.6027059 L32.9434118,15.7297647 C31.7575294,16.4262353 30.2645882,16.9427059 28.2528235,17.3850588 L27.5751765,17.5274118 C27.3422353,17.5721176 27.0987059,17.6250588 26.8445882,17.6768235 L25.5316471,17.9085882 C24.7375294,19.0991765 23.0116471,19.8627059 20.5445882,20.1556471 C20.194,20.1968235 19.8187059,20.218 19.4198824,20.218 C17.2692941,20.218 14.414,19.6062353 10.7081176,18.3803529 C10.1681176,18.2003529 9.80811765,17.8415294 9.75517647,17.4227059 C9.71282353,17.0109412 9.97752941,16.6062353 10.4645882,16.3662353 C10.7410588,16.2274118 11.0704706,16.1568235 11.4022353,16.1568235 C11.6422353,16.1568235 11.8834118,16.1932941 12.1057647,16.2685882 C15.3469412,17.3368235 17.8351765,17.8827059 19.3845882,17.8827059 C19.6069412,17.8827059 19.8104706,17.8721176 19.994,17.8497647 C21.5928235,17.6615294 22.3975294,17.3097647 22.6516471,16.7109412 L22.694,16.5838824 L22.3869412,16.5085882 L21.7834118,16.4791765 L21.5292941,16.4709412 C21.0422353,16.4638824 20.5445882,16.4415294 20.0575294,16.4109412 C18.8928235,16.3297647 17.9822353,16.1638824 17.1881176,15.858 C16.4998824,15.6027059 15.9704706,15.3403529 15.1445882,14.8462353 L14.5410588,14.4944706 C12.9316471,13.5132941 11.9998824,13.1850588 10.2316471,12.9827059 C9.99752941,12.9568235 9.75988235,12.9438824 9.51988235,12.9438824 C7.72929412,12.9438824 5.77282353,13.6603529 3.63517647,15.1462353 L3.40223529,15.3109412 L3.30694118,19.4956471 C3.29635294,19.8250588 3.09517647,20.1250588 2.76694118,20.3427059 L2.61870588,20.4250588 L2.44929412,20.4991765 C2.20341176,20.5968235 1.92929412,20.6450588 1.654,20.6450588 C1.35752941,20.6450588 1.06105882,20.5897647 0.797529412,20.4768235 C0.352823529,20.2897647 0.0563529412,19.9603529 0.00341176471,19.5932941 L0.00341176471,19.4591765 L0.119882353,14.4721176 L0.225764706,14.278 L0.554,14.0297647 C3.56341176,11.7650588 6.54105882,10.6050588 9.48458824,10.6050588 C9.90811765,10.6050588 10.3292941,10.6285882 10.7504706,10.6768235 C13.0163529,10.9309412 14.4351765,11.4027059 16.3092941,12.4885882 L16.6904706,12.7132941 L16.9657647,12.8768235 C17.8022353,13.3874118 18.2151765,13.5968235 18.7445882,13.798 C19.0728235,13.918 19.4963529,14.0074118 20.0787059,14.0603529 L20.7351765,14.1050588 L21.6669412,14.1356471 C24.3351765,14.218 25.4892941,14.5027059 25.8916471,15.4309412 L26.4316471,15.3262353 L27.2681176,15.1544706 C28.7081176,14.8391765 29.7881176,14.4874118 30.5928235,14.0685882 L30.8575294,13.9262353 C32.3234118,13.0744706 33.8551765,12.6568235 35.2257647,12.6568235 C37.1692941,12.6568235 38.7881176,13.4968235 39.434,15.1309412 C39.5822353,15.5050588 39.5187059,15.9627059 39.2010588,16.3074118 Z" id="Fill-174" fill="#CECBE1" mask="url(#mask-2)"></path>
            <g mask="url(#mask-2)">
                <g transform="translate(0.000000, 21.620353)">
                    <g>
                        <mask id="mask-183" fill="white">
                            <use xlink:href="#path-182"></use>
                        </mask>
                        <use id="Clip-182" fill="url(#linearGradient-181)" xlink:href="#path-182"></use>
                        <path d="M2.23270588,8.6166697 C1.62211765,8.444905 1.18917647,8.02255206 1.18917647,7.53078735 L1.18917647,1.20752941 C1.18917647,1.69929412 1.62211765,2.12164706 2.23270588,2.29341176 L2.23270588,8.6166697 Z" id="Fill-181" fill="url(#linearGradient-184)" mask="url(#mask-183)"></path>
                    </g>
                </g>
            </g>
            <polygon id="Fill-183" fill="url(#linearGradient-185)" mask="url(#mask-2)" points="24.6103529 23.5690588 24.6103529 29.0478824 2.84094118 29.142905 2.77741176 23.7336471"></polygon>
        </g>
    </g>
</svg>