<?xml version="1.0" encoding="UTF-8"?>
<svg width="54px" height="54px" viewBox="0 0 54 54" version="1.1" xmlns="http://www.w3.org/2000/svg" xmlns:xlink="http://www.w3.org/1999/xlink">
    <!-- Generator: Sketch 64 (93537) - https://sketch.com -->
    <title>图形/zyb2</title>
    <desc>Created with Sketch.</desc>
    <defs>
        <polygon id="path-1" points="0 0.389647059 39.5094118 0.389647059 39.5094118 31.0321176 0 31.0321176"></polygon>
        <linearGradient x1="50%" y1="0%" x2="50%" y2="68.0749974%" id="linearGradient-3">
            <stop stop-color="#E7E4F7" offset="0%"></stop>
            <stop stop-color="#CAC4EC" offset="100%"></stop>
        </linearGradient>
        <path d="M1.34117647,0.410588235 L1.34117647,7.06588235 C1.34117647,7.62 0.790588235,8.08470588 0.06,8.20470588 L0.06,1.54941176" id="path-4"></path>
        <path d="M1.34117647,0.410588235 L1.34117647,7.06588235 C1.34117647,7.62 0.790588235,8.08470588 0.06,8.20470588 L0.06,1.54941176" id="path-6"></path>
        <path d="M1.34117647,0.410588235 L1.34117647,7.06588235 C1.34117647,7.62 0.790588235,8.08470588 0.06,8.20470588 L0.06,1.54941176" id="path-8"></path>
        <path d="M1.34117647,0.410588235 L1.34117647,7.06588235 C1.34117647,7.62 0.790588235,8.08470588 0.06,8.20470588 L0.06,1.54941176" id="path-10"></path>
        <path d="M1.34117647,0.410588235 L1.34117647,7.06588235 C1.34117647,7.62 0.790588235,8.08470588 0.06,8.20470588 L0.06,1.54941176" id="path-12"></path>
        <path d="M1.34117647,0.410588235 L1.34117647,7.06588235 C1.34117647,7.62 0.790588235,8.08470588 0.06,8.20470588 L0.06,1.54941176" id="path-14"></path>
        <linearGradient x1="50%" y1="0%" x2="50%" y2="68.0749974%" id="linearGradient-16">
            <stop stop-color="#E7E4F7" offset="0%"></stop>
            <stop stop-color="#CAC4EC" offset="100%"></stop>
        </linearGradient>
        <path d="M1.86882353,8.22658824 L1.68882353,8.23482353 L1.68823529,8.23358824 L1.53243652,8.22884852 C0.757357537,8.1765579 0.137573529,7.74110294 0.0482352941,7.19294118 L0.0482352941,0.538823529 C0.143491476,1.12212064 0.841796649,1.57846008 1.68840022,1.57882331 L1.68882353,1.57835294 L1.86882353,1.57129412 L2.05823529,1.54858824 L2.05917647,1.54835294 L2.06123529,1.54658824 L3.34117647,0.410588235 L3.34117647,7.06588235 C3.34117647,7.55816368 2.90661652,7.97987545 2.29734846,8.15200861 L2.29682353,8.15188235 L2.25130464,8.16445435 C2.22907474,8.17019439 2.20662709,8.17560554 2.18397379,8.18067947 L2.18020588,8.181 L2.06,8.20470588 L2.06,8.20470588 L2.05917647,8.20482353 L2.05823529,8.20358824 L1.86894118,8.22647059 L1.86882353,8.22658824 Z" id="path-17"></path>
        <path d="M2.80941176,0.507058824 L2.80941176,7.16235294 C2.80941176,8.24117647 1.63411765,9.12470588 0.151764706,9.20588235 L0.151764706,2.55176471" id="path-19"></path>
        <path d="M2.80941176,0.507058824 L2.80941176,7.16235294 C2.80941176,8.24117647 1.63411765,9.12470588 0.151764706,9.20588235 L0.151764706,2.55176471" id="path-21"></path>
        <path d="M2.80941176,0.507058824 L2.80941176,7.16235294 C2.80941176,8.24117647 1.63411765,9.12470588 0.151764706,9.20588235 L0.151764706,2.55176471" id="path-23"></path>
        <path d="M2.80941176,0.507058824 L2.80941176,7.16235294 C2.80941176,8.24117647 1.63411765,9.12470588 0.151764706,9.20588235 L0.151764706,2.55176471" id="path-25"></path>
        <path d="M2.80941176,0.507058824 L2.80941176,7.16235294 C2.80941176,8.24117647 1.63411765,9.12470588 0.151764706,9.20588235 L0.151764706,2.55176471" id="path-27"></path>
        <path d="M2.80941176,0.507058824 L2.80941176,7.16235294 C2.80941176,8.24117647 1.63411765,9.12470588 0.151764706,9.20588235 L0.151764706,2.55176471" id="path-29"></path>
        <path d="M2.80941176,0.507058824 L2.80941176,7.16235294 C2.80941176,8.24117647 1.63411765,9.12470588 0.151764706,9.20588235 L0.151764706,2.55176471" id="path-31"></path>
        <linearGradient x1="50%" y1="0%" x2="50%" y2="68.0749974%" id="linearGradient-33">
            <stop stop-color="#E7E4F7" offset="0%"></stop>
            <stop stop-color="#CAC4EC" offset="100%"></stop>
        </linearGradient>
        <path d="M16.1515294,9.20658824 L15.908,9.21364706 L15.9070588,7.21405882 L2.56705882,7.21411765 L2.56705882,9.21411765 C2.28124779,9.21411765 2.0121268,9.16242487 1.77737609,9.07159011 C1.45779622,8.94815851 1.20148298,8.75169352 1.05382442,8.51425123 C1.02407385,8.46593443 0.998736683,8.41636356 0.978187812,8.36538746 C0.936969402,8.26374559 0.915058824,8.15662922 0.915058824,8.046 L0.915058824,1.39070588 C0.915294118,1.75399789 1.15079432,2.07890514 1.51938957,2.29324708 C1.55493955,2.31380113 1.59157693,2.33335079 1.62935089,2.35181951 C1.67692775,2.37524192 1.72633965,2.39681312 1.77737609,2.41653456 C1.83614292,2.43904203 1.89644553,2.45910686 1.95858824,2.47658824 C2.14717822,2.52973332 2.35241179,2.55882353 2.56705882,2.55882353 L15.908,2.55835294 L16.1515294,2.55129412 L18.8094118,0.507058824 L18.8094118,7.16235294 C18.8094118,8.1428462 17.8386001,8.96202342 16.5487854,9.16414853 L16.5484706,9.16458824 L16.5316319,9.16679737 C16.4077229,9.18564802 16.2809091,9.19881016 16.1517647,9.20588235 L16.1515294,9.20658824 Z" id="path-34"></path>
        <linearGradient x1="50%" y1="0%" x2="50%" y2="68.0749974%" id="linearGradient-36">
            <stop stop-color="#E7E4F7" offset="0%"></stop>
            <stop stop-color="#CAC4EC" offset="100%"></stop>
        </linearGradient>
        <path d="M1.96470588,0.431764706 C2.33058824,0.431764706 2.62941176,0.565882353 2.96705882,0.876470588 L2.96705882,7.53176471 C2.62941176,7.22117647 2.33058824,7.08705882 1.96470588,7.08705882 C1.56705882,7.08705882 1.09176471,7.24588235 0.468235294,7.56941176 L0.468235294,0.914117647" id="path-37"></path>
        <path d="M1.96470588,0.431764706 C2.33058824,0.431764706 2.62941176,0.565882353 2.96705882,0.876470588 L2.96705882,7.53176471 C2.62941176,7.22117647 2.33058824,7.08705882 1.96470588,7.08705882 C1.56705882,7.08705882 1.09176471,7.24588235 0.468235294,7.56941176 L0.468235294,0.914117647" id="path-39"></path>
        <path d="M1.96470588,0.431764706 C2.33058824,0.431764706 2.62941176,0.565882353 2.96705882,0.876470588 L2.96705882,7.53176471 C2.62941176,7.22117647 2.33058824,7.08705882 1.96470588,7.08705882 C1.56705882,7.08705882 1.09176471,7.24588235 0.468235294,7.56941176 L0.468235294,0.914117647" id="path-41"></path>
        <path d="M1.96470588,0.431764706 C2.33058824,0.431764706 2.62941176,0.565882353 2.96705882,0.876470588 L2.96705882,7.53176471 C2.62941176,7.22117647 2.33058824,7.08705882 1.96470588,7.08705882 C1.56705882,7.08705882 1.09176471,7.24588235 0.468235294,7.56941176 L0.468235294,0.914117647" id="path-43"></path>
        <path d="M1.96470588,0.431764706 C2.33058824,0.431764706 2.62941176,0.565882353 2.96705882,0.876470588 L2.96705882,7.53176471 C2.62941176,7.22117647 2.33058824,7.08705882 1.96470588,7.08705882 C1.56705882,7.08705882 1.09176471,7.24588235 0.468235294,7.56941176 L0.468235294,0.914117647" id="path-45"></path>
        <path d="M1.96470588,0.431764706 C2.33058824,0.431764706 2.62941176,0.565882353 2.96705882,0.876470588 L2.96705882,7.53176471 C2.62941176,7.22117647 2.33058824,7.08705882 1.96470588,7.08705882 C1.56705882,7.08705882 1.09176471,7.24588235 0.468235294,7.56941176 L0.468235294,0.914117647" id="path-47"></path>
        <path d="M1.96470588,0.431764706 C2.33058824,0.431764706 2.62941176,0.565882353 2.96705882,0.876470588 L2.96705882,7.53176471 C2.62941176,7.22117647 2.33058824,7.08705882 1.96470588,7.08705882 C1.56705882,7.08705882 1.09176471,7.24588235 0.468235294,7.56941176 L0.468235294,0.914117647" id="path-49"></path>
        <linearGradient x1="50%" y1="-33.7012872%" x2="49.4630426%" y2="100%" id="linearGradient-51">
            <stop stop-color="#E2E0F1" offset="0%"></stop>
            <stop stop-color="#E8E6F2" offset="100%"></stop>
        </linearGradient>
        <path d="M1.96470588,0.431764706 C2.33058824,0.431764706 2.62941176,0.565882353 2.96705882,0.876470588 L2.96705882,7.53176471 C2.62941176,7.22117647 2.33058824,7.08705882 1.96470588,7.08705882 C1.56705882,7.08705882 1.09176471,7.24588235 0.468235294,7.56941176 L0.468235294,0.914117647 C1.09176471,0.590588235 1.56705882,0.431764706 1.96470588,0.431764706 Z" id="path-52"></path>
        <linearGradient x1="50%" y1="-33.7012872%" x2="49.8662384%" y2="100%" id="linearGradient-54">
            <stop stop-color="#E2E0F1" offset="0%"></stop>
            <stop stop-color="#E8E6F2" offset="100%"></stop>
        </linearGradient>
        <linearGradient x1="50%" y1="-33.7012872%" x2="49.8681803%" y2="100%" id="linearGradient-55">
            <stop stop-color="#E2E0F1" offset="0%"></stop>
            <stop stop-color="#E8E6F2" offset="100%"></stop>
        </linearGradient>
        <path d="M0.0270588235,0.284705882 C0.852941176,0.778823529 1.38235294,1.04117647 2.07058824,1.29647059 L2.07058824,7.95058824 C1.38235294,7.69647059 0.852941176,7.43411765 0.0270588235,6.94" id="path-56"></path>
        <path d="M4.70823529,1.16823529 L4.70823529,7.82352941 C3.52235294,8.52 2.02941176,9.03647059 0.0176470588,9.47882353 L0.0176470588,2.82352941" id="path-58"></path>
        <path d="M4.70823529,1.16823529 L4.70823529,7.82352941 C3.52235294,8.52 2.02941176,9.03647059 0.0176470588,9.47882353 L0.0176470588,2.82352941" id="path-60"></path>
        <linearGradient x1="50%" y1="-33.7012872%" x2="48.6043713%" y2="100%" id="linearGradient-62">
            <stop stop-color="#E2E0F1" offset="0%"></stop>
            <stop stop-color="#E8E6F2" offset="100%"></stop>
        </linearGradient>
        <path d="M4.70823529,1.16823529 L4.70823529,7.82352941 C3.52235294,8.52 2.02941176,9.03647059 0.0176470588,9.47882353 L0.0176470588,2.82352941" id="path-63"></path>
        <linearGradient x1="50%" y1="-33.7012872%" x2="49.7901493%" y2="100%" id="linearGradient-65">
            <stop stop-color="#E2E0F1" offset="0%"></stop>
            <stop stop-color="#E8E6F2" offset="100%"></stop>
        </linearGradient>
        <linearGradient x1="50%" y1="-33.7012872%" x2="49.8687728%" y2="100%" id="linearGradient-66">
            <stop stop-color="#E2E0F1" offset="0%"></stop>
            <stop stop-color="#E8E6F2" offset="100%"></stop>
        </linearGradient>
        <path d="M1.69294118,0.612941176 L1.69294118,7.26705882 C1.46,7.31294118 1.21647059,7.36470588 0.962352941,7.41764706 L0.962352941,0.762352941" id="path-67"></path>
        <linearGradient x1="50%" y1="-33.7012872%" x2="49.869045%" y2="100%" id="linearGradient-69">
            <stop stop-color="#E2E0F1" offset="0%"></stop>
            <stop stop-color="#E8E6F2" offset="100%"></stop>
        </linearGradient>
        <linearGradient x1="50%" y1="-33.7012872%" x2="49.8407785%" y2="100%" id="linearGradient-70">
            <stop stop-color="#E2E0F1" offset="0%"></stop>
            <stop stop-color="#E8E6F2" offset="100%"></stop>
        </linearGradient>
        <linearGradient x1="50%" y1="0%" x2="50%" y2="68.0749974%" id="linearGradient-71">
            <stop stop-color="#E7E4F7" offset="0%"></stop>
            <stop stop-color="#CAC4EC" offset="100%"></stop>
        </linearGradient>
        <path d="M0.343529412,0.508235294 C0.396470588,0.927058824 0.756470588,1.28588235 1.29647059,1.46588235 C5.00235294,2.69176471 7.85764706,3.30352941 10.0082353,3.30352941 C10.4070588,3.30352941 10.7811765,3.28235294 11.1329412,3.24117647 C13.6,2.94823529 15.3258824,2.18470588 16.12,0.994117647 L16.12,7.64941176 C15.3258824,8.84 13.6,9.60352941 11.1329412,9.89529412 C10.7811765,9.93764706 10.4070588,9.95882353 10.0082353,9.95882353 C7.85764706,9.95882353 5.00235294,9.34588235 1.29647059,8.12117647 C0.756470588,7.94117647 0.396470588,7.58235294 0.343529412,7.16352941 L0.339852941,7.12 L0.339852941,7.12 L0.338823529,0.422352941" id="path-72"></path>
        <path d="M0.343529412,0.508235294 C0.396470588,0.927058824 0.756470588,1.28588235 1.29647059,1.46588235 C5.00235294,2.69176471 7.85764706,3.30352941 10.0082353,3.30352941 C10.4070588,3.30352941 10.7811765,3.28235294 11.1329412,3.24117647 C13.6,2.94823529 15.3258824,2.18470588 16.12,0.994117647 L16.12,7.64941176 C15.3258824,8.84 13.6,9.60352941 11.1329412,9.89529412 C10.7811765,9.93764706 10.4070588,9.95882353 10.0082353,9.95882353 C7.85764706,9.95882353 5.00235294,9.34588235 1.29647059,8.12117647 C0.756470588,7.94117647 0.396470588,7.58235294 0.343529412,7.16352941 L0.339852941,7.12 L0.339852941,7.12 L0.338823529,0.422352941" id="path-74"></path>
        <path d="M0.343529412,0.508235294 C0.396470588,0.927058824 0.756470588,1.28588235 1.29647059,1.46588235 C5.00235294,2.69176471 7.85764706,3.30352941 10.0082353,3.30352941 C10.4070588,3.30352941 10.7811765,3.28235294 11.1329412,3.24117647 C13.6,2.94823529 15.3258824,2.18470588 16.12,0.994117647 L16.12,7.64941176 C15.3258824,8.84 13.6,9.60352941 11.1329412,9.89529412 C10.7811765,9.93764706 10.4070588,9.95882353 10.0082353,9.95882353 C7.85764706,9.95882353 5.00235294,9.34588235 1.29647059,8.12117647 C0.756470588,7.94117647 0.396470588,7.58235294 0.343529412,7.16352941 L0.339852941,7.12 L0.339852941,7.12 L0.338823529,0.422352941" id="path-76"></path>
        <path d="M0.343529412,0.508235294 C0.396470588,0.927058824 0.756470588,1.28588235 1.29647059,1.46588235 C5.00235294,2.69176471 7.85764706,3.30352941 10.0082353,3.30352941 C10.4070588,3.30352941 10.7811765,3.28235294 11.1329412,3.24117647 C13.6,2.94823529 15.3258824,2.18470588 16.12,0.994117647 L16.12,7.64941176 C15.3258824,8.84 13.6,9.60352941 11.1329412,9.89529412 C10.7811765,9.93764706 10.4070588,9.95882353 10.0082353,9.95882353 C7.85764706,9.95882353 5.00235294,9.34588235 1.29647059,8.12117647 C0.756470588,7.94117647 0.396470588,7.58235294 0.343529412,7.16352941 L0.339852941,7.12 L0.339852941,7.12 L0.338823529,0.422352941" id="path-78"></path>
        <path d="M0.343529412,0.508235294 C0.396470588,0.927058824 0.756470588,1.28588235 1.29647059,1.46588235 C5.00235294,2.69176471 7.85764706,3.30352941 10.0082353,3.30352941 C10.4070588,3.30352941 10.7811765,3.28235294 11.1329412,3.24117647 C13.6,2.94823529 15.3258824,2.18470588 16.12,0.994117647 L16.12,7.64941176 C15.3258824,8.84 13.6,9.60352941 11.1329412,9.89529412 C10.7811765,9.93764706 10.4070588,9.95882353 10.0082353,9.95882353 C7.85764706,9.95882353 5.00235294,9.34588235 1.29647059,8.12117647 C0.756470588,7.94117647 0.396470588,7.58235294 0.343529412,7.16352941 L0.339852941,7.12 L0.339852941,7.12 L0.338823529,0.422352941" id="path-80"></path>
        <path d="M0.343529412,0.508235294 C0.396470588,0.927058824 0.756470588,1.28588235 1.29647059,1.46588235 C5.00235294,2.69176471 7.85764706,3.30352941 10.0082353,3.30352941 C10.4070588,3.30352941 10.7811765,3.28235294 11.1329412,3.24117647 C13.6,2.94823529 15.3258824,2.18470588 16.12,0.994117647 L16.12,7.64941176 C15.3258824,8.84 13.6,9.60352941 11.1329412,9.89529412 C10.7811765,9.93764706 10.4070588,9.95882353 10.0082353,9.95882353 C7.85764706,9.95882353 5.00235294,9.34588235 1.29647059,8.12117647 C0.756470588,7.94117647 0.396470588,7.58235294 0.343529412,7.16352941 L0.339852941,7.12 L0.339852941,7.12 L0.338823529,0.422352941" id="path-82"></path>
        <path d="M0.343529412,0.508235294 C0.396470588,0.927058824 0.756470588,1.28588235 1.29647059,1.46588235 C5.00235294,2.69176471 7.85764706,3.30352941 10.0082353,3.30352941 C10.4070588,3.30352941 10.7811765,3.28235294 11.1329412,3.24117647 C13.6,2.94823529 15.3258824,2.18470588 16.12,0.994117647 L16.12,7.64941176 C15.3258824,8.84 13.6,9.60352941 11.1329412,9.89529412 C10.7811765,9.93764706 10.4070588,9.95882353 10.0082353,9.95882353 C7.85764706,9.95882353 5.00235294,9.34588235 1.29647059,8.12117647 C0.756470588,7.94117647 0.396470588,7.58235294 0.343529412,7.16352941 L0.339852941,7.12 L0.339852941,7.12 L0.338823529,0.422352941" id="path-84"></path>
        <path d="M0.343529412,0.508235294 C0.396470588,0.927058824 0.756470588,1.28588235 1.29647059,1.46588235 C5.00235294,2.69176471 7.85764706,3.30352941 10.0082353,3.30352941 C10.4070588,3.30352941 10.7811765,3.28235294 11.1329412,3.24117647 C13.6,2.94823529 15.3258824,2.18470588 16.12,0.994117647 L16.12,7.64941176 C15.3258824,8.84 13.6,9.60352941 11.1329412,9.89529412 C10.7811765,9.93764706 10.4070588,9.95882353 10.0082353,9.95882353 C7.85764706,9.95882353 5.00235294,9.34588235 1.29647059,8.12117647 C0.756470588,7.94117647 0.396470588,7.58235294 0.343529412,7.16352941 L0.339852941,7.12 L0.339852941,7.12 L0.338823529,0.422352941" id="path-86"></path>
        <linearGradient x1="50%" y1="19.4346951%" x2="45.6189441%" y2="68.2585632%" id="linearGradient-88">
            <stop stop-color="#E2E0F1" offset="0%"></stop>
            <stop stop-color="#E8E6F2" offset="100%"></stop>
        </linearGradient>
        <path d="M0.343529412,0.508235294 C0.396470588,0.927058824 0.756470588,1.28588235 1.29647059,1.46588235 C5.00235294,2.69176471 7.85764706,3.30352941 10.0082353,3.30352941 C10.4070588,3.30352941 10.7811765,3.28235294 11.1329412,3.24117647 C13.6,2.94823529 15.3258824,2.18470588 16.12,0.994117647 L16.12,7.64941176 C15.3258824,8.84 13.6,9.60352941 11.1329412,9.89529412 C10.7811765,9.93764706 10.4070588,9.95882353 10.0082353,9.95882353 C7.85764706,9.95882353 5.00235294,9.34588235 1.29647059,8.12117647 C0.756470588,7.94117647 0.396470588,7.58235294 0.343529412,7.16352941 L0.339852941,7.12 L0.339852941,7.12 L0.338823529,0.422352941" id="path-89"></path>
        <linearGradient x1="50%" y1="-33.7012872%" x2="49.2339137%" y2="100%" id="linearGradient-91">
            <stop stop-color="#E2E0F1" offset="0%"></stop>
            <stop stop-color="#E8E6F2" offset="100%"></stop>
        </linearGradient>
        <path d="M15.98,0.970588235 L15.98,7.62588235 C15.98,7.89529412 15.8811765,8.17176471 15.6717647,8.4 C11.5847059,12.8023529 5.82470588,15.5129412 1.08117647,15.6623529 L1.08117647,9.00705882 C5.82470588,8.85764706 11.5847059,6.14705882 15.6717647,1.74588235 C15.8811765,1.51764706 15.98,1.24 15.98,0.970588235 Z" id="path-92"></path>
        <path d="M15.98,0.970588235 L15.98,7.62588235 C15.98,7.89529412 15.8811765,8.17176471 15.6717647,8.4 C11.5847059,12.8023529 5.82470588,15.5129412 1.08117647,15.6623529 L1.08117647,9.00705882 C5.82470588,8.85764706 11.5847059,6.14705882 15.6717647,1.74588235" id="path-94"></path>
        <linearGradient x1="50%" y1="0%" x2="50%" y2="68.0749974%" id="linearGradient-96">
            <stop stop-color="#E7E4F7" offset="0%"></stop>
            <stop stop-color="#CAC4EC" offset="100%"></stop>
        </linearGradient>
        <path d="M22.0809412,9.00752941 L22.0809412,14.4863529 L0.311529412,14.5813756 L0.248,9.17211765 L22.0809412,9.00752941 Z M36.98,0.970588235 L36.98,6.44941176 C36.98,6.71882353 36.8811765,6.99529412 36.6717647,7.22352941 C32.5847059,11.6258824 26.8247059,14.3364706 22.0811765,14.4858824 L22.0811765,9.00705882 C26.8247059,8.85764706 32.5847059,6.14705882 36.6717647,1.74588235 L36.98,0.970588235 Z" id="path-97"></path>
        <linearGradient x1="50%" y1="0%" x2="50%" y2="68.0749974%" id="linearGradient-99">
            <stop stop-color="#E7E4F7" offset="0%"></stop>
            <stop stop-color="#CAC4EC" offset="100%"></stop>
        </linearGradient>
        <path d="M0.125882353,0.945764706 C0.125882353,1.58929412 0.867058824,2.11282353 1.77764706,2.11282353 L1.84117647,7.52208147 C0.930588235,7.52208147 0.189411765,6.99855206 0.189411765,6.35384617 L0.125882353,0.945764706 Z" id="path-100"></path>
    </defs>
    <g id="图形/zyb2" stroke="none" stroke-width="1" fill="none" fill-rule="evenodd">
        <g id="编组-3" transform="translate(-8.000000, -7.000000)">
            <polygon id="Path-2" fill="#FFFFFF" fill-rule="nonzero" points="33.1477445 13.5061012 8.4554 25.1226389 8.4554 43.7847347 10.3095419 46.7293963 33.1477445 57.5287294 35.2593578 57.5287294 59.4786883 45.6750854 61.1751043 43.0052418 61.1751043 26.7852848 60.491829 25.1226389 35.0004467 13.5061012"></polygon>
            <polygon id="Path-29" fill="#F7F6FD" points="35.0004467 40.7452108 60.491829 28.7852848 60.491829 45.7205936 35.0004467 57.7217293"></polygon>
            <path d="M53.3955837,10.7407369 L43.4463946,36.6476403 C43.3422214,36.918899 43.1262141,37.1321148 42.8536233,37.232751 L17.5376182,46.5790147 C17.0145904,46.7721082 16.4340594,46.5046436 16.2409659,45.9816158 C16.1582865,45.757664 16.1576483,45.511658 16.2391648,45.2872803 L25.0585925,21.0114016 C25.4241263,20.0052531 26.2106426,19.2087881 27.2121173,18.8306368 L52.0965783,9.43440286 C52.6181666,9.23745403 53.200656,9.5006263 53.3976048,10.0222146 C53.4850745,10.2538645 53.4843552,10.5095828 53.3955837,10.7407369 Z" id="Path" stroke="#E7E6F1" stroke-width="1.1124" fill-rule="nonzero" transform="translate(34.849360, 27.985942) rotate(45.000000) translate(-34.849360, -27.985942) "></path>
            <line x1="34.4880555" y1="40.794725" x2="34.4880555" y2="57.5287294" id="Line-2" stroke="#E7E6F1" stroke-width="1.1124" fill-rule="nonzero"></line>
            <path d="M46.8749745,12.3121438 L57.2015544,22.3878408 C58.3228335,23.4818787 58.7101443,25.125731 58.195231,26.6052748 L49.9661353,50.2506283 C49.5665165,51.3988867 48.6707939,52.305968 47.5276621,52.7200238 L25.3382146,60.7573043 C23.8648581,61.2909715 22.215781,60.9240357 21.1077242,59.8159789 L10.4004302,49.1086849 L10.4004302,49.1086849" id="Path" stroke="#E7E6F1" stroke-width="1.1124" fill-rule="nonzero" transform="translate(34.719735, 36.972018) rotate(45.000000) translate(-34.719735, -36.972018) "></path>
        </g>
        <g id="编组" transform="translate(7.000000, 2.000000)">
            <mask id="mask-2" fill="white">
                <use xlink:href="#path-1"></use>
            </mask>
            <g id="Clip-2"></g>
            <polygon id="Fill-1" fill="url(#linearGradient-3)" mask="url(#mask-2)" points="8.4 9.38035294 31.2705882 9.38035294 31.2705882 2.72505882 8.4 2.72505882"></polygon>
            <g mask="url(#mask-2)">
                <g transform="translate(5.058824, 7.502706)">
                    <g transform="translate(2.000000, 0.000000)">
                        <mask id="mask-5" fill="white">
                            <use xlink:href="#path-4"></use>
                        </mask>
                        <g id="Clip-5"></g>
                        <path d="M1.34117647,0.410941176 L1.34117647,7.06623529 C1.34117647,7.07329412 1.34117647,7.08035294 1.34117647,7.08741176 L1.34117647,0.433294118 C1.34117647,0.426235294 1.34117647,0.418 1.34117647,0.410941176" id="Fill-4" fill="#312675" mask="url(#mask-5)"></path>
                    </g>
                    <g transform="translate(2.000000, 0.000000)">
                        <mask id="mask-7" fill="white">
                            <use xlink:href="#path-6"></use>
                        </mask>
                        <g id="Clip-7"></g>
                        <path d="M1.34058824,0.432705882 L1.34058824,7.088 C1.33941176,7.14447059 1.33235294,7.19858824 1.31941176,7.25270588 L1.31941176,0.597411765 C1.33235294,0.543294118 1.33941176,0.488 1.34058824,0.432705882" id="Fill-6" fill="#322779" mask="url(#mask-7)"></path>
                    </g>
                    <g transform="translate(2.000000, 0.000000)">
                        <mask id="mask-9" fill="white">
                            <use xlink:href="#path-8"></use>
                        </mask>
                        <g id="Clip-9"></g>
                        <path d="M1.31988235,0.597058824 L1.31988235,7.25235294 C1.30576471,7.31352941 1.28458824,7.37470588 1.25752941,7.43235294 L1.25752941,0.777058824 C1.28458824,0.719411765 1.30576471,0.659411765 1.31988235,0.597058824" id="Fill-8" fill="#34287D" mask="url(#mask-9)"></path>
                    </g>
                    <g transform="translate(2.000000, 0.000000)">
                        <mask id="mask-11" fill="white">
                            <use xlink:href="#path-10"></use>
                        </mask>
                        <g id="Clip-11"></g>
                        <path d="M1.25729412,0.777411765 L1.25729412,7.43270588 C1.21729412,7.51741176 1.16317647,7.59858824 1.09729412,7.67505882 L1.09729412,1.01976471 C1.16317647,0.944470588 1.21729412,0.863294118 1.25729412,0.777411765" id="Fill-10" fill="#362A81" mask="url(#mask-11)"></path>
                    </g>
                    <g transform="translate(2.000000, 0.000000)">
                        <mask id="mask-13" fill="white">
                            <use xlink:href="#path-12"></use>
                        </mask>
                        <g id="Clip-13"></g>
                        <path d="M1.09764706,1.01976471 L1.09764706,7.67505882 C0.977647059,7.81152941 0.82,7.93035294 0.634117647,8.02211765 L0.634117647,1.36682353 C0.82,1.27505882 0.977647059,1.15623529 1.09764706,1.01976471" id="Fill-12" fill="#372B85" mask="url(#mask-13)"></path>
                    </g>
                    <g transform="translate(2.000000, 0.000000)">
                        <mask id="mask-15" fill="white">
                            <use xlink:href="#path-14"></use>
                        </mask>
                        <g id="Clip-15"></g>
                        <path d="M0.634588235,1.36729412 L0.634588235,8.02258824 C0.529882353,8.07435294 0.416941176,8.11788235 0.296941176,8.152 L0.296941176,1.49670588 C0.416941176,1.46258824 0.529882353,1.41905882 0.634588235,1.36729412" id="Fill-14" fill="#362A81" mask="url(#mask-15)"></path>
                    </g>
                    <g>
                        <mask id="mask-18" fill="white">
                            <use xlink:href="#path-17"></use>
                        </mask>
                        <use id="形状结合" fill="url(#linearGradient-16)" xlink:href="#path-17"></use>
                    </g>
                </g>
            </g>
            <g mask="url(#mask-2)">
                <g transform="translate(15.764706, 8.679176)">
                    <g transform="translate(16.000000, 0.000000)">
                        <mask id="mask-20" fill="white">
                            <use xlink:href="#path-19"></use>
                        </mask>
                        <g id="Clip-29"></g>
                        <path d="M2.80894118,0.507411765 L2.80894118,7.16270588 C2.80894118,7.17564706 2.80894118,7.18858824 2.80894118,7.20152941 L2.80894118,0.546235294 C2.80894118,0.533294118 2.80894118,0.520352941 2.80894118,0.507411765" id="Fill-28" fill="#312675" mask="url(#mask-20)"></path>
                    </g>
                    <g transform="translate(16.000000, 0.000000)">
                        <mask id="mask-22" fill="white">
                            <use xlink:href="#path-21"></use>
                        </mask>
                        <g id="Clip-31"></g>
                        <path d="M2.80835294,0.545882353 L2.80835294,7.20117647 C2.806,7.3 2.79305882,7.39764706 2.77188235,7.49176471 L2.77188235,0.837647059 C2.79305882,0.742352941 2.806,0.644705882 2.80835294,0.545882353" id="Fill-30" fill="#322779" mask="url(#mask-22)"></path>
                    </g>
                    <g transform="translate(16.000000, 0.000000)">
                        <mask id="mask-24" fill="white">
                            <use xlink:href="#path-23"></use>
                        </mask>
                        <g id="Clip-33"></g>
                        <path d="M2.77211765,0.837176471 L2.77211765,7.49247059 C2.74741176,7.60188235 2.70976471,7.70776471 2.66152941,7.81011765 L2.66152941,1.156 C2.70976471,1.05247059 2.74741176,0.946588235 2.77211765,0.837176471" id="Fill-32" fill="#34287D" mask="url(#mask-24)"></path>
                    </g>
                    <g transform="translate(16.000000, 0.000000)">
                        <mask id="mask-26" fill="white">
                            <use xlink:href="#path-25"></use>
                        </mask>
                        <g id="Clip-35"></g>
                        <path d="M2.66129412,1.15541176 L2.66129412,7.81070588 C2.58952941,7.96364706 2.49423529,8.10717647 2.37658824,8.24129412 L2.37658824,1.586 C2.49423529,1.45188235 2.58952941,1.30717647 2.66129412,1.15541176" id="Fill-34" fill="#362A81" mask="url(#mask-26)"></path>
                    </g>
                    <g transform="translate(16.000000, 0.000000)">
                        <mask id="mask-28" fill="white">
                            <use xlink:href="#path-27"></use>
                        </mask>
                        <g id="Clip-37"></g>
                        <path d="M2.37635294,1.58623529 L2.37635294,8.24152941 C2.16811765,8.48035294 1.89164706,8.68623529 1.56811765,8.84623529 L1.56811765,2.19094118 C1.89164706,2.03094118 2.16811765,1.82505882 2.37635294,1.58623529" id="Fill-36" fill="#372B85" mask="url(#mask-28)"></path>
                    </g>
                    <g transform="translate(16.000000, 0.000000)">
                        <mask id="mask-30" fill="white">
                            <use xlink:href="#path-29"></use>
                        </mask>
                        <g id="Clip-39"></g>
                        <path d="M1.56870588,2.19105882 L1.56870588,8.84635294 C1.38752941,8.93576471 1.19223529,9.01105882 0.984,9.06988235 L0.984,2.41458824 C1.19223529,2.35576471 1.38752941,2.28047059 1.56870588,2.19105882" id="Fill-38" fill="#362A81" mask="url(#mask-30)"></path>
                    </g>
                    <g transform="translate(16.000000, 0.000000)">
                        <mask id="mask-32" fill="white">
                            <use xlink:href="#path-31"></use>
                        </mask>
                        <g id="Clip-41"></g>
                        <path d="M0.983882353,2.41458824 L0.983882353,9.06988235 C0.843882353,9.10870588 0.698,9.14047059 0.548588235,9.164 L0.548588235,2.50988235 C0.698,2.48635294 0.843882353,2.45341176 0.983882353,2.41458824" id="Fill-40" fill="#34287D" mask="url(#mask-32)"></path>
                    </g>
                    <g>
                        <mask id="mask-35" fill="white">
                            <use xlink:href="#path-34"></use>
                        </mask>
                        <use id="形状结合" fill="url(#linearGradient-33)" xlink:href="#path-34"></use>
                    </g>
                </g>
            </g>
            <path d="M6.74788235,9.08141176 C5.90082353,9.08141176 5.202,8.62494118 5.10670588,8.04141176 L5.09611765,7.91317647 L5.09611765,2.43317647 C5.09611765,1.36258824 6.27141176,0.479058824 7.75376471,0.396705882 L7.99729412,0.389647059 L31.6725882,0.389647059 C33.1972941,0.389647059 34.4467059,1.21317647 34.5631765,2.26847059 L34.5737647,2.43317647 L34.5737647,9.18611765 C34.5737647,10.2649412 33.3984706,11.1484706 31.9161176,11.2308235 L31.6725882,11.2378824 L18.3314118,11.2378824 C17.4208235,11.2378824 16.6796471,10.7143529 16.6796471,10.0696471 C16.6796471,9.46376471 17.3255294,8.96964706 18.1514118,8.90964706 L18.3314118,8.90258824 L31.2702353,8.90258824 L31.2702353,2.72494118 L8.39964706,2.72494118 L8.39964706,7.91317647 C8.39964706,8.46847059 7.84905882,8.932 7.11847059,9.052 L6.92788235,9.07435294 L6.74788235,9.08141176 Z" id="Fill-44" fill="#6A549E" mask="url(#mask-2)"></path>
            <path d="M9.52,12.9438824 C9.76,12.9438824 9.99764706,12.9568235 10.2317647,12.9827059 C11.8894853,13.1724118 12.8120267,13.4737904 14.2469833,14.3182169 L14.5410588,14.4948235 L15.1445882,14.8465882 L15.1443529,14.8470588 C15.9702353,15.3411765 16.4996471,15.6035294 17.1878824,15.8576471 L17.2660588,15.8858235 L17.4167796,15.9410138 C17.448809,15.9519941 17.4810406,15.9627656 17.5134838,15.9733281 L17.6572941,16.0178824 L17.7442941,16.0428824 L17.9525947,16.1007229 C18.5624506,16.2573325 19.2487655,16.3545646 20.0576471,16.4109412 C20.3823529,16.4313333 20.7117647,16.4480654 21.0396078,16.4590458 L21.5294118,16.4715294 L21.7835294,16.4785882 L22.8191301,16.4715294 L22.3867059,23.1643529 L21.7831765,23.1337647 L21.7835294,23.1338824 L21.5294118,23.1262353 C21.0423529,23.1191765 20.5447059,23.0968235 20.0576471,23.0662353 C19.1785396,23.0040762 18.4442046,22.895 17.7954528,22.7132063 L17.7968235,22.714 C17.6852037,22.6829945 17.5761987,22.649701 17.469464,22.6141195 L17.4493023,22.6065384 C17.3600117,22.577262 17.2730333,22.5458343 17.1874118,22.5128235 L17.1878824,22.5129412 C16.5761176,22.2860131 16.0898431,22.0544372 15.4092912,21.6579166 L15.1445882,21.5018824 L14.5410588,21.1501176 L14.5411765,21.1497647 C12.9317647,20.1685882 12,19.8391765 10.2317647,19.638 C9.99764706,19.6121176 9.76,19.5991765 9.52,19.5991765 C7.72941176,19.5991765 5.77294118,20.3156471 3.63529412,21.8015294 L3.63529412,15.1462353 C5.77294118,13.6615294 7.72941176,12.9438824 9.52,12.9438824 Z M3.63494118,15.1458824 L3.63494118,21.8011765 L3.402,21.9658824 L3.402,15.3105882 L3.63494118,15.1458824 Z" id="形状结合" fill="url(#linearGradient-36)" mask="url(#mask-2)"></path>
            <g mask="url(#mask-2)">
                <g transform="translate(32.941176, 14.561529)">
                    <g>
                        <mask id="mask-38" fill="white">
                            <use xlink:href="#path-37"></use>
                        </mask>
                        <g id="Clip-74"></g>
                        <path d="M2.96682353,0.876823529 L2.96682353,7.53211765 C2.74094118,7.32388235 2.53270588,7.19447059 2.30917647,7.13211765 L2.30917647,0.476823529 C2.53270588,0.539176471 2.74094118,0.668588235 2.96682353,0.876823529" id="Fill-73" fill="#2C2269" mask="url(#mask-38)"></path>
                    </g>
                    <g>
                        <mask id="mask-40" fill="white">
                            <use xlink:href="#path-39"></use>
                        </mask>
                        <g id="Clip-76"></g>
                        <path d="M2.30917647,0.476941176 L2.30917647,7.13223529 C2.25976471,7.11811765 2.21152941,7.10752941 2.16094118,7.10047059 L2.16094118,0.445176471 C2.21152941,0.452235294 2.25976471,0.462823529 2.30917647,0.476941176" id="Fill-75" fill="#2D236D" mask="url(#mask-40)"></path>
                    </g>
                    <g>
                        <mask id="mask-42" fill="white">
                            <use xlink:href="#path-41"></use>
                        </mask>
                        <g id="Clip-78"></g>
                        <path d="M2.16035294,0.445411765 L2.16035294,7.10070588 C2.11564706,7.09364706 2.07211765,7.09011765 2.02623529,7.08776471 L2.02623529,0.432470588 C2.07211765,0.434823529 2.11564706,0.439529412 2.16035294,0.445411765" id="Fill-77" fill="#2F2471" mask="url(#mask-42)"></path>
                    </g>
                    <g>
                        <mask id="mask-44" fill="white">
                            <use xlink:href="#path-43"></use>
                        </mask>
                        <g id="Clip-80"></g>
                        <path d="M2.02588235,0.432705882 L2.02588235,7.088 C2.00588235,7.08682353 1.98588235,7.08682353 1.96470588,7.08682353 C1.93647059,7.08682353 1.90823529,7.08682353 1.87882353,7.08917647 L1.87882353,0.433882353 C1.90823529,0.432705882 1.93647059,0.431529412 1.96470588,0.431529412 C1.98588235,0.431529412 2.00588235,0.431529412 2.02588235,0.432705882" id="Fill-79" fill="#312675" mask="url(#mask-44)"></path>
                    </g>
                    <g>
                        <mask id="mask-46" fill="white">
                            <use xlink:href="#path-45"></use>
                        </mask>
                        <g id="Clip-82"></g>
                        <path d="M1.87941176,0.433882353 L1.87941176,7.08917647 C1.82058824,7.09270588 1.76058824,7.09858824 1.69823529,7.108 L1.69823529,0.453882353 C1.76058824,0.443294118 1.82058824,0.436235294 1.87941176,0.433882353" id="Fill-81" fill="#322779" mask="url(#mask-46)"></path>
                    </g>
                    <g>
                        <mask id="mask-48" fill="white">
                            <use xlink:href="#path-47"></use>
                        </mask>
                        <g id="Clip-84"></g>
                        <path d="M1.69847059,0.453411765 L1.69847059,7.10870588 C1.60905882,7.12164706 1.51729412,7.14282353 1.42082353,7.16988235 L1.42082353,0.515764706 C1.51729412,0.487529412 1.60905882,0.467529412 1.69847059,0.453411765" id="Fill-83" fill="#34287D" mask="url(#mask-48)"></path>
                    </g>
                    <g>
                        <mask id="mask-50" fill="white">
                            <use xlink:href="#path-49"></use>
                        </mask>
                        <g id="Clip-86"></g>
                        <path d="M1.42047059,0.515411765 L1.42047059,7.17070588 C1.184,7.23658824 0.920470588,7.34364706 0.622823529,7.49070588 L0.622823529,0.835411765 C0.920470588,0.688352941 1.184,0.582470588 1.42047059,0.515411765" id="Fill-85" fill="#362A81" mask="url(#mask-50)"></path>
                    </g>
                    <g>
                        <mask id="mask-53" fill="white">
                            <use xlink:href="#path-52"></use>
                        </mask>
                        <use id="Clip-88" fill="url(#linearGradient-51)" xlink:href="#path-52"></use>
                        <path d="M0.622588235,0.836 L0.622588235,7.49129412 C0.572,7.516 0.520235294,7.54188235 0.468470588,7.56894118 L0.468470588,0.913647059 C0.520235294,0.886588235 0.572,0.860705882 0.622588235,0.836" id="Fill-87" fill="url(#linearGradient-54)" mask="url(#mask-53)"></path>
                    </g>
                </g>
            </g>
            <polygon id="Fill-89" fill="url(#linearGradient-55)" mask="url(#mask-2)" points="33.4091765 15.4756471 33.4091765 22.1309412 33.1762353 22.258 33.1762353 15.6027059"></polygon>
            <polygon id="Fill-90" fill="url(#linearGradient-55)" mask="url(#mask-2)" points="33.176 15.6031765 33.176 22.2584706 32.9430588 22.3855294 32.9430588 15.7302353"></polygon>
            <g mask="url(#mask-2)">
                <g transform="translate(15.117647, 14.561529)">
                    <mask id="mask-57" fill="white">
                        <use xlink:href="#path-56"></use>
                    </mask>
                    <g id="Clip-92" stroke="none" fill="none"></g>
                </g>
            </g>
            <g mask="url(#mask-2)">
                <g transform="translate(16.470588, 15.738000)">
                    <g></g>
                </g>
            </g>
            <g mask="url(#mask-2)">
                <g transform="translate(28.235294, 14.561529)">
                    <g>
                        <mask id="mask-59" fill="white">
                            <use xlink:href="#path-58"></use>
                        </mask>
                        <g id="Clip-104"></g>
                        <path d="M4.708,1.16858824 L4.708,7.82388235 C4.51035294,7.93917647 4.30447059,8.05094118 4.08917647,8.15682353 L4.08917647,1.50152941 C4.30447059,1.39564706 4.51035294,1.28505882 4.708,1.16858824" id="Fill-103" fill="#372B85" mask="url(#mask-59)"></path>
                    </g>
                    <g>
                        <mask id="mask-61" fill="white">
                            <use xlink:href="#path-60"></use>
                        </mask>
                        <g id="Clip-106"></g>
                        <path d="M4.08929412,1.50176471 L4.08929412,8.15705882 C3.36458824,8.51470588 2.53282353,8.82176471 1.55752941,9.09705882 L1.55752941,2.44176471 C2.53282353,2.16647059 3.36458824,1.85941176 4.08929412,1.50176471" id="Fill-105" fill="#362A81" mask="url(#mask-61)"></path>
                    </g>
                    <g>
                        <mask id="mask-64" fill="white">
                            <use xlink:href="#path-63"></use>
                        </mask>
                        <use id="Clip-108" fill="url(#linearGradient-62)" xlink:href="#path-63"></use>
                        <path d="M1.55717647,2.44152941 L1.55717647,9.09682353 C1.07952941,9.23094118 0.567764706,9.35682353 0.0171764706,9.478 L0.0171764706,2.82270588 C0.567764706,2.70270588 1.07952941,2.57564706 1.55717647,2.44152941" id="Fill-107" fill="url(#linearGradient-65)" mask="url(#mask-64)"></path>
                    </g>
                </g>
            </g>
            <polygon id="Fill-109" fill="url(#linearGradient-66)" mask="url(#mask-2)" points="28.2529412 17.3845882 28.2529412 24.0398824 27.5752941 24.1822353 27.5752941 17.5269412"></polygon>
            <g mask="url(#mask-2)">
                <g transform="translate(25.882353, 16.914471)">
                    <mask id="mask-68" fill="white">
                        <use xlink:href="#path-67"></use>
                    </mask>
                    <g id="Clip-111" stroke="none" fill="none"></g>
                    <path d="M1.69270588,0.612470588 L1.69270588,7.26776471 C1.45976471,7.31247059 1.21623529,7.36541176 0.962117647,7.41717647 L0.962117647,0.761882353 C1.21623529,0.710117647 1.45976471,0.657176471 1.69270588,0.612470588" id="Fill-110" stroke="none" fill="url(#linearGradient-69)" fill-rule="evenodd" mask="url(#mask-68)"></path>
                </g>
            </g>
            <polygon id="Fill-112" fill="url(#linearGradient-70)" mask="url(#mask-2)" points="26.8443529 17.6769412 26.8443529 24.3322353 25.5314118 24.564 25.5314118 17.9087059"></polygon>
            <path d="M3.40235294,15.3108235 L3.40235294,21.9661176 L3.30705882,26.1508235 L3.30705882,26.1509412 C3.29647059,26.4803529 3.09529412,26.7803529 2.76705882,26.9968235 L2.76694118,25.8211765 L2.61870588,25.9035294 L2.44929412,25.9785882 C2.20352941,26.0756471 1.92941176,26.1238824 1.65411765,26.1238824 C1.44676366,26.1238824 1.23940968,26.0962585 1.04332589,26.0414134 L1.04364706,26.0423529 L0.983965209,26.023868 C0.970268372,26.0195988 0.956633621,26.0151937 0.943064943,26.0106528 L1.04364706,26.0423529 C0.958941176,26.0188235 0.876588235,25.9894118 0.797764706,25.9552941 C0.352941176,25.7685882 0.0564705882,25.4391765 0.00352941176,25.0721176 L0.00352941176,19.5932941 C0.0212941176,19.7152941 0.066,19.8334641 0.134235294,19.943573 L0.210065359,20.0512042 C0.349281046,20.2250443 0.550588235,20.372902 0.797647059,20.4768235 L0.943007961,20.5319712 C0.957763463,20.5369557 0.97260903,20.5417975 0.987537965,20.5465101 C1.20011417,20.6131285 1.42711591,20.6462353 1.65411765,20.6462353 C1.92941176,20.6462353 2.20352941,20.5968235 2.44941176,20.4991765 L2.44929412,20.4985882 L2.61870588,20.4244706 L2.76694118,20.3423529 L3.30705882,19.4956471 L3.30705882,19.4967059 L3.40235294,15.3108235 Z" id="形状结合" fill="url(#linearGradient-71)" mask="url(#mask-2)"></path>
            <g mask="url(#mask-2)">
                <g transform="translate(9.411765, 16.914471)">
                    <g>
                        <mask id="mask-73" fill="white">
                            <use xlink:href="#path-72"></use>
                        </mask>
                        <g id="Clip-115"></g>
                        <path d="M16.12,0.994588235 L16.12,7.64988235 C16.0458824,7.76047059 15.9635294,7.86870588 15.8729412,7.97223529 L15.8729412,1.31694118 C15.9635294,1.21341176 16.0458824,1.10517647 16.12,0.994588235" id="Fill-114" fill="#362A81" mask="url(#mask-73)"></path>
                    </g>
                    <g>
                        <mask id="mask-75" fill="white">
                            <use xlink:href="#path-74"></use>
                        </mask>
                        <g id="Clip-117"></g>
                        <path d="M15.8730588,1.31682353 L15.8730588,7.97211765 C15.5236471,8.37447059 15.0542353,8.71917647 14.4742353,9.00623529 L14.4742353,2.35094118 C15.0542353,2.06388235 15.5236471,1.718 15.8730588,1.31682353" id="Fill-116" fill="#372B85" mask="url(#mask-75)"></path>
                    </g>
                    <g>
                        <mask id="mask-77" fill="white">
                            <use xlink:href="#path-76"></use>
                        </mask>
                        <g id="Clip-119"></g>
                        <path d="M14.4736471,2.35082353 L14.4736471,9.00611765 C14.0736471,9.20376471 13.6207059,9.37317647 13.1183529,9.51435294 L13.1183529,2.86023529 C13.6207059,2.71788235 14.0736471,2.54847059 14.4736471,2.35082353" id="Fill-118" fill="#362A81" mask="url(#mask-77)"></path>
                    </g>
                    <g>
                        <mask id="mask-79" fill="white">
                            <use xlink:href="#path-78"></use>
                        </mask>
                        <g id="Clip-121"></g>
                        <path d="M13.1184706,2.85976471 L13.1184706,9.51505882 C12.6878824,9.63623529 12.2196471,9.73623529 11.7184706,9.81505882 L11.7184706,3.15976471 C12.2196471,3.08094118 12.6878824,2.98094118 13.1184706,2.85976471" id="Fill-120" fill="#34287D" mask="url(#mask-79)"></path>
                    </g>
                    <g>
                        <mask id="mask-81" fill="white">
                            <use xlink:href="#path-80"></use>
                        </mask>
                        <g id="Clip-123"></g>
                        <path d="M11.7185882,3.16023529 L11.7185882,9.81552941 C11.528,9.84494118 11.3327059,9.872 11.1327059,9.89552941 C10.9527059,9.91788235 10.7656471,9.93317647 10.5738824,9.94376471 L10.5738824,3.28847059 C10.7656471,3.27788235 10.9527059,3.26141176 11.1327059,3.24023529 C11.3327059,3.21670588 11.528,3.18964706 11.7185882,3.16023529" id="Fill-122" fill="#322779" mask="url(#mask-81)"></path>
                    </g>
                    <g>
                        <mask id="mask-83" fill="white">
                            <use xlink:href="#path-82"></use>
                        </mask>
                        <g id="Clip-125"></g>
                        <path d="M10.5737647,3.28882353 L10.5737647,9.94411765 C10.3902353,9.95352941 10.202,9.95823529 10.0078824,9.95823529 C9.83729412,9.95823529 9.66317647,9.95470588 9.48317647,9.94764706 L9.48317647,3.29235294 C9.66317647,3.29941176 9.83729412,3.30411765 10.0078824,3.30411765 C10.202,3.30411765 10.3902353,3.29823529 10.5737647,3.28882353" id="Fill-124" fill="#312675" mask="url(#mask-83)"></path>
                    </g>
                    <g>
                        <mask id="mask-85" fill="white">
                            <use xlink:href="#path-84"></use>
                        </mask>
                        <g id="Clip-127"></g>
                        <path d="M9.48282353,3.29235294 L9.48282353,9.94764706 C8.95223529,9.92411765 8.38282353,9.86764706 7.77223529,9.77823529 L7.77223529,3.12294118 C8.38282353,3.21352941 8.95223529,3.26882353 9.48282353,3.29235294" id="Fill-126" fill="#2F2471" mask="url(#mask-85)"></path>
                    </g>
                    <g>
                        <mask id="mask-87" fill="white">
                            <use xlink:href="#path-86"></use>
                        </mask>
                        <g id="Clip-129"></g>
                        <path d="M7.77270588,3.12282353 L7.77270588,9.77811765 C6.628,9.60988235 5.33858824,9.32282353 3.89152941,8.91811765 L3.89152941,2.26282353 C5.33858824,2.66752941 6.628,2.95458824 7.77270588,3.12282353" id="Fill-128" fill="#2D236D" mask="url(#mask-87)"></path>
                    </g>
                    <g>
                        <mask id="mask-90" fill="white">
                            <use xlink:href="#path-89"></use>
                        </mask>
                        <use id="Clip-131" fill="url(#linearGradient-88)" xlink:href="#path-89"></use>
                        <path d="M3.89176471,2.26294118 L3.89176471,8.91823529 C3.07764706,8.69 2.21294118,8.42411765 1.29647059,8.12058824 C0.756470588,7.94176471 0.396470588,7.58176471 0.343529412,7.16294118 C0.34,7.13470588 0.338823529,7.10529412 0.338823529,7.07705882 L0.338823529,0.421764706 C0.338823529,0.45 0.34,0.479411765 0.343529412,0.507647059 C0.396470588,0.926470588 0.756470588,1.28647059 1.29647059,1.46647059 C2.21294118,1.76882353 3.07764706,2.03470588 3.89176471,2.26294118" id="Fill-130" fill="url(#linearGradient-91)" mask="url(#mask-90)"></path>
                    </g>
                </g>
            </g>
            <g mask="url(#mask-2)">
                <g transform="translate(2.352941, 19.267412)">
                    <g></g>
                </g>
            </g>
            <g mask="url(#mask-2)">
                <g transform="translate(2.529412, 14.561529)">
                    <g transform="translate(21.000000, 0.000000)">
                        <mask id="mask-93" fill="white">
                            <use xlink:href="#path-92"></use>
                        </mask>
                        <g id="Clip-157"></g>
                        <polygon id="Fill-156" fill="#312675" mask="url(#mask-93)" points="15.9804706 0.970352941 15.9804706 7.62564706 15.9804706 7.65505882 15.9804706 0.998588235"></polygon>
                    </g>
                    <g transform="translate(21.000000, 0.000000)">
                        <mask id="mask-95" fill="white">
                            <use xlink:href="#path-94"></use>
                        </mask>
                        <g id="Clip-159"></g>
                    </g>
                    <g>
                        <mask id="mask-98" fill="white">
                            <use xlink:href="#path-97"></use>
                        </mask>
                        <use id="形状结合" fill="url(#linearGradient-96)" xlink:href="#path-97"></use>
                    </g>
                </g>
            </g>
            <path d="M39.2010588,16.3074118 C35.114,20.7085882 29.354,23.4191765 24.6104706,23.5685882 L2.77752941,23.7331765 C1.86694118,23.7331765 1.12576471,23.2096471 1.12576471,22.5649412 C1.12576471,21.9590588 1.77164706,21.4649412 2.59752941,21.4049412 L2.76694118,21.3978824 L24.1975294,21.2403529 C27.1410588,21.2403529 31.0375294,19.3615294 35.654,15.6403529 L35.9081176,15.438 C35.5704706,15.1274118 35.2716471,14.9932941 34.9057647,14.9932941 C34.5081176,14.9932941 34.0328235,15.1521176 33.4092941,15.4756471 L33.1763529,15.6027059 L32.9434118,15.7297647 C31.7575294,16.4262353 30.2645882,16.9427059 28.2528235,17.3850588 L27.5751765,17.5274118 C27.3422353,17.5721176 27.0987059,17.6250588 26.8445882,17.6768235 L25.5316471,17.9085882 C24.7375294,19.0991765 23.0116471,19.8627059 20.5445882,20.1556471 C20.194,20.1968235 19.8187059,20.218 19.4198824,20.218 C17.2692941,20.218 14.414,19.6062353 10.7081176,18.3803529 C10.1681176,18.2003529 9.80811765,17.8415294 9.75517647,17.4227059 C9.71282353,17.0109412 9.97752941,16.6062353 10.4645882,16.3662353 C10.7410588,16.2274118 11.0704706,16.1568235 11.4022353,16.1568235 C11.6422353,16.1568235 11.8834118,16.1932941 12.1057647,16.2685882 C15.3469412,17.3368235 17.8351765,17.8827059 19.3845882,17.8827059 C19.6069412,17.8827059 19.8104706,17.8721176 19.994,17.8497647 C21.5928235,17.6615294 22.3975294,17.3097647 22.6516471,16.7109412 L22.694,16.5838824 L22.3869412,16.5085882 L21.7834118,16.4791765 L21.5292941,16.4709412 C21.0422353,16.4638824 20.5445882,16.4415294 20.0575294,16.4109412 C18.8928235,16.3297647 17.9822353,16.1638824 17.1881176,15.858 C16.4998824,15.6027059 15.9704706,15.3403529 15.1445882,14.8462353 L14.5410588,14.4944706 C12.9316471,13.5132941 11.9998824,13.1850588 10.2316471,12.9827059 C9.99752941,12.9568235 9.75988235,12.9438824 9.51988235,12.9438824 C7.72929412,12.9438824 5.77282353,13.6603529 3.63517647,15.1462353 L3.40223529,15.3109412 L3.30694118,19.4956471 C3.29635294,19.8250588 3.09517647,20.1250588 2.76694118,20.3427059 L2.61870588,20.4250588 L2.44929412,20.4991765 C2.20341176,20.5968235 1.92929412,20.6450588 1.654,20.6450588 C1.35752941,20.6450588 1.06105882,20.5897647 0.797529412,20.4768235 C0.352823529,20.2897647 0.0563529412,19.9603529 0.00341176471,19.5932941 L0.00341176471,19.4591765 L0.119882353,14.4721176 L0.225764706,14.278 L0.554,14.0297647 C3.56341176,11.7650588 6.54105882,10.6050588 9.48458824,10.6050588 C9.90811765,10.6050588 10.3292941,10.6285882 10.7504706,10.6768235 C13.0163529,10.9309412 14.4351765,11.4027059 16.3092941,12.4885882 L16.6904706,12.7132941 L16.9657647,12.8768235 C17.8022353,13.3874118 18.2151765,13.5968235 18.7445882,13.798 C19.0728235,13.918 19.4963529,14.0074118 20.0787059,14.0603529 L20.7351765,14.1050588 L21.6669412,14.1356471 C24.3351765,14.218 25.4892941,14.5027059 25.8916471,15.4309412 L26.4316471,15.3262353 L27.2681176,15.1544706 C28.7081176,14.8391765 29.7881176,14.4874118 30.5928235,14.0685882 L30.8575294,13.9262353 C32.3234118,13.0744706 33.8551765,12.6568235 35.2257647,12.6568235 C37.1692941,12.6568235 38.7881176,13.4968235 39.434,15.1309412 C39.5822353,15.5050588 39.5187059,15.9627059 39.2010588,16.3074118 Z" id="Fill-174" fill="#6A549E" mask="url(#mask-2)"></path>
            <g mask="url(#mask-2)">
                <g transform="translate(1.000000, 21.620353)">
                    <g>
                        <mask id="mask-101" fill="white">
                            <use xlink:href="#path-100"></use>
                        </mask>
                        <use id="Clip-182" fill="url(#linearGradient-99)" xlink:href="#path-100"></use>
                    </g>
                </g>
            </g>
        </g>
    </g>
</svg>