<svg t="1644923174300" class="icon" viewBox="0 0 1024 1024" version="1.1" xmlns="http://www.w3.org/2000/svg" p-id="1757" width="200" height="200"><path d="M92 192C42.24 192 0 232.128 0 282.016v459.968C0 791.904 42.24 832 92 832h840C981.76 832 1024 791.872 1024 741.984V282.016C1024 232.16 981.76 192 932 192z m0 64h840c16.512 0 28 12.256 28 26.016v459.968c0 13.76-11.52 26.016-28 26.016H92C75.488 768 64 755.744 64 741.984V282.016c0-13.76 11.52-25.984 28-25.984zM160 352v320h96v-212.992l96 127.008 96-127.04V672h96V352h-96l-96 128-96-128z m544 0v160h-96l144 160 144-160h-96v-160z" p-id="1758" fill="#00c1de"></path></svg>