<?xml version="1.0" standalone="no"?><!DOCTYPE svg PUBLIC "-//W3C//DTD SVG 1.1//EN" "http://www.w3.org/Graphics/SVG/1.1/DTD/svg11.dtd"><svg t="1626833085284" class="icon" viewBox="0 0 1024 1024" version="1.1" xmlns="http://www.w3.org/2000/svg" p-id="1448" xmlns:xlink="http://www.w3.org/1999/xlink" width="128" height="128"><defs><style type="text/css"></style></defs><path d="M467.2 748.8A44.8 44.8 0 1 0 512 704a44.8 44.8 0 0 0-44.8 44.8zM512 640a40.106667 40.106667 0 0 1-40.106667-40.106667V230.826667a40.106667 40.106667 0 0 1 80.213334 0v369.066666A40.106667 40.106667 0 0 1 512 640z m0-640a512 512 0 1 0 512 512A512 512 0 0 0 512 0z m0 72.106667a439.893333 439.893333 0 0 1 170.666667 845.226666A439.893333 439.893333 0 0 1 200.96 200.96a439.04 439.04 0 0 1 311.04-128z" fill="#ea9518" p-id="1449"></path></svg>