<svg id="图层_1" data-name="图层 1" xmlns="http://www.w3.org/2000/svg" viewBox="0 0 72 67"><defs><style>.cls-1{fill-opacity:0.3;}.cls-2{opacity:0.05;isolation:isolate;}</style></defs><title>新建集群</title><g id="页面-1"><g id="_3-2集群管理" data-name="3-2集群管理"><g id="编组-16"><g id="编组-3"><g id="编组-8"><path id="形状结合" class="cls-1" d="M67.26,0a4,4,0,0,1,4,4V62a4,4,0,0,1-4,4h-63a4,4,0,0,1-4-4V4a4,4,0,0,1,4-4Zm0,1h-63a3,3,0,0,0-3,2.82V62a3,3,0,0,0,2.82,3H67.26a3,3,0,0,0,3-2.82V4a3,3,0,0,0-2.82-3Z"/><g id="jiqun-3"><path id="路径" class="cls-2" d="M67.26,1h-63a3,3,0,0,0-3,2.82V62a3,3,0,0,0,2.82,3H67.26a3,3,0,0,0,3-2.82V4a3,3,0,0,0-2.82-3Z"/><path id="形状" d="M47.78,18a1.16,1.16,0,0,1,1.15,1.15v9.23a1.16,1.16,0,0,1-1.15,1.16H36.65v3.84H47.78a1.16,1.16,0,0,1,1.13.95l0,.21v5h1.92a1.16,1.16,0,0,1,1.13.94l0,.21v6.16A1.16,1.16,0,0,1,50.85,48H44.71a1.15,1.15,0,0,1-1.15-1.15V40.69a1.14,1.14,0,0,1,1.15-1.15h1.91V35.69h-10v3.85h1.92a1.15,1.15,0,0,1,1.13.94l0,.21v6.16A1.15,1.15,0,0,1,38.57,48H32.43a1.15,1.15,0,0,1-1.15-1.15V40.69a1.14,1.14,0,0,1,1.15-1.15h1.92V35.69h-10v3.85h1.92a1.15,1.15,0,0,1,1.13.94l0,.21v6.16A1.15,1.15,0,0,1,26.29,48H20.15A1.16,1.16,0,0,1,19,46.85V40.69a1.15,1.15,0,0,1,1.15-1.15h1.92v-5A1.16,1.16,0,0,1,23,33.4H34.35V29.54H23.22a1.16,1.16,0,0,1-1.13-.95l0-.21V19.15A1.16,1.16,0,0,1,23.22,18ZM25.62,41.94h-5v4h5ZM50.38,42h-5v4h5ZM33,42v4h5V42ZM24,20v7H47V20Zm7,3.91A1,1,0,0,1,30,25l-.21,0H28.2a1.14,1.14,0,0,1-1.2-.91A1,1,0,0,1,28,23l.21,0h1.6A1.14,1.14,0,0,1,31,23.91Z"/></g></g></g></g></g></g></svg>