<svg id="图层_1" data-name="图层 1" xmlns="http://www.w3.org/2000/svg" viewBox="0 0 18 18"><title>删除</title><g id="页面-1"><g id="_4-5分配M-aster角色-弹窗" data-name="4-5分配M-aster角色-弹窗"><g id="编组-3"><g id="编组-9"><g id="编组-12"><path id="矩形" d="M16,0a2,2,0,0,1,2,2V16a2,2,0,0,1-2,2H2a2,2,0,0,1-2-2V2A2,2,0,0,1,2,0Zm0,1H2a1,1,0,0,0-1,.88V16a1,1,0,0,0,.88,1H16a1,1,0,0,0,1-.88V2a1,1,0,0,0-.88-1Z"/><polygon id="路径" points="8.72 8.3 4.77 8.3 4.77 9.64 8.72 9.64 9.82 9.64 13.77 9.64 13.77 8.3 9.82 8.3 8.72 8.3"/></g></g></g></g></g></svg>