<?xml version="1.0" encoding="UTF-8"?>
<!--
Licensed to the Apache Software Foundation (ASF) under one
or more contributor license agreements.  See the NOTICE file
distributed with this work for additional information
regarding copyright ownership.  The ASF licenses this file
to you under the Apache License, Version 2.0 (the
"License"); you may not use this file except in compliance
with the License.  You may obtain a copy of the License at

   http://www.apache.org/licenses/LICENSE-2.0

Unless required by applicable law or agreed to in writing,
software distributed under the License is distributed on an
"AS IS" BASIS, WITHOUT WARRANTIES OR CONDITIONS OF ANY
KIND, either express or implied.  See the License for the
specific language governing permissions and limitations
under the License.
-->
<svg width="54px" height="54px" viewBox="0 0 54 54" version="1.1" xmlns="http://www.w3.org/2000/svg" xmlns:xlink="http://www.w3.org/1999/xlink">
    <title>icon/我的申请</title>
    <g id="icon/我的申请" stroke="none" stroke-width="1" fill="none" fill-rule="evenodd">
        <g id="icon/已驳回备份-2">
            <g>
                <g id="已驳回">
                    <rect id="矩形" x="0" y="0" width="54" height="54"></rect>
                    <g id="7_驳回" transform="translate(6.000000, 5.000000)">
                        <path d="M33,0 C35.209139,-4.05812251e-16 37,1.790861 37,4 L37.0010864,19.8539126 C35.4368847,19.3009104 33.7535831,19 32,19 C23.7157288,19 17,25.7157288 17,34 C17,37.842282 18.4446512,41.3471477 20.8204131,44.0010565 L4,44 C1.790861,44 2.705415e-16,42.209139 0,40 L0,4 C-2.705415e-16,1.790861 1.790861,4.05812251e-16 4,0 L33,0 Z" id="形状结合" fill="#3889FF"></path>
                        <path d="M23.82,9.21585937 L7.62,9.21585937 C6.729,9.21585937 6,8.48685937 6,7.59585937 C6,6.70485937 6.729,5.97585937 7.62,5.97585937 L23.82,5.97585937 C24.711,5.97585937 25.44,6.70485937 25.44,7.59585937 C25.44,8.48685937 24.711,9.21585937 23.82,9.21585937 Z M18.42,18.24 L7.62,18.24 C6.729,18.24 6,17.511 6,16.62 C6,15.729 6.729,15 7.62,15 L18.42,15 C19.311,15 20.04,15.729 20.04,16.62 C20.04,17.511 19.311,18.24 18.42,18.24 L18.42,18.24 Z M15.18,27.24 L7.62,27.24 C6.729,27.24 6,26.511 6,25.62 C6,24.729 6.729,24 7.62,24 L15.18,24 C16.071,24 16.8,24.729 16.8,25.62 C16.8,26.511 16.071,27.24 15.18,27.24 Z" id="形状" fill="#FFFFFF" fill-rule="nonzero"></path>
                        <path d="M22,34.0726321 C22,37.6711921 23.9359001,40.9959721 27.0787001,42.7952521 C30.2258381,44.5945483 34.0900421,44.5945483 37.2371801,42.7952521 C40.3794401,40.9965121 42.3153401,37.6711921 42.3153401,34.0726321 C42.3153401,30.4740721 40.3794401,27.1487521 37.2366401,25.3494721 C34.0895021,23.550176 30.2252981,23.550176 27.0781601,25.3494721 C23.9353601,27.1492921 21.9994601,30.4746121 22,34.0726321 L22,34.0726321 Z" id="路径" fill="#40A0FF" fill-rule="nonzero"></path>
                        <path d="M20.1576701,34.0726838 C20.1576701,38.3599324 22.4446907,42.3210052 26.1575107,44.4646295 C29.8754554,46.608273 34.4405228,46.608273 38.1584675,44.4646295 C41.8706495,42.3216485 44.1576701,38.3599324 44.1576701,34.0726838 C44.1576701,29.7854352 41.8706495,25.8237191 38.1578296,23.6800948 C34.4398848,21.5364512 29.8748175,21.5364512 26.1568727,23.6800948 C22.4440528,25.8243624 20.1570322,29.7860786 20.1576701,34.0726838 L20.1576701,34.0726838 Z" id="路径" fill="#3889FF" fill-rule="nonzero"></path>
                        <rect id="矩形" fill="#FFFFFF" transform="translate(29.828427, 35.933336) rotate(-45.000000) translate(-29.828427, -35.933336) " x="28.8284271" y="32.9333361" width="2" height="6" rx="1"></rect>
                        <rect id="矩形" fill="#FFFFFF" transform="translate(33.723714, 34.889087) rotate(-315.000000) translate(-33.723714, -34.889087) " x="32.7237142" y="30.3890873" width="2" height="9" rx="1"></rect>
                    </g>
                </g>
            </g>
        </g>
    </g>
</svg>