<?xml version="1.0" encoding="UTF-8"?>
<!--
Licensed to the Apache Software Foundation (ASF) under one
or more contributor license agreements.  See the NOTICE file
distributed with this work for additional information
regarding copyright ownership.  The ASF licenses this file
to you under the Apache License, Version 2.0 (the
"License"); you may not use this file except in compliance
with the License.  You may obtain a copy of the License at

   http://www.apache.org/licenses/LICENSE-2.0

Unless required by applicable law or agreed to in writing,
software distributed under the License is distributed on an
"AS IS" BASIS, WITHOUT WARRANTIES OR CONDITIONS OF ANY
KIND, either express or implied.  See the License for the
specific language governing permissions and limitations
under the License.
-->
<svg width="54px" height="54px" viewBox="0 0 54 54" version="1.1" xmlns="http://www.w3.org/2000/svg" xmlns:xlink="http://www.w3.org/1999/xlink">
    <title>icon/接入总数</title>
    <g id="icon/接入总数" stroke="none" stroke-width="1" fill="none" fill-rule="evenodd">
        <g id="编组">
            <g id="63_考勤报表" transform="translate(7.000000, 4.000000)">
                <path d="M20.9833881,11.8372034 L8.69580637,11.8372034 C7.68208088,11.8372034 6.85266912,11.0077917 6.85266912,9.99406618 C6.85266912,8.98034069 7.68208088,8.15092892 8.69580637,8.15092892 L20.9833881,8.15092892 C21.9971136,8.15092892 22.8265253,8.98034069 22.8265253,9.99406618 C22.8265253,11.0077917 21.9971136,11.8372034 20.9833881,11.8372034 L20.9833881,11.8372034 Z M25.8984208,19.8241315 L8.69580637,19.8241315 C7.68208088,19.8241315 6.85266912,18.9947198 6.85266912,17.9809943 C6.85266912,16.9672688 7.68208088,16.137857 8.69580637,16.137857 L25.8984208,16.137857 C26.9121462,16.137857 27.741558,16.9672688 27.741558,17.9809943 C27.741558,18.9947198 26.9121462,19.8241315 25.8984208,19.8241315 L25.8984208,19.8241315 Z" id="形状" fill="#FFFFFF" fill-rule="nonzero"></path>
                <path d="M33.1812704,46.7456087 L7.37734886,46.7456087 C3.3224469,46.7456087 0.0047998366,43.4279616 0.0047998366,39.3730596 L0.0047998366,7.42534722 C0.0047998366,3.37044526 3.3224469,0.0527982026 7.37734886,0.0527982026 L33.1812704,0.0527982026 C37.2361724,0.0527982026 40.5538194,3.37044526 40.5538194,7.42534722 L40.5538194,39.3730596 C40.5538194,43.4279616 37.2361724,46.7456087 33.1812704,46.7456087 Z" id="路径" fill="#3889FF" fill-rule="nonzero"></path>
                <rect id="矩形" fill="#3889FF" x="0" y="0" width="41" height="47" rx="4"></rect>
                <path d="M9.36732271,17.3340531 C8.6504248,16.6129816 8.6504248,15.4483141 9.36732271,14.7272426 L19.4867606,4.60780474 C20.2078321,3.89090683 21.3724996,3.89090683 22.0935711,4.60780474 C22.810469,5.3288762 22.810469,6.49354374 22.0935711,7.2146152 L11.9741332,17.3340531 C11.2530617,18.050951 10.0883942,18.050951 9.36732271,17.3340531 L9.36732271,17.3340531 Z" id="路径" fill="#FFFFFF" fill-rule="nonzero"></path>
                <path d="M5.45741422,10.8179485 C6.17848568,10.1010506 7.34315321,10.1010506 8.06422467,10.8179485 L11.9741332,14.727857 C12.6910311,15.4489285 12.6910311,16.613596 11.9741332,17.3346675 C11.2530617,18.0515654 10.0883942,18.0515654 9.36732271,17.3346675 L5.45741422,13.424759 C4.7405163,12.7036875 4.7405163,11.53902 5.45741422,10.8179485 L5.45741422,10.8179485 Z M23.3512051,12.6236087 C23.3512051,11.6098832 24.1806168,10.7804714 25.1943423,10.7804714 L33.7956495,10.7804714 C34.809375,10.7804714 35.6387868,11.6098832 35.6387868,12.6236087 C35.6387868,13.6373342 34.809375,14.4667459 33.7956495,14.4667459 L25.1943423,14.4667459 C24.1806168,14.4667459 23.3512051,13.6373342 23.3512051,12.6236087 L23.3512051,12.6236087 Z M4.30545343,27.3687067 C4.30545343,26.3549812 5.1348652,25.5255694 6.14859069,25.5255694 L33.1812704,25.5255694 C34.1949959,25.5255694 35.0244077,26.3549812 35.0244077,27.3687067 C35.0244077,28.3824322 34.1949959,29.211844 33.1812704,29.211844 L6.14859069,29.211844 C5.1348652,29.211844 4.30545343,28.3824322 4.30545343,27.3687067 Z M4.30545343,36.584393 C4.30545343,35.5706675 5.1348652,34.7412557 6.14859069,34.7412557 L33.1812704,34.7412557 C34.1949959,34.7412557 35.0244077,35.5706675 35.0244077,36.584393 C35.0244077,37.5981185 34.1949959,38.4275302 33.1812704,38.4275302 L6.14859069,38.4275302 C5.1348652,38.4275302 4.30545343,37.5981185 4.30545343,36.584393 Z" id="形状" fill="#FFFFFF" fill-rule="nonzero"></path>
            </g>
            <rect id="矩形" x="0" y="0" width="54" height="54"></rect>
        </g>
    </g>
</svg>