<?xml version="1.0" encoding="UTF-8"?>
<!--
Licensed to the Apache Software Foundation (ASF) under one
or more contributor license agreements.  See the NOTICE file
distributed with this work for additional information
regarding copyright ownership.  The ASF licenses this file
to you under the Apache License, Version 2.0 (the
"License"); you may not use this file except in compliance
with the License.  You may obtain a copy of the License at

   http://www.apache.org/licenses/LICENSE-2.0

Unless required by applicable law or agreed to in writing,
software distributed under the License is distributed on an
"AS IS" BASIS, WITHOUT WARRANTIES OR CONDITIONS OF ANY
KIND, either express or implied.  See the License for the
specific language governing permissions and limitations
under the License.
-->
<svg width="559" height="188" viewBox="0 0 559 188" xmlns="http://www.w3.org/2000/svg" overflow="hidden">
    <defs>
        <linearGradient x1="21.4018%" y1="6.67873%" x2="90.5742%" y2="88.6401%" id="linearGradient-1">
            <stop offset="0" stop-color="#FAAD1A"/>
            <stop offset="1" stop-color="#FF4444"/>
        </linearGradient>
    </defs>
    <g id="login" fill="none" fill-rule="evenodd">
        <g id="应龙logo设计---优化" transform="translate(-1312 -2996)">
            <g id="白色" transform="translate(1312 2996)">
                <g>
                    <g id="编组-8" fill="#FFFFFF" transform="translate(226 25)">
                        <path d="M23.3789 40 20.6055 33.3008 7.14844 33.3008 4.41406 40 0.683594 40 12.1289 11.9922 15.4102 11.9922 27.1875 40 23.3789 40ZM13.8281 16.8359 8.45703 30.0781 19.2969 30.0781 13.8281 16.8359ZM47.7734 17.9297C49.8958 17.9297 51.8034 18.418 53.4961 19.3945 55.1888 20.3711 56.5072 21.7155 57.4512 23.4277 58.3952 25.14 58.8672 27.0638 58.8672 29.1992 58.8672 32.4284 57.819 35.1139 55.7227 37.2559 53.6263 39.3978 50.9766 40.4688 47.7734 40.4688 46.1849 40.4688 44.6973 40.1758 43.3105 39.5898 41.9238 39.0039 40.7227 38.1771 39.707 37.1094L39.707 47.7148 36.2891 47.7148 36.2891 18.3984 38.6328 18.3984 39.3164 21.6992C40.332 20.5143 41.569 19.5898 43.0273 18.9258 44.4857 18.2617 46.0677 17.9297 47.7734 17.9297ZM41.8164 34.9023C43.3399 36.4258 45.2409 37.1875 47.5195 37.1875 49.7982 37.1875 51.6862 36.429 53.1836 34.9121 54.681 33.3952 55.4297 31.4909 55.4297 29.1992 55.4297 26.9075 54.681 25.0033 53.1836 23.4863 51.6862 21.9694 49.7982 21.2109 47.5195 21.2109 45.2409 21.2109 43.3431 21.9726 41.8262 23.4961 40.3092 25.0195 39.5508 26.9206 39.5508 29.1992 39.5508 31.4779 40.306 33.3789 41.8164 34.9023ZM87.4219 18.3984 90.1367 18.3984 90.1367 40 87.3242 40 86.9531 36.7188C85.9375 37.9037 84.7038 38.8249 83.252 39.4824 81.8001 40.14 80.2083 40.4688 78.4766 40.4688 76.3802 40.4688 74.4792 39.9805 72.7734 39.0039 71.0677 38.0273 69.7298 36.6764 68.7598 34.9512 67.7897 33.2259 67.3047 31.3086 67.3047 29.1992 67.3047 25.97 68.3691 23.2845 70.498 21.1426 72.627 19.0006 75.2864 17.9297 78.4766 17.9297 80.2083 17.9297 81.8099 18.2617 83.2813 18.9258 84.7526 19.5898 85.9961 20.5208 87.0117 21.7188L87.4219 18.3984ZM73.0469 34.9023C74.5573 36.4258 76.4518 37.1875 78.7305 37.1875 81.0091 37.1875 82.9004 36.429 84.4043 34.9121 85.9082 33.3952 86.6602 31.4909 86.6602 29.1992 86.6602 26.9075 85.9082 25.0033 84.4043 23.4863 82.9004 21.9694 81.0091 21.2109 78.7305 21.2109 76.4518 21.2109 74.5573 21.9726 73.0469 23.4961 71.5365 25.0195 70.7813 26.9206 70.7813 29.1992 70.7813 31.4779 71.5365 33.3789 73.0469 34.9023ZM111.484 40.4688C109.388 40.4688 107.48 39.9805 105.762 39.0039 104.043 38.0273 102.695 36.6764 101.719 34.9512 100.742 33.2259 100.254 31.3086 100.254 29.1992 100.254 27.0768 100.742 25.1563 101.719 23.4375 102.695 21.7187 104.043 20.3711 105.762 19.3945 107.48 18.418 109.388 17.9297 111.484 17.9297 114.049 17.9297 116.273 18.6328 118.154 20.0391 120.036 21.4453 121.309 23.3268 121.973 25.6836L118.613 25.6836C117.975 24.2904 117.025 23.1966 115.762 22.4023 114.499 21.6081 113.073 21.2109 111.484 21.2109 109.271 21.2109 107.425 21.9759 105.947 23.5059 104.469 25.0358 103.73 26.9336 103.73 29.1992 103.73 31.4518 104.473 33.3463 105.957 34.8828 107.441 36.4193 109.284 37.1875 111.484 37.1875 113.073 37.1875 114.486 36.7839 115.723 35.9766 116.96 35.1693 117.91 34.043 118.574 32.5977L122.012 32.5977C121.348 34.9805 120.062 36.888 118.154 38.3203 116.247 39.7526 114.023 40.4688 111.484 40.4688ZM142.559 17.9297C145.124 17.9297 147.155 18.7532 148.652 20.4004 150.15 22.0475 150.898 24.2708 150.898 27.0703L150.898 40 147.5 40 147.5 27.8711C147.5 25.6836 146.999 23.9974 145.996 22.8125 144.993 21.6276 143.555 21.0352 141.68 21.0352 139.831 21.0352 138.281 21.7253 137.031 23.1055 135.781 24.4857 135.156 26.1914 135.156 28.2227L135.156 40 131.738 40 131.738 10.6836 135.156 10.6836 135.156 21.3477C136.003 20.2669 137.064 19.4271 138.34 18.8281 139.616 18.2292 141.022 17.9297 142.559 17.9297ZM182.598 29.2969C182.598 29.6875 182.578 30.0911 182.539 30.5078L164.121 30.5078C164.382 32.513 165.205 34.1211 166.592 35.332 167.979 36.543 169.687 37.1484 171.719 37.1484 173.203 37.1484 174.525 36.8197 175.684 36.1621 176.842 35.5046 177.76 34.5899 178.438 33.418L182.031 33.418C181.107 35.6445 179.743 37.3763 177.939 38.6133 176.136 39.8503 174.063 40.4688 171.719 40.4688 169.661 40.4688 167.79 39.9805 166.104 39.0039 164.417 38.0273 163.096 36.6797 162.139 34.9609 161.182 33.2422 160.703 31.3216 160.703 29.1992 160.703 27.0898 161.182 25.1725 162.139 23.4473 163.096 21.722 164.417 20.3711 166.104 19.3945 167.79 18.418 169.661 17.9297 171.719 17.9297 173.854 17.9297 175.755 18.4375 177.422 19.4531 179.089 20.4688 180.368 21.8392 181.26 23.5645 182.152 25.2897 182.598 27.2005 182.598 29.2969ZM171.719 21.1523C169.766 21.1523 168.112 21.7155 166.758 22.8418 165.404 23.9681 164.551 25.4753 164.199 27.3633L179.199 27.3633C178.835 25.4492 177.979 23.9356 176.631 22.8223 175.283 21.709 173.646 21.1523 171.719 21.1523Z"
                              id="Apache"/>
                        <path d="M7.04688 129 7.04688 67.3828 20.3672 67.3828 20.3672 129 7.04688 129ZM71.5195 67.3828 84.582 67.3828 84.582 129 73.4531 129 45.5234 90.5 45.5234 129 32.4609 129 32.4609 67.3828 44.4922 67.3828 71.5195 104.98 71.5195 67.3828ZM109.953 116.625 133.586 116.625 133.586 129 96.6328 129 96.6328 67.3828 109.953 67.3828 109.953 116.625ZM167.551 130.332C162.91 130.332 158.556 129.508 154.488 127.861 150.421 126.214 146.933 123.973 144.025 121.137 141.118 118.301 138.826 114.892 137.15 110.91 135.475 106.928 134.637 102.689 134.637 98.1914 134.637 93.694 135.475 89.4544 137.15 85.4727 138.826 81.4909 141.118 78.082 144.025 75.2461 146.933 72.4101 150.421 70.1686 154.488 68.5215 158.556 66.8743 162.91 66.0508 167.551 66.0508 172.163 66.0508 176.495 66.8672 180.549 68.5 184.602 70.1328 188.068 72.3743 190.947 75.2246 193.826 78.0749 196.096 81.4837 197.758 85.4512 199.419 89.4186 200.25 93.6653 200.25 98.1914 200.25 102.717 199.419 106.964 197.758 110.932 196.096 114.899 193.826 118.308 190.947 121.158 188.068 124.008 184.602 126.25 180.549 127.883 176.495 129.516 172.163 130.332 167.551 130.332ZM153.758 112.156C157.482 115.909 162.079 117.785 167.551 117.785 173.022 117.785 177.591 115.916 181.258 112.178 184.924 108.439 186.758 103.777 186.758 98.1914 186.758 92.6054 184.924 87.9505 181.258 84.2266 177.591 80.5026 173.022 78.6406 167.551 78.6406 162.079 78.6406 157.482 80.5169 153.758 84.2695 150.034 88.0222 148.172 92.6627 148.172 98.1914 148.172 103.72 150.034 108.375 153.758 112.156ZM247.75 67.3828 260.813 67.3828 260.813 129 249.684 129 221.754 90.5 221.754 129 208.691 129 208.691 67.3828 220.723 67.3828 247.75 104.98 247.75 67.3828ZM299.891 96.8164 332.676 96.8164C332.676 103.176 331.351 108.905 328.701 114.004 326.051 119.103 322.327 123.099 317.529 125.992 312.731 128.885 307.296 130.332 301.223 130.332 296.754 130.332 292.55 129.523 288.611 127.904 284.673 126.286 281.285 124.066 278.449 121.244 275.613 118.423 273.379 115.028 271.746 111.061 270.113 107.093 269.297 102.832 269.297 98.2773 269.297 93.7226 270.099 89.4544 271.703 85.4727 273.307 81.4909 275.499 78.0749 278.277 75.2246 281.056 72.3743 284.408 70.1328 288.332 68.5 292.257 66.8672 296.467 66.0508 300.965 66.0508 306.007 66.0508 310.712 67.0462 315.08 69.0371 319.449 71.028 323.101 73.8066 326.037 77.373 328.973 80.9395 330.914 85 331.859 89.5547L318.109 89.5547C316.792 86.2604 314.615 83.6465 311.578 81.7129 308.542 79.7793 305.09 78.8125 301.223 78.8125 295.78 78.8125 291.347 80.6172 287.924 84.2266 284.501 87.836 282.789 92.5195 282.789 98.2773 282.789 104.007 284.479 108.661 287.859 112.242 291.24 115.823 295.694 117.613 301.223 117.613 305.204 117.613 308.771 116.646 311.922 114.713 315.073 112.779 317.221 110.223 318.367 107.043L299.891 107.043 299.891 96.8164Z"
                              id="INLONG"/>
                    </g>
                    <path d="M186 76.1942 76.1942 186C69.5136 184.69 63.0882 182.668 57 180.017L180.017 57C182.668 63.0882 184.69 69.5136 186 76.1942ZM184.66 119.198 119.198 184.66C111.275 186.837 102.933 188 94.3186 188 93.1042 188 91.8952 187.977 90.6919 187.931L187.931 90.6919C187.977 91.8952 188 93.1042 188 94.3186 188 102.933 186.837 111.275 184.66 119.198ZM45.6624 175.135C18.298 158.624 0 128.608 0 94.3186 0 42.2279 42.2279 0 94.3186 0 128.608 0 158.624 18.298 175.135 45.6624L162.04 58.7574C149.239 34.4314 123.716 17.8441 94.3186 17.8441 52.0829 17.8441 17.8441 52.0829 17.8441 94.3186 17.8441 123.716 34.4314 149.239 58.7574 162.04L45.6624 175.135ZM118.389 61.2974C129.422 72.3876 128.331 91.4648 115.953 103.907L64.4014 154 52 141.515 103.335 91.6394C107.918 87.0331 108.316 79.9655 104.226 75.8534 100.135 71.7413 93.1035 72.1419 88.521 76.7482L68.2261 97.3775C67.4532 98.1631 66.1904 98.1754 65.4023 97.4051L57.8664 90.0388C57.0819 89.2719 57.0616 88.0162 57.8209 87.2244L69.3131 75.2397C69.6928 74.8437 69.8932 74.3091 69.8673 73.761L69.5494 67.0342C69.5223 66.4608 69.7429 65.9033 70.1551 65.5038 76.7295 59.1307 80.8405 55.1784 82.4879 53.647 85.9635 50.4164 89.7134 47.2942 90.9042 34L97.6382 34C97.6382 38.9369 97.6382 45.4859 97.6382 53.647 104.99 53.4455 113.091 55.9721 118.389 61.2974ZM75.9516 68.6632C75.359 69.6903 75.3327 70.9491 75.882 72L79.2191 68.625C80.76 67.0666 80.76 64.5584 79.2191 63L75.9516 68.6632Z"
                          id="形状结合" fill="url(#linearGradient-1)"/>
                </g>
            </g>
        </g>
    </g>
</svg>