<?xml version="1.0" encoding="utf-8"?>
<!-- Generator: Adobe Illustrator 24.0.0, SVG Export Plug-In . SVG Version: 6.00 Build 0)  -->
<svg version="1.1" id="图层_1" xmlns="http://www.w3.org/2000/svg" xmlns:xlink="http://www.w3.org/1999/xlink" x="0px" y="0px"
	 viewBox="0 0 130 34" style="enable-background:new 0 0 130 34;" xml:space="preserve">
<style type="text/css">
	.st0{fill-rule:evenodd;clip-rule:evenodd;fill:#6B4FBB;}
	.st1{fill-rule:evenodd;clip-rule:evenodd;fill:#FFD500;}
	.st2{fill-rule:evenodd;clip-rule:evenodd;fill:url(#SVGID_1_);}
	.st3{fill-rule:evenodd;clip-rule:evenodd;fill:url(#SVGID_2_);}
	.st4{fill-rule:evenodd;clip-rule:evenodd;fill:#FFFFFF;}
</style>
<g>
	<g id="Erda_6_">
		<g id="完整白色_6_" transform="translate(-405.000000, -261.000000)">
			<path id="形状结合_3_" class="st0" d="M476.4,270.4c0.2,0,0.3,0.1,0.3,0.3v2c0,0.7-0.5,1.2-1.2,1.2l0,0l0,0H464l0,0
				c-0.2,0-0.4,0.1-0.5,0.2c-0.2,0.2-0.5,0.4-0.5,1.1l0,1l10.3,0c0.2,0,0.3,0.1,0.3,0.3v2c0,0.7-0.6,1.2-1.2,1.2l0,0l-9.4,0l0,1.3
				l0,0c0,0.1,0.1,0.5,0.4,0.7c0.3,0.2,0.7,0.3,1,0.3l11.1,0c0.7,0,1.2,0.6,1.2,1.2v2c0,0.2-0.1,0.3-0.3,0.3h-12.2
				c-0.4,0-0.8,0-1.1-0.1c-1.7-0.4-3-1.7-3.4-3.4c-0.1-0.4-0.1-0.7-0.1-1.1v-5.8c0-0.4,0-0.8,0.1-1.1c0.4-1.7,1.7-3,3.4-3.4
				c0.4-0.1,0.7-0.1,1.1-0.1H476.4z M491.6,273.9v1.8c0,0.6-0.5,1-1,1H485c-1.3,0-2.4,0.7-3.1,1.6c-0.4,0.6-0.7,1.4-0.7,2.2v5.1
				h-2.8v-4.4l0,0c0-0.4,0-0.4,0-0.6c0-0.8,0.1-1.5,0.4-2.2c0.2-0.6,0.5-1.1,0.8-1.6c0.4-0.6,1-1.1,1.6-1.6c1.1-0.8,2.4-1.2,3.8-1.2
				H491.6z M504.9,270.4v15.2h-7.4c-1.1,0-2.2-0.3-3-0.9c-0.8-0.5-1.5-1.1-1.9-1.9c-0.5-0.9-0.9-1.9-0.9-3s0.3-2.2,0.9-3
				c0.5-0.8,1.1-1.5,1.9-1.9c0.9-0.5,1.9-0.9,3-0.9h4.6l0-2.5c0-0.5,0.4-1,1-1l0,0H504.9z M510.1,285.6c-0.3,0-0.6,0-0.8-0.1
				c-1.3-0.3-2.4-1.4-2.7-2.7c-0.1-0.3-0.1-0.5-0.1-0.8c0-0.3,0-0.6,0.1-0.8c0.3-1.3,1.4-2.4,2.7-2.7c0.3-0.1,0.5-0.1,0.8-0.1l6.8,0
				v-0.8c0-0.5-0.4-0.8-0.8-0.8h-5.8c-0.6,0-1-0.5-1-1v-1.8h6.8c0.3,0,0.6,0,0.8,0.1c1.3,0.3,2.4,1.4,2.7,2.7
				c0.1,0.3,0.1,0.5,0.1,0.8v8H510.1z M516.9,282.8v-1.6h-6.8c-0.5,0-0.8,0.4-0.8,0.8s0.4,0.8,0.8,0.8H516.9z M502.1,276.7l-4.6,0
				c-1.7,0-3,1.4-3,3c0,1.7,1.4,3,3,3l4.6,0V276.7z"/>
		</g>
	</g>
	<g>
		<path class="st0" d="M32.3,34L32.3,34c-9.4,0-17-7.6-17-17v0c0-9.4,7.6-17,17-17h0c9.4,0,17,7.6,17,17v0
			C49.3,26.4,41.7,34,32.3,34z"/>
		<g>
			<path class="st1" d="M37.2,13h-7.7c-0.2,0-0.4-0.2-0.4-0.4v-0.5c0-3,2.4-5.4,5.4-5.4h7.7c0.2,0,0.4,0.2,0.4,0.4v0.5
				C42.6,10.6,40.2,13,37.2,13z"/>
			<g>
				<linearGradient id="SVGID_1_" gradientUnits="userSpaceOnUse" x1="28.2542" y1="17" x2="42.57" y2="17">
					<stop  offset="0" style="stop-color:#C7B3FF"/>
					<stop  offset="6.897312e-02" style="stop-color:#CEBDFF"/>
					<stop  offset="0.3065" style="stop-color:#E3DAFF"/>
					<stop  offset="0.5428" style="stop-color:#F3EEFF"/>
					<stop  offset="0.7755" style="stop-color:#FCFBFF"/>
					<stop  offset="1" style="stop-color:#FFFFFF"/>
				</linearGradient>
				<path class="st2" d="M42.6,20.1H28.3v-6.3h14c0.2,0,0.4,0.2,0.4,0.4V20.1z"/>
			</g>
			<g>
				<linearGradient id="SVGID_2_" gradientUnits="userSpaceOnUse" x1="28.2542" y1="24.1579" x2="42.57" y2="24.1579">
					<stop  offset="0" style="stop-color:#C7B3FF"/>
					<stop  offset="6.897312e-02" style="stop-color:#CEBDFF"/>
					<stop  offset="0.3065" style="stop-color:#E3DAFF"/>
					<stop  offset="0.5428" style="stop-color:#F3EEFF"/>
					<stop  offset="0.7755" style="stop-color:#FCFBFF"/>
					<stop  offset="1" style="stop-color:#FFFFFF"/>
				</linearGradient>
				<path class="st3" d="M42.2,27.3h-14V21h14.3v5.9C42.6,27.1,42.4,27.3,42.2,27.3z"/>
			</g>
			<g>
				<path class="st4" d="M28.3,21v-14c0-0.2-0.2-0.4-0.4-0.4h-5.5c-0.2,0-0.4,0.2-0.4,0.4v14.9c0,3,2.4,5.4,5.4,5.4h0.6h0.3h6.3
					C31.1,27.3,28.3,24.5,28.3,21z"/>
			</g>
		</g>
	</g>
</g>
</svg>
