<?xml version="1.0" encoding="UTF-8"?>
<!DOCTYPE svg PUBLIC "-//W3C//DTD SVG 1.1//EN" "http://www.w3.org/Graphics/SVG/1.1/DTD/svg11.dtd">
<svg xmlns="http://www.w3.org/2000/svg" version="1.1" width="980px" height="981px" style="shape-rendering:geometricPrecision; text-rendering:geometricPrecision; image-rendering:optimizeQuality; fill-rule:evenodd; clip-rule:evenodd" xmlns:xlink="http://www.w3.org/1999/xlink">
<g><path style="opacity:0.997" fill="#9298a2" d="M 490.5,36.5 C 531.668,33.3246 561.501,49.9913 580,86.5C 594.453,127.793 584.62,161.959 550.5,189C 529.863,202.126 507.53,206.126 483.5,201C 449.157,190.991 428.323,168.491 421,133.5C 416.965,88.3874 435.799,57.2208 477.5,40C 481.999,38.961 486.332,37.7943 490.5,36.5 Z"/></g>
<g><path style="opacity:0.998" fill="#1b4b88" d="M 689.5,93.5 C 716.136,92.6323 727.303,105.299 723,131.5C 714.908,146.955 702.408,152.121 685.5,147C 670.683,138.893 665.849,126.727 671,110.5C 674.833,102.162 681,96.4954 689.5,93.5 Z"/></g>
<g><path style="opacity:1" fill="#144885" d="M 257.5,106.5 C 306.092,102.383 343.926,120.383 371,160.5C 390.23,194.675 392.564,230.009 378,266.5C 356.649,309.609 321.816,332.275 273.5,334.5C 214.234,331.113 176.734,300.779 161,243.5C 153.446,192.472 170.612,152.305 212.5,123C 226.479,114.399 241.479,108.899 257.5,106.5 Z"/></g>
<g><path style="opacity:1" fill="#174986" d="M 733.5,259.5 C 733.586,258.504 733.252,257.671 732.5,257C 730.613,256.22 728.946,256.387 727.5,257.5C 696.526,264.262 665.526,271.096 634.5,278C 627.376,295.062 614.71,301.896 596.5,298.5C 594.701,298.577 593.034,299.077 591.5,300C 564.961,323.376 538.295,346.543 511.5,369.5C 509.973,369.427 508.973,370.094 508.5,371.5C 507.167,373.5 505.5,375.167 503.5,376.5C 501.596,376.738 500.262,377.738 499.5,379.5C 498.833,380.833 497.833,381.833 496.5,382.5C 493.588,384.066 490.921,386.066 488.5,388.5C 487.224,389.614 487.224,390.614 488.5,391.5C 499.863,421.897 492.863,447.064 467.5,467C 447.733,478.238 427.4,479.405 406.5,470.5C 405.833,470.833 405.167,471.167 404.5,471.5C 369.438,525.899 334.772,580.566 300.5,635.5C 327.05,672.046 331.883,711.38 315,753.5C 290.926,799.466 252.759,820.966 200.5,818C 145.657,808.823 112.824,776.99 102,722.5C 97.1827,666.944 119.683,627.111 169.5,603C 209.65,587.927 247.15,592.761 282,617.5C 316.774,563.605 351.274,509.605 385.5,455.5C 386.289,455.217 386.956,454.717 387.5,454C 386.717,451.882 385.384,450.382 383.5,449.5C 374.525,434.618 372.025,418.618 376,401.5C 389.714,365.224 415.547,351.391 453.5,360C 460.526,362.595 467.026,366.095 473,370.5C 508,340.167 543,309.833 578,279.5C 576.202,258.649 585.536,246.649 606,243.5C 615.241,243.955 622.908,247.621 629,254.5C 657.691,247.62 686.524,241.286 715.5,235.5C 719.913,235.147 724.246,234.314 728.5,233C 729.406,231.301 729.739,229.467 729.5,227.5C 736.024,197.818 754.524,181.818 785,179.5C 824.37,183.872 843.37,205.872 842,245.5C 836.893,269.273 822.727,284.773 799.5,292C 769.281,297.389 747.281,286.556 733.5,259.5 Z"/></g>
<g><path style="opacity:1" fill="#b7c6db" d="M 729.5,227.5 C 729.739,229.467 729.406,231.301 728.5,233C 724.246,234.314 719.913,235.147 715.5,235.5C 719.001,234.2 722.667,233.034 726.5,232C 727.781,230.591 728.781,229.091 729.5,227.5 Z"/></g>
<g><path style="opacity:0.989" fill="#9298a2" d="M 453.5,252.5 C 469.544,250.262 480.377,256.595 486,271.5C 488.983,286.364 483.816,297.197 470.5,304C 452.509,309.018 440.343,302.852 434,285.5C 431.794,269.232 438.294,258.232 453.5,252.5 Z"/></g>
<g><path style="opacity:0.176" fill="#eef2f6" d="M 727.5,257.5 C 728.946,256.387 730.613,256.22 732.5,257C 733.252,257.671 733.586,258.504 733.5,259.5C 731.858,257.919 729.858,257.253 727.5,257.5 Z"/></g>
<g><path style="opacity:0.99" fill="#9399a3" d="M 67.5,327.5 C 91.6476,325.48 102.481,336.48 100,360.5C 96.133,372.848 87.633,379.515 74.5,380.5C 55.5314,378.231 46.6981,367.564 48,348.5C 50.2738,337.398 56.7738,330.398 67.5,327.5 Z"/></g>
<g><path style="opacity:0.998" fill="#9298a2" d="M 639.5,327.5 C 687.26,325.128 724.093,343.795 750,383.5C 775.217,435.695 767.717,482.528 727.5,524C 690.92,553.596 650.587,559.929 606.5,543C 553.671,515.171 532.504,471.671 543,412.5C 557.875,364.454 590.042,336.121 639.5,327.5 Z"/></g>
<g><path style="opacity:0.996" fill="#9298a2" d="M 855.5,346.5 C 885.74,342.865 907.574,354.532 921,381.5C 930.514,408.948 924.348,432.114 902.5,451C 888.585,460.644 873.252,463.977 856.5,461C 832.663,456.164 817.496,441.997 811,418.5C 805.772,381.936 820.605,357.936 855.5,346.5 Z"/></g>
<g><path style="opacity:0.004" fill="#dee6ef" d="M 511.5,369.5 C 511.027,370.906 510.027,371.573 508.5,371.5C 508.973,370.094 509.973,369.427 511.5,369.5 Z"/></g>
<g><path style="opacity:0.004" fill="#e7edf3" d="M 503.5,376.5 C 502.738,378.262 501.404,379.262 499.5,379.5C 500.262,377.738 501.596,376.738 503.5,376.5 Z"/></g>
<g><path style="opacity:0.997" fill="#9298a2" d="M 222.5,379.5 C 263.079,377.626 291.912,394.959 309,431.5C 321.419,468.991 313.253,501.158 284.5,528C 249.167,552.667 213.833,552.667 178.5,528C 148.92,500.448 141.087,467.615 155,429.5C 168.826,401.015 191.326,384.348 222.5,379.5 Z"/></g>
<g><path style="opacity:0.489" fill="#ebeff5" d="M 496.5,382.5 C 493.833,385.5 491.167,388.5 488.5,391.5C 487.224,390.614 487.224,389.614 488.5,388.5C 490.921,386.066 493.588,384.066 496.5,382.5 Z"/></g>
<g><path style="opacity:0.329" fill="#d7dfeb" d="M 383.5,449.5 C 385.384,450.382 386.717,451.882 387.5,454C 386.956,454.717 386.289,455.217 385.5,455.5C 385.396,453.297 384.73,451.297 383.5,449.5 Z"/></g>
<g><path style="opacity:0.996" fill="#9298a2" d="M 72.5,486.5 C 97.402,483.537 116.569,492.537 130,513.5C 142.527,540.382 138.027,563.882 116.5,584C 91.7863,600.052 67.7863,599.052 44.5,581C 24.8322,558.995 22.3322,535.162 37,509.5C 46.1222,497.526 57.9556,489.859 72.5,486.5 Z"/></g>
<g><path style="opacity:1" fill="#154886" d="M 822.5,512.5 C 864.454,510.049 894.287,527.715 912,565.5C 926.116,613.081 911.616,648.915 868.5,673C 825.344,688.498 790.178,677.998 763,641.5C 749.013,616.974 746.68,591.308 756,564.5C 769.292,535.697 791.459,518.363 822.5,512.5 Z"/></g>
<g><path style="opacity:0.995" fill="#9298a2" d="M 417.5,530.5 C 448.566,527.444 469.4,540.444 480,569.5C 485.236,598.191 475.069,619.358 449.5,633C 423.154,642.212 401.321,636.045 384,614.5C 368.106,586.254 372.273,561.421 396.5,540C 403.095,535.698 410.095,532.531 417.5,530.5 Z"/></g>
<g><path style="opacity:0.997" fill="#9298a2" d="M 616.5,607.5 C 657.901,604.939 687.401,622.272 705,659.5C 718.15,698.7 708.984,731.533 677.5,758C 654.941,773.539 630.275,777.872 603.5,771C 556.921,752.355 538.087,718.188 547,668.5C 558.245,634.413 581.411,614.08 616.5,607.5 Z"/></g>
<g><path style="opacity:1" fill="#154886" d="M 430.5,677.5 C 478.945,680.118 508.112,705.118 518,752.5C 521.111,789.441 507.278,817.941 476.5,838C 447.171,853.333 417.838,853.333 388.5,838C 353.275,814.032 340.441,781.199 350,739.5C 359.5,710 379,690.5 408.5,681C 415.912,679.393 423.245,678.227 430.5,677.5 Z"/></g>
<g><path style="opacity:0.999" fill="#1d4c88" d="M 797.5,739.5 C 820.992,739.494 831.158,751.161 828,774.5C 818.873,792.156 805.373,796.656 787.5,788C 777.685,780.564 774.185,770.731 777,758.5C 780.849,748.813 787.683,742.479 797.5,739.5 Z"/></g>
<g><path style="opacity:0.999" fill="#174986" d="M 560.5,822.5 C 584.445,819.743 603.278,828.077 617,847.5C 631.574,874.923 627.741,899.423 605.5,921C 591.538,931.39 575.872,935.057 558.5,932C 526.366,921.912 512.199,900.078 516,866.5C 522.089,842.91 536.923,828.244 560.5,822.5 Z"/></g>
<g><path style="opacity:0.989" fill="#9399a3" d="M 319.5,860.5 C 341.311,860.809 351.478,871.809 350,893.5C 344.351,909.917 332.851,916.417 315.5,913C 300.875,906.587 295.041,895.421 298,879.5C 301.948,869.377 309.115,863.044 319.5,860.5 Z"/></g>
</svg>
