<svg id="图层_1" data-name="图层 1" xmlns="http://www.w3.org/2000/svg" viewBox="0 0 52 52"><defs><style>.cls-1{fill:#00c1de;}.cls-2,.cls-3{fill:none;stroke:#00c1de;stroke-miterlimit:10;stroke-width:3px;}.cls-3{stroke-dasharray:5.21 5.21;}</style></defs><title>开源组件图标设计-基础组件_过滤条</title><path class="cls-1" d="M49,33.93v6.91H3V33.93H49m3-3H0V43.84H52V30.93Z"/><path class="cls-1" d="M12.83,11.16v9.78H3.05V11.16h9.78m3-3H.05V23.94H15.83V8.16Z"/><path class="cls-1" d="M30.89,11.16v9.78H21.11V11.16h9.78m3-3H18.11V23.94H33.89V8.16Z"/><path class="cls-1" d="M49,11.16v9.78H39.22V11.16H49m3-3H36.22V23.94H52V8.16Z"/><line class="cls-2" x1="0.05" y1="27.43" x2="2.55" y2="27.43"/><line class="cls-3" x1="7.76" y1="27.43" x2="46.85" y2="27.43"/><line class="cls-2" x1="49.45" y1="27.43" x2="51.95" y2="27.43"/></svg>