<svg id="图层_1" data-name="图层 1" xmlns="http://www.w3.org/2000/svg" viewBox="0 0 52 52"><defs><style>.cls-1{fill:#00c1de;}</style></defs><title>开源组件图标设计-</title><path class="cls-1" d="M12.21,39.79V49H3V39.79h9.21m3-3H0V52H15.21V36.79Z"/><path class="cls-1" d="M30.6,39.79V49H21.4V39.79h9.2m3-3H18.4V52H33.6V36.79Z"/><path class="cls-1" d="M49,39.79V49H39.79V39.79H49m3-3H36.79V52H52V36.79Z"/><path class="cls-1" d="M12.21,21.4v9.2H3V21.4h9.21m3-3H0V33.6H15.21V18.4Z"/><path class="cls-1" d="M30.6,21.4v9.2H21.4V21.4h9.2m3-3H18.4V33.6H33.6V18.4Z"/><path class="cls-1" d="M49,3v9.21H3V3H49m3-3H0V15.21H52V0Z"/><path class="cls-1" d="M49,21.4v9.2H39.79V21.4H49m3-3H36.79V33.6H52V18.4Z"/></svg>