<svg id="图层_1" data-name="图层 1" xmlns="http://www.w3.org/2000/svg" viewBox="0 0 12 14"><title>主机</title><g id="页面-1"><g id="_1实例" data-name="1实例"><g id="编组-10"><g id="编组"><g id="zhuji-2"><path id="形状" d="M9.45,0H1.74A1.29,1.29,0,0,0,.3,1V11.21a1.29,1.29,0,0,0,1.44,1H9.45a1.3,1.3,0,0,0,1.45-1V1A1.29,1.29,0,0,0,9.45,0ZM5.54,10.49a.88.88,0,1,1,.9-.88.84.84,0,0,1-.26.62.9.9,0,0,1-.64.26ZM8.39,6.12H2.69A.51.51,0,0,1,2.08,6a.5.5,0,0,1,0-.61.5.5,0,0,1,.61-.12h5.7A.5.5,0,0,1,9,5.38.5.5,0,0,1,9,6a.5.5,0,0,1-.62.12Zm0-2.62H2.69a.51.51,0,0,1-.61-.13.5.5,0,0,1,0-.61.5.5,0,0,1,.61-.12h5.7A.49.49,0,0,1,9,2.76a.47.47,0,0,1,0,.61A.5.5,0,0,1,8.39,3.5ZM10.5,14H.7a.48.48,0,0,1-.59-.13.46.46,0,0,1,0-.6.48.48,0,0,1,.59-.13h9.8a.61.61,0,0,1,.7.43.63.63,0,0,1-.7.44Z"/></g></g></g></g></g></svg>