<?xml version="1.0" encoding="UTF-8"?>
<svg width="275px" height="35px" viewBox="0 0 275 35" version="1.1" xmlns="http://www.w3.org/2000/svg" xmlns:xlink="http://www.w3.org/1999/xlink">
    <title></title>
    <defs>
        <linearGradient x1="0%" y1="50%" x2="100%" y2="37.4921101%" id="linearGradient-1">
            <stop stop-color="#026EFF" offset="0%"></stop>
            <stop stop-color="#026EFF" offset="100%"></stop>
        </linearGradient>
    </defs>
    <g id="页面-1" stroke="none" stroke-width="1" fill="none" fill-rule="evenodd">
        <g id="登录页1" transform="translate(-41.000000, -22.000000)">
            <g id="编组-4" transform="translate(42.000000, 23.000000)">
                <g id="logo-18" stroke="#026EFF">
                    <path d="M40.3833737,10.0653424 C38.6143135,8.5402905 36.4182388,7.62525937 34.0391579,7.44225318 C32.7581143,5.24617848 30.86705,3.41611623 28.6709753,2.07407056 C26.4138985,0.732024901 23.7908093,0 21.1067179,0 C17.5075955,0 13.9694752,1.34204566 11.2243818,3.72112659 C8.84530086,5.79519715 7.13724275,8.60129258 6.46621993,11.7123984 C4.63615768,12.3224192 3.05010374,13.4204565 1.8910643,15.0065105 C0.671022814,16.6535665 0,18.6056329 0,20.6797034 C0,22.9367802 0.793026988,25.1328549 2.31807884,26.9019151 C3.78212864,28.6099732 5.79519712,29.7690126 7.99127182,30.1350251 L22.6667656,30.1350251 C23.5817968,30.074023 24.2528196,29.2809961 24.2528196,28.3659649 C24.2528196,27.4509337 23.5207947,26.7189089 22.6667656,26.5969047 L9.2723154,26.5969047 C6.10020748,26.5359026 3.47711828,23.9128134 3.47711828,20.7407055 C3.47711828,17.9346101 5.49018675,15.4945271 8.29628218,14.9455084 L9.51632371,14.7015001 L9.69932993,13.4204565 C10.0653424,10.7363652 11.4683901,8.23528013 13.5424607,6.40521788 C15.6165312,4.57515563 18.3006225,3.59912242 21.1067179,3.59912245 C22.9367802,3.59912245 24.7668424,4.02613699 26.4138985,4.88016603 C27.8169462,5.61219093 29.0369877,6.58822414 30.0130209,7.80826563 C27.5119359,8.47928844 25.3768632,9.94333825 23.8518113,12.0174088 C23.546801,12.3834213 23.4247968,12.8714378 23.546801,13.3594544 C23.607803,13.847471 23.8518113,14.2744856 24.2178238,14.5184939 C25.0108508,15.0675125 26.1088881,14.9455084 26.7189089,14.1524814 C28.1829587,12.1394129 30.5010375,10.9803735 33.0021226,10.9803735 C36.5402429,10.9803735 39.5269167,13.2101198 40.4419479,16.6262361 L40.5029499,16.8702444 C40.6089151,17.388396 41.3374452,18.2528533 42.2524763,18.2528533 C43.2285095,18.2528533 43.9979634,17.2912224 44,16.3566945 C43.937556,16.0618294 43.9824961,16.226552 43.921494,16.0435458 C43.4334774,13.6644648 42.2134359,11.6513964 40.3833737,10.0653424 Z" id="路径" stroke-width="0.3" fill="url(#linearGradient-1)"></path>
                    <path d="M43.1823494,22.3626936 C43.0227734,20.7669337 41.5865895,19.5435178 39.9908296,19.7030938 C38.7142217,19.8094778 37.7035737,20.7137417 37.3844218,21.8839656 L28.0758225,20.4477817 C27.9694385,19.7562858 27.5970945,19.1711738 27.0651745,18.6924459 C26.4268706,18.1605259 25.6821826,17.9477579 24.8843027,18.0009499 C23.2353508,18.1605259 22.0119349,19.5967098 22.1715109,21.2456617 C22.3310869,22.7882296 23.6076948,23.9584535 25.1502627,23.9584535 L25.4162227,23.9584535 C25.7353746,23.9584535 26.0013346,23.8520695 26.2672946,23.7456855 L31.1077662,27.8946612 C31.0013823,28.1606212 31.0013823,28.4797731 31.0013823,28.7989251 C31.1077662,30.128725 32.2779902,31.086181 33.5545981,30.926605 C34.831206,30.767029 35.8418539,29.6499971 35.6822779,28.3733892 C35.6822779,28.2670052 35.6822779,28.2138132 35.6290859,28.1074292 L38.8206057,25.1286774 C39.2993337,25.3946374 39.8844456,25.5010214 40.4695576,25.4478294 C42.1185094,25.3946374 43.3419253,24.0116455 43.1823494,22.3626936 L43.1823494,22.3626936 Z M33.1290621,26.2989013 C32.7035261,26.3520933 32.3311821,26.4584773 32.0120302,26.6712453 L27.5439025,22.7882296 C27.7034785,22.5754616 27.8630545,22.3095016 27.9694385,21.9903496 L37.4376138,23.4265335 C37.4908058,23.6393015 37.5971898,23.8520695 37.7035738,24.0648375 L34.831206,26.7776293 C34.352478,26.4584773 33.7673661,26.2457093 33.1290621,26.2989013 L33.1290621,26.2989013 Z M25.3098386,22.6286536 C24.4055747,22.6818456 23.6608868,22.0435416 23.5545028,21.1392777 C23.5013108,20.2350137 24.1396147,19.4903258 25.0438787,19.3839418 L25.2034547,19.3839418 C26.0545266,19.3839418 26.7460225,20.0222457 26.7992146,20.8733177 C26.8524066,21.7775816 26.1609106,22.5222696 25.3098386,22.6286536 Z" id="形状" stroke-width="0.4" fill="#026EFF" fill-rule="nonzero"></path>
                </g>
                <text id="DataSophon" font-family="PingFangSC-Medium, PingFang SC" font-size="24" font-weight="400" fill="#333330">
                    <tspan x="58" y="26">DataSophon</tspan>
                </text>
            </g>
        </g>
    </g>
</svg>