<svg id="图层_1" data-name="图层 1" xmlns="http://www.w3.org/2000/svg" viewBox="0 0 13 13"><title>服务管理</title><g id="页面-1"><g id="_1实例" data-name="1实例"><g id="编组-10"><g id="guanli-fill"><path id="形状" d="M4.86,0H1.08A1.09,1.09,0,0,0,0,1.08V4.86A1.09,1.09,0,0,0,1.08,6H4.86A1.09,1.09,0,0,0,6,4.86V1.08A1.09,1.09,0,0,0,4.86,0Zm0,5.14v0ZM4.86,7H1.08A1.08,1.08,0,0,0,0,8.11v3.78A1.08,1.08,0,0,0,1.08,13H4.86A1.08,1.08,0,0,0,6,11.89V8.11A1.08,1.08,0,0,0,4.86,7Zm0,5.24v0Zm7-5.24H8.11A1.08,1.08,0,0,0,7,8.11v3.78A1.08,1.08,0,0,0,8.11,13h3.78A1.08,1.08,0,0,0,13,11.89V8.11A1.08,1.08,0,0,0,11.89,7Zm.35-5.11h-.38a.27.27,0,0,1,0-.11L12,1.43a.77.77,0,0,0-.27-1l-.49-.3A.61.61,0,0,0,10.73,0a.84.84,0,0,0-.46.35l-.19.35H10L9.78.38A.7.7,0,0,0,9.32,0a.62.62,0,0,0-.54.08L8.3.41a.79.79,0,0,0-.27,1l.21.38a.27.27,0,0,0-.05.11H7.81a.75.75,0,0,0-.73.76v.59A.75.75,0,0,0,7.81,4h.38a.16.16,0,0,1,.05.11L8,4.51a.78.78,0,0,0,.27,1l.48.3A.65.65,0,0,0,9.16,6a.4.4,0,0,0,.19,0,.89.89,0,0,0,.46-.35L10,5.22h.11l.19.35a.76.76,0,0,0,.46.35.64.64,0,0,0,.54-.08l.48-.3a.81.81,0,0,0,.27-1l-.21-.37A.34.34,0,0,0,11.89,4h.38A.75.75,0,0,0,13,3.27V2.68a.79.79,0,0,0-.76-.76ZM10,4.05A1.08,1.08,0,1,1,11.08,3,1.08,1.08,0,0,1,10,4.05Z"/></g></g></g></g></svg>