<svg width="16" height="16" viewBox="0 0 16 16" fill="" xmlns="http://www.w3.org/2000/svg">
<path d="M10.5 4C10.7761 4 11 4.22391 11 4.5C11 4.77609 10.7761 5 10.5 5H7.5C7.22391 5 7 4.77609 7 4.5C7 4.22391 7.22391 4 7.5 4H10.5ZM5.5 4C5.77609 4 6 4.22391 6 4.5C6 4.77609 5.77609 5 5.5 5C5.22391 5 5 4.77609 5 4.5C5 4.22391 5.22391 4 5.5 4ZM10.5 7C10.7761 7 11 7.22391 11 7.5C11 7.77609 10.7761 8 10.5 8H7.5C7.22391 8 7 7.77609 7 7.5C7 7.22391 7.22391 7 7.5 7H10.5ZM5.5 7C5.77609 7 6 7.22391 6 7.5C6 7.77609 5.77609 8 5.5 8C5.22391 8 5 7.77609 5 7.5C5 7.22391 5.22391 7 5.5 7ZM10.5 10C10.7761 10 11 10.2239 11 10.5C11 10.7761 10.7761 11 10.5 11H7.5C7.22391 11 7 10.7761 7 10.5C7 10.2239 7.22391 10 7.5 10H10.5ZM5.5 10C5.77609 10 6 10.2239 6 10.5C6 10.7761 5.77609 11 5.5 11C5.22391 11 5 10.7761 5 10.5C5 10.2239 5.22391 10 5.5 10ZM13 2H3V14H10.585L13 11.585V2ZM13.5 1C13.7761 1 14 1.22391 14 1.5V11.793C14 11.9256 13.9473 12.0528 13.8536 12.1466L11.1464 14.8536C11.0527 14.9473 10.9255 15 10.7928 15H2.5C2.22391 15 2 14.7761 2 14.5V1.5C2 1.22391 2.22391 1 2.5 1H13.5Z" fill=""/>
</svg>
