<svg width="16" height="16" viewBox="0 0 16 16" fill="" xmlns="http://www.w3.org/2000/svg">
<path d="M7.99999 1C4.94544 1 1.63635 1.82727 1.63635 3.54545V12.4545C1.63635 14.1727 4.94544 15 7.99999 15C11.0545 15 14.3636 14.1727 14.3636 12.4545V3.54545C14.3636 1.82727 11.0545 1 7.99999 1ZM13.0909 8C13.0909 8.31818 11.5 9.27273 7.99999 9.27273C4.49999 9.27273 2.90908 8.31818 2.90908 8V5.13636C4.11817 5.77273 6.0909 6.09091 7.99999 6.09091C9.90908 6.09091 11.8818 5.77273 13.0909 5.13636V8ZM7.99999 2.27273C11.3091 2.27273 13.0909 3.22727 13.0909 3.54545C13.0909 3.86364 11.3091 4.81818 7.99999 4.81818C4.6909 4.81818 2.90908 3.86364 2.90908 3.54545C2.90908 3.22727 4.6909 2.27273 7.99999 2.27273ZM7.99999 13.7273C4.49999 13.7273 2.90908 12.7727 2.90908 12.4545V9.59091C4.11817 10.2273 6.0909 10.5455 7.99999 10.5455C9.90908 10.5455 11.8818 10.2273 13.0909 9.59091V12.4545C13.0909 12.7727 11.5 13.7273 7.99999 13.7273Z" fill=""/>
</svg>
