<svg width="16" height="16" viewBox="0 0 16 16" fill="" xmlns="http://www.w3.org/2000/svg">
<path d="M14.0156 2H1.98438C1.44023 2 1 2.50313 1 3.125V6.625V7.625V9.75V10.75V12.875C1 13.4969 1.44023 14 1.98438 14H5.375H6.25H9.75H10.625H14.0156C14.5598 14 15 13.4969 15 12.875V10.75V9.75V7.625V6.625V3.125C15 2.50313 14.5598 2 14.0156 2ZM6.25 6.625V4.5H9.75V6.625H6.25ZM9.75 7.625V9.75H6.25V7.625H9.75ZM1.98438 4.5H5.375V6.625H1.98438V4.5ZM1.98438 7.625H5.375V9.75H1.98438V7.625ZM1.98438 12.875V10.75H5.375V12.875H1.98438ZM6.25 12.875V10.75H9.75V12.875H6.25ZM14.0156 12.875H10.625V10.75H14.0156V12.875ZM14.0156 9.75H10.625V7.625H14.0156V9.75ZM10.625 6.625V4.5H14.0156V6.625H10.625Z" fill=""/>
</svg>
