<svg id="图层_1" data-name="图层 1" xmlns="http://www.w3.org/2000/svg" viewBox="0 0 18 18"><title>后台操作</title><g id="页面-1"><g id="_2配置" data-name="2配置"><g id="caozuo-zhineng"><path id="形状" d="M14.91,11c-.26,0-.35-.16-.59-.09L11.76,6.52l-.09.06a2.62,2.62,0,0,0,.56-1.85,3.23,3.23,0,0,0-6.46,0,2.82,2.82,0,0,0,.7,2.09L3.9,11.11A2,2,0,0,0,3.09,11a2.73,2.73,0,0,0,0,5.46,2.59,2.59,0,0,0,2.73-2.26H12.2a2.57,2.57,0,0,0,2.71,2.26,2.73,2.73,0,0,0,0-5.46Zm-2.63,2H5.72a2.75,2.75,0,0,0-.79-1.28L7.44,7.56A3.18,3.18,0,0,0,9,8a3.26,3.26,0,0,0,1.82-.56l2.42,4.21a2.7,2.7,0,0,0-1,1.42Z"/></g></g></g></svg>