<?xml version="1.0" standalone="no"?><!DOCTYPE svg PUBLIC "-//W3C//DTD SVG 1.1//EN" "http://www.w3.org/Graphics/SVG/1.1/DTD/svg11.dtd"><svg class="icon" width="200px" height="200.00px" viewBox="0 0 1024 1024" version="1.1" xmlns="http://www.w3.org/2000/svg"><path fill="#333333" d="M693.845333 567.168c-39.893333 0-75.605333 17.664-100.096 45.482667l-62.72-44.416c6.656-18.346667 10.496-38.016 10.496-58.624 0-20.266667-3.669333-39.594667-10.112-57.685334l62.592-43.946666a132.992 132.992 0 0 0 99.882667 45.226666c73.6 0 133.504-59.861333 133.504-133.504s-59.904-133.504-133.504-133.504a133.632 133.632 0 0 0-127.957333 171.434667l-62.634667 43.946667a172.544 172.544 0 0 0-106.752-61.994667V264.106667a133.717333 133.717333 0 0 0 106.026667-130.602667C502.570667 59.861333 442.666667 0 369.066667 0S235.605333 59.861333 235.605333 133.504a133.632 133.632 0 0 0 103.637334 130.005333v76.458667a172.586667 172.586667 0 0 0-142.549334 169.642667 172.586667 172.586667 0 0 0 143.786667 169.856v80.725333a133.674667 133.674667 0 0 0-104.832 130.304C235.605333 964.138667 295.466667 1024 369.066667 1024s133.504-59.861333 133.504-133.504a133.632 133.632 0 0 0-104.832-130.304v-80.725333a172.458667 172.458667 0 0 0 104.96-61.056l63.146666 44.714666a132.906667 132.906667 0 0 0-5.461333 37.546667c0 73.6 59.904 133.504 133.504 133.504s133.504-59.861333 133.504-133.504-59.946667-133.504-133.546667-133.504z m0-312.149333c35.712 0 64.725333 29.056 64.725334 64.725333s-29.013333 64.725333-64.725334 64.725333c-35.669333 0-64.725333-29.056-64.725333-64.725333s29.056-64.725333 64.725333-64.725333zM304.341333 133.504c0-35.669333 29.013333-64.725333 64.725334-64.725333s64.725333 29.056 64.725333 64.725333-29.013333 64.725333-64.725333 64.725333-64.725333-29.056-64.725334-64.725333z m129.450667 756.992c0 35.669333-29.013333 64.725333-64.725333 64.725333s-64.725333-29.056-64.725334-64.725333 29.013333-64.725333 64.725334-64.725333 64.725333 29.056 64.725333 64.725333zM369.066667 599.893333a90.368 90.368 0 0 1-90.282667-90.282666c0-49.792 40.490667-90.282667 90.282667-90.282667 49.792 0 90.282667 40.490667 90.282666 90.282667A90.368 90.368 0 0 1 369.066667 599.893333z m324.778666 165.504a64.810667 64.810667 0 0 1-64.725333-64.725333c0-35.669333 29.013333-64.725333 64.725333-64.725333s64.725333 29.056 64.725334 64.725333c0 35.669333-29.013333 64.725333-64.725334 64.725333z" /></svg>