<?xml version="1.0" standalone="no"?><!DOCTYPE svg PUBLIC "-//W3C//DTD SVG 1.1//EN" "http://www.w3.org/Graphics/SVG/1.1/DTD/svg11.dtd"><svg t="1625125695220" class="icon" viewBox="0 0 1024 1024" version="1.1" xmlns="http://www.w3.org/2000/svg" p-id="5725" xmlns:xlink="http://www.w3.org/1999/xlink" width="200" height="200"><defs><style type="text/css"></style></defs><path d="M275.115324 984.404021L54.614285 856.062859 53.931619 600.745866l220.501039 128.341162 0.682666 255.316993z" p-id="5726" fill="#3300ff"></path><path d="M275.115324 1023.998635a40.959945 40.959945 0 0 1-19.797307-5.461326L34.816978 887.465483a38.229282 38.229282 0 0 1-20.479973-30.719959V600.745866a40.27728 40.27728 0 0 1 19.797307-34.133288 40.959945 40.959945 0 0 1 39.594614 0l220.501039 128.341162a40.27728 40.27728 0 0 1 19.797307 34.133288v255.316993a38.911948 38.911948 0 0 1-19.797307 34.133288 40.959945 40.959945 0 0 1-19.114641 5.461326z m-181.589091-190.463746l141.994477 82.602556V750.932332L93.526233 669.695107z" p-id="5727" fill="#3300ff"></path><path d="M274.432658 768.681642a40.959945 40.959945 0 0 1-19.797307-5.461326L34.134312 634.879153A38.911948 38.911948 0 0 1 14.337005 600.745866a40.27728 40.27728 0 0 1 19.797307-34.133288l221.866371-128.341162a40.959945 40.959945 0 0 1 39.594614 0L516.779002 566.612578a41.642611 41.642611 0 0 1 19.114641 34.133288 39.594614 39.594614 0 0 1-19.114641 34.133287L294.229965 763.220316a40.959945 40.959945 0 0 1-19.797307 5.461326zM132.438181 600.745866L274.432658 682.665756l144.042475-81.91989-142.677143-82.602557z" p-id="5728" fill="#3300ff"></path><path d="M275.115324 1023.998635a40.959945 40.959945 0 0 1-19.797307-5.461326 39.594614 39.594614 0 0 1-19.114641-34.133288v-255.316993a40.27728 40.27728 0 0 1 19.797307-34.133288L477.184388 566.612578a39.594614 39.594614 0 0 1 38.911948 0 40.27728 40.27728 0 0 1 19.797307 34.133288v255.316993a36.863951 36.863951 0 0 1-19.114641 34.133287l-221.866371 128.341163a40.959945 40.959945 0 0 1-19.797307 5.461326z m38.911948-273.066303v165.205113l143.359809-83.285222V669.012441z" p-id="5729" fill="#3300ff"></path><path d="M747.520027 984.404021l-220.501039-128.341162L526.336322 600.745866l220.50104 128.341162 0.682665 255.316993z" p-id="5730" fill="#3300ff"></path><path d="M748.202693 1023.998635a37.546617 37.546617 0 0 1-19.797307-5.461326L507.221681 887.465483a38.229282 38.229282 0 0 1-19.797307-33.450622V600.745866a40.27728 40.27728 0 0 1 19.797307-34.133288 40.959945 40.959945 0 0 1 39.594614 0l218.453042 128.341162a40.27728 40.27728 0 0 1 19.797307 34.133288v255.316993a38.911948 38.911948 0 0 1-19.797307 34.133288 40.959945 40.959945 0 0 1-17.066644 5.461326z m-181.589091-190.463746l141.994477 82.602556V750.932332L565.930936 669.695107z" p-id="5731" fill="#3300ff"></path><path d="M746.837362 768.681642a40.959945 40.959945 0 0 1-19.797307-5.461326L506.539015 634.879153a38.911948 38.911948 0 0 1-19.797307-34.133287 40.27728 40.27728 0 0 1 19.797307-34.133288l222.549037-128.341162a40.959945 40.959945 0 0 1 39.594614 0l220.501039 128.341162a40.27728 40.27728 0 0 1 19.797307 34.133288 38.911948 38.911948 0 0 1-19.797307 34.133287L765.269337 763.220316a40.959945 40.959945 0 0 1-18.431975 5.461326zM604.842884 600.745866l142.677143 81.91989 143.359809-83.285222-142.677143-81.237225z" p-id="5732" fill="#3300ff"></path><path d="M748.202693 1023.998635a40.959945 40.959945 0 0 1-19.797307-5.461326 38.911948 38.911948 0 0 1-19.797307-34.133288v-255.316993a40.27728 40.27728 0 0 1 19.797307-34.133288L949.589091 566.612578a40.959945 40.959945 0 0 1 39.594614 0 40.27728 40.27728 0 0 1 19.797307 34.133288v255.316993a38.911948 38.911948 0 0 1-19.797307 34.133287L765.269337 1018.537309a40.959945 40.959945 0 0 1-17.066644 5.461326z m38.229282-273.066303v165.205113l143.359809-83.285222V669.012441zM511.317676 551.593931L290.816636 423.252769l-0.682666-255.316993 220.50104 128.341162 0.682666 255.316993z" p-id="5733" fill="#3300ff"></path><path d="M511.317676 590.505879A40.27728 40.27728 0 0 1 492.203034 585.727219L271.019329 457.386057a40.27728 40.27728 0 0 1-19.797307-34.133288V167.935776A38.911948 38.911948 0 0 1 270.336664 136.533151a37.546617 37.546617 0 0 1 39.594613 0l220.50104 125.610499a38.229282 38.229282 0 0 1 19.797307 33.450623v255.999658a38.229282 38.229282 0 0 1-39.594614 38.911948zM330.41125 400.042133L471.723062 482.64469v-163.839782L329.728584 236.202352z" p-id="5734" fill="#3300ff"></path><path d="M510.63501 335.188886A40.27728 40.27728 0 0 1 492.203034 330.410226L270.336664 204.799727a40.27728 40.27728 0 0 1-19.797307-34.133288 38.911948 38.911948 0 0 1 19.797307-34.133288L492.203034 5.461326a36.181285 36.181285 0 0 1 38.911949 0L752.981353 136.533151a38.911948 38.911948 0 0 1 19.797307 34.133288 40.27728 40.27728 0 0 1-19.797307 34.133288L530.432317 330.410226a40.27728 40.27728 0 0 1-19.797307 4.77866zM368.640532 167.935776l141.994478 82.602557 144.042474-82.602557-142.677143-83.285222z" p-id="5735" fill="#3300ff"></path><path d="M511.317676 590.505879A36.181285 36.181285 0 0 1 492.203034 585.727219a40.27728 40.27728 0 0 1-19.797307-34.133288V296.276938a39.594614 39.594614 0 0 1 19.797307-34.133288L713.386739 136.533151a37.546617 37.546617 0 0 1 39.594614 0 41.642611 41.642611 0 0 1 19.797307 34.133288v252.58633a40.27728 40.27728 0 0 1-19.797307 34.133288L531.114983 585.727219a40.27728 40.27728 0 0 1-19.797307 4.77866z m38.911948-273.066302v165.887779L697.002761 400.042133V235.519686z" p-id="5736" fill="#3300ff"></path></svg>