<svg xmlns="http://www.w3.org/2000/svg" xmlns:xlink="http://www.w3.org/1999/xlink" fill="none" version="1.1" width="16" height="16" viewBox="0 0 16 16"><g style="mix-blend-mode:passthrough"><g style="mix-blend-mode:passthrough"><g style="mix-blend-mode:passthrough"><path d="M10.494305435749054,5.394287109375C10.631448435749054,5.394287109375,10.796020435749053,5.394287109375,11.061164435749054,5.449144209375C11.222684435749054,5.568001109375,11.564024435749054,5.952001109375,11.637164435749053,6.537147109375C11.655444435749054,6.655997109375,12.606304435749054,8.009147109375,12.624594435749053,8.137147109375C12.624594435749053,8.182857109375,13.063444435749053,8.292577109375,13.191444435749053,8.402287109375C13.293844435749055,8.490057109375,13.410874435749054,8.676577109375,13.456594435749054,8.758857109375C13.456594435749054,8.758857109375,13.319444435749054,8.777147109375,13.319444435749054,8.777147109375C13.261544435749054,8.682667109375,13.101844435749054,8.484577109375,12.926304435749053,8.447997109375C12.750764435749055,8.411427109375,12.737354435749054,8.475427109375,12.752594435749053,8.511997109375C12.834874435749054,8.524187109375,13.028704435749054,8.594287109375,13.145734435749054,8.777147109375C13.145734435749054,8.777147109375,11.609734435749054,8.822857109375,11.609734435749054,8.822857109375C11.530494435749054,8.609527109375,11.381094435749054,7.999977109375,11.052024435749054,7.890287109375C10.750306435749055,7.789717109375,10.402877435749055,7.6708571093749995,9.936591585749055,6.939427109375C9.909163035749055,6.875427109375,10.320591435749053,6.107430109375,10.494305435749054,5.394287109375Z" fill="#F8F9F9" fill-opacity="1"/></g><g style="mix-blend-mode:passthrough"><g style="mix-blend-mode:passthrough"><path d="M14.242900011920929,9.508578627929687C14.273300011920929,9.243428627929688,14.330600011920929,8.689375627929687,14.316000011920929,8.594289627929687C14.30140001192093,8.499204627929688,12.63980001192093,8.018289627929688,11.810900011920928,7.7897186279296875C11.810900011920928,7.7897186279296875,1.4885700119209289,7.9268616279296875,1.4885700119209289,7.9268616279296875C1.4885700119209289,7.9268616279296875,0.866857011920929,8.411432627929688,0.866857011920929,8.411432627929688C0.866857011920929,8.411432627929688,0.30000001192092896,9.398858627929688,0.30000001192092896,9.398858627929688C0.7845710119209289,10.227808627929686,1.795770011920929,11.916808627929687,1.9640000119209289,12.041148627929687C2.132230011920929,12.165488627929687,4.380760011920929,13.074288627929688,5.484000011920929,13.513148627929688C5.484000011920929,13.513148627929688,8.135430011920928,15.359998627929688,8.135430011920928,15.359998627929688C8.135430011920928,15.359998627929688,12.92630001192093,11.602288627929688,12.92630001192093,11.602288627929688C12.92630001192093,11.602288627929688,14.242900011920929,9.508578627929687,14.242900011920929,9.508578627929687Z" fill="#1F4F69" fill-opacity="1"/></g><g style="mix-blend-mode:passthrough"><path d="M0.555981457233429,9.5360107421875C0.555981457233429,9.5360107421875,3.179981457233429,10.3680107421875,3.179981457233429,10.3680107421875C3.179981457233429,10.3680107421875,9.68969145723343,10.7520107421875,9.68969145723343,10.7520107421875C9.68969145723343,10.7520107421875,14.005081457233429,9.6822967421875,14.005081457233429,9.6822967421875C14.005081457233429,9.6822967421875,12.78908145723343,11.5291507421875,12.78908145723343,11.5291507421875C12.78908145723343,11.5291507421875,8.171981457233429,15.213720742187501,8.171981457233429,15.213720742187501C8.171981457233429,15.213720742187501,5.447411457233429,13.2297207421875,5.447411457233429,13.2297207421875C5.447411457233429,13.2297207421875,2.1194114572334293,11.8857207421875,2.1194114572334293,11.8857207421875C2.1194114572334293,11.8857207421875,0.555981457233429,9.5360107421875,0.555981457233429,9.5360107421875Z" fill="#8DC8E5" fill-opacity="1"/></g><g style="mix-blend-mode:passthrough"><path d="M0.556774914264679,9.534088134765625C0.556774914264679,9.534088134765625,4.840984914264679,12.984668134765625,4.840984914264679,12.984668134765625C4.840984914264679,12.984668134765625,2.1011249142646786,11.885708134765625,2.1011249142646786,11.885708134765625C2.1011249142646786,11.885708134765625,0.556774914264679,9.534088134765625,0.556774914264679,9.534088134765625Z" fill="#5FA2C8" fill-opacity="1"/></g><g style="mix-blend-mode:passthrough"><path d="M0.693127453327179,9.581695556640625C0.693127453327179,9.581695556640625,3.170837453327179,10.367981556640625,3.170837453327179,10.367981556640625C3.170837453327179,10.367981556640625,5.173127453327179,13.074265556640626,5.173127453327179,13.074265556640626C5.173127453327179,13.074265556640626,0.693127453327179,9.581695556640625,0.693127453327179,9.581695556640625Z" fill="#67AFDA" fill-opacity="1"/></g><g style="mix-blend-mode:passthrough"><path d="M14.151349670124054,9.398854018554687C14.151349670124054,9.398854018554687,14.215349670124054,8.685708018554688,14.215349670124054,8.685708018554688C14.215349670124054,8.685708018554688,11.801649670124053,7.8719940185546875,11.801649670124053,7.8719940185546875C11.801649670124053,7.8719940185546875,1.515939670124054,7.990851018554688,1.515939670124054,7.990851018554688C1.515939670124054,7.990851018554688,0.939935670124054,8.457137018554688,0.939935670124054,8.457137018554688C0.939935670124054,8.457137018554688,0.40964967012405396,9.398854018554687,0.40964967012405396,9.398854018554687C0.40964967012405396,9.398854018554687,3.070219670124054,10.194284018554688,3.070219670124054,10.194284018554688C3.070219670124054,10.194284018554688,9.726219670124054,10.550854018554688,9.726219670124054,10.550854018554688C9.726219670124054,10.550854018554688,14.151349670124054,9.398854018554687,14.151349670124054,9.398854018554687Z" fill="#DDE7F4" fill-opacity="1"/></g><g style="mix-blend-mode:passthrough"><path d="M15.88853477754593,5.924568779296875C15.88853477754593,5.924568779296875,15.084034777545929,4.854858779296875,15.084034777545929,4.854858779296875C15.084034777545929,4.854858779296875,15.084034777545929,4.626288779296875,15.084034777545929,4.626288779296875C14.940734777545929,4.373328779296875,14.65243477754593,3.865598779296875,14.645134777545929,3.858288779296875C14.63783477754593,3.850968779296875,14.605534777545929,3.836948779296875,14.590234777545929,3.830858779296875C14.587234777545929,3.812568779296875,14.58293477754593,3.772338779296875,14.590234777545929,3.757708779296875C14.599434777545929,3.739428779296875,14.636034777545929,3.657138779296875,14.626834777545929,3.602288779296875C14.626834777545929,3.602288779296875,14.407434777545928,3.666288779296875,14.407434777545928,3.666288779296875C14.407434777545928,3.666288779296875,10.658844777545928,1.801141779296875,10.658844777545928,1.801141779296875C10.658844777545928,1.801141779296875,8.757134777545929,1.892569779296875,8.757134777545929,1.892569779296875C8.757134777545929,1.892569779296875,6.654274777545929,1.279998779296875,6.654274777545929,1.279998779296875C6.654274777545929,1.279998779296875,4.825704777545929,1.426284779296875,4.825704777545929,1.426284779296875C4.216184777545929,1.584760779296875,2.931304777545929,1.943770779296875,2.667994777545929,2.111998779296875C2.338844777545929,2.322288779296875,1.3971347775459289,3.913138779296875,1.3697067775459288,3.967998779296875C1.347763777545929,4.011888779296875,1.378848777545929,5.814858779296875,1.3971347775459289,6.710858779296875C1.3971347775459289,6.710858779296875,1.013134777545929,8.393138779296875,1.013134777545929,8.393138779296875C1.013134777545929,8.393138779296875,1.3971347775459289,9.526858779296875,1.3971347775459289,9.526858779296875C1.3971347775459289,9.526858779296875,2.494274777545929,9.846858779296875,2.494274777545929,9.846858779296875C2.494274777545929,9.846858779296875,3.4725647775459287,9.353138779296875,3.4725647775459287,9.353138779296875C3.4725647775459287,9.255618779296874,3.441474777545929,9.007538779296876,3.317134777545929,8.795428779296875C3.317134777545929,8.795428779296875,2.9514247775459292,8.557708779296874,2.9514247775459292,8.557708779296874C2.9514247775459292,8.557708779296874,3.015424777545929,8.329138779296876,3.015424777545929,8.329138779296876C3.164754777545929,8.289518779296875,3.485364777545929,8.186508779296876,3.573134777545929,8.091428779296875C3.660904777545929,7.996338779296875,4.0912247775459285,7.308188779296875,4.295424777545929,6.975998779296875C4.295424777545929,6.975998779296875,4.734274777545929,7.149708779296875,4.734274777545929,7.149708779296875C4.734274777545929,7.149708779296875,4.597134777545929,8.191998779296874,4.597134777545929,8.191998779296874C4.597134777545929,8.191998779296874,5.511424777545929,9.087998779296875,5.511424777545929,9.087998779296875C5.511424777545929,9.087998779296875,7.221134777545929,9.087998779296875,7.221134777545929,9.087998779296875C7.221134777545929,9.087998779296875,7.486274777545929,8.914288779296875,7.486274777545929,8.914288779296875C7.431414777545929,8.755808779296874,7.257704777545929,8.422398779296875,7.001704777545929,8.356568779296875C6.811534777545929,8.298058779296875,6.666464777545929,8.332188779296875,6.617704777545929,8.356568779296875C6.617704777545929,8.356568779296875,6.471424777545929,8.137138779296876,6.471424777545929,8.137138779296876C6.550654777545929,8.070098779296874,6.716444777545929,7.879308779296875,6.745704777545929,7.652568779296875C6.774964777545929,7.425828779296875,6.757894777545929,7.222858779296875,6.745704777545929,7.149708779296875C6.968184777545929,7.107048779296875,7.427764777545929,7.034508779296875,7.486274777545929,7.085708779296875C7.589894777545929,7.472758779296875,7.789824777545929,8.277938779296875,7.7605647775459285,8.402288779296875C7.992184777545929,8.560758779296876,8.48467477754593,9.005708779296874,8.60170477754593,9.517708779296875C8.60170477754593,9.517708779296875,10.37541477754593,9.627428779296874,10.37541477754593,9.627428779296874C10.37541477754593,9.627428779296874,10.51256477754593,9.517708779296875,10.51256477754593,9.517708779296875C10.51256477754593,9.517708779296875,10.64970477754593,9.517708779296875,10.64970477754593,9.517708779296875C10.64970477754593,9.517708779296875,10.70456477754593,9.435428779296876,10.70456477754593,9.435428779296876C10.70456477754593,9.435428779296876,10.786844777545928,9.435428779296876,10.786844777545928,9.435428779296876C10.786844777545928,9.435428779296876,10.89656477754593,9.389708779296875,10.89656477754593,9.389708779296875C10.844754777545928,9.237328779296874,10.722844777545928,8.912458779296875,10.64970477754593,8.831998779296875C10.561324777545929,8.767998779296875,10.373594777545929,8.638168779296876,10.32970477754593,8.630858779296876C10.27484477754593,8.621708779296874,10.037134777545928,8.694858779296876,9.991414777545929,8.685708779296874C9.945704777545929,8.676568779296876,9.726274777545928,8.603428779296875,9.69884477754593,8.557708779296874C9.676904777545928,8.521138779296875,9.616564777545928,7.774478779296875,9.58913477754593,7.405708779296875C9.65313477754593,7.320378779296875,9.795764777545928,7.149708779296875,9.854274777545928,7.149708779296875C9.927414777545929,7.149708779296875,10.32970477754593,7.698288779296875,10.558274777545929,7.826288779296875C10.786844777545928,7.954288779296875,10.905704777545928,7.935998779296875,10.969704777545928,7.990858779296875C11.033734777545929,8.045708779296875,11.32623477754593,8.365708779296874,11.42683477754593,8.914288779296875C11.42683477754593,8.972798779296875,11.50613477754593,8.981328779296874,11.54573477754593,8.978288779296875C11.54573477754593,8.978288779296875,13.31023477754593,8.950858779296876,13.31023477754593,8.950858779296876C13.38343477754593,8.935618779296874,13.531534777545929,8.866738779296874,13.53883477754593,8.713138779296875C13.54803477754593,8.521138779296875,13.46573477754593,8.246858779296875,12.834834777545929,8.036568779296875C12.569734777545928,7.753138779296875,11.99003477754593,7.054628779296875,11.79253477754593,6.527998779296875C11.77733477754593,6.275048779296875,11.660934777545929,5.701488779296875,11.31713477754593,5.430858779296875C11.66153477754593,5.430858779296875,12.582534777545929,5.487538779296875,13.51143477754593,5.714288779296875C13.60893477754593,5.732568779296875,13.86433477754593,5.836798779296875,14.105734777545928,6.107428779296875C14.105734777545928,6.107428779296875,14.782234777545929,6.299428779296875,14.782234777545929,6.299428779296875C14.986434777545929,6.262858779296875,15.43143477754593,6.197028779296875,15.57773477754593,6.226288779296875C15.64783477754593,6.180568779296875,15.808134777545929,6.056228779296875,15.88853477754593,5.924568779296875Z" fill="#1F4F6A" fill-opacity="1"/></g><g style="mix-blend-mode:passthrough"><path d="M9.689678166217805,10.752006752929688C9.689678166217805,10.752006752929688,14.005108166217804,9.682296752929688,14.005108166217804,9.682296752929688C14.005108166217804,9.682296752929688,12.789108166217805,11.529156752929687,12.789108166217805,11.529156752929687C12.789108166217805,11.529156752929687,8.171965266217804,15.213726752929688,8.171965266217804,15.213726752929688C8.171965266217804,15.213726752929688,8.117108166217804,15.168006752929688,8.117108166217804,15.168006752929688C8.117108166217804,15.168006752929688,9.689678166217805,10.752006752929688,9.689678166217805,10.752006752929688Z" fill="#B2D7E9" fill-opacity="1"/></g><g style="mix-blend-mode:passthrough"><path d="M8.69309125410843,13.677714287109374C8.69309125410843,13.677714287109374,12.789088254108428,11.529144287109375,12.789088254108428,11.529144287109375C12.789088254108428,11.529144287109375,8.171948254108429,15.213714287109376,8.171948254108429,15.213714287109376C8.171948254108429,15.213714287109376,8.69309125410843,13.677714287109374,8.69309125410843,13.677714287109374Z" fill="#8DC8E5" fill-opacity="1"/></g><g style="mix-blend-mode:passthrough"><path d="M15.650871349811554,5.787440063476563C15.650871349811554,5.787440063476563,14.992571349811554,4.8731500634765625,14.992571349811554,4.8731500634765625C14.992571349811554,4.8731500634765625,14.992571349811554,4.699440063476562,14.992571349811554,4.699440063476562C14.861571349811554,4.473920063476562,14.590271349811553,4.015550063476562,14.553771349811553,3.9863000634765626C14.507971349811553,3.9497300634765624,12.313771349811553,2.779440063476563,10.613151349811554,1.9931540634765625C10.613151349811554,1.9931540634765625,8.684011349811554,2.0662970634765623,8.684011349811554,2.0662970634765623C8.684011349811554,2.0662970634765623,6.626871349811554,1.4354400634765625,6.626871349811554,1.4354400634765625C6.626871349811554,1.4354400634765625,4.816581349811554,1.5725830634765625,4.816581349811554,1.5725830634765625C4.155251349811554,1.7615350634765625,2.812471349811554,2.1558970634765626,2.732011349811554,2.2217260634765625C2.651561349811554,2.2875540634765628,1.8817283498115538,3.4499200634765623,1.506871349811554,4.022870063476562C1.519061349811554,4.931060063476563,1.541614349811554,6.756580063476562,1.534300349811554,6.7931500634765625C1.526985349811554,6.829730063476562,1.299633349811554,7.8872500634765625,1.186871349811554,8.411440063476562C1.186871349811554,8.411440063476562,1.516014349811554,9.389730063476563,1.516014349811554,9.389730063476563Q1.516014349811554,9.389730063476563,2.4760113498115537,9.673150063476562L2.494031349811554,9.673720063476562L2.490611349811554,9.667720063476562L2.545481349811554,9.631150063476563L2.550491349811554,9.629090063476562L2.558301349811554,9.627440063476563L2.8508713498115537,9.481150063476562L2.867471349811554,9.478810063476562L2.867471349811554,9.451200063476563L2.913771349811554,9.439150063476562L2.9028113498115538,9.451200063476563L2.9148713498115537,9.435440063476562L3.152581349811554,9.316580063476563L3.136551349811554,9.316800063476563L3.180161349811554,9.302000063476562L3.200541349811554,9.298520063476563L3.207441349811554,9.289150063476562Q3.362871349811554,9.216010063476563,3.362871349811554,9.216010063476563C3.3476313498115537,9.139820063476563,3.300701349811554,8.967330063476563,3.234871349811554,8.886870063476563C3.152581349811554,8.786300063476563,3.079441349811554,8.722300063476563,2.9148713498115537,8.667440063476562C2.783211349811554,8.623550063476562,2.4150613498115536,8.746680063476562,2.247441349811554,8.813730063476562C2.247441349811554,8.813730063476562,2.247441349811554,8.731440063476562,2.247441349811554,8.731440063476562C2.293161349811554,8.704010063476563,2.397381349811554,8.645500063476563,2.448581349811554,8.630870063476562C2.512581349811554,8.612580063476562,2.732011349811554,8.548580063476562,2.768581349811554,8.512010063476563C2.797841349811554,8.482760063476562,2.817351349811554,8.420580063476564,2.823441349811554,8.393150063476561C2.823441349811554,8.393150063476561,2.4851613498115537,8.521150063476561,2.4851613498115537,8.521150063476561C2.229161349811554,8.451060063476563,1.722642349811554,8.290750063476562,1.744585349811554,8.210300063476563C1.766528349811554,8.129840063476562,2.284011349811554,8.298680063476564,2.5400113498115537,8.393150063476561C2.817351349811554,8.292580063476564,3.375671349811554,8.085950063476563,3.390301349811554,8.064010063476562C3.404931349811554,8.042070063476562,3.926681349811554,7.262490063476562,4.1857313498115545,6.875440063476563C4.109541349811554,6.829730063476562,3.953501349811554,6.721840063476563,3.9388713498115537,6.656010063476563C4.228391349811554,6.7992500634765625,4.873271349811554,7.0857300634765625,5.136581349811554,7.0857300634765625C5.465731349811554,7.0857300634765625,5.612011349811554,7.131440063476562,7.440581349811554,6.820580063476562C7.343061349811554,6.381730063476563,7.160811349811554,5.4637800634765625,7.212011349811554,5.302870063476563C7.248581349811554,5.202300063476562,7.879441349811554,8.219440063476561,7.9343013498115535,8.329150063476561C7.980011349811554,8.384010063476563,8.391441349811554,8.621730063476562,8.720581349811553,9.380580063476563Q8.720581349811553,9.380580063476563,10.201731349811554,9.490300063476562Q10.252971349811554,9.491680063476563,10.281441349811553,9.491680063476563L10.331461349811555,9.460430063476563Q10.342511349811554,9.450300063476563,10.366301349811554,9.435440063476562Q10.402871349811553,9.490300063476562,10.476011349811554,9.380580063476563L10.542551349811554,9.367420063476562L10.588211349811553,9.307430063476563Q10.604011349811554,9.307440063476562,10.631441349811555,9.325730063476563C10.658871349811553,9.344010063476563,10.722871349811554,9.334870063476561,10.732011349811554,9.307440063476562C10.741161349811554,9.280010063476563,10.640581349811553,8.859440063476562,10.293161349811554,8.768010063476563C10.119441349811554,8.704010063476563,9.918301349811554,8.795440063476562,9.836011349811553,8.795440063476562C9.753731349811554,8.795440063476562,9.772011349811555,8.740580063476562,9.653151349811553,8.704010063476563C9.552581349811554,8.707060063476563,9.305731349811554,8.696700063476563,9.122871349811554,8.630870063476562C8.985731349811555,8.585150063476561,9.406301349811553,8.576010063476563,9.442871349811554,8.557730063476562C9.472131349811553,8.543100063476562,9.497731349811554,8.527250063476561,9.506871349811554,8.521150063476561C9.506871349811554,8.521150063476561,9.397161349811554,7.533730063476563,9.397161349811554,7.533730063476563C9.339251349811555,7.561150063476562,9.217961349811555,7.616010063476563,9.196011349811554,7.616010063476563C9.168581349811554,7.616010063476563,9.552581349811554,7.414870063476562,10.000581349811554,6.345150063476562C10.137731349811554,5.9885800634765625,10.265731349811555,5.677730063476562,10.293161349811554,5.376010063476563C10.299251349811554,5.360770063476563,10.278531349811553,5.332130063476562,10.146871349811555,5.339440063476562C10.082871349811555,5.339440063476562,10.146871349811555,5.275440063476562,10.238301349811554,5.266300063476562C10.329731349811555,5.257150063476562,11.189171349811554,5.138300063476562,13.502271349811554,5.6228700634765625C13.517571349811554,5.613730063476562,13.547971349811554,5.604580063476562,13.566271349811554,5.604580063476562C13.584571349811554,5.604580063476562,13.611971349811554,5.577150063476562,14.160571349811553,6.043440063476562C14.312971349811553,6.076960063476562,14.637871349811554,6.156810063476563,14.718271349811554,6.2080100634765625C14.740271349811554,6.222640063476563,15.275971349811554,6.159250063476563,15.541171349811554,6.125730063476563C15.531971349811554,6.037350063476563,15.541171349811554,5.845950063476563,15.650871349811554,5.787440063476563Z" fill="#F8F9F9" fill-opacity="1"/></g><g style="mix-blend-mode:passthrough"><path d="M5.447308361530304,13.229721069335938C5.447308361530304,13.229721069335938,8.650228361530305,13.667929069335937,8.650228361530305,13.667929069335937C8.650228361530305,13.667929069335937,8.135308361530305,15.186291069335937,8.135308361530305,15.186291069335937C8.135308361530305,15.186291069335937,5.447308361530304,13.229721069335938,5.447308361530304,13.229721069335938Z" fill="#5D9CD1" fill-opacity="1"/></g><g style="mix-blend-mode:passthrough"><path d="M10.494305435749054,5.394287109375C10.631448435749054,5.394287109375,10.796020435749053,5.394287109375,11.061164435749054,5.449144209375C11.222684435749054,5.568001109375,11.564024435749054,5.952001109375,11.637164435749053,6.537147109375C11.655444435749054,6.655997109375,12.606304435749054,8.009147109375,12.624594435749053,8.137147109375C12.624594435749053,8.182857109375,13.063444435749053,8.292577109375,13.191444435749053,8.402287109375C13.293844435749055,8.490057109375,13.410874435749054,8.676577109375,13.456594435749054,8.758857109375C13.456594435749054,8.758857109375,13.319444435749054,8.777147109375,13.319444435749054,8.777147109375C13.261544435749054,8.682667109375,13.101844435749054,8.484577109375,12.926304435749053,8.447997109375C12.750764435749055,8.411427109375,12.737354435749054,8.475427109375,12.752594435749053,8.511997109375C12.834874435749054,8.524187109375,13.028704435749054,8.594287109375,13.145734435749054,8.777147109375C13.145734435749054,8.777147109375,11.609734435749054,8.822857109375,11.609734435749054,8.822857109375C11.530494435749054,8.609527109375,11.381094435749054,7.999977109375,11.052024435749054,7.890287109375C10.750306435749055,7.789717109375,10.402877435749055,7.6708571093749995,9.936591585749055,6.939427109375C9.909163035749055,6.875427109375,10.320591435749053,6.107430109375,10.494305435749054,5.394287109375Z" fill="#F8F9F9" fill-opacity="1"/></g><g style="mix-blend-mode:passthrough"><path d="M4.889694480670929,7.204573552929688C4.953694480670929,7.238097352929688,5.118266480670929,7.306973252929687,5.264551480670929,7.314288252929687C5.410837480670929,7.321602252929687,6.2519804806709285,7.213716352929688,6.654270480670929,7.1588592529296875C6.651220480670929,7.329526252929687,6.6195204806709285,7.709259252929687,6.517120480670929,7.862859252929687C6.389120480670929,8.054859252929688,6.032550480670929,8.329149252929687,5.931980480670929,8.347429252929688C6.011220480670929,8.344379252929688,6.204440480670929,8.316349252929687,6.343410480670929,8.228569252929688C6.365350480670929,8.213949252929687,6.389120480670929,8.252959252929688,6.398270480670929,8.274289252929687C6.434840480670929,8.362669252929688,6.517120480670929,8.537599252929688,6.553690480670928,8.530289252929688C6.5994104806709295,8.521149252929687,6.891980480670929,8.356569252929688,7.09312048067093,8.530289252929688C7.254040480670929,8.669259252929688,7.349120480670929,8.850289252929688,7.376550480670929,8.923429252929687Q7.358270480670929,8.938669252929687,7.266840480670929,8.969149252929688L7.152360480670929,8.980869252929688L7.038430480670929,8.976869252929687Q6.1666504806709295,8.969149252929688,5.7034094806709295,8.969149252929688C5.7034094806709295,8.969149252929688,4.779980480670929,8.128002252929688,4.779980480670929,8.128002252929688C4.783028100670929,7.939049252929688,4.809237580670929,7.489830252929687,4.889694480670929,7.204573552929688Z" fill="#FEFFFF" fill-opacity="1"/></g><g style="mix-blend-mode:passthrough"><path d="M14.553628607624054,4.5714263916015625C14.553628607624054,4.5714263916015625,14.864485607624054,4.854855391601562,14.864485607624054,4.854855391601562C14.760866607624054,4.827426391601563,14.526199607624054,4.774397391601562,14.416485607624054,4.7817123916015625C14.416485607624054,4.7817123916015625,14.553628607624054,4.5714263916015625,14.553628607624054,4.5714263916015625Z" fill="#1F4B63" fill-opacity="1"/></g><g style="mix-blend-mode:passthrough"><path d="M13.721704490436554,3.7942962646484375C13.721704490436554,3.7942962646484375,13.767419490436554,4.086867264648437,13.767419490436554,4.086867264648437C13.694276490436554,4.153915264648438,13.544333390436554,4.324582264648438,13.529704790436554,4.4708672646484375C13.529704790436554,4.514753264648437,13.499228590436553,4.160010264648437,13.483990490436554,3.9771532646484373C13.483990490436554,3.9771532646484373,13.721704490436554,3.7942962646484375,13.721704490436554,3.7942962646484375Z" fill="#234657" fill-opacity="1"/></g></g></g></g></svg>