<svg xmlns="http://www.w3.org/2000/svg" xmlns:xlink="http://www.w3.org/1999/xlink" fill="none" version="1.1" width="16" height="16" viewBox="0 0 16 16"><defs><clipPath id="master_svg0_5_902"><rect x="0" y="0" width="16" height="16" rx="0"/></clipPath></defs><g style="mix-blend-mode:passthrough" clip-path="url(#master_svg0_5_902)"><g style="mix-blend-mode:passthrough"><g style="mix-blend-mode:passthrough"><path d="M9.086217395801544,2.9456850275421145C8.964607395801544,2.5982450275421143,4.440487395801544,0.9305140275421142,4.367517395801544,1.1158173275421142C3.5405273958015444,1.3242830275421142,3.2000073958015443,2.227635027542114,2.616247395801544,2.8067050275421144C2.616247395801544,2.8067050275421144,1.3514343958015442,2.7372150275421143,1.3514343958015442,2.7372150275421143C0.7920003958015442,3.4321050275421143,0.5001183958015442,4.126985027542114,0.6947041958015442,4.845035027542114C1.4000783958015441,5.771555027542115,2.2513873958015442,6.559085027542114,2.7621773958015443,7.717235027542114C2.810827395801544,8.273145027542114,5.2431573958015445,7.763555027542115,5.778267395801544,7.670905027542115C5.072897395801544,8.157325027542115,4.440477395801544,8.921705027542114,4.7080373958015445,11.099005027542114C4.951267395801544,12.118195027542114,5.121537395801544,13.253195027542114,7.286307395801544,14.411295027542113C7.578177395801545,14.573395027542114,8.161937395801544,14.735595027542114,8.526787395801545,14.874595027542114Q8.867317395801544,15.036695027542114,10.044997395801545,14.632195027542114L10.981047395801545,14.309595027542114L10.194717395801543,14.276795027542114Q9.791597395801544,14.179695027542115,9.548367395801543,13.901695027542115C9.548367395801543,13.901695027542115,8.551117395801544,12.257195027542114,8.551117395801544,12.257195027542114C8.551117395801544,12.257195027542114,9.134867395801544,11.191695027542114,9.134867395801544,11.191695027542114C9.937537395801543,11.261195027542115,10.205087395801543,11.886595027542114,10.910447395801544,12.118195027542114C10.910447395801544,12.118195027542114,11.737447395801544,11.539095027542114,11.737447395801544,11.539095027542114C14.169747395801544,12.905695027542114,15.118347395801544,10.682075027542114,15.410247395801544,8.944865027542114C15.385947395801544,8.249975027542114,13.804947395801545,9.176495027542114,13.902247395801544,8.829055027542115C13.950847395801544,8.064675027542116,13.294147395801545,7.091835027542114,12.880647395801544,6.304295027542114C12.880647395801544,6.304295027542114,13.367147395801544,4.520755027542114,13.367147395801544,4.520755027542114C13.182647395801544,4.208915027542114,11.942247395801544,2.2169150275421146,11.348247395801545,2.088658027542114C10.020677395801544,1.7536560275421142,8.682907395801545,2.819145027542114,9.086217395801544,2.9456850275421145Z" fill="#FDEE21" fill-opacity="1"/></g><g style="mix-blend-mode:passthrough"><path d="M9.669978931121825,14.758716020507812C9.207838931121827,15.245136020507813,8.186258931121827,14.712396020507812,7.310628931121826,14.457606020507813C5.145858931121826,13.137316020507813,4.7080432311218265,11.909686020507813,4.683720031121826,10.682056020507812C4.562103931121826,8.944836020507813,5.121534931121826,7.925675020507812,5.851228931121826,7.6940460205078125C5.389090931121826,8.551072020507812,5.170182931121826,10.102986020507812,5.389091931121826,11.261126020507813C5.559354931121826,11.909686020507813,5.5593539311218265,12.975176020507813,6.702548931121826,13.554246020507811C7.261978931121826,13.855366020507812,7.116038931121826,14.086996020507812,7.480888931121826,14.364946020507812C7.894388931121826,14.666066020507813,9.013258931121825,14.944026020507813,9.669978931121825,14.758716020507812Z" fill="#FCF7A0" fill-opacity="1"/></g><g style="mix-blend-mode:passthrough"><path d="M10.375404541015625,6.698083013458252C9.597054541015625,5.632593013458252,8.502504541015625,5.238823013458251,7.2620245410156254,5.192503013458252C7.505254541015625,5.123013013458252,7.748484541015625,5.076683013458252,8.016044541015624,4.960873013458252C8.089014541015626,4.891383013458252,8.064694541015625,4.798733013458252,8.040364541015625,4.682916013458252C6.848524541015625,4.381799013458252,6.094510541015625,4.011193013458252,5.145904541015625,3.686913013458252C5.145904541015625,3.686913013458252,7.724164541015625,4.265985013458252,7.724164541015625,4.265985013458252C9.426794541015624,4.358636013458252,9.280854541015625,4.7524030134582524,10.375404541015625,6.698083013458252Z" fill="#FCF7A0" fill-opacity="1"/></g><g style="mix-blend-mode:passthrough"><path d="M11.20233553565979,6.211663754982948C10.61858553565979,5.424123754982948,10.059145535659791,4.474443754982948,9.30512553565979,3.8722137549829485C7.48088553565979,3.0846737549829486,5.65663553565979,2.5056037549829484,3.51619553565979,1.9728567549829483C3.51619553565979,1.9728567549829483,4.19725053565979,1.1389937549829483,4.19725053565979,1.1389937549829483C6.45931553565979,1.6254137549829484,8.57542553565979,2.459273754982948,10.47264553565979,3.8027237549829485C10.81316553565979,4.567093754982949,11.03207553565979,5.331473754982948,11.20233553565979,6.211663754982948Z" fill="#FCF7A0" fill-opacity="1"/></g><g style="mix-blend-mode:passthrough"><path d="M12.369878825988769,4.821863555221558C12.369878825988769,4.821863555221558,12.053678825988769,4.126973555221557,11.88341882598877,3.8721835552215573C11.518568825988769,3.4784135552215574,11.32398582598877,2.7603635552215575,10.59428882598877,2.4360835552215576C10.83752082598877,2.5055721552215577,10.983461825988769,2.4129209552215576,11.46992682598877,2.8530155552215577C11.46992682598877,2.8530155552215577,12.223948825988769,4.219623555221558,12.223948825988769,4.219623555221558C12.223948825988769,4.219623555221558,12.369878825988769,4.821863555221558,12.369878825988769,4.821863555221558Z" fill="#FCF7A0" fill-opacity="1"/></g><g style="mix-blend-mode:passthrough"><path d="M12.783385802307128,6.003176425476074C12.856355802307128,5.400946425476074,13.002305802307129,4.451266425476074,12.832035802307129,4.057496425476074C12.369895802307129,3.478426425476074,11.932077802307129,2.876193425476074,11.469935802307129,2.320285425476074C11.396966802307128,2.250796425476074,11.348315502307129,2.1581450254760743,11.275345802307129,2.088656425476074C11.907749802307128,2.250796425476074,12.588805802307128,2.6677284254760742,13.488765802307128,4.335456425476075C13.488765802307128,4.335456425476075,12.783385802307128,6.003176425476074,12.783385802307128,6.003176425476074Z" fill="#FCF7A0" fill-opacity="1"/></g><g style="mix-blend-mode:passthrough"><path d="M10.083472700500488,6.072674960021972C9.815922700500488,5.8873749600219725,9.597012700500489,5.215646960021973,9.207842700500489,5.053506960021973C8.842992700500488,5.030343960021972,8.721372700500488,4.914528960021973,8.234912700500487,5.007180960021973C8.405172700500488,4.914528960021973,8.575432700500489,4.821877960021973,8.745702700500487,4.775551960021972C8.867312700500488,4.752388960021973,8.988932700500488,4.775552960021972,9.110542700500488,4.798715960021973C9.134872700500487,4.775552960021972,9.159192700500489,4.775552960021972,9.159192700500489,4.752389960021973C8.672732700500488,4.474434960021973,7.699799700500488,4.474434960021973,7.043072700500488,4.312294960021973C7.797092700500488,4.335457860021973,8.648402700500489,4.289132260021972,9.232162700500488,4.474434960021973C9.694302700500488,4.868203960021972,9.840242700500488,5.586254960021972,10.083472700500488,6.072674960021972Z" fill="#000000" fill-opacity="1"/></g><g style="mix-blend-mode:passthrough"><path d="M11.46995735168457,2.82983660697937C11.56725025168457,2.82983660697937,12.15100635168457,3.68686260697937,12.17532935168457,3.84900660697937C12.22397635168457,4.1501166069793705,12.34558935168457,4.52072660697937,12.36991235168457,4.84500660697937C12.27261935168457,4.52072660697937,12.17532935168457,4.2196066069793705,12.05371335168457,3.89532660697937C12.00506735168457,3.8026766069793703,11.93209535168457,3.61737360697937,11.66454035168457,3.3394196069793702C11.54292405168457,3.13095360697937,11.51860385168457,2.9688136069793702,11.46995735168457,2.82983660697937Z" fill="#000000" fill-opacity="1"/></g><g style="mix-blend-mode:passthrough"><path d="M13.415779340393067,7.485612392425537C13.415779340393067,7.485612392425537,13.172547340393066,7.485612392425537,13.172547340393066,7.485612392425537C13.172547340393066,7.485612392425537,13.440104340393066,7.578264192425537,13.440104340393066,7.578264192425537C13.440104340393066,7.578264192425537,13.415779340393067,7.485612392425537,13.415779340393067,7.485612392425537Z" fill="#000000" fill-opacity="1"/></g><g style="mix-blend-mode:passthrough"><path d="M11.73745440625,7.253979162878418C11.49422240625,7.230816332878418,11.25098940625,7.230816862878418,11.00775740625,7.277142562878418C10.91046430625,7.416119762878418,10.91046290625,7.531933762878418,10.86181640625,7.647747762878418C11.15369540625,7.3466307628784175,11.27531240625,7.323467762878418,11.73745440625,7.253979162878418Z" fill="#000000" fill-opacity="1"/></g><g style="mix-blend-mode:passthrough"><path d="M13.85361688873291,8.921696186065674C13.75632688873291,9.176487186065675,13.65903688873291,9.431279186065673,13.53741688873291,9.686070186065674C13.29418388873291,9.964026186065674,13.39147688873291,9.801885186065673,13.00230288873291,10.241976186065674C13.12391888873291,10.056676186065674,13.29418088873291,9.894536186065674,13.36715088873291,9.709233186065674C13.41579688873291,9.593418186065675,13.48876688873291,9.454442186065673,13.53741688873291,9.338627186065674C13.44012688873291,9.292302186065674,13.22121588873291,9.292302186065674,13.19689288873291,9.315465186065675C12.85636788873291,9.500768186065674,12.80772088873291,9.709234186065673,12.588811888732911,9.894536186065674C12.73475088873291,9.686071186065673,12.85636488873291,9.431278186065674,13.02662688873291,9.245976186065674C13.05094988873291,9.222813186065673,13.17256488873291,9.222813186065673,13.24553488873291,9.199650186065673C13.12391888873291,9.176488186065674,12.90500988873291,9.130161186065674,12.880685888732911,9.130161186065674C12.661776888732911,9.176487186065675,12.54015988873291,9.361790186065674,12.36989688873291,9.477604186065674C12.49151288873291,9.315464186065674,12.58880788873291,9.153324186065674,12.75906988873291,8.991184586065675C12.78339288873291,8.968021686065674,13.17256688873291,9.014347786065674,13.39147688873291,9.083836186065675C13.39147688873291,9.083836186065675,13.39147688873291,9.153325186065674,13.39147688873291,9.153325186065674C13.39147688873291,9.153325186065674,13.51308688873291,9.199650186065673,13.51308688873291,9.199650186065673C13.51308688873291,9.199650186065673,13.61038688873291,8.991184586065675,13.61038688873291,8.991184586065675C13.61038688873291,8.991184586065675,13.85361688873291,8.921696186065674,13.85361688873291,8.921696186065674Z" fill="#000000" fill-opacity="1"/></g><g style="mix-blend-mode:passthrough"><path d="M10.81317138671875,8.412144082550048C10.81317138671875,8.412144082550048,11.15369538671875,8.365819082550049,11.15369538671875,8.38898108255005C11.12937238671875,8.50479608255005,11.20234438671875,8.782750082550049,11.20234438671875,8.736424082550048C11.20234438671875,8.736424082550048,11.00776138671875,8.898565082550048,11.00776138671875,8.898565082550048C11.421256386718749,8.713262082550049,11.83475138671875,8.736424082550048,12.272561386718749,8.71326108255005C12.272561386718749,8.71326108255005,11.90772138671875,8.62061008255005,11.93204138671875,8.62061008255005C12.00501138671875,8.62061008255005,11.90771138671875,8.25000408255005,11.883391386718749,8.25000408255005C11.95636138671875,8.22684098255005,12.02934138671875,8.20367878255005,12.10231138671875,8.20367878255005C11.59151938671875,8.064701582550049,11.27531238671875,8.13418969597805,10.81317138671875,8.412144082550048Z" fill="#000000" fill-opacity="1"/></g><g style="mix-blend-mode:passthrough"><path d="M13.829204544128418,8.66688670715332C13.829204544128418,8.66688670715332,13.756237544128417,8.713212707153321,13.756237544128417,8.713212707153321C13.756237544128417,8.504747107153321,13.513007544128419,8.50474760715332,13.294098544128419,8.50474760715332C13.294098544128419,8.50474760715332,13.123832544128417,8.45842170715332,13.123832544128417,8.45842170715332C13.172479044128417,8.504747407153321,13.342743544128417,8.504747107153321,13.269773544128418,8.59739870715332C13.221126544128419,8.620561707153321,13.196805544128418,8.73637570715332,13.172481944128418,8.82902670715332C13.172481944128418,8.82902670715332,13.075190544128418,8.82902670715332,13.075190544128418,8.82902670715332C13.245453544128418,8.89851570715332,13.391392544128419,8.944841707153321,13.561655544128419,9.01432970715332C13.561655544128419,9.01432970715332,13.658946544128417,9.03749370715332,13.658946544128417,9.03749370715332C13.658946544128417,9.03749370715332,13.902178544128418,8.89851570715332,13.902178544128418,8.89851570715332C13.902178544128418,8.89851570715332,13.829204544128418,8.66688670715332,13.829204544128418,8.66688670715332Z" fill="#000000" fill-opacity="1"/></g><g style="mix-blend-mode:passthrough"><path d="M11.51849276501465,8.504765801617431C11.469845765014648,8.435277301617432,11.275265865014648,8.43527670161743,11.250942675014649,8.48160250161743C11.226619465014648,8.527928201617431,11.250938225014648,8.759557501617431,11.299584665014649,8.736394501617431C11.372554765014648,8.690068501617432,11.445523765014649,8.666906501617431,11.54281676501465,8.666906501617431C11.54281676501465,8.620580501617432,11.542815765014648,8.574254501617432,11.51849276501465,8.504765801617431Z" fill="#FFFFFF" fill-opacity="1"/></g><g style="mix-blend-mode:passthrough"><path d="M13.415779340393067,8.875360738983154C13.440103340393067,8.852197738983154,13.464421340393066,8.736383738983154,13.464421340393066,8.690057838983154C13.440098340393066,8.597406438983155,13.245514040393067,8.620569438983154,13.245514040393067,8.620569438983154C13.196867640393066,8.643732338983154,13.172547340393066,8.782708738983155,13.172547340393066,8.829034738983154C13.196870540393066,8.875360738983154,13.391456340393066,8.898523738983155,13.415779340393067,8.875360738983154Z" fill="#FFFFFF" fill-opacity="1"/></g><g style="mix-blend-mode:passthrough"><path d="M5.607975482940674,13.160523414611816C5.607975482940674,13.160523414611816,5.729591482940674,13.160523414611816,5.729591482940674,13.160523414611816C6.410642482940673,13.484803414611816,7.529515482940674,13.948061414611816,9.159165482940674,13.693269414611816C9.159165482940674,13.693269414611816,9.426725482940673,14.087037414611816,9.426725482940673,14.087037414611816C8.697025482940674,14.411313414611817,7.9430054829406735,14.341833414611816,7.213305482940674,14.364993414611817C7.213305482940674,14.364993414611817,5.607975482940674,13.160523414611816,5.607975482940674,13.160523414611816Z" fill="#000000" fill-opacity="1"/></g><g style="mix-blend-mode:passthrough"><path d="M4.610713005065918,10.635799407958984C4.610713005065918,10.635799407958984,4.951237005065918,12.002409407958984,4.951237005065918,12.002409407958984C5.875523005065918,12.558319407958985,7.432203005065918,13.183709407958984,8.745663005065918,13.114229407958984C8.745663005065918,13.114229407958984,8.453793005065918,12.488829407958985,8.453793005065918,12.488829407958985C5.729583005065918,11.956079407958985,5.510673005065918,11.261196407958984,4.610713005065918,10.635799407958984Z" fill="#000000" fill-opacity="1"/></g><g style="mix-blend-mode:passthrough"><path d="M5.462092278167725,7.8330397605896C5.632354278167725,8.8985297605896,5.851260278167724,9.6860697605896,6.824190278167725,10.3809497605896C7.407950278167725,10.7978897605896,8.016030278167724,11.1916597605896,8.721400278167724,11.5159397605896C8.721400278167724,11.5159397605896,8.648430278167725,11.8170497605896,8.599790278167724,11.8170497605896C6.4593402781677245,11.5854197605896,4.902656278167725,9.9176997605896,4.708070278167725,9.1301597605896C4.926979278167725,8.5510887605896,5.170213278167725,8.2036457605896,5.462092278167725,7.8330397605896Z" fill="#000000" fill-opacity="1"/></g><g style="mix-blend-mode:passthrough"><path d="M6.507915019989014,7.230804335113525C6.7997940199890134,8.412113335113526,7.480840019989014,9.593413335113524,8.137565019989013,10.682073335113525C8.380795019989014,10.983183335113527,8.453775019989013,11.122163335113525,8.818625019989014,11.284303335113526C9.329405019989014,11.446443335113525,9.694255019989013,11.400123335113525,10.059105019989014,11.376953335113527C9.961805019989013,11.191653335113525,9.864515019989014,11.006353335113525,9.742905019989013,10.844213335113526C8.915915019989013,10.218813335113525,9.305085019989013,9.639743335113526,9.523995019989014,9.269133335113526C9.061855019989014,9.153323335113525,8.453765019989014,8.921693335113526,8.356475019989013,8.597413335113526C8.210535019989013,7.578246335113525,8.283505019989013,7.277129335113526,8.429445019989014,6.744383335113525C7.821365019989013,6.906523335113525,7.164642019989014,7.022338335113526,6.507915019989014,7.230804335113525Z" fill="#000000" fill-opacity="1"/></g><g style="mix-blend-mode:passthrough"><path d="M11.7375,11.4696C11.3726,11.1917,11.0564,10.91371,10.8618,10.63575C10.7889,10.98319,10.5456,11.2148,10.37536,11.4465C10.32672,11.4928,10.30239,11.5854,10.49698,11.8171C10.5456,11.8865,10.7159,11.8865,10.8375,11.8865C10.7159,11.7939,10.5213,11.7012,10.49698,11.6318C10.7159,11.7707,10.9105,11.8171,11.0807,11.7939C11.1294,11.7939,11.178,11.7476,11.2024,11.6781C11.2753,11.5159,11.3483,11.4696,11.3969,11.4233C11.3969,11.4233,11.5429,11.5854,11.5429,11.5854C11.5429,11.5854,11.7375,11.4696,11.7375,11.4696ZM4.19726,1C3.97836,1.138977,3.78377,1.301117,3.56486,1.532746C3.20001,1.880189,2.9811,2.22763,2.61626,2.4824200000000003C2.54329,2.52875,2.3487,2.6214,2.08114,2.6445600000000002C1.95952,2.6445600000000002,1.88655,2.6677299999999997,1.66764,2.6445600000000002C1.4730569999999998,2.52875,1.278474,2.59824,1.108212,2.8067C0.913626,3.08466,0.646073,3.59424,0.5487805,3.91852C0.329871,4.7523800000000005,0.8893059999999999,5.42411,1.400094,5.95685C1.86224,6.39695,2.12979,6.6749,2.32437,7.06867C2.47031,7.32346,2.56761,7.67091,2.68922,7.9257C2.73787,7.99518,2.71355,7.99518,2.83516,8.01835C3.0784,8.06467,3.41892,8.06467,3.7108,8.08784C3.83242,8.08784,4.027,8.08784,4.19726,8.06467C4.4405,8.01835,4.70805,7.97202,4.92696,7.90253C5.14587,7.85621,5.36478,7.78672,5.53504,7.71723C5.51072,7.78672,5.34046,7.85621,5.26749,7.97202C4.6594,8.80589,4.48914,9.5471,4.58643,10.7284C4.63508,11.238,4.78102,11.6781,4.95128,12.1645C5.04857,12.3961,5.21884,12.7436,5.3891,12.9752C5.92421,13.6701,7.09172,14.5966,8.72138,14.944C9.01326,14.9904,9.32947,14.9672,9.64567,14.8746Q10.44833,14.6429,11.2008,14.2847Q10.6429,14.2028,9.96187,14.1333C9.81593,14.1102,9.76676,14.0785,9.66467,14.0061Q9.56259,13.9337,9.5379,13.8515Q9.69431,13.7859,9.96187,13.7627C9.4754,13.7396,9.49972,13.7396,9.45108,13.6238C9.37811,13.4848,9.30514,13.2763,9.18353,13.091C9.42676,13.1142,9.96187,13.1373,10.13213,12.952C10.13213,12.952,9.81593,12.9752,9.54838,12.952C9.45108,12.952,9.30514,12.8825,9.25649,12.8594C9.13488,12.8131,9.03759,12.7899,9.01326,12.7667C8.96461,12.6509,8.94029,12.6278,8.89165,12.4888C8.81868,12.3035,8.81868,12.095,8.79435,11.9097C8.98894,12.1182,9.20785,12.3035,9.52405,12.3961C9.52405,12.3961,9.91322,12.5583,10.2051,12.4656C10.2051,12.4656,10.25375,12.4425,10.25375,12.4425C10.25375,12.4425,10.05916,12.4656,9.98619,12.4193C9.40243,12.1877,9.30514,11.9792,9.23217,11.8634C9.23217,11.8634,8.98894,11.4928,8.98894,11.4928C9.06191,11.3538,9.11055,11.3306,9.20784,11.3306C9.52405,11.3538,9.64567,11.377,9.84025,11.3538C9.96187,11.6086,10.01052,11.8402,10.27807,12.0255C11.2267,12.3035,11.4456,11.956,11.6645,11.6318C12.3455,12.1182,13.4644,12.2572,14.2671,11.6318C15.2643,10.5431,15.5805,8.829049999999999,15.4832,8.71323C15.3616,8.50477,15.1914,8.296299999999999,15.0697,8.34263C14.5833,8.4816,14.3887,8.71323,13.9022,8.66691C13.9509,8.66691,14.0482,8.66691,14.0482,8.66691C14.0968,8.27314,14.0482,8.08784,14.0239,8.041509999999999C13.8779,7.71723,13.6833,7.39295,13.5374,7.16132C13.5131,7.115,13.3914,6.72123,13.2212,6.55909C13.1482,6.4896,12.9536,6.35062,12.9536,6.35062C12.9536,6.35062,12.9293,6.51276,12.9293,6.51276C12.9293,6.51276,13.0023,6.51276,13.0266,6.62858C13.1239,7.02234,13.659,7.97202,13.6833,8.01835C13.8779,8.296299999999999,13.7076,8.66691,13.8536,8.85221C13.8779,8.87537,14.1455,8.85221,14.3644,8.85221C14.7049,8.782720000000001,14.7049,8.64375,14.9968,8.62058C15.1914,8.59742,15.2157,8.96802,15.2157,8.99119C15.167,9.38496,15.0454,9.84821,14.8508,10.28831C14.4373,11.0295,13.9752,11.7012,13.3428,11.7939C12.5645,11.9329,12.151,11.5854,11.7131,11.377C11.7131,11.377,11.5429,11.5159,11.5429,11.5159C10.9834,12.0487,10.32671,12.0024,10.05916,11.3075C9.91322,11.0295,9.74296,10.86738,9.59702,10.63575C9.59702,10.63575,8.79435,11.1917,8.79435,11.1917C8.72139,11.3306,8.64841,11.5159,8.55112,11.7476C8.47815,11.9097,8.42951,12.1877,8.42951,12.3961C8.45721,12.5739,8.79436,13.23,9.06191,13.6469C9.13488,13.7627,9.30514,13.9712,9.30514,13.9944C9.35379,14.1333,9.4754,14.2492,9.49973,14.2723C10.03484,14.944,8.81868,14.7819,8.57545,14.7356C8.08898,14.6661,7.60251,14.4576,7.14037,14.2028C7.11605,14.1797,7.09173,14.1797,7.0674,14.1565C6.53229,13.8322,6.04583,13.4153,5.60801,13.0215C5.36478,12.7436,5.12154,12.1877,4.95128,11.7939C4.68372,10.84422,4.31888,9.19965,5.34045,7.97202C5.41342,7.90253,5.4864,7.78672,5.53504,7.76356C5.85124,7.57825,6.16744,7.43928,6.53229,7.36979C6.53229,7.36979,6.50797,7.13816,6.50797,7.13816C6.33771,7.18448,5.72962,7.39295,5.55936,7.46244C5.17019,7.57825,4.85399,7.6709,4.36752,7.78672C4.19726,7.80988,4.0513200000000005,7.80988,3.90538,7.78672C3.54053,7.74039,2.95678,7.78672,2.90813,7.74039C2.6649,7.41611,2.59193,6.8602,2.37302,6.55909C2.25141,6.39695,2.10546,6.25797,1.95952,6.11899C1.424414,5.63257,0.986596,5.14615,0.8649800000000001,4.63657C0.8406560000000001,4.497590000000001,0.743366,4.33545,0.7920130000000001,3.89536C0.913629,3.57108,1.1325349999999998,3.2468,1.47306,2.89935C1.83791,2.89935,2.20276,2.92252,2.47031,2.96884C2.59193,2.99201,2.85948,3.01517,3.15136,3.13098C3.85674,3.38578,4.7567,3.77954,4.7567,3.77954C4.0756499999999996,3.40894,3.2973,2.9456800000000003,2.81084,2.85303C2.73787,2.82987,2.68922,2.8067,2.6649,2.76038C3.39459,2.34345,3.54053,1.8570259999999998,4.027,1.440094C4.24591,1.347443,4.3431999999999995,1.301117,4.51346,1.277955C6.24041,1.532746,7.33496,2.2044699999999997,8.2106,2.6445600000000002C8.55112,2.82987,8.86732,2.96884,9.18353,3.13098C9.45108,3.22363,10.25375,3.80271,10.49698,4.10382C10.7402,4.59024,10.9105,5.09983,11.0807,5.60941C11.2024,6.11899,11.2996,6.32746,11.2996,6.32746C11.2996,6.32746,11.2024,5.91053,11.2267,5.81787C11.324,5.8642,11.5672,5.93369,11.6645,5.91053C11.6645,5.91053,11.2267,5.70206,11.178,5.4936C10.9834,4.8682,10.8132,3.91852,10.7645,3.8722C10.6186,3.71006,10.03484,3.26996,9.66999,3.08466C9.52405,3.01517,9.45108,2.96884,9.45108,2.92252C9.57269,2.8067,9.71863,2.6677299999999997,9.84025,2.57507C9.96187,2.4824200000000003,10.08349,2.38977,10.25375,2.32028C11.0078,1.996003,11.4213,2.4360999999999997,11.5429,2.34345C11.5429,2.34345,11.3726,2.15814,11.4456,2.2044699999999997C11.4456,2.22763,11.6888,2.2739599999999998,11.7131,2.29712C11.9807,2.5055899999999998,12.7104,3.2468,13.1239,4.03434C13.2212,4.21964,13.2698,4.35862,13.2212,4.59024C13.1725,4.8218700000000005,13.1239,4.93769,13.0752,5.09983C13.0266,5.19248,12.759,5.91053,12.759,6.00318C12.7104,6.39695,12.9293,6.88337,12.9293,6.88337C12.9293,6.74439,12.9293,6.6749,12.9293,6.58225C12.9293,6.58225,12.9536,6.42011,12.9536,6.42011C12.9536,6.42011,12.9536,6.37378,12.9536,6.35062C12.9536,6.23481,13.0023,6.14216,13.0023,6.07267C13.0996,5.56308,13.2455,5.19248,13.4158,4.7523800000000005C13.4644,4.63657,13.5374,4.56708,13.5374,4.497590000000001C13.5374,4.33545,13.3914,4.15015,13.2942,3.94168C13.1969,3.73322,13.0752,3.52475,12.905,3.26996C12.5401,2.76038,12.2239,2.36661,11.6402,2.11182C11.4699,2.0423299999999998,10.8375,1.9728400000000001,10.6186,2.01917C10.35104,2.06549,10.13213,2.13498,9.93754,2.22763C9.64566,2.4129300000000002,9.42676,2.6677299999999997,9.1592,2.82987C8.57545,2.55191,8.36169,2.3317300000000003,8.234919999999999,2.32028C7.9725,2.12326,7.5347,1.914795,7.01875,1.741212C6.77552,1.555909,5.41343,1.0926514,4.19726,1Z" fill="#000000" fill-opacity="1"/></g><g style="mix-blend-mode:passthrough"><path d="" fill="#000000" fill-opacity="1"/></g></g></g></svg>