<svg width="14" height="14" viewBox="0 0 14 14" fill="" xmlns="http://www.w3.org/2000/svg">
<g clip-path="url(#clip0_53_8)"><path fill-rule="evenodd" clip-rule="evenodd" d="M12.5989 11.6188L13.9874 8.93707L12.7329 7.61584L12.7461 6.88864L14.0571 5.67148L12.8121 2.89926L11.0214 3.04627L10.4672 2.57421L10.2998 0.769909L7.35333 0L6.36183 1.48885L5.6483 1.63192L4.15605 0.62343L1.72732 2.43581L2.17487 3.81457L3.24225 4.67725L3.45444 4.26312L2.99501 2.85314L4.1771 1.96226L5.40422 2.79419L7.00456 2.49097L7.8195 1.26725L9.25707 1.65053L9.39373 3.12523L10.6481 4.18141L12.1262 4.06175L12.7352 5.42408L11.6653 6.43383L11.6219 8.06833L12.6487 9.13482L11.9765 10.4536L10.5186 10.2335L10.309 10.3887L11.6568 11.478L12.5989 11.6188ZM9.19606 8.8375C9.08497 8.97087 8.96345 9.09052 8.83364 9.19631L8.0143 8.5341C8.16597 8.44084 8.30595 8.32215 8.42777 8.17865C9.02888 7.47495 8.9366 6.3978 8.21251 5.78311C7.49182 5.1854 6.41467 5.27768 5.81356 5.98138C5.67672 6.14158 5.57581 6.32113 5.51011 6.51017L4.68743 5.84527C4.77893 5.66335 4.89245 5.48901 5.02828 5.32594C5.98258 4.18032 7.70534 4.04694 8.85437 5.01822C10.0034 5.98951 10.1708 7.70545 9.19606 8.8375ZM1.50834 12.241C1.31928 12.43 1.31928 12.7366 1.50834 12.9256C1.6974 13.1147 2.00393 13.1147 2.19299 12.9256L6.31131 8.80729V9.59987C6.31131 9.86724 6.52806 10.084 6.79543 10.084C7.0628 10.084 7.27955 9.86724 7.27955 9.59987V7.61849C7.27955 7.35111 7.0628 7.13437 6.79543 7.13437C6.78446 7.13437 6.77357 7.13473 6.76278 7.13545C6.75197 7.13473 6.74106 7.13436 6.73006 7.13436H4.74868C4.48131 7.13436 4.26456 7.35111 4.26456 7.61848C4.26456 7.88585 4.48131 8.1026 4.74868 8.1026H5.64671L1.50834 12.241ZM5.2339 13.8582C5.04484 13.6691 5.04484 13.3626 5.2339 13.1736L6.698 11.7095H5.94314C5.67577 11.7095 5.45902 11.4927 5.45902 11.2253C5.45902 10.958 5.67577 10.7412 5.94314 10.7412H7.87961L7.88594 10.7413L7.89226 10.7412C8.15963 10.7412 8.37638 10.958 8.37638 11.2253V13.1618C8.37638 13.4292 8.15963 13.6459 7.89226 13.6459C7.62489 13.6459 7.40814 13.4292 7.40814 13.1618V12.3686L5.91855 13.8582C5.72949 14.0473 5.42296 14.0473 5.2339 13.8582ZM0.141795 8.50791C-0.047265 8.69697 -0.047265 9.00349 0.141795 9.19255C0.330855 9.38161 0.637382 9.38161 0.826442 9.19255L2.31604 7.70296V8.49617C2.31604 8.76354 2.53278 8.98029 2.80015 8.98029C3.06753 8.98029 3.28427 8.76354 3.28427 8.49617V6.55969C3.28427 6.29232 3.06753 6.07558 2.80015 6.07558L2.79381 6.07562L2.78751 6.07558H0.851034C0.583663 6.07558 0.366916 6.29232 0.366916 6.55969C0.366916 6.82707 0.583663 7.04381 0.851035 7.04381H1.60589L0.141795 8.50791Z" fill=""/></g>
<defs><clipPath id="clip0_53_8"><rect width="14" height="14" fill=""/></clipPath></defs>
</svg>
