<svg width="16" height="16" viewBox="0 0 16 16" fill="" xmlns="http://www.w3.org/2000/svg">
<g clip-path="url(#clip0_68_118)">
<path fill-rule="evenodd" clip-rule="evenodd" d="M13.5989 12.6188L14.9874 9.93707L13.7329 8.61584L13.7461 7.88864L15.0571 6.67148L13.8121 3.89926L12.0214 4.04627L11.4672 3.57421L11.2998 1.76991L8.35333 1L7.36183 2.48885L6.6483 2.63192L5.15605 1.62343L2.72732 3.43581L3.17487 4.81457L4.24225 5.67725L4.45444 5.26312L3.99501 3.85314L5.1771 2.96226L6.40422 3.79419L8.00456 3.49097L8.8195 2.26725L10.2571 2.65053L10.3937 4.12523L11.6481 5.18141L13.1262 5.06175L13.7352 6.42408L12.6653 7.43383L12.6219 9.06833L13.6487 10.1348L12.9765 11.4536L11.5186 11.2335L11.309 11.3887L12.6568 12.478L13.5989 12.6188ZM10.1961 9.8375C10.085 9.97087 9.96345 10.0905 9.83364 10.1963L9.0143 9.5341C9.16597 9.44084 9.30595 9.32215 9.42777 9.17865C10.0289 8.47495 9.9366 7.3978 9.21251 6.78311C8.49182 6.1854 7.41467 6.27768 6.81356 6.98138C6.67672 7.14158 6.57581 7.32113 6.51011 7.51017L5.68743 6.84527C5.77893 6.66335 5.89245 6.48901 6.02828 6.32594C6.98258 5.18032 8.70534 5.04694 9.85437 6.01822C11.0034 6.98951 11.1708 8.70545 10.1961 9.8375ZM2.50834 13.241C2.31928 13.43 2.31928 13.7366 2.50834 13.9256C2.6974 14.1147 3.00393 14.1147 3.19299 13.9256L7.31131 9.80729V10.5999C7.31131 10.8672 7.52806 11.084 7.79543 11.084C8.0628 11.084 8.27955 10.8672 8.27955 10.5999V8.61849C8.27955 8.35111 8.0628 8.13437 7.79543 8.13437C7.78446 8.13437 7.77357 8.13473 7.76278 8.13545C7.75197 8.13473 7.74106 8.13436 7.73006 8.13436H5.74868C5.48131 8.13436 5.26456 8.35111 5.26456 8.61848C5.26456 8.88585 5.48131 9.1026 5.74868 9.1026H6.64671L2.50834 13.241ZM6.2339 14.8582C6.04484 14.6691 6.04484 14.3626 6.2339 14.1736L7.698 12.7095H6.94314C6.67577 12.7095 6.45902 12.4927 6.45902 12.2253C6.45902 11.958 6.67577 11.7412 6.94314 11.7412H8.87961L8.88594 11.7413L8.89226 11.7412C9.15963 11.7412 9.37638 11.958 9.37638 12.2253V14.1618C9.37638 14.4292 9.15963 14.6459 8.89226 14.6459C8.62489 14.6459 8.40814 14.4292 8.40814 14.1618V13.3686L6.91855 14.8582C6.72949 15.0473 6.42296 15.0473 6.2339 14.8582ZM1.1418 9.50791C0.952735 9.69697 0.952735 10.0035 1.14179 10.1926C1.33085 10.3816 1.63738 10.3816 1.82644 10.1926L3.31604 8.70296V9.49617C3.31604 9.76354 3.53278 9.98029 3.80015 9.98029C4.06753 9.98029 4.28427 9.76354 4.28427 9.49617V7.55969C4.28427 7.29232 4.06753 7.07558 3.80015 7.07558L3.79381 7.07562L3.78751 7.07558H1.85103C1.58366 7.07558 1.36692 7.29232 1.36692 7.55969C1.36692 7.82707 1.58366 8.04381 1.85103 8.04381H2.60589L1.1418 9.50791Z" fill=""/>
</g>
<defs>
<clipPath id="clip0_68_118">
<rect width="14" height="14" fill="" transform="translate(1 1)"/>
</clipPath>
</defs>
</svg>
