<svg width="16" height="16" viewBox="0 0 16 16" fill="" xmlns="http://www.w3.org/2000/svg">
<g clip-path="url(#clip0_68_103)">
<path d="M13.1813 11.3481H3.19363C3.07116 11.3481 2.9485 11.3484 2.82603 11.3481C2.76292 11.3479 2.70019 11.3439 2.63745 11.3359C2.67903 11.3415 2.72041 11.3471 2.76198 11.3526C2.64544 11.336 2.53144 11.3049 2.42266 11.2599L2.53446 11.307C2.42849 11.2617 2.32845 11.2036 2.23652 11.134C2.26816 11.1584 2.29962 11.1829 2.33127 11.2072C2.23617 11.1335 2.15072 11.048 2.07697 10.9529C2.10131 10.9846 2.12584 11.016 2.15019 11.0477C2.08064 10.9558 2.02254 10.8557 1.97715 10.7497L2.02434 10.8615C1.97932 10.7528 1.94818 10.6388 1.93165 10.5222C1.93727 10.5638 1.94288 10.6052 1.94831 10.6467C1.93427 10.5383 1.93614 10.4303 1.93614 10.3213V9.85424V8.24562V6.2769V4.5887C1.93614 4.33308 1.93483 4.07727 1.93614 3.82166C1.93652 3.76004 1.94045 3.69881 1.94831 3.63776C1.9427 3.67933 1.93708 3.72072 1.93165 3.76229C1.94831 3.64544 1.97921 3.53214 2.02434 3.42297L1.97715 3.53476C2.02254 3.4288 2.08064 3.32875 2.15019 3.23682C2.12584 3.26847 2.10131 3.29993 2.07697 3.33158C2.15072 3.23647 2.23617 3.15103 2.33127 3.07727C2.29962 3.10162 2.26816 3.12615 2.23652 3.15049C2.32845 3.08095 2.42849 3.02284 2.53446 2.97746L2.42266 3.02465C2.53143 2.97963 2.64543 2.94849 2.76198 2.93195C2.72041 2.93757 2.67903 2.94319 2.63745 2.94862C2.77659 2.93064 2.9191 2.93645 3.05918 2.93645H12.8007C12.9249 2.93645 13.0491 2.93607 13.1734 2.93645C13.2367 2.93664 13.2996 2.94057 13.3624 2.94862C13.3208 2.943 13.2794 2.93739 13.2378 2.93195C13.3547 2.94862 13.468 2.97952 13.5771 3.02465L13.4654 2.97746C13.5713 3.02284 13.6714 3.08095 13.7633 3.15049C13.7316 3.12615 13.7002 3.10162 13.6685 3.07727C13.7636 3.15103 13.8491 3.23647 13.9228 3.33158C13.8985 3.29993 13.874 3.26847 13.8496 3.23682C13.9192 3.32875 13.9773 3.4288 14.0227 3.53476L13.9755 3.42297C14.0205 3.53174 14.0516 3.64574 14.0682 3.76229C14.0625 3.72072 14.0569 3.67933 14.0515 3.63776C14.0655 3.74619 14.0637 3.85424 14.0637 3.96323V9.69581C14.0637 9.95143 14.065 10.2072 14.0637 10.4629C14.0633 10.5245 14.0594 10.5857 14.0515 10.6467C14.0571 10.6052 14.0627 10.5638 14.0682 10.5222C14.0516 10.6388 14.0205 10.7528 13.9755 10.8615L14.0227 10.7497C13.9773 10.8557 13.9192 10.9558 13.8496 11.0477C13.874 11.016 13.8985 10.9846 13.9228 10.9529C13.8491 11.048 13.7636 11.1335 13.6685 11.2072C13.7002 11.1829 13.7316 11.1584 13.7633 11.134C13.6714 11.2036 13.5713 11.2617 13.4654 11.307L13.5771 11.2599C13.4684 11.3049 13.3544 11.336 13.2378 11.3526C13.2794 11.3469 13.3208 11.3413 13.3624 11.3359C13.3022 11.3437 13.2419 11.3477 13.1813 11.3481C12.9365 11.3497 12.7017 11.5623 12.7131 11.8162C12.7243 12.0685 12.9189 12.2861 13.1813 12.2844C13.9972 12.279 14.7483 11.7102 14.9446 10.911C15.0013 10.6799 15 10.4526 15 10.2187V9.37278V8.146V6.75162V5.41978V4.37971V3.846C15 3.65049 14.9755 3.44956 14.9124 3.26379C14.7775 2.86622 14.5251 2.53926 14.1801 2.30162C13.8635 2.08364 13.4837 2.00005 13.1049 2.00005H2.8764C2.84494 2.00005 2.81348 1.99975 2.78202 2.00068C2.35075 2.01229 1.95899 2.17446 1.62903 2.4475C1.2118 2.79282 1 3.33008 1 3.86323V10.2599C1 10.5256 1.00449 10.7913 1.09625 11.0456C1.23933 11.4419 1.49476 11.7717 1.8485 12.0022C2.13371 12.1881 2.48127 12.2827 2.82022 12.2844C2.9118 12.2849 3.00337 12.2844 3.09494 12.2844H13.1815C13.4264 12.2844 13.6609 12.069 13.6496 11.8162C13.6382 11.5627 13.4438 11.3481 13.1813 11.3481ZM3.93745 4.97652V9.62296C3.93745 9.6857 3.93726 9.74862 3.93745 9.81135V9.81959C3.93502 9.88401 3.9485 9.94412 3.97771 9.99993C3.99663 10.058 4.02884 10.1082 4.07453 10.1507C4.11685 10.1964 4.16723 10.2286 4.22528 10.2475C4.28109 10.2769 4.3412 10.2902 4.40562 10.2878C4.44719 10.2821 4.48858 10.2765 4.53015 10.2711C4.60955 10.2488 4.67828 10.2087 4.7367 10.1507C4.82079 10.0591 4.87378 9.94656 4.87378 9.81959V9.68926V9.33757V8.81603V8.17971V7.48532V6.77952V6.12596V5.57165V5.17315C4.87378 5.11042 4.87397 5.0475 4.87378 4.98476V4.97652C4.87622 4.9121 4.86273 4.85199 4.83352 4.79619C4.81461 4.73813 4.7824 4.68795 4.7367 4.64544C4.69438 4.59974 4.64401 4.56753 4.58595 4.54862C4.53015 4.51922 4.47004 4.50592 4.40562 4.50836C4.36404 4.51398 4.32266 4.51959 4.28109 4.52503C4.20168 4.54731 4.13296 4.58738 4.07453 4.64544C3.99045 4.73701 3.93745 4.84956 3.93745 4.97652ZM6.38108 7.84038L6.37771 8.03738C6.3749 8.19506 6.37228 8.35255 6.36947 8.51023C6.3661 8.70087 6.36292 8.8915 6.35955 9.08233C6.35674 9.24712 6.35393 9.41191 6.35093 9.57652C6.34962 9.6563 6.34738 9.73626 6.34682 9.81603V9.81959C6.34438 9.88401 6.35786 9.94412 6.38708 9.99993C6.40599 10.058 6.4382 10.1082 6.48389 10.1507C6.52622 10.1964 6.57659 10.2286 6.63464 10.2475C6.69045 10.2769 6.75056 10.2902 6.81498 10.2878C6.85655 10.2821 6.89794 10.2765 6.93951 10.2711C7.01891 10.2488 7.08764 10.2087 7.14607 10.1507C7.17041 10.119 7.19494 10.0876 7.21929 10.0559C7.26161 9.98289 7.28296 9.90405 7.28314 9.81959L7.28651 9.62259C7.28932 9.46491 7.29195 9.30742 7.29475 9.14974C7.29813 8.95911 7.30131 8.76847 7.30468 8.57765C7.30749 8.41285 7.3103 8.24806 7.31329 8.08345C7.3146 8.00368 7.31685 7.92371 7.31741 7.84394V7.84038C7.31985 7.77596 7.30637 7.71585 7.27715 7.66004C7.25824 7.60199 7.22603 7.5518 7.18034 7.50929C7.13801 7.4636 7.08764 7.43139 7.02959 7.41248C6.97378 7.38308 6.91367 7.36978 6.84925 7.37222C6.80768 7.37783 6.76629 7.38345 6.72472 7.38888C6.64532 7.41117 6.57659 7.45124 6.51816 7.50929C6.49382 7.54094 6.46929 7.5724 6.44494 7.60405C6.40281 7.67708 6.38146 7.75592 6.38108 7.84038ZM8.73239 4.97652V9.62296C8.73239 9.6857 8.73221 9.74862 8.73239 9.81135V9.81959C8.72996 9.88401 8.74344 9.94412 8.77266 9.99993C8.79157 10.058 8.82378 10.1082 8.86947 10.1507C8.91179 10.1964 8.96217 10.2286 9.02022 10.2475C9.07603 10.2769 9.13614 10.2902 9.20056 10.2878C9.24213 10.2821 9.28352 10.2765 9.32509 10.2711C9.40449 10.2488 9.47322 10.2087 9.53164 10.1507C9.61573 10.0591 9.66872 9.94656 9.66872 9.81959V9.68926V9.33757V8.81603V8.17971V7.48532V6.77952V6.12596V5.57165V5.17315C9.66872 5.11042 9.66891 5.0475 9.66872 4.98476V4.97652C9.67116 4.9121 9.65767 4.85199 9.62846 4.79619C9.60955 4.73813 9.57734 4.68795 9.53164 4.64544C9.48932 4.59974 9.43895 4.56753 9.3809 4.54862C9.32509 4.51922 9.26498 4.50592 9.20056 4.50836C9.15899 4.51398 9.1176 4.51959 9.07603 4.52503C8.99663 4.54731 8.9279 4.58738 8.86947 4.64544C8.78539 4.73701 8.73239 4.84956 8.73239 4.97652ZM11.08 7.94768V9.58907C11.08 9.66472 11.0794 9.74038 11.08 9.81622V9.81941C11.0775 9.88382 11.091 9.94394 11.1202 9.99974C11.1391 10.0578 11.1713 10.108 11.217 10.1505C11.2594 10.1962 11.3097 10.2284 11.3678 10.2473C11.4236 10.2767 11.4837 10.29 11.5481 10.2876C11.5897 10.282 11.6311 10.2763 11.6727 10.2709C11.7521 10.2486 11.8208 10.2085 11.8792 10.1505C11.9633 10.0589 12.0163 9.94637 12.0163 9.81941V9.63364V9.18738V8.64487V8.17802C12.0163 8.10237 12.0169 8.02671 12.0163 7.95087V7.94768C12.0187 7.88326 12.0052 7.82315 11.976 7.76735C11.9571 7.70929 11.9249 7.65911 11.8792 7.6166C11.8369 7.5709 11.7865 7.53869 11.7285 7.51978C11.6727 7.49038 11.6125 7.47708 11.5481 7.47952C11.5066 7.48514 11.4652 7.49075 11.4236 7.49619C11.3442 7.51847 11.2755 7.55854 11.217 7.6166C11.133 7.70836 11.08 7.8209 11.08 7.94768ZM3.54813 14.3123H12.0903C12.2056 14.3123 12.3212 14.313 12.4365 14.3123H12.4517C12.5717 14.3123 12.6977 14.26 12.7828 14.1752C12.864 14.0939 12.9251 13.9608 12.9198 13.8441C12.9144 13.723 12.8747 13.5975 12.7828 13.513C12.6912 13.429 12.5786 13.376 12.4517 13.376H3.90955C3.79419 13.376 3.67865 13.3752 3.56329 13.376H3.54813C3.42809 13.376 3.30206 13.4282 3.21704 13.513C3.13577 13.5943 3.07472 13.7275 3.07996 13.8441C3.08539 13.9653 3.12509 14.0908 3.21704 14.1752C3.3088 14.2593 3.42135 14.3123 3.54813 14.3123Z" fill=""/>
</g>
<defs>
<clipPath id="clip0_68_103">
<rect width="16" height="16" fill=""/>
</clipPath>
</defs>
</svg>
