<svg width="16" height="16" viewBox="0 0 16 16" fill="" xmlns="http://www.w3.org/2000/svg">
<g clip-path="url(#clip0_68_159)">
<path d="M13.1813 11.3481H3.19363C3.07116 11.3481 2.9485 11.3484 2.82603 11.3481C2.76292 11.3479 2.70019 11.3439 2.63745 11.3359C2.67903 11.3415 2.72041 11.3471 2.76198 11.3526C2.64544 11.336 2.53144 11.3049 2.42266 11.2599L2.53446 11.307C2.42849 11.2617 2.32845 11.2036 2.23652 11.134C2.26816 11.1584 2.29962 11.1829 2.33127 11.2072C2.23617 11.1335 2.15072 11.048 2.07697 10.9529C2.10131 10.9846 2.12584 11.016 2.15019 11.0477C2.08064 10.9558 2.02254 10.8557 1.97715 10.7497L2.02434 10.8615C1.97932 10.7528 1.94818 10.6388 1.93165 10.5222C1.93727 10.5638 1.94288 10.6052 1.94831 10.6467C1.93427 10.5383 1.93614 10.4303 1.93614 10.3213V9.85424V8.24562V6.2769V4.5887C1.93614 4.33308 1.93483 4.07727 1.93614 3.82166C1.93652 3.76004 1.94045 3.69881 1.94831 3.63776C1.9427 3.67933 1.93708 3.72072 1.93165 3.76229C1.94831 3.64544 1.97921 3.53214 2.02434 3.42297L1.97715 3.53476C2.02254 3.4288 2.08064 3.32875 2.15019 3.23682C2.12584 3.26847 2.10131 3.29993 2.07697 3.33158C2.15072 3.23647 2.23617 3.15103 2.33127 3.07727C2.29962 3.10162 2.26816 3.12615 2.23652 3.15049C2.32845 3.08095 2.42849 3.02284 2.53446 2.97746L2.42266 3.02465C2.53143 2.97963 2.64543 2.94849 2.76198 2.93195C2.72041 2.93757 2.67903 2.94319 2.63745 2.94862C2.77659 2.93064 2.9191 2.93645 3.05918 2.93645H12.8007C12.9249 2.93645 13.0491 2.93607 13.1734 2.93645C13.2367 2.93664 13.2996 2.94057 13.3624 2.94862C13.3208 2.943 13.2794 2.93739 13.2378 2.93195C13.3547 2.94862 13.468 2.97952 13.5771 3.02465L13.4654 2.97746C13.5713 3.02284 13.6714 3.08095 13.7633 3.15049C13.7316 3.12615 13.7002 3.10162 13.6685 3.07727C13.7636 3.15103 13.8491 3.23647 13.9228 3.33158C13.8985 3.29993 13.874 3.26847 13.8496 3.23682C13.9192 3.32875 13.9773 3.4288 14.0227 3.53476L13.9755 3.42297C14.0205 3.53174 14.0516 3.64574 14.0682 3.76229C14.0625 3.72072 14.0569 3.67933 14.0515 3.63776C14.0655 3.74619 14.0637 3.85424 14.0637 3.96323V9.69581C14.0637 9.95143 14.065 10.2072 14.0637 10.4629C14.0633 10.5245 14.0594 10.5857 14.0515 10.6467C14.0571 10.6052 14.0627 10.5638 14.0682 10.5222C14.0516 10.6388 14.0205 10.7528 13.9755 10.8615L14.0227 10.7497C13.9773 10.8557 13.9192 10.9558 13.8496 11.0477C13.874 11.016 13.8985 10.9846 13.9228 10.9529C13.8491 11.048 13.7636 11.1335 13.6685 11.2072C13.7002 11.1829 13.7316 11.1584 13.7633 11.134C13.6714 11.2036 13.5713 11.2617 13.4654 11.307L13.5771 11.2599C13.4684 11.3049 13.3544 11.336 13.2378 11.3526C13.2794 11.3469 13.3208 11.3413 13.3624 11.3359C13.3022 11.3437 13.2419 11.3477 13.1813 11.3481C12.9365 11.3497 12.7017 11.5623 12.7131 11.8162C12.7243 12.0685 12.9189 12.2861 13.1813 12.2844C13.9972 12.279 14.7483 11.7102 14.9446 10.911C15.0013 10.6799 15 10.4526 15 10.2187V9.37278V8.146V6.75162V5.41978V4.37971V3.846C15 3.65049 14.9755 3.44956 14.9124 3.26379C14.7775 2.86622 14.5251 2.53926 14.1801 2.30162C13.8635 2.08364 13.4837 2.00005 13.1049 2.00005H2.8764C2.84494 2.00005 2.81348 1.99975 2.78202 2.00068C2.35075 2.01229 1.95899 2.17446 1.62903 2.4475C1.2118 2.79282 1 3.33008 1 3.86323V10.2599C1 10.5256 1.00449 10.7913 1.09625 11.0456C1.23933 11.4419 1.49476 11.7717 1.8485 12.0022C2.13371 12.1881 2.48127 12.2827 2.82022 12.2844C2.9118 12.2849 3.00337 12.2844 3.09494 12.2844H13.1813C13.4262 12.2844 13.6609 12.069 13.6496 11.8162C13.6382 11.5627 13.4438 11.3481 13.1813 11.3481ZM3.54813 14.3123H12.0903C12.2056 14.3123 12.3212 14.313 12.4365 14.3123H12.4517C12.5717 14.3123 12.6977 14.26 12.7828 14.1752C12.864 14.0939 12.9251 13.9608 12.9198 13.8441C12.9144 13.723 12.8747 13.5975 12.7828 13.513C12.6912 13.429 12.5786 13.376 12.4517 13.376H3.90955C3.79419 13.376 3.67865 13.3752 3.56329 13.376H3.54813C3.42809 13.376 3.30206 13.4282 3.21704 13.513C3.13577 13.5943 3.07472 13.7275 3.07996 13.8441C3.08539 13.9653 3.12509 14.0908 3.21704 14.1752C3.3088 14.2593 3.42135 14.3123 3.54813 14.3123Z" fill=""/>
<path d="M10.7748 7.32165C10.9779 7.48404 11.054 7.75841 10.9634 8.00218L10.9548 8.02189C10.8263 8.36043 10.6368 8.67241 10.3891 8.94839L10.3806 8.95782C10.2125 9.14468 9.94939 9.21373 9.71119 9.13352L9.42407 9.03753C9.32862 9.09828 9.22927 9.15268 9.12666 9.20037L9.07524 9.46178C9.02546 9.7131 8.82558 9.90752 8.57299 9.95032L8.55499 9.95289C8.1874 10.0157 7.81181 10.0157 7.44422 9.95289L7.42879 9.95032C7.17553 9.90816 6.97483 9.71361 6.92482 9.46178L6.8734 9.1978C6.77228 9.15022 6.67437 9.09611 6.58028 9.03581L6.28801 9.13438C6.05159 9.21333 5.79084 9.14546 5.62292 8.96125L5.61006 8.94753C5.36553 8.67495 5.17372 8.35934 5.04439 8.01675L5.04011 8.0056C4.94795 7.7605 5.02366 7.48393 5.22781 7.31994L5.44722 7.14252C5.4416 7.04776 5.4416 6.95274 5.44722 6.85797L5.22609 6.6797C5.02329 6.51673 4.94737 6.24237 5.03754 5.99832L5.04611 5.97861C5.17467 5.64007 5.36408 5.32809 5.61178 5.05125L5.62035 5.04268C5.78825 4.85552 6.05136 4.78612 6.28973 4.86612L6.58114 4.96383C6.67456 4.90383 6.77226 4.84984 6.87254 4.8027L6.92482 4.53872C6.97471 4.28715 7.175 4.09266 7.42793 4.05018L7.44593 4.04675C7.81356 3.98442 8.18907 3.98442 8.5567 4.04675L8.57213 4.05018C8.82514 4.09222 9.02577 4.28637 9.07609 4.53786L9.12752 4.79927C9.22951 4.84727 9.32893 4.90212 9.42407 4.96297L9.7129 4.86527C9.9495 4.78652 10.2103 4.85474 10.378 5.03925L10.3909 5.05297C10.6368 5.32723 10.8271 5.63921 10.9565 5.98375L10.9608 5.99404C11.0534 6.23939 10.9776 6.51644 10.7731 6.68056L10.5588 6.85369C10.5649 6.95159 10.5649 7.04977 10.5588 7.14767L10.7748 7.32165ZM9.64177 7.50764L9.68462 7.25909C9.71406 7.08778 9.71406 6.91271 9.68462 6.74141L9.64177 6.49372L9.83718 6.33601L10.09 6.13117C10.0219 5.98777 9.93767 5.85262 9.83889 5.72834L9.27322 5.91776L9.09238 5.7772C8.94562 5.66325 8.78155 5.57355 8.60641 5.5115L8.37672 5.42922L8.32958 5.18924L8.26787 4.87212C8.09012 4.85283 7.9108 4.85283 7.73305 4.87212L7.62334 5.43094L7.3945 5.51322C7.2209 5.57536 7.05831 5.66476 6.91283 5.77805L6.73112 5.91947L6.51343 5.84576L6.16202 5.72749C6.06336 5.85184 5.97911 5.98698 5.9109 6.13031L6.36515 6.49714L6.32144 6.7457C6.29226 6.91386 6.29226 7.08579 6.32144 7.25395L6.36429 7.5025L6.16802 7.66106L5.9109 7.86933C5.97947 8.01246 6.0626 8.14702 6.16202 8.27216L6.73112 8.08103L6.91283 8.22244C7.05853 8.33558 7.22052 8.42472 7.39279 8.48643L7.6242 8.5687L7.67048 8.80869L7.73305 9.12838C7.91079 9.14792 8.09013 9.14792 8.26787 9.12838L8.37672 8.57128L8.60641 8.489C8.78383 8.42557 8.94668 8.33729 9.09152 8.2233L9.27322 8.08188L9.49178 8.15559L9.83889 8.27216C9.93726 8.14776 10.0212 8.01262 10.0892 7.86933L9.64177 7.50764ZM7.14338 7.00025C7.14338 7.4736 7.52711 7.85733 8.00046 7.85733C8.47381 7.85733 8.85754 7.4736 8.85754 7.00025C8.85754 6.5269 8.47381 6.14317 8.00046 6.14317C7.52711 6.14317 7.14338 6.5269 7.14338 7.00025Z" fill="white"/>
</g>
<defs>
<clipPath id="clip0_68_159">
<rect width="16" height="16" fill=""/>
</clipPath>
</defs>
</svg>
