<svg width="16" height="16" viewBox="0 0 16 16" fill="" xmlns="http://www.w3.org/2000/svg">
<path d="M8 0C3.58892 0 0 3.58892 0 8C0 12.4111 3.58892 16 8 16C12.4111 16 16 12.4111 16 8C16 3.58892 12.4111 0 8 0ZM8 14.7692C4.26769 14.7692 1.23077 11.7323 1.23077 8C1.23077 4.26769 4.26769 1.23077 8 1.23077C11.7323 1.23077 14.7692 4.26769 14.7692 8C14.7692 11.7323 11.7323 14.7692 8 14.7692Z" fill=""/>
<path d="M7.13104 4.40308C7.03922 4.33634 6.93074 4.29629 6.81758 4.28736C6.70442 4.27844 6.59099 4.30099 6.48985 4.35251C6.38871 4.40404 6.30379 4.48254 6.24448 4.57933C6.18517 4.67611 6.15379 4.78742 6.15381 4.90093V11.4351C6.15391 11.5485 6.18537 11.6598 6.24472 11.7565C6.30407 11.8532 6.389 11.9316 6.49012 11.983C6.59125 12.0345 6.70462 12.057 6.81773 12.048C6.93084 12.0391 7.03927 11.999 7.13104 11.9323L11.6233 8.66524C11.7019 8.60815 11.7658 8.53329 11.8099 8.44676C11.854 8.36023 11.877 8.2645 11.877 8.16739C11.877 8.07028 11.854 7.97455 11.8099 7.88802C11.7658 7.80149 11.7019 7.72663 11.6233 7.66954L7.13104 4.40308V4.40308Z" fill=""/>
</svg>
